<svg xmlns="http://www.w3.org/2000/svg" width="500" height="380" version="1.2"><desc>Generated with Qt</desc><g font-size="12" font-weight="400" style="font-size:12px;font-style:normal;font-weight:400;fill:none;stroke:navy;stroke-width:2;stroke-linecap:square;stroke-linejoin:bevel;stroke-opacity:1;font-family:Helvetica"><path d="M15 107h100M115 107v30M115 87v20M115 197h50M115 27h40M115 197v20M215 27h40M255 27v80M225 197h30M255 107v90M255 107h40M115 7v20" style="fill:none" transform="matrix(1.58793 0 0 1.58793 0 6.248)"/></g><g font-size="12" font-weight="400" style="font-size:12px;font-style:normal;font-weight:400;fill:navy;fill-opacity:1;stroke:none;font-family:Helvetica"><path d="M163 195h4v4h-4z" style="fill-rule:evenodd" transform="matrix(1.58793 0 0 1.58793 0 6.248)" vector-effect="non-scaling-stroke"/></g><g font-size="12" font-weight="400" style="font-size:12px;font-style:normal;font-weight:400;fill:navy;fill-opacity:1;stroke:none;font-family:Helvetica"><path d="M223 195h4v4h-4z" style="fill-rule:evenodd" transform="matrix(1.58793 0 0 1.58793 0 6.248)" vector-effect="non-scaling-stroke"/></g><g font-size="12" font-weight="400" style="font-size:12px;font-style:normal;font-weight:400;fill:navy;fill-opacity:1;stroke:navy;stroke-width:1;stroke-linecap:square;stroke-linejoin:bevel;stroke-opacity:1;font-family:Helvetica"><path d="M118 27a3 3 0 1 1-6 0 3 3 0 0 1 6 0" style="fill-rule:evenodd" transform="matrix(1.58793 0 0 1.58793 0 6.248)"/></g><g font-size="12" font-weight="400" style="font-size:12px;font-style:normal;font-weight:400;fill:navy;fill-opacity:1;stroke:navy;stroke-width:1;stroke-linecap:square;stroke-linejoin:bevel;stroke-opacity:1;font-family:Helvetica"><path d="M118 197a3 3 0 1 1-6 0 3 3 0 0 1 6 0" style="fill-rule:evenodd" transform="matrix(1.58793 0 0 1.58793 0 6.248)"/></g><path d="M19 107a4 4 0 1 1-8 0 4 4 0 0 1 8 0" font-size="12" font-weight="400" style="font-size:12px;font-style:normal;font-weight:400;fill:none;stroke:red;stroke-width:1;stroke-linecap:square;stroke-linejoin:bevel;stroke-opacity:1;font-family:Helvetica" transform="matrix(1.58793 0 0 1.58793 0 6.248)"/><g font-size="12" font-weight="400" style="font-size:12px;font-style:normal;font-weight:400;fill:navy;fill-opacity:1;stroke:navy;stroke-width:1;stroke-linecap:square;stroke-linejoin:bevel;stroke-opacity:1;font-family:Helvetica"><path d="M118 107a3 3 0 1 1-6 0 3 3 0 0 1 6 0" style="fill-rule:evenodd" transform="matrix(1.58793 0 0 1.58793 0 6.248)"/></g><path d="M119 217a4 4 0 1 1-8 0 4 4 0 0 1 8 0" font-size="12" font-weight="400" style="font-size:12px;font-style:normal;font-weight:400;fill:none;stroke:red;stroke-width:1;stroke-linecap:square;stroke-linejoin:bevel;stroke-opacity:1;font-family:Helvetica" transform="matrix(1.58793 0 0 1.58793 0 6.248)"/><g font-size="12" font-weight="400" style="font-size:12px;font-style:normal;font-weight:400;fill:navy;fill-opacity:1;stroke:none;font-family:Helvetica"><path d="M153 25h4v4h-4z" style="fill-rule:evenodd" transform="matrix(1.58793 0 0 1.58793 0 6.248)" vector-effect="non-scaling-stroke"/></g><g font-size="12" font-weight="400" style="font-size:12px;font-style:normal;font-weight:400;fill:navy;fill-opacity:1;stroke:none;font-family:Helvetica"><path d="M213 25h4v4h-4z" style="fill-rule:evenodd" transform="matrix(1.58793 0 0 1.58793 0 6.248)" vector-effect="non-scaling-stroke"/></g><g font-size="12" font-weight="400" style="font-size:12px;font-style:normal;font-weight:400;fill:navy;fill-opacity:1;stroke:navy;stroke-width:1;stroke-linecap:square;stroke-linejoin:bevel;stroke-opacity:1;font-family:Helvetica"><path d="M258 107a3 3 0 1 1-6 0 3 3 0 0 1 6 0" style="fill-rule:evenodd" transform="matrix(1.58793 0 0 1.58793 0 6.248)"/></g><g font-size="12" font-weight="400" style="font-size:12px;font-style:normal;font-weight:400;fill:none;stroke:red;stroke-width:1;stroke-linecap:square;stroke-linejoin:bevel;stroke-opacity:1;font-family:Helvetica"><path stroke-width="1.58793" d="M474.79 176.157a6.352 6.352 0 1 1-12.704-.001 6.352 6.352 0 0 1 12.704 0M188.963 17.364a6.352 6.352 0 1 1-12.703 0 6.352 6.352 0 0 1 12.703 0"/></g><path d="m234.111 49.107 23.855.02" style="fill:none;stroke:navy;stroke-width:3.0999999;stroke-linecap:square;stroke-linejoin:bevel;stroke-miterlimit:10;stroke-dasharray:none;stroke-opacity:1"/><path d="m332.258 49.134 22.703-.007" style="fill:none;stroke:navy;stroke-width:3.1;stroke-linecap:square;stroke-linejoin:bevel;stroke-miterlimit:10;stroke-dasharray:none;stroke-opacity:1"/><path d="m269.555 30.7 71.43.517" style="fill:none;stroke:navy;stroke-width:3.1;stroke-linecap:square;stroke-linejoin:bevel;stroke-miterlimit:10;stroke-dasharray:none;stroke-opacity:1;image-rendering:auto"/><path d="m251.022 67.483 69.337-.176" style="fill:none;stroke:navy;stroke-width:3.10160208;stroke-linecap:square;stroke-linejoin:bevel;stroke-miterlimit:10;stroke-dasharray:none;stroke-opacity:1"/><path d="m268.601 31.276-19.75 35.634" style="fill:none;stroke:navy;stroke-width:3.12982869;stroke-linecap:square;stroke-linejoin:bevel;stroke-miterlimit:10;stroke-dasharray:none;stroke-opacity:1"/><path d="m340.36 33.33-19.028 33.35" style="fill:none;stroke:navy;stroke-width:3.14545441;stroke-linecap:square;stroke-linejoin:bevel;stroke-miterlimit:10;stroke-dasharray:none;stroke-opacity:1"/><g font-size="12" font-weight="400" style="font-style:normal;font-weight:400;font-size:12px;font-family:Helvetica;fill:navy;fill-opacity:1;stroke:none"><path d="M153 25h4v4h-4z" style="fill-rule:evenodd" transform="matrix(1.58793 0 0 1.58793 15.85 276.14)" vector-effect="non-scaling-stroke"/></g><g font-size="12" font-weight="400" style="font-style:normal;font-weight:400;font-size:12px;font-family:Helvetica;fill:navy;fill-opacity:1;stroke:none"><path d="M213 25h4v4h-4z" style="fill-rule:evenodd" transform="matrix(1.58793 0 0 1.58793 15.85 276.14)" vector-effect="non-scaling-stroke"/></g><path d="m249.96 318.999 23.856.02M348.108 319.026l22.702-.007" style="fill:none;stroke:navy;stroke-width:3.0999999;stroke-linecap:square;stroke-linejoin:bevel;stroke-miterlimit:10;stroke-dasharray:none;stroke-opacity:1"/><path d="m285.404 300.591 71.43.518" style="fill:none;stroke:navy;stroke-width:3.0999999;stroke-linecap:square;stroke-linejoin:bevel;stroke-miterlimit:10;stroke-dasharray:none;stroke-opacity:1;image-rendering:auto"/><path d="m266.871 337.375 69.337-.176" style="fill:none;stroke:navy;stroke-width:3.10160208;stroke-linecap:square;stroke-linejoin:bevel;stroke-miterlimit:10;stroke-dasharray:none;stroke-opacity:1"/><path d="m284.45 301.167-19.75 35.635" style="fill:none;stroke:navy;stroke-width:3.12982869;stroke-linecap:square;stroke-linejoin:bevel;stroke-miterlimit:10;stroke-dasharray:none;stroke-opacity:1"/><path d="m356.21 303.222-19.03 33.35" style="fill:none;stroke:navy;stroke-width:3.14545441;stroke-linecap:square;stroke-linejoin:bevel;stroke-miterlimit:10;stroke-dasharray:none;stroke-opacity:1"/><g font-size="12" font-weight="400" style="font-style:normal;font-weight:400;font-size:12px;font-family:Helvetica;fill:navy;fill-opacity:1;stroke:none"><path d="M153 25h4v4h-4z" style="fill-rule:evenodd" transform="matrix(0 1.58793 -1.58793 0 225.4 -32.101)" vector-effect="non-scaling-stroke"/></g><path d="m182.542 202.01-.02 23.855M182.514 300.157l.007 22.703" style="fill:none;stroke:navy;stroke-width:3.0999999;stroke-linecap:square;stroke-linejoin:bevel;stroke-miterlimit:10;stroke-dasharray:none;stroke-opacity:1"/><path d="m200.95 237.454-.519 71.43" style="fill:none;stroke:navy;stroke-width:3.0999999;stroke-linecap:square;stroke-linejoin:bevel;stroke-miterlimit:10;stroke-dasharray:none;stroke-opacity:1;image-rendering:auto"/><path d="m164.166 218.92.176 69.337" style="fill:none;stroke:navy;stroke-width:3.10160208;stroke-linecap:square;stroke-linejoin:bevel;stroke-miterlimit:10;stroke-dasharray:none;stroke-opacity:1"/><path d="m200.373 236.5-35.634-19.75" style="fill:none;stroke:navy;stroke-width:3.12982869;stroke-linecap:square;stroke-linejoin:bevel;stroke-miterlimit:10;stroke-dasharray:none;stroke-opacity:1"/><path d="m198.318 308.26-33.35-19.03" style="fill:none;stroke:navy;stroke-width:3.14545441;stroke-linecap:square;stroke-linejoin:bevel;stroke-miterlimit:10;stroke-dasharray:none;stroke-opacity:1"/><g style="font-style:normal;font-weight:400;font-size:12px;font-family:Helvetica;fill:navy;fill-opacity:1;stroke:none"><path d="M213 25h4v4h-4z" font-size="12" font-weight="400" style="fill-rule:evenodd" transform="matrix(0 1.58793 -1.58793 0 225.374 -196.595)" vector-effect="non-scaling-stroke"/></g><path d="m120.924 35.136-.02 23.856M120.896 133.283l.007 22.703" style="fill:none;stroke:navy;stroke-width:3.0999999;stroke-linecap:square;stroke-linejoin:bevel;stroke-miterlimit:10;stroke-dasharray:none;stroke-opacity:1" transform="translate(61.591 2.38)"/><path d="m139.331 70.58-.517 71.43" style="fill:none;stroke:navy;stroke-width:3.0999999;stroke-linecap:square;stroke-linejoin:bevel;stroke-miterlimit:10;stroke-dasharray:none;stroke-opacity:1;image-rendering:auto" transform="translate(61.591 2.38)"/><path d="m102.548 52.047.176 69.337" style="fill:none;stroke:navy;stroke-width:3.10160208;stroke-linecap:square;stroke-linejoin:bevel;stroke-miterlimit:10;stroke-dasharray:none;stroke-opacity:1" transform="translate(61.591 2.38)"/><path d="m138.755 69.626-35.634-19.75" style="fill:none;stroke:navy;stroke-width:3.12982869;stroke-linecap:square;stroke-linejoin:bevel;stroke-miterlimit:10;stroke-dasharray:none;stroke-opacity:1" transform="translate(61.591 2.38)"/><path d="m136.7 141.386-33.35-19.03" style="fill:none;stroke:navy;stroke-width:3.14545441;stroke-linecap:square;stroke-linejoin:bevel;stroke-miterlimit:10;stroke-dasharray:none;stroke-opacity:1" transform="translate(61.591 2.38)"/></svg>