<svg xmlns="http://www.w3.org/2000/svg" width="500" height="380" version="1.2"><desc>Generated with Qt</desc><g font-size="12" font-weight="400" style="font-size:12px;font-style:normal;font-weight:400;fill:none;stroke:navy;stroke-width:2;stroke-linecap:square;stroke-linejoin:bevel;stroke-opacity:1;font-family:Helvetica"><path d="M165 197h60M167 204h56M167 211l7-7M174 211l7-7M181 211l7-7M188 211l7-7M195 211l7-7M202 211l7-7M209 211l7-7M216 211l7-7" style="fill:none" transform="matrix(1.58793 0 0 1.58793 0 6.248)"/></g><g font-size="12" font-weight="400" style="font-size:12px;font-style:normal;font-weight:400;fill:none;stroke:navy;stroke-width:2;stroke-linecap:square;stroke-linejoin:bevel;stroke-opacity:1;font-family:Helvetica"><path d="M115 27v60M108 29v56M101 29l7 7M101 36l7 7M101 43l7 7M101 50l7 7M101 57l7 7M101 64l7 7M101 71l7 7M101 78l7 7" style="fill:none" transform="matrix(1.58793 0 0 1.58793 0 6.248)"/></g><g font-size="12" font-weight="400" style="font-size:12px;font-style:normal;font-weight:400;fill:none;stroke:navy;stroke-width:2;stroke-linecap:square;stroke-linejoin:bevel;stroke-opacity:1;font-family:Helvetica"><path d="M115 137v60M108 139v56M101 139l7 7M101 146l7 7M101 153l7 7M101 160l7 7M101 167l7 7M101 174l7 7M101 181l7 7M101 188l7 7" style="fill:none" transform="matrix(1.58793 0 0 1.58793 0 6.248)"/></g><g font-size="12" font-weight="400" style="font-size:12px;font-style:normal;font-weight:400;fill:none;stroke:navy;stroke-width:2;stroke-linecap:square;stroke-linejoin:bevel;stroke-opacity:1;font-family:Helvetica"><path d="M155 27h60M157 34h56M157 41l7-7M164 41l7-7M171 41l7-7M178 41l7-7M185 41l7-7M192 41l7-7M199 41l7-7M206 41l7-7" style="fill:none" transform="matrix(1.58793 0 0 1.58793 0 6.248)"/></g><g font-size="12" font-weight="400" style="font-size:12px;font-style:normal;font-weight:400;fill:none;stroke:navy;stroke-width:2;stroke-linecap:square;stroke-linejoin:bevel;stroke-opacity:1;font-family:Helvetica"><path d="M15 107h100M115 107v30M115 87v20M115 197h50M115 27h40M115 197v20M215 27h40M255 27v80M225 197h30M255 107v90M255 107h40M115 7v20" style="fill:none" transform="matrix(1.58793 0 0 1.58793 0 6.248)"/></g><g font-size="12" font-weight="400" style="font-size:12px;font-style:normal;font-weight:400;fill:navy;fill-opacity:1;stroke:none;font-family:Helvetica"><path d="M163 195h4v4h-4z" style="fill-rule:evenodd" transform="matrix(1.58793 0 0 1.58793 0 6.248)" vector-effect="non-scaling-stroke"/></g><g font-size="12" font-weight="400" style="font-size:12px;font-style:normal;font-weight:400;fill:navy;fill-opacity:1;stroke:none;font-family:Helvetica"><path d="M223 195h4v4h-4z" style="fill-rule:evenodd" transform="matrix(1.58793 0 0 1.58793 0 6.248)" vector-effect="non-scaling-stroke"/></g><g font-size="12" font-weight="400" style="font-size:12px;font-style:normal;font-weight:400;fill:navy;fill-opacity:1;stroke:navy;stroke-width:1;stroke-linecap:square;stroke-linejoin:bevel;stroke-opacity:1;font-family:Helvetica"><path d="M118 27a3 3 0 1 1-6 0 3 3 0 0 1 6 0" style="fill-rule:evenodd" transform="matrix(1.58793 0 0 1.58793 0 6.248)"/></g><g font-size="12" font-weight="400" style="font-size:12px;font-style:normal;font-weight:400;fill:navy;fill-opacity:1;stroke:none;font-family:Helvetica"><path d="M113 85h4v4h-4z" style="fill-rule:evenodd" transform="matrix(1.58793 0 0 1.58793 0 6.248)" vector-effect="non-scaling-stroke"/></g><g font-size="12" font-weight="400" style="font-size:12px;font-style:normal;font-weight:400;fill:navy;fill-opacity:1;stroke:none;font-family:Helvetica"><path d="M113 135h4v4h-4z" style="fill-rule:evenodd" transform="matrix(1.58793 0 0 1.58793 0 6.248)" vector-effect="non-scaling-stroke"/></g><g font-size="12" font-weight="400" style="font-size:12px;font-style:normal;font-weight:400;fill:navy;fill-opacity:1;stroke:navy;stroke-width:1;stroke-linecap:square;stroke-linejoin:bevel;stroke-opacity:1;font-family:Helvetica"><path d="M118 197a3 3 0 1 1-6 0 3 3 0 0 1 6 0" style="fill-rule:evenodd" transform="matrix(1.58793 0 0 1.58793 0 6.248)"/></g><path d="M19 107a4 4 0 1 1-8 0 4 4 0 0 1 8 0" font-size="12" font-weight="400" style="font-size:12px;font-style:normal;font-weight:400;fill:none;stroke:red;stroke-width:1;stroke-linecap:square;stroke-linejoin:bevel;stroke-opacity:1;font-family:Helvetica" transform="matrix(1.58793 0 0 1.58793 0 6.248)"/><g font-size="12" font-weight="400" style="font-size:12px;font-style:normal;font-weight:400;fill:navy;fill-opacity:1;stroke:navy;stroke-width:1;stroke-linecap:square;stroke-linejoin:bevel;stroke-opacity:1;font-family:Helvetica"><path d="M118 107a3 3 0 1 1-6 0 3 3 0 0 1 6 0" style="fill-rule:evenodd" transform="matrix(1.58793 0 0 1.58793 0 6.248)"/></g><path d="M119 217a4 4 0 1 1-8 0 4 4 0 0 1 8 0" font-size="12" font-weight="400" style="font-size:12px;font-style:normal;font-weight:400;fill:none;stroke:red;stroke-width:1;stroke-linecap:square;stroke-linejoin:bevel;stroke-opacity:1;font-family:Helvetica" transform="matrix(1.58793 0 0 1.58793 0 6.248)"/><g font-size="12" font-weight="400" style="font-size:12px;font-style:normal;font-weight:400;fill:navy;fill-opacity:1;stroke:none;font-family:Helvetica"><path d="M153 25h4v4h-4z" style="fill-rule:evenodd" transform="matrix(1.58793 0 0 1.58793 0 6.248)" vector-effect="non-scaling-stroke"/></g><g font-size="12" font-weight="400" style="font-size:12px;font-style:normal;font-weight:400;fill:navy;fill-opacity:1;stroke:none;font-family:Helvetica"><path d="M213 25h4v4h-4z" style="fill-rule:evenodd" transform="matrix(1.58793 0 0 1.58793 0 6.248)" vector-effect="non-scaling-stroke"/></g><g font-size="12" font-weight="400" style="font-size:12px;font-style:normal;font-weight:400;fill:navy;fill-opacity:1;stroke:navy;stroke-width:1;stroke-linecap:square;stroke-linejoin:bevel;stroke-opacity:1;font-family:Helvetica"><path d="M258 107a3 3 0 1 1-6 0 3 3 0 0 1 6 0" style="fill-rule:evenodd" transform="matrix(1.58793 0 0 1.58793 0 6.248)"/></g><g font-size="12" font-weight="400" style="font-size:12px;font-style:normal;font-weight:400;fill:none;stroke:red;stroke-width:1;stroke-linecap:square;stroke-linejoin:bevel;stroke-opacity:1;font-family:Helvetica"><path stroke-width="1.58793" d="M474.79 176.157a6.352 6.352 0 1 1-12.704-.001 6.352 6.352 0 0 1 12.704 0M188.963 17.364a6.352 6.352 0 1 1-12.703 0 6.352 6.352 0 0 1 12.703 0"/></g></svg>