<svg xmlns="http://www.w3.org/2000/svg" width="500" height="380" version="1.2"><desc>Generated with Qt</desc><g font-size="12" font-weight="400" style="font-size:12px;font-style:normal;font-weight:400;fill:none;stroke:navy;stroke-width:2;stroke-linecap:square;stroke-linejoin:bevel;stroke-opacity:1;font-family:Helvetica"><path d="M75 19h60M77 26h56M77 33l7-7M84 33l7-7M91 33l7-7M98 33l7-7M105 33l7-7M112 33l7-7M119 33l7-7M126 33l7-7" style="fill:none" transform="translate(42.394 20.572)scale(1.88983)"/></g><g font-size="12" font-weight="400" style="font-size:12px;font-style:normal;font-weight:400;fill:none;stroke:navy;stroke-width:2;stroke-linecap:square;stroke-linejoin:bevel;stroke-opacity:1;font-family:Helvetica"><path d="M75 139h60M77 146h56M77 153l7-7M84 153l7-7M91 153l7-7M98 153l7-7M105 153l7-7M112 153l7-7M119 153l7-7M126 153l7-7" style="fill:none" transform="translate(42.394 20.572)scale(1.88983)"/></g><g font-size="12" font-weight="400" style="font-size:12px;font-style:normal;font-weight:400;fill:none;stroke:navy;stroke-width:2;stroke-linecap:square;stroke-linejoin:bevel;stroke-opacity:1;font-family:Helvetica"><path d="M35 59v60M28 61v56M21 61l7 7M21 68l7 7M21 75l7 7M21 82l7 7M21 89l7 7M21 96l7 7M21 103l7 7M21 110l7 7" style="fill:none" transform="translate(42.394 20.572)scale(1.88983)"/></g><g font-size="12" font-weight="400" style="font-size:12px;font-style:normal;font-weight:400;fill:none;stroke:navy;stroke-width:2;stroke-linecap:square;stroke-linejoin:bevel;stroke-opacity:1;font-family:Helvetica"><path d="M175 59v60M168 61v56M161 61l7 7M161 68l7 7M161 75l7 7M161 82l7 7M161 89l7 7M161 96l7 7M161 103l7 7M161 110l7 7" style="fill:none" transform="translate(42.394 20.572)scale(1.88983)"/></g><g font-size="12" font-weight="400" style="font-size:12px;font-style:normal;font-weight:400;fill:none;stroke:navy;stroke-width:2;stroke-linecap:square;stroke-linejoin:bevel;stroke-opacity:1;font-family:Helvetica"><path d="M135 19h40M175 19v40M35 19h40M35 19v40M135 139h40M175 119v20M35 139h40M35 119v20M175 19h20M15 19h20M175 139h20M15 139h20" style="fill:none" transform="translate(42.394 20.572)scale(1.88983)"/></g><g font-size="12" font-weight="400" style="font-size:12px;font-style:normal;font-weight:400;fill:navy;fill-opacity:1;stroke:none;font-family:Helvetica"><path d="M73 17h4v4h-4z" style="fill-rule:evenodd" transform="translate(42.394 20.572)scale(1.88983)" vector-effect="non-scaling-stroke"/></g><g font-size="12" font-weight="400" style="font-size:12px;font-style:normal;font-weight:400;fill:navy;fill-opacity:1;stroke:none;font-family:Helvetica"><path d="M133 17h4v4h-4z" style="fill-rule:evenodd" transform="translate(42.394 20.572)scale(1.88983)" vector-effect="non-scaling-stroke"/></g><g font-size="12" font-weight="400" style="font-size:12px;font-style:normal;font-weight:400;fill:navy;fill-opacity:1;stroke:none;font-family:Helvetica"><path d="M73 137h4v4h-4z" style="fill-rule:evenodd" transform="translate(42.394 20.572)scale(1.88983)" vector-effect="non-scaling-stroke"/></g><g font-size="12" font-weight="400" style="font-size:12px;font-style:normal;font-weight:400;fill:navy;fill-opacity:1;stroke:none;font-family:Helvetica"><path d="M133 137h4v4h-4z" style="fill-rule:evenodd" transform="translate(42.394 20.572)scale(1.88983)" vector-effect="non-scaling-stroke"/></g><g font-size="12" font-weight="400" style="font-size:12px;font-style:normal;font-weight:400;fill:navy;fill-opacity:1;stroke:none;font-family:Helvetica"><path d="M33 57h4v4h-4z" style="fill-rule:evenodd" transform="translate(42.394 20.572)scale(1.88983)" vector-effect="non-scaling-stroke"/></g><g font-size="12" font-weight="400" style="font-size:12px;font-style:normal;font-weight:400;fill:navy;fill-opacity:1;stroke:none;font-family:Helvetica"><path d="M33 117h4v4h-4z" style="fill-rule:evenodd" transform="translate(42.394 20.572)scale(1.88983)" vector-effect="non-scaling-stroke"/></g><g font-size="12" font-weight="400" style="font-size:12px;font-style:normal;font-weight:400;fill:navy;fill-opacity:1;stroke:none;font-family:Helvetica"><path d="M173 57h4v4h-4z" style="fill-rule:evenodd" transform="translate(42.394 20.572)scale(1.88983)" vector-effect="non-scaling-stroke"/></g><g font-size="12" font-weight="400" style="font-size:12px;font-style:normal;font-weight:400;fill:navy;fill-opacity:1;stroke:none;font-family:Helvetica"><path d="M173 117h4v4h-4z" style="fill-rule:evenodd" transform="translate(42.394 20.572)scale(1.88983)" vector-effect="non-scaling-stroke"/></g><g font-size="12" font-weight="400" style="font-size:12px;font-style:normal;font-weight:400;fill:navy;fill-opacity:1;stroke:navy;stroke-width:1;stroke-linecap:square;stroke-linejoin:bevel;stroke-opacity:1;font-family:Helvetica"><path d="M178 19a3 3 0 1 1-6 0 3 3 0 0 1 6 0" style="fill-rule:evenodd" transform="translate(42.394 20.572)scale(1.88983)"/></g><g font-size="12" font-weight="400" style="font-size:12px;font-style:normal;font-weight:400;fill:navy;fill-opacity:1;stroke:navy;stroke-width:1;stroke-linecap:square;stroke-linejoin:bevel;stroke-opacity:1;font-family:Helvetica"><path d="M38 19a3 3 0 1 1-6 0 3 3 0 0 1 6 0" style="fill-rule:evenodd" transform="translate(42.394 20.572)scale(1.88983)"/></g><g font-size="12" font-weight="400" style="font-size:12px;font-style:normal;font-weight:400;fill:navy;fill-opacity:1;stroke:navy;stroke-width:1;stroke-linecap:square;stroke-linejoin:bevel;stroke-opacity:1;font-family:Helvetica"><path d="M178 139a3 3 0 1 1-6 0 3 3 0 0 1 6 0" style="fill-rule:evenodd" transform="translate(42.394 20.572)scale(1.88983)"/></g><g font-size="12" font-weight="400" style="font-size:12px;font-style:normal;font-weight:400;fill:navy;fill-opacity:1;stroke:navy;stroke-width:1;stroke-linecap:square;stroke-linejoin:bevel;stroke-opacity:1;font-family:Helvetica"><path d="M38 139a3 3 0 1 1-6 0 3 3 0 0 1 6 0" style="fill-rule:evenodd" transform="translate(42.394 20.572)scale(1.88983)"/></g><g font-size="12" font-weight="400" style="font-size:12px;font-style:normal;font-weight:400;fill:none;stroke:red;stroke-width:1;stroke-linecap:square;stroke-linejoin:bevel;stroke-opacity:1;font-family:Helvetica"><path stroke-width="1.88983" d="M418.47 56.479a7.56 7.56 0 1 1-15.119 0 7.56 7.56 0 0 1 15.12 0M78.3 56.479a7.56 7.56 0 1 1-15.118 0 7.56 7.56 0 0 1 15.119 0M418.47 283.259a7.56 7.56 0 1 1-15.12-.001 7.56 7.56 0 0 1 15.12 0M78.3 283.259a7.56 7.56 0 1 1-15.118 0 7.56 7.56 0 0 1 15.119 0"/></g></svg>