<svg xmlns="http://www.w3.org/2000/svg" width="500" height="380" version="1.2"><desc>Generated with Qt</desc><g font-size="12" font-weight="400" style="font-size:12px;font-style:normal;font-weight:400;fill:none;stroke:navy;stroke-width:2;stroke-linecap:square;stroke-linejoin:bevel;stroke-opacity:1;font-family:Helvetica"><path d="M135 19h40M175 19v40M35 19h40M35 19v40M135 139h40M175 119v20M35 139h40M35 119v20M175 19h20M15 19h20M175 139h20M15 139h20" style="fill:none" transform="translate(42.394 20.572)scale(1.88983)"/></g><g font-size="12" font-weight="400" style="font-size:12px;font-style:normal;font-weight:400;fill:navy;fill-opacity:1;stroke:navy;stroke-width:1;stroke-linecap:square;stroke-linejoin:bevel;stroke-opacity:1;font-family:Helvetica"><path d="M178 19a3 3 0 1 1-6 0 3 3 0 0 1 6 0" style="fill-rule:evenodd" transform="translate(42.394 20.572)scale(1.88983)"/></g><g font-size="12" font-weight="400" style="font-size:12px;font-style:normal;font-weight:400;fill:navy;fill-opacity:1;stroke:navy;stroke-width:1;stroke-linecap:square;stroke-linejoin:bevel;stroke-opacity:1;font-family:Helvetica"><path d="M38 19a3 3 0 1 1-6 0 3 3 0 0 1 6 0" style="fill-rule:evenodd" transform="translate(42.394 20.572)scale(1.88983)"/></g><g font-size="12" font-weight="400" style="font-size:12px;font-style:normal;font-weight:400;fill:navy;fill-opacity:1;stroke:navy;stroke-width:1;stroke-linecap:square;stroke-linejoin:bevel;stroke-opacity:1;font-family:Helvetica"><path d="M178 139a3 3 0 1 1-6 0 3 3 0 0 1 6 0" style="fill-rule:evenodd" transform="translate(42.394 20.572)scale(1.88983)"/></g><g font-size="12" font-weight="400" style="font-size:12px;font-style:normal;font-weight:400;fill:navy;fill-opacity:1;stroke:navy;stroke-width:1;stroke-linecap:square;stroke-linejoin:bevel;stroke-opacity:1;font-family:Helvetica"><path d="M38 139a3 3 0 1 1-6 0 3 3 0 0 1 6 0" style="fill-rule:evenodd" transform="translate(42.394 20.572)scale(1.88983)"/></g><g font-size="12" font-weight="400" style="font-size:12px;font-style:normal;font-weight:400;fill:none;stroke:red;stroke-width:1;stroke-linecap:square;stroke-linejoin:bevel;stroke-opacity:1;font-family:Helvetica"><path stroke-width="1.88983" d="M418.47 56.479a7.56 7.56 0 1 1-15.119 0 7.56 7.56 0 0 1 15.12 0M78.3 56.479a7.56 7.56 0 1 1-15.118 0 7.56 7.56 0 0 1 15.119 0M418.47 283.259a7.56 7.56 0 1 1-15.12-.001 7.56 7.56 0 0 1 15.12 0M78.3 283.259a7.56 7.56 0 1 1-15.118 0 7.56 7.56 0 0 1 15.119 0"/></g><g style="stroke-width:3.79999995;stroke-miterlimit:4;stroke-dasharray:none"><g style="font-style:normal;font-weight:400;font-size:12px;font-family:Helvetica;fill:navy;fill-opacity:1;stroke:none;stroke-width:2.3930583;stroke-miterlimit:4;stroke-dasharray:none"><path d="M153 25h4v4h-4z" font-size="12" font-weight="400" style="fill-rule:evenodd;stroke-width:2.3930583;stroke-miterlimit:4;stroke-dasharray:none" transform="matrix(0 1.58793 -1.58793 0 151.424 -109.523)" vector-effect="non-scaling-stroke"/></g><g style="font-style:normal;font-weight:400;font-size:12px;font-family:Helvetica;fill:navy;fill-opacity:1;stroke:none;stroke-width:2.3930583;stroke-miterlimit:4;stroke-dasharray:none"><path d="M213 25h4v4h-4z" font-size="12" font-weight="400" style="fill-rule:evenodd;stroke-width:2.3930583;stroke-miterlimit:4;stroke-dasharray:none" transform="matrix(0 1.58793 -1.58793 0 151.424 -109.523)" vector-effect="non-scaling-stroke"/></g><path d="m263.834 337.193 23.856.02M361.982 337.22l22.702-.006" style="fill:none;stroke:navy;stroke-width:3.79999995;stroke-linecap:square;stroke-linejoin:bevel;stroke-miterlimit:4;stroke-dasharray:none;stroke-opacity:1" transform="rotate(90 292.502 153.256)"/><path d="m299.279 318.786 71.43.517" style="fill:none;stroke:navy;stroke-width:3.79999995;stroke-linecap:square;stroke-linejoin:bevel;stroke-miterlimit:4;stroke-dasharray:none;stroke-opacity:1;image-rendering:auto" transform="rotate(90 292.502 153.256)"/><path d="m280.746 355.569 69.336-.176M298.325 319.362l-19.75 35.634M370.084 321.417l-19.029 33.35" style="fill:none;stroke:navy;stroke-width:3.79999995;stroke-linecap:square;stroke-linejoin:bevel;stroke-miterlimit:4;stroke-dasharray:none;stroke-opacity:1" transform="rotate(90 292.502 153.256)"/></g><g style="stroke-width:3.79999995;stroke-miterlimit:4;stroke-dasharray:none"><g style="font-style:normal;font-weight:400;font-size:12px;font-family:Helvetica;fill:navy;fill-opacity:1;stroke:none;stroke-width:2.3930583;stroke-miterlimit:4;stroke-dasharray:none"><path d="M153 25h4v4h-4z" font-size="12" font-weight="400" style="fill-rule:evenodd;stroke-width:2.3930583;stroke-miterlimit:4;stroke-dasharray:none" transform="matrix(0 1.58793 -1.58793 0 415.977 -105.558)" vector-effect="non-scaling-stroke"/></g><g style="font-style:normal;font-weight:400;font-size:12px;font-family:Helvetica;fill:navy;fill-opacity:1;stroke:none;stroke-width:2.3930583;stroke-miterlimit:4;stroke-dasharray:none"><path d="M213 25h4v4h-4z" font-size="12" font-weight="400" style="fill-rule:evenodd;stroke-width:2.3930583;stroke-miterlimit:4;stroke-dasharray:none" transform="matrix(0 1.58793 -1.58793 0 415.977 -105.558)" vector-effect="non-scaling-stroke"/></g><path d="m263.834 337.193 23.856.02M361.982 337.22l22.702-.006" style="fill:none;stroke:navy;stroke-width:3.79999995;stroke-linecap:square;stroke-linejoin:bevel;stroke-miterlimit:4;stroke-dasharray:none;stroke-opacity:1" transform="rotate(90 422.796 287.515)"/><path d="m299.279 318.786 71.43.517" style="fill:none;stroke:navy;stroke-width:3.79999995;stroke-linecap:square;stroke-linejoin:bevel;stroke-miterlimit:4;stroke-dasharray:none;stroke-opacity:1;image-rendering:auto" transform="rotate(90 422.796 287.515)"/><path d="m280.746 355.569 69.336-.176M298.325 319.362l-19.75 35.634M370.084 321.417l-19.029 33.35" style="fill:none;stroke:navy;stroke-width:3.79999995;stroke-linecap:square;stroke-linejoin:bevel;stroke-miterlimit:4;stroke-dasharray:none;stroke-opacity:1" transform="rotate(90 422.796 287.515)"/></g><g style="stroke-width:3.79999995;stroke-miterlimit:4;stroke-dasharray:none"><g style="font-style:normal;font-weight:400;font-size:12px;font-family:Helvetica;fill:navy;fill-opacity:1;stroke:none;stroke-width:2.3930583;stroke-miterlimit:4;stroke-dasharray:none"><path d="M153 25h4v4h-4z" font-size="12" font-weight="400" style="fill-rule:evenodd;stroke-width:2.3930583;stroke-miterlimit:4;stroke-dasharray:none" transform="matrix(-1.58793 0 0 -1.58793 532.205 99.332)" vector-effect="non-scaling-stroke"/></g><g style="font-style:normal;font-weight:400;font-size:12px;font-family:Helvetica;fill:navy;fill-opacity:1;stroke:none;stroke-width:2.3930583;stroke-miterlimit:4;stroke-dasharray:none"><path d="M213 25h4v4h-4z" font-size="12" font-weight="400" style="fill-rule:evenodd;stroke-width:2.3930583;stroke-miterlimit:4;stroke-dasharray:none" transform="matrix(-1.58793 0 0 -1.58793 532.205 99.332)" vector-effect="non-scaling-stroke"/></g><path d="m263.834 337.193 23.856.02M361.982 337.22l22.702-.006" style="fill:none;stroke:navy;stroke-width:3.79999995;stroke-linecap:square;stroke-linejoin:bevel;stroke-miterlimit:4;stroke-dasharray:none;stroke-opacity:1" transform="rotate(180 280.964 196.833)"/><path d="m299.279 318.786 71.43.517" style="fill:none;stroke:navy;stroke-width:3.79999995;stroke-linecap:square;stroke-linejoin:bevel;stroke-miterlimit:4;stroke-dasharray:none;stroke-opacity:1;image-rendering:auto" transform="rotate(180 280.964 196.833)"/><path d="m280.746 355.569 69.336-.176M298.325 319.362l-19.75 35.634M370.084 321.417l-19.029 33.35" style="fill:none;stroke:navy;stroke-width:3.79999995;stroke-linecap:square;stroke-linejoin:bevel;stroke-miterlimit:4;stroke-dasharray:none;stroke-opacity:1" transform="rotate(180 280.964 196.833)"/></g><g style="stroke-width:3.79999995;stroke-miterlimit:4;stroke-dasharray:none"><g style="font-style:normal;font-weight:400;font-size:12px;font-family:Helvetica;fill:navy;fill-opacity:1;stroke:none;stroke-width:2.3930583;stroke-miterlimit:4;stroke-dasharray:none"><path d="M153 25h4v4h-4z" font-size="12" font-weight="400" style="fill-rule:evenodd;stroke-width:2.3930583;stroke-miterlimit:4;stroke-dasharray:none" transform="matrix(-1.58793 0 0 -1.58793 529.2 326.19)" vector-effect="non-scaling-stroke"/></g><g style="font-style:normal;font-weight:400;font-size:12px;font-family:Helvetica;fill:navy;fill-opacity:1;stroke:none;stroke-width:2.3930583;stroke-miterlimit:4;stroke-dasharray:none"><path d="M213 25h4v4h-4z" font-size="12" font-weight="400" style="fill-rule:evenodd;stroke-width:2.3930583;stroke-miterlimit:4;stroke-dasharray:none" transform="matrix(-1.58793 0 0 -1.58793 529.2 326.19)" vector-effect="non-scaling-stroke"/></g><path d="m263.834 337.193 23.856.02M361.982 337.22l22.702-.006" style="fill:none;stroke:navy;stroke-width:3.79999995;stroke-linecap:square;stroke-linejoin:bevel;stroke-miterlimit:4;stroke-dasharray:none;stroke-opacity:1" transform="rotate(180 279.462 310.263)"/><path d="m299.279 318.786 71.43.517" style="fill:none;stroke:navy;stroke-width:3.79999995;stroke-linecap:square;stroke-linejoin:bevel;stroke-miterlimit:4;stroke-dasharray:none;stroke-opacity:1;image-rendering:auto" transform="rotate(180 279.462 310.263)"/><path d="m280.746 355.569 69.336-.176M298.325 319.362l-19.75 35.634M370.084 321.417l-19.029 33.35" style="fill:none;stroke:navy;stroke-width:3.79999995;stroke-linecap:square;stroke-linejoin:bevel;stroke-miterlimit:4;stroke-dasharray:none;stroke-opacity:1" transform="rotate(180 279.462 310.263)"/></g></svg>