<svg xmlns="http://www.w3.org/2000/svg" width="500" height="380" version="1.2"><desc>Generated with Qt</desc><g font-size="12" font-weight="400" style="font-size:12px;font-style:normal;font-weight:400;fill:none;stroke:navy;stroke-width:2;stroke-linecap:square;stroke-linejoin:bevel;stroke-opacity:1;font-family:Helvetica"><path d="M135 19h40M175 19v40M35 19h40M35 19v40M135 139h40M175 119v20M35 139h40M35 119v20M15 19h20M15 139h20M175 19h40M175 139h40M275 19h20M295 19v40M295 119v20M275 139h20M295 139h20M295 19h20" style="fill:none" transform="translate(2.522 46.627)scale(1.49928)"/></g><g font-size="12" font-weight="400" style="font-size:12px;font-style:normal;font-weight:400;fill:navy;fill-opacity:1;stroke:navy;stroke-width:1;stroke-linecap:square;stroke-linejoin:bevel;stroke-opacity:1;font-family:Helvetica"><path d="M178 19a3 3 0 1 1-6 0 3 3 0 0 1 6 0" style="fill-rule:evenodd" transform="translate(2.522 46.627)scale(1.49928)"/></g><g font-size="12" font-weight="400" style="font-size:12px;font-style:normal;font-weight:400;fill:navy;fill-opacity:1;stroke:navy;stroke-width:1;stroke-linecap:square;stroke-linejoin:bevel;stroke-opacity:1;font-family:Helvetica"><path d="M38 19a3 3 0 1 1-6 0 3 3 0 0 1 6 0" style="fill-rule:evenodd" transform="translate(2.522 46.627)scale(1.49928)"/></g><g font-size="12" font-weight="400" style="font-size:12px;font-style:normal;font-weight:400;fill:navy;fill-opacity:1;stroke:navy;stroke-width:1;stroke-linecap:square;stroke-linejoin:bevel;stroke-opacity:1;font-family:Helvetica"><path d="M178 139a3 3 0 1 1-6 0 3 3 0 0 1 6 0" style="fill-rule:evenodd" transform="translate(2.522 46.627)scale(1.49928)"/></g><g font-size="12" font-weight="400" style="font-size:12px;font-style:normal;font-weight:400;fill:navy;fill-opacity:1;stroke:navy;stroke-width:1;stroke-linecap:square;stroke-linejoin:bevel;stroke-opacity:1;font-family:Helvetica"><path d="M38 139a3 3 0 1 1-6 0 3 3 0 0 1 6 0" style="fill-rule:evenodd" transform="translate(2.522 46.627)scale(1.49928)"/></g><g font-size="12" font-weight="400" style="font-size:12px;font-style:normal;font-weight:400;fill:none;stroke:red;stroke-width:1;stroke-linecap:square;stroke-linejoin:bevel;stroke-opacity:1;font-family:Helvetica"><path stroke-width="1.49928" d="M31.008 75.114a5.997 5.997 0 1 1-11.995 0 5.997 5.997 0 0 1 11.995 0M31.008 255.027a5.997 5.997 0 1 1-11.995 0 5.997 5.997 0 0 1 11.995 0"/></g><g font-size="12" font-weight="400" style="font-size:12px;font-style:normal;font-weight:400;fill:navy;fill-opacity:1;stroke:navy;stroke-width:1;stroke-linecap:square;stroke-linejoin:bevel;stroke-opacity:1;font-family:Helvetica"><path d="M298 19a3 3 0 1 1-6 0 3 3 0 0 1 6 0" style="fill-rule:evenodd" transform="translate(2.522 46.627)scale(1.49928)"/></g><g font-size="12" font-weight="400" style="font-size:12px;font-style:normal;font-weight:400;fill:navy;fill-opacity:1;stroke:navy;stroke-width:1;stroke-linecap:square;stroke-linejoin:bevel;stroke-opacity:1;font-family:Helvetica"><path d="M298 139a3 3 0 1 1-6 0 3 3 0 0 1 6 0" style="fill-rule:evenodd" transform="translate(2.522 46.627)scale(1.49928)"/></g><g font-size="12" font-weight="400" style="font-size:12px;font-style:normal;font-weight:400;fill:none;stroke:red;stroke-width:1;stroke-linecap:square;stroke-linejoin:bevel;stroke-opacity:1;font-family:Helvetica"><path stroke-width="1.49928" d="M480.792 255.027a5.997 5.997 0 1 1-11.994 0 5.997 5.997 0 0 1 11.994 0M480.792 75.114a5.997 5.997 0 1 1-11.994 0 5.997 5.997 0 0 1 11.994 0"/></g><g font-size="12" font-weight="400" style="font-style:normal;font-weight:400;font-size:12px;font-family:Helvetica;fill:navy;fill-opacity:1;stroke:none;stroke-width:1.82628131;stroke-miterlimit:10;stroke-dasharray:none"><path d="M153 25h4v4h-4z" style="fill-rule:evenodd;stroke-width:1.82628131;stroke-miterlimit:10;stroke-dasharray:none" transform="matrix(1.58793 0 0 1.58793 68.208 212.22)" vector-effect="non-scaling-stroke"/></g><g font-size="12" font-weight="400" style="font-style:normal;font-weight:400;font-size:12px;font-family:Helvetica;fill:navy;fill-opacity:1;stroke:none;stroke-width:1.82628131;stroke-miterlimit:10;stroke-dasharray:none"><path d="M213 25h4v4h-4z" style="fill-rule:evenodd;stroke-width:1.82628131;stroke-miterlimit:10;stroke-dasharray:none" transform="matrix(1.58793 0 0 1.58793 68.208 212.22)" vector-effect="non-scaling-stroke"/></g><path d="m302.319 255.078 23.855.02M400.466 255.105l22.703-.007" style="fill:none;stroke:navy;stroke-width:2.9000001;stroke-linecap:square;stroke-linejoin:bevel;stroke-miterlimit:10;stroke-dasharray:none;stroke-opacity:1"/><path d="m337.763 236.67 71.43.518" style="fill:none;stroke:navy;stroke-width:2.9000001;stroke-linecap:square;stroke-linejoin:bevel;stroke-miterlimit:10;stroke-dasharray:none;stroke-opacity:1;image-rendering:auto"/><path d="m319.072 273.454 69.494-.176" style="fill:none;stroke:navy;stroke-width:2.90035415;stroke-linecap:square;stroke-linejoin:bevel;stroke-miterlimit:10;stroke-dasharray:none;stroke-opacity:1"/><path d="m336.809 237.246-19.75 35.635" style="fill:none;stroke:navy;stroke-width:2.9000001;stroke-linecap:square;stroke-linejoin:bevel;stroke-miterlimit:10;stroke-dasharray:none;stroke-opacity:1"/><path d="m408.655 239.186-19.159 33.537" style="fill:none;stroke:navy;stroke-width:2.91801143;stroke-linecap:square;stroke-linejoin:bevel;stroke-miterlimit:10;stroke-dasharray:none;stroke-opacity:1"/><g style="font-style:normal;font-weight:400;font-size:12px;font-family:Helvetica;fill:navy;fill-opacity:1;stroke:none;stroke-width:1.82628131;stroke-miterlimit:10;stroke-dasharray:none"><path d="M153 25h4v4h-4z" font-size="12" font-weight="400" style="fill-rule:evenodd;stroke-width:1.82628131;stroke-miterlimit:10;stroke-dasharray:none" transform="matrix(1.58793 0 0 1.58793 80.53 32.327)" vector-effect="non-scaling-stroke"/></g><g style="font-style:normal;font-weight:400;font-size:12px;font-family:Helvetica;fill:navy;fill-opacity:1;stroke:none;stroke-width:1.82628131;stroke-miterlimit:10;stroke-dasharray:none"><path d="M213 25h4v4h-4z" font-size="12" font-weight="400" style="fill-rule:evenodd;stroke-width:1.82628131;stroke-miterlimit:10;stroke-dasharray:none" transform="matrix(1.58793 0 0 1.58793 80.53 32.327)" vector-effect="non-scaling-stroke"/></g><path d="m46.361 450.596 23.856.02M144.509 450.623l22.702-.007" style="fill:none;stroke:navy;stroke-width:2.9000001;stroke-linecap:square;stroke-linejoin:bevel;stroke-miterlimit:10;stroke-dasharray:none;stroke-opacity:1" transform="translate(268.28 -375.41)"/><path d="m81.805 432.188 71.43.518" style="fill:none;stroke:navy;stroke-width:2.9000001;stroke-linecap:square;stroke-linejoin:bevel;stroke-miterlimit:10;stroke-dasharray:none;stroke-opacity:1;image-rendering:auto" transform="translate(268.28 -375.41)"/><path d="m63.115 468.971 69.494-.175" style="fill:none;stroke:navy;stroke-width:2.90035415;stroke-linecap:square;stroke-linejoin:bevel;stroke-miterlimit:10;stroke-dasharray:none;stroke-opacity:1" transform="translate(268.28 -375.41)"/><path d="M80.851 432.764 61.101 468.4" style="fill:none;stroke:navy;stroke-width:2.9000001;stroke-linecap:square;stroke-linejoin:bevel;stroke-miterlimit:10;stroke-dasharray:none;stroke-opacity:1" transform="translate(268.28 -375.41)"/><path d="m152.697 434.703-19.159 33.538" style="fill:none;stroke:navy;stroke-width:2.91801143;stroke-linecap:square;stroke-linejoin:bevel;stroke-miterlimit:10;stroke-dasharray:none;stroke-opacity:1" transform="translate(268.28 -375.41)"/><g style="font-style:normal;font-weight:400;font-size:12px;font-family:Helvetica;fill:navy;fill-opacity:1;stroke:none;stroke-width:1.82628131;stroke-miterlimit:10;stroke-dasharray:none"><path d="M153 25h4v4h-4z" font-size="12" font-weight="400" style="fill-rule:evenodd;stroke-width:1.82628131;stroke-miterlimit:10;stroke-dasharray:none" transform="matrix(1.58793 0 0 1.58793 -142.14 32.21)" vector-effect="non-scaling-stroke"/></g><g style="font-style:normal;font-weight:400;font-size:12px;font-family:Helvetica;fill:navy;fill-opacity:1;stroke:none;stroke-width:1.82628131;stroke-miterlimit:10;stroke-dasharray:none"><path d="M213 25h4v4h-4z" font-size="12" font-weight="400" style="fill-rule:evenodd;stroke-width:1.82628131;stroke-miterlimit:10;stroke-dasharray:none" transform="matrix(1.58793 0 0 1.58793 -142.14 32.21)" vector-effect="non-scaling-stroke"/></g><path d="m46.361 450.596 23.856.02M144.509 450.623l22.702-.007" style="fill:none;stroke:navy;stroke-width:2.9000001;stroke-linecap:square;stroke-linejoin:bevel;stroke-miterlimit:10;stroke-dasharray:none;stroke-opacity:1" transform="translate(45.61 -375.527)"/><path d="m81.805 432.188 71.43.518" style="fill:none;stroke:navy;stroke-width:2.9000001;stroke-linecap:square;stroke-linejoin:bevel;stroke-miterlimit:10;stroke-dasharray:none;stroke-opacity:1;image-rendering:auto" transform="translate(45.61 -375.527)"/><path d="m63.115 468.971 69.494-.175" style="fill:none;stroke:navy;stroke-width:2.90035415;stroke-linecap:square;stroke-linejoin:bevel;stroke-miterlimit:10;stroke-dasharray:none;stroke-opacity:1" transform="translate(45.61 -375.527)"/><path d="M80.851 432.764 61.101 468.4" style="fill:none;stroke:navy;stroke-width:2.9000001;stroke-linecap:square;stroke-linejoin:bevel;stroke-miterlimit:10;stroke-dasharray:none;stroke-opacity:1" transform="translate(45.61 -375.527)"/><path d="m152.697 434.703-19.159 33.538" style="fill:none;stroke:navy;stroke-width:2.91801143;stroke-linecap:square;stroke-linejoin:bevel;stroke-miterlimit:10;stroke-dasharray:none;stroke-opacity:1" transform="translate(45.61 -375.527)"/><g style="font-style:normal;font-weight:400;font-size:12px;font-family:Helvetica;fill:navy;fill-opacity:1;stroke:none;stroke-width:1.82628131;stroke-miterlimit:10;stroke-dasharray:none"><path d="M153 25h4v4h-4z" font-size="12" font-weight="400" style="fill-rule:evenodd;stroke-width:1.82628131;stroke-miterlimit:10;stroke-dasharray:none" transform="matrix(1.58793 0 0 1.58793 -130.57 212.158)" vector-effect="non-scaling-stroke"/></g><g style="font-style:normal;font-weight:400;font-size:12px;font-family:Helvetica;fill:navy;fill-opacity:1;stroke:none;stroke-width:1.82628131;stroke-miterlimit:10;stroke-dasharray:none"><path d="M213 25h4v4h-4z" font-size="12" font-weight="400" style="fill-rule:evenodd;stroke-width:1.82628131;stroke-miterlimit:10;stroke-dasharray:none" transform="matrix(1.58793 0 0 1.58793 -130.57 212.158)" vector-effect="non-scaling-stroke"/></g><path d="m46.361 450.596 23.856.02M144.509 450.623l22.702-.007" style="fill:none;stroke:navy;stroke-width:2.9000001;stroke-linecap:square;stroke-linejoin:bevel;stroke-miterlimit:10;stroke-dasharray:none;stroke-opacity:1" transform="translate(57.18 -195.579)"/><path d="m81.805 432.188 71.43.518" style="fill:none;stroke:navy;stroke-width:2.9000001;stroke-linecap:square;stroke-linejoin:bevel;stroke-miterlimit:10;stroke-dasharray:none;stroke-opacity:1;image-rendering:auto" transform="translate(57.18 -195.579)"/><path d="m63.115 468.971 69.494-.175" style="fill:none;stroke:navy;stroke-width:2.90035415;stroke-linecap:square;stroke-linejoin:bevel;stroke-miterlimit:10;stroke-dasharray:none;stroke-opacity:1" transform="translate(57.18 -195.579)"/><path d="M80.851 432.764 61.101 468.4" style="fill:none;stroke:navy;stroke-width:2.9000001;stroke-linecap:square;stroke-linejoin:bevel;stroke-miterlimit:10;stroke-dasharray:none;stroke-opacity:1" transform="translate(57.18 -195.579)"/><path d="m152.697 434.703-19.159 33.538" style="fill:none;stroke:navy;stroke-width:2.91801143;stroke-linecap:square;stroke-linejoin:bevel;stroke-miterlimit:10;stroke-dasharray:none;stroke-opacity:1" transform="translate(57.18 -195.579)"/><g style="font-style:normal;font-weight:400;font-size:12px;font-family:Helvetica;fill:navy;fill-opacity:1;stroke:none;stroke-width:1.82628131;stroke-miterlimit:10;stroke-dasharray:none"><path d="M153 25h4v4h-4z" font-size="12" font-weight="400" style="fill-rule:evenodd;stroke-width:1.82628131;stroke-miterlimit:10;stroke-dasharray:none" transform="matrix(0 1.58793 -1.58793 0 97.995 -113.183)" vector-effect="non-scaling-stroke"/></g><g style="font-style:normal;font-weight:400;font-size:12px;font-family:Helvetica;fill:navy;fill-opacity:1;stroke:none;stroke-width:1.82628131;stroke-miterlimit:10;stroke-dasharray:none"><path d="M213 25h4v4h-4z" font-size="12" font-weight="400" style="fill-rule:evenodd;stroke-width:1.82628131;stroke-miterlimit:10;stroke-dasharray:none" transform="matrix(0 1.58793 -1.58793 0 97.995 -113.183)" vector-effect="non-scaling-stroke"/></g><path d="m46.361 450.596 23.856.02M144.509 450.623l22.702-.007" style="fill:none;stroke:navy;stroke-width:2.9000001;stroke-linecap:square;stroke-linejoin:bevel;stroke-miterlimit:10;stroke-dasharray:none;stroke-opacity:1" transform="rotate(90 215.582 290.15)"/><path d="m81.805 432.188 71.43.518" style="fill:none;stroke:navy;stroke-width:2.9000001;stroke-linecap:square;stroke-linejoin:bevel;stroke-miterlimit:10;stroke-dasharray:none;stroke-opacity:1;image-rendering:auto" transform="rotate(90 215.582 290.15)"/><path d="m63.115 468.971 69.494-.175" style="fill:none;stroke:navy;stroke-width:2.90035415;stroke-linecap:square;stroke-linejoin:bevel;stroke-miterlimit:10;stroke-dasharray:none;stroke-opacity:1" transform="rotate(90 215.582 290.15)"/><path d="M80.851 432.764 61.101 468.4" style="fill:none;stroke:navy;stroke-width:2.9000001;stroke-linecap:square;stroke-linejoin:bevel;stroke-miterlimit:10;stroke-dasharray:none;stroke-opacity:1" transform="rotate(90 215.582 290.15)"/><path d="m152.697 434.703-19.159 33.538" style="fill:none;stroke:navy;stroke-width:2.91801143;stroke-linecap:square;stroke-linejoin:bevel;stroke-miterlimit:10;stroke-dasharray:none;stroke-opacity:1" transform="rotate(90 215.582 290.15)"/><g style="font-style:normal;font-weight:400;font-size:12px;font-family:Helvetica;fill:navy;fill-opacity:1;stroke:none;stroke-width:1.82628131;stroke-miterlimit:10;stroke-dasharray:none"><path d="M153 25h4v4h-4z" font-size="12" font-weight="400" style="fill-rule:evenodd;stroke-width:1.82628131;stroke-miterlimit:10;stroke-dasharray:none" transform="matrix(0 1.58793 -1.58793 0 307.787 -109.752)" vector-effect="non-scaling-stroke"/></g><g style="font-style:normal;font-weight:400;font-size:12px;font-family:Helvetica;fill:navy;fill-opacity:1;stroke:none;stroke-width:1.82628131;stroke-miterlimit:10;stroke-dasharray:none"><path d="M213 25h4v4h-4z" font-size="12" font-weight="400" style="fill-rule:evenodd;stroke-width:1.82628131;stroke-miterlimit:10;stroke-dasharray:none" transform="matrix(0 1.58793 -1.58793 0 307.787 -109.752)" vector-effect="non-scaling-stroke"/></g><path d="m46.361 450.596 23.856.02M144.509 450.623l22.702-.007" style="fill:none;stroke:navy;stroke-width:2.9000001;stroke-linecap:square;stroke-linejoin:bevel;stroke-miterlimit:10;stroke-dasharray:none;stroke-opacity:1" transform="rotate(90 318.763 396.76)"/><path d="m81.805 432.188 71.43.518" style="fill:none;stroke:navy;stroke-width:2.9000001;stroke-linecap:square;stroke-linejoin:bevel;stroke-miterlimit:10;stroke-dasharray:none;stroke-opacity:1;image-rendering:auto" transform="rotate(90 318.763 396.76)"/><path d="m63.115 468.971 69.494-.175" style="fill:none;stroke:navy;stroke-width:2.90035415;stroke-linecap:square;stroke-linejoin:bevel;stroke-miterlimit:10;stroke-dasharray:none;stroke-opacity:1" transform="rotate(90 318.763 396.76)"/><path d="M80.851 432.764 61.101 468.4" style="fill:none;stroke:navy;stroke-width:2.9000001;stroke-linecap:square;stroke-linejoin:bevel;stroke-miterlimit:10;stroke-dasharray:none;stroke-opacity:1" transform="rotate(90 318.763 396.76)"/><path d="m152.697 434.703-19.159 33.538" style="fill:none;stroke:navy;stroke-width:2.91801143;stroke-linecap:square;stroke-linejoin:bevel;stroke-miterlimit:10;stroke-dasharray:none;stroke-opacity:1" transform="rotate(90 318.763 396.76)"/><g style="font-style:normal;font-weight:400;font-size:12px;font-family:Helvetica;fill:navy;fill-opacity:1;stroke:none;stroke-width:1.82628131;stroke-miterlimit:10;stroke-dasharray:none"><path d="M153 25h4v4h-4z" font-size="12" font-weight="400" style="fill-rule:evenodd;stroke-width:1.82628131;stroke-miterlimit:10;stroke-dasharray:none" transform="matrix(0 1.58793 -1.58793 0 487.618 -112.083)" vector-effect="non-scaling-stroke"/></g><g style="font-style:normal;font-weight:400;font-size:12px;font-family:Helvetica;fill:navy;fill-opacity:1;stroke:none;stroke-width:1.82628131;stroke-miterlimit:10;stroke-dasharray:none"><path d="M213 25h4v4h-4z" font-size="12" font-weight="400" style="fill-rule:evenodd;stroke-width:1.82628131;stroke-miterlimit:10;stroke-dasharray:none" transform="matrix(0 1.58793 -1.58793 0 487.618 -112.083)" vector-effect="non-scaling-stroke"/></g><path d="m46.361 450.596 23.856.02M144.509 450.623l22.702-.007" style="fill:none;stroke:navy;stroke-width:2.9000001;stroke-linecap:square;stroke-linejoin:bevel;stroke-miterlimit:10;stroke-dasharray:none;stroke-opacity:1" transform="rotate(90 409.844 485.51)"/><path d="m81.805 432.188 71.43.518" style="fill:none;stroke:navy;stroke-width:2.9000001;stroke-linecap:square;stroke-linejoin:bevel;stroke-miterlimit:10;stroke-dasharray:none;stroke-opacity:1;image-rendering:auto" transform="rotate(90 409.844 485.51)"/><path d="m63.115 468.971 69.494-.175" style="fill:none;stroke:navy;stroke-width:2.90035415;stroke-linecap:square;stroke-linejoin:bevel;stroke-miterlimit:10;stroke-dasharray:none;stroke-opacity:1" transform="rotate(90 409.844 485.51)"/><path d="M80.851 432.764 61.101 468.4" style="fill:none;stroke:navy;stroke-width:2.9000001;stroke-linecap:square;stroke-linejoin:bevel;stroke-miterlimit:10;stroke-dasharray:none;stroke-opacity:1" transform="rotate(90 409.844 485.51)"/><path d="m152.697 434.703-19.159 33.538" style="fill:none;stroke:navy;stroke-width:2.91801143;stroke-linecap:square;stroke-linejoin:bevel;stroke-miterlimit:10;stroke-dasharray:none;stroke-opacity:1" transform="rotate(90 409.844 485.51)"/></svg>