<svg xmlns="http://www.w3.org/2000/svg" width="500" height="380" version="1.2"><desc>Generated with Qt</desc><g font-size="12" font-weight="400" style="font-size:12px;font-style:normal;font-weight:400;fill:none;stroke:navy;stroke-width:2;stroke-linecap:square;stroke-linejoin:bevel;stroke-opacity:1;font-family:Helvetica"><path d="M75 19h60M77 26h56M77 33l7-7M84 33l7-7M91 33l7-7M98 33l7-7M105 33l7-7M112 33l7-7M119 33l7-7M126 33l7-7" style="fill:none" transform="translate(2.522 46.627)scale(1.49928)"/></g><g font-size="12" font-weight="400" style="font-size:12px;font-style:normal;font-weight:400;fill:none;stroke:navy;stroke-width:2;stroke-linecap:square;stroke-linejoin:bevel;stroke-opacity:1;font-family:Helvetica"><path d="M75 139h60M77 146h56M77 153l7-7M84 153l7-7M91 153l7-7M98 153l7-7M105 153l7-7M112 153l7-7M119 153l7-7M126 153l7-7" style="fill:none" transform="translate(2.522 46.627)scale(1.49928)"/></g><g font-size="12" font-weight="400" style="font-size:12px;font-style:normal;font-weight:400;fill:none;stroke:navy;stroke-width:2;stroke-linecap:square;stroke-linejoin:bevel;stroke-opacity:1;font-family:Helvetica"><path d="M35 59v60M28 61v56M21 61l7 7M21 68l7 7M21 75l7 7M21 82l7 7M21 89l7 7M21 96l7 7M21 103l7 7M21 110l7 7" style="fill:none" transform="translate(2.522 46.627)scale(1.49928)"/></g><g font-size="12" font-weight="400" style="font-size:12px;font-style:normal;font-weight:400;fill:none;stroke:navy;stroke-width:2;stroke-linecap:square;stroke-linejoin:bevel;stroke-opacity:1;font-family:Helvetica"><path d="M175 59v60M168 61v56M161 61l7 7M161 68l7 7M161 75l7 7M161 82l7 7M161 89l7 7M161 96l7 7M161 103l7 7M161 110l7 7" style="fill:none" transform="translate(2.522 46.627)scale(1.49928)"/></g><g font-size="12" font-weight="400" style="font-size:12px;font-style:normal;font-weight:400;fill:none;stroke:navy;stroke-width:2;stroke-linecap:square;stroke-linejoin:bevel;stroke-opacity:1;font-family:Helvetica"><path d="M295 59v60M288 61v56M281 61l7 7M281 68l7 7M281 75l7 7M281 82l7 7M281 89l7 7M281 96l7 7M281 103l7 7M281 110l7 7" style="fill:none" transform="translate(2.522 46.627)scale(1.49928)"/></g><g font-size="12" font-weight="400" style="font-size:12px;font-style:normal;font-weight:400;fill:none;stroke:navy;stroke-width:2;stroke-linecap:square;stroke-linejoin:bevel;stroke-opacity:1;font-family:Helvetica"><path d="M215 19h60M217 26h56M217 33l7-7M224 33l7-7M231 33l7-7M238 33l7-7M245 33l7-7M252 33l7-7M259 33l7-7M266 33l7-7" style="fill:none" transform="translate(2.522 46.627)scale(1.49928)"/></g><g font-size="12" font-weight="400" style="font-size:12px;font-style:normal;font-weight:400;fill:none;stroke:navy;stroke-width:2;stroke-linecap:square;stroke-linejoin:bevel;stroke-opacity:1;font-family:Helvetica"><path d="M215 139h60M217 146h56M217 153l7-7M224 153l7-7M231 153l7-7M238 153l7-7M245 153l7-7M252 153l7-7M259 153l7-7M266 153l7-7" style="fill:none" transform="translate(2.522 46.627)scale(1.49928)"/></g><g font-size="12" font-weight="400" style="font-size:12px;font-style:normal;font-weight:400;fill:none;stroke:navy;stroke-width:2;stroke-linecap:square;stroke-linejoin:bevel;stroke-opacity:1;font-family:Helvetica"><path d="M135 19h40M175 19v40M35 19h40M35 19v40M135 139h40M175 119v20M35 139h40M35 119v20M15 19h20M15 139h20M175 19h40M175 139h40M275 19h20M295 19v40M295 119v20M275 139h20M295 139h20M295 19h20" style="fill:none" transform="translate(2.522 46.627)scale(1.49928)"/></g><g font-size="12" font-weight="400" style="font-size:12px;font-style:normal;font-weight:400;fill:navy;fill-opacity:1;stroke:none;font-family:Helvetica"><path d="M73 17h4v4h-4z" style="fill-rule:evenodd" transform="translate(2.522 46.627)scale(1.49928)" vector-effect="non-scaling-stroke"/></g><g font-size="12" font-weight="400" style="font-size:12px;font-style:normal;font-weight:400;fill:navy;fill-opacity:1;stroke:none;font-family:Helvetica"><path d="M133 17h4v4h-4z" style="fill-rule:evenodd" transform="translate(2.522 46.627)scale(1.49928)" vector-effect="non-scaling-stroke"/></g><g font-size="12" font-weight="400" style="font-size:12px;font-style:normal;font-weight:400;fill:navy;fill-opacity:1;stroke:none;font-family:Helvetica"><path d="M73 137h4v4h-4z" style="fill-rule:evenodd" transform="translate(2.522 46.627)scale(1.49928)" vector-effect="non-scaling-stroke"/></g><g font-size="12" font-weight="400" style="font-size:12px;font-style:normal;font-weight:400;fill:navy;fill-opacity:1;stroke:none;font-family:Helvetica"><path d="M133 137h4v4h-4z" style="fill-rule:evenodd" transform="translate(2.522 46.627)scale(1.49928)" vector-effect="non-scaling-stroke"/></g><g font-size="12" font-weight="400" style="font-size:12px;font-style:normal;font-weight:400;fill:navy;fill-opacity:1;stroke:none;font-family:Helvetica"><path d="M33 57h4v4h-4z" style="fill-rule:evenodd" transform="translate(2.522 46.627)scale(1.49928)" vector-effect="non-scaling-stroke"/></g><g font-size="12" font-weight="400" style="font-size:12px;font-style:normal;font-weight:400;fill:navy;fill-opacity:1;stroke:none;font-family:Helvetica"><path d="M33 117h4v4h-4z" style="fill-rule:evenodd" transform="translate(2.522 46.627)scale(1.49928)" vector-effect="non-scaling-stroke"/></g><g font-size="12" font-weight="400" style="font-size:12px;font-style:normal;font-weight:400;fill:navy;fill-opacity:1;stroke:none;font-family:Helvetica"><path d="M173 57h4v4h-4z" style="fill-rule:evenodd" transform="translate(2.522 46.627)scale(1.49928)" vector-effect="non-scaling-stroke"/></g><g font-size="12" font-weight="400" style="font-size:12px;font-style:normal;font-weight:400;fill:navy;fill-opacity:1;stroke:none;font-family:Helvetica"><path d="M173 117h4v4h-4z" style="fill-rule:evenodd" transform="translate(2.522 46.627)scale(1.49928)" vector-effect="non-scaling-stroke"/></g><g font-size="12" font-weight="400" style="font-size:12px;font-style:normal;font-weight:400;fill:navy;fill-opacity:1;stroke:navy;stroke-width:1;stroke-linecap:square;stroke-linejoin:bevel;stroke-opacity:1;font-family:Helvetica"><path d="M178 19a3 3 0 1 1-6 0 3 3 0 0 1 6 0" style="fill-rule:evenodd" transform="translate(2.522 46.627)scale(1.49928)"/></g><g font-size="12" font-weight="400" style="font-size:12px;font-style:normal;font-weight:400;fill:navy;fill-opacity:1;stroke:navy;stroke-width:1;stroke-linecap:square;stroke-linejoin:bevel;stroke-opacity:1;font-family:Helvetica"><path d="M38 19a3 3 0 1 1-6 0 3 3 0 0 1 6 0" style="fill-rule:evenodd" transform="translate(2.522 46.627)scale(1.49928)"/></g><g font-size="12" font-weight="400" style="font-size:12px;font-style:normal;font-weight:400;fill:navy;fill-opacity:1;stroke:navy;stroke-width:1;stroke-linecap:square;stroke-linejoin:bevel;stroke-opacity:1;font-family:Helvetica"><path d="M178 139a3 3 0 1 1-6 0 3 3 0 0 1 6 0" style="fill-rule:evenodd" transform="translate(2.522 46.627)scale(1.49928)"/></g><g font-size="12" font-weight="400" style="font-size:12px;font-style:normal;font-weight:400;fill:navy;fill-opacity:1;stroke:navy;stroke-width:1;stroke-linecap:square;stroke-linejoin:bevel;stroke-opacity:1;font-family:Helvetica"><path d="M38 139a3 3 0 1 1-6 0 3 3 0 0 1 6 0" style="fill-rule:evenodd" transform="translate(2.522 46.627)scale(1.49928)"/></g><g font-size="12" font-weight="400" style="font-size:12px;font-style:normal;font-weight:400;fill:none;stroke:red;stroke-width:1;stroke-linecap:square;stroke-linejoin:bevel;stroke-opacity:1;font-family:Helvetica"><path stroke-width="1.49928" d="M31.008 75.114a5.997 5.997 0 1 1-11.995 0 5.997 5.997 0 0 1 11.995 0M31.008 255.027a5.997 5.997 0 1 1-11.995 0 5.997 5.997 0 0 1 11.995 0"/></g><g font-size="12" font-weight="400" style="font-size:12px;font-style:normal;font-weight:400;fill:navy;fill-opacity:1;stroke:none;font-family:Helvetica"><path d="M293 57h4v4h-4z" style="fill-rule:evenodd" transform="translate(2.522 46.627)scale(1.49928)" vector-effect="non-scaling-stroke"/></g><g font-size="12" font-weight="400" style="font-size:12px;font-style:normal;font-weight:400;fill:navy;fill-opacity:1;stroke:none;font-family:Helvetica"><path d="M293 117h4v4h-4z" style="fill-rule:evenodd" transform="translate(2.522 46.627)scale(1.49928)" vector-effect="non-scaling-stroke"/></g><g font-size="12" font-weight="400" style="font-size:12px;font-style:normal;font-weight:400;fill:navy;fill-opacity:1;stroke:none;font-family:Helvetica"><path d="M213 17h4v4h-4z" style="fill-rule:evenodd" transform="translate(2.522 46.627)scale(1.49928)" vector-effect="non-scaling-stroke"/></g><g font-size="12" font-weight="400" style="font-size:12px;font-style:normal;font-weight:400;fill:navy;fill-opacity:1;stroke:none;font-family:Helvetica"><path d="M273 17h4v4h-4z" style="fill-rule:evenodd" transform="translate(2.522 46.627)scale(1.49928)" vector-effect="non-scaling-stroke"/></g><g font-size="12" font-weight="400" style="font-size:12px;font-style:normal;font-weight:400;fill:navy;fill-opacity:1;stroke:none;font-family:Helvetica"><path d="M213 137h4v4h-4z" style="fill-rule:evenodd" transform="translate(2.522 46.627)scale(1.49928)" vector-effect="non-scaling-stroke"/></g><g font-size="12" font-weight="400" style="font-size:12px;font-style:normal;font-weight:400;fill:navy;fill-opacity:1;stroke:none;font-family:Helvetica"><path d="M273 137h4v4h-4z" style="fill-rule:evenodd" transform="translate(2.522 46.627)scale(1.49928)" vector-effect="non-scaling-stroke"/></g><g font-size="12" font-weight="400" style="font-size:12px;font-style:normal;font-weight:400;fill:navy;fill-opacity:1;stroke:navy;stroke-width:1;stroke-linecap:square;stroke-linejoin:bevel;stroke-opacity:1;font-family:Helvetica"><path d="M298 19a3 3 0 1 1-6 0 3 3 0 0 1 6 0" style="fill-rule:evenodd" transform="translate(2.522 46.627)scale(1.49928)"/></g><g font-size="12" font-weight="400" style="font-size:12px;font-style:normal;font-weight:400;fill:navy;fill-opacity:1;stroke:navy;stroke-width:1;stroke-linecap:square;stroke-linejoin:bevel;stroke-opacity:1;font-family:Helvetica"><path d="M298 139a3 3 0 1 1-6 0 3 3 0 0 1 6 0" style="fill-rule:evenodd" transform="translate(2.522 46.627)scale(1.49928)"/></g><g font-size="12" font-weight="400" style="font-size:12px;font-style:normal;font-weight:400;fill:none;stroke:red;stroke-width:1;stroke-linecap:square;stroke-linejoin:bevel;stroke-opacity:1;font-family:Helvetica"><path stroke-width="1.49928" d="M480.792 255.027a5.997 5.997 0 1 1-11.994 0 5.997 5.997 0 0 1 11.994 0M480.792 75.114a5.997 5.997 0 1 1-11.994 0 5.997 5.997 0 0 1 11.994 0"/></g></svg>