<svg xmlns="http://www.w3.org/2000/svg" width="500" height="380" version="1.2"><desc>Generated with Qt</desc><g font-size="12" font-weight="400" style="font-size:12px;font-style:normal;font-weight:400;fill:none;stroke:navy;stroke-width:2;stroke-linecap:square;stroke-linejoin:bevel;stroke-opacity:1;font-family:Helvetica"><path d="M375 100v10" style="fill:none" transform="translate(5.005 -35.44)scale(1.18538)"/></g><g font-size="12" font-weight="400" style="font-size:12px;font-style:normal;font-weight:400;fill:none;stroke:navy;stroke-width:3;stroke-linecap:square;stroke-linejoin:bevel;stroke-opacity:1;font-family:Helvetica"><path d="M364 110h22M368 116h14M372 122h6" style="fill:none" transform="translate(5.005 -35.44)scale(1.18538)"/></g><g font-size="12" font-weight="400" style="font-size:12px;font-style:normal;font-weight:400;fill:none;stroke:navy;stroke-width:2;stroke-linecap:square;stroke-linejoin:bevel;stroke-opacity:1;font-family:Helvetica"><path d="M375 270v10" style="fill:none" transform="translate(5.005 -35.44)scale(1.18538)"/></g><g font-size="12" font-weight="400" style="font-size:12px;font-style:normal;font-weight:400;fill:none;stroke:navy;stroke-width:3;stroke-linecap:square;stroke-linejoin:bevel;stroke-opacity:1;font-family:Helvetica"><path d="M364 280h22M368 286h14M372 292h6" style="fill:none" transform="translate(5.005 -35.44)scale(1.18538)"/></g><g font-size="12" font-weight="400" style="font-size:12px;font-style:normal;font-weight:400;fill:none;stroke:navy;stroke-width:2;stroke-linecap:square;stroke-linejoin:bevel;stroke-opacity:1;font-family:Helvetica"><path d="M315 270h12M327 270l3-7M330 263l6 14M336 277l6-14M342 263l6 14M348 277l6-14M354 263l6 14M360 277l3-7M363 270h12" style="fill:none" transform="translate(5.005 -35.44)scale(1.18538)"/></g><g font-size="12" font-weight="400" style="font-size:12px;font-style:normal;font-weight:400;fill:none;stroke:navy;stroke-width:2;stroke-linecap:square;stroke-linejoin:bevel;stroke-opacity:1;font-family:Helvetica"><path d="M315 100h12M327 100l3-7M330 93l6 14M336 107l6-14M342 93l6 14M348 107l6-14M354 93l6 14M360 107l3-7M363 100h12" style="fill:none" transform="translate(5.005 -35.44)scale(1.18538)"/></g><path d="M15 180h100" style="font-style:normal;font-weight:400;font-size:medium;font-family:Helvetica;fill:none;stroke:navy;stroke-width:2;stroke-linecap:square;stroke-linejoin:bevel;stroke-opacity:1" transform="translate(5.005 -35.44)scale(1.18538)"/><path d="M115 180v30" style="font-style:normal;font-weight:400;font-size:medium;font-family:Helvetica;fill:none;stroke:navy;stroke-width:2;stroke-linecap:square;stroke-linejoin:bevel;stroke-opacity:1" transform="matrix(1.18538 0 0 .27296 5.005 127.884)"/><path d="M115 160v20" style="font-style:normal;font-weight:400;font-size:medium;font-family:Helvetica;fill:none;stroke:navy;stroke-width:2;stroke-linecap:square;stroke-linejoin:bevel;stroke-opacity:1" transform="matrix(1.18538 0 0 .4507 5.005 97.537)"/><path d="M115 100h70M115 270h70M115 270v30M115 70v30M245 100h70M245 270h70M315 210v60M315 100v50" style="font-style:normal;font-weight:400;font-size:medium;font-family:Helvetica;fill:none;stroke:navy;stroke-width:2;stroke-linecap:square;stroke-linejoin:bevel;stroke-opacity:1" transform="translate(5.005 -35.44)scale(1.18538)"/><g font-size="12" font-weight="400" style="font-size:12px;font-style:normal;font-weight:400;fill:navy;fill-opacity:1;stroke:navy;stroke-width:1;stroke-linecap:square;stroke-linejoin:bevel;stroke-opacity:1;font-family:Helvetica"><path d="M118 100a3 3 0 1 1-6 0 3 3 0 0 1 6 0" style="fill-rule:evenodd" transform="translate(5.005 -35.44)scale(1.18538)"/></g><g font-size="12" font-weight="400" style="font-size:12px;font-style:normal;font-weight:400;fill:navy;fill-opacity:1;stroke:navy;stroke-width:1;stroke-linecap:square;stroke-linejoin:bevel;stroke-opacity:1;font-family:Helvetica"><path d="M118 270a3 3 0 1 1-6 0 3 3 0 0 1 6 0" style="fill-rule:evenodd" transform="translate(5.005 -35.44)scale(1.18538)"/></g><g font-size="12" font-weight="400" style="font-size:12px;font-style:normal;font-weight:400;fill:navy;fill-opacity:1;stroke:navy;stroke-width:1;stroke-linecap:square;stroke-linejoin:bevel;stroke-opacity:1;font-family:Helvetica"><path d="M318 100a3 3 0 1 1-6 0 3 3 0 0 1 6 0" style="fill-rule:evenodd" transform="translate(5.005 -35.44)scale(1.18538)"/></g><g font-size="12" font-weight="400" style="font-size:12px;font-style:normal;font-weight:400;fill:navy;fill-opacity:1;stroke:none;font-family:Helvetica"><path d="M373 98h4v4h-4z" style="fill-rule:evenodd" transform="translate(5.005 -35.44)scale(1.18538)" vector-effect="non-scaling-stroke"/></g><g font-size="12" font-weight="400" style="font-size:12px;font-style:normal;font-weight:400;fill:navy;fill-opacity:1;stroke:navy;stroke-width:1;stroke-linecap:square;stroke-linejoin:bevel;stroke-opacity:1;font-family:Helvetica"><path d="M318 270a3 3 0 1 1-6 0 3 3 0 0 1 6 0" style="fill-rule:evenodd" transform="translate(5.005 -35.44)scale(1.18538)"/></g><g font-size="12" font-weight="400" style="font-size:12px;font-style:normal;font-weight:400;fill:navy;fill-opacity:1;stroke:none;font-family:Helvetica"><path d="M373 268h4v4h-4z" style="fill-rule:evenodd" transform="translate(5.005 -35.44)scale(1.18538)" vector-effect="non-scaling-stroke"/></g><path d="M19 180a4 4 0 1 1-8 0 4 4 0 0 1 8 0" font-size="12" font-weight="400" style="font-size:12px;font-style:normal;font-weight:400;fill:none;stroke:red;stroke-width:1;stroke-linecap:square;stroke-linejoin:bevel;stroke-opacity:1;font-family:Helvetica" transform="translate(5.005 -35.44)scale(1.18538)"/><path d="M144.88 177.929a3.556 3.556 0 1 1-7.112 0 3.556 3.556 0 0 1 7.112 0" style="font-style:normal;font-weight:400;font-size:medium;font-family:Helvetica;fill:navy;fill-opacity:1;fill-rule:evenodd;stroke:navy;stroke-width:1.18538141;stroke-linecap:square;stroke-linejoin:bevel;stroke-opacity:1"/><g font-size="12" font-weight="400" style="font-size:12px;font-style:normal;font-weight:400;fill:none;stroke:red;stroke-width:1;stroke-linecap:square;stroke-linejoin:bevel;stroke-opacity:1;font-family:Helvetica"><path stroke-width="1.18538" d="M146.066 320.175a4.742 4.742 0 1 1-9.484 0 4.742 4.742 0 0 1 9.484 0M146.066 47.537a4.742 4.742 0 1 1-9.484 0 4.742 4.742 0 0 1 9.484 0"/></g><g style="font-style:normal;font-weight:400;font-size:12px;font-family:Helvetica;fill:navy;fill-opacity:1;stroke:none;stroke-width:1.82628131;stroke-miterlimit:10;stroke-dasharray:none"><path d="M153 25h4v4h-4z" font-size="12" font-weight="400" style="fill-rule:evenodd;stroke-width:1.82628131;stroke-miterlimit:10;stroke-dasharray:none" transform="matrix(0 1.42369 -1.23895 0 411.899 -87.675)" vector-effect="non-scaling-stroke"/></g><g style="font-style:normal;font-weight:400;font-size:12px;font-family:Helvetica;fill:navy;fill-opacity:1;stroke:none;stroke-width:1.82628131;stroke-miterlimit:10;stroke-dasharray:none"><path d="M213 25h4v4h-4z" font-size="12" font-weight="400" style="fill-rule:evenodd;stroke-width:1.82628131;stroke-miterlimit:10;stroke-dasharray:none" transform="matrix(0 1.42369 -1.23895 0 411.899 -87.675)" vector-effect="non-scaling-stroke"/></g><path d="m46.361 450.596 23.856.02M144.509 450.623l22.702-.007" style="fill:none;stroke:navy;stroke-width:2.9000001;stroke-linecap:square;stroke-linejoin:bevel;stroke-miterlimit:10;stroke-dasharray:none;stroke-opacity:1" transform="matrix(0 .89657 -.78023 0 730.028 80.656)"/><path d="m81.805 432.188 71.43.518" style="fill:none;stroke:navy;stroke-width:2.9000001;stroke-linecap:square;stroke-linejoin:bevel;stroke-miterlimit:10;stroke-dasharray:none;stroke-opacity:1;image-rendering:auto" transform="matrix(0 .89657 -.78023 0 730.028 80.656)"/><path d="m63.115 468.971 69.494-.175" style="fill:none;stroke:navy;stroke-width:2.90035415;stroke-linecap:square;stroke-linejoin:bevel;stroke-miterlimit:10;stroke-dasharray:none;stroke-opacity:1" transform="matrix(0 .89657 -.78023 0 730.028 80.656)"/><path d="M80.851 432.764 61.101 468.4" style="fill:none;stroke:navy;stroke-width:2.9000001;stroke-linecap:square;stroke-linejoin:bevel;stroke-miterlimit:10;stroke-dasharray:none;stroke-opacity:1" transform="matrix(0 .89657 -.78023 0 730.028 80.656)"/><path d="m152.697 434.703-19.159 33.538" style="fill:none;stroke:navy;stroke-width:2.91801143;stroke-linecap:square;stroke-linejoin:bevel;stroke-miterlimit:10;stroke-dasharray:none;stroke-opacity:1" transform="matrix(0 .89657 -.78023 0 730.028 80.656)"/><g style="font-style:normal;font-weight:400;font-size:12px;font-family:Helvetica;fill:navy;fill-opacity:1;stroke:none;stroke-width:1.82628131;stroke-miterlimit:10;stroke-dasharray:none"><path d="M153 25h4v4h-4z" font-size="12" font-weight="400" style="fill-rule:evenodd;stroke-width:1.82628131;stroke-miterlimit:10;stroke-dasharray:none" transform="scale(1.23895 1.42369)rotate(90 118.68 22.13)" vector-effect="non-scaling-stroke"/></g><g style="font-style:normal;font-weight:400;font-size:12px;font-family:Helvetica;fill:navy;fill-opacity:1;stroke:none;stroke-width:1.82628131;stroke-miterlimit:10;stroke-dasharray:none"><path d="M213 25h4v4h-4z" font-size="12" font-weight="400" style="fill-rule:evenodd;stroke-width:1.82628131;stroke-miterlimit:10;stroke-dasharray:none" transform="scale(1.23895 1.42369)rotate(90 118.68 22.13)" vector-effect="non-scaling-stroke"/></g><path d="m46.361 450.596 23.856.02M144.509 450.623l22.702-.007" style="fill:none;stroke:navy;stroke-width:2.9000001;stroke-linecap:square;stroke-linejoin:bevel;stroke-miterlimit:10;stroke-dasharray:none;stroke-opacity:1" transform="matrix(0 .89657 -.78023 0 492.586 30.874)"/><path d="m81.805 432.188 71.43.518" style="fill:none;stroke:navy;stroke-width:2.9000001;stroke-linecap:square;stroke-linejoin:bevel;stroke-miterlimit:10;stroke-dasharray:none;stroke-opacity:1;image-rendering:auto" transform="matrix(0 .89657 -.78023 0 492.586 30.874)"/><path d="m63.115 468.971 69.494-.175" style="fill:none;stroke:navy;stroke-width:2.90035415;stroke-linecap:square;stroke-linejoin:bevel;stroke-miterlimit:10;stroke-dasharray:none;stroke-opacity:1" transform="matrix(0 .89657 -.78023 0 492.586 30.874)"/><path d="M80.851 432.764 61.101 468.4" style="fill:none;stroke:navy;stroke-width:2.9000001;stroke-linecap:square;stroke-linejoin:bevel;stroke-miterlimit:10;stroke-dasharray:none;stroke-opacity:1" transform="matrix(0 .89657 -.78023 0 492.586 30.874)"/><path d="m152.697 434.703-19.159 33.538" style="fill:none;stroke:navy;stroke-width:2.91801143;stroke-linecap:square;stroke-linejoin:bevel;stroke-miterlimit:10;stroke-dasharray:none;stroke-opacity:1" transform="matrix(0 .89657 -.78023 0 492.586 30.874)"/><g style="font-style:normal;font-weight:400;font-size:12px;font-family:Helvetica;fill:navy;fill-opacity:1;stroke:none;stroke-width:1.82628131;stroke-miterlimit:10;stroke-dasharray:none"><path d="M153 25h4v4h-4z" font-size="12" font-weight="400" style="fill-rule:evenodd;stroke-width:1.82628131;stroke-miterlimit:10;stroke-dasharray:none" transform="matrix(0 1.42369 -1.23895 0 175.01 -32.948)" vector-effect="non-scaling-stroke"/></g><path d="m107.807 185.677-.016 21.388M107.786 273.673l.005 20.354" style="fill:none;stroke:navy;stroke-width:2.42550683;stroke-linecap:square;stroke-linejoin:bevel;stroke-miterlimit:10;stroke-dasharray:none;stroke-opacity:1" transform="translate(33.763 -8.728)"/><path d="m122.17 217.455-.404 64.042" style="fill:none;stroke:navy;stroke-width:2.42550683;stroke-linecap:square;stroke-linejoin:bevel;stroke-miterlimit:10;stroke-dasharray:none;stroke-opacity:1;image-rendering:auto" transform="translate(33.763 -8.728)"/><path d="m93.47 200.698.137 62.306" style="fill:none;stroke:navy;stroke-width:2.42580295;stroke-linecap:square;stroke-linejoin:bevel;stroke-miterlimit:10;stroke-dasharray:none;stroke-opacity:1" transform="translate(33.763 -8.728)"/><path d="m121.72 216.6-27.803-17.708" style="fill:none;stroke:navy;stroke-width:2.42550683;stroke-linecap:square;stroke-linejoin:bevel;stroke-miterlimit:10;stroke-dasharray:none;stroke-opacity:1" transform="translate(33.763 -8.728)"/><path d="M120.207 281.014 94.04 263.837" style="fill:none;stroke:navy;stroke-width:2.44057131;stroke-linecap:square;stroke-linejoin:bevel;stroke-miterlimit:10;stroke-dasharray:none;stroke-opacity:1" transform="translate(33.763 -8.728)"/><g style="font-style:normal;font-weight:400;font-size:12px;font-family:Helvetica;fill:navy;fill-opacity:1;stroke:none;stroke-width:1.82628131;stroke-miterlimit:10;stroke-dasharray:none"><path d="M153 25h4v4h-4z" font-size="12" font-weight="400" style="fill-rule:evenodd;stroke-width:1.82628131;stroke-miterlimit:10;stroke-dasharray:none" transform="matrix(1.4565 0 0 1.3569 -11.608 46.363)" vector-effect="non-scaling-stroke"/></g><g style="font-style:normal;font-weight:400;font-size:12px;font-family:Helvetica;fill:navy;fill-opacity:1;stroke:none;stroke-width:1.82628131;stroke-miterlimit:10;stroke-dasharray:none"><path d="M213 25h4v4h-4z" font-size="12" font-weight="400" style="fill-rule:evenodd;stroke-width:1.82628131;stroke-miterlimit:10;stroke-dasharray:none" transform="matrix(1.4565 0 0 1.3569 -11.608 46.363)" vector-effect="non-scaling-stroke"/></g><path d="m46.361 450.596 23.856.02M144.509 450.623l22.702-.007" style="fill:none;stroke:navy;stroke-width:2.9000001;stroke-linecap:square;stroke-linejoin:bevel;stroke-miterlimit:10;stroke-dasharray:none;stroke-opacity:1" transform="matrix(.91723 0 0 .8545 160.602 -302.051)"/><path d="m81.805 432.188 71.43.518" style="fill:none;stroke:navy;stroke-width:2.9000001;stroke-linecap:square;stroke-linejoin:bevel;stroke-miterlimit:10;stroke-dasharray:none;stroke-opacity:1;image-rendering:auto" transform="matrix(.91723 0 0 .8545 160.602 -302.051)"/><path d="m63.115 468.971 69.494-.175" style="fill:none;stroke:navy;stroke-width:2.90035415;stroke-linecap:square;stroke-linejoin:bevel;stroke-miterlimit:10;stroke-dasharray:none;stroke-opacity:1" transform="matrix(.91723 0 0 .8545 160.602 -302.051)"/><path d="M80.851 432.764 61.101 468.4" style="fill:none;stroke:navy;stroke-width:2.9000001;stroke-linecap:square;stroke-linejoin:bevel;stroke-miterlimit:10;stroke-dasharray:none;stroke-opacity:1" transform="matrix(.91723 0 0 .8545 160.602 -302.051)"/><path d="m152.697 434.703-19.159 33.538" style="fill:none;stroke:navy;stroke-width:2.91801143;stroke-linecap:square;stroke-linejoin:bevel;stroke-miterlimit:10;stroke-dasharray:none;stroke-opacity:1" transform="matrix(.91723 0 0 .8545 160.602 -302.051)"/><g style="font-style:normal;font-weight:400;font-size:12px;font-family:Helvetica;fill:navy;fill-opacity:1;stroke:none;stroke-width:1.82628131;stroke-miterlimit:10;stroke-dasharray:none"><path d="M153 25h4v4h-4z" font-size="12" font-weight="400" style="fill-rule:evenodd;stroke-width:1.82628131;stroke-miterlimit:10;stroke-dasharray:none" transform="matrix(1.4473 0 0 1.27923 -8.347 249.99)" vector-effect="non-scaling-stroke"/></g><g style="font-style:normal;font-weight:400;font-size:12px;font-family:Helvetica;fill:navy;fill-opacity:1;stroke:none;stroke-width:1.82628131;stroke-miterlimit:10;stroke-dasharray:none"><path d="M213 25h4v4h-4z" font-size="12" font-weight="400" style="fill-rule:evenodd;stroke-width:1.82628131;stroke-miterlimit:10;stroke-dasharray:none" transform="matrix(1.4473 0 0 1.27923 -8.347 249.99)" vector-effect="non-scaling-stroke"/></g><path d="m46.361 450.596 23.856.02M144.509 450.623l22.702-.007" style="fill:none;stroke:navy;stroke-width:2.9000001;stroke-linecap:square;stroke-linejoin:bevel;stroke-miterlimit:10;stroke-dasharray:none;stroke-opacity:1" transform="matrix(.91145 0 0 .8056 162.777 -78.482)"/><path d="m81.805 432.188 71.43.518" style="fill:none;stroke:navy;stroke-width:2.9000001;stroke-linecap:square;stroke-linejoin:bevel;stroke-miterlimit:10;stroke-dasharray:none;stroke-opacity:1;image-rendering:auto" transform="matrix(.91145 0 0 .8056 162.777 -78.482)"/><path d="m63.115 468.971 69.494-.175" style="fill:none;stroke:navy;stroke-width:2.90035415;stroke-linecap:square;stroke-linejoin:bevel;stroke-miterlimit:10;stroke-dasharray:none;stroke-opacity:1" transform="matrix(.91145 0 0 .8056 162.777 -78.482)"/><path d="M80.851 432.764 61.101 468.4" style="fill:none;stroke:navy;stroke-width:2.9000001;stroke-linecap:square;stroke-linejoin:bevel;stroke-miterlimit:10;stroke-dasharray:none;stroke-opacity:1" transform="matrix(.91145 0 0 .8056 162.777 -78.482)"/><path d="m152.697 434.703-19.159 33.538" style="fill:none;stroke:navy;stroke-width:2.91801143;stroke-linecap:square;stroke-linejoin:bevel;stroke-miterlimit:10;stroke-dasharray:none;stroke-opacity:1" transform="matrix(.91145 0 0 .8056 162.777 -78.482)"/></svg>