<svg xmlns="http://www.w3.org/2000/svg" width="500" height="380" version="1.2"><desc>Generated with Qt</desc><g font-size="12" font-weight="400" style="font-size:12px;font-style:normal;font-weight:400;fill:none;stroke:navy;stroke-width:2;stroke-linecap:square;stroke-linejoin:bevel;stroke-opacity:1;font-family:Helvetica"><path d="M375 100v10" style="fill:none" transform="translate(5.005 -35.44)scale(1.18538)"/></g><g font-size="12" font-weight="400" style="font-size:12px;font-style:normal;font-weight:400;fill:none;stroke:navy;stroke-width:3;stroke-linecap:square;stroke-linejoin:bevel;stroke-opacity:1;font-family:Helvetica"><path d="M364 110h22M368 116h14M372 122h6" style="fill:none" transform="translate(5.005 -35.44)scale(1.18538)"/></g><g font-size="12" font-weight="400" style="font-size:12px;font-style:normal;font-weight:400;fill:none;stroke:navy;stroke-width:2;stroke-linecap:square;stroke-linejoin:bevel;stroke-opacity:1;font-family:Helvetica"><path d="M375 270v10" style="fill:none" transform="translate(5.005 -35.44)scale(1.18538)"/></g><g font-size="12" font-weight="400" style="font-size:12px;font-style:normal;font-weight:400;fill:none;stroke:navy;stroke-width:3;stroke-linecap:square;stroke-linejoin:bevel;stroke-opacity:1;font-family:Helvetica"><path d="M364 280h22M368 286h14M372 292h6" style="fill:none" transform="translate(5.005 -35.44)scale(1.18538)"/></g><g font-size="12" font-weight="400" style="font-size:12px;font-style:normal;font-weight:400;fill:none;stroke:navy;stroke-width:2;stroke-linecap:square;stroke-linejoin:bevel;stroke-opacity:1;font-family:Helvetica"><path d="M185 100h60M187 107h56M187 114l7-7M194 114l7-7M201 114l7-7M208 114l7-7M215 114l7-7M222 114l7-7M229 114l7-7M236 114l7-7" style="fill:none" transform="translate(5.005 -35.44)scale(1.18538)"/></g><g font-size="12" font-weight="400" style="font-size:12px;font-style:normal;font-weight:400;fill:none;stroke:navy;stroke-width:2;stroke-linecap:square;stroke-linejoin:bevel;stroke-opacity:1;font-family:Helvetica"><path d="M315 210v-60M322 208v-56M329 208l-7-7M329 201l-7-7M329 194l-7-7M329 187l-7-7M329 180l-7-7M329 173l-7-7M329 166l-7-7M329 159l-7-7" style="fill:none" transform="translate(5.005 -35.44)scale(1.18538)"/></g><g font-size="12" font-weight="400" style="font-size:12px;font-style:normal;font-weight:400;fill:none;stroke:navy;stroke-width:2;stroke-linecap:square;stroke-linejoin:bevel;stroke-opacity:1;font-family:Helvetica"><path d="M115 270v-60M122 268v-56M129 268l-7-7M129 261l-7-7M129 254l-7-7M129 247l-7-7M129 240l-7-7M129 233l-7-7M129 226l-7-7M129 219l-7-7" style="fill:none" transform="translate(5.005 -35.44)scale(1.18538)"/></g><g font-size="12" font-weight="400" style="font-size:12px;font-style:normal;font-weight:400;fill:none;stroke:navy;stroke-width:2;stroke-linecap:square;stroke-linejoin:bevel;stroke-opacity:1;font-family:Helvetica"><path d="M115 160v-60M122 158v-56M129 158l-7-7M129 151l-7-7M129 144l-7-7M129 137l-7-7M129 130l-7-7M129 123l-7-7M129 116l-7-7M129 109l-7-7" style="fill:none" transform="translate(5.005 -35.44)scale(1.18538)"/></g><g font-size="12" font-weight="400" style="font-size:12px;font-style:normal;font-weight:400;fill:none;stroke:navy;stroke-width:2;stroke-linecap:square;stroke-linejoin:bevel;stroke-opacity:1;font-family:Helvetica"><path d="M185 270h60M187 277h56M187 284l7-7M194 284l7-7M201 284l7-7M208 284l7-7M215 284l7-7M222 284l7-7M229 284l7-7M236 284l7-7" style="fill:none" transform="translate(5.005 -35.44)scale(1.18538)"/></g><g font-size="12" font-weight="400" style="font-size:12px;font-style:normal;font-weight:400;fill:none;stroke:navy;stroke-width:2;stroke-linecap:square;stroke-linejoin:bevel;stroke-opacity:1;font-family:Helvetica"><path d="M315 270h12M327 270l3-7M330 263l6 14M336 277l6-14M342 263l6 14M348 277l6-14M354 263l6 14M360 277l3-7M363 270h12" style="fill:none" transform="translate(5.005 -35.44)scale(1.18538)"/></g><g font-size="12" font-weight="400" style="font-size:12px;font-style:normal;font-weight:400;fill:none;stroke:navy;stroke-width:2;stroke-linecap:square;stroke-linejoin:bevel;stroke-opacity:1;font-family:Helvetica"><path d="M315 100h12M327 100l3-7M330 93l6 14M336 107l6-14M342 93l6 14M348 107l6-14M354 93l6 14M360 107l3-7M363 100h12" style="fill:none" transform="translate(5.005 -35.44)scale(1.18538)"/></g><g font-size="12" font-weight="400" style="font-size:12px;font-style:normal;font-weight:400;fill:none;stroke:navy;stroke-width:2;stroke-linecap:square;stroke-linejoin:bevel;stroke-opacity:1;font-family:Helvetica"><path d="M15 180h100M115 180v30M115 160v20M115 100h70M115 270h70M115 270v30M115 70v30M245 100h70M245 270h70M315 210v60M315 100v50" style="fill:none" transform="translate(5.005 -35.44)scale(1.18538)"/></g><g font-size="12" font-weight="400" style="font-size:12px;font-style:normal;font-weight:400;fill:navy;fill-opacity:1;stroke:none;font-family:Helvetica"><path d="M113 158h4v4h-4z" style="fill-rule:evenodd" transform="translate(5.005 -35.44)scale(1.18538)" vector-effect="non-scaling-stroke"/></g><g font-size="12" font-weight="400" style="font-size:12px;font-style:normal;font-weight:400;fill:navy;fill-opacity:1;stroke:navy;stroke-width:1;stroke-linecap:square;stroke-linejoin:bevel;stroke-opacity:1;font-family:Helvetica"><path d="M118 100a3 3 0 1 1-6 0 3 3 0 0 1 6 0" style="fill-rule:evenodd" transform="translate(5.005 -35.44)scale(1.18538)"/></g><g font-size="12" font-weight="400" style="font-size:12px;font-style:normal;font-weight:400;fill:navy;fill-opacity:1;stroke:navy;stroke-width:1;stroke-linecap:square;stroke-linejoin:bevel;stroke-opacity:1;font-family:Helvetica"><path d="M118 270a3 3 0 1 1-6 0 3 3 0 0 1 6 0" style="fill-rule:evenodd" transform="translate(5.005 -35.44)scale(1.18538)"/></g><g font-size="12" font-weight="400" style="font-size:12px;font-style:normal;font-weight:400;fill:navy;fill-opacity:1;stroke:none;font-family:Helvetica"><path d="M113 208h4v4h-4z" style="fill-rule:evenodd" transform="translate(5.005 -35.44)scale(1.18538)" vector-effect="non-scaling-stroke"/></g><g font-size="12" font-weight="400" style="font-size:12px;font-style:normal;font-weight:400;fill:navy;fill-opacity:1;stroke:none;font-family:Helvetica"><path d="M183 98h4v4h-4z" style="fill-rule:evenodd" transform="translate(5.005 -35.44)scale(1.18538)" vector-effect="non-scaling-stroke"/></g><g font-size="12" font-weight="400" style="font-size:12px;font-style:normal;font-weight:400;fill:navy;fill-opacity:1;stroke:none;font-family:Helvetica"><path d="M243 98h4v4h-4z" style="fill-rule:evenodd" transform="translate(5.005 -35.44)scale(1.18538)" vector-effect="non-scaling-stroke"/></g><g font-size="12" font-weight="400" style="font-size:12px;font-style:normal;font-weight:400;fill:navy;fill-opacity:1;stroke:none;font-family:Helvetica"><path d="M183 268h4v4h-4z" style="fill-rule:evenodd" transform="translate(5.005 -35.44)scale(1.18538)" vector-effect="non-scaling-stroke"/></g><g font-size="12" font-weight="400" style="font-size:12px;font-style:normal;font-weight:400;fill:navy;fill-opacity:1;stroke:none;font-family:Helvetica"><path d="M243 268h4v4h-4z" style="fill-rule:evenodd" transform="translate(5.005 -35.44)scale(1.18538)" vector-effect="non-scaling-stroke"/></g><g font-size="12" font-weight="400" style="font-size:12px;font-style:normal;font-weight:400;fill:navy;fill-opacity:1;stroke:none;font-family:Helvetica"><path d="M313 208h4v4h-4z" style="fill-rule:evenodd" transform="translate(5.005 -35.44)scale(1.18538)" vector-effect="non-scaling-stroke"/></g><g font-size="12" font-weight="400" style="font-size:12px;font-style:normal;font-weight:400;fill:navy;fill-opacity:1;stroke:none;font-family:Helvetica"><path d="M313 148h4v4h-4z" style="fill-rule:evenodd" transform="translate(5.005 -35.44)scale(1.18538)" vector-effect="non-scaling-stroke"/></g><g font-size="12" font-weight="400" style="font-size:12px;font-style:normal;font-weight:400;fill:navy;fill-opacity:1;stroke:navy;stroke-width:1;stroke-linecap:square;stroke-linejoin:bevel;stroke-opacity:1;font-family:Helvetica"><path d="M318 100a3 3 0 1 1-6 0 3 3 0 0 1 6 0" style="fill-rule:evenodd" transform="translate(5.005 -35.44)scale(1.18538)"/></g><g font-size="12" font-weight="400" style="font-size:12px;font-style:normal;font-weight:400;fill:navy;fill-opacity:1;stroke:none;font-family:Helvetica"><path d="M373 98h4v4h-4z" style="fill-rule:evenodd" transform="translate(5.005 -35.44)scale(1.18538)" vector-effect="non-scaling-stroke"/></g><g font-size="12" font-weight="400" style="font-size:12px;font-style:normal;font-weight:400;fill:navy;fill-opacity:1;stroke:navy;stroke-width:1;stroke-linecap:square;stroke-linejoin:bevel;stroke-opacity:1;font-family:Helvetica"><path d="M318 270a3 3 0 1 1-6 0 3 3 0 0 1 6 0" style="fill-rule:evenodd" transform="translate(5.005 -35.44)scale(1.18538)"/></g><g font-size="12" font-weight="400" style="font-size:12px;font-style:normal;font-weight:400;fill:navy;fill-opacity:1;stroke:none;font-family:Helvetica"><path d="M373 268h4v4h-4z" style="fill-rule:evenodd" transform="translate(5.005 -35.44)scale(1.18538)" vector-effect="non-scaling-stroke"/></g><path d="M19 180a4 4 0 1 1-8 0 4 4 0 0 1 8 0" font-size="12" font-weight="400" style="font-size:12px;font-style:normal;font-weight:400;fill:none;stroke:red;stroke-width:1;stroke-linecap:square;stroke-linejoin:bevel;stroke-opacity:1;font-family:Helvetica" transform="translate(5.005 -35.44)scale(1.18538)"/><g font-size="12" font-weight="400" style="font-size:12px;font-style:normal;font-weight:400;fill:navy;fill-opacity:1;stroke:navy;stroke-width:1;stroke-linecap:square;stroke-linejoin:bevel;stroke-opacity:1;font-family:Helvetica"><path d="M118 180a3 3 0 1 1-6 0 3 3 0 0 1 6 0" style="fill-rule:evenodd" transform="translate(5.005 -35.44)scale(1.18538)"/></g><g font-size="12" font-weight="400" style="font-size:12px;font-style:normal;font-weight:400;fill:none;stroke:red;stroke-width:1;stroke-linecap:square;stroke-linejoin:bevel;stroke-opacity:1;font-family:Helvetica"><path stroke-width="1.18538" d="M146.066 320.175a4.742 4.742 0 1 1-9.484 0 4.742 4.742 0 0 1 9.484 0M146.066 47.537a4.742 4.742 0 1 1-9.484 0 4.742 4.742 0 0 1 9.484 0"/></g></svg>