<svg xmlns="http://www.w3.org/2000/svg" width="500" height="380"><g font-size="12" font-weight="400" style="font-style:normal;font-weight:400;font-size:12px;font-family:Helvetica;fill:none;stroke:navy;stroke-width:2;stroke-linecap:square;stroke-linejoin:bevel;stroke-opacity:1"><path d="M355 145v12M355 157l7 3M362 160l-14 6M348 166l14 6M362 172l-14 6M348 178l14 6M362 184l-14 6M348 190l7 3M355 193v12" style="fill:none" transform="matrix(.84116 0 0 .84116 12.887 55.714)"/></g><g font-size="12" font-weight="400" style="font-style:normal;font-weight:400;font-size:12px;font-family:Helvetica;fill:none;stroke:navy;stroke-width:2;stroke-linecap:square;stroke-linejoin:bevel;stroke-opacity:1"><path d="M205 145v12M205 157l7 3M212 160l-14 6M198 166l14 6M212 172l-14 6M198 178l14 6M212 184l-14 6M198 190l7 3M205 193v12" style="fill:none" transform="matrix(.84116 0 0 .84116 12.887 55.714)"/></g><g font-size="12" font-weight="400" style="font-style:normal;font-weight:400;font-size:12px;font-family:Helvetica;fill:none;stroke:navy;stroke-width:2;stroke-linecap:square;stroke-linejoin:bevel;stroke-opacity:1"><path d="M545 145v12M545 157l7 3M552 160l-14 6M538 166l14 6M552 172l-14 6M538 178l14 6M552 184l-14 6M538 190l7 3M545 193v12" style="fill:none" transform="matrix(.84116 0 0 .84116 12.887 55.714)"/></g><g font-size="12" font-weight="400" style="font-style:normal;font-weight:400;font-size:12px;font-family:Helvetica;fill:none;stroke:navy;stroke-width:2;stroke-linecap:square;stroke-linejoin:bevel;stroke-opacity:1"><path d="M75 165v60M75 105v60M75 225h40M75 105h40M175 225h30M175 105h30M205 205v20M205 105v40M205 225h60M205 105h60M325 225h30M325 105h30M355 225h20M355 205v20M355 105h20M355 105v40M515 225h30M545 225h20M545 205v20M515 105h30M545 105h20M545 105v40" style="fill:none" transform="matrix(.84116 0 0 .84116 12.887 55.714)"/></g><g font-size="12" font-weight="400" style="font-style:normal;font-weight:400;font-size:12px;font-family:Helvetica;fill:navy;fill-opacity:1;stroke:none"><path d="M353 143h4v4h-4z" style="fill-rule:evenodd" transform="matrix(.84116 0 0 .84116 12.887 55.714)" vector-effect="non-scaling-stroke"/></g><g font-size="12" font-weight="400" style="font-style:normal;font-weight:400;font-size:12px;font-family:Helvetica;fill:navy;fill-opacity:1;stroke:none"><path d="M353 203h4v4h-4z" style="fill-rule:evenodd" transform="matrix(.84116 0 0 .84116 12.887 55.714)" vector-effect="non-scaling-stroke"/></g><g font-size="12" font-weight="400" style="font-style:normal;font-weight:400;font-size:12px;font-family:Helvetica;fill:navy;fill-opacity:1;stroke:none"><path d="M203 143h4v4h-4z" style="fill-rule:evenodd" transform="matrix(.84116 0 0 .84116 12.887 55.714)" vector-effect="non-scaling-stroke"/></g><g font-size="12" font-weight="400" style="font-style:normal;font-weight:400;font-size:12px;font-family:Helvetica;fill:navy;fill-opacity:1;stroke:none"><path d="M203 203h4v4h-4z" style="fill-rule:evenodd" transform="matrix(.84116 0 0 .84116 12.887 55.714)" vector-effect="non-scaling-stroke"/></g><path d="M19 165a4 4 0 1 1-8 0 4 4 0 0 1 8 0" font-size="12" font-weight="400" style="font-style:normal;font-weight:400;font-size:12px;font-family:Helvetica;fill:none;stroke:red;stroke-width:1;stroke-linecap:square;stroke-linejoin:bevel;stroke-opacity:1" transform="matrix(.84116 0 0 .84116 6.815 55.714)"/><g font-size="12" font-weight="400" style="font-style:normal;font-weight:400;font-size:12px;font-family:Helvetica;fill:navy;fill-opacity:1;stroke:navy;stroke-width:1;stroke-linecap:square;stroke-linejoin:bevel;stroke-opacity:1"><path d="M78 165a3 3 0 1 1-6 0 3 3 0 0 1 6 0" style="fill-rule:evenodd" transform="matrix(.84116 0 0 .84116 12.887 55.714)"/></g><g font-size="12" font-weight="400" style="font-style:normal;font-weight:400;font-size:12px;font-family:Helvetica;fill:navy;fill-opacity:1;stroke:navy;stroke-width:1;stroke-linecap:square;stroke-linejoin:bevel;stroke-opacity:1"><path d="M208 225a3 3 0 1 1-6 0 3 3 0 0 1 6 0" style="fill-rule:evenodd" transform="matrix(.84116 0 0 .84116 12.887 55.714)"/></g><g font-size="12" font-weight="400" style="font-style:normal;font-weight:400;font-size:12px;font-family:Helvetica;fill:navy;fill-opacity:1;stroke:navy;stroke-width:1;stroke-linecap:square;stroke-linejoin:bevel;stroke-opacity:1"><path d="M208 105a3 3 0 1 1-6 0 3 3 0 0 1 6 0" style="fill-rule:evenodd" transform="matrix(.84116 0 0 .84116 12.887 55.714)"/></g><g font-size="12" font-weight="400" style="font-style:normal;font-weight:400;font-size:12px;font-family:Helvetica;fill:navy;fill-opacity:1;stroke:navy;stroke-width:1;stroke-linecap:square;stroke-linejoin:bevel;stroke-opacity:1"><path d="M358 225a3 3 0 1 1-6 0 3 3 0 0 1 6 0" style="fill-rule:evenodd" transform="matrix(.84116 0 0 .84116 12.887 55.714)"/></g><g font-size="12" font-weight="400" style="font-style:normal;font-weight:400;font-size:12px;font-family:Helvetica;fill:navy;fill-opacity:1;stroke:navy;stroke-width:1;stroke-linecap:square;stroke-linejoin:bevel;stroke-opacity:1"><path d="M358 105a3 3 0 1 1-6 0 3 3 0 0 1 6 0" style="fill-rule:evenodd" transform="matrix(.84116 0 0 .84116 12.887 55.714)"/></g><g font-size="12" font-weight="400" style="font-style:normal;font-weight:400;font-size:12px;font-family:Helvetica;fill:none;stroke:red;stroke-width:1;stroke-linecap:square;stroke-linejoin:bevel;stroke-opacity:1"><path stroke-width=".84116" d="M331.686 244.975a3.365 3.365 0 1 1-6.73 0 3.365 3.365 0 0 1 6.73 0M331.686 144.036a3.365 3.365 0 1 1-6.73 0 3.365 3.365 0 0 1 6.73 0M398.979 144.036a3.365 3.365 0 1 1-6.73 0 3.365 3.365 0 0 1 6.73 0"/></g><path d="M459 225a4 4 0 1 1-8 0 4 4 0 0 1 8 0" font-size="12" font-weight="400" style="font-style:normal;font-weight:400;font-size:12px;font-family:Helvetica;fill:none;stroke:red;stroke-width:1;stroke-linecap:square;stroke-linejoin:bevel;stroke-opacity:1" transform="matrix(.84116 0 0 .84116 12.887 55.714)"/><g font-size="12" font-weight="400" style="font-style:normal;font-weight:400;font-size:12px;font-family:Helvetica;fill:navy;fill-opacity:1;stroke:none"><path d="M543 143h4v4h-4z" style="fill-rule:evenodd" transform="matrix(.84116 0 0 .84116 12.887 55.714)" vector-effect="non-scaling-stroke"/></g><g font-size="12" font-weight="400" style="font-style:normal;font-weight:400;font-size:12px;font-family:Helvetica;fill:navy;fill-opacity:1;stroke:none"><path d="M543 203h4v4h-4z" style="fill-rule:evenodd" transform="matrix(.84116 0 0 .84116 12.887 55.714)" vector-effect="non-scaling-stroke"/></g><path d="M569 225a4 4 0 1 1-8 0 4 4 0 0 1 8 0" font-size="12" font-weight="400" style="font-style:normal;font-weight:400;font-size:12px;font-family:Helvetica;fill:none;stroke:red;stroke-width:1;stroke-linecap:square;stroke-linejoin:bevel;stroke-opacity:1" transform="matrix(.84116 0 0 .84116 12.887 55.714)"/><g font-size="12" font-weight="400" style="font-style:normal;font-weight:400;font-size:12px;font-family:Helvetica;fill:navy;fill-opacity:1;stroke:navy;stroke-width:1;stroke-linecap:square;stroke-linejoin:bevel;stroke-opacity:1"><path d="M548 225a3 3 0 1 1-6 0 3 3 0 0 1 6 0" style="fill-rule:evenodd" transform="matrix(.84116 0 0 .84116 12.887 55.714)"/></g><path d="M569 105a4 4 0 1 1-8 0 4 4 0 0 1 8 0" font-size="12" font-weight="400" style="font-style:normal;font-weight:400;font-size:12px;font-family:Helvetica;fill:none;stroke:red;stroke-width:1;stroke-linecap:square;stroke-linejoin:bevel;stroke-opacity:1" transform="matrix(.84116 0 0 .84116 12.887 55.714)"/><g font-size="12" font-weight="400" style="font-style:normal;font-weight:400;font-size:12px;font-family:Helvetica;fill:navy;fill-opacity:1;stroke:navy;stroke-width:1;stroke-linecap:square;stroke-linejoin:bevel;stroke-opacity:1"><path d="M548 105a3 3 0 1 1-6 0 3 3 0 0 1 6 0" style="fill-rule:evenodd" transform="matrix(.84116 0 0 .84116 12.887 55.714)"/></g><g font-size="12" font-weight="400" style="font-style:normal;font-weight:400;font-size:12px;font-family:Helvetica;fill:silver;fill-opacity:1;stroke:#000;stroke-width:1;stroke-linecap:square;stroke-linejoin:bevel;stroke-opacity:1"><path d="M395 160a5 5 0 1 1-10.001-.001A5 5 0 0 1 395 160" style="fill-rule:evenodd" transform="matrix(.84116 0 0 .84116 12.887 55.714)" vector-effect="non-scaling-stroke"/></g><g font-size="12" font-weight="400" style="font-style:normal;font-weight:400;font-size:12px;font-family:Helvetica;fill:silver;fill-opacity:1;stroke:#000;stroke-width:1;stroke-linecap:square;stroke-linejoin:bevel;stroke-opacity:1"><path d="M415 160a5 5 0 1 1-10.001-.001A5 5 0 0 1 415 160" style="fill-rule:evenodd" transform="matrix(.84116 0 0 .84116 12.887 55.714)" vector-effect="non-scaling-stroke"/></g><g font-size="12" font-weight="400" style="font-style:normal;font-weight:400;font-size:12px;font-family:Helvetica;fill:silver;fill-opacity:1;stroke:#000;stroke-width:1;stroke-linecap:square;stroke-linejoin:bevel;stroke-opacity:1"><path d="M435 160a5 5 0 1 1-10.001-.001A5 5 0 0 1 435 160" style="fill-rule:evenodd" transform="matrix(.84116 0 0 .84116 12.887 55.714)" vector-effect="non-scaling-stroke"/></g><g style="font-style:normal;font-weight:400;font-size:12px;font-family:Helvetica;fill:navy;fill-opacity:1;stroke:none;stroke-width:1.82628131;stroke-miterlimit:10;stroke-dasharray:none"><path d="M153 25h4v4h-4z" font-size="12" font-weight="400" style="fill-rule:evenodd;stroke-width:1.82628131;stroke-miterlimit:10;stroke-dasharray:none" transform="matrix(.85288 0 0 .9246 -29.045 119.07)" vector-effect="non-scaling-stroke"/></g><g style="font-style:normal;font-weight:400;font-size:12px;font-family:Helvetica;fill:navy;fill-opacity:1;stroke:none;stroke-width:1.82628131;stroke-miterlimit:10;stroke-dasharray:none"><path d="M213 25h4v4h-4z" font-size="12" font-weight="400" style="fill-rule:evenodd;stroke-width:1.82628131;stroke-miterlimit:10;stroke-dasharray:none" transform="matrix(.85288 0 0 .9246 -29.045 119.07)" vector-effect="non-scaling-stroke"/></g><path d="m46.361 450.596 23.856.02M144.509 450.623l22.702-.007" style="fill:none;stroke:navy;stroke-width:2.9000001;stroke-linecap:square;stroke-linejoin:bevel;stroke-miterlimit:10;stroke-dasharray:none;stroke-opacity:1" transform="matrix(.5371 0 0 .58226 71.796 -118.34)"/><path d="m81.805 432.188 71.43.518" style="fill:none;stroke:navy;stroke-width:2.9000001;stroke-linecap:square;stroke-linejoin:bevel;stroke-miterlimit:10;stroke-dasharray:none;stroke-opacity:1;image-rendering:auto" transform="matrix(.5371 0 0 .58226 71.796 -118.34)"/><path d="m63.115 468.971 69.494-.175" style="fill:none;stroke:navy;stroke-width:2.90035415;stroke-linecap:square;stroke-linejoin:bevel;stroke-miterlimit:10;stroke-dasharray:none;stroke-opacity:1" transform="matrix(.5371 0 0 .58226 71.796 -118.34)"/><path d="M80.851 432.764 61.101 468.4" style="fill:none;stroke:navy;stroke-width:2.9000001;stroke-linecap:square;stroke-linejoin:bevel;stroke-miterlimit:10;stroke-dasharray:none;stroke-opacity:1" transform="matrix(.5371 0 0 .58226 71.796 -118.34)"/><path d="m152.697 434.703-19.159 33.538" style="fill:none;stroke:navy;stroke-width:2.91801143;stroke-linecap:square;stroke-linejoin:bevel;stroke-miterlimit:10;stroke-dasharray:none;stroke-opacity:1" transform="matrix(.5371 0 0 .58226 71.796 -118.34)"/><g style="font-style:normal;font-weight:400;font-size:12px;font-family:Helvetica;fill:navy;fill-opacity:1;stroke:none;stroke-width:1.82628131;stroke-miterlimit:10;stroke-dasharray:none"><path d="M153 25h4v4h-4z" font-size="12" font-weight="400" style="fill-rule:evenodd;stroke-width:1.82628131;stroke-miterlimit:10;stroke-dasharray:none" transform="matrix(.85288 0 0 .9246 -23.214 219.985)" vector-effect="non-scaling-stroke"/></g><g style="font-style:normal;font-weight:400;font-size:12px;font-family:Helvetica;fill:navy;fill-opacity:1;stroke:none;stroke-width:1.82628131;stroke-miterlimit:10;stroke-dasharray:none"><path d="M213 25h4v4h-4z" font-size="12" font-weight="400" style="fill-rule:evenodd;stroke-width:1.82628131;stroke-miterlimit:10;stroke-dasharray:none" transform="matrix(.85288 0 0 .9246 -23.214 219.985)" vector-effect="non-scaling-stroke"/></g><path d="m46.361 450.596 23.856.02M144.509 450.623l22.702-.007" style="fill:none;stroke:navy;stroke-width:2.9000001;stroke-linecap:square;stroke-linejoin:bevel;stroke-miterlimit:10;stroke-dasharray:none;stroke-opacity:1" transform="matrix(.5371 0 0 .58226 77.627 -17.425)"/><path d="m81.805 432.188 71.43.518" style="fill:none;stroke:navy;stroke-width:2.9000001;stroke-linecap:square;stroke-linejoin:bevel;stroke-miterlimit:10;stroke-dasharray:none;stroke-opacity:1;image-rendering:auto" transform="matrix(.5371 0 0 .58226 77.627 -17.425)"/><path d="m63.115 468.971 69.494-.175" style="fill:none;stroke:navy;stroke-width:2.90035415;stroke-linecap:square;stroke-linejoin:bevel;stroke-miterlimit:10;stroke-dasharray:none;stroke-opacity:1" transform="matrix(.5371 0 0 .58226 77.627 -17.425)"/><path d="M80.851 432.764 61.101 468.4" style="fill:none;stroke:navy;stroke-width:2.9000001;stroke-linecap:square;stroke-linejoin:bevel;stroke-miterlimit:10;stroke-dasharray:none;stroke-opacity:1" transform="matrix(.5371 0 0 .58226 77.627 -17.425)"/><path d="m152.697 434.703-19.159 33.538" style="fill:none;stroke:navy;stroke-width:2.91801143;stroke-linecap:square;stroke-linejoin:bevel;stroke-miterlimit:10;stroke-dasharray:none;stroke-opacity:1" transform="matrix(.5371 0 0 .58226 77.627 -17.425)"/><g style="font-style:normal;font-weight:400;font-size:12px;font-family:Helvetica;fill:navy;fill-opacity:1;stroke:none;stroke-width:1.82628131;stroke-miterlimit:10;stroke-dasharray:none"><path d="M153 25h4v4h-4z" font-size="12" font-weight="400" style="fill-rule:evenodd;stroke-width:1.82628131;stroke-miterlimit:10;stroke-dasharray:none" transform="matrix(.85288 0 0 .9246 102.619 119.07)" vector-effect="non-scaling-stroke"/></g><g style="font-style:normal;font-weight:400;font-size:12px;font-family:Helvetica;fill:navy;fill-opacity:1;stroke:none;stroke-width:1.82628131;stroke-miterlimit:10;stroke-dasharray:none"><path d="M213 25h4v4h-4z" font-size="12" font-weight="400" style="fill-rule:evenodd;stroke-width:1.82628131;stroke-miterlimit:10;stroke-dasharray:none" transform="matrix(.85288 0 0 .9246 102.619 119.07)" vector-effect="non-scaling-stroke"/></g><path d="m46.361 450.596 23.856.02M144.509 450.623l22.702-.007" style="fill:none;stroke:navy;stroke-width:2.9000001;stroke-linecap:square;stroke-linejoin:bevel;stroke-miterlimit:10;stroke-dasharray:none;stroke-opacity:1" transform="matrix(.5371 0 0 .58226 203.46 -118.34)"/><path d="m81.805 432.188 71.43.518" style="fill:none;stroke:navy;stroke-width:2.9000001;stroke-linecap:square;stroke-linejoin:bevel;stroke-miterlimit:10;stroke-dasharray:none;stroke-opacity:1;image-rendering:auto" transform="matrix(.5371 0 0 .58226 203.46 -118.34)"/><path d="m63.115 468.971 69.494-.175" style="fill:none;stroke:navy;stroke-width:2.90035415;stroke-linecap:square;stroke-linejoin:bevel;stroke-miterlimit:10;stroke-dasharray:none;stroke-opacity:1" transform="matrix(.5371 0 0 .58226 203.46 -118.34)"/><path d="M80.851 432.764 61.101 468.4" style="fill:none;stroke:navy;stroke-width:2.9000001;stroke-linecap:square;stroke-linejoin:bevel;stroke-miterlimit:10;stroke-dasharray:none;stroke-opacity:1" transform="matrix(.5371 0 0 .58226 203.46 -118.34)"/><path d="m152.697 434.703-19.159 33.538" style="fill:none;stroke:navy;stroke-width:2.91801143;stroke-linecap:square;stroke-linejoin:bevel;stroke-miterlimit:10;stroke-dasharray:none;stroke-opacity:1" transform="matrix(.5371 0 0 .58226 203.46 -118.34)"/><g style="font-style:normal;font-weight:400;font-size:12px;font-family:Helvetica;fill:navy;fill-opacity:1;stroke:none;stroke-width:1.82628131;stroke-miterlimit:10;stroke-dasharray:none"><path d="M153 25h4v4h-4z" font-size="12" font-weight="400" style="fill-rule:evenodd;stroke-width:1.82628131;stroke-miterlimit:10;stroke-dasharray:none" transform="matrix(.85288 0 0 .9246 103.017 220.023)" vector-effect="non-scaling-stroke"/></g><g style="font-style:normal;font-weight:400;font-size:12px;font-family:Helvetica;fill:navy;fill-opacity:1;stroke:none;stroke-width:1.82628131;stroke-miterlimit:10;stroke-dasharray:none"><path d="M213 25h4v4h-4z" font-size="12" font-weight="400" style="fill-rule:evenodd;stroke-width:1.82628131;stroke-miterlimit:10;stroke-dasharray:none" transform="matrix(.85288 0 0 .9246 103.017 220.023)" vector-effect="non-scaling-stroke"/></g><path d="m46.361 450.596 23.856.02M144.509 450.623l22.702-.007" style="fill:none;stroke:navy;stroke-width:2.9000001;stroke-linecap:square;stroke-linejoin:bevel;stroke-miterlimit:10;stroke-dasharray:none;stroke-opacity:1" transform="matrix(.5371 0 0 .58226 203.858 -17.388)"/><path d="m81.805 432.188 71.43.518" style="fill:none;stroke:navy;stroke-width:2.9000001;stroke-linecap:square;stroke-linejoin:bevel;stroke-miterlimit:10;stroke-dasharray:none;stroke-opacity:1;image-rendering:auto" transform="matrix(.5371 0 0 .58226 203.858 -17.388)"/><path d="m63.115 468.971 69.494-.175" style="fill:none;stroke:navy;stroke-width:2.90035415;stroke-linecap:square;stroke-linejoin:bevel;stroke-miterlimit:10;stroke-dasharray:none;stroke-opacity:1" transform="matrix(.5371 0 0 .58226 203.858 -17.388)"/><path d="M80.851 432.764 61.101 468.4" style="fill:none;stroke:navy;stroke-width:2.9000001;stroke-linecap:square;stroke-linejoin:bevel;stroke-miterlimit:10;stroke-dasharray:none;stroke-opacity:1" transform="matrix(.5371 0 0 .58226 203.858 -17.388)"/><path d="m152.697 434.703-19.159 33.538" style="fill:none;stroke:navy;stroke-width:2.91801143;stroke-linecap:square;stroke-linejoin:bevel;stroke-miterlimit:10;stroke-dasharray:none;stroke-opacity:1" transform="matrix(.5371 0 0 .58226 203.858 -17.388)"/><g font-size="12" font-weight="400" style="font-style:normal;font-weight:400;font-size:12px;font-family:Helvetica;fill:navy;fill-opacity:1;stroke:none;stroke-width:1.82628131;stroke-miterlimit:10;stroke-dasharray:none"><path d="M213 25h4v4h-4z" style="fill-rule:evenodd;stroke-width:1.82628131;stroke-miterlimit:10;stroke-dasharray:none" transform="matrix(.85288 0 0 .9246 266.356 119.26)" vector-effect="non-scaling-stroke"/></g><path d="m395.845 816.575 9.068.017" style="fill:none;stroke:navy;stroke-width:1.61694896;stroke-linecap:square;stroke-linejoin:bevel;stroke-miterlimit:10;stroke-dasharray:none;stroke-opacity:1" transform="translate(0 -672.362)"/><path d="m444.813 816.594 12.193-.004" style="fill:none;stroke:navy;stroke-width:1.62175989;stroke-linecap:square;stroke-linejoin:bevel;stroke-miterlimit:10;stroke-dasharray:none;stroke-opacity:1" transform="translate(0 -672.362)"/><path d="m411.135 805.86 38.365.301" style="fill:none;stroke:navy;stroke-width:1.62175989;stroke-linecap:square;stroke-linejoin:bevel;stroke-miterlimit:10;stroke-dasharray:none;stroke-opacity:1;image-rendering:auto" transform="translate(0 -672.362)"/><path d="m401.096 827.277 37.325-.102" style="fill:none;stroke:navy;stroke-width:1.6219579;stroke-linecap:square;stroke-linejoin:bevel;stroke-miterlimit:10;stroke-dasharray:none;stroke-opacity:1" transform="translate(0 -672.362)"/><path d="m410.622 806.195-10.608 20.749" style="fill:none;stroke:navy;stroke-width:1.62175989;stroke-linecap:square;stroke-linejoin:bevel;stroke-miterlimit:10;stroke-dasharray:none;stroke-opacity:1" transform="translate(0 -672.362)"/><path d="m449.21 807.324-10.29 19.528" style="fill:none;stroke:navy;stroke-width:1.63183236;stroke-linecap:square;stroke-linejoin:bevel;stroke-miterlimit:10;stroke-dasharray:none;stroke-opacity:1" transform="translate(0 -672.362)"/><g font-size="12" font-weight="400" style="font-style:normal;font-weight:400;font-size:12px;font-family:Helvetica;fill:navy;fill-opacity:1;stroke:none;stroke-width:1.82628131;stroke-miterlimit:10;stroke-dasharray:none"><path d="M213 25h4v4h-4z" style="fill-rule:evenodd;stroke-width:1.82628131;stroke-miterlimit:10;stroke-dasharray:none" transform="matrix(.85288 0 0 .9246 267.664 219.973)" vector-effect="non-scaling-stroke"/></g><path d="m395.904 917.29 10.315.014" style="fill:none;stroke:navy;stroke-width:1.61893332;stroke-linecap:square;stroke-linejoin:bevel;stroke-miterlimit:10;stroke-dasharray:none;stroke-opacity:1" transform="translate(0 -672.362)"/><path d="m446.12 917.306 12.194-.004" style="fill:none;stroke:navy;stroke-width:1.62175989;stroke-linecap:square;stroke-linejoin:bevel;stroke-miterlimit:10;stroke-dasharray:none;stroke-opacity:1" transform="translate(0 -672.362)"/><path d="m412.442 906.572 38.366.302" style="fill:none;stroke:navy;stroke-width:1.62175989;stroke-linecap:square;stroke-linejoin:bevel;stroke-miterlimit:10;stroke-dasharray:none;stroke-opacity:1;image-rendering:auto" transform="translate(0 -672.362)"/><path d="m402.404 927.99 37.325-.102" style="fill:none;stroke:navy;stroke-width:1.6219579;stroke-linecap:square;stroke-linejoin:bevel;stroke-miterlimit:10;stroke-dasharray:none;stroke-opacity:1" transform="translate(0 -672.362)"/><path d="m411.93 906.908-10.608 20.748" style="fill:none;stroke:navy;stroke-width:1.62175989;stroke-linecap:square;stroke-linejoin:bevel;stroke-miterlimit:10;stroke-dasharray:none;stroke-opacity:1" transform="translate(0 -672.362)"/><path d="m450.519 908.037-10.29 19.527" style="fill:none;stroke:navy;stroke-width:1.63183236;stroke-linecap:square;stroke-linejoin:bevel;stroke-miterlimit:10;stroke-dasharray:none;stroke-opacity:1" transform="translate(0 -672.362)"/><path d="m20.156 866.829 5.063.03" style="fill:none;stroke:navy;stroke-width:1.60423553;stroke-linecap:square;stroke-linejoin:bevel;stroke-miterlimit:10;stroke-dasharray:none;stroke-opacity:1" transform="translate(0 -672.362)"/><path d="m65.112 866.854 12.194-.004" style="fill:none;stroke:navy;stroke-width:1.62175989;stroke-linecap:square;stroke-linejoin:bevel;stroke-miterlimit:10;stroke-dasharray:none;stroke-opacity:1" transform="translate(0 -672.362)"/><path d="m31.434 856.12 38.365.301" style="fill:none;stroke:navy;stroke-width:1.62175989;stroke-linecap:square;stroke-linejoin:bevel;stroke-miterlimit:10;stroke-dasharray:none;stroke-opacity:1;image-rendering:auto" transform="translate(0 -672.362)"/><path d="m21.395 877.537 37.326-.102" style="fill:none;stroke:navy;stroke-width:1.6219579;stroke-linecap:square;stroke-linejoin:bevel;stroke-miterlimit:10;stroke-dasharray:none;stroke-opacity:1" transform="translate(0 -672.362)"/><path d="m30.922 856.455-10.608 20.749" style="fill:none;stroke:navy;stroke-width:1.62175989;stroke-linecap:square;stroke-linejoin:bevel;stroke-miterlimit:10;stroke-dasharray:none;stroke-opacity:1" transform="translate(0 -672.362)"/><path d="m69.51 857.584-10.29 19.528" style="fill:none;stroke:navy;stroke-width:1.63183236;stroke-linecap:square;stroke-linejoin:bevel;stroke-miterlimit:10;stroke-dasharray:none;stroke-opacity:1" transform="translate(0 -672.362)"/></svg>