<svg xmlns="http://www.w3.org/2000/svg" width="500" height="380" version="1.2"><desc>Generated with Qt</desc><g font-size="12" font-weight="400" style="font-size:12px;font-style:normal;font-weight:400;fill:none;stroke:navy;stroke-width:2;stroke-linecap:square;stroke-linejoin:bevel;stroke-opacity:1;font-family:Helvetica"><path d="M135 250v10" style="fill:none" transform="matrix(.77668 0 0 .77668 -53.88 35.656)"/></g><g font-size="12" font-weight="400" style="font-size:12px;font-style:normal;font-weight:400;fill:none;stroke:navy;stroke-width:3;stroke-linecap:square;stroke-linejoin:bevel;stroke-opacity:1;font-family:Helvetica"><path d="M124 260h22M128 266h14M132 272h6" style="fill:none" transform="matrix(.77668 0 0 .77668 -53.88 35.656)"/></g><g font-size="12" font-weight="400" style="font-size:12px;font-style:normal;font-weight:400;fill:none;stroke:navy;stroke-width:2;stroke-linecap:square;stroke-linejoin:bevel;stroke-opacity:1;font-family:Helvetica"><path d="M295 40V30" style="fill:none" transform="matrix(.77668 0 0 .77668 -53.88 35.656)"/></g><g font-size="12" font-weight="400" style="font-size:12px;font-style:normal;font-weight:400;fill:none;stroke:navy;stroke-width:3;stroke-linecap:square;stroke-linejoin:bevel;stroke-opacity:1;font-family:Helvetica"><path d="M306 30h-22M302 24h-14M298 18h-6" style="fill:none" transform="matrix(.77668 0 0 .77668 -53.88 35.656)"/></g><g font-size="12" font-weight="400" style="font-size:12px;font-style:normal;font-weight:400;fill:none;stroke:navy;stroke-width:2;stroke-linecap:square;stroke-linejoin:bevel;stroke-opacity:1;font-family:Helvetica"><path d="M295 340v10" style="fill:none" transform="matrix(.77668 0 0 .77668 -53.88 35.656)"/></g><g font-size="12" font-weight="400" style="font-size:12px;font-style:normal;font-weight:400;fill:none;stroke:navy;stroke-width:3;stroke-linecap:square;stroke-linejoin:bevel;stroke-opacity:1;font-family:Helvetica"><path d="M284 350h22M288 356h14M292 362h6" style="fill:none" transform="matrix(.77668 0 0 .77668 -53.88 35.656)"/></g><g font-size="12" font-weight="400" style="font-size:12px;font-style:normal;font-weight:400;fill:none;stroke:navy;stroke-width:2;stroke-linecap:square;stroke-linejoin:bevel;stroke-opacity:1;font-family:Helvetica"><path d="M445 40V30" style="fill:none" transform="matrix(.77668 0 0 .77668 -53.88 35.656)"/></g><g font-size="12" font-weight="400" style="font-size:12px;font-style:normal;font-weight:400;fill:none;stroke:navy;stroke-width:3;stroke-linecap:square;stroke-linejoin:bevel;stroke-opacity:1;font-family:Helvetica"><path d="M456 30h-22M452 24h-14M448 18h-6" style="fill:none" transform="matrix(.77668 0 0 .77668 -53.88 35.656)"/></g><g font-size="12" font-weight="400" style="font-size:12px;font-style:normal;font-weight:400;fill:none;stroke:navy;stroke-width:2;stroke-linecap:square;stroke-linejoin:bevel;stroke-opacity:1;font-family:Helvetica"><path d="M445 340v10" style="fill:none" transform="matrix(.77668 0 0 .77668 -53.88 35.656)"/></g><g font-size="12" font-weight="400" style="font-size:12px;font-style:normal;font-weight:400;fill:none;stroke:navy;stroke-width:3;stroke-linecap:square;stroke-linejoin:bevel;stroke-opacity:1;font-family:Helvetica"><path d="M434 350h22M438 356h14M442 362h6" style="fill:none" transform="matrix(.77668 0 0 .77668 -53.88 35.656)"/></g><g font-size="12" font-weight="400" style="font-size:12px;font-style:normal;font-weight:400;fill:none;stroke:navy;stroke-width:2;stroke-linecap:square;stroke-linejoin:bevel;stroke-opacity:1;font-family:Helvetica"><path d="M205 130h12M253 130h12" style="fill:none" transform="matrix(.77668 0 0 .77668 -53.88 35.656)"/><path stroke-width="1.55336" d="M123.982 136.625a4.66 4.66 0 1 0-9.32 0"/><path stroke-width="1.55336" d="M133.302 136.625a4.66 4.66 0 1 0-9.32 0"/><path stroke-width="1.55336" d="M142.622 136.625a4.66 4.66 0 1 0-9.32 0"/></g><g font-size="12" font-weight="400" style="font-size:12px;font-style:normal;font-weight:400;fill:none;stroke:navy;stroke-width:2;stroke-linecap:square;stroke-linejoin:bevel;stroke-opacity:1;font-family:Helvetica"><path d="M205 250h12M253 250h12" style="fill:none" transform="matrix(.77668 0 0 .77668 -53.88 35.656)"/><path stroke-width="1.55336" d="M123.982 229.827a4.66 4.66 0 1 0-9.32 0"/><path stroke-width="1.55336" d="M133.302 229.827a4.66 4.66 0 1 0-9.32 0"/><path stroke-width="1.55336" d="M142.622 229.827a4.66 4.66 0 1 0-9.32 0"/></g><g font-size="12" font-weight="400" style="font-size:12px;font-style:normal;font-weight:400;fill:none;stroke:navy;stroke-width:2;stroke-linecap:square;stroke-linejoin:bevel;stroke-opacity:1;font-family:Helvetica"><path d="M355 250h12M403 250h12" style="fill:none" transform="matrix(.77668 0 0 .77668 -53.88 35.656)"/><path stroke-width="1.55336" d="M240.484 229.827a4.66 4.66 0 1 0-9.32 0"/><path stroke-width="1.55336" d="M249.804 229.827a4.66 4.66 0 1 0-9.32 0M259.125 229.827a4.66 4.66 0 1 0-9.32 0"/></g><g font-size="12" font-weight="400" style="font-size:12px;font-style:normal;font-weight:400;fill:none;stroke:navy;stroke-width:2;stroke-linecap:square;stroke-linejoin:bevel;stroke-opacity:1;font-family:Helvetica"><path d="M355 130h12M403 130h12" style="fill:none" transform="matrix(.77668 0 0 .77668 -53.88 35.656)"/><path stroke-width="1.55336" d="M240.484 136.625a4.66 4.66 0 1 0-9.32 0"/><path stroke-width="1.55336" d="M249.804 136.625a4.66 4.66 0 1 0-9.32 0M259.125 136.625a4.66 4.66 0 1 0-9.32 0"/></g><g font-size="12" font-weight="400" style="font-size:12px;font-style:normal;font-weight:400;fill:none;stroke:navy;stroke-width:2;stroke-linecap:square;stroke-linejoin:bevel;stroke-opacity:1;font-family:Helvetica"><path d="M295 170v12M295 182l7 3M302 185l-14 6M288 191l14 6M302 197l-14 6M288 203l14 6M302 209l-14 6M288 215l7 3M295 218v12" style="fill:none" transform="matrix(.77668 0 0 .77668 -53.88 35.656)"/></g><g font-size="12" font-weight="400" style="font-size:12px;font-style:normal;font-weight:400;fill:none;stroke:navy;stroke-width:2;stroke-linecap:square;stroke-linejoin:bevel;stroke-opacity:1;font-family:Helvetica"><path d="M445 170v12M445 182l7 3M452 185l-14 6M438 191l14 6M452 197l-14 6M438 203l14 6M452 209l-14 6M438 215l7 3M445 218v12" style="fill:none" transform="matrix(.77668 0 0 .77668 -53.88 35.656)"/></g><g font-size="12" font-weight="400" style="font-size:12px;font-style:normal;font-weight:400;fill:none;stroke:navy;stroke-width:4;stroke-linecap:square;stroke-linejoin:bevel;stroke-opacity:1;font-family:Helvetica"><path d="M306 66h-22M306 74h-22" style="fill:none" transform="matrix(.77668 0 0 .77668 -53.88 35.656)"/></g><g font-size="12" font-weight="400" style="font-size:12px;font-style:normal;font-weight:400;fill:none;stroke:navy;stroke-width:2;stroke-linecap:square;stroke-linejoin:bevel;stroke-opacity:1;font-family:Helvetica"><path d="M295 40v26M295 74v26" style="fill:none" transform="matrix(.77668 0 0 .77668 -53.88 35.656)"/></g><g font-size="12" font-weight="400" style="font-size:12px;font-style:normal;font-weight:400;fill:none;stroke:navy;stroke-width:4;stroke-linecap:square;stroke-linejoin:bevel;stroke-opacity:1;font-family:Helvetica"><path d="M146 216h-22M146 224h-22" style="fill:none" transform="matrix(.77668 0 0 .77668 -53.88 35.656)"/></g><g font-size="12" font-weight="400" style="font-size:12px;font-style:normal;font-weight:400;fill:none;stroke:navy;stroke-width:2;stroke-linecap:square;stroke-linejoin:bevel;stroke-opacity:1;font-family:Helvetica"><path d="M135 190v26M135 224v26" style="fill:none" transform="matrix(.77668 0 0 .77668 -53.88 35.656)"/></g><g font-size="12" font-weight="400" style="font-size:12px;font-style:normal;font-weight:400;fill:none;stroke:navy;stroke-width:4;stroke-linecap:square;stroke-linejoin:bevel;stroke-opacity:1;font-family:Helvetica"><path d="M306 306h-22M306 314h-22" style="fill:none" transform="matrix(.77668 0 0 .77668 -53.88 35.656)"/></g><g font-size="12" font-weight="400" style="font-size:12px;font-style:normal;font-weight:400;fill:none;stroke:navy;stroke-width:2;stroke-linecap:square;stroke-linejoin:bevel;stroke-opacity:1;font-family:Helvetica"><path d="M295 280v26M295 314v26" style="fill:none" transform="matrix(.77668 0 0 .77668 -53.88 35.656)"/></g><g font-size="12" font-weight="400" style="font-size:12px;font-style:normal;font-weight:400;fill:none;stroke:navy;stroke-width:4;stroke-linecap:square;stroke-linejoin:bevel;stroke-opacity:1;font-family:Helvetica"><path d="M456 306h-22M456 314h-22" style="fill:none" transform="matrix(.77668 0 0 .77668 -53.88 35.656)"/></g><g font-size="12" font-weight="400" style="font-size:12px;font-style:normal;font-weight:400;fill:none;stroke:navy;stroke-width:2;stroke-linecap:square;stroke-linejoin:bevel;stroke-opacity:1;font-family:Helvetica"><path d="M445 280v26M445 314v26" style="fill:none" transform="matrix(.77668 0 0 .77668 -53.88 35.656)"/></g><g font-size="12" font-weight="400" style="font-size:12px;font-style:normal;font-weight:400;fill:none;stroke:navy;stroke-width:4;stroke-linecap:square;stroke-linejoin:bevel;stroke-opacity:1;font-family:Helvetica"><path d="M456 66h-22M456 74h-22" style="fill:none" transform="matrix(.77668 0 0 .77668 -53.88 35.656)"/></g><g font-size="12" font-weight="400" style="font-size:12px;font-style:normal;font-weight:400;fill:none;stroke:navy;stroke-width:2;stroke-linecap:square;stroke-linejoin:bevel;stroke-opacity:1;font-family:Helvetica"><path d="M445 40v26M445 74v26" style="fill:none" transform="matrix(.77668 0 0 .77668 -53.88 35.656)"/></g><g font-size="12" font-weight="400" style="font-size:12px;font-style:normal;font-weight:400;fill:none;stroke:navy;stroke-width:2;stroke-linecap:square;stroke-linejoin:bevel;stroke-opacity:1;font-family:Helvetica"><path d="M625 40V30" style="fill:none" transform="matrix(.77668 0 0 .77668 -53.88 35.656)"/></g><g font-size="12" font-weight="400" style="font-size:12px;font-style:normal;font-weight:400;fill:none;stroke:navy;stroke-width:3;stroke-linecap:square;stroke-linejoin:bevel;stroke-opacity:1;font-family:Helvetica"><path d="M636 30h-22M632 24h-14M628 18h-6" style="fill:none" transform="matrix(.77668 0 0 .77668 -53.88 35.656)"/></g><g font-size="12" font-weight="400" style="font-size:12px;font-style:normal;font-weight:400;fill:none;stroke:navy;stroke-width:2;stroke-linecap:square;stroke-linejoin:bevel;stroke-opacity:1;font-family:Helvetica"><path d="M625 340v10" style="fill:none" transform="matrix(.77668 0 0 .77668 -53.88 35.656)"/></g><g font-size="12" font-weight="400" style="font-size:12px;font-style:normal;font-weight:400;fill:none;stroke:navy;stroke-width:3;stroke-linecap:square;stroke-linejoin:bevel;stroke-opacity:1;font-family:Helvetica"><path d="M614 350h22M618 356h14M622 362h6" style="fill:none" transform="matrix(.77668 0 0 .77668 -53.88 35.656)"/></g><g font-size="12" font-weight="400" style="font-size:12px;font-style:normal;font-weight:400;fill:none;stroke:navy;stroke-width:2;stroke-linecap:square;stroke-linejoin:bevel;stroke-opacity:1;font-family:Helvetica"><path d="M535 250h12M583 250h12" style="fill:none" transform="matrix(.77668 0 0 .77668 -53.88 35.656)"/><path stroke-width="1.55336" d="M380.288 229.827a4.66 4.66 0 1 0-9.32 0"/><path stroke-width="1.55336" d="M389.608 229.827a4.66 4.66 0 1 0-9.32 0"/><path stroke-width="1.55336" d="M398.928 229.827a4.66 4.66 0 1 0-9.32 0"/></g><g font-size="12" font-weight="400" style="font-size:12px;font-style:normal;font-weight:400;fill:none;stroke:navy;stroke-width:2;stroke-linecap:square;stroke-linejoin:bevel;stroke-opacity:1;font-family:Helvetica"><path d="M535 130h12M583 130h12" style="fill:none" transform="matrix(.77668 0 0 .77668 -53.88 35.656)"/><path stroke-width="1.55336" d="M380.288 136.625a4.66 4.66 0 1 0-9.32 0"/><path stroke-width="1.55336" d="M389.608 136.625a4.66 4.66 0 1 0-9.32 0"/><path stroke-width="1.55336" d="M398.928 136.625a4.66 4.66 0 1 0-9.32 0"/></g><g font-size="12" font-weight="400" style="font-size:12px;font-style:normal;font-weight:400;fill:none;stroke:navy;stroke-width:2;stroke-linecap:square;stroke-linejoin:bevel;stroke-opacity:1;font-family:Helvetica"><path d="M625 170v12M625 182l7 3M632 185l-14 6M618 191l14 6M632 197l-14 6M618 203l14 6M632 209l-14 6M618 215l7 3M625 218v12" style="fill:none" transform="matrix(.77668 0 0 .77668 -53.88 35.656)"/></g><g font-size="12" font-weight="400" style="font-size:12px;font-style:normal;font-weight:400;fill:none;stroke:navy;stroke-width:4;stroke-linecap:square;stroke-linejoin:bevel;stroke-opacity:1;font-family:Helvetica"><path d="M636 306h-22M636 314h-22" style="fill:none" transform="matrix(.77668 0 0 .77668 -53.88 35.656)"/></g><g font-size="12" font-weight="400" style="font-size:12px;font-style:normal;font-weight:400;fill:none;stroke:navy;stroke-width:2;stroke-linecap:square;stroke-linejoin:bevel;stroke-opacity:1;font-family:Helvetica"><path d="M625 280v26M625 314v26" style="fill:none" transform="matrix(.77668 0 0 .77668 -53.88 35.656)"/></g><g font-size="12" font-weight="400" style="font-size:12px;font-style:normal;font-weight:400;fill:none;stroke:navy;stroke-width:4;stroke-linecap:square;stroke-linejoin:bevel;stroke-opacity:1;font-family:Helvetica"><path d="M636 66h-22M636 74h-22" style="fill:none" transform="matrix(.77668 0 0 .77668 -53.88 35.656)"/></g><g font-size="12" font-weight="400" style="font-size:12px;font-style:normal;font-weight:400;fill:none;stroke:navy;stroke-width:2;stroke-linecap:square;stroke-linejoin:bevel;stroke-opacity:1;font-family:Helvetica"><path d="M625 40v26M625 74v26" style="fill:none" transform="matrix(.77668 0 0 .77668 -53.88 35.656)"/></g><g font-size="12" font-weight="400" style="font-size:12px;font-style:normal;font-weight:400;fill:none;stroke:navy;stroke-width:2;stroke-linecap:square;stroke-linejoin:bevel;stroke-opacity:1;font-family:Helvetica"><path d="M105 190h30M165 130v60M165 130h40M265 130h30M295 230v20M295 130v40M295 100v30M295 250v30M295 250h60M295 130h60M415 250h30M415 130h30M445 250h20M445 230v20M445 130h20M445 130v40M445 100v30M445 250v30M265 250h30M165 190v60M165 250h40M135 190h30M595 250h30M625 250h20M625 230v20M595 130h30M625 130h20M625 130v40M625 100v30M625 250v30" style="fill:none" transform="matrix(.77668 0 0 .77668 -53.88 35.656)"/></g><g font-size="12" font-weight="400" style="font-size:12px;font-style:normal;font-weight:400;fill:navy;fill-opacity:1;stroke:none;font-family:Helvetica"><path d="M133 248h4v4h-4z" style="fill-rule:evenodd" transform="matrix(.77668 0 0 .77668 -53.88 35.656)" vector-effect="non-scaling-stroke"/></g><g font-size="12" font-weight="400" style="font-size:12px;font-style:normal;font-weight:400;fill:navy;fill-opacity:1;stroke:none;font-family:Helvetica"><path d="M293 38h4v4h-4z" style="fill-rule:evenodd" transform="matrix(.77668 0 0 .77668 -53.88 35.656)" vector-effect="non-scaling-stroke"/></g><g font-size="12" font-weight="400" style="font-size:12px;font-style:normal;font-weight:400;fill:navy;fill-opacity:1;stroke:none;font-family:Helvetica"><path d="M293 278h4v4h-4z" style="fill-rule:evenodd" transform="matrix(.77668 0 0 .77668 -53.88 35.656)" vector-effect="non-scaling-stroke"/></g><g font-size="12" font-weight="400" style="font-size:12px;font-style:normal;font-weight:400;fill:navy;fill-opacity:1;stroke:none;font-family:Helvetica"><path d="M293 338h4v4h-4z" style="fill-rule:evenodd" transform="matrix(.77668 0 0 .77668 -53.88 35.656)" vector-effect="non-scaling-stroke"/></g><g font-size="12" font-weight="400" style="font-size:12px;font-style:normal;font-weight:400;fill:navy;fill-opacity:1;stroke:none;font-family:Helvetica"><path d="M443 38h4v4h-4z" style="fill-rule:evenodd" transform="matrix(.77668 0 0 .77668 -53.88 35.656)" vector-effect="non-scaling-stroke"/></g><g font-size="12" font-weight="400" style="font-size:12px;font-style:normal;font-weight:400;fill:navy;fill-opacity:1;stroke:none;font-family:Helvetica"><path d="M443 338h4v4h-4z" style="fill-rule:evenodd" transform="matrix(.77668 0 0 .77668 -53.88 35.656)" vector-effect="non-scaling-stroke"/></g><g font-size="12" font-weight="400" style="font-size:12px;font-style:normal;font-weight:400;fill:navy;fill-opacity:1;stroke:none;font-family:Helvetica"><path d="M203 128h4v4h-4z" style="fill-rule:evenodd" transform="matrix(.77668 0 0 .77668 -53.88 35.656)" vector-effect="non-scaling-stroke"/></g><g font-size="12" font-weight="400" style="font-size:12px;font-style:normal;font-weight:400;fill:navy;fill-opacity:1;stroke:none;font-family:Helvetica"><path d="M263 128h4v4h-4z" style="fill-rule:evenodd" transform="matrix(.77668 0 0 .77668 -53.88 35.656)" vector-effect="non-scaling-stroke"/></g><g font-size="12" font-weight="400" style="font-size:12px;font-style:normal;font-weight:400;fill:navy;fill-opacity:1;stroke:none;font-family:Helvetica"><path d="M203 248h4v4h-4z" style="fill-rule:evenodd" transform="matrix(.77668 0 0 .77668 -53.88 35.656)" vector-effect="non-scaling-stroke"/></g><g font-size="12" font-weight="400" style="font-size:12px;font-style:normal;font-weight:400;fill:navy;fill-opacity:1;stroke:none;font-family:Helvetica"><path d="M263 248h4v4h-4z" style="fill-rule:evenodd" transform="matrix(.77668 0 0 .77668 -53.88 35.656)" vector-effect="non-scaling-stroke"/></g><g font-size="12" font-weight="400" style="font-size:12px;font-style:normal;font-weight:400;fill:navy;fill-opacity:1;stroke:none;font-family:Helvetica"><path d="M353 248h4v4h-4z" style="fill-rule:evenodd" transform="matrix(.77668 0 0 .77668 -53.88 35.656)" vector-effect="non-scaling-stroke"/></g><g font-size="12" font-weight="400" style="font-size:12px;font-style:normal;font-weight:400;fill:navy;fill-opacity:1;stroke:none;font-family:Helvetica"><path d="M413 248h4v4h-4z" style="fill-rule:evenodd" transform="matrix(.77668 0 0 .77668 -53.88 35.656)" vector-effect="non-scaling-stroke"/></g><g font-size="12" font-weight="400" style="font-size:12px;font-style:normal;font-weight:400;fill:navy;fill-opacity:1;stroke:none;font-family:Helvetica"><path d="M353 128h4v4h-4z" style="fill-rule:evenodd" transform="matrix(.77668 0 0 .77668 -53.88 35.656)" vector-effect="non-scaling-stroke"/></g><g font-size="12" font-weight="400" style="font-size:12px;font-style:normal;font-weight:400;fill:navy;fill-opacity:1;stroke:none;font-family:Helvetica"><path d="M413 128h4v4h-4z" style="fill-rule:evenodd" transform="matrix(.77668 0 0 .77668 -53.88 35.656)" vector-effect="non-scaling-stroke"/></g><g font-size="12" font-weight="400" style="font-size:12px;font-style:normal;font-weight:400;fill:navy;fill-opacity:1;stroke:none;font-family:Helvetica"><path d="M293 168h4v4h-4z" style="fill-rule:evenodd" transform="matrix(.77668 0 0 .77668 -53.88 35.656)" vector-effect="non-scaling-stroke"/></g><g font-size="12" font-weight="400" style="font-size:12px;font-style:normal;font-weight:400;fill:navy;fill-opacity:1;stroke:none;font-family:Helvetica"><path d="M293 228h4v4h-4z" style="fill-rule:evenodd" transform="matrix(.77668 0 0 .77668 -53.88 35.656)" vector-effect="non-scaling-stroke"/></g><g font-size="12" font-weight="400" style="font-size:12px;font-style:normal;font-weight:400;fill:navy;fill-opacity:1;stroke:none;font-family:Helvetica"><path d="M443 168h4v4h-4z" style="fill-rule:evenodd" transform="matrix(.77668 0 0 .77668 -53.88 35.656)" vector-effect="non-scaling-stroke"/></g><g font-size="12" font-weight="400" style="font-size:12px;font-style:normal;font-weight:400;fill:navy;fill-opacity:1;stroke:none;font-family:Helvetica"><path d="M443 228h4v4h-4z" style="fill-rule:evenodd" transform="matrix(.77668 0 0 .77668 -53.88 35.656)" vector-effect="non-scaling-stroke"/></g><g font-size="12" font-weight="400" style="font-size:12px;font-style:normal;font-weight:400;fill:navy;fill-opacity:1;stroke:none;font-family:Helvetica"><path d="M293 98h4v4h-4z" style="fill-rule:evenodd" transform="matrix(.77668 0 0 .77668 -53.88 35.656)" vector-effect="non-scaling-stroke"/></g><g font-size="12" font-weight="400" style="font-size:12px;font-style:normal;font-weight:400;fill:navy;fill-opacity:1;stroke:navy;stroke-width:1;stroke-linecap:square;stroke-linejoin:bevel;stroke-opacity:1;font-family:Helvetica"><path d="M168 190a3 3 0 1 1-6 0 3 3 0 0 1 6 0" style="fill-rule:evenodd" transform="matrix(.77668 0 0 .77668 -53.88 35.656)"/></g><path d="M109 190a4 4 0 1 1-8 0 4 4 0 0 1 8 0" font-size="12" font-weight="400" style="font-size:12px;font-style:normal;font-weight:400;fill:none;stroke:red;stroke-width:1;stroke-linecap:square;stroke-linejoin:bevel;stroke-opacity:1;font-family:Helvetica" transform="matrix(.77668 0 0 .77668 -53.88 35.656)"/><g font-size="12" font-weight="400" style="font-size:12px;font-style:normal;font-weight:400;fill:navy;fill-opacity:1;stroke:navy;stroke-width:1;stroke-linecap:square;stroke-linejoin:bevel;stroke-opacity:1;font-family:Helvetica"><path d="M298 130a3 3 0 1 1-6 0 3 3 0 0 1 6 0" style="fill-rule:evenodd" transform="matrix(.77668 0 0 .77668 -53.88 35.656)"/></g><g font-size="12" font-weight="400" style="font-size:12px;font-style:normal;font-weight:400;fill:navy;fill-opacity:1;stroke:navy;stroke-width:1;stroke-linecap:square;stroke-linejoin:bevel;stroke-opacity:1;font-family:Helvetica"><path d="M298 250a3 3 0 1 1-6 0 3 3 0 0 1 6 0" style="fill-rule:evenodd" transform="matrix(.77668 0 0 .77668 -53.88 35.656)"/></g><g font-size="12" font-weight="400" style="font-size:12px;font-style:normal;font-weight:400;fill:navy;fill-opacity:1;stroke:navy;stroke-width:1;stroke-linecap:square;stroke-linejoin:bevel;stroke-opacity:1;font-family:Helvetica"><path d="M448 250a3 3 0 1 1-6 0 3 3 0 0 1 6 0" style="fill-rule:evenodd" transform="matrix(.77668 0 0 .77668 -53.88 35.656)"/></g><g font-size="12" font-weight="400" style="font-size:12px;font-style:normal;font-weight:400;fill:navy;fill-opacity:1;stroke:navy;stroke-width:1;stroke-linecap:square;stroke-linejoin:bevel;stroke-opacity:1;font-family:Helvetica"><path d="M448 130a3 3 0 1 1-6 0 3 3 0 0 1 6 0" style="fill-rule:evenodd" transform="matrix(.77668 0 0 .77668 -53.88 35.656)"/></g><g font-size="12" font-weight="400" style="font-size:12px;font-style:normal;font-weight:400;fill:none;stroke:red;stroke-width:1;stroke-linecap:square;stroke-linejoin:bevel;stroke-opacity:1;font-family:Helvetica"><path stroke-width=".77668" d="M310.386 229.827a3.107 3.107 0 1 1-6.214 0 3.107 3.107 0 0 1 6.214 0M310.386 136.625a3.107 3.107 0 1 1-6.214 0 3.107 3.107 0 0 1 6.214 0"/></g><g font-size="12" font-weight="400" style="font-size:12px;font-style:normal;font-weight:400;fill:navy;fill-opacity:1;stroke:none;font-family:Helvetica"><path d="M443 98h4v4h-4z" style="fill-rule:evenodd" transform="matrix(.77668 0 0 .77668 -53.88 35.656)" vector-effect="non-scaling-stroke"/></g><g font-size="12" font-weight="400" style="font-size:12px;font-style:normal;font-weight:400;fill:navy;fill-opacity:1;stroke:none;font-family:Helvetica"><path d="M443 278h4v4h-4z" style="fill-rule:evenodd" transform="matrix(.77668 0 0 .77668 -53.88 35.656)" vector-effect="non-scaling-stroke"/></g><g font-size="12" font-weight="400" style="font-size:12px;font-style:normal;font-weight:400;fill:navy;fill-opacity:1;stroke:navy;stroke-width:1;stroke-linecap:square;stroke-linejoin:bevel;stroke-opacity:1;font-family:Helvetica"><path d="M138 190a3 3 0 1 1-6 0 3 3 0 0 1 6 0" style="fill-rule:evenodd" transform="matrix(.77668 0 0 .77668 -53.88 35.656)"/></g><g font-size="12" font-weight="400" style="font-size:12px;font-style:normal;font-weight:400;fill:navy;fill-opacity:1;stroke:none;font-family:Helvetica"><path d="M623 38h4v4h-4z" style="fill-rule:evenodd" transform="matrix(.77668 0 0 .77668 -53.88 35.656)" vector-effect="non-scaling-stroke"/></g><g font-size="12" font-weight="400" style="font-size:12px;font-style:normal;font-weight:400;fill:navy;fill-opacity:1;stroke:none;font-family:Helvetica"><path d="M623 338h4v4h-4z" style="fill-rule:evenodd" transform="matrix(.77668 0 0 .77668 -53.88 35.656)" vector-effect="non-scaling-stroke"/></g><path d="M539 250a4 4 0 1 1-8 0 4 4 0 0 1 8 0" font-size="12" font-weight="400" style="font-size:12px;font-style:normal;font-weight:400;fill:none;stroke:red;stroke-width:1;stroke-linecap:square;stroke-linejoin:bevel;stroke-opacity:1;font-family:Helvetica" transform="matrix(.77668 0 0 .77668 -53.88 35.656)"/><g font-size="12" font-weight="400" style="font-size:12px;font-style:normal;font-weight:400;fill:navy;fill-opacity:1;stroke:none;font-family:Helvetica"><path d="M593 248h4v4h-4z" style="fill-rule:evenodd" transform="matrix(.77668 0 0 .77668 -53.88 35.656)" vector-effect="non-scaling-stroke"/></g><path d="M539 130a4 4 0 1 1-8 0 4 4 0 0 1 8 0" font-size="12" font-weight="400" style="font-size:12px;font-style:normal;font-weight:400;fill:none;stroke:red;stroke-width:1;stroke-linecap:square;stroke-linejoin:bevel;stroke-opacity:1;font-family:Helvetica" transform="matrix(.77668 0 0 .77668 -53.88 35.656)"/><g font-size="12" font-weight="400" style="font-size:12px;font-style:normal;font-weight:400;fill:navy;fill-opacity:1;stroke:none;font-family:Helvetica"><path d="M593 128h4v4h-4z" style="fill-rule:evenodd" transform="matrix(.77668 0 0 .77668 -53.88 35.656)" vector-effect="non-scaling-stroke"/></g><g font-size="12" font-weight="400" style="font-size:12px;font-style:normal;font-weight:400;fill:navy;fill-opacity:1;stroke:none;font-family:Helvetica"><path d="M623 168h4v4h-4z" style="fill-rule:evenodd" transform="matrix(.77668 0 0 .77668 -53.88 35.656)" vector-effect="non-scaling-stroke"/></g><g font-size="12" font-weight="400" style="font-size:12px;font-style:normal;font-weight:400;fill:navy;fill-opacity:1;stroke:none;font-family:Helvetica"><path d="M623 228h4v4h-4z" style="fill-rule:evenodd" transform="matrix(.77668 0 0 .77668 -53.88 35.656)" vector-effect="non-scaling-stroke"/></g><g font-size="12" font-weight="400" style="font-size:12px;font-style:normal;font-weight:400;fill:navy;fill-opacity:1;stroke:none;font-family:Helvetica"><path d="M623 278h4v4h-4z" style="fill-rule:evenodd" transform="matrix(.77668 0 0 .77668 -53.88 35.656)" vector-effect="non-scaling-stroke"/></g><g font-size="12" font-weight="400" style="font-size:12px;font-style:normal;font-weight:400;fill:navy;fill-opacity:1;stroke:none;font-family:Helvetica"><path d="M623 98h4v4h-4z" style="fill-rule:evenodd" transform="matrix(.77668 0 0 .77668 -53.88 35.656)" vector-effect="non-scaling-stroke"/></g><path d="M649 250a4 4 0 1 1-8 0 4 4 0 0 1 8 0" font-size="12" font-weight="400" style="font-size:12px;font-style:normal;font-weight:400;fill:none;stroke:red;stroke-width:1;stroke-linecap:square;stroke-linejoin:bevel;stroke-opacity:1;font-family:Helvetica" transform="matrix(.77668 0 0 .77668 -53.88 35.656)"/><g font-size="12" font-weight="400" style="font-size:12px;font-style:normal;font-weight:400;fill:navy;fill-opacity:1;stroke:navy;stroke-width:1;stroke-linecap:square;stroke-linejoin:bevel;stroke-opacity:1;font-family:Helvetica"><path d="M628 250a3 3 0 1 1-6 0 3 3 0 0 1 6 0" style="fill-rule:evenodd" transform="matrix(.77668 0 0 .77668 -53.88 35.656)"/></g><path d="M649 130a4 4 0 1 1-8 0 4 4 0 0 1 8 0" font-size="12" font-weight="400" style="font-size:12px;font-style:normal;font-weight:400;fill:none;stroke:red;stroke-width:1;stroke-linecap:square;stroke-linejoin:bevel;stroke-opacity:1;font-family:Helvetica" transform="matrix(.77668 0 0 .77668 -53.88 35.656)"/><g font-size="12" font-weight="400" style="font-size:12px;font-style:normal;font-weight:400;fill:navy;fill-opacity:1;stroke:navy;stroke-width:1;stroke-linecap:square;stroke-linejoin:bevel;stroke-opacity:1;font-family:Helvetica"><path d="M628 130a3 3 0 1 1-6 0 3 3 0 0 1 6 0" style="fill-rule:evenodd" transform="matrix(.77668 0 0 .77668 -53.88 35.656)"/></g><g font-size="12" font-weight="400" style="font-size:12px;font-style:normal;font-weight:400;fill:silver;fill-opacity:1;stroke:#000;stroke-width:1;stroke-linecap:square;stroke-linejoin:bevel;stroke-opacity:1;font-family:Helvetica"><path d="M485 185a5 5 0 1 1-10.001-.001A5 5 0 0 1 485 185" style="fill-rule:evenodd" transform="matrix(.77668 0 0 .77668 -53.88 35.656)" vector-effect="non-scaling-stroke"/></g><g font-size="12" font-weight="400" style="font-size:12px;font-style:normal;font-weight:400;fill:silver;fill-opacity:1;stroke:#000;stroke-width:1;stroke-linecap:square;stroke-linejoin:bevel;stroke-opacity:1;font-family:Helvetica"><path d="M505 185a5 5 0 1 1-10.001-.001A5 5 0 0 1 505 185" style="fill-rule:evenodd" transform="matrix(.77668 0 0 .77668 -53.88 35.656)" vector-effect="non-scaling-stroke"/></g><g font-size="12" font-weight="400" style="font-size:12px;font-style:normal;font-weight:400;fill:silver;fill-opacity:1;stroke:#000;stroke-width:1;stroke-linecap:square;stroke-linejoin:bevel;stroke-opacity:1;font-family:Helvetica"><path d="M525 185a5 5 0 1 1-10.001-.001A5 5 0 0 1 525 185" style="fill-rule:evenodd" transform="matrix(.77668 0 0 .77668 -53.88 35.656)" vector-effect="non-scaling-stroke"/></g></svg>