<svg xmlns="http://www.w3.org/2000/svg" width="500" height="380"><g font-size="12" font-weight="400"><g style="font-size:12px;font-style:normal;font-weight:400;fill:none;stroke:navy;stroke-width:2;stroke-linecap:square;stroke-linejoin:bevel;stroke-opacity:1;font-family:Helvetica"><path d="M265 105h60M267 112h56M267 119l7-7M274 119l7-7M281 119l7-7M288 119l7-7M295 119l7-7M302 119l7-7M309 119l7-7M316 119l7-7" style="fill:none" transform="matrix(.84116 0 0 .84116 -4.286 55.714)"/></g><g style="font-size:12px;font-style:normal;font-weight:400;fill:none;stroke:navy;stroke-width:2;stroke-linecap:square;stroke-linejoin:bevel;stroke-opacity:1;font-family:Helvetica"><path d="M265 225h60M267 232h56M267 239l7-7M274 239l7-7M281 239l7-7M288 239l7-7M295 239l7-7M302 239l7-7M309 239l7-7M316 239l7-7" style="fill:none" transform="matrix(.84116 0 0 .84116 -4.286 55.714)"/></g><g style="font-size:12px;font-style:normal;font-weight:400;fill:none;stroke:navy;stroke-width:2;stroke-linecap:square;stroke-linejoin:bevel;stroke-opacity:1;font-family:Helvetica"><path d="M355 145v12M355 157l7 3M362 160l-14 6M348 166l14 6M362 172l-14 6M348 178l14 6M362 184l-14 6M348 190l7 3M355 193v12" style="fill:none" transform="matrix(.84116 0 0 .84116 -4.286 55.714)"/></g><g style="font-size:12px;font-style:normal;font-weight:400;fill:none;stroke:navy;stroke-width:2;stroke-linecap:square;stroke-linejoin:bevel;stroke-opacity:1;font-family:Helvetica"><path d="M115 105h60M117 112h56M117 119l7-7M124 119l7-7M131 119l7-7M138 119l7-7M145 119l7-7M152 119l7-7M159 119l7-7M166 119l7-7" style="fill:none" transform="matrix(.84116 0 0 .84116 -4.286 55.714)"/></g><g style="font-size:12px;font-style:normal;font-weight:400;fill:none;stroke:navy;stroke-width:2;stroke-linecap:square;stroke-linejoin:bevel;stroke-opacity:1;font-family:Helvetica"><path d="M115 225h60M117 232h56M117 239l7-7M124 239l7-7M131 239l7-7M138 239l7-7M145 239l7-7M152 239l7-7M159 239l7-7M166 239l7-7" style="fill:none" transform="matrix(.84116 0 0 .84116 -4.286 55.714)"/></g><g style="font-size:12px;font-style:normal;font-weight:400;fill:none;stroke:navy;stroke-width:2;stroke-linecap:square;stroke-linejoin:bevel;stroke-opacity:1;font-family:Helvetica"><path d="M205 145v12M205 157l7 3M212 160l-14 6M198 166l14 6M212 172l-14 6M198 178l14 6M212 184l-14 6M198 190l7 3M205 193v12" style="fill:none" transform="matrix(.84116 0 0 .84116 -4.286 55.714)"/></g><g style="font-size:12px;font-style:normal;font-weight:400;fill:none;stroke:navy;stroke-width:2;stroke-linecap:square;stroke-linejoin:bevel;stroke-opacity:1;font-family:Helvetica"><path d="M15 165h60M17 172h56M17 179l7-7M24 179l7-7M31 179l7-7M38 179l7-7M45 179l7-7M52 179l7-7M59 179l7-7M66 179l7-7" style="fill:none" transform="matrix(.84116 0 0 .84116 -4.286 55.714)"/></g><g style="font-size:12px;font-style:normal;font-weight:400;fill:none;stroke:navy;stroke-width:2;stroke-linecap:square;stroke-linejoin:bevel;stroke-opacity:1;font-family:Helvetica"><path d="M455 105h60M457 112h56M457 119l7-7M464 119l7-7M471 119l7-7M478 119l7-7M485 119l7-7M492 119l7-7M499 119l7-7M506 119l7-7" style="fill:none" transform="matrix(.84116 0 0 .84116 -4.286 55.714)"/></g><g style="font-size:12px;font-style:normal;font-weight:400;fill:none;stroke:navy;stroke-width:2;stroke-linecap:square;stroke-linejoin:bevel;stroke-opacity:1;font-family:Helvetica"><path d="M455 225h60M457 232h56M457 239l7-7M464 239l7-7M471 239l7-7M478 239l7-7M485 239l7-7M492 239l7-7M499 239l7-7M506 239l7-7" style="fill:none" transform="matrix(.84116 0 0 .84116 -4.286 55.714)"/></g><g style="font-size:12px;font-style:normal;font-weight:400;fill:none;stroke:navy;stroke-width:2;stroke-linecap:square;stroke-linejoin:bevel;stroke-opacity:1;font-family:Helvetica"><path d="M545 145v12M545 157l7 3M552 160l-14 6M538 166l14 6M552 172l-14 6M538 178l14 6M552 184l-14 6M538 190l7 3M545 193v12" style="fill:none" transform="matrix(.84116 0 0 .84116 -4.286 55.714)"/></g><g style="font-size:12px;font-style:normal;font-weight:400;fill:none;stroke:navy;stroke-width:2;stroke-linecap:square;stroke-linejoin:bevel;stroke-opacity:1;font-family:Helvetica"><path d="M75 165v60M75 105v60M75 225h40M75 105h40M175 225h30M175 105h30M205 205v20M205 105v40M205 225h60M205 105h60M325 225h30M325 105h30M355 225h20M355 205v20M355 105h20M355 105v40M515 225h30M545 225h20M545 205v20M515 105h30M545 105h20M545 105v40" style="fill:none" transform="matrix(.84116 0 0 .84116 -4.286 55.714)"/></g><g style="font-size:12px;font-style:normal;font-weight:400;fill:navy;fill-opacity:1;stroke:none;font-family:Helvetica"><path d="M263 103h4v4h-4z" style="fill-rule:evenodd" transform="matrix(.84116 0 0 .84116 -4.286 55.714)" vector-effect="non-scaling-stroke"/></g><g style="font-size:12px;font-style:normal;font-weight:400;fill:navy;fill-opacity:1;stroke:none;font-family:Helvetica"><path d="M323 103h4v4h-4z" style="fill-rule:evenodd" transform="matrix(.84116 0 0 .84116 -4.286 55.714)" vector-effect="non-scaling-stroke"/></g><g style="font-size:12px;font-style:normal;font-weight:400;fill:navy;fill-opacity:1;stroke:none;font-family:Helvetica"><path d="M263 223h4v4h-4z" style="fill-rule:evenodd" transform="matrix(.84116 0 0 .84116 -4.286 55.714)" vector-effect="non-scaling-stroke"/></g><g style="font-size:12px;font-style:normal;font-weight:400;fill:navy;fill-opacity:1;stroke:none;font-family:Helvetica"><path d="M323 223h4v4h-4z" style="fill-rule:evenodd" transform="matrix(.84116 0 0 .84116 -4.286 55.714)" vector-effect="non-scaling-stroke"/></g><g style="font-size:12px;font-style:normal;font-weight:400;fill:navy;fill-opacity:1;stroke:none;font-family:Helvetica"><path d="M353 143h4v4h-4z" style="fill-rule:evenodd" transform="matrix(.84116 0 0 .84116 -4.286 55.714)" vector-effect="non-scaling-stroke"/></g><g style="font-size:12px;font-style:normal;font-weight:400;fill:navy;fill-opacity:1;stroke:none;font-family:Helvetica"><path d="M353 203h4v4h-4z" style="fill-rule:evenodd" transform="matrix(.84116 0 0 .84116 -4.286 55.714)" vector-effect="non-scaling-stroke"/></g><g style="font-size:12px;font-style:normal;font-weight:400;fill:navy;fill-opacity:1;stroke:none;font-family:Helvetica"><path d="M113 103h4v4h-4z" style="fill-rule:evenodd" transform="matrix(.84116 0 0 .84116 -4.286 55.714)" vector-effect="non-scaling-stroke"/></g><g style="font-size:12px;font-style:normal;font-weight:400;fill:navy;fill-opacity:1;stroke:none;font-family:Helvetica"><path d="M173 103h4v4h-4z" style="fill-rule:evenodd" transform="matrix(.84116 0 0 .84116 -4.286 55.714)" vector-effect="non-scaling-stroke"/></g><g style="font-size:12px;font-style:normal;font-weight:400;fill:navy;fill-opacity:1;stroke:none;font-family:Helvetica"><path d="M113 223h4v4h-4z" style="fill-rule:evenodd" transform="matrix(.84116 0 0 .84116 -4.286 55.714)" vector-effect="non-scaling-stroke"/></g><g style="font-size:12px;font-style:normal;font-weight:400;fill:navy;fill-opacity:1;stroke:none;font-family:Helvetica"><path d="M173 223h4v4h-4z" style="fill-rule:evenodd" transform="matrix(.84116 0 0 .84116 -4.286 55.714)" vector-effect="non-scaling-stroke"/></g><g style="font-size:12px;font-style:normal;font-weight:400;fill:navy;fill-opacity:1;stroke:none;font-family:Helvetica"><path d="M203 143h4v4h-4z" style="fill-rule:evenodd" transform="matrix(.84116 0 0 .84116 -4.286 55.714)" vector-effect="non-scaling-stroke"/></g><g style="font-size:12px;font-style:normal;font-weight:400;fill:navy;fill-opacity:1;stroke:none;font-family:Helvetica"><path d="M203 203h4v4h-4z" style="fill-rule:evenodd" transform="matrix(.84116 0 0 .84116 -4.286 55.714)" vector-effect="non-scaling-stroke"/></g><path d="M19 165a4 4 0 1 1-8 0 4 4 0 0 1 8 0" style="font-size:12px;font-style:normal;font-weight:400;fill:none;stroke:red;stroke-width:1;stroke-linecap:square;stroke-linejoin:bevel;stroke-opacity:1;font-family:Helvetica" transform="matrix(.84116 0 0 .84116 -4.286 55.714)"/><g style="font-size:12px;font-style:normal;font-weight:400;fill:navy;fill-opacity:1;stroke:navy;stroke-width:1;stroke-linecap:square;stroke-linejoin:bevel;stroke-opacity:1;font-family:Helvetica"><path d="M78 165a3 3 0 1 1-6 0 3 3 0 0 1 6 0" style="fill-rule:evenodd" transform="matrix(.84116 0 0 .84116 -4.286 55.714)"/></g><g style="font-size:12px;font-style:normal;font-weight:400;fill:navy;fill-opacity:1;stroke:navy;stroke-width:1;stroke-linecap:square;stroke-linejoin:bevel;stroke-opacity:1;font-family:Helvetica"><path d="M208 225a3 3 0 1 1-6 0 3 3 0 0 1 6 0" style="fill-rule:evenodd" transform="matrix(.84116 0 0 .84116 -4.286 55.714)"/></g><g style="font-size:12px;font-style:normal;font-weight:400;fill:navy;fill-opacity:1;stroke:navy;stroke-width:1;stroke-linecap:square;stroke-linejoin:bevel;stroke-opacity:1;font-family:Helvetica"><path d="M208 105a3 3 0 1 1-6 0 3 3 0 0 1 6 0" style="fill-rule:evenodd" transform="matrix(.84116 0 0 .84116 -4.286 55.714)"/></g><g style="font-size:12px;font-style:normal;font-weight:400;fill:navy;fill-opacity:1;stroke:navy;stroke-width:1;stroke-linecap:square;stroke-linejoin:bevel;stroke-opacity:1;font-family:Helvetica"><path d="M358 225a3 3 0 1 1-6 0 3 3 0 0 1 6 0" style="fill-rule:evenodd" transform="matrix(.84116 0 0 .84116 -4.286 55.714)"/></g><g style="font-size:12px;font-style:normal;font-weight:400;fill:navy;fill-opacity:1;stroke:navy;stroke-width:1;stroke-linecap:square;stroke-linejoin:bevel;stroke-opacity:1;font-family:Helvetica"><path d="M358 105a3 3 0 1 1-6 0 3 3 0 0 1 6 0" style="fill-rule:evenodd" transform="matrix(.84116 0 0 .84116 -4.286 55.714)"/></g><g style="font-size:12px;font-style:normal;font-weight:400;fill:none;stroke:red;stroke-width:1;stroke-linecap:square;stroke-linejoin:bevel;stroke-opacity:1;font-family:Helvetica"><path stroke-width=".84116" d="M314.513 244.975a3.365 3.365 0 1 1-6.73 0 3.365 3.365 0 0 1 6.73 0M314.513 144.036a3.365 3.365 0 1 1-6.73 0 3.365 3.365 0 0 1 6.73 0M381.806 144.036a3.365 3.365 0 1 1-6.73 0 3.365 3.365 0 0 1 6.73 0"/></g><g style="font-size:12px;font-style:normal;font-weight:400;fill:navy;fill-opacity:1;stroke:none;font-family:Helvetica"><path d="M513 103h4v4h-4z" style="fill-rule:evenodd" transform="matrix(.84116 0 0 .84116 -4.286 55.714)" vector-effect="non-scaling-stroke"/></g><path d="M459 225a4 4 0 1 1-8 0 4 4 0 0 1 8 0" style="font-size:12px;font-style:normal;font-weight:400;fill:none;stroke:red;stroke-width:1;stroke-linecap:square;stroke-linejoin:bevel;stroke-opacity:1;font-family:Helvetica" transform="matrix(.84116 0 0 .84116 -4.286 55.714)"/><g style="font-size:12px;font-style:normal;font-weight:400;fill:navy;fill-opacity:1;stroke:none;font-family:Helvetica"><path d="M513 223h4v4h-4z" style="fill-rule:evenodd" transform="matrix(.84116 0 0 .84116 -4.286 55.714)" vector-effect="non-scaling-stroke"/></g><g style="font-size:12px;font-style:normal;font-weight:400;fill:navy;fill-opacity:1;stroke:none;font-family:Helvetica"><path d="M543 143h4v4h-4z" style="fill-rule:evenodd" transform="matrix(.84116 0 0 .84116 -4.286 55.714)" vector-effect="non-scaling-stroke"/></g><g style="font-size:12px;font-style:normal;font-weight:400;fill:navy;fill-opacity:1;stroke:none;font-family:Helvetica"><path d="M543 203h4v4h-4z" style="fill-rule:evenodd" transform="matrix(.84116 0 0 .84116 -4.286 55.714)" vector-effect="non-scaling-stroke"/></g><path d="M569 225a4 4 0 1 1-8 0 4 4 0 0 1 8 0" style="font-size:12px;font-style:normal;font-weight:400;fill:none;stroke:red;stroke-width:1;stroke-linecap:square;stroke-linejoin:bevel;stroke-opacity:1;font-family:Helvetica" transform="matrix(.84116 0 0 .84116 -4.286 55.714)"/><g style="font-size:12px;font-style:normal;font-weight:400;fill:navy;fill-opacity:1;stroke:navy;stroke-width:1;stroke-linecap:square;stroke-linejoin:bevel;stroke-opacity:1;font-family:Helvetica"><path d="M548 225a3 3 0 1 1-6 0 3 3 0 0 1 6 0" style="fill-rule:evenodd" transform="matrix(.84116 0 0 .84116 -4.286 55.714)"/></g><path d="M569 105a4 4 0 1 1-8 0 4 4 0 0 1 8 0" style="font-size:12px;font-style:normal;font-weight:400;fill:none;stroke:red;stroke-width:1;stroke-linecap:square;stroke-linejoin:bevel;stroke-opacity:1;font-family:Helvetica" transform="matrix(.84116 0 0 .84116 -4.286 55.714)"/><g style="font-size:12px;font-style:normal;font-weight:400;fill:navy;fill-opacity:1;stroke:navy;stroke-width:1;stroke-linecap:square;stroke-linejoin:bevel;stroke-opacity:1;font-family:Helvetica"><path d="M548 105a3 3 0 1 1-6 0 3 3 0 0 1 6 0" style="fill-rule:evenodd" transform="matrix(.84116 0 0 .84116 -4.286 55.714)"/></g><g style="font-size:12px;font-style:normal;font-weight:400;fill:silver;fill-opacity:1;stroke:#000;stroke-width:1;stroke-linecap:square;stroke-linejoin:bevel;stroke-opacity:1;font-family:Helvetica"><path d="M395 160a5 5 0 1 1-10.001-.001A5 5 0 0 1 395 160" style="fill-rule:evenodd" transform="matrix(.84116 0 0 .84116 -4.286 55.714)" vector-effect="non-scaling-stroke"/></g><g style="font-size:12px;font-style:normal;font-weight:400;fill:silver;fill-opacity:1;stroke:#000;stroke-width:1;stroke-linecap:square;stroke-linejoin:bevel;stroke-opacity:1;font-family:Helvetica"><path d="M415 160a5 5 0 1 1-10.001-.001A5 5 0 0 1 415 160" style="fill-rule:evenodd" transform="matrix(.84116 0 0 .84116 -4.286 55.714)" vector-effect="non-scaling-stroke"/></g><g style="font-size:12px;font-style:normal;font-weight:400;fill:silver;fill-opacity:1;stroke:#000;stroke-width:1;stroke-linecap:square;stroke-linejoin:bevel;stroke-opacity:1;font-family:Helvetica"><path d="M435 160a5 5 0 1 1-10.001-.001A5 5 0 0 1 435 160" style="fill-rule:evenodd" transform="matrix(.84116 0 0 .84116 -4.286 55.714)" vector-effect="non-scaling-stroke"/></g></g></svg>