<svg xmlns="http://www.w3.org/2000/svg" width="500" height="380" version="1.2"><desc>Generated with Qt</desc><g font-size="12" font-weight="400" style="font-size:12px;font-style:normal;font-weight:400;fill:none;stroke:navy;stroke-width:2;stroke-linecap:square;stroke-linejoin:bevel;stroke-opacity:1;font-family:Helvetica"><path d="M15 79h60M17 86h56M17 93l7-7M24 93l7-7M31 93l7-7M38 93l7-7M45 93l7-7M52 93l7-7M59 93l7-7M66 93l7-7" style="fill:none" transform="matrix(1.96628 0 0 1.96628 48.224 15.221)"/></g><g font-size="12" font-weight="400" style="font-size:12px;font-style:normal;font-weight:400;fill:none;stroke:navy;stroke-width:2;stroke-linecap:square;stroke-linejoin:bevel;stroke-opacity:1;font-family:Helvetica"><path d="M115 139h60M117 146h56M117 153l7-7M124 153l7-7M131 153l7-7M138 153l7-7M145 153l7-7M152 153l7-7M159 153l7-7M166 153l7-7" style="fill:none" transform="matrix(1.96628 0 0 1.96628 48.224 15.221)"/></g><g font-size="12" font-weight="400" style="font-size:12px;font-style:normal;font-weight:400;fill:none;stroke:navy;stroke-width:2;stroke-linecap:square;stroke-linejoin:bevel;stroke-opacity:1;font-family:Helvetica"><path d="M115 19h60M117 26h56M117 33l7-7M124 33l7-7M131 33l7-7M138 33l7-7M145 33l7-7M152 33l7-7M159 33l7-7M166 33l7-7" style="fill:none" transform="matrix(1.96628 0 0 1.96628 48.224 15.221)"/></g><g font-size="12" font-weight="400" style="font-size:12px;font-style:normal;font-weight:400;fill:none;stroke:navy;stroke-width:2;stroke-linecap:square;stroke-linejoin:bevel;stroke-opacity:1;font-family:Helvetica"><path d="M75 79v60M75 19v60M75 139h40M75 19h40" style="fill:none" transform="matrix(1.96628 0 0 1.96628 48.224 15.221)"/></g><path d="M19 79a4 4 0 1 1-8 0 4 4 0 0 1 8 0" font-size="12" font-weight="400" style="font-size:12px;font-style:normal;font-weight:400;fill:none;stroke:red;stroke-width:1;stroke-linecap:square;stroke-linejoin:bevel;stroke-opacity:1;font-family:Helvetica" transform="matrix(1.96628 0 0 1.96628 48.224 15.221)"/><g font-size="12" font-weight="400" style="font-size:12px;font-style:normal;font-weight:400;fill:navy;fill-opacity:1;stroke:navy;stroke-width:1;stroke-linecap:square;stroke-linejoin:bevel;stroke-opacity:1;font-family:Helvetica"><path d="M78 79a3 3 0 1 1-6 0 3 3 0 0 1 6 0" style="fill-rule:evenodd" transform="matrix(1.96628 0 0 1.96628 48.224 15.221)"/></g><g font-size="12" font-weight="400" style="font-size:12px;font-style:normal;font-weight:400;fill:navy;fill-opacity:1;stroke:none;font-family:Helvetica"><path d="M113 17h4v4h-4z" style="fill-rule:evenodd" transform="matrix(1.96628 0 0 1.96628 48.224 15.221)" vector-effect="non-scaling-stroke"/></g><g font-size="12" font-weight="400" style="font-size:12px;font-style:normal;font-weight:400;fill:navy;fill-opacity:1;stroke:none;font-family:Helvetica"><path d="M113 137h4v4h-4z" style="fill-rule:evenodd" transform="matrix(1.96628 0 0 1.96628 48.224 15.221)" vector-effect="non-scaling-stroke"/></g><g font-size="12" font-weight="400" style="font-size:12px;font-style:normal;font-weight:400;fill:none;stroke:red;stroke-width:1;stroke-linecap:square;stroke-linejoin:bevel;stroke-opacity:1;font-family:Helvetica"><path stroke-width="1.96628" d="M400.188 288.534a7.865 7.865 0 1 1-15.731 0 7.865 7.865 0 0 1 15.731 0M400.188 52.58a7.865 7.865 0 1 1-15.73 0 7.865 7.865 0 0 1 15.73 0"/></g></svg>