<svg xmlns="http://www.w3.org/2000/svg" width="500" height="380" version="1.2"><desc>Generated with Qt</desc><g font-size="12" font-weight="400" style="font-size:12px;font-style:normal;font-weight:400;fill:none;stroke:navy;stroke-width:2;stroke-linecap:square;stroke-linejoin:bevel;stroke-opacity:1;font-family:Helvetica"><path d="M75 79v60M75 19v60M75 139h40M75 19h40" style="fill:none" transform="matrix(1.96628 0 0 1.96628 48.224 15.221)"/></g><path d="M19 79a4 4 0 1 1-8 0 4 4 0 0 1 8 0" font-size="12" font-weight="400" style="font-size:12px;font-style:normal;font-weight:400;fill:none;stroke:red;stroke-width:1;stroke-linecap:square;stroke-linejoin:bevel;stroke-opacity:1;font-family:Helvetica" transform="matrix(1.96628 0 0 1.96628 48.224 15.221)"/><g font-size="12" font-weight="400" style="font-size:12px;font-style:normal;font-weight:400;fill:navy;fill-opacity:1;stroke:navy;stroke-width:1;stroke-linecap:square;stroke-linejoin:bevel;stroke-opacity:1;font-family:Helvetica"><path d="M78 79a3 3 0 1 1-6 0 3 3 0 0 1 6 0" style="fill-rule:evenodd" transform="matrix(1.96628 0 0 1.96628 48.224 15.221)"/></g><g font-size="12" font-weight="400" style="font-size:12px;font-style:normal;font-weight:400;fill:navy;fill-opacity:1;stroke:none;font-family:Helvetica"><path d="M113 17h4v4h-4z" style="fill-rule:evenodd" transform="matrix(1.96628 0 0 1.96628 48.224 15.221)" vector-effect="non-scaling-stroke"/></g><g font-size="12" font-weight="400" style="font-size:12px;font-style:normal;font-weight:400;fill:navy;fill-opacity:1;stroke:none;font-family:Helvetica"><path d="M113 137h4v4h-4z" style="fill-rule:evenodd" transform="matrix(1.96628 0 0 1.96628 48.224 15.221)" vector-effect="non-scaling-stroke"/></g><g font-size="12" font-weight="400" style="font-size:12px;font-style:normal;font-weight:400;fill:none;stroke:red;stroke-width:1;stroke-linecap:square;stroke-linejoin:bevel;stroke-opacity:1;font-family:Helvetica"><path stroke-width="1.96628" d="M400.188 288.534a7.865 7.865 0 1 1-15.731 0 7.865 7.865 0 0 1 15.731 0M400.188 52.58a7.865 7.865 0 1 1-15.73 0 7.865 7.865 0 0 1 15.73 0"/></g><path d="m270.855 288.47 23.855.021M369.037 288.708l22.703-.007" style="fill:none;stroke:navy;stroke-width:3.9000001;stroke-linecap:square;stroke-linejoin:bevel;stroke-miterlimit:10;stroke-dasharray:none;stroke-opacity:1"/><path d="m306.334 270.273 71.43.518" style="fill:none;stroke:navy;stroke-width:3.9000001;stroke-linecap:square;stroke-linejoin:bevel;stroke-miterlimit:10;stroke-dasharray:none;stroke-opacity:1;image-rendering:auto"/><path d="m288.303 307.057 68.625-.177M305.153 271.027l-19.544 35.328M377.025 273.413l-18.851 32.738M269.74 52.596l23.855.02M367.922 52.833l22.703-.007" style="fill:none;stroke:navy;stroke-width:3.9000001;stroke-linecap:square;stroke-linejoin:bevel;stroke-miterlimit:10;stroke-dasharray:none;stroke-opacity:1"/><path d="m305.219 34.399 71.43.517" style="fill:none;stroke:navy;stroke-width:3.9000001;stroke-linecap:square;stroke-linejoin:bevel;stroke-miterlimit:10;stroke-dasharray:none;stroke-opacity:1;image-rendering:auto"/><path d="m287.187 71.183 68.626-.178M304.038 35.152l-19.544 35.329M375.91 37.538l-18.852 32.739M78.638 170.546l23.856.02M176.82 170.783l22.703-.007" style="fill:none;stroke:navy;stroke-width:3.9000001;stroke-linecap:square;stroke-linejoin:bevel;stroke-miterlimit:10;stroke-dasharray:none;stroke-opacity:1"/><path d="m114.118 152.349 71.43.517" style="fill:none;stroke:navy;stroke-width:3.9000001;stroke-linecap:square;stroke-linejoin:bevel;stroke-miterlimit:10;stroke-dasharray:none;stroke-opacity:1;image-rendering:auto"/><path d="m96.086 189.133 68.626-.178M112.937 153.102l-19.544 35.329M184.808 155.488l-18.85 32.74" style="fill:none;stroke:navy;stroke-width:3.9000001;stroke-linecap:square;stroke-linejoin:bevel;stroke-miterlimit:10;stroke-dasharray:none;stroke-opacity:1"/></svg>