<svg xmlns="http://www.w3.org/2000/svg" width="500" height="380" version="1.2"><desc>Generated with Qt</desc><g font-size="12" font-weight="400" style="font-size:12px;font-style:normal;font-weight:400;fill:none;stroke:navy;stroke-width:2;stroke-linecap:square;stroke-linejoin:bevel;stroke-opacity:1;font-family:Helvetica"><path d="M45 79h60M47 86h56M47 93l7-7M54 93l7-7M61 93l7-7M68 93l7-7M75 93l7-7M82 93l7-7M89 93l7-7M96 93l7-7" style="fill:none" transform="matrix(.7339 0 0 .7339 .996 121.184)"/></g><g font-size="12" font-weight="400" style="font-size:12px;font-style:normal;font-weight:400;fill:none;stroke:navy;stroke-width:2;stroke-linecap:square;stroke-linejoin:bevel;stroke-opacity:1;font-family:Helvetica"><path d="M145 19h60M147 26h56M147 33l7-7M154 33l7-7M161 33l7-7M168 33l7-7M175 33l7-7M182 33l7-7M189 33l7-7M196 33l7-7" style="fill:none" transform="matrix(.7339 0 0 .7339 .996 121.184)"/></g><g font-size="12" font-weight="400" style="font-size:12px;font-style:normal;font-weight:400;fill:none;stroke:navy;stroke-width:2;stroke-linecap:square;stroke-linejoin:bevel;stroke-opacity:1;font-family:Helvetica"><path d="M145 139h60M147 146h56M147 153l7-7M154 153l7-7M161 153l7-7M168 153l7-7M175 153l7-7M182 153l7-7M189 153l7-7M196 153l7-7" style="fill:none" transform="matrix(.7339 0 0 .7339 .996 121.184)"/></g><g font-size="12" font-weight="400" style="font-size:12px;font-style:normal;font-weight:400;fill:none;stroke:navy;stroke-width:2;stroke-linecap:square;stroke-linejoin:bevel;stroke-opacity:1;font-family:Helvetica"><path d="M245 139h60M247 146h56M247 153l7-7M254 153l7-7M261 153l7-7M268 153l7-7M275 153l7-7M282 153l7-7M289 153l7-7M296 153l7-7" style="fill:none" transform="matrix(.7339 0 0 .7339 .996 121.184)"/></g><g font-size="12" font-weight="400" style="font-size:12px;font-style:normal;font-weight:400;fill:none;stroke:navy;stroke-width:2;stroke-linecap:square;stroke-linejoin:bevel;stroke-opacity:1;font-family:Helvetica"><path d="M245 19h60M247 26h56M247 33l7-7M254 33l7-7M261 33l7-7M268 33l7-7M275 33l7-7M282 33l7-7M289 33l7-7M296 33l7-7" style="fill:none" transform="matrix(.7339 0 0 .7339 .996 121.184)"/></g><g font-size="12" font-weight="400" style="font-size:12px;font-style:normal;font-weight:400;fill:none;stroke:navy;stroke-width:2;stroke-linecap:square;stroke-linejoin:bevel;stroke-opacity:1;font-family:Helvetica"><path d="M465 79h60M467 86h56M467 93l7-7M474 93l7-7M481 93l7-7M488 93l7-7M495 93l7-7M502 93l7-7M509 93l7-7M516 93l7-7" style="fill:none" transform="matrix(.7339 0 0 .7339 .996 121.184)"/></g><g font-size="12" font-weight="400" style="font-size:12px;font-style:normal;font-weight:400;fill:none;stroke:navy;stroke-width:2;stroke-linecap:square;stroke-linejoin:bevel;stroke-opacity:1;font-family:Helvetica"><path d="M565 19h60M567 26h56M567 33l7-7M574 33l7-7M581 33l7-7M588 33l7-7M595 33l7-7M602 33l7-7M609 33l7-7M616 33l7-7" style="fill:none" transform="matrix(.7339 0 0 .7339 .996 121.184)"/></g><g font-size="12" font-weight="400" style="font-size:12px;font-style:normal;font-weight:400;fill:none;stroke:navy;stroke-width:2;stroke-linecap:square;stroke-linejoin:bevel;stroke-opacity:1;font-family:Helvetica"><path d="M565 139h60M567 146h56M567 153l7-7M574 153l7-7M581 153l7-7M588 153l7-7M595 153l7-7M602 153l7-7M609 153l7-7M616 153l7-7" style="fill:none" transform="matrix(.7339 0 0 .7339 .996 121.184)"/></g><g font-size="12" font-weight="400" style="font-size:12px;font-style:normal;font-weight:400;fill:none;stroke:navy;stroke-width:2;stroke-linecap:square;stroke-linejoin:bevel;stroke-opacity:1;font-family:Helvetica"><path d="M235 59v12M235 71l7 3M242 74l-14 6M228 80l14 6M242 86l-14 6M228 92l14 6M242 98l-14 6M228 104l7 3M235 107v12" style="fill:none" transform="matrix(.7339 0 0 .7339 .996 121.184)"/></g><g font-size="12" font-weight="400" style="font-size:12px;font-style:normal;font-weight:400;fill:none;stroke:navy;stroke-width:2;stroke-linecap:square;stroke-linejoin:bevel;stroke-opacity:1;font-family:Helvetica"><path d="M655 59v12M655 71l7 3M662 74l-14 6M648 80l14 6M662 86l-14 6M648 92l14 6M662 98l-14 6M648 104l7 3M655 107v12" style="fill:none" transform="matrix(.7339 0 0 .7339 .996 121.184)"/></g><g font-size="12" font-weight="400" style="font-size:12px;font-style:normal;font-weight:400;fill:none;stroke:navy;stroke-width:2;stroke-linecap:square;stroke-linejoin:bevel;stroke-opacity:1;font-family:Helvetica"><path d="M15 79h30M105 139h40M105 19h40M105 79v60M105 19v60M205 139h30M205 19h30M235 119v20M235 19v40M525 139h40M525 19h40M525 19v60M625 139h30M625 19h30M655 119v20M655 19v40M355 79h20M355 19v60M305 19h50M235 19h10M305 139h30M235 139h10M525 79v60" style="fill:none" transform="matrix(.7339 0 0 .7339 .996 121.184)"/></g><g font-size="12" font-weight="400" style="font-size:12px;font-style:normal;font-weight:400;fill:navy;fill-opacity:1;stroke:none;font-family:Helvetica"><path d="M43 77h4v4h-4z" style="fill-rule:evenodd" transform="matrix(.7339 0 0 .7339 .996 121.184)" vector-effect="non-scaling-stroke"/></g><g font-size="12" font-weight="400" style="font-size:12px;font-style:normal;font-weight:400;fill:navy;fill-opacity:1;stroke:navy;stroke-width:1;stroke-linecap:square;stroke-linejoin:bevel;stroke-opacity:1;font-family:Helvetica"><path d="M108 79a3 3 0 1 1-6 0 3 3 0 0 1 6 0" style="fill-rule:evenodd" transform="matrix(.7339 0 0 .7339 .996 121.184)"/></g><g font-size="12" font-weight="400" style="font-size:12px;font-style:normal;font-weight:400;fill:navy;fill-opacity:1;stroke:none;font-family:Helvetica"><path d="M143 17h4v4h-4z" style="fill-rule:evenodd" transform="matrix(.7339 0 0 .7339 .996 121.184)" vector-effect="non-scaling-stroke"/></g><g font-size="12" font-weight="400" style="font-size:12px;font-style:normal;font-weight:400;fill:navy;fill-opacity:1;stroke:none;font-family:Helvetica"><path d="M203 17h4v4h-4z" style="fill-rule:evenodd" transform="matrix(.7339 0 0 .7339 .996 121.184)" vector-effect="non-scaling-stroke"/></g><g font-size="12" font-weight="400" style="font-size:12px;font-style:normal;font-weight:400;fill:navy;fill-opacity:1;stroke:none;font-family:Helvetica"><path d="M143 137h4v4h-4z" style="fill-rule:evenodd" transform="matrix(.7339 0 0 .7339 .996 121.184)" vector-effect="non-scaling-stroke"/></g><g font-size="12" font-weight="400" style="font-size:12px;font-style:normal;font-weight:400;fill:navy;fill-opacity:1;stroke:none;font-family:Helvetica"><path d="M203 137h4v4h-4z" style="fill-rule:evenodd" transform="matrix(.7339 0 0 .7339 .996 121.184)" vector-effect="non-scaling-stroke"/></g><g font-size="12" font-weight="400" style="font-size:12px;font-style:normal;font-weight:400;fill:navy;fill-opacity:1;stroke:none;font-family:Helvetica"><path d="M243 137h4v4h-4z" style="fill-rule:evenodd" transform="matrix(.7339 0 0 .7339 .996 121.184)" vector-effect="non-scaling-stroke"/></g><g font-size="12" font-weight="400" style="font-size:12px;font-style:normal;font-weight:400;fill:navy;fill-opacity:1;stroke:none;font-family:Helvetica"><path d="M303 137h4v4h-4z" style="fill-rule:evenodd" transform="matrix(.7339 0 0 .7339 .996 121.184)" vector-effect="non-scaling-stroke"/></g><g font-size="12" font-weight="400" style="font-size:12px;font-style:normal;font-weight:400;fill:navy;fill-opacity:1;stroke:none;font-family:Helvetica"><path d="M243 17h4v4h-4z" style="fill-rule:evenodd" transform="matrix(.7339 0 0 .7339 .996 121.184)" vector-effect="non-scaling-stroke"/></g><g font-size="12" font-weight="400" style="font-size:12px;font-style:normal;font-weight:400;fill:navy;fill-opacity:1;stroke:none;font-family:Helvetica"><path d="M303 17h4v4h-4z" style="fill-rule:evenodd" transform="matrix(.7339 0 0 .7339 .996 121.184)" vector-effect="non-scaling-stroke"/></g><path d="M469 79a4 4 0 1 1-8 0 4 4 0 0 1 8 0" font-size="12" font-weight="400" style="font-size:12px;font-style:normal;font-weight:400;fill:none;stroke:red;stroke-width:1;stroke-linecap:square;stroke-linejoin:bevel;stroke-opacity:1;font-family:Helvetica" transform="matrix(.7339 0 0 .7339 .996 121.184)"/><g font-size="12" font-weight="400" style="font-size:12px;font-style:normal;font-weight:400;fill:navy;fill-opacity:1;stroke:navy;stroke-width:1;stroke-linecap:square;stroke-linejoin:bevel;stroke-opacity:1;font-family:Helvetica"><path d="M528 79a3 3 0 1 1-6 0 3 3 0 0 1 6 0" style="fill-rule:evenodd" transform="matrix(.7339 0 0 .7339 .996 121.184)"/></g><g font-size="12" font-weight="400" style="font-size:12px;font-style:normal;font-weight:400;fill:navy;fill-opacity:1;stroke:none;font-family:Helvetica"><path d="M563 17h4v4h-4z" style="fill-rule:evenodd" transform="matrix(.7339 0 0 .7339 .996 121.184)" vector-effect="non-scaling-stroke"/></g><g font-size="12" font-weight="400" style="font-size:12px;font-style:normal;font-weight:400;fill:navy;fill-opacity:1;stroke:none;font-family:Helvetica"><path d="M623 17h4v4h-4z" style="fill-rule:evenodd" transform="matrix(.7339 0 0 .7339 .996 121.184)" vector-effect="non-scaling-stroke"/></g><g font-size="12" font-weight="400" style="font-size:12px;font-style:normal;font-weight:400;fill:navy;fill-opacity:1;stroke:none;font-family:Helvetica"><path d="M563 137h4v4h-4z" style="fill-rule:evenodd" transform="matrix(.7339 0 0 .7339 .996 121.184)" vector-effect="non-scaling-stroke"/></g><g font-size="12" font-weight="400" style="font-size:12px;font-style:normal;font-weight:400;fill:navy;fill-opacity:1;stroke:none;font-family:Helvetica"><path d="M623 137h4v4h-4z" style="fill-rule:evenodd" transform="matrix(.7339 0 0 .7339 .996 121.184)" vector-effect="non-scaling-stroke"/></g><g font-size="12" font-weight="400" style="font-size:12px;font-style:normal;font-weight:400;fill:navy;fill-opacity:1;stroke:none;font-family:Helvetica"><path d="M233 57h4v4h-4z" style="fill-rule:evenodd" transform="matrix(.7339 0 0 .7339 .996 121.184)" vector-effect="non-scaling-stroke"/></g><g font-size="12" font-weight="400" style="font-size:12px;font-style:normal;font-weight:400;fill:navy;fill-opacity:1;stroke:none;font-family:Helvetica"><path d="M233 117h4v4h-4z" style="fill-rule:evenodd" transform="matrix(.7339 0 0 .7339 .996 121.184)" vector-effect="non-scaling-stroke"/></g><g font-size="12" font-weight="400" style="font-size:12px;font-style:normal;font-weight:400;fill:navy;fill-opacity:1;stroke:none;font-family:Helvetica"><path d="M653 57h4v4h-4z" style="fill-rule:evenodd" transform="matrix(.7339 0 0 .7339 .996 121.184)" vector-effect="non-scaling-stroke"/></g><g font-size="12" font-weight="400" style="font-size:12px;font-style:normal;font-weight:400;fill:navy;fill-opacity:1;stroke:none;font-family:Helvetica"><path d="M653 117h4v4h-4z" style="fill-rule:evenodd" transform="matrix(.7339 0 0 .7339 .996 121.184)" vector-effect="non-scaling-stroke"/></g><path d="M19 79a4 4 0 1 1-8 0 4 4 0 0 1 8 0" font-size="12" font-weight="400" style="font-size:12px;font-style:normal;font-weight:400;fill:none;stroke:red;stroke-width:1;stroke-linecap:square;stroke-linejoin:bevel;stroke-opacity:1;font-family:Helvetica" transform="matrix(.7339 0 0 .7339 .996 121.184)"/><g font-size="12" font-weight="400" style="font-size:12px;font-style:normal;font-weight:400;fill:navy;fill-opacity:1;stroke:navy;stroke-width:1;stroke-linecap:square;stroke-linejoin:bevel;stroke-opacity:1;font-family:Helvetica"><path d="M238 139a3 3 0 1 1-6 0 3 3 0 0 1 6 0" style="fill-rule:evenodd" transform="matrix(.7339 0 0 .7339 .996 121.184)"/></g><g font-size="12" font-weight="400" style="font-size:12px;font-style:normal;font-weight:400;fill:navy;fill-opacity:1;stroke:navy;stroke-width:1;stroke-linecap:square;stroke-linejoin:bevel;stroke-opacity:1;font-family:Helvetica"><path d="M238 19a3 3 0 1 1-6 0 3 3 0 0 1 6 0" style="fill-rule:evenodd" transform="matrix(.7339 0 0 .7339 .996 121.184)"/></g><g font-size="12" font-weight="400" style="font-size:12px;font-style:normal;font-weight:400;fill:none;stroke:red;stroke-width:1;stroke-linecap:square;stroke-linejoin:bevel;stroke-opacity:1;font-family:Helvetica"><path stroke-width=".73391" d="M279.147 179.162a2.936 2.936 0 1 1-5.871 0 2.936 2.936 0 0 1 5.871 0M249.79 223.197a2.936 2.936 0 1 1-5.87 0 2.936 2.936 0 0 1 5.87 0"/></g><g font-size="12" font-weight="400" style="font-size:12px;font-style:normal;font-weight:400;fill:silver;fill-opacity:1;stroke:#000;stroke-width:1;stroke-linecap:square;stroke-linejoin:bevel;stroke-opacity:1;font-family:Helvetica"><path d="M405 74a5 5 0 1 1-10 0 5 5 0 0 1 10 0" style="fill-rule:evenodd" transform="matrix(.7339 0 0 .7339 .996 121.184)" vector-effect="non-scaling-stroke"/></g><g font-size="12" font-weight="400" style="font-size:12px;font-style:normal;font-weight:400;fill:silver;fill-opacity:1;stroke:#000;stroke-width:1;stroke-linecap:square;stroke-linejoin:bevel;stroke-opacity:1;font-family:Helvetica"><path d="M425 74a5 5 0 1 1-10 0 5 5 0 0 1 10 0" style="fill-rule:evenodd" transform="matrix(.7339 0 0 .7339 .996 121.184)" vector-effect="non-scaling-stroke"/></g><g font-size="12" font-weight="400" style="font-size:12px;font-style:normal;font-weight:400;fill:silver;fill-opacity:1;stroke:#000;stroke-width:1;stroke-linecap:square;stroke-linejoin:bevel;stroke-opacity:1;font-family:Helvetica"><path d="M445 74a5 5 0 1 1-10 0 5 5 0 0 1 10 0" style="fill-rule:evenodd" transform="matrix(.7339 0 0 .7339 .996 121.184)" vector-effect="non-scaling-stroke"/></g><path d="M15 79h30" style="font-style:normal;font-weight:400;font-size:12px;font-family:Helvetica;fill:none;stroke:navy;stroke-width:2;stroke-linecap:square;stroke-linejoin:bevel;stroke-opacity:1" transform="matrix(.41077 0 0 .7339 475.224 77.153)"/><path d="M15 79h30" style="font-style:normal;font-weight:400;font-size:12px;font-family:Helvetica;fill:none;stroke:navy;stroke-width:2;stroke-linecap:square;stroke-linejoin:bevel;stroke-opacity:1" transform="matrix(.41077 0 0 .7339 475.213 165.205)"/><path d="M19 79a4 4 0 1 1-8 0 4 4 0 0 1 8 0" font-size="12" font-weight="400" style="font-style:normal;font-weight:400;font-size:12px;font-family:Helvetica;fill:none;stroke:red;stroke-width:1;stroke-linecap:square;stroke-linejoin:bevel;stroke-opacity:1" transform="matrix(.7339 0 0 .7339 482.953 76.97)"/><path d="M19 79a4 4 0 1 1-8 0 4 4 0 0 1 8 0" font-size="12" font-weight="400" style="font-style:normal;font-weight:400;font-size:12px;font-family:Helvetica;fill:none;stroke:red;stroke-width:1;stroke-linecap:square;stroke-linejoin:bevel;stroke-opacity:1" transform="matrix(.7339 0 0 .7339 482.953 165.208)"/></svg>