<svg xmlns="http://www.w3.org/2000/svg" width="500" height="380" version="1.2"><desc>Generated with Qt</desc><g font-size="12" font-weight="400" style="font-size:12px;font-style:normal;font-weight:400;fill:none;stroke:navy;stroke-width:2;stroke-linecap:square;stroke-linejoin:bevel;stroke-opacity:1;font-family:Helvetica"><path d="M235 59v12M235 71l7 3M242 74l-14 6M228 80l14 6M242 86l-14 6M228 92l14 6M242 98l-14 6M228 104l7 3M235 107v12" style="fill:none" transform="matrix(.7339 0 0 .7339 .996 121.184)"/></g><g font-size="12" font-weight="400" style="font-size:12px;font-style:normal;font-weight:400;fill:none;stroke:navy;stroke-width:2;stroke-linecap:square;stroke-linejoin:bevel;stroke-opacity:1;font-family:Helvetica"><path d="M655 59v12M655 71l7 3M662 74l-14 6M648 80l14 6M662 86l-14 6M648 92l14 6M662 98l-14 6M648 104l7 3M655 107v12" style="fill:none" transform="matrix(.7339 0 0 .7339 .996 121.184)"/></g><g font-size="12" font-weight="400" style="font-size:12px;font-style:normal;font-weight:400;fill:none;stroke:navy;stroke-width:2;stroke-linecap:square;stroke-linejoin:bevel;stroke-opacity:1;font-family:Helvetica"><path d="M15 79h30M105 139h40M105 19h40M105 79v60M105 19v60M205 139h30M205 19h30M235 119v20M235 19v40M525 139h40M525 19h40M525 19v60M625 139h30M625 19h30M655 119v20M655 19v40M355 79h20M355 19v60M305 19h50M235 19h10M305 139h30M235 139h10M525 79v60" style="fill:none" transform="matrix(.7339 0 0 .7339 .996 121.184)"/></g><g font-size="12" font-weight="400" style="font-size:12px;font-style:normal;font-weight:400;fill:navy;fill-opacity:1;stroke:navy;stroke-width:1;stroke-linecap:square;stroke-linejoin:bevel;stroke-opacity:1;font-family:Helvetica"><path d="M108 79a3 3 0 1 1-6 0 3 3 0 0 1 6 0" style="fill-rule:evenodd" transform="matrix(.7339 0 0 .7339 .996 121.184)"/></g><path d="M469 79a4 4 0 1 1-8 0 4 4 0 0 1 8 0" font-size="12" font-weight="400" style="font-style:normal;font-weight:400;font-size:12px;font-family:Helvetica;fill:none;stroke:red;stroke-width:1;stroke-linecap:square;stroke-linejoin:bevel;stroke-opacity:1" transform="matrix(.7339 0 0 .7339 -8.058 121.028)"/><g font-size="12" font-weight="400" style="font-size:12px;font-style:normal;font-weight:400;fill:navy;fill-opacity:1;stroke:navy;stroke-width:1;stroke-linecap:square;stroke-linejoin:bevel;stroke-opacity:1;font-family:Helvetica"><path d="M528 79a3 3 0 1 1-6 0 3 3 0 0 1 6 0" style="fill-rule:evenodd" transform="matrix(.7339 0 0 .7339 .996 121.184)"/></g><g font-size="12" font-weight="400" style="font-size:12px;font-style:normal;font-weight:400;fill:navy;fill-opacity:1;stroke:none;font-family:Helvetica"><path d="M233 57h4v4h-4z" style="fill-rule:evenodd" transform="matrix(.7339 0 0 .7339 .996 121.184)" vector-effect="non-scaling-stroke"/></g><g font-size="12" font-weight="400" style="font-size:12px;font-style:normal;font-weight:400;fill:navy;fill-opacity:1;stroke:none;font-family:Helvetica"><path d="M233 117h4v4h-4z" style="fill-rule:evenodd" transform="matrix(.7339 0 0 .7339 .996 121.184)" vector-effect="non-scaling-stroke"/></g><g font-size="12" font-weight="400" style="font-size:12px;font-style:normal;font-weight:400;fill:navy;fill-opacity:1;stroke:none;font-family:Helvetica"><path d="M653 57h4v4h-4z" style="fill-rule:evenodd" transform="matrix(.7339 0 0 .7339 .996 121.184)" vector-effect="non-scaling-stroke"/></g><g font-size="12" font-weight="400" style="font-size:12px;font-style:normal;font-weight:400;fill:navy;fill-opacity:1;stroke:none;font-family:Helvetica"><path d="M653 117h4v4h-4z" style="fill-rule:evenodd" transform="matrix(.7339 0 0 .7339 .996 121.184)" vector-effect="non-scaling-stroke"/></g><path d="M19 79a4 4 0 1 1-8 0 4 4 0 0 1 8 0" font-size="12" font-weight="400" style="font-size:12px;font-style:normal;font-weight:400;fill:none;stroke:red;stroke-width:1;stroke-linecap:square;stroke-linejoin:bevel;stroke-opacity:1;font-family:Helvetica" transform="matrix(.7339 0 0 .7339 .996 121.184)"/><g font-size="12" font-weight="400" style="font-size:12px;font-style:normal;font-weight:400;fill:navy;fill-opacity:1;stroke:navy;stroke-width:1;stroke-linecap:square;stroke-linejoin:bevel;stroke-opacity:1;font-family:Helvetica"><path d="M238 139a3 3 0 1 1-6 0 3 3 0 0 1 6 0" style="fill-rule:evenodd" transform="matrix(.7339 0 0 .7339 .996 121.184)"/></g><g font-size="12" font-weight="400" style="font-size:12px;font-style:normal;font-weight:400;fill:navy;fill-opacity:1;stroke:navy;stroke-width:1;stroke-linecap:square;stroke-linejoin:bevel;stroke-opacity:1;font-family:Helvetica"><path d="M238 19a3 3 0 1 1-6 0 3 3 0 0 1 6 0" style="fill-rule:evenodd" transform="matrix(.7339 0 0 .7339 .996 121.184)"/></g><g font-size="12" font-weight="400" style="font-size:12px;font-style:normal;font-weight:400;fill:none;stroke:red;stroke-width:1;stroke-linecap:square;stroke-linejoin:bevel;stroke-opacity:1;font-family:Helvetica"><path stroke-width=".73391" d="M279.147 179.162a2.936 2.936 0 1 1-5.871 0 2.936 2.936 0 0 1 5.871 0M249.79 223.197a2.936 2.936 0 1 1-5.87 0 2.936 2.936 0 0 1 5.87 0"/></g><g font-size="12" font-weight="400" style="font-style:normal;font-weight:400;font-size:12px;font-family:Helvetica;fill:silver;fill-opacity:1;stroke:#000;stroke-width:1;stroke-linecap:square;stroke-linejoin:bevel;stroke-opacity:1"><path d="M405 74a5 5 0 1 1-10 0 5 5 0 0 1 10 0" style="fill-rule:evenodd" transform="matrix(.7339 0 0 .7339 -3.236 121.184)" vector-effect="non-scaling-stroke"/></g><g font-size="12" font-weight="400" style="font-style:normal;font-weight:400;font-size:12px;font-family:Helvetica;fill:silver;fill-opacity:1;stroke:#000;stroke-width:1;stroke-linecap:square;stroke-linejoin:bevel;stroke-opacity:1"><path d="M425 74a5 5 0 1 1-10 0 5 5 0 0 1 10 0" style="fill-rule:evenodd" transform="matrix(.7339 0 0 .7339 -3.236 121.184)" vector-effect="non-scaling-stroke"/></g><g font-size="12" font-weight="400" style="font-style:normal;font-weight:400;font-size:12px;font-family:Helvetica;fill:silver;fill-opacity:1;stroke:#000;stroke-width:1;stroke-linecap:square;stroke-linejoin:bevel;stroke-opacity:1"><path d="M445 74a5 5 0 1 1-10 0 5 5 0 0 1 10 0" style="fill-rule:evenodd" transform="matrix(.7339 0 0 .7339 -3.236 121.184)" vector-effect="non-scaling-stroke"/></g><path d="M15 79h30" style="font-style:normal;font-weight:400;font-size:12px;font-family:Helvetica;fill:none;stroke:navy;stroke-width:2;stroke-linecap:square;stroke-linejoin:bevel;stroke-opacity:1" transform="matrix(.41077 0 0 .7339 475.224 77.153)"/><path d="M15 79h30" style="font-style:normal;font-weight:400;font-size:12px;font-family:Helvetica;fill:none;stroke:navy;stroke-width:2;stroke-linecap:square;stroke-linejoin:bevel;stroke-opacity:1" transform="matrix(.41077 0 0 .7339 475.213 165.205)"/><path d="M19 79a4 4 0 1 1-8 0 4 4 0 0 1 8 0" font-size="12" font-weight="400" style="font-style:normal;font-weight:400;font-size:12px;font-family:Helvetica;fill:none;stroke:red;stroke-width:1;stroke-linecap:square;stroke-linejoin:bevel;stroke-opacity:1" transform="matrix(.7339 0 0 .7339 482.953 76.97)"/><path d="M19 79a4 4 0 1 1-8 0 4 4 0 0 1 8 0" font-size="12" font-weight="400" style="font-style:normal;font-weight:400;font-size:12px;font-family:Helvetica;fill:none;stroke:red;stroke-width:1;stroke-linecap:square;stroke-linejoin:bevel;stroke-opacity:1" transform="matrix(.7339 0 0 .7339 482.953 165.208)"/><g style="font-style:normal;font-weight:400;font-size:12px;font-family:Helvetica;fill:navy;fill-opacity:1;stroke:none;stroke-width:1.82628131;stroke-miterlimit:10;stroke-dasharray:none"><path d="M153 25h4v4h-4z" font-size="12" font-weight="400" style="fill-rule:evenodd;stroke-width:1.82628131;stroke-miterlimit:10;stroke-dasharray:none" transform="matrix(.62495 0 0 .6642 -60.975 161.331)" vector-effect="non-scaling-stroke"/></g><g style="font-style:normal;font-weight:400;font-size:12px;font-family:Helvetica;fill:navy;fill-opacity:1;stroke:none;stroke-width:1.82628131;stroke-miterlimit:10;stroke-dasharray:none"><path d="M213 25h4v4h-4z" font-size="12" font-weight="400" style="fill-rule:evenodd;stroke-width:1.82628131;stroke-miterlimit:10;stroke-dasharray:none" transform="matrix(.62495 0 0 .6642 -60.975 161.331)" vector-effect="non-scaling-stroke"/></g><path d="m46.361 450.596 23.856.02M144.509 450.623l22.702-.007" style="fill:none;stroke:navy;stroke-width:2.9000001;stroke-linecap:square;stroke-linejoin:bevel;stroke-miterlimit:10;stroke-dasharray:none;stroke-opacity:1" transform="matrix(.39357 0 0 .41828 12.917 -9.218)"/><path d="m81.805 432.188 71.43.518" style="fill:none;stroke:navy;stroke-width:2.9000001;stroke-linecap:square;stroke-linejoin:bevel;stroke-miterlimit:10;stroke-dasharray:none;stroke-opacity:1;image-rendering:auto" transform="matrix(.39357 0 0 .41828 12.917 -9.218)"/><path d="m63.115 468.971 69.494-.175" style="fill:none;stroke:navy;stroke-width:2.90035415;stroke-linecap:square;stroke-linejoin:bevel;stroke-miterlimit:10;stroke-dasharray:none;stroke-opacity:1" transform="matrix(.39357 0 0 .41828 12.917 -9.218)"/><path d="M80.851 432.764 61.101 468.4" style="fill:none;stroke:navy;stroke-width:2.9000001;stroke-linecap:square;stroke-linejoin:bevel;stroke-miterlimit:10;stroke-dasharray:none;stroke-opacity:1" transform="matrix(.39357 0 0 .41828 12.917 -9.218)"/><path d="m152.697 434.703-19.159 33.538" style="fill:none;stroke:navy;stroke-width:2.91801143;stroke-linecap:square;stroke-linejoin:bevel;stroke-miterlimit:10;stroke-dasharray:none;stroke-opacity:1" transform="matrix(.39357 0 0 .41828 12.917 -9.218)"/><g style="font-style:normal;font-weight:400;font-size:12px;font-family:Helvetica;fill:navy;fill-opacity:1;stroke:none;stroke-width:1.82628131;stroke-miterlimit:10;stroke-dasharray:none"><path d="M153 25h4v4h-4z" font-size="12" font-weight="400" style="fill-rule:evenodd;stroke-width:1.82628131;stroke-miterlimit:10;stroke-dasharray:none" transform="matrix(.7484 0 0 .76074 -12.224 202.677)" vector-effect="non-scaling-stroke"/></g><g style="font-style:normal;font-weight:400;font-size:12px;font-family:Helvetica;fill:navy;fill-opacity:1;stroke:none;stroke-width:1.82628131;stroke-miterlimit:10;stroke-dasharray:none"><path d="M213 25h4v4h-4z" font-size="12" font-weight="400" style="fill-rule:evenodd;stroke-width:1.82628131;stroke-miterlimit:10;stroke-dasharray:none" transform="matrix(.7484 0 0 .76074 -12.224 202.677)" vector-effect="non-scaling-stroke"/></g><path d="m46.361 450.596 23.856.02M144.509 450.623l22.702-.007" style="fill:none;stroke:navy;stroke-width:2.9000001;stroke-linecap:square;stroke-linejoin:bevel;stroke-miterlimit:10;stroke-dasharray:none;stroke-opacity:1" transform="matrix(.47131 0 0 .47907 76.264 7.34)"/><path d="m81.805 432.188 71.43.518" style="fill:none;stroke:navy;stroke-width:2.9000001;stroke-linecap:square;stroke-linejoin:bevel;stroke-miterlimit:10;stroke-dasharray:none;stroke-opacity:1;image-rendering:auto" transform="matrix(.47131 0 0 .47907 76.264 7.34)"/><path d="m63.115 468.971 69.494-.175" style="fill:none;stroke:navy;stroke-width:2.90035415;stroke-linecap:square;stroke-linejoin:bevel;stroke-miterlimit:10;stroke-dasharray:none;stroke-opacity:1" transform="matrix(.47131 0 0 .47907 76.264 7.34)"/><path d="M80.851 432.764 61.101 468.4" style="fill:none;stroke:navy;stroke-width:2.9000001;stroke-linecap:square;stroke-linejoin:bevel;stroke-miterlimit:10;stroke-dasharray:none;stroke-opacity:1" transform="matrix(.47131 0 0 .47907 76.264 7.34)"/><path d="m152.697 434.703-19.159 33.538" style="fill:none;stroke:navy;stroke-width:2.91801143;stroke-linecap:square;stroke-linejoin:bevel;stroke-miterlimit:10;stroke-dasharray:none;stroke-opacity:1" transform="matrix(.47131 0 0 .47907 76.264 7.34)"/><g style="font-style:normal;font-weight:400;font-size:12px;font-family:Helvetica;fill:navy;fill-opacity:1;stroke:none;stroke-width:1.82628131;stroke-miterlimit:10;stroke-dasharray:none"><path d="M153 25h4v4h-4z" font-size="12" font-weight="400" style="fill-rule:evenodd;stroke-width:1.82628131;stroke-miterlimit:10;stroke-dasharray:none" transform="matrix(.7484 0 0 .76074 -9.95 114.574)" vector-effect="non-scaling-stroke"/></g><g style="font-style:normal;font-weight:400;font-size:12px;font-family:Helvetica;fill:navy;fill-opacity:1;stroke:none;stroke-width:1.82628131;stroke-miterlimit:10;stroke-dasharray:none"><path d="M213 25h4v4h-4z" font-size="12" font-weight="400" style="fill-rule:evenodd;stroke-width:1.82628131;stroke-miterlimit:10;stroke-dasharray:none" transform="matrix(.7484 0 0 .76074 -9.95 114.574)" vector-effect="non-scaling-stroke"/></g><path d="m46.361 450.596 23.856.02M144.509 450.623l22.702-.007" style="fill:none;stroke:navy;stroke-width:2.9000001;stroke-linecap:square;stroke-linejoin:bevel;stroke-miterlimit:10;stroke-dasharray:none;stroke-opacity:1" transform="matrix(.47131 0 0 .47907 78.54 -80.763)"/><path d="m81.805 432.188 71.43.518" style="fill:none;stroke:navy;stroke-width:2.9000001;stroke-linecap:square;stroke-linejoin:bevel;stroke-miterlimit:10;stroke-dasharray:none;stroke-opacity:1;image-rendering:auto" transform="matrix(.47131 0 0 .47907 78.54 -80.763)"/><path d="m63.115 468.971 69.494-.175" style="fill:none;stroke:navy;stroke-width:2.90035415;stroke-linecap:square;stroke-linejoin:bevel;stroke-miterlimit:10;stroke-dasharray:none;stroke-opacity:1" transform="matrix(.47131 0 0 .47907 78.54 -80.763)"/><path d="M80.851 432.764 61.101 468.4" style="fill:none;stroke:navy;stroke-width:2.9000001;stroke-linecap:square;stroke-linejoin:bevel;stroke-miterlimit:10;stroke-dasharray:none;stroke-opacity:1" transform="matrix(.47131 0 0 .47907 78.54 -80.763)"/><path d="m152.697 434.703-19.159 33.538" style="fill:none;stroke:navy;stroke-width:2.91801143;stroke-linecap:square;stroke-linejoin:bevel;stroke-miterlimit:10;stroke-dasharray:none;stroke-opacity:1" transform="matrix(.47131 0 0 .47907 78.54 -80.763)"/><g style="font-style:normal;font-weight:400;font-size:12px;font-family:Helvetica;fill:navy;fill-opacity:1;stroke:none;stroke-width:1.82628131;stroke-miterlimit:10;stroke-dasharray:none"><path d="M153 25h4v4h-4z" font-size="12" font-weight="400" style="fill-rule:evenodd;stroke-width:1.82628131;stroke-miterlimit:10;stroke-dasharray:none" transform="matrix(.7484 0 0 .76074 67 114.58)" vector-effect="non-scaling-stroke"/></g><g style="font-style:normal;font-weight:400;font-size:12px;font-family:Helvetica;fill:navy;fill-opacity:1;stroke:none;stroke-width:1.82628131;stroke-miterlimit:10;stroke-dasharray:none"><path d="M213 25h4v4h-4z" font-size="12" font-weight="400" style="fill-rule:evenodd;stroke-width:1.82628131;stroke-miterlimit:10;stroke-dasharray:none" transform="matrix(.7484 0 0 .76074 67 114.58)" vector-effect="non-scaling-stroke"/></g><path d="m46.361 450.596 23.856.02M144.509 450.623l22.702-.007" style="fill:none;stroke:navy;stroke-width:2.9000001;stroke-linecap:square;stroke-linejoin:bevel;stroke-miterlimit:10;stroke-dasharray:none;stroke-opacity:1" transform="matrix(.47131 0 0 .47907 155.488 -80.756)"/><path d="m81.805 432.188 71.43.518" style="fill:none;stroke:navy;stroke-width:2.9000001;stroke-linecap:square;stroke-linejoin:bevel;stroke-miterlimit:10;stroke-dasharray:none;stroke-opacity:1;image-rendering:auto" transform="matrix(.47131 0 0 .47907 155.488 -80.756)"/><path d="m63.115 468.971 69.494-.175" style="fill:none;stroke:navy;stroke-width:2.90035415;stroke-linecap:square;stroke-linejoin:bevel;stroke-miterlimit:10;stroke-dasharray:none;stroke-opacity:1" transform="matrix(.47131 0 0 .47907 155.488 -80.756)"/><path d="M80.851 432.764 61.101 468.4" style="fill:none;stroke:navy;stroke-width:2.9000001;stroke-linecap:square;stroke-linejoin:bevel;stroke-miterlimit:10;stroke-dasharray:none;stroke-opacity:1" transform="matrix(.47131 0 0 .47907 155.488 -80.756)"/><path d="m152.697 434.703-19.159 33.538" style="fill:none;stroke:navy;stroke-width:2.91801143;stroke-linecap:square;stroke-linejoin:bevel;stroke-miterlimit:10;stroke-dasharray:none;stroke-opacity:1" transform="matrix(.47131 0 0 .47907 155.488 -80.756)"/><g style="font-style:normal;font-weight:400;font-size:12px;font-family:Helvetica;fill:navy;fill-opacity:1;stroke:none;stroke-width:1.82628131;stroke-miterlimit:10;stroke-dasharray:none"><path d="M153 25h4v4h-4z" font-size="12" font-weight="400" style="fill-rule:evenodd;stroke-width:1.82628131;stroke-miterlimit:10;stroke-dasharray:none" transform="matrix(.7484 0 0 .76074 66.626 202.726)" vector-effect="non-scaling-stroke"/></g><g style="font-style:normal;font-weight:400;font-size:12px;font-family:Helvetica;fill:navy;fill-opacity:1;stroke:none;stroke-width:1.82628131;stroke-miterlimit:10;stroke-dasharray:none"><path d="M213 25h4v4h-4z" font-size="12" font-weight="400" style="fill-rule:evenodd;stroke-width:1.82628131;stroke-miterlimit:10;stroke-dasharray:none" transform="matrix(.7484 0 0 .76074 66.626 202.726)" vector-effect="non-scaling-stroke"/></g><path d="m46.361 450.596 23.856.02M144.509 450.623l22.702-.007" style="fill:none;stroke:navy;stroke-width:2.9000001;stroke-linecap:square;stroke-linejoin:bevel;stroke-miterlimit:10;stroke-dasharray:none;stroke-opacity:1" transform="matrix(.47131 0 0 .47907 155.115 7.39)"/><path d="m81.805 432.188 71.43.518" style="fill:none;stroke:navy;stroke-width:2.9000001;stroke-linecap:square;stroke-linejoin:bevel;stroke-miterlimit:10;stroke-dasharray:none;stroke-opacity:1;image-rendering:auto" transform="matrix(.47131 0 0 .47907 155.115 7.39)"/><path d="m63.115 468.971 69.494-.175" style="fill:none;stroke:navy;stroke-width:2.90035415;stroke-linecap:square;stroke-linejoin:bevel;stroke-miterlimit:10;stroke-dasharray:none;stroke-opacity:1" transform="matrix(.47131 0 0 .47907 155.115 7.39)"/><path d="M80.851 432.764 61.101 468.4" style="fill:none;stroke:navy;stroke-width:2.9000001;stroke-linecap:square;stroke-linejoin:bevel;stroke-miterlimit:10;stroke-dasharray:none;stroke-opacity:1" transform="matrix(.47131 0 0 .47907 155.115 7.39)"/><path d="m152.697 434.703-19.159 33.538" style="fill:none;stroke:navy;stroke-width:2.91801143;stroke-linecap:square;stroke-linejoin:bevel;stroke-miterlimit:10;stroke-dasharray:none;stroke-opacity:1" transform="matrix(.47131 0 0 .47907 155.115 7.39)"/><g style="font-style:normal;font-weight:400;font-size:12px;font-family:Helvetica;fill:navy;fill-opacity:1;stroke:none;stroke-width:1.82628131;stroke-miterlimit:10;stroke-dasharray:none"><path d="M153 25h4v4h-4z" font-size="12" font-weight="400" style="fill-rule:evenodd;stroke-width:1.82628131;stroke-miterlimit:10;stroke-dasharray:none" transform="matrix(.7484 0 0 .76074 301.562 114.603)" vector-effect="non-scaling-stroke"/></g><g style="font-style:normal;font-weight:400;font-size:12px;font-family:Helvetica;fill:navy;fill-opacity:1;stroke:none;stroke-width:1.82628131;stroke-miterlimit:10;stroke-dasharray:none"><path d="M213 25h4v4h-4z" font-size="12" font-weight="400" style="fill-rule:evenodd;stroke-width:1.82628131;stroke-miterlimit:10;stroke-dasharray:none" transform="matrix(.7484 0 0 .76074 301.562 114.603)" vector-effect="non-scaling-stroke"/></g><path d="m46.361 450.596 23.856.02M144.509 450.623l22.702-.007" style="fill:none;stroke:navy;stroke-width:2.9000001;stroke-linecap:square;stroke-linejoin:bevel;stroke-miterlimit:10;stroke-dasharray:none;stroke-opacity:1" transform="matrix(.47131 0 0 .47907 390.05 -80.733)"/><path d="m81.805 432.188 71.43.518" style="fill:none;stroke:navy;stroke-width:2.9000001;stroke-linecap:square;stroke-linejoin:bevel;stroke-miterlimit:10;stroke-dasharray:none;stroke-opacity:1;image-rendering:auto" transform="matrix(.47131 0 0 .47907 390.05 -80.733)"/><path d="m63.115 468.971 69.494-.175" style="fill:none;stroke:navy;stroke-width:2.90035415;stroke-linecap:square;stroke-linejoin:bevel;stroke-miterlimit:10;stroke-dasharray:none;stroke-opacity:1" transform="matrix(.47131 0 0 .47907 390.05 -80.733)"/><path d="M80.851 432.764 61.101 468.4" style="fill:none;stroke:navy;stroke-width:2.9000001;stroke-linecap:square;stroke-linejoin:bevel;stroke-miterlimit:10;stroke-dasharray:none;stroke-opacity:1" transform="matrix(.47131 0 0 .47907 390.05 -80.733)"/><path d="m152.697 434.703-19.159 33.538" style="fill:none;stroke:navy;stroke-width:2.91801143;stroke-linecap:square;stroke-linejoin:bevel;stroke-miterlimit:10;stroke-dasharray:none;stroke-opacity:1" transform="matrix(.47131 0 0 .47907 390.05 -80.733)"/><g style="font-style:normal;font-weight:400;font-size:12px;font-family:Helvetica;fill:navy;fill-opacity:1;stroke:none;stroke-width:1.82628131;stroke-miterlimit:10;stroke-dasharray:none"><path d="M153 25h4v4h-4z" font-size="12" font-weight="400" style="fill-rule:evenodd;stroke-width:1.82628131;stroke-miterlimit:10;stroke-dasharray:none" transform="matrix(.7484 0 0 .76074 299.188 202.738)" vector-effect="non-scaling-stroke"/></g><g style="font-style:normal;font-weight:400;font-size:12px;font-family:Helvetica;fill:navy;fill-opacity:1;stroke:none;stroke-width:1.82628131;stroke-miterlimit:10;stroke-dasharray:none"><path d="M213 25h4v4h-4z" font-size="12" font-weight="400" style="fill-rule:evenodd;stroke-width:1.82628131;stroke-miterlimit:10;stroke-dasharray:none" transform="matrix(.7484 0 0 .76074 299.188 202.738)" vector-effect="non-scaling-stroke"/></g><path d="m46.361 450.596 23.856.02M144.509 450.623l22.702-.007" style="fill:none;stroke:navy;stroke-width:2.9000001;stroke-linecap:square;stroke-linejoin:bevel;stroke-miterlimit:10;stroke-dasharray:none;stroke-opacity:1" transform="matrix(.47131 0 0 .47907 387.677 7.402)"/><path d="m81.805 432.188 71.43.518" style="fill:none;stroke:navy;stroke-width:2.9000001;stroke-linecap:square;stroke-linejoin:bevel;stroke-miterlimit:10;stroke-dasharray:none;stroke-opacity:1;image-rendering:auto" transform="matrix(.47131 0 0 .47907 387.677 7.402)"/><path d="m63.115 468.971 69.494-.175" style="fill:none;stroke:navy;stroke-width:2.90035415;stroke-linecap:square;stroke-linejoin:bevel;stroke-miterlimit:10;stroke-dasharray:none;stroke-opacity:1" transform="matrix(.47131 0 0 .47907 387.677 7.402)"/><path d="M80.851 432.764 61.101 468.4" style="fill:none;stroke:navy;stroke-width:2.9000001;stroke-linecap:square;stroke-linejoin:bevel;stroke-miterlimit:10;stroke-dasharray:none;stroke-opacity:1" transform="matrix(.47131 0 0 .47907 387.677 7.402)"/><path d="m152.697 434.703-19.159 33.538" style="fill:none;stroke:navy;stroke-width:2.91801143;stroke-linecap:square;stroke-linejoin:bevel;stroke-miterlimit:10;stroke-dasharray:none;stroke-opacity:1" transform="matrix(.47131 0 0 .47907 387.677 7.402)"/><path d="m333.81 178.89 11.243.01" style="fill:none;stroke:navy;stroke-width:1.37801552;stroke-linecap:square;stroke-linejoin:bevel;stroke-miterlimit:10;stroke-dasharray:none;stroke-opacity:1"/><path d="m380.066 178.905 5.05-.006" style="fill:none;stroke:navy;stroke-width:1.37468958;stroke-linecap:square;stroke-linejoin:bevel;stroke-miterlimit:10;stroke-dasharray:none;stroke-opacity:1"/><path d="m350.515 170.071 33.666.248" style="fill:none;stroke:navy;stroke-width:1.37801552;stroke-linecap:square;stroke-linejoin:bevel;stroke-miterlimit:10;stroke-dasharray:none;stroke-opacity:1;image-rendering:auto"/><path d="m341.706 187.693 32.753-.084" style="fill:none;stroke:navy;stroke-width:1.37818384;stroke-linecap:square;stroke-linejoin:bevel;stroke-miterlimit:10;stroke-dasharray:none;stroke-opacity:1"/><path d="m350.065 170.347-9.308 17.072" style="fill:none;stroke:navy;stroke-width:1.37801552;stroke-linecap:square;stroke-linejoin:bevel;stroke-miterlimit:10;stroke-dasharray:none;stroke-opacity:1"/><path d="m383.927 171.276-9.03 16.067" style="fill:none;stroke:navy;stroke-width:1.38657415;stroke-linecap:square;stroke-linejoin:bevel;stroke-miterlimit:10;stroke-dasharray:none;stroke-opacity:1"/></svg>