<svg xmlns="http://www.w3.org/2000/svg" width="500" height="380" version="1.2"><desc>Generated with Qt</desc><g font-size="12" font-weight="400" style="font-size:12px;font-style:normal;font-weight:400;fill:none;stroke:navy;stroke-width:2;stroke-linecap:square;stroke-linejoin:bevel;stroke-opacity:1;font-family:Helvetica"><path d="M315 19h60M317 26h56M317 33l7-7M324 33l7-7M331 33l7-7M338 33l7-7M345 33l7-7M352 33l7-7M359 33l7-7M366 33l7-7" style="fill:none" transform="matrix(1.08662 0 0 1.08662 0 16.016)"/></g><g font-size="12" font-weight="400" style="font-size:12px;font-style:normal;font-weight:400;fill:none;stroke:navy;stroke-width:2;stroke-linecap:square;stroke-linejoin:bevel;stroke-opacity:1;font-family:Helvetica"><path d="M315 139h60M317 146h56M317 153l7-7M324 153l7-7M331 153l7-7M338 153l7-7M345 153l7-7M352 153l7-7M359 153l7-7M366 153l7-7" style="fill:none" transform="matrix(1.08662 0 0 1.08662 0 16.016)"/></g><g font-size="12" font-weight="400" style="font-size:12px;font-style:normal;font-weight:400;fill:none;stroke:navy;stroke-width:2;stroke-linecap:square;stroke-linejoin:bevel;stroke-opacity:1;font-family:Helvetica"><path d="M315 169h60M317 176h56M317 183l7-7M324 183l7-7M331 183l7-7M338 183l7-7M345 183l7-7M352 183l7-7M359 183l7-7M366 183l7-7" style="fill:none" transform="matrix(1.08662 0 0 1.08662 0 16.016)"/></g><g font-size="12" font-weight="400" style="font-size:12px;font-style:normal;font-weight:400;fill:none;stroke:navy;stroke-width:2;stroke-linecap:square;stroke-linejoin:bevel;stroke-opacity:1;font-family:Helvetica"><path d="M315 289h60M317 296h56M317 303l7-7M324 303l7-7M331 303l7-7M338 303l7-7M345 303l7-7M352 303l7-7M359 303l7-7M366 303l7-7" style="fill:none" transform="matrix(1.08662 0 0 1.08662 0 16.016)"/></g><g font-size="12" font-weight="400" style="font-size:12px;font-style:normal;font-weight:400;fill:none;stroke:navy;stroke-width:2;stroke-linecap:square;stroke-linejoin:bevel;stroke-opacity:1;font-family:Helvetica"><path d="M15 149h60M17 156h56M17 163l7-7M24 163l7-7M31 163l7-7M38 163l7-7M45 163l7-7M52 163l7-7M59 163l7-7M66 163l7-7" style="fill:none" transform="matrix(1.08662 0 0 1.08662 0 16.016)"/></g><g font-size="12" font-weight="400" style="font-size:12px;font-style:normal;font-weight:400;fill:none;stroke:navy;stroke-width:2;stroke-linecap:square;stroke-linejoin:bevel;stroke-opacity:1;font-family:Helvetica"><path d="M115 79h60M117 86h56M117 93l7-7M124 93l7-7M131 93l7-7M138 93l7-7M145 93l7-7M152 93l7-7M159 93l7-7M166 93l7-7" style="fill:none" transform="matrix(1.08662 0 0 1.08662 0 16.016)"/></g><g font-size="12" font-weight="400" style="font-size:12px;font-style:normal;font-weight:400;fill:none;stroke:navy;stroke-width:2;stroke-linecap:square;stroke-linejoin:bevel;stroke-opacity:1;font-family:Helvetica"><path d="M215 79h60M217 86h56M217 93l7-7M224 93l7-7M231 93l7-7M238 93l7-7M245 93l7-7M252 93l7-7M259 93l7-7M266 93l7-7" style="fill:none" transform="matrix(1.08662 0 0 1.08662 0 16.016)"/></g><g font-size="12" font-weight="400" style="font-size:12px;font-style:normal;font-weight:400;fill:none;stroke:navy;stroke-width:2;stroke-linecap:square;stroke-linejoin:bevel;stroke-opacity:1;font-family:Helvetica"><path d="M215 229h60M217 236h56M217 243l7-7M224 243l7-7M231 243l7-7M238 243l7-7M245 243l7-7M252 243l7-7M259 243l7-7M266 243l7-7" style="fill:none" transform="matrix(1.08662 0 0 1.08662 0 16.016)"/></g><g font-size="12" font-weight="400" style="font-size:12px;font-style:normal;font-weight:400;fill:none;stroke:navy;stroke-width:2;stroke-linecap:square;stroke-linejoin:bevel;stroke-opacity:1;font-family:Helvetica"><path d="M115 229h60M117 236h56M117 243l7-7M124 243l7-7M131 243l7-7M138 243l7-7M145 243l7-7M152 243l7-7M159 243l7-7M166 243l7-7" style="fill:none" transform="matrix(1.08662 0 0 1.08662 0 16.016)"/></g><g font-size="12" font-weight="400" style="font-size:12px;font-style:normal;font-weight:400;fill:none;stroke:navy;stroke-width:2;stroke-linecap:square;stroke-linejoin:bevel;stroke-opacity:1;font-family:Helvetica"><path d="M205 124v12M205 136l7 3M212 139l-14 6M198 145l14 6M212 151l-14 6M198 157l14 6M212 163l-14 6M198 169l7 3M205 172v12" style="fill:none" transform="matrix(1.08662 0 0 1.08662 0 16.016)"/></g><g font-size="12" font-weight="400" style="font-size:12px;font-style:normal;font-weight:400;fill:none;stroke:navy;stroke-width:2;stroke-linecap:square;stroke-linejoin:bevel;stroke-opacity:1;font-family:Helvetica"><path d="M405 199v12M405 211l7 3M412 214l-14 6M398 220l14 6M412 226l-14 6M398 232l14 6M412 238l-14 6M398 244l7 3M405 247v12" style="fill:none" transform="matrix(1.08662 0 0 1.08662 0 16.016)"/></g><g font-size="12" font-weight="400" style="font-size:12px;font-style:normal;font-weight:400;fill:none;stroke:navy;stroke-width:2;stroke-linecap:square;stroke-linejoin:bevel;stroke-opacity:1;font-family:Helvetica"><path d="M405 49v12M405 61l7 3M412 64l-14 6M398 70l14 6M412 76l-14 6M398 82l14 6M412 88l-14 6M398 94l7 3M405 97v12" style="fill:none" transform="matrix(1.08662 0 0 1.08662 0 16.016)"/></g><g font-size="12" font-weight="400" style="font-size:12px;font-style:normal;font-weight:400;fill:none;stroke:navy;stroke-width:2;stroke-linecap:square;stroke-linejoin:bevel;stroke-opacity:1;font-family:Helvetica"><path d="M275 139h40M275 19h40M275 19v60M375 139h30M375 19h30M405 139h10M405 109v30M405 19h10M405 19v30M275 289h40M275 169h40M275 169v60M375 289h30M375 169h30M405 289h10M405 259v30M405 169h10M405 169v30M75 229h40M75 79h40M75 79v70M175 229h30M175 79h30M205 229h10M205 184v45M205 79h10M205 79v45M75 149v80M275 79v60M275 229v60" style="fill:none" transform="matrix(1.08662 0 0 1.08662 0 16.016)"/></g><g font-size="12" font-weight="400" style="font-size:12px;font-style:normal;font-weight:400;fill:navy;fill-opacity:1;stroke:none;font-family:Helvetica"><path d="M213 77h4v4h-4z" style="fill-rule:evenodd" transform="matrix(1.08662 0 0 1.08662 0 16.016)" vector-effect="non-scaling-stroke"/></g><g font-size="12" font-weight="400" style="font-size:12px;font-style:normal;font-weight:400;fill:navy;fill-opacity:1;stroke:none;font-family:Helvetica"><path d="M313 137h4v4h-4z" style="fill-rule:evenodd" transform="matrix(1.08662 0 0 1.08662 0 16.016)" vector-effect="non-scaling-stroke"/></g><g font-size="12" font-weight="400" style="font-size:12px;font-style:normal;font-weight:400;fill:navy;fill-opacity:1;stroke:none;font-family:Helvetica"><path d="M373 137h4v4h-4z" style="fill-rule:evenodd" transform="matrix(1.08662 0 0 1.08662 0 16.016)" vector-effect="non-scaling-stroke"/></g><g font-size="12" font-weight="400" style="font-size:12px;font-style:normal;font-weight:400;fill:navy;fill-opacity:1;stroke:none;font-family:Helvetica"><path d="M313 17h4v4h-4z" style="fill-rule:evenodd" transform="matrix(1.08662 0 0 1.08662 0 16.016)" vector-effect="non-scaling-stroke"/></g><g font-size="12" font-weight="400" style="font-size:12px;font-style:normal;font-weight:400;fill:navy;fill-opacity:1;stroke:none;font-family:Helvetica"><path d="M373 17h4v4h-4z" style="fill-rule:evenodd" transform="matrix(1.08662 0 0 1.08662 0 16.016)" vector-effect="non-scaling-stroke"/></g><g font-size="12" font-weight="400" style="font-size:12px;font-style:normal;font-weight:400;fill:navy;fill-opacity:1;stroke:none;font-family:Helvetica"><path d="M403 47h4v4h-4z" style="fill-rule:evenodd" transform="matrix(1.08662 0 0 1.08662 0 16.016)" vector-effect="non-scaling-stroke"/></g><g font-size="12" font-weight="400" style="font-size:12px;font-style:normal;font-weight:400;fill:navy;fill-opacity:1;stroke:none;font-family:Helvetica"><path d="M403 107h4v4h-4z" style="fill-rule:evenodd" transform="matrix(1.08662 0 0 1.08662 0 16.016)" vector-effect="non-scaling-stroke"/></g><g font-size="12" font-weight="400" style="font-size:12px;font-style:normal;font-weight:400;fill:navy;fill-opacity:1;stroke:none;font-family:Helvetica"><path d="M213 227h4v4h-4z" style="fill-rule:evenodd" transform="matrix(1.08662 0 0 1.08662 0 16.016)" vector-effect="non-scaling-stroke"/></g><g font-size="12" font-weight="400" style="font-size:12px;font-style:normal;font-weight:400;fill:navy;fill-opacity:1;stroke:none;font-family:Helvetica"><path d="M313 287h4v4h-4z" style="fill-rule:evenodd" transform="matrix(1.08662 0 0 1.08662 0 16.016)" vector-effect="non-scaling-stroke"/></g><g font-size="12" font-weight="400" style="font-size:12px;font-style:normal;font-weight:400;fill:navy;fill-opacity:1;stroke:none;font-family:Helvetica"><path d="M373 287h4v4h-4z" style="fill-rule:evenodd" transform="matrix(1.08662 0 0 1.08662 0 16.016)" vector-effect="non-scaling-stroke"/></g><g font-size="12" font-weight="400" style="font-size:12px;font-style:normal;font-weight:400;fill:navy;fill-opacity:1;stroke:none;font-family:Helvetica"><path d="M313 167h4v4h-4z" style="fill-rule:evenodd" transform="matrix(1.08662 0 0 1.08662 0 16.016)" vector-effect="non-scaling-stroke"/></g><g font-size="12" font-weight="400" style="font-size:12px;font-style:normal;font-weight:400;fill:navy;fill-opacity:1;stroke:none;font-family:Helvetica"><path d="M373 167h4v4h-4z" style="fill-rule:evenodd" transform="matrix(1.08662 0 0 1.08662 0 16.016)" vector-effect="non-scaling-stroke"/></g><g font-size="12" font-weight="400" style="font-size:12px;font-style:normal;font-weight:400;fill:navy;fill-opacity:1;stroke:none;font-family:Helvetica"><path d="M403 197h4v4h-4z" style="fill-rule:evenodd" transform="matrix(1.08662 0 0 1.08662 0 16.016)" vector-effect="non-scaling-stroke"/></g><g font-size="12" font-weight="400" style="font-size:12px;font-style:normal;font-weight:400;fill:navy;fill-opacity:1;stroke:none;font-family:Helvetica"><path d="M403 257h4v4h-4z" style="fill-rule:evenodd" transform="matrix(1.08662 0 0 1.08662 0 16.016)" vector-effect="non-scaling-stroke"/></g><g font-size="12" font-weight="400" style="font-size:12px;font-style:normal;font-weight:400;fill:navy;fill-opacity:1;stroke:none;font-family:Helvetica"><path d="M113 227h4v4h-4z" style="fill-rule:evenodd" transform="matrix(1.08662 0 0 1.08662 0 16.016)" vector-effect="non-scaling-stroke"/></g><g font-size="12" font-weight="400" style="font-size:12px;font-style:normal;font-weight:400;fill:navy;fill-opacity:1;stroke:none;font-family:Helvetica"><path d="M173 227h4v4h-4z" style="fill-rule:evenodd" transform="matrix(1.08662 0 0 1.08662 0 16.016)" vector-effect="non-scaling-stroke"/></g><g font-size="12" font-weight="400" style="font-size:12px;font-style:normal;font-weight:400;fill:navy;fill-opacity:1;stroke:none;font-family:Helvetica"><path d="M113 77h4v4h-4z" style="fill-rule:evenodd" transform="matrix(1.08662 0 0 1.08662 0 16.016)" vector-effect="non-scaling-stroke"/></g><g font-size="12" font-weight="400" style="font-size:12px;font-style:normal;font-weight:400;fill:navy;fill-opacity:1;stroke:none;font-family:Helvetica"><path d="M173 77h4v4h-4z" style="fill-rule:evenodd" transform="matrix(1.08662 0 0 1.08662 0 16.016)" vector-effect="non-scaling-stroke"/></g><g font-size="12" font-weight="400" style="font-size:12px;font-style:normal;font-weight:400;fill:navy;fill-opacity:1;stroke:none;font-family:Helvetica"><path d="M203 122h4v4h-4z" style="fill-rule:evenodd" transform="matrix(1.08662 0 0 1.08662 0 16.016)" vector-effect="non-scaling-stroke"/></g><g font-size="12" font-weight="400" style="font-size:12px;font-style:normal;font-weight:400;fill:navy;fill-opacity:1;stroke:none;font-family:Helvetica"><path d="M203 182h4v4h-4z" style="fill-rule:evenodd" transform="matrix(1.08662 0 0 1.08662 0 16.016)" vector-effect="non-scaling-stroke"/></g><g font-size="12" font-weight="400" style="font-size:12px;font-style:normal;font-weight:400;fill:none;stroke:red;stroke-width:1;stroke-linecap:square;stroke-linejoin:bevel;stroke-opacity:1;font-family:Helvetica"><path stroke-width="1.08662" d="M455.293 167.056a4.347 4.347 0 1 1-8.694 0 4.347 4.347 0 0 1 8.694 0M455.293 36.662a4.347 4.347 0 1 1-8.694 0 4.347 4.347 0 0 1 8.694 0"/></g><g font-size="12" font-weight="400" style="font-size:12px;font-style:normal;font-weight:400;fill:navy;fill-opacity:1;stroke:navy;stroke-width:1;stroke-linecap:square;stroke-linejoin:bevel;stroke-opacity:1;font-family:Helvetica"><path d="M408 139a3 3 0 1 1-6 0 3 3 0 0 1 6 0" style="fill-rule:evenodd" transform="matrix(1.08662 0 0 1.08662 0 16.016)"/></g><g font-size="12" font-weight="400" style="font-size:12px;font-style:normal;font-weight:400;fill:navy;fill-opacity:1;stroke:navy;stroke-width:1;stroke-linecap:square;stroke-linejoin:bevel;stroke-opacity:1;font-family:Helvetica"><path d="M408 19a3 3 0 1 1-6 0 3 3 0 0 1 6 0" style="fill-rule:evenodd" transform="matrix(1.08662 0 0 1.08662 0 16.016)"/></g><g font-size="12" font-weight="400" style="font-size:12px;font-style:normal;font-weight:400;fill:none;stroke:red;stroke-width:1;stroke-linecap:square;stroke-linejoin:bevel;stroke-opacity:1;font-family:Helvetica"><path stroke-width="1.08662" d="M455.293 330.049a4.347 4.347 0 1 1-8.694 0 4.347 4.347 0 0 1 8.694 0M455.293 199.655a4.347 4.347 0 1 1-8.694 0 4.347 4.347 0 0 1 8.694 0"/></g><g font-size="12" font-weight="400" style="font-size:12px;font-style:normal;font-weight:400;fill:navy;fill-opacity:1;stroke:navy;stroke-width:1;stroke-linecap:square;stroke-linejoin:bevel;stroke-opacity:1;font-family:Helvetica"><path d="M408 289a3 3 0 1 1-6 0 3 3 0 0 1 6 0" style="fill-rule:evenodd" transform="matrix(1.08662 0 0 1.08662 0 16.016)"/></g><g font-size="12" font-weight="400" style="font-size:12px;font-style:normal;font-weight:400;fill:navy;fill-opacity:1;stroke:navy;stroke-width:1;stroke-linecap:square;stroke-linejoin:bevel;stroke-opacity:1;font-family:Helvetica"><path d="M408 169a3 3 0 1 1-6 0 3 3 0 0 1 6 0" style="fill-rule:evenodd" transform="matrix(1.08662 0 0 1.08662 0 16.016)"/></g><g font-size="12" font-weight="400" style="font-size:12px;font-style:normal;font-weight:400;fill:navy;fill-opacity:1;stroke:navy;stroke-width:1;stroke-linecap:square;stroke-linejoin:bevel;stroke-opacity:1;font-family:Helvetica"><path d="M208 229a3 3 0 1 1-6 0 3 3 0 0 1 6 0" style="fill-rule:evenodd" transform="matrix(1.08662 0 0 1.08662 0 16.016)"/></g><g font-size="12" font-weight="400" style="font-size:12px;font-style:normal;font-weight:400;fill:navy;fill-opacity:1;stroke:navy;stroke-width:1;stroke-linecap:square;stroke-linejoin:bevel;stroke-opacity:1;font-family:Helvetica"><path d="M208 79a3 3 0 1 1-6 0 3 3 0 0 1 6 0" style="fill-rule:evenodd" transform="matrix(1.08662 0 0 1.08662 0 16.016)"/></g><path d="M19 149a4 4 0 1 1-8 0 4 4 0 0 1 8 0" font-size="12" font-weight="400" style="font-size:12px;font-style:normal;font-weight:400;fill:none;stroke:red;stroke-width:1;stroke-linecap:square;stroke-linejoin:bevel;stroke-opacity:1;font-family:Helvetica" transform="matrix(1.08662 0 0 1.08662 0 16.016)"/><g font-size="12" font-weight="400" style="font-size:12px;font-style:normal;font-weight:400;fill:navy;fill-opacity:1;stroke:navy;stroke-width:1;stroke-linecap:square;stroke-linejoin:bevel;stroke-opacity:1;font-family:Helvetica"><path d="M78 149a3 3 0 1 1-6 0 3 3 0 0 1 6 0" style="fill-rule:evenodd" transform="matrix(1.08662 0 0 1.08662 0 16.016)"/></g><g font-size="12" font-weight="400" style="font-size:12px;font-style:normal;font-weight:400;fill:navy;fill-opacity:1;stroke:navy;stroke-width:1;stroke-linecap:square;stroke-linejoin:bevel;stroke-opacity:1;font-family:Helvetica"><path d="M278 79a3 3 0 1 1-6 0 3 3 0 0 1 6 0" style="fill-rule:evenodd" transform="matrix(1.08662 0 0 1.08662 0 16.016)"/></g><g font-size="12" font-weight="400" style="font-size:12px;font-style:normal;font-weight:400;fill:navy;fill-opacity:1;stroke:navy;stroke-width:1;stroke-linecap:square;stroke-linejoin:bevel;stroke-opacity:1;font-family:Helvetica"><path d="M278 229a3 3 0 1 1-6 0 3 3 0 0 1 6 0" style="fill-rule:evenodd" transform="matrix(1.08662 0 0 1.08662 0 16.016)"/></g></svg>