<svg xmlns="http://www.w3.org/2000/svg" width="500" height="380" version="1.2"><desc>Generated with Qt</desc><g font-size="12" font-weight="400" style="font-size:12px;font-style:normal;font-weight:400;fill:none;stroke:navy;stroke-width:2;stroke-linecap:square;stroke-linejoin:bevel;stroke-opacity:1;font-family:Helvetica"><path d="M205 124v12M205 136l7 3M212 139l-14 6M198 145l14 6M212 151l-14 6M198 157l14 6M212 163l-14 6M198 169l7 3M205 172v12" style="fill:none" transform="matrix(1.08662 0 0 1.08662 0 16.016)"/></g><g font-size="12" font-weight="400" style="font-size:12px;font-style:normal;font-weight:400;fill:none;stroke:navy;stroke-width:2;stroke-linecap:square;stroke-linejoin:bevel;stroke-opacity:1;font-family:Helvetica"><path d="M405 199v12M405 211l7 3M412 214l-14 6M398 220l14 6M412 226l-14 6M398 232l14 6M412 238l-14 6M398 244l7 3M405 247v12" style="fill:none" transform="matrix(1.08662 0 0 1.08662 0 16.016)"/></g><g font-size="12" font-weight="400" style="font-size:12px;font-style:normal;font-weight:400;fill:none;stroke:navy;stroke-width:2;stroke-linecap:square;stroke-linejoin:bevel;stroke-opacity:1;font-family:Helvetica"><path d="M405 49v12M405 61l7 3M412 64l-14 6M398 70l14 6M412 76l-14 6M398 82l14 6M412 88l-14 6M398 94l7 3M405 97v12" style="fill:none" transform="matrix(1.08662 0 0 1.08662 0 16.016)"/></g><g font-size="12" font-weight="400" style="font-size:12px;font-style:normal;font-weight:400;fill:none;stroke:navy;stroke-width:2;stroke-linecap:square;stroke-linejoin:bevel;stroke-opacity:1;font-family:Helvetica"><path d="M275 139h40M275 19h40M275 19v60M375 139h30M375 19h30M405 139h10M405 109v30M405 19h10M405 19v30M275 289h40M275 169h40M275 169v60M375 289h30M375 169h30M405 289h10M405 259v30M405 169h10M405 169v30M75 229h40M75 79h40M75 79v70M175 229h30M175 79h30M205 229h10M205 184v45M205 79h10M205 79v45M75 149v80M275 79v60M275 229v60" style="fill:none" transform="matrix(1.08662 0 0 1.08662 0 16.016)"/></g><g font-size="12" font-weight="400" style="font-size:12px;font-style:normal;font-weight:400;fill:navy;fill-opacity:1;stroke:none;font-family:Helvetica"><path d="M403 47h4v4h-4z" style="fill-rule:evenodd" transform="matrix(1.08662 0 0 1.08662 0 16.016)" vector-effect="non-scaling-stroke"/></g><g font-size="12" font-weight="400" style="font-size:12px;font-style:normal;font-weight:400;fill:navy;fill-opacity:1;stroke:none;font-family:Helvetica"><path d="M403 107h4v4h-4z" style="fill-rule:evenodd" transform="matrix(1.08662 0 0 1.08662 0 16.016)" vector-effect="non-scaling-stroke"/></g><g font-size="12" font-weight="400" style="font-size:12px;font-style:normal;font-weight:400;fill:navy;fill-opacity:1;stroke:none;font-family:Helvetica"><path d="M403 197h4v4h-4z" style="fill-rule:evenodd" transform="matrix(1.08662 0 0 1.08662 0 16.016)" vector-effect="non-scaling-stroke"/></g><g font-size="12" font-weight="400" style="font-size:12px;font-style:normal;font-weight:400;fill:navy;fill-opacity:1;stroke:none;font-family:Helvetica"><path d="M403 257h4v4h-4z" style="fill-rule:evenodd" transform="matrix(1.08662 0 0 1.08662 0 16.016)" vector-effect="non-scaling-stroke"/></g><g font-size="12" font-weight="400" style="font-size:12px;font-style:normal;font-weight:400;fill:navy;fill-opacity:1;stroke:none;font-family:Helvetica"><path d="M203 122h4v4h-4z" style="fill-rule:evenodd" transform="matrix(1.08662 0 0 1.08662 0 16.016)" vector-effect="non-scaling-stroke"/></g><g font-size="12" font-weight="400" style="font-size:12px;font-style:normal;font-weight:400;fill:navy;fill-opacity:1;stroke:none;font-family:Helvetica"><path d="M203 182h4v4h-4z" style="fill-rule:evenodd" transform="matrix(1.08662 0 0 1.08662 0 16.016)" vector-effect="non-scaling-stroke"/></g><g font-size="12" font-weight="400" style="font-size:12px;font-style:normal;font-weight:400;fill:none;stroke:red;stroke-width:1;stroke-linecap:square;stroke-linejoin:bevel;stroke-opacity:1;font-family:Helvetica"><path stroke-width="1.08662" d="M455.293 167.056a4.347 4.347 0 1 1-8.694 0 4.347 4.347 0 0 1 8.694 0M455.293 36.662a4.347 4.347 0 1 1-8.694 0 4.347 4.347 0 0 1 8.694 0"/></g><g font-size="12" font-weight="400" style="font-size:12px;font-style:normal;font-weight:400;fill:navy;fill-opacity:1;stroke:navy;stroke-width:1;stroke-linecap:square;stroke-linejoin:bevel;stroke-opacity:1;font-family:Helvetica"><path d="M408 139a3 3 0 1 1-6 0 3 3 0 0 1 6 0" style="fill-rule:evenodd" transform="matrix(1.08662 0 0 1.08662 0 16.016)"/></g><g font-size="12" font-weight="400" style="font-size:12px;font-style:normal;font-weight:400;fill:navy;fill-opacity:1;stroke:navy;stroke-width:1;stroke-linecap:square;stroke-linejoin:bevel;stroke-opacity:1;font-family:Helvetica"><path d="M408 19a3 3 0 1 1-6 0 3 3 0 0 1 6 0" style="fill-rule:evenodd" transform="matrix(1.08662 0 0 1.08662 0 16.016)"/></g><g font-size="12" font-weight="400" style="font-size:12px;font-style:normal;font-weight:400;fill:none;stroke:red;stroke-width:1;stroke-linecap:square;stroke-linejoin:bevel;stroke-opacity:1;font-family:Helvetica"><path stroke-width="1.08662" d="M455.293 330.049a4.347 4.347 0 1 1-8.694 0 4.347 4.347 0 0 1 8.694 0M455.293 199.655a4.347 4.347 0 1 1-8.694 0 4.347 4.347 0 0 1 8.694 0"/></g><g font-size="12" font-weight="400" style="font-size:12px;font-style:normal;font-weight:400;fill:navy;fill-opacity:1;stroke:navy;stroke-width:1;stroke-linecap:square;stroke-linejoin:bevel;stroke-opacity:1;font-family:Helvetica"><path d="M408 289a3 3 0 1 1-6 0 3 3 0 0 1 6 0" style="fill-rule:evenodd" transform="matrix(1.08662 0 0 1.08662 0 16.016)"/></g><g font-size="12" font-weight="400" style="font-size:12px;font-style:normal;font-weight:400;fill:navy;fill-opacity:1;stroke:navy;stroke-width:1;stroke-linecap:square;stroke-linejoin:bevel;stroke-opacity:1;font-family:Helvetica"><path d="M408 169a3 3 0 1 1-6 0 3 3 0 0 1 6 0" style="fill-rule:evenodd" transform="matrix(1.08662 0 0 1.08662 0 16.016)"/></g><g font-size="12" font-weight="400" style="font-size:12px;font-style:normal;font-weight:400;fill:navy;fill-opacity:1;stroke:navy;stroke-width:1;stroke-linecap:square;stroke-linejoin:bevel;stroke-opacity:1;font-family:Helvetica"><path d="M208 229a3 3 0 1 1-6 0 3 3 0 0 1 6 0" style="fill-rule:evenodd" transform="matrix(1.08662 0 0 1.08662 0 16.016)"/></g><g font-size="12" font-weight="400" style="font-size:12px;font-style:normal;font-weight:400;fill:navy;fill-opacity:1;stroke:navy;stroke-width:1;stroke-linecap:square;stroke-linejoin:bevel;stroke-opacity:1;font-family:Helvetica"><path d="M208 79a3 3 0 1 1-6 0 3 3 0 0 1 6 0" style="fill-rule:evenodd" transform="matrix(1.08662 0 0 1.08662 0 16.016)"/></g><path d="M19 149a4 4 0 1 1-8 0 4 4 0 0 1 8 0" font-size="12" font-weight="400" style="font-size:12px;font-style:normal;font-weight:400;fill:none;stroke:red;stroke-width:1;stroke-linecap:square;stroke-linejoin:bevel;stroke-opacity:1;font-family:Helvetica" transform="matrix(1.08662 0 0 1.08662 0 16.016)"/><g font-size="12" font-weight="400" style="font-size:12px;font-style:normal;font-weight:400;fill:navy;fill-opacity:1;stroke:navy;stroke-width:1;stroke-linecap:square;stroke-linejoin:bevel;stroke-opacity:1;font-family:Helvetica"><path d="M78 149a3 3 0 1 1-6 0 3 3 0 0 1 6 0" style="fill-rule:evenodd" transform="matrix(1.08662 0 0 1.08662 0 16.016)"/></g><g font-size="12" font-weight="400" style="font-size:12px;font-style:normal;font-weight:400;fill:navy;fill-opacity:1;stroke:navy;stroke-width:1;stroke-linecap:square;stroke-linejoin:bevel;stroke-opacity:1;font-family:Helvetica"><path d="M278 79a3 3 0 1 1-6 0 3 3 0 0 1 6 0" style="fill-rule:evenodd" transform="matrix(1.08662 0 0 1.08662 0 16.016)"/></g><g font-size="12" font-weight="400" style="font-size:12px;font-style:normal;font-weight:400;fill:navy;fill-opacity:1;stroke:navy;stroke-width:1;stroke-linecap:square;stroke-linejoin:bevel;stroke-opacity:1;font-family:Helvetica"><path d="M278 229a3 3 0 1 1-6 0 3 3 0 0 1 6 0" style="fill-rule:evenodd" transform="matrix(1.08662 0 0 1.08662 0 16.016)"/></g><g style="font-style:normal;font-weight:400;font-size:12px;font-family:Helvetica;fill:navy;fill-opacity:1;stroke:none;stroke-width:1.82628131;stroke-miterlimit:10;stroke-dasharray:none"><path d="M153 25h4v4h-4z" font-size="12" font-weight="400" style="fill-rule:evenodd;stroke-width:1.82628131;stroke-miterlimit:10;stroke-dasharray:none" transform="matrix(.91306 0 0 1.05478 -10.701 236.629)" vector-effect="non-scaling-stroke"/></g><g style="font-style:normal;font-weight:400;font-size:12px;font-family:Helvetica;fill:navy;fill-opacity:1;stroke:none;stroke-width:1.82628131;stroke-miterlimit:10;stroke-dasharray:none"><path d="M213 25h4v4h-4z" font-size="12" font-weight="400" style="fill-rule:evenodd;stroke-width:1.82628131;stroke-miterlimit:10;stroke-dasharray:none" transform="matrix(.91306 0 0 1.05478 -10.701 236.629)" vector-effect="non-scaling-stroke"/></g><path d="m46.361 450.596 23.856.02M144.509 450.623l22.702-.007" style="fill:none;stroke:navy;stroke-width:2.9000001;stroke-linecap:square;stroke-linejoin:bevel;stroke-miterlimit:10;stroke-dasharray:none;stroke-opacity:1" transform="matrix(.575 0 0 .66425 97.256 -34.21)"/><path d="m81.805 432.188 71.43.518" style="fill:none;stroke:navy;stroke-width:2.9000001;stroke-linecap:square;stroke-linejoin:bevel;stroke-miterlimit:10;stroke-dasharray:none;stroke-opacity:1;image-rendering:auto" transform="matrix(.575 0 0 .66425 97.256 -34.21)"/><path d="m63.115 468.971 69.494-.175" style="fill:none;stroke:navy;stroke-width:2.90035415;stroke-linecap:square;stroke-linejoin:bevel;stroke-miterlimit:10;stroke-dasharray:none;stroke-opacity:1" transform="matrix(.575 0 0 .66425 97.256 -34.21)"/><path d="M80.851 432.764 61.101 468.4" style="fill:none;stroke:navy;stroke-width:2.9000001;stroke-linecap:square;stroke-linejoin:bevel;stroke-miterlimit:10;stroke-dasharray:none;stroke-opacity:1" transform="matrix(.575 0 0 .66425 97.256 -34.21)"/><path d="m152.697 434.703-19.159 33.538" style="fill:none;stroke:navy;stroke-width:2.91801143;stroke-linecap:square;stroke-linejoin:bevel;stroke-miterlimit:10;stroke-dasharray:none;stroke-opacity:1" transform="matrix(.575 0 0 .66425 97.256 -34.21)"/><g style="font-style:normal;font-weight:400;font-size:12px;font-family:Helvetica;fill:navy;fill-opacity:1;stroke:none;stroke-width:1.82628131;stroke-miterlimit:10;stroke-dasharray:none"><path d="M153 25h4v4h-4z" font-size="12" font-weight="400" style="fill-rule:evenodd;stroke-width:1.82628131;stroke-miterlimit:10;stroke-dasharray:none" transform="matrix(.91306 0 0 1.05478 -13.659 73.334)" vector-effect="non-scaling-stroke"/></g><g style="font-style:normal;font-weight:400;font-size:12px;font-family:Helvetica;fill:navy;fill-opacity:1;stroke:none;stroke-width:1.82628131;stroke-miterlimit:10;stroke-dasharray:none"><path d="M213 25h4v4h-4z" font-size="12" font-weight="400" style="fill-rule:evenodd;stroke-width:1.82628131;stroke-miterlimit:10;stroke-dasharray:none" transform="matrix(.91306 0 0 1.05478 -13.659 73.334)" vector-effect="non-scaling-stroke"/></g><path d="m46.361 450.596 23.856.02M144.509 450.623l22.702-.007" style="fill:none;stroke:navy;stroke-width:2.9000001;stroke-linecap:square;stroke-linejoin:bevel;stroke-miterlimit:10;stroke-dasharray:none;stroke-opacity:1" transform="matrix(.575 0 0 .66425 94.298 -197.506)"/><path d="m81.805 432.188 71.43.518" style="fill:none;stroke:navy;stroke-width:2.9000001;stroke-linecap:square;stroke-linejoin:bevel;stroke-miterlimit:10;stroke-dasharray:none;stroke-opacity:1;image-rendering:auto" transform="matrix(.575 0 0 .66425 94.298 -197.506)"/><path d="m63.115 468.971 69.494-.175" style="fill:none;stroke:navy;stroke-width:2.90035415;stroke-linecap:square;stroke-linejoin:bevel;stroke-miterlimit:10;stroke-dasharray:none;stroke-opacity:1" transform="matrix(.575 0 0 .66425 94.298 -197.506)"/><path d="M80.851 432.764 61.101 468.4" style="fill:none;stroke:navy;stroke-width:2.9000001;stroke-linecap:square;stroke-linejoin:bevel;stroke-miterlimit:10;stroke-dasharray:none;stroke-opacity:1" transform="matrix(.575 0 0 .66425 94.298 -197.506)"/><path d="m152.697 434.703-19.159 33.538" style="fill:none;stroke:navy;stroke-width:2.91801143;stroke-linecap:square;stroke-linejoin:bevel;stroke-miterlimit:10;stroke-dasharray:none;stroke-opacity:1" transform="matrix(.575 0 0 .66425 94.298 -197.506)"/><g style="font-style:normal;font-weight:400;font-size:12px;font-family:Helvetica;fill:navy;fill-opacity:1;stroke:none;stroke-width:1.82628131;stroke-miterlimit:10;stroke-dasharray:none"><path d="M153 25h4v4h-4z" font-size="12" font-weight="400" style="fill-rule:evenodd;stroke-width:1.82628131;stroke-miterlimit:10;stroke-dasharray:none" transform="matrix(.91306 0 0 1.05478 93.194 73.344)" vector-effect="non-scaling-stroke"/></g><g style="font-style:normal;font-weight:400;font-size:12px;font-family:Helvetica;fill:navy;fill-opacity:1;stroke:none;stroke-width:1.82628131;stroke-miterlimit:10;stroke-dasharray:none"><path d="M213 25h4v4h-4z" font-size="12" font-weight="400" style="fill-rule:evenodd;stroke-width:1.82628131;stroke-miterlimit:10;stroke-dasharray:none" transform="matrix(.91306 0 0 1.05478 93.194 73.344)" vector-effect="non-scaling-stroke"/></g><path d="m46.361 450.596 23.856.02M144.509 450.623l22.702-.007" style="fill:none;stroke:navy;stroke-width:2.9000001;stroke-linecap:square;stroke-linejoin:bevel;stroke-miterlimit:10;stroke-dasharray:none;stroke-opacity:1" transform="matrix(.575 0 0 .66425 201.151 -197.495)"/><path d="m81.805 432.188 71.43.518" style="fill:none;stroke:navy;stroke-width:2.9000001;stroke-linecap:square;stroke-linejoin:bevel;stroke-miterlimit:10;stroke-dasharray:none;stroke-opacity:1;image-rendering:auto" transform="matrix(.575 0 0 .66425 201.151 -197.495)"/><path d="m63.115 468.971 69.494-.175" style="fill:none;stroke:navy;stroke-width:2.90035415;stroke-linecap:square;stroke-linejoin:bevel;stroke-miterlimit:10;stroke-dasharray:none;stroke-opacity:1" transform="matrix(.575 0 0 .66425 201.151 -197.495)"/><path d="M80.851 432.764 61.101 468.4" style="fill:none;stroke:navy;stroke-width:2.9000001;stroke-linecap:square;stroke-linejoin:bevel;stroke-miterlimit:10;stroke-dasharray:none;stroke-opacity:1" transform="matrix(.575 0 0 .66425 201.151 -197.495)"/><path d="m152.697 434.703-19.159 33.538" style="fill:none;stroke:navy;stroke-width:2.91801143;stroke-linecap:square;stroke-linejoin:bevel;stroke-miterlimit:10;stroke-dasharray:none;stroke-opacity:1" transform="matrix(.575 0 0 .66425 201.151 -197.495)"/><g style="font-style:normal;font-weight:400;font-size:12px;font-family:Helvetica;fill:navy;fill-opacity:1;stroke:none;stroke-width:1.82628131;stroke-miterlimit:10;stroke-dasharray:none"><path d="M153 25h4v4h-4z" font-size="12" font-weight="400" style="fill-rule:evenodd;stroke-width:1.82628131;stroke-miterlimit:10;stroke-dasharray:none" transform="matrix(.91306 0 0 1.05478 95.293 236.295)" vector-effect="non-scaling-stroke"/></g><g style="font-style:normal;font-weight:400;font-size:12px;font-family:Helvetica;fill:navy;fill-opacity:1;stroke:none;stroke-width:1.82628131;stroke-miterlimit:10;stroke-dasharray:none"><path d="M213 25h4v4h-4z" font-size="12" font-weight="400" style="fill-rule:evenodd;stroke-width:1.82628131;stroke-miterlimit:10;stroke-dasharray:none" transform="matrix(.91306 0 0 1.05478 95.293 236.295)" vector-effect="non-scaling-stroke"/></g><path d="m46.361 450.596 23.856.02M144.509 450.623l22.702-.007" style="fill:none;stroke:navy;stroke-width:2.9000001;stroke-linecap:square;stroke-linejoin:bevel;stroke-miterlimit:10;stroke-dasharray:none;stroke-opacity:1" transform="matrix(.575 0 0 .66425 203.25 -34.544)"/><path d="m81.805 432.188 71.43.518" style="fill:none;stroke:navy;stroke-width:2.9000001;stroke-linecap:square;stroke-linejoin:bevel;stroke-miterlimit:10;stroke-dasharray:none;stroke-opacity:1;image-rendering:auto" transform="matrix(.575 0 0 .66425 203.25 -34.544)"/><path d="m63.115 468.971 69.494-.175" style="fill:none;stroke:navy;stroke-width:2.90035415;stroke-linecap:square;stroke-linejoin:bevel;stroke-miterlimit:10;stroke-dasharray:none;stroke-opacity:1" transform="matrix(.575 0 0 .66425 203.25 -34.544)"/><path d="M80.851 432.764 61.101 468.4" style="fill:none;stroke:navy;stroke-width:2.9000001;stroke-linecap:square;stroke-linejoin:bevel;stroke-miterlimit:10;stroke-dasharray:none;stroke-opacity:1" transform="matrix(.575 0 0 .66425 203.25 -34.544)"/><path d="m152.697 434.703-19.159 33.538" style="fill:none;stroke:navy;stroke-width:2.91801143;stroke-linecap:square;stroke-linejoin:bevel;stroke-miterlimit:10;stroke-dasharray:none;stroke-opacity:1" transform="matrix(.575 0 0 .66425 203.25 -34.544)"/><g style="font-style:normal;font-weight:400;font-size:12px;font-family:Helvetica;fill:navy;fill-opacity:1;stroke:none;stroke-width:1.82628131;stroke-miterlimit:10;stroke-dasharray:none"><path d="M153 25h4v4h-4z" font-size="12" font-weight="400" style="fill-rule:evenodd;stroke-width:1.82628131;stroke-miterlimit:10;stroke-dasharray:none" transform="matrix(.91306 0 0 1.05478 205.39 301.552)" vector-effect="non-scaling-stroke"/></g><g style="font-style:normal;font-weight:400;font-size:12px;font-family:Helvetica;fill:navy;fill-opacity:1;stroke:none;stroke-width:1.82628131;stroke-miterlimit:10;stroke-dasharray:none"><path d="M213 25h4v4h-4z" font-size="12" font-weight="400" style="fill-rule:evenodd;stroke-width:1.82628131;stroke-miterlimit:10;stroke-dasharray:none" transform="matrix(.91306 0 0 1.05478 205.39 301.552)" vector-effect="non-scaling-stroke"/></g><path d="m46.361 450.596 23.856.02M144.509 450.623l22.702-.007" style="fill:none;stroke:navy;stroke-width:2.9000001;stroke-linecap:square;stroke-linejoin:bevel;stroke-miterlimit:10;stroke-dasharray:none;stroke-opacity:1" transform="matrix(.575 0 0 .66425 313.347 30.712)"/><path d="m81.805 432.188 71.43.518" style="fill:none;stroke:navy;stroke-width:2.9000001;stroke-linecap:square;stroke-linejoin:bevel;stroke-miterlimit:10;stroke-dasharray:none;stroke-opacity:1;image-rendering:auto" transform="matrix(.575 0 0 .66425 313.347 30.712)"/><path d="m63.115 468.971 69.494-.175" style="fill:none;stroke:navy;stroke-width:2.90035415;stroke-linecap:square;stroke-linejoin:bevel;stroke-miterlimit:10;stroke-dasharray:none;stroke-opacity:1" transform="matrix(.575 0 0 .66425 313.347 30.712)"/><path d="M80.851 432.764 61.101 468.4" style="fill:none;stroke:navy;stroke-width:2.9000001;stroke-linecap:square;stroke-linejoin:bevel;stroke-miterlimit:10;stroke-dasharray:none;stroke-opacity:1" transform="matrix(.575 0 0 .66425 313.347 30.712)"/><path d="m152.697 434.703-19.159 33.538" style="fill:none;stroke:navy;stroke-width:2.91801143;stroke-linecap:square;stroke-linejoin:bevel;stroke-miterlimit:10;stroke-dasharray:none;stroke-opacity:1" transform="matrix(.575 0 0 .66425 313.347 30.712)"/><g style="font-style:normal;font-weight:400;font-size:12px;font-family:Helvetica;fill:navy;fill-opacity:1;stroke:none;stroke-width:1.82628131;stroke-miterlimit:10;stroke-dasharray:none"><path d="M153 25h4v4h-4z" font-size="12" font-weight="400" style="fill-rule:evenodd;stroke-width:1.82628131;stroke-miterlimit:10;stroke-dasharray:none" transform="matrix(.91306 0 0 1.05478 201.574 171.038)" vector-effect="non-scaling-stroke"/></g><g style="font-style:normal;font-weight:400;font-size:12px;font-family:Helvetica;fill:navy;fill-opacity:1;stroke:none;stroke-width:1.82628131;stroke-miterlimit:10;stroke-dasharray:none"><path d="M213 25h4v4h-4z" font-size="12" font-weight="400" style="fill-rule:evenodd;stroke-width:1.82628131;stroke-miterlimit:10;stroke-dasharray:none" transform="matrix(.91306 0 0 1.05478 201.574 171.038)" vector-effect="non-scaling-stroke"/></g><path d="m46.361 450.596 23.856.02M144.509 450.623l22.702-.007" style="fill:none;stroke:navy;stroke-width:2.9000001;stroke-linecap:square;stroke-linejoin:bevel;stroke-miterlimit:10;stroke-dasharray:none;stroke-opacity:1" transform="matrix(.575 0 0 .66425 309.53 -99.801)"/><path d="m81.805 432.188 71.43.518" style="fill:none;stroke:navy;stroke-width:2.9000001;stroke-linecap:square;stroke-linejoin:bevel;stroke-miterlimit:10;stroke-dasharray:none;stroke-opacity:1;image-rendering:auto" transform="matrix(.575 0 0 .66425 309.53 -99.801)"/><path d="m63.115 468.971 69.494-.175" style="fill:none;stroke:navy;stroke-width:2.90035415;stroke-linecap:square;stroke-linejoin:bevel;stroke-miterlimit:10;stroke-dasharray:none;stroke-opacity:1" transform="matrix(.575 0 0 .66425 309.53 -99.801)"/><path d="M80.851 432.764 61.101 468.4" style="fill:none;stroke:navy;stroke-width:2.9000001;stroke-linecap:square;stroke-linejoin:bevel;stroke-miterlimit:10;stroke-dasharray:none;stroke-opacity:1" transform="matrix(.575 0 0 .66425 309.53 -99.801)"/><path d="m152.697 434.703-19.159 33.538" style="fill:none;stroke:navy;stroke-width:2.91801143;stroke-linecap:square;stroke-linejoin:bevel;stroke-miterlimit:10;stroke-dasharray:none;stroke-opacity:1" transform="matrix(.575 0 0 .66425 309.53 -99.801)"/><g style="font-style:normal;font-weight:400;font-size:12px;font-family:Helvetica;fill:navy;fill-opacity:1;stroke:none;stroke-width:1.82628131;stroke-miterlimit:10;stroke-dasharray:none"><path d="M153 25h4v4h-4z" font-size="12" font-weight="400" style="fill-rule:evenodd;stroke-width:1.82628131;stroke-miterlimit:10;stroke-dasharray:none" transform="matrix(.91306 0 0 1.05478 206.4 138.501)" vector-effect="non-scaling-stroke"/></g><g style="font-style:normal;font-weight:400;font-size:12px;font-family:Helvetica;fill:navy;fill-opacity:1;stroke:none;stroke-width:1.82628131;stroke-miterlimit:10;stroke-dasharray:none"><path d="M213 25h4v4h-4z" font-size="12" font-weight="400" style="fill-rule:evenodd;stroke-width:1.82628131;stroke-miterlimit:10;stroke-dasharray:none" transform="matrix(.91306 0 0 1.05478 206.4 138.501)" vector-effect="non-scaling-stroke"/></g><path d="m46.361 450.596 23.856.02M144.509 450.623l22.702-.007" style="fill:none;stroke:navy;stroke-width:2.9000001;stroke-linecap:square;stroke-linejoin:bevel;stroke-miterlimit:10;stroke-dasharray:none;stroke-opacity:1" transform="matrix(.575 0 0 .66425 314.357 -132.338)"/><path d="m81.805 432.188 71.43.518" style="fill:none;stroke:navy;stroke-width:2.9000001;stroke-linecap:square;stroke-linejoin:bevel;stroke-miterlimit:10;stroke-dasharray:none;stroke-opacity:1;image-rendering:auto" transform="matrix(.575 0 0 .66425 314.357 -132.338)"/><path d="m63.115 468.971 69.494-.175" style="fill:none;stroke:navy;stroke-width:2.90035415;stroke-linecap:square;stroke-linejoin:bevel;stroke-miterlimit:10;stroke-dasharray:none;stroke-opacity:1" transform="matrix(.575 0 0 .66425 314.357 -132.338)"/><path d="M80.851 432.764 61.101 468.4" style="fill:none;stroke:navy;stroke-width:2.9000001;stroke-linecap:square;stroke-linejoin:bevel;stroke-miterlimit:10;stroke-dasharray:none;stroke-opacity:1" transform="matrix(.575 0 0 .66425 314.357 -132.338)"/><path d="m152.697 434.703-19.159 33.538" style="fill:none;stroke:navy;stroke-width:2.91801143;stroke-linecap:square;stroke-linejoin:bevel;stroke-miterlimit:10;stroke-dasharray:none;stroke-opacity:1" transform="matrix(.575 0 0 .66425 314.357 -132.338)"/><g style="font-style:normal;font-weight:400;font-size:12px;font-family:Helvetica;fill:navy;fill-opacity:1;stroke:none;stroke-width:1.82628131;stroke-miterlimit:10;stroke-dasharray:none"><path d="M153 25h4v4h-4z" font-size="12" font-weight="400" style="fill-rule:evenodd;stroke-width:1.82628131;stroke-miterlimit:10;stroke-dasharray:none" transform="matrix(.91306 0 0 1.05478 206.4 8.301)" vector-effect="non-scaling-stroke"/></g><g style="font-style:normal;font-weight:400;font-size:12px;font-family:Helvetica;fill:navy;fill-opacity:1;stroke:none;stroke-width:1.82628131;stroke-miterlimit:10;stroke-dasharray:none"><path d="M213 25h4v4h-4z" font-size="12" font-weight="400" style="fill-rule:evenodd;stroke-width:1.82628131;stroke-miterlimit:10;stroke-dasharray:none" transform="matrix(.91306 0 0 1.05478 206.4 8.301)" vector-effect="non-scaling-stroke"/></g><path d="m46.361 450.596 23.856.02M144.509 450.623l22.702-.007" style="fill:none;stroke:navy;stroke-width:2.9000001;stroke-linecap:square;stroke-linejoin:bevel;stroke-miterlimit:10;stroke-dasharray:none;stroke-opacity:1" transform="matrix(.575 0 0 .66425 314.357 -262.538)"/><path d="m81.805 432.188 71.43.518" style="fill:none;stroke:navy;stroke-width:2.9000001;stroke-linecap:square;stroke-linejoin:bevel;stroke-miterlimit:10;stroke-dasharray:none;stroke-opacity:1;image-rendering:auto" transform="matrix(.575 0 0 .66425 314.357 -262.538)"/><path d="m63.115 468.971 69.494-.175" style="fill:none;stroke:navy;stroke-width:2.90035415;stroke-linecap:square;stroke-linejoin:bevel;stroke-miterlimit:10;stroke-dasharray:none;stroke-opacity:1" transform="matrix(.575 0 0 .66425 314.357 -262.538)"/><path d="M80.851 432.764 61.101 468.4" style="fill:none;stroke:navy;stroke-width:2.9000001;stroke-linecap:square;stroke-linejoin:bevel;stroke-miterlimit:10;stroke-dasharray:none;stroke-opacity:1" transform="matrix(.575 0 0 .66425 314.357 -262.538)"/><path d="m152.697 434.703-19.159 33.538" style="fill:none;stroke:navy;stroke-width:2.91801143;stroke-linecap:square;stroke-linejoin:bevel;stroke-miterlimit:10;stroke-dasharray:none;stroke-opacity:1" transform="matrix(.575 0 0 .66425 314.357 -262.538)"/><path d="m17.06 178.136 13.24.015" style="fill:none;stroke:navy;stroke-width:1.7917726;stroke-linecap:square;stroke-linejoin:bevel;stroke-miterlimit:10;stroke-dasharray:none;stroke-opacity:1"/><path d="m73.016 178.157 7.239-.01" style="fill:none;stroke:navy;stroke-width:1.78827834;stroke-linecap:square;stroke-linejoin:bevel;stroke-miterlimit:10;stroke-dasharray:none;stroke-opacity:1"/><path d="m36.964 165.91 41.072.343" style="fill:none;stroke:navy;stroke-width:1.79225409;stroke-linecap:square;stroke-linejoin:bevel;stroke-miterlimit:10;stroke-dasharray:none;stroke-opacity:1;image-rendering:auto"/><path d="m26.217 190.343 39.959-.117" style="fill:none;stroke:navy;stroke-width:1.79247296;stroke-linecap:square;stroke-linejoin:bevel;stroke-miterlimit:10;stroke-dasharray:none;stroke-opacity:1"/><path d="m36.415 166.292-11.356 23.67" style="fill:none;stroke:navy;stroke-width:1.79225409;stroke-linecap:square;stroke-linejoin:bevel;stroke-miterlimit:10;stroke-dasharray:none;stroke-opacity:1"/><path d="M77.727 167.58 66.71 189.857" style="fill:none;stroke:navy;stroke-width:1.8033855;stroke-linecap:square;stroke-linejoin:bevel;stroke-miterlimit:10;stroke-dasharray:none;stroke-opacity:1"/></svg>