<svg xmlns="http://www.w3.org/2000/svg" width="500" height="380" version="1.2"><desc>Generated with Qt</desc><g font-size="12" font-weight="400" style="font-size:12px;font-style:normal;font-weight:400;fill:none;stroke:navy;stroke-width:2;stroke-linecap:square;stroke-linejoin:bevel;stroke-opacity:1;font-family:Helvetica"><path d="M205 105h60M207 112h56M207 119l7-7M214 119l7-7M221 119l7-7M228 119l7-7M235 119l7-7M242 119l7-7M249 119l7-7M256 119l7-7" style="fill:none" transform="matrix(1.13442 0 0 1.13442 -6.298 8.506)"/></g><g font-size="12" font-weight="400" style="font-size:12px;font-style:normal;font-weight:400;fill:none;stroke:navy;stroke-width:2;stroke-linecap:square;stroke-linejoin:bevel;stroke-opacity:1;font-family:Helvetica"><path d="M315 145v12M315 157l7 3M322 160l-14 6M308 166l14 6M322 172l-14 6M308 178l14 6M322 184l-14 6M308 190l7 3M315 193v12" style="fill:none" transform="matrix(1.13442 0 0 1.13442 -6.298 8.506)"/></g><g font-size="12" font-weight="400" style="font-size:12px;font-style:normal;font-weight:400;fill:none;stroke:navy;stroke-width:2;stroke-linecap:square;stroke-linejoin:bevel;stroke-opacity:1;font-family:Helvetica"><path d="M205 225h60M207 232h56M207 239l7-7M214 239l7-7M221 239l7-7M228 239l7-7M235 239l7-7M242 239l7-7M249 239l7-7M256 239l7-7" style="fill:none" transform="matrix(1.13442 0 0 1.13442 -6.298 8.506)"/></g><g font-size="12" font-weight="400" style="font-size:12px;font-style:normal;font-weight:400;fill:none;stroke:navy;stroke-width:2;stroke-linecap:square;stroke-linejoin:bevel;stroke-opacity:1;font-family:Helvetica"><path d="M75 165h60M77 172h56M77 179l7-7M84 179l7-7M91 179l7-7M98 179l7-7M105 179l7-7M112 179l7-7M119 179l7-7M126 179l7-7" style="fill:none" transform="matrix(1.13442 0 0 1.13442 -6.298 8.506)"/></g><g font-size="12" font-weight="400" style="font-size:12px;font-style:normal;font-weight:400;fill:none;stroke:navy;stroke-width:2;stroke-linecap:square;stroke-linejoin:bevel;stroke-opacity:1;font-family:Helvetica"><path d="M165 105v60M165 225h40M165 105h40M265 225h50M315 205v20M265 105h50M315 105v40M315 225h100M315 105h100M165 165v60M135 165h30M15 165h60" style="fill:none" transform="matrix(1.13442 0 0 1.13442 -6.298 8.506)"/></g><g font-size="12" font-weight="400" style="font-size:12px;font-style:normal;font-weight:400;fill:navy;fill-opacity:1;fill-rule:evenodd;stroke:none;font-family:Helvetica"><path d="M203 223h4v4h-4z" style="fill-rule:evenodd" transform="matrix(1.13442 0 0 1.13442 -6.298 8.506)" vector-effect="non-scaling-stroke"/></g><g font-size="12" font-weight="400" style="font-size:12px;font-style:normal;font-weight:400;fill:navy;fill-opacity:1;fill-rule:evenodd;stroke:none;font-family:Helvetica"><path d="M263 223h4v4h-4z" style="fill-rule:evenodd" transform="matrix(1.13442 0 0 1.13442 -6.298 8.506)" vector-effect="non-scaling-stroke"/></g><g font-size="12" font-weight="400" style="font-size:12px;font-style:normal;font-weight:400;fill:navy;fill-opacity:1;fill-rule:evenodd;stroke:none;font-family:Helvetica"><path d="M203 103h4v4h-4z" style="fill-rule:evenodd" transform="matrix(1.13442 0 0 1.13442 -6.298 8.506)" vector-effect="non-scaling-stroke"/></g><g font-size="12" font-weight="400" style="font-size:12px;font-style:normal;font-weight:400;fill:navy;fill-opacity:1;fill-rule:evenodd;stroke:none;font-family:Helvetica"><path d="M263 103h4v4h-4z" style="fill-rule:evenodd" transform="matrix(1.13442 0 0 1.13442 -6.298 8.506)" vector-effect="non-scaling-stroke"/></g><g font-size="12" font-weight="400" style="font-size:12px;font-style:normal;font-weight:400;fill:navy;fill-opacity:1;fill-rule:evenodd;stroke:none;font-family:Helvetica"><path d="M313 143h4v4h-4z" style="fill-rule:evenodd" transform="matrix(1.13442 0 0 1.13442 -6.298 8.506)" vector-effect="non-scaling-stroke"/></g><g font-size="12" font-weight="400" style="font-size:12px;font-style:normal;font-weight:400;fill:navy;fill-opacity:1;fill-rule:evenodd;stroke:none;font-family:Helvetica"><path d="M313 203h4v4h-4z" style="fill-rule:evenodd" transform="matrix(1.13442 0 0 1.13442 -6.298 8.506)" vector-effect="non-scaling-stroke"/></g><g font-size="12" font-weight="400" style="font-size:12px;font-style:normal;font-weight:400;fill:navy;fill-opacity:1;fill-rule:evenodd;stroke:navy;stroke-width:1;stroke-linecap:square;stroke-linejoin:bevel;stroke-opacity:1;font-family:Helvetica"><path d="M318 225a3 3 0 1 1-6 0 3 3 0 0 1 6 0" style="fill-rule:evenodd" transform="matrix(1.13442 0 0 1.13442 -6.298 8.506)"/></g><g font-size="12" font-weight="400" style="font-size:12px;font-style:normal;font-weight:400;fill:navy;fill-opacity:1;fill-rule:evenodd;stroke:navy;stroke-width:1;stroke-linecap:square;stroke-linejoin:bevel;stroke-opacity:1;font-family:Helvetica"><path d="M318 105a3 3 0 1 1-6 0 3 3 0 0 1 6 0" style="fill-rule:evenodd" transform="matrix(1.13442 0 0 1.13442 -6.298 8.506)"/></g><g font-size="12" font-weight="400" style="font-size:12px;font-style:normal;font-weight:400;fill:none;stroke:red;stroke-width:1;stroke-linecap:square;stroke-linejoin:bevel;stroke-opacity:1;font-family:Helvetica"><path stroke-width="1.13442" d="M469.022 263.75a4.538 4.538 0 1 1-9.076-.001 4.538 4.538 0 0 1 9.076 0M469.022 127.62a4.538 4.538 0 1 1-9.076-.001 4.538 4.538 0 0 1 9.076 0"/></g><g font-size="12" font-weight="400" style="font-size:12px;font-style:normal;font-weight:400;fill:navy;fill-opacity:1;fill-rule:evenodd;stroke:none;font-family:Helvetica"><path d="M73 163h4v4h-4z" style="fill-rule:evenodd" transform="matrix(1.13442 0 0 1.13442 -6.298 8.506)" vector-effect="non-scaling-stroke"/></g><g font-size="12" font-weight="400" style="font-size:12px;font-style:normal;font-weight:400;fill:navy;fill-opacity:1;fill-rule:evenodd;stroke:none;font-family:Helvetica"><path d="M133 163h4v4h-4z" style="fill-rule:evenodd" transform="matrix(1.13442 0 0 1.13442 -6.298 8.506)" vector-effect="non-scaling-stroke"/></g><g font-size="12" font-weight="400" style="font-size:12px;font-style:normal;font-weight:400;fill:navy;fill-opacity:1;fill-rule:evenodd;stroke:navy;stroke-width:1;stroke-linecap:square;stroke-linejoin:bevel;stroke-opacity:1;font-family:Helvetica"><path d="M168 165a3 3 0 1 1-6 0 3 3 0 0 1 6 0" style="fill-rule:evenodd" transform="matrix(1.13442 0 0 1.13442 -6.298 8.506)"/></g><path d="M19 165a4 4 0 1 1-8 0 4 4 0 0 1 8 0" font-size="12" font-weight="400" style="font-size:12px;font-style:normal;font-weight:400;fill:none;stroke:red;stroke-width:1;stroke-linecap:square;stroke-linejoin:bevel;stroke-opacity:1;font-family:Helvetica" transform="matrix(1.13442 0 0 1.13442 -6.298 8.506)"/></svg>