<svg xmlns="http://www.w3.org/2000/svg" width="128.001" height="128.08"><g transform="translate(-263.598 -223.286)"><rect width="123.157" height="123.231" x="266.02" y="225.712" ry="24.56" style="fill:#f90;fill-opacity:1;stroke:none"/><path d="M387.689 241.832c-19.34 18.013-80.138 79.086-105.423 105.698a24.6 24.6 0 0 0 8.293 1.424h20.31l42.92-42.946 35.383-35.435v-20.291c0-2.967-.528-5.822-1.483-8.45m-111.598 11.75c-3.513-.002-6.953.826-10.08 2.333v42.582c3.709 1.622 7.993 2.32 12.592 1.878 8.192-.788 8.654-.58 16.678 7.571 4.542 4.614 8.644 8.39 9.11 8.39.467 0 3.421-2.49 6.569-5.543l5.72-5.542-9.02-9.146c-8.347-8.458-8.987-9.669-8.565-16.537.612-9.97-1.805-15.617-9.08-21.17-4.339-3.31-9.187-4.81-13.924-4.815m-.726 14.296c6.244 0 10.14 3.311 10.14 8.601 0 6.063-3.984 10.449-9.505 10.449-2.242 0-5.315-1.23-6.81-2.726-5.628-5.632-1.582-16.324 6.175-16.324m104.333 19.11L342.56 324.15 317.8 348.954h29.42l17.465-17.506 24.487-24.531v-10.63l-2.058-2.03zm-1.755 39.766-17.223 17.293-4.873 4.907h8.778c9.676 0 18.002-5.558 22.004-13.66l-1.27-1.241z" style="fill:#e99416;fill-opacity:1;stroke:none"/><path d="m342.438 278.465 30.963-30.993-3.803-3.897c-2.092-2.143-4.262-3.896-4.822-3.896-1.558 0-69.467 68.313-68.686 69.095.376.376 3.992.684 8.034.684h7.351zm10.1 14.25 16.712-16.744-4.154-4.08-4.154-4.079-20.794 20.823-20.793 20.823h16.47zm14.18 11.136 5.545-5.607-4.15-4.076-4.15-4.075-9.64 9.682-9.64 9.683h16.49zm-52.267-22.7 3.205-3.108-5.05-5.116c-4.674-4.736-5.03-5.425-4.794-9.27.343-5.584-1.012-8.74-5.086-11.85-8.638-6.592-20.93-.34-20.93 10.647 0 7.999 6.38 13.648 14.531 12.864 4.588-.441 4.852-.321 9.345 4.244 2.544 2.584 4.838 4.698 5.1 4.698.26 0 1.916-1.399 3.679-3.109m-23.384-14.89c-3.152-3.154-.89-9.138 3.454-9.138 3.497 0 5.678 1.849 5.678 4.811 0 3.395-2.235 5.85-5.327 5.85-1.255 0-2.968-.685-3.805-1.523" style="fill:#fff"/><g style="font-size:42.92330933px;font-style:normal;font-variant:normal;font-weight:700;font-stretch:normal;line-height:125%;letter-spacing:0;word-spacing:0;fill:#fff;fill-opacity:1;stroke:none;font-family:Blue Highway;-inkscape-font-specification:Blue Highway Bold"><path d="M172.82 339.211q0 5.967-3.305 9.315l1.588 1.845-3.906 3.263-1.931-2.49q-2.404.773-4.765.773-5.45 0-8.713-3.606-3.22-3.606-3.22-9.1 0-5.837 3.134-9.185 3.176-3.39 8.97-3.391 5.752 0 9.015 3.434 3.133 3.349 3.133 9.142m-6.095 0q0-7.597-6.052-7.597t-6.052 7.597q0 7.64 5.88 7.64.6 0 1.288-.085l-2.919-3.606 4.207-2.79 2.79 3.52q.858-1.76.858-4.679M195.92 351.445h-5.15v-1.632q-2.06 1.932-5.323 1.932-3.133 0-5.065-1.846-1.932-1.888-1.931-5.022v-12.533h5.15l.043 10.816q0 3.692 3.262 3.692 1.589 0 2.705-1.03 1.158-1.074 1.159-2.662v-10.816h5.15zM219.132 348.74q-2.704 3.134-7.425 3.134-4.507 0-7.126-2.661-2.575-2.704-2.575-7.254 0-4.293 2.704-7.083 2.748-2.832 6.997-2.833 4.035 0 6.782 2.619l-3.906 2.961q-1.074-1.03-2.876-1.03-2.19 0-3.348 1.674-1.03 1.46-1.03 3.734 0 5.366 4.42 5.366 1.975 0 3.091-1.202zM240.014 345.521q0 6.267-8.928 6.267-2.618 0-7.125-1.803l1.802-4.078q2.447 1.46 5.838 1.46 3.005 0 3.005-1.717 0-.816-2.747-1.502-3.606-.902-5.065-1.717-2.748-1.545-2.748-4.593.001-3.177 2.876-4.808 2.361-1.373 5.795-1.373 3.95 0 6.481 1.674l-1.588 4.464q-2.961-1.674-5.794-1.674-2.104 0-2.104 1.502 0 .901 2.662 1.545 3.648.902 4.979 1.675 2.66 1.587 2.661 4.678" style="fill:#fff;font-family:Blue Highway;-inkscape-font-specification:Blue Highway Bold" transform="matrix(.96857 0 0 .96915 139.413 -.91)"/></g><rect width="123.157" height="123.231" x="266.02" y="225.712" ry="24.56" style="fill:none;stroke:#634e2d;stroke-width:4.84431839;stroke-linecap:round;stroke-linejoin:miter;stroke-miterlimit:4;stroke-opacity:1;stroke-dasharray:none;stroke-dashoffset:0"/></g></svg>