<svg xmlns="http://www.w3.org/2000/svg" width="200" height="180"><g fill="none"><g stroke-width=".981"><path stroke="#000" d="M17.224 146.777V25.097l3.476 10.43M17.224 146.777h156.45l-10.43-3.477"/><path stroke="red" d="M17.224 59.858c6.362-6.317 9.682-10.816 17.383-10.43S46.46 59.774 51.99 59.858c5.528.084 7.875-9.782 17.383-10.43s14.846 5.098 17.383 10.43l17.383 86.914c.238-9.614 2.393-17.075 17.383-17.383 9.16.358 16.607 3.98 17.383 17.383 1-11.068 7.04-16.592 17.383-17.383"/></g><g stroke="#000"><path stroke-width=".981" d="M69.372 49.428h52.148"/><path stroke-width=".621" d="M34.607 49.428h13.906"/><g stroke-width=".981"><path d="M45.036 28.569v20.859l3.476-10.43M45.036 77.24V59.859M45.036 49.428v10.43"/></g></g></g><text xml:space="preserve" x="27.979" y="78.817" stroke-width=".981" font-family="sans-serif" font-size="11.774" letter-spacing="0" style="line-height:0%" transform="translate(-3.802 -5.053)" word-spacing="0"><tspan x="27.979" y="78.817" style="line-height:1.25">Rp</tspan></text><path fill="none" stroke="#000" stroke-width=".981" d="M86.755 59.858v45.195M17.224 101.577h69.53"/><text xml:space="preserve" x="48.496" y="98.885" stroke-width=".981" font-family="sans-serif" font-size="11.774" letter-spacing="0" style="line-height:0%" transform="translate(-3.802 -5.053)" word-spacing="0"><tspan x="48.496" y="98.885" style="line-height:1.25">Fc</tspan></text><g fill="none" stroke="#000" stroke-width=".981"><path d="M17.224 146.777v17.383M97.188 112.007v52.148M97.188 160.677H17.227l10.43-3.477"/></g><text xml:space="preserve" x="53.402" y="178.079" stroke-width=".981" font-family="sans-serif" font-size="11.774" letter-spacing="0" style="line-height:0%" transform="translate(-3.802 -5.053)" word-spacing="0"><tspan x="53.402" y="178.079" style="line-height:1.25">Fs</tspan></text><g fill="none" stroke="#000" stroke-width=".981"><path d="M69.372 49.428h90.39M97.188 112.007h62.578M156.288 112.007V49.429l3.476 10.43"/></g><g stroke-width=".981" font-family="sans-serif" font-size="11.774" letter-spacing="0" word-spacing="0"><text xml:space="preserve" x="166.236" y="90.825" style="line-height:0%" transform="translate(-3.802 -5.053)"><tspan x="166.236" y="90.825" style="line-height:1.25">As</tspan></text><text xml:space="preserve" x="21.026" y="19.716" style="line-height:0%" transform="translate(-3.802 -5.053)"><tspan x="21.026" y="19.716" style="line-height:1.25">K (dB)</tspan></text><text xml:space="preserve" x="167.988" y="170.019" style="line-height:0%" transform="translate(-3.802 -5.053)"><tspan x="167.988" y="170.019" style="line-height:1.25">F (Hz)</tspan></text><text xml:space="preserve" x="6.797" y="154.951" style="line-height:0%" transform="translate(-3.802 -5.053)"><tspan x="6.797" y="154.951" style="line-height:1.25">0</tspan></text></g><g fill="none" stroke="#000"><path stroke-width=".981" d="M41.56 59.858h10.43"/><path stroke-width=".621" d="M90.232 49.428h13.906"/><g stroke-width=".981"><path d="M100.658 28.569v20.859l3.476-10.43M100.658 77.24V59.859l3.476 10.43M100.658 49.428v10.43"/></g></g><text xml:space="preserve" x="114.893" y="64.911" stroke-width=".981" font-family="sans-serif" font-size="11.774" letter-spacing="0" style="line-height:0%" transform="translate(-3.802 -5.053)" word-spacing="0"><tspan x="114.893" y="64.911" style="line-height:1.25">Ap</tspan></text><g fill="none" stroke="#000" stroke-width=".981"><path d="M86.755 59.858h17.383M27.654 98.097l-10.43 3.476 10.43 3.477M76.325 105.057l10.43-3.477-10.43-3.476M41.56 38.999l3.476 10.43M48.513 70.288l-3.477-10.43-3.477 10.43M17.224 25.092l-3.477 10.43M17.224 160.677l10.43 3.476M86.755 157.197l10.43 3.476-10.43 3.477M173.668 146.777l-10.43 3.476M100.658 59.858l-3.477 10.43M100.658 49.428l-3.477-10.43M156.288 49.428l-3.477 10.43M159.758 101.577l-3.477 10.43-3.476-10.43"/></g></svg>