<svg xmlns="http://www.w3.org/2000/svg" width="200" height="180"><path d="M15.577 141.083V32.226l3.13 9.33" style="fill:none;stroke:#000;stroke-width:.880571px;stroke-linecap:butt;stroke-linejoin:miter;stroke-opacity:1;marker-end:none"/><path d="M15.577 141.083h156.506l-10.434-3.11" style="fill:none;stroke:#000;stroke-width:.928201px;stroke-linecap:butt;stroke-linejoin:miter;stroke-opacity:1;marker-end:none"/><path d="M53.138 35.336v18.661l3.13-9.33" style="fill:none;stroke:#000;stroke-width:.880571px;stroke-linecap:butt;stroke-linejoin:miter;stroke-opacity:1;marker-end:none"/><path d="M53.138 78.88V63.327" style="fill:none;stroke:#000;stroke-width:.880571px;stroke-linecap:butt;stroke-linejoin:miter;stroke-opacity:1;marker-end:none"/><path d="M53.138 53.997v9.331" style="fill:none;stroke:#000;stroke-width:.880571px;stroke-linecap:butt;stroke-linejoin:miter;stroke-opacity:1"/><text xml:space="preserve" x="34.248" y="79.132" style="font-style:normal;font-weight:400;font-size:10.5668px;line-height:0%;font-family:sans-serif;letter-spacing:0;word-spacing:0;fill:#000;fill-opacity:1;stroke:none;stroke-width:.880571" transform="scale(1.0032 .99681)"><tspan x="34.248" y="79.132" style="font-size:10.5668px;line-height:1.25;font-family:sans-serif;stroke-width:.880571">Rp</tspan></text><path d="M15.577 141.083v15.55" style="fill:none;stroke:#000;stroke-width:.880571px;stroke-linecap:butt;stroke-linejoin:miter;stroke-opacity:1"/><path d="M100.09 109.981h43.821" style="fill:none;stroke:#000;stroke-width:.776591px;stroke-linecap:butt;stroke-linejoin:miter;stroke-opacity:1"/><path d="M140.782 109.981V53.997l3.13 9.331" style="fill:none;stroke:#000;stroke-width:.880571px;stroke-linecap:butt;stroke-linejoin:miter;stroke-opacity:1;marker-start:none;marker-end:none"/><text xml:space="preserve" x="145.85" y="86.788" style="font-style:normal;font-weight:400;font-size:10.5668px;line-height:0%;font-family:sans-serif;letter-spacing:0;word-spacing:0;fill:#000;fill-opacity:1;stroke:none;stroke-width:.880571" transform="scale(1.0032 .99681)"><tspan x="145.85" y="86.788" style="font-size:10.5668px;line-height:1.25;font-family:sans-serif;stroke-width:.880571">As</tspan></text><text xml:space="preserve" x="15.528" y="22.969" style="font-style:normal;font-weight:400;font-size:10.5668px;line-height:0%;font-family:sans-serif;letter-spacing:0;word-spacing:0;fill:#000;fill-opacity:1;stroke:none;stroke-width:.880571" transform="scale(1.0032 .99681)"><tspan x="15.528" y="22.969" style="font-size:10.5668px;line-height:1.25;font-family:sans-serif;stroke-width:.880571">K (dB)</tspan></text><text xml:space="preserve" x="163.023" y="157.863" style="font-style:normal;font-weight:400;font-size:10.5668px;line-height:0%;font-family:sans-serif;letter-spacing:0;word-spacing:0;fill:#000;fill-opacity:1;stroke:none;stroke-width:.880571" transform="scale(1.0032 .99681)"><tspan x="163.023" y="157.863" style="font-size:10.5668px;line-height:1.25;font-family:sans-serif;stroke-width:.880571">F (Hz)</tspan></text><text xml:space="preserve" x="2.757" y="144.34" style="font-style:normal;font-weight:400;font-size:10.5668px;line-height:0%;font-family:sans-serif;letter-spacing:0;word-spacing:0;fill:#000;fill-opacity:1;stroke:none;stroke-width:.880571" transform="scale(1.0032 .99681)"><tspan x="2.757" y="144.34" style="font-size:10.5668px;line-height:1.25;font-family:sans-serif;stroke-width:.880571">0</tspan></text><path d="m50.008 44.667 3.13 9.33m3.13 18.662-3.13-9.33-3.13 9.33M15.577 32.226l-3.13 9.33" style="fill:none;stroke:#000;stroke-width:.880571px;stroke-linecap:butt;stroke-linejoin:miter;stroke-opacity:1"/><path d="m171.998 141.167-10.424 3.98" style="fill:none;stroke:#000;stroke-width:1.04953px;stroke-linecap:butt;stroke-linejoin:miter;stroke-opacity:1"/><path d="m140.78 53.998-3.13 9.331m6.261 37.322-3.13 9.33-3.13-9.33" style="fill:none;stroke:#000;stroke-width:.880571px;stroke-linecap:butt;stroke-linejoin:miter;stroke-opacity:1"/><path d="M50.008 63.328h15.65" style="fill:none;stroke:#000;stroke-width:.622658px;stroke-linecap:butt;stroke-linejoin:miter;stroke-opacity:1"/><path d="M125.13 53.997h18.781" style="fill:none;stroke:#000;stroke-width:.59823px;stroke-linecap:butt;stroke-linejoin:miter;stroke-opacity:1"/><text xml:space="preserve" x="59.209" y="154.015" style="font-style:normal;font-weight:400;font-size:10.5668px;line-height:0%;font-family:sans-serif;letter-spacing:0;word-spacing:0;fill:#000;fill-opacity:1;stroke:none;stroke-width:.880571" transform="scale(1.0032 .99681)"><tspan x="59.209" y="154.015" style="font-size:10.5668px;line-height:1.25;font-family:sans-serif;stroke-width:.880571">Fl</tspan></text><text xml:space="preserve" x="109.132" y="154.015" style="font-style:normal;font-weight:400;font-size:10.5668px;line-height:0%;font-family:sans-serif;letter-spacing:0;word-spacing:0;fill:#000;fill-opacity:1;stroke:none;stroke-width:.880571" transform="scale(1.0032 .99681)"><tspan x="109.132" y="154.015" style="font-size:10.5668px;line-height:1.25;font-family:sans-serif;stroke-width:.880571">Fu</tspan></text><path d="M65.658 63.329v77.754M112.61 63.33v77.754" style="fill:none;stroke:#000;stroke-width:.880571;stroke-linecap:butt;stroke-linejoin:miter;stroke-miterlimit:4;stroke-dasharray:.880571,.880571;stroke-dashoffset:0;stroke-opacity:1"/><path d="m90.7 103.761 9.39-3.11-9.39-3.11" style="fill:none;stroke:#000;stroke-width:.880571px;stroke-linecap:butt;stroke-linejoin:miter;stroke-opacity:1"/><path d="M84.44 100.65h46.951" style="fill:none;stroke:#000;stroke-width:.911479px;stroke-linecap:butt;stroke-linejoin:miter;stroke-opacity:1"/><path d="m122 103.761-9.39-3.11 9.39-3.11" style="fill:none;stroke:#000;stroke-width:.880571px;stroke-linecap:butt;stroke-linejoin:miter;stroke-opacity:1"/><text xml:space="preserve" x="81.05" y="97.853" style="font-style:normal;font-weight:400;font-size:10.5668px;line-height:0%;font-family:sans-serif;letter-spacing:0;word-spacing:0;fill:#000;fill-opacity:1;stroke:none;stroke-width:.880571" transform="scale(1.0032 .99681)"><tspan x="81.05" y="97.853" style="font-size:10.5668px;line-height:1.25;font-family:sans-serif;stroke-width:.880571">TW</tspan></text><path d="M53.138 53.998c3.074.048 6.169.437 9.39 3.11l3.13 6.22 21.911 77.755m-34.43-87.085c-2.814 0-5.569-.188-9.391 3.11m0 0c-2.385 3.099-5.092 5.754-9.39 6.22m0 .001c-1.38-.127-2.976-.85-6.261-6.22m0 0c-4.88-3.6-5.018-2.85-6.26-3.112-.96.6-1.63-.31-3.13 3.111l-3.13 6.22M125.13 53.997c-3.074.049-6.168.438-9.39 3.111l-3.13 6.22-21.91 77.755m34.43-87.086c2.813 0 5.569-.187 9.391 3.111m0 0c2.385 3.099 5.092 5.754 9.39 6.22m0 0c1.38-.126 2.976-.849 6.26-6.22m0 0c4.88-3.599 5.019-2.848 6.26-3.11.96.598 1.63-.311 3.131 3.11l3.13 6.22" style="fill:none;stroke:red;stroke-width:.880571px;stroke-linecap:butt;stroke-linejoin:miter;stroke-opacity:1"/></svg>