<svg xmlns="http://www.w3.org/2000/svg" width="200" height="180"><path d="M16.956 146.416V29.429l3.342 10.028" style="fill:none;stroke:#000;stroke-width:.943315px;stroke-linecap:butt;stroke-linejoin:miter;stroke-opacity:1;marker-end:none"/><path d="M16.956 146.416h167.122l-11.141-3.343" style="fill:none;stroke:#000;stroke-width:.994338px;stroke-linecap:butt;stroke-linejoin:miter;stroke-opacity:1;marker-end:none"/><path d="M70.435 62.854c4.588-6.073 6.98-10.4 12.534-10.027 5.553.371 8.548 9.947 12.534 10.027s5.679-9.405 12.535-10.027c6.855-.623 10.704 4.902 12.534 10.027l12.533 83.562c.172-9.244 1.727-16.417 12.535-16.713 6.604.344 11.975 3.828 12.534 16.713.722-10.641 5.076-15.952 12.535-16.713" style="fill:none;stroke:red;stroke-width:.81691;stroke-linecap:butt;stroke-linejoin:miter;stroke-miterlimit:4;stroke-dasharray:none;stroke-opacity:1"/><path d="M43.695 32.772v20.055l3.342-10.028" style="fill:none;stroke:#000;stroke-width:.943315px;stroke-linecap:butt;stroke-linejoin:miter;stroke-opacity:1;marker-end:none"/><path d="M43.695 79.567V62.854" style="fill:none;stroke:#000;stroke-width:.943315px;stroke-linecap:butt;stroke-linejoin:miter;stroke-opacity:1;marker-end:none"/><path d="M43.695 52.827v10.027" style="fill:none;stroke:#000;stroke-width:.943315px;stroke-linecap:butt;stroke-linejoin:miter;stroke-opacity:1"/><text xml:space="preserve" x="23.64" y="76.224" style="font-style:normal;font-weight:400;font-size:11.3198px;line-height:0%;font-family:sans-serif;letter-spacing:0;word-spacing:0;fill:#000;fill-opacity:1;stroke:none;stroke-width:.943315"><tspan x="23.64" y="76.224" style="font-size:11.3198px;line-height:1.25;font-family:sans-serif;stroke-width:.943315">Rp</tspan></text><path d="M16.956 146.416v16.711" style="fill:none;stroke:#000;stroke-width:.943315px;stroke-linecap:butt;stroke-linejoin:miter;stroke-opacity:1"/><path d="M127.257 112.991h26.739" style="fill:none;stroke:#000;stroke-width:.628877px;stroke-linecap:butt;stroke-linejoin:miter;stroke-opacity:1"/><path d="M150.654 112.991V52.827l3.342 10.027" style="fill:none;stroke:#000;stroke-width:.943315px;stroke-linecap:butt;stroke-linejoin:miter;stroke-opacity:1;marker-start:none;marker-end:none"/><text xml:space="preserve" x="156.564" y="87.769" style="font-style:normal;font-weight:400;font-size:11.3198px;line-height:0%;font-family:sans-serif;letter-spacing:0;word-spacing:0;fill:#000;fill-opacity:1;stroke:none;stroke-width:.943315"><tspan x="156.564" y="87.769" style="font-size:11.3198px;line-height:1.25;font-family:sans-serif;stroke-width:.943315">As</tspan></text><text xml:space="preserve" x="16.956" y="19.402" style="font-style:normal;font-weight:400;font-size:11.3198px;line-height:0%;font-family:sans-serif;letter-spacing:0;word-spacing:0;fill:#000;fill-opacity:1;stroke:none;stroke-width:.943315"><tspan x="16.956" y="19.402" style="font-size:11.3198px;line-height:1.25;font-family:sans-serif;stroke-width:.943315">K (dB)</tspan></text><text xml:space="preserve" x="160.681" y="163.127" style="font-style:normal;font-weight:400;font-size:11.3198px;line-height:0%;font-family:sans-serif;letter-spacing:0;word-spacing:0;fill:#000;fill-opacity:1;stroke:none;stroke-width:.943315"><tspan x="160.681" y="163.127" style="font-size:11.3198px;line-height:1.25;font-family:sans-serif;stroke-width:.943315">F (Hz)</tspan></text><text xml:space="preserve" x="3.275" y="149.421" style="font-style:normal;font-weight:400;font-size:11.3198px;line-height:0%;font-family:sans-serif;letter-spacing:0;word-spacing:0;fill:#000;fill-opacity:1;stroke:none;stroke-width:.943315"><tspan x="3.275" y="149.421" style="font-size:11.3198px;line-height:1.25;font-family:sans-serif;stroke-width:.943315">0</tspan></text><path d="m40.352 42.8 3.343 10.027m3.342 20.055-3.342-10.027-3.343 10.027M16.955 29.43l-3.342 10.028" style="fill:none;stroke:#000;stroke-width:.943315px;stroke-linecap:butt;stroke-linejoin:miter;stroke-opacity:1"/><path d="m183.988 146.506-11.131 4.277" style="fill:none;stroke:#000;stroke-width:1.12431px;stroke-linecap:butt;stroke-linejoin:miter;stroke-opacity:1"/><path d="m150.653 52.827-3.342 10.028m6.685 40.109-3.343 10.027-3.342-10.027" style="fill:none;stroke:#000;stroke-width:.943315px;stroke-linecap:butt;stroke-linejoin:miter;stroke-opacity:1"/><path d="M20.298 129.703c7.458.76 11.813 6.071 12.534 16.713.56-12.886 5.93-16.368 12.535-16.713 10.807.296 12.362 7.469 12.534 16.713l12.534-83.562c1.83-5.125 5.68-10.65 12.535-10.027 6.856.622 8.547 10.108 12.534 10.027s6.981-9.656 12.535-10.027c5.552-.372 7.946 3.954 12.534 10.027" style="fill:none;stroke:red;stroke-width:.81691;stroke-linecap:butt;stroke-linejoin:miter;stroke-miterlimit:4;stroke-dasharray:none;stroke-opacity:1"/><path d="M37.01 52.827h43.452M37.01 62.855h33.424m40.11-10.028h43.452" style="fill:none;stroke:#000;stroke-width:.943315px;stroke-linecap:butt;stroke-linejoin:miter;stroke-opacity:1"/><text xml:space="preserve" x="63.75" y="159.785" style="font-style:normal;font-weight:400;font-size:11.3198px;line-height:0%;font-family:sans-serif;letter-spacing:0;word-spacing:0;fill:#000;fill-opacity:1;stroke:none;stroke-width:.943315"><tspan x="63.75" y="159.785" style="font-size:11.3198px;line-height:1.25;font-family:sans-serif;stroke-width:.943315">Fl</tspan></text><text xml:space="preserve" x="117.229" y="159.785" style="font-style:normal;font-weight:400;font-size:11.3198px;line-height:0%;font-family:sans-serif;letter-spacing:0;word-spacing:0;fill:#000;fill-opacity:1;stroke:none;stroke-width:.943315"><tspan x="117.229" y="159.785" style="font-size:11.3198px;line-height:1.25;font-family:sans-serif;stroke-width:.943315">Fu</tspan></text><path d="M70.434 62.855v83.56m50.138-83.56v83.56" style="fill:none;stroke:#000;stroke-width:.943315;stroke-linecap:butt;stroke-linejoin:miter;stroke-miterlimit:4;stroke-dasharray:.943315,.943315;stroke-dashoffset:0;stroke-opacity:1"/><path d="m110.545 106.307 10.028-3.343-10.028-3.342" style="fill:none;stroke:#000;stroke-width:.943315px;stroke-linecap:butt;stroke-linejoin:miter;stroke-opacity:1"/><path d="M90.49 102.964h50.136" style="fill:none;stroke:#000;stroke-width:.976425px;stroke-linecap:butt;stroke-linejoin:miter;stroke-opacity:1"/><path d="m137.284 106.307-10.027-3.343 10.027-3.342" style="fill:none;stroke:#000;stroke-width:.943315px;stroke-linecap:butt;stroke-linejoin:miter;stroke-opacity:1"/><text xml:space="preserve" x="93.529" y="99.524" style="font-style:normal;font-weight:400;font-size:11.3198px;line-height:0%;font-family:sans-serif;letter-spacing:0;word-spacing:0;fill:#000;fill-opacity:1;stroke:none;stroke-width:.943315"><tspan x="93.529" y="99.524" style="font-size:11.3198px;line-height:1.25;font-family:sans-serif;stroke-width:.943315">TW</tspan></text></svg>