<svg xmlns="http://www.w3.org/2000/svg" width="642" height="396" version="1.2"><desc>Generated with Qt</desc><g font-size="16" font-weight="400" style="fill:none;stroke:#000;stroke-width:1;stroke-linecap:square;stroke-linejoin:bevel"><g style="font-size:16px;font-style:normal;font-weight:400;fill:none;stroke:navy;stroke-width:2;stroke-linecap:square;stroke-linejoin:bevel;stroke-opacity:1;font-family:Helvetica"><path d="M189 206v10" style="fill:none"/></g><g style="font-size:16px;font-style:normal;font-weight:400;fill:none;stroke:navy;stroke-width:3;stroke-linecap:square;stroke-linejoin:bevel;stroke-opacity:1;font-family:Helvetica"><path d="M178 216h22M182 222h14M186 228h6" style="fill:none"/></g><g style="font-size:16px;font-style:normal;font-weight:400;fill:none;stroke:navy;stroke-width:2;stroke-linecap:square;stroke-linejoin:bevel;stroke-opacity:1;font-family:Helvetica"><path d="M111 127h36M147 127v18M147 145h-36M111 145v-18M99 136h12M147 136h12" style="fill:none"/></g><g style="font-size:16px;font-style:normal;font-weight:400;fill:none;stroke:#000;stroke-width:1;stroke-linecap:square;stroke-linejoin:bevel;stroke-opacity:1;font-family:Helvetica"><text xml:space="preserve" x="103" y="165" font-size="16" style="font-style:normal;font-weight:400;font-size:16px;line-height:0%;font-family:Helvetica;fill:#000;fill-opacity:1;stroke:none">R1</text></g><g style="font-size:16px;font-style:normal;font-weight:400;fill:none;stroke:navy;stroke-width:2;stroke-linecap:square;stroke-linejoin:bevel;stroke-opacity:1;font-family:Helvetica"><path d="M479 156h10M479 196h10M539 176h10M489 141v70M489 141l50 35M489 211l50-35" style="fill:none"/></g><g style="font-size:16px;font-style:normal;font-weight:400;fill:none;stroke:#000;stroke-width:1;stroke-linecap:square;stroke-linejoin:bevel;stroke-opacity:1;font-family:Helvetica"><path d="M493 195h7" style="fill:none"/></g><g style="font-size:16px;font-style:normal;font-weight:400;fill:none;stroke:red;stroke-width:1;stroke-linecap:square;stroke-linejoin:bevel;stroke-opacity:1;font-family:Helvetica"><path d="M493 157h7M496 154v7" style="fill:none"/></g><g style="font-size:16px;font-style:normal;font-weight:400;fill:none;stroke:#000;stroke-width:1;stroke-linecap:square;stroke-linejoin:bevel;stroke-opacity:1;font-family:Helvetica"><text xml:space="preserve" x="483" y="232" font-size="16" style="font-style:normal;font-weight:400;font-size:16px;line-height:0%;font-family:Helvetica;fill:#000;fill-opacity:1;stroke:none">OP3</text></g><g style="font-size:16px;font-style:normal;font-weight:400;fill:none;stroke:navy;stroke-width:2;stroke-linecap:square;stroke-linejoin:bevel;stroke-opacity:1;font-family:Helvetica"><path d="M219 336h10M219 296h10M279 316h10M229 351v-70M229 351l50-35M229 281l50 35" style="fill:none"/></g><g style="font-size:16px;font-style:normal;font-weight:400;fill:none;stroke:#000;stroke-width:1;stroke-linecap:square;stroke-linejoin:bevel;stroke-opacity:1;font-family:Helvetica"><path d="M233 297h7" style="fill:none"/></g><g style="font-size:16px;font-style:normal;font-weight:400;fill:none;stroke:red;stroke-width:1;stroke-linecap:square;stroke-linejoin:bevel;stroke-opacity:1;font-family:Helvetica"><path d="M233 335h7M236 338v-7" style="fill:none"/></g><g style="font-size:16px;font-style:normal;font-weight:400;fill:none;stroke:#000;stroke-width:1;stroke-linecap:square;stroke-linejoin:bevel;stroke-opacity:1;font-family:Helvetica"><text xml:space="preserve" x="223" y="274" font-size="16" style="font-style:normal;font-weight:400;font-size:16px;line-height:0%;font-family:Helvetica;fill:#000;fill-opacity:1;stroke:none">OP2</text></g><g style="font-size:16px;font-style:normal;font-weight:400;fill:none;stroke:navy;stroke-width:4;stroke-linecap:square;stroke-linejoin:bevel;stroke-opacity:1;font-family:Helvetica"><path d="M275 55v22M283 55v22" style="fill:none"/></g><g style="font-size:16px;font-style:normal;font-weight:400;fill:none;stroke:navy;stroke-width:2;stroke-linecap:square;stroke-linejoin:bevel;stroke-opacity:1;font-family:Helvetica"><path d="M249 66h26M283 66h26" style="fill:none"/></g><g style="font-size:16px;font-style:normal;font-weight:400;fill:none;stroke:#000;stroke-width:1;stroke-linecap:square;stroke-linejoin:bevel;stroke-opacity:1;font-family:Helvetica"><text xml:space="preserve" x="253" y="97" font-size="16" style="font-style:normal;font-weight:400;font-size:16px;line-height:0%;font-family:Helvetica;fill:#000;fill-opacity:1;stroke:none">C1</text></g><g style="font-size:16px;font-style:normal;font-weight:400;fill:none;stroke:navy;stroke-width:2;stroke-linecap:square;stroke-linejoin:bevel;stroke-opacity:1;font-family:Helvetica"><path d="M189 176h10M189 136h10M249 156h10M199 191v-70M199 191l50-35M199 121l50 35" style="fill:none"/></g><g style="font-size:16px;font-style:normal;font-weight:400;fill:none;stroke:#000;stroke-width:1;stroke-linecap:square;stroke-linejoin:bevel;stroke-opacity:1;font-family:Helvetica"><path d="M203 137h7" style="fill:none"/></g><g style="font-size:16px;font-style:normal;font-weight:400;fill:none;stroke:red;stroke-width:1;stroke-linecap:square;stroke-linejoin:bevel;stroke-opacity:1;font-family:Helvetica"><path d="M203 175h7M206 178v-7" style="fill:none"/></g><g style="font-size:16px;font-style:normal;font-weight:400;fill:none;stroke:#000;stroke-width:1;stroke-linecap:square;stroke-linejoin:bevel;stroke-opacity:1;font-family:Helvetica"><text xml:space="preserve" x="193" y="114" font-size="16" style="font-style:normal;font-weight:400;font-size:16px;line-height:0%;font-family:Helvetica;fill:#000;fill-opacity:1;stroke:none">OP1</text></g><g style="font-size:16px;font-style:normal;font-weight:400;fill:none;stroke:navy;stroke-width:2;stroke-linecap:square;stroke-linejoin:bevel;stroke-opacity:1;font-family:Helvetica"><path d="M199 356v10" style="fill:none"/></g><g style="font-size:16px;font-style:normal;font-weight:400;fill:none;stroke:navy;stroke-width:3;stroke-linecap:square;stroke-linejoin:bevel;stroke-opacity:1;font-family:Helvetica"><path d="M188 366h22M192 372h14M196 378h6" style="fill:none"/></g><g style="font-size:16px;font-style:normal;font-weight:400;fill:none;stroke:navy;stroke-width:4;stroke-linecap:square;stroke-linejoin:bevel;stroke-opacity:1;font-family:Helvetica"><path d="M375 305v22M383 305v22" style="fill:none"/></g><g style="font-size:16px;font-style:normal;font-weight:400;fill:none;stroke:navy;stroke-width:2;stroke-linecap:square;stroke-linejoin:bevel;stroke-opacity:1;font-family:Helvetica"><path d="M349 316h26M383 316h26" style="fill:none"/></g><g style="font-size:16px;font-style:normal;font-weight:400;fill:none;stroke:#000;stroke-width:1;stroke-linecap:square;stroke-linejoin:bevel;stroke-opacity:1;font-family:Helvetica"><text xml:space="preserve" x="353" y="347" font-size="16" style="font-style:normal;font-weight:400;font-size:16px;line-height:0%;font-family:Helvetica;fill:#000;fill-opacity:1;stroke:none">C2</text></g><g style="font-size:16px;font-style:normal;font-weight:400;fill:none;stroke:navy;stroke-width:2;stroke-linecap:square;stroke-linejoin:bevel;stroke-opacity:1;font-family:Helvetica"><path d="M121 287h36M157 287v18M157 305h-36M121 305v-18M109 296h12M157 296h12" style="fill:none"/></g><g style="font-size:16px;font-style:normal;font-weight:400;fill:none;stroke:#000;stroke-width:1;stroke-linecap:square;stroke-linejoin:bevel;stroke-opacity:1;font-family:Helvetica"><text xml:space="preserve" x="113" y="325" font-size="16" style="font-style:normal;font-weight:400;font-size:16px;line-height:0%;font-family:Helvetica;fill:#000;fill-opacity:1;stroke:none">R5</text></g><g style="font-size:16px;font-style:normal;font-weight:400;fill:none;stroke:navy;stroke-width:2;stroke-linecap:square;stroke-linejoin:bevel;stroke-opacity:1;font-family:Helvetica"><path d="M291 237h36M327 237v18M327 255h-36M291 255v-18M279 246h12M327 246h12" style="fill:none"/></g><g style="font-size:16px;font-style:normal;font-weight:400;fill:none;stroke:#000;stroke-width:1;stroke-linecap:square;stroke-linejoin:bevel;stroke-opacity:1;font-family:Helvetica"><text xml:space="preserve" x="283" y="275" font-size="16" style="font-style:normal;font-weight:400;font-size:16px;line-height:0%;font-family:Helvetica;fill:#000;fill-opacity:1;stroke:none">R4</text></g><g style="font-size:16px;font-style:normal;font-weight:400;fill:none;stroke:navy;stroke-width:2;stroke-linecap:square;stroke-linejoin:bevel;stroke-opacity:1;font-family:Helvetica"><path d="M341 147h36M377 147v18M377 165h-36M341 165v-18M329 156h12M377 156h12" style="fill:none"/></g><g style="font-size:16px;font-style:normal;font-weight:400;fill:none;stroke:#000;stroke-width:1;stroke-linecap:square;stroke-linejoin:bevel;stroke-opacity:1;font-family:Helvetica"><text xml:space="preserve" x="333" y="185" font-size="16" style="font-style:normal;font-weight:400;font-size:16px;line-height:0%;font-family:Helvetica;fill:#000;fill-opacity:1;stroke:none">R2</text></g><g style="font-size:16px;font-style:normal;font-weight:400;fill:none;stroke:navy;stroke-width:2;stroke-linecap:square;stroke-linejoin:bevel;stroke-opacity:1;font-family:Helvetica"><path d="M371 17h36M407 17v18M407 35h-36M371 35V17M359 26h12M407 26h12" style="fill:none"/></g><g style="font-size:16px;font-style:normal;font-weight:400;fill:none;stroke:#000;stroke-width:1;stroke-linecap:square;stroke-linejoin:bevel;stroke-opacity:1;font-family:Helvetica"><text xml:space="preserve" x="363" y="55" font-size="16" style="font-style:normal;font-weight:400;font-size:16px;line-height:0%;font-family:Helvetica;fill:#000;fill-opacity:1;stroke:none">R3</text></g><g style="font-size:16px;font-style:normal;font-weight:400;fill:none;stroke:navy;stroke-width:2;stroke-linecap:square;stroke-linejoin:bevel;stroke-opacity:1;font-family:Helvetica"><path d="M29 236v10" style="fill:none"/></g><g style="font-size:16px;font-style:normal;font-weight:400;fill:none;stroke:navy;stroke-width:3;stroke-linecap:square;stroke-linejoin:bevel;stroke-opacity:1;font-family:Helvetica"><path d="M18 246h22M22 252h14M26 258h6" style="fill:none"/></g><g style="font-size:16px;font-style:normal;font-weight:400;fill:none;stroke:navy;stroke-width:2;stroke-linecap:square;stroke-linejoin:bevel;stroke-opacity:1;font-family:Helvetica"><path d="M29 236v-18M29 176v18" style="fill:none"/></g><g style="font-size:16px;font-style:normal;font-weight:400;fill:none;stroke:red;stroke-width:1;stroke-linecap:square;stroke-linejoin:bevel;stroke-opacity:1;font-family:Helvetica"><path d="M34 188h6M37 185v6" style="fill:none"/></g><g style="font-size:16px;font-style:normal;font-weight:400;fill:none;stroke:#000;stroke-width:1;stroke-linecap:square;stroke-linejoin:bevel;stroke-opacity:1;font-family:Helvetica"><path d="M34 224h6" style="fill:none"/></g><g style="font-size:16px;font-style:normal;font-weight:400;fill:none;stroke:navy;stroke-width:2;stroke-linecap:square;stroke-linejoin:bevel;stroke-opacity:1;font-family:Helvetica"><path d="M29.5 194c-6.904 0-12.5 5.596-12.5 12.5S22.596 219 29.5 219 42 213.404 42 206.5 36.404 194 29.5 194"/><path d="M30 206a4 4 0 0 0-8 0M29 206a4 4 0 0 0 8 0"/></g><g style="font-size:16px;font-style:normal;font-weight:400;fill:none;stroke:#000;stroke-width:1;stroke-linecap:square;stroke-linejoin:bevel;stroke-opacity:1;font-family:Helvetica"><text xml:space="preserve" x="47" y="194" font-size="16" style="font-style:normal;font-weight:400;font-size:16px;line-height:0%;font-family:Helvetica;fill:#000;fill-opacity:1;stroke:none">V1</text></g><g style="font-size:16px;font-style:normal;font-weight:400;fill:none;stroke:navy;stroke-width:2;stroke-linecap:square;stroke-linejoin:bevel;stroke-opacity:1;font-family:Helvetica"><path d="M449 286h110M159 136h10M449 196v90M449 196h30M549 176h10M559 176v110M389 156h30M309 156h20M419 156h60M419 156v160M289 316h60M409 316h10M169 296h40M209 296h10M169 66v70M309 66v90M169 66h80M259 156h50M189 176v30M169 136h20M349 246v70M339 246h10M209 246v50M209 246h70M199 336h20M199 336v20M559 26v150" style="fill:none"/></g><g style="font-size:16px;font-style:normal;font-weight:400;fill:none;stroke:#000;stroke-width:1;stroke-linecap:square;stroke-linejoin:bevel;stroke-opacity:1;font-family:Helvetica"><text xml:space="preserve" x="489" y="90" font-size="16" style="font-style:normal;font-weight:400;font-size:16px;line-height:0%;font-family:Helvetica;fill:#000;fill-opacity:1;stroke:none">output</text></g><g style="font-size:16px;font-style:normal;font-weight:400;fill:none;stroke:purple;stroke-width:1;stroke-linecap:square;stroke-linejoin:bevel;stroke-opacity:1;font-family:Helvetica"><path d="M562.947 130.393a4.5 4.5 0 1 0-7.133-.312" vector-effect="non-scaling-stroke"/><path d="M534 94h-21M534 94V77M555 127l-21-33" style="fill:none" vector-effect="non-scaling-stroke"/></g><g style="font-size:16px;font-style:normal;font-weight:400;fill:none;stroke:navy;stroke-width:2;stroke-linecap:square;stroke-linejoin:bevel;stroke-opacity:1;font-family:Helvetica"><path d="M419 26h140M169 26v40M169 26h190M89 136h10M89 136v160M89 296h20M29 136h60" style="fill:none"/></g><g style="font-size:16px;font-style:normal;font-weight:400;fill:none;stroke:#000;stroke-width:1;stroke-linecap:square;stroke-linejoin:bevel;stroke-opacity:1;font-family:Helvetica"><text xml:space="preserve" x="69" y="100" font-size="16" style="font-style:normal;font-weight:400;font-size:16px;line-height:0%;font-family:Helvetica;fill:#000;fill-opacity:1;stroke:none">input</text></g><g style="font-size:16px;font-style:normal;font-weight:400;fill:none;stroke:purple;stroke-width:1;stroke-linecap:square;stroke-linejoin:bevel;stroke-opacity:1;font-family:Helvetica"><path d="M26.607 139.947a4.5 4.5 0 1 0 .311-7.133" vector-effect="non-scaling-stroke"/><path d="M66 104h16M66 104V87M29 132l37-28" style="fill:none" vector-effect="non-scaling-stroke"/></g><g style="font-size:16px;font-style:normal;font-weight:400;fill:none;stroke:navy;stroke-width:2;stroke-linecap:square;stroke-linejoin:bevel;stroke-opacity:1;font-family:Helvetica"><path d="M29 136v40" style="fill:none"/></g><g style="font-size:16px;font-style:normal;font-weight:400;fill:navy;fill-opacity:1;stroke:none;font-family:Helvetica"><path d="M187 204h4v4h-4z" style="fill-rule:evenodd" vector-effect="non-scaling-stroke"/></g><g style="font-size:16px;font-style:normal;font-weight:400;fill:navy;fill-opacity:1;stroke:none;font-family:Helvetica"><path d="M97 134h4v4h-4z" style="fill-rule:evenodd" vector-effect="non-scaling-stroke"/></g><g style="font-size:16px;font-style:normal;font-weight:400;fill:navy;fill-opacity:1;stroke:none;font-family:Helvetica"><path d="M157 134h4v4h-4z" style="fill-rule:evenodd" vector-effect="non-scaling-stroke"/></g><g style="font-size:16px;font-style:normal;font-weight:400;fill:navy;fill-opacity:1;stroke:none;font-family:Helvetica"><path d="M477 194h4v4h-4z" style="fill-rule:evenodd" vector-effect="non-scaling-stroke"/></g><g style="font-size:16px;font-style:normal;font-weight:400;fill:navy;fill-opacity:1;stroke:none;font-family:Helvetica"><path d="M477 154h4v4h-4z" style="fill-rule:evenodd" vector-effect="non-scaling-stroke"/></g><g style="font-size:16px;font-style:normal;font-weight:400;fill:navy;fill-opacity:1;stroke:none;font-family:Helvetica"><path d="M547 174h4v4h-4z" style="fill-rule:evenodd" vector-effect="non-scaling-stroke"/></g><g style="font-size:16px;font-style:normal;font-weight:400;fill:navy;fill-opacity:1;stroke:none;font-family:Helvetica"><path d="M217 294h4v4h-4z" style="fill-rule:evenodd" vector-effect="non-scaling-stroke"/></g><g style="font-size:16px;font-style:normal;font-weight:400;fill:navy;fill-opacity:1;stroke:none;font-family:Helvetica"><path d="M217 334h4v4h-4z" style="fill-rule:evenodd" vector-effect="non-scaling-stroke"/></g><g style="font-size:16px;font-style:normal;font-weight:400;fill:navy;fill-opacity:1;stroke:none;font-family:Helvetica"><path d="M287 314h4v4h-4z" style="fill-rule:evenodd" vector-effect="non-scaling-stroke"/></g><g style="font-size:16px;font-style:normal;font-weight:400;fill:navy;fill-opacity:1;stroke:none;font-family:Helvetica"><path d="M247 64h4v4h-4z" style="fill-rule:evenodd" vector-effect="non-scaling-stroke"/></g><g style="font-size:16px;font-style:normal;font-weight:400;fill:navy;fill-opacity:1;stroke:none;font-family:Helvetica"><path d="M307 64h4v4h-4z" style="fill-rule:evenodd" vector-effect="non-scaling-stroke"/></g><g style="font-size:16px;font-style:normal;font-weight:400;fill:navy;fill-opacity:1;stroke:none;font-family:Helvetica"><path d="M187 134h4v4h-4z" style="fill-rule:evenodd" vector-effect="non-scaling-stroke"/></g><g style="font-size:16px;font-style:normal;font-weight:400;fill:navy;fill-opacity:1;stroke:none;font-family:Helvetica"><path d="M187 174h4v4h-4z" style="fill-rule:evenodd" vector-effect="non-scaling-stroke"/></g><g style="font-size:16px;font-style:normal;font-weight:400;fill:navy;fill-opacity:1;stroke:none;font-family:Helvetica"><path d="M257 154h4v4h-4z" style="fill-rule:evenodd" vector-effect="non-scaling-stroke"/></g><g style="font-size:16px;font-style:normal;font-weight:400;fill:navy;fill-opacity:1;stroke:none;font-family:Helvetica"><path d="M197 354h4v4h-4z" style="fill-rule:evenodd" vector-effect="non-scaling-stroke"/></g><g style="font-size:16px;font-style:normal;font-weight:400;fill:navy;fill-opacity:1;stroke:navy;stroke-width:1;stroke-linecap:square;stroke-linejoin:bevel;stroke-opacity:1;font-family:Helvetica"><path d="M352 316a3 3 0 1 1-6 0 3 3 0 0 1 6 0" style="fill-rule:evenodd"/></g><g style="font-size:16px;font-style:normal;font-weight:400;fill:navy;fill-opacity:1;stroke:none;font-family:Helvetica"><path d="M407 314h4v4h-4z" style="fill-rule:evenodd" vector-effect="non-scaling-stroke"/></g><g style="font-size:16px;font-style:normal;font-weight:400;fill:navy;fill-opacity:1;stroke:none;font-family:Helvetica"><path d="M107 294h4v4h-4z" style="fill-rule:evenodd" vector-effect="non-scaling-stroke"/></g><g style="font-size:16px;font-style:normal;font-weight:400;fill:navy;fill-opacity:1;stroke:none;font-family:Helvetica"><path d="M167 294h4v4h-4z" style="fill-rule:evenodd" vector-effect="non-scaling-stroke"/></g><g style="font-size:16px;font-style:normal;font-weight:400;fill:navy;fill-opacity:1;stroke:none;font-family:Helvetica"><path d="M277 244h4v4h-4z" style="fill-rule:evenodd" vector-effect="non-scaling-stroke"/></g><g style="font-size:16px;font-style:normal;font-weight:400;fill:navy;fill-opacity:1;stroke:none;font-family:Helvetica"><path d="M337 244h4v4h-4z" style="fill-rule:evenodd" vector-effect="non-scaling-stroke"/></g><g style="font-size:16px;font-style:normal;font-weight:400;fill:navy;fill-opacity:1;stroke:none;font-family:Helvetica"><path d="M327 154h4v4h-4z" style="fill-rule:evenodd" vector-effect="non-scaling-stroke"/></g><g style="font-size:16px;font-style:normal;font-weight:400;fill:navy;fill-opacity:1;stroke:none;font-family:Helvetica"><path d="M387 154h4v4h-4z" style="fill-rule:evenodd" vector-effect="non-scaling-stroke"/></g><g style="font-size:16px;font-style:normal;font-weight:400;fill:navy;fill-opacity:1;stroke:none;font-family:Helvetica"><path d="M357 24h4v4h-4z" style="fill-rule:evenodd" vector-effect="non-scaling-stroke"/></g><g style="font-size:16px;font-style:normal;font-weight:400;fill:navy;fill-opacity:1;stroke:none;font-family:Helvetica"><path d="M417 24h4v4h-4z" style="fill-rule:evenodd" vector-effect="non-scaling-stroke"/></g><g style="font-size:16px;font-style:normal;font-weight:400;fill:navy;fill-opacity:1;stroke:none;font-family:Helvetica"><path d="M27 234h4v4h-4z" style="fill-rule:evenodd" vector-effect="non-scaling-stroke"/></g><g style="font-size:16px;font-style:normal;font-weight:400;fill:navy;fill-opacity:1;stroke:none;font-family:Helvetica"><path d="M27 174h4v4h-4z" style="fill-rule:evenodd" vector-effect="non-scaling-stroke"/></g><g style="font-size:16px;font-style:normal;font-weight:400;fill:navy;fill-opacity:1;stroke:navy;stroke-width:1;stroke-linecap:square;stroke-linejoin:bevel;stroke-opacity:1;font-family:Helvetica"><path d="M172 136a3 3 0 1 1-6 0 3 3 0 0 1 6 0" style="fill-rule:evenodd"/></g><g style="font-size:16px;font-style:normal;font-weight:400;fill:navy;fill-opacity:1;stroke:navy;stroke-width:1;stroke-linecap:square;stroke-linejoin:bevel;stroke-opacity:1;font-family:Helvetica"><path d="M562 176a3 3 0 1 1-6 0 3 3 0 0 1 6 0" style="fill-rule:evenodd"/></g><g style="font-size:16px;font-style:normal;font-weight:400;fill:navy;fill-opacity:1;stroke:navy;stroke-width:1;stroke-linecap:square;stroke-linejoin:bevel;stroke-opacity:1;font-family:Helvetica"><path d="M422 156a3 3 0 1 1-6 0 3 3 0 0 1 6 0" style="fill-rule:evenodd"/></g><g style="font-size:16px;font-style:normal;font-weight:400;fill:navy;fill-opacity:1;stroke:navy;stroke-width:1;stroke-linecap:square;stroke-linejoin:bevel;stroke-opacity:1;font-family:Helvetica"><path d="M312 156a3 3 0 1 1-6 0 3 3 0 0 1 6 0" style="fill-rule:evenodd"/></g><g style="font-size:16px;font-style:normal;font-weight:400;fill:navy;fill-opacity:1;stroke:navy;stroke-width:1;stroke-linecap:square;stroke-linejoin:bevel;stroke-opacity:1;font-family:Helvetica"><path d="M212 296a3 3 0 1 1-6 0 3 3 0 0 1 6 0" style="fill-rule:evenodd"/></g><g style="font-size:16px;font-style:normal;font-weight:400;fill:navy;fill-opacity:1;stroke:navy;stroke-width:1;stroke-linecap:square;stroke-linejoin:bevel;stroke-opacity:1;font-family:Helvetica"><path d="M172 66a3 3 0 1 1-6 0 3 3 0 0 1 6 0" style="fill-rule:evenodd"/></g><g style="font-size:16px;font-style:normal;font-weight:400;fill:navy;fill-opacity:1;stroke:navy;stroke-width:1;stroke-linecap:square;stroke-linejoin:bevel;stroke-opacity:1;font-family:Helvetica"><path d="M92 136a3 3 0 1 1-6 0 3 3 0 0 1 6 0" style="fill-rule:evenodd"/></g></g></svg>