<svg xmlns="http://www.w3.org/2000/svg" width="642" height="426" version="1.2"><desc>Generated with Qt</desc><g font-size="16" style="fill:none;stroke:#000;stroke-width:1;stroke-linecap:square;stroke-linejoin:bevel"><g style="font-size:16px;font-style:normal;font-weight:400;fill:none;stroke:navy;stroke-width:2;stroke-linecap:square;stroke-linejoin:bevel;stroke-opacity:1;font-family:Helvetica"><path d="M189 206v10" font-weight="400" style="fill:none"/></g><g font-weight="400" style="font-size:16px;font-style:normal;font-weight:400;fill:none;stroke:navy;stroke-width:3;stroke-linecap:square;stroke-linejoin:bevel;stroke-opacity:1;font-family:Helvetica"><path d="M178 216h22M182 222h14M186 228h6" style="fill:none"/></g><g style="font-size:16px;font-style:normal;font-weight:400;fill:none;stroke:navy;stroke-width:2;stroke-linecap:square;stroke-linejoin:bevel;stroke-opacity:1;font-family:Helvetica"><path d="M199 356v10" font-weight="400" style="fill:none"/></g><g font-weight="400" style="font-size:16px;font-style:normal;font-weight:400;fill:none;stroke:navy;stroke-width:3;stroke-linecap:square;stroke-linejoin:bevel;stroke-opacity:1;font-family:Helvetica"><path d="M188 366h22M192 372h14M196 378h6" style="fill:none"/></g><g style="font-size:16px;font-style:normal;font-weight:400;fill:none;stroke:navy;stroke-width:2;stroke-linecap:square;stroke-linejoin:bevel;stroke-opacity:1;font-family:Helvetica"><path d="M29 236v10" font-weight="400" style="fill:none"/></g><g font-weight="400" style="font-size:16px;font-style:normal;font-weight:400;fill:none;stroke:navy;stroke-width:3;stroke-linecap:square;stroke-linejoin:bevel;stroke-opacity:1;font-family:Helvetica"><path d="M18 246h22M22 252h14M26 258h6" style="fill:none"/></g><g font-weight="400" style="font-size:16px;font-style:normal;font-weight:400;fill:none;stroke:navy;stroke-width:2;stroke-linecap:square;stroke-linejoin:bevel;stroke-opacity:1;font-family:Helvetica"><path d="M29 236v-18M29 176v18" style="fill:none"/></g><g font-weight="400" style="font-size:16px;font-style:normal;font-weight:400;fill:none;stroke:red;stroke-width:1;stroke-linecap:square;stroke-linejoin:bevel;stroke-opacity:1;font-family:Helvetica"><path d="M34 188h6M37 185v6" style="fill:none"/></g><g style="font-size:16px;font-style:normal;font-weight:400;fill:none;stroke:#000;stroke-width:1;stroke-linecap:square;stroke-linejoin:bevel;stroke-opacity:1;font-family:Helvetica"><path d="M34 224h6" font-weight="400" style="fill:none"/></g><g font-weight="400" style="font-size:16px;font-style:normal;font-weight:400;fill:none;stroke:navy;stroke-width:2;stroke-linecap:square;stroke-linejoin:bevel;stroke-opacity:1;font-family:Helvetica"><path d="M29.5 194c-6.904 0-12.5 5.596-12.5 12.5S22.596 219 29.5 219 42 213.404 42 206.5 36.404 194 29.5 194"/><path d="M30 206a4 4 0 0 0-8 0M29 206a4 4 0 0 0 8 0"/></g><g style="font-size:16px;font-style:normal;font-weight:400;fill:none;stroke:#000;stroke-width:1;stroke-linecap:square;stroke-linejoin:bevel;stroke-opacity:1;font-family:Helvetica"><text xml:space="preserve" x="47" y="194" font-size="16" font-weight="400" style="font-style:normal;font-weight:400;font-size:16px;line-height:0%;font-family:Helvetica;fill:#000;fill-opacity:1;stroke:none">V1</text></g><g style="font-size:16px;font-style:normal;font-weight:400;fill:none;stroke:navy;stroke-width:2;stroke-linecap:square;stroke-linejoin:bevel;stroke-opacity:1;font-family:Helvetica"><path d="M449 386v10" font-weight="400" style="fill:none"/></g><g font-weight="400" style="font-size:16px;font-style:normal;font-weight:400;fill:none;stroke:navy;stroke-width:3;stroke-linecap:square;stroke-linejoin:bevel;stroke-opacity:1;font-family:Helvetica"><path d="M438 396h22M442 402h14M446 408h6" style="fill:none"/></g><g font-weight="400" style="font-size:16px;font-style:normal;font-weight:400;fill:none;stroke:navy;stroke-width:2;stroke-linecap:square;stroke-linejoin:bevel;stroke-opacity:1;font-family:Helvetica"><path d="M121 287h36M157 287v18M157 305h-36M121 305v-18M109 296h12M157 296h12" style="fill:none"/></g><g style="font-size:16px;font-style:normal;font-weight:400;fill:none;stroke:#000;stroke-width:1;stroke-linecap:square;stroke-linejoin:bevel;stroke-opacity:1;font-family:Helvetica"><text xml:space="preserve" x="113" y="325" font-size="16" font-weight="400" style="font-style:normal;font-weight:400;font-size:16px;line-height:0%;font-family:Helvetica;fill:#000;fill-opacity:1;stroke:none">R5</text></g><g font-weight="400" style="font-size:16px;font-style:normal;font-weight:400;fill:none;stroke:navy;stroke-width:2;stroke-linecap:square;stroke-linejoin:bevel;stroke-opacity:1;font-family:Helvetica"><path d="M111 127h36M147 127v18M147 145h-36M111 145v-18M99 136h12M147 136h12" style="fill:none"/></g><g style="font-size:16px;font-style:normal;font-weight:400;fill:none;stroke:#000;stroke-width:1;stroke-linecap:square;stroke-linejoin:bevel;stroke-opacity:1;font-family:Helvetica"><text xml:space="preserve" x="103" y="165" font-size="16" font-weight="400" style="font-style:normal;font-weight:400;font-size:16px;line-height:0%;font-family:Helvetica;fill:#000;fill-opacity:1;stroke:none">R1</text></g><g font-weight="400" style="font-size:16px;font-style:normal;font-weight:400;fill:none;stroke:navy;stroke-width:4;stroke-linecap:square;stroke-linejoin:bevel;stroke-opacity:1;font-family:Helvetica"><path d="M275 55v22M283 55v22" style="fill:none"/></g><g font-weight="400" style="font-size:16px;font-style:normal;font-weight:400;fill:none;stroke:navy;stroke-width:2;stroke-linecap:square;stroke-linejoin:bevel;stroke-opacity:1;font-family:Helvetica"><path d="M249 66h26M283 66h26" style="fill:none"/></g><g style="font-size:16px;font-style:normal;font-weight:400;fill:none;stroke:#000;stroke-width:1;stroke-linecap:square;stroke-linejoin:bevel;stroke-opacity:1;font-family:Helvetica"><text xml:space="preserve" x="253" y="97" font-size="16" font-weight="400" style="font-style:normal;font-weight:400;font-size:16px;line-height:0%;font-family:Helvetica;fill:#000;fill-opacity:1;stroke:none">C1</text></g><g font-weight="400" style="font-size:16px;font-style:normal;font-weight:400;fill:none;stroke:navy;stroke-width:2;stroke-linecap:square;stroke-linejoin:bevel;stroke-opacity:1;font-family:Helvetica"><path d="M189 176h10M189 136h10M249 156h10M199 191v-70M199 191l50-35M199 121l50 35" style="fill:none"/></g><g style="font-size:16px;font-style:normal;font-weight:400;fill:none;stroke:#000;stroke-width:1;stroke-linecap:square;stroke-linejoin:bevel;stroke-opacity:1;font-family:Helvetica"><path d="M203 137h7" font-weight="400" style="fill:none"/></g><g font-weight="400" style="font-size:16px;font-style:normal;font-weight:400;fill:none;stroke:red;stroke-width:1;stroke-linecap:square;stroke-linejoin:bevel;stroke-opacity:1;font-family:Helvetica"><path d="M203 175h7M206 178v-7" style="fill:none"/></g><g style="font-size:16px;font-style:normal;font-weight:400;fill:none;stroke:#000;stroke-width:1;stroke-linecap:square;stroke-linejoin:bevel;stroke-opacity:1;font-family:Helvetica"><text xml:space="preserve" x="193" y="114" font-size="16" font-weight="400" style="font-style:normal;font-weight:400;font-size:16px;line-height:0%;font-family:Helvetica;fill:#000;fill-opacity:1;stroke:none">OP1</text></g><g font-weight="400" style="font-size:16px;font-style:normal;font-weight:400;fill:none;stroke:navy;stroke-width:2;stroke-linecap:square;stroke-linejoin:bevel;stroke-opacity:1;font-family:Helvetica"><path d="M479 156h10M479 196h10M539 176h10M489 141v70M489 141l50 35M489 211l50-35" style="fill:none"/></g><g style="font-size:16px;font-style:normal;font-weight:400;fill:none;stroke:#000;stroke-width:1;stroke-linecap:square;stroke-linejoin:bevel;stroke-opacity:1;font-family:Helvetica"><path d="M493 195h7" font-weight="400" style="fill:none"/></g><g font-weight="400" style="font-size:16px;font-style:normal;font-weight:400;fill:none;stroke:red;stroke-width:1;stroke-linecap:square;stroke-linejoin:bevel;stroke-opacity:1;font-family:Helvetica"><path d="M493 157h7M496 154v7" style="fill:none"/></g><g style="font-size:16px;font-style:normal;font-weight:400;fill:none;stroke:#000;stroke-width:1;stroke-linecap:square;stroke-linejoin:bevel;stroke-opacity:1;font-family:Helvetica"><text xml:space="preserve" x="483" y="232" font-size="16" font-weight="400" style="font-style:normal;font-weight:400;font-size:16px;line-height:0%;font-family:Helvetica;fill:#000;fill-opacity:1;stroke:none">OP3</text></g><g font-weight="400" style="font-size:16px;font-style:normal;font-weight:400;fill:none;stroke:navy;stroke-width:2;stroke-linecap:square;stroke-linejoin:bevel;stroke-opacity:1;font-family:Helvetica"><path d="M501 277h36M537 277v18M537 295h-36M501 295v-18M489 286h12M537 286h12" style="fill:none"/></g><g style="font-size:16px;font-style:normal;font-weight:400;fill:none;stroke:#000;stroke-width:1;stroke-linecap:square;stroke-linejoin:bevel;stroke-opacity:1;font-family:Helvetica"><text xml:space="preserve" x="493" y="315" font-size="16" font-weight="400" style="font-style:normal;font-weight:400;font-size:16px;line-height:0%;font-family:Helvetica;fill:#000;fill-opacity:1;stroke:none">R7</text></g><g font-weight="400" style="font-size:16px;font-style:normal;font-weight:400;fill:none;stroke:navy;stroke-width:2;stroke-linecap:square;stroke-linejoin:bevel;stroke-opacity:1;font-family:Helvetica"><path d="M440 374v-36M440 338h18M458 338v36M458 374h-18M449 386v-12M449 338v-12" style="fill:none"/></g><g style="font-size:16px;font-style:normal;font-weight:400;fill:none;stroke:#000;stroke-width:1;stroke-linecap:square;stroke-linejoin:bevel;stroke-opacity:1;font-family:Helvetica"><text xml:space="preserve" x="464" y="344" font-size="16" font-weight="400" style="font-style:normal;font-weight:400;font-size:16px;line-height:0%;font-family:Helvetica;fill:#000;fill-opacity:1;stroke:none">R6</text></g><g font-weight="400" style="font-size:16px;font-style:normal;font-weight:400;fill:none;stroke:navy;stroke-width:4;stroke-linecap:square;stroke-linejoin:bevel;stroke-opacity:1;font-family:Helvetica"><path d="M395 305v22M403 305v22" style="fill:none"/></g><g font-weight="400" style="font-size:16px;font-style:normal;font-weight:400;fill:none;stroke:navy;stroke-width:2;stroke-linecap:square;stroke-linejoin:bevel;stroke-opacity:1;font-family:Helvetica"><path d="M369 316h26M403 316h26" style="fill:none"/></g><g style="font-size:16px;font-style:normal;font-weight:400;fill:none;stroke:#000;stroke-width:1;stroke-linecap:square;stroke-linejoin:bevel;stroke-opacity:1;font-family:Helvetica"><text xml:space="preserve" x="373" y="347" font-size="16" font-weight="400" style="font-style:normal;font-weight:400;font-size:16px;line-height:0%;font-family:Helvetica;fill:#000;fill-opacity:1;stroke:none">C2</text></g><g font-weight="400" style="font-size:16px;font-style:normal;font-weight:400;fill:none;stroke:navy;stroke-width:2;stroke-linecap:square;stroke-linejoin:bevel;stroke-opacity:1;font-family:Helvetica"><path d="M291 227h36M327 227v18M327 245h-36M291 245v-18M279 236h12M327 236h12" style="fill:none"/></g><g style="font-size:16px;font-style:normal;font-weight:400;fill:none;stroke:#000;stroke-width:1;stroke-linecap:square;stroke-linejoin:bevel;stroke-opacity:1;font-family:Helvetica"><text xml:space="preserve" x="283" y="265" font-size="16" font-weight="400" style="font-style:normal;font-weight:400;font-size:16px;line-height:0%;font-family:Helvetica;fill:#000;fill-opacity:1;stroke:none">R4</text></g><g font-weight="400" style="font-size:16px;font-style:normal;font-weight:400;fill:none;stroke:navy;stroke-width:2;stroke-linecap:square;stroke-linejoin:bevel;stroke-opacity:1;font-family:Helvetica"><path d="M341 147h36M377 147v18M377 165h-36M341 165v-18M329 156h12M377 156h12" style="fill:none"/></g><g style="font-size:16px;font-style:normal;font-weight:400;fill:none;stroke:#000;stroke-width:1;stroke-linecap:square;stroke-linejoin:bevel;stroke-opacity:1;font-family:Helvetica"><text xml:space="preserve" x="333" y="185" font-size="16" font-weight="400" style="font-style:normal;font-weight:400;font-size:16px;line-height:0%;font-family:Helvetica;fill:#000;fill-opacity:1;stroke:none">R2</text></g><g font-weight="400" style="font-size:16px;font-style:normal;font-weight:400;fill:none;stroke:navy;stroke-width:2;stroke-linecap:square;stroke-linejoin:bevel;stroke-opacity:1;font-family:Helvetica"><path d="M371 17h36M407 17v18M407 35h-36M371 35V17M359 26h12M407 26h12" style="fill:none"/></g><g style="font-size:16px;font-style:normal;font-weight:400;fill:none;stroke:#000;stroke-width:1;stroke-linecap:square;stroke-linejoin:bevel;stroke-opacity:1;font-family:Helvetica"><text xml:space="preserve" x="363" y="55" font-size="16" font-weight="400" style="font-style:normal;font-weight:400;font-size:16px;line-height:0%;font-family:Helvetica;fill:#000;fill-opacity:1;stroke:none">R3</text></g><g font-weight="400" style="font-size:16px;font-style:normal;font-weight:400;fill:none;stroke:navy;stroke-width:2;stroke-linecap:square;stroke-linejoin:bevel;stroke-opacity:1;font-family:Helvetica"><path d="M219 336h10M219 296h10M279 316h10M229 351v-70M229 351l50-35M229 281l50 35" style="fill:none"/></g><g style="font-size:16px;font-style:normal;font-weight:400;fill:none;stroke:#000;stroke-width:1;stroke-linecap:square;stroke-linejoin:bevel;stroke-opacity:1;font-family:Helvetica"><path d="M233 297h7" font-weight="400" style="fill:none"/></g><g font-weight="400" style="font-size:16px;font-style:normal;font-weight:400;fill:none;stroke:red;stroke-width:1;stroke-linecap:square;stroke-linejoin:bevel;stroke-opacity:1;font-family:Helvetica"><path d="M233 335h7M236 338v-7" style="fill:none"/></g><g style="font-size:16px;font-style:normal;font-weight:400;fill:none;stroke:#000;stroke-width:1;stroke-linecap:square;stroke-linejoin:bevel;stroke-opacity:1;font-family:Helvetica"><text xml:space="preserve" x="223" y="274" font-size="16" font-weight="400" style="font-style:normal;font-weight:400;font-size:16px;line-height:0%;font-family:Helvetica;fill:#000;fill-opacity:1;stroke:none">OP2</text></g><g font-weight="400" style="font-size:16px;font-style:normal;font-weight:400;fill:none;stroke:navy;stroke-width:2;stroke-linecap:square;stroke-linejoin:bevel;stroke-opacity:1;font-family:Helvetica"><path d="M159 136h10M389 156h40M289 316h80M169 296h40M209 296h10M169 66v70M169 66h80M259 156h70M189 176v30M169 136h20M199 336h20M199 336v20M559 26v150" style="fill:none"/></g><g style="font-size:16px;font-style:normal;font-weight:400;fill:none;stroke:#000;stroke-width:1;stroke-linecap:square;stroke-linejoin:bevel;stroke-opacity:1;font-family:Helvetica"><text xml:space="preserve" x="489" y="90" font-size="16" font-weight="400" style="font-style:normal;font-weight:400;font-size:16px;line-height:0%;font-family:Helvetica;fill:#000;fill-opacity:1;stroke:none">output</text></g><g font-weight="400" style="font-size:16px;font-style:normal;font-weight:400;fill:none;stroke:purple;stroke-width:1;stroke-linecap:square;stroke-linejoin:bevel;stroke-opacity:1;font-family:Helvetica"><path d="M562.947 130.393a4.5 4.5 0 1 0-7.133-.312" vector-effect="non-scaling-stroke"/><path d="M534 94h-21M534 94V77M555 127l-21-33" style="fill:none" vector-effect="non-scaling-stroke"/></g><g font-weight="400" style="font-size:16px;font-style:normal;font-weight:400;fill:none;stroke:navy;stroke-width:2;stroke-linecap:square;stroke-linejoin:bevel;stroke-opacity:1;font-family:Helvetica"><path d="M419 26h140M169 26v40M169 26h190M89 136h10M89 136v160M89 296h20M29 136h60" style="fill:none"/></g><g style="font-size:16px;font-style:normal;fill:none;stroke:navy;stroke-width:3;stroke-linecap:square;stroke-linejoin:bevel;stroke-opacity:1;font-family:Helvetica"><text xml:space="preserve" x="69" y="100" font-size="16" font-weight="630" style="font-style:normal;font-size:16px;line-height:0%;font-family:Helvetica;fill:navy;fill-opacity:1;stroke:none">input</text></g><g font-weight="630" style="font-size:16px;font-style:normal;fill:none;stroke:purple;stroke-width:1;stroke-linecap:square;stroke-linejoin:bevel;stroke-opacity:1;font-family:Helvetica"><path d="M26.607 139.947a4.5 4.5 0 1 0 .311-7.133" vector-effect="non-scaling-stroke"/><path d="M66 104h19M66 104V87M29 132l37-28" style="fill:none" vector-effect="non-scaling-stroke"/></g><g font-weight="630" style="font-size:16px;font-style:normal;fill:none;stroke:navy;stroke-width:2;stroke-linecap:square;stroke-linejoin:bevel;stroke-opacity:1;font-family:Helvetica"><path d="M29 136v40M429 156v160M369 236v80M339 236h30M209 236v60M209 236h70M309 66h20M329 66v90M449 286v40M549 176h10M429 156h50M449 196v90M449 196h30M559 176v110M549 286h10M449 286h40" style="fill:none"/></g><g style="font-size:16px;font-style:normal;fill:navy;fill-opacity:1;stroke:none;font-family:Helvetica"><path d="M187 204h4v4h-4z" font-weight="630" style="fill-rule:evenodd" vector-effect="non-scaling-stroke"/></g><g style="font-size:16px;font-style:normal;fill:navy;fill-opacity:1;stroke:none;font-family:Helvetica"><path d="M197 354h4v4h-4z" font-weight="630" style="fill-rule:evenodd" vector-effect="non-scaling-stroke"/></g><g style="font-size:16px;font-style:normal;fill:navy;fill-opacity:1;stroke:none;font-family:Helvetica"><path d="M27 234h4v4h-4z" font-weight="630" style="fill-rule:evenodd" vector-effect="non-scaling-stroke"/></g><g style="font-size:16px;font-style:normal;fill:navy;fill-opacity:1;stroke:none;font-family:Helvetica"><path d="M27 174h4v4h-4z" font-weight="630" style="fill-rule:evenodd" vector-effect="non-scaling-stroke"/></g><g style="font-size:16px;font-style:normal;fill:navy;fill-opacity:1;stroke:none;font-family:Helvetica"><path d="M217 294h4v4h-4z" font-weight="630" style="fill-rule:evenodd" vector-effect="non-scaling-stroke"/></g><g style="font-size:16px;font-style:normal;fill:navy;fill-opacity:1;stroke:none;font-family:Helvetica"><path d="M217 334h4v4h-4z" font-weight="630" style="fill-rule:evenodd" vector-effect="non-scaling-stroke"/></g><g style="font-size:16px;font-style:normal;fill:navy;fill-opacity:1;stroke:none;font-family:Helvetica"><path d="M287 314h4v4h-4z" font-weight="630" style="fill-rule:evenodd" vector-effect="non-scaling-stroke"/></g><g style="font-size:16px;font-style:normal;fill:navy;fill-opacity:1;stroke:none;font-family:Helvetica"><path d="M357 24h4v4h-4z" font-weight="630" style="fill-rule:evenodd" vector-effect="non-scaling-stroke"/></g><g style="font-size:16px;font-style:normal;fill:navy;fill-opacity:1;stroke:none;font-family:Helvetica"><path d="M417 24h4v4h-4z" font-weight="630" style="fill-rule:evenodd" vector-effect="non-scaling-stroke"/></g><g style="font-size:16px;font-style:normal;fill:navy;fill-opacity:1;stroke:navy;stroke-width:1;stroke-linecap:square;stroke-linejoin:bevel;stroke-opacity:1;font-family:Helvetica"><path d="M332 156a3 3 0 1 1-6 0 3 3 0 0 1 6 0" font-weight="630" style="fill-rule:evenodd"/></g><g style="font-size:16px;font-style:normal;fill:navy;fill-opacity:1;stroke:none;font-family:Helvetica"><path d="M387 154h4v4h-4z" font-weight="630" style="fill-rule:evenodd" vector-effect="non-scaling-stroke"/></g><g style="font-size:16px;font-style:normal;fill:navy;fill-opacity:1;stroke:none;font-family:Helvetica"><path d="M277 234h4v4h-4z" font-weight="630" style="fill-rule:evenodd" vector-effect="non-scaling-stroke"/></g><g style="font-size:16px;font-style:normal;fill:navy;fill-opacity:1;stroke:none;font-family:Helvetica"><path d="M337 234h4v4h-4z" font-weight="630" style="fill-rule:evenodd" vector-effect="non-scaling-stroke"/></g><g style="font-size:16px;font-style:normal;fill:navy;fill-opacity:1;stroke:none;font-family:Helvetica"><path d="M447 384h4v4h-4z" font-weight="630" style="fill-rule:evenodd" vector-effect="non-scaling-stroke"/></g><g style="font-size:16px;font-style:normal;fill:navy;fill-opacity:1;stroke:none;font-family:Helvetica"><path d="M107 294h4v4h-4z" font-weight="630" style="fill-rule:evenodd" vector-effect="non-scaling-stroke"/></g><g style="font-size:16px;font-style:normal;fill:navy;fill-opacity:1;stroke:none;font-family:Helvetica"><path d="M167 294h4v4h-4z" font-weight="630" style="fill-rule:evenodd" vector-effect="non-scaling-stroke"/></g><g style="font-size:16px;font-style:normal;fill:navy;fill-opacity:1;stroke:none;font-family:Helvetica"><path d="M97 134h4v4h-4z" font-weight="630" style="fill-rule:evenodd" vector-effect="non-scaling-stroke"/></g><g style="font-size:16px;font-style:normal;fill:navy;fill-opacity:1;stroke:none;font-family:Helvetica"><path d="M157 134h4v4h-4z" font-weight="630" style="fill-rule:evenodd" vector-effect="non-scaling-stroke"/></g><g style="font-size:16px;font-style:normal;fill:navy;fill-opacity:1;stroke:none;font-family:Helvetica"><path d="M247 64h4v4h-4z" font-weight="630" style="fill-rule:evenodd" vector-effect="non-scaling-stroke"/></g><g style="font-size:16px;font-style:normal;fill:navy;fill-opacity:1;stroke:none;font-family:Helvetica"><path d="M307 64h4v4h-4z" font-weight="630" style="fill-rule:evenodd" vector-effect="non-scaling-stroke"/></g><g style="font-size:16px;font-style:normal;fill:navy;fill-opacity:1;stroke:none;font-family:Helvetica"><path d="M187 134h4v4h-4z" font-weight="630" style="fill-rule:evenodd" vector-effect="non-scaling-stroke"/></g><g style="font-size:16px;font-style:normal;fill:navy;fill-opacity:1;stroke:none;font-family:Helvetica"><path d="M187 174h4v4h-4z" font-weight="630" style="fill-rule:evenodd" vector-effect="non-scaling-stroke"/></g><g style="font-size:16px;font-style:normal;fill:navy;fill-opacity:1;stroke:none;font-family:Helvetica"><path d="M257 154h4v4h-4z" font-weight="630" style="fill-rule:evenodd" vector-effect="non-scaling-stroke"/></g><g style="font-size:16px;font-style:normal;fill:navy;fill-opacity:1;stroke:none;font-family:Helvetica"><path d="M477 194h4v4h-4z" font-weight="630" style="fill-rule:evenodd" vector-effect="non-scaling-stroke"/></g><g style="font-size:16px;font-style:normal;fill:navy;fill-opacity:1;stroke:none;font-family:Helvetica"><path d="M477 154h4v4h-4z" font-weight="630" style="fill-rule:evenodd" vector-effect="non-scaling-stroke"/></g><g style="font-size:16px;font-style:normal;fill:navy;fill-opacity:1;stroke:none;font-family:Helvetica"><path d="M547 174h4v4h-4z" font-weight="630" style="fill-rule:evenodd" vector-effect="non-scaling-stroke"/></g><g style="font-size:16px;font-style:normal;fill:navy;fill-opacity:1;stroke:none;font-family:Helvetica"><path d="M487 284h4v4h-4z" font-weight="630" style="fill-rule:evenodd" vector-effect="non-scaling-stroke"/></g><g style="font-size:16px;font-style:normal;fill:navy;fill-opacity:1;stroke:none;font-family:Helvetica"><path d="M547 284h4v4h-4z" font-weight="630" style="fill-rule:evenodd" vector-effect="non-scaling-stroke"/></g><g style="font-size:16px;font-style:normal;fill:navy;fill-opacity:1;stroke:none;font-family:Helvetica"><path d="M447 324h4v4h-4z" font-weight="630" style="fill-rule:evenodd" vector-effect="non-scaling-stroke"/></g><g style="font-size:16px;font-style:normal;fill:navy;fill-opacity:1;stroke:navy;stroke-width:1;stroke-linecap:square;stroke-linejoin:bevel;stroke-opacity:1;font-family:Helvetica"><path d="M372 316a3 3 0 1 1-6 0 3 3 0 0 1 6 0" font-weight="630" style="fill-rule:evenodd"/></g><g style="font-size:16px;font-style:normal;fill:navy;fill-opacity:1;stroke:none;font-family:Helvetica"><path d="M427 314h4v4h-4z" font-weight="630" style="fill-rule:evenodd" vector-effect="non-scaling-stroke"/></g><g style="font-size:16px;font-style:normal;fill:navy;fill-opacity:1;stroke:navy;stroke-width:1;stroke-linecap:square;stroke-linejoin:bevel;stroke-opacity:1;font-family:Helvetica"><path d="M172 136a3 3 0 1 1-6 0 3 3 0 0 1 6 0" font-weight="630" style="fill-rule:evenodd"/></g><g style="font-size:16px;font-style:normal;fill:navy;fill-opacity:1;stroke:navy;stroke-width:1;stroke-linecap:square;stroke-linejoin:bevel;stroke-opacity:1;font-family:Helvetica"><path d="M432 156a3 3 0 1 1-6 0 3 3 0 0 1 6 0" font-weight="630" style="fill-rule:evenodd"/></g><g style="font-size:16px;font-style:normal;fill:navy;fill-opacity:1;stroke:navy;stroke-width:1;stroke-linecap:square;stroke-linejoin:bevel;stroke-opacity:1;font-family:Helvetica"><path d="M212 296a3 3 0 1 1-6 0 3 3 0 0 1 6 0" font-weight="630" style="fill-rule:evenodd"/></g><g style="font-size:16px;font-style:normal;fill:navy;fill-opacity:1;stroke:navy;stroke-width:1;stroke-linecap:square;stroke-linejoin:bevel;stroke-opacity:1;font-family:Helvetica"><path d="M172 66a3 3 0 1 1-6 0 3 3 0 0 1 6 0" font-weight="630" style="fill-rule:evenodd"/></g><g style="font-size:16px;font-style:normal;fill:navy;fill-opacity:1;stroke:navy;stroke-width:1;stroke-linecap:square;stroke-linejoin:bevel;stroke-opacity:1;font-family:Helvetica"><path d="M562 176a3 3 0 1 1-6 0 3 3 0 0 1 6 0" font-weight="630" style="fill-rule:evenodd"/></g><g style="font-size:16px;font-style:normal;fill:navy;fill-opacity:1;stroke:navy;stroke-width:1;stroke-linecap:square;stroke-linejoin:bevel;stroke-opacity:1;font-family:Helvetica"><path d="M92 136a3 3 0 1 1-6 0 3 3 0 0 1 6 0" font-weight="630" style="fill-rule:evenodd"/></g><g style="font-size:16px;font-style:normal;fill:navy;fill-opacity:1;stroke:navy;stroke-width:1;stroke-linecap:square;stroke-linejoin:bevel;stroke-opacity:1;font-family:Helvetica"><path d="M452 286a3 3 0 1 1-6 0 3 3 0 0 1 6 0" font-weight="630" style="fill-rule:evenodd"/></g></g></svg>