<svg xmlns="http://www.w3.org/2000/svg" width="196.694" height="170.28"><path d="M17.717 148.819V24.803l3.543 10.63" style="fill:none;stroke:#000;stroke-width:1px;stroke-linecap:butt;stroke-linejoin:miter;stroke-opacity:1;marker-end:none" transform="translate(-3.712 -5.437)"/><path d="M17.717 148.819h159.448l-10.63-3.543" style="fill:none;stroke:#000;stroke-width:1px;stroke-linecap:butt;stroke-linejoin:miter;stroke-opacity:1;marker-end:none" transform="translate(-3.712 -5.437)"/><path d="M159.449 60.236c-6.485-6.438-9.868-11.024-17.717-10.63s-12.082 10.545-17.716 10.63-8.026-9.97-17.717-10.63-15.131 5.197-17.716 10.63L70.866 148.82c-.242-9.799-2.44-17.403-17.716-17.717-9.336.366-16.926 4.058-17.717 17.717-1.02-11.28-7.175-16.91-17.716-17.717" style="fill:none;stroke:red;stroke-width:1px;stroke-linecap:butt;stroke-linejoin:miter;stroke-opacity:1" transform="translate(-3.712 -5.437)"/><path d="M70.866 49.606h53.15" style="fill:none;stroke:#000;stroke-width:1px;stroke-linecap:butt;stroke-linejoin:miter;stroke-opacity:1" transform="translate(-3.712 -5.437)"/><path d="M177.165 49.606h-35.433" style="fill:none;stroke:#000;stroke-width:1.00000036px;stroke-linecap:butt;stroke-linejoin:miter;stroke-opacity:1" transform="translate(-3.712 -5.437)"/><path d="M116.93 28.346v21.26l3.542-10.63" style="fill:none;stroke:#000;stroke-width:1px;stroke-linecap:butt;stroke-linejoin:miter;stroke-opacity:1;marker-end:none" transform="translate(-3.712 -5.437)"/><path d="M116.93 77.953V60.236" style="fill:none;stroke:#000;stroke-width:1px;stroke-linecap:butt;stroke-linejoin:miter;stroke-opacity:1;marker-end:none" transform="translate(-3.712 -5.437)"/><path d="M116.93 49.606v10.63" style="fill:none;stroke:#000;stroke-width:1px;stroke-linecap:butt;stroke-linejoin:miter;stroke-opacity:1" transform="translate(-3.712 -5.437)"/><text xml:space="preserve" x="120.472" y="74.409" style="font-style:normal;font-weight:400;line-height:0%;font-family:sans-serif;letter-spacing:0;word-spacing:0;fill:#000;fill-opacity:1;stroke:none" transform="translate(-3.712 -5.437)"><tspan x="120.472" y="74.409" style="font-size:12px;line-height:1.25;font-family:sans-serif">Rp</tspan></text><path d="M88.583 60.236V95.67" style="fill:none;stroke:#000;stroke-width:.87705797px;stroke-linecap:butt;stroke-linejoin:miter;stroke-opacity:1" transform="translate(-3.712 -5.437)"/><path d="M17.717 92.126h70.866" style="fill:none;stroke:#000;stroke-width:1px;stroke-linecap:butt;stroke-linejoin:miter;stroke-opacity:1;marker-start:none;marker-end:none" transform="translate(-3.712 -5.437)"/><text xml:space="preserve" x="46.063" y="88.583" style="font-style:normal;font-weight:400;line-height:0%;font-family:sans-serif;letter-spacing:0;word-spacing:0;fill:#000;fill-opacity:1;stroke:none" transform="translate(-3.712 -5.437)"><tspan x="46.063" y="88.583" style="font-size:12px;line-height:1.25;font-family:sans-serif">Fc</tspan></text><path d="M17.717 148.819v17.716M77.953 113.386v53.15" style="fill:none;stroke:#000;stroke-width:1px;stroke-linecap:butt;stroke-linejoin:miter;stroke-opacity:1" transform="translate(-3.712 -5.437)"/><path d="M77.953 162.992H17.717l7.856-3.543" style="fill:none;stroke:#000;stroke-width:.85972697px;stroke-linecap:butt;stroke-linejoin:miter;stroke-opacity:1;marker-start:none;marker-end:none" transform="translate(-3.712 -5.437)"/><text xml:space="preserve" x="42.52" y="173.622" style="font-style:normal;font-weight:400;line-height:0%;font-family:sans-serif;letter-spacing:0;word-spacing:0;fill:#000;fill-opacity:1;stroke:none" transform="translate(-3.712 -5.437)"><tspan x="42.52" y="173.622" style="font-size:12px;line-height:1.25;font-family:sans-serif">Fs</tspan></text><path d="M70.866 49.606H106.3" style="fill:none;stroke:#000;stroke-width:.62017363px;stroke-linecap:butt;stroke-linejoin:miter;stroke-opacity:1" transform="translate(-3.712 -5.437)"/><path d="M173.622 113.386v-63.78l3.543 10.63" style="fill:none;stroke:#000;stroke-width:1px;stroke-linecap:butt;stroke-linejoin:miter;stroke-opacity:1;marker-start:none;marker-end:none" transform="translate(-3.712 -5.437)"/><text xml:space="preserve" x="179.888" y="86.648" style="font-style:normal;font-weight:400;line-height:0%;font-family:sans-serif;letter-spacing:0;word-spacing:0;fill:#000;fill-opacity:1;stroke:none" transform="translate(-3.712 -5.437)"><tspan x="179.888" y="86.648" style="font-size:12px;line-height:1.25;font-family:sans-serif">As</tspan></text><text xml:space="preserve" x="17.717" y="17.717" style="font-style:normal;font-weight:400;line-height:0%;font-family:sans-serif;letter-spacing:0;word-spacing:0;fill:#000;fill-opacity:1;stroke:none" transform="translate(-3.712 -5.437)"><tspan x="17.717" y="17.717" style="font-size:12px;line-height:1.25;font-family:sans-serif">K (dB)</tspan></text><text xml:space="preserve" x="162.992" y="166.535" style="font-style:normal;font-weight:400;line-height:0%;font-family:sans-serif;letter-spacing:0;word-spacing:0;fill:#000;fill-opacity:1;stroke:none" transform="translate(-3.712 -5.437)"><tspan x="162.992" y="166.535" style="font-size:12px;line-height:1.25;font-family:sans-serif">F (Hz)</tspan></text><text xml:space="preserve" x="7.087" y="152.362" style="font-style:normal;font-weight:400;line-height:0%;font-family:sans-serif;letter-spacing:0;word-spacing:0;fill:#000;fill-opacity:1;stroke:none" transform="translate(-3.712 -5.437)"><tspan x="7.087" y="152.362" style="font-size:12px;line-height:1.25;font-family:sans-serif">0</tspan></text><path d="M113.386 60.236h10.63" style="fill:none;stroke:#000;stroke-width:1px;stroke-linecap:butt;stroke-linejoin:miter;stroke-opacity:1" transform="translate(-3.712 -5.437)"/><path d="M92.126 49.606h14.173" style="fill:none;stroke:#000;stroke-width:.63245553px;stroke-linecap:butt;stroke-linejoin:miter;stroke-opacity:1" transform="translate(-3.712 -5.437)"/><path d="M74.41 28.346v21.26l3.543-10.63" style="fill:none;stroke:#000;stroke-width:1px;stroke-linecap:butt;stroke-linejoin:miter;stroke-opacity:1;marker-end:none" transform="translate(-3.712 -5.437)"/><path d="M74.41 77.953V60.236l3.543 10.63" style="fill:none;stroke:#000;stroke-width:1px;stroke-linecap:butt;stroke-linejoin:miter;stroke-opacity:1;marker-end:none" transform="translate(-3.712 -5.437)"/><path d="M74.41 49.606v10.63" style="fill:none;stroke:#000;stroke-width:1px;stroke-linecap:butt;stroke-linejoin:miter;stroke-opacity:1" transform="translate(-3.712 -5.437)"/><text xml:space="preserve" x="53.15" y="56.693" style="font-style:normal;font-weight:400;line-height:0%;font-family:sans-serif;letter-spacing:0;word-spacing:0;fill:#000;fill-opacity:1;stroke:none" transform="translate(-3.712 -5.437)"><tspan x="53.15" y="56.693" style="font-size:12px;line-height:1.25;font-family:sans-serif">Ap</tspan></text><path d="M70.866 60.236h21.26" style="fill:none;stroke:#000;stroke-width:1.09544528px;stroke-linecap:butt;stroke-linejoin:miter;stroke-opacity:1" transform="translate(-3.712 -5.437)"/><path d="m28.346 88.583-10.63 3.543 10.63 3.543M77.953 95.67l10.63-3.544-10.63-3.543M113.386 38.976l3.543 10.63M120.472 70.866l-3.543-10.63-3.543 10.63" style="fill:none;stroke:#000;stroke-width:1px;stroke-linecap:butt;stroke-linejoin:miter;stroke-opacity:1" transform="translate(-3.712 -5.437)"/><path d="m14.004 19.366-3.543 10.63M14.004 157.555l10.63 3.544" style="fill:none;stroke:#000;stroke-width:1px;stroke-linecap:butt;stroke-linejoin:miter;stroke-opacity:1"/><path d="m67.323 159.449 10.63 3.543-10.63 3.543" style="fill:none;stroke:#000;stroke-width:1px;stroke-linecap:butt;stroke-linejoin:miter;stroke-opacity:1" transform="translate(-3.712 -5.437)"/><path d="m173.453 143.382-10.63 3.543" style="fill:none;stroke:#000;stroke-width:1px;stroke-linecap:butt;stroke-linejoin:miter;stroke-opacity:1"/><path d="m74.41 60.236-3.544 10.63M74.41 49.606l-3.544-10.63M173.622 49.606l-3.543 10.63M177.165 102.756l-3.543 10.63-3.543-10.63" style="fill:none;stroke:#000;stroke-width:1px;stroke-linecap:butt;stroke-linejoin:miter;stroke-opacity:1" transform="translate(-3.712 -5.437)"/><path d="M74.24 107.949h99.213" style="fill:none;stroke:#000;stroke-width:1px;stroke-linecap:butt;stroke-linejoin:miter;stroke-opacity:1"/></svg>