<svg xmlns="http://www.w3.org/2000/svg" width="497" height="305" version="1.2"><desc>Generated with Qt</desc><g font-size="16" font-weight="400" style="fill:none;stroke:#000;stroke-width:1;stroke-linecap:square;stroke-linejoin:bevel"><g style="font-size:16px;font-style:normal;font-weight:400;fill:none;stroke:navy;stroke-width:2;stroke-linecap:square;stroke-linejoin:bevel;stroke-opacity:1;font-family:Helvetica"><path d="M29 245v-18M29 185v18" style="fill:none"/></g><g style="font-size:16px;font-style:normal;font-weight:400;fill:none;stroke:red;stroke-width:1;stroke-linecap:square;stroke-linejoin:bevel;stroke-opacity:1;font-family:Helvetica"><path d="M34 197h6M37 194v6" style="fill:none"/></g><g style="font-size:16px;font-style:normal;font-weight:400;fill:none;stroke:#000;stroke-width:1;stroke-linecap:square;stroke-linejoin:bevel;stroke-opacity:1;font-family:Helvetica"><path d="M34 233h6" style="fill:none"/></g><g style="font-size:16px;font-style:normal;font-weight:400;fill:none;stroke:navy;stroke-width:2;stroke-linecap:square;stroke-linejoin:bevel;stroke-opacity:1;font-family:Helvetica"><path d="M29.5 203c-6.904 0-12.5 5.596-12.5 12.5S22.596 228 29.5 228 42 222.404 42 215.5 36.404 203 29.5 203"/><path d="M30 215a4 4 0 0 0-8 0M29 215a4 4 0 0 0 8 0"/></g><g style="font-size:16px;font-style:normal;font-weight:400;fill:none;stroke:#000;stroke-width:1;stroke-linecap:square;stroke-linejoin:bevel;stroke-opacity:1;font-family:Helvetica"><text xml:space="preserve" x="47" y="203" style="font-style:normal;font-weight:400;font-size:16px;line-height:0%;font-family:Helvetica;fill:#000;fill-opacity:1;stroke:none">V1</text><text xml:space="preserve" x="47" y="221" style="font-style:normal;font-weight:400;font-size:16px;line-height:0%;font-family:Helvetica;fill:#000;fill-opacity:1;stroke:none">U=1 V</text></g><g style="font-size:16px;font-style:normal;font-weight:400;fill:none;stroke:navy;stroke-width:2;stroke-linecap:square;stroke-linejoin:bevel;stroke-opacity:1;font-family:Helvetica"><path d="M29 245v10" style="fill:none"/></g><g style="font-size:16px;font-style:normal;font-weight:400;fill:none;stroke:navy;stroke-width:3;stroke-linecap:square;stroke-linejoin:bevel;stroke-opacity:1;font-family:Helvetica"><path d="M18 255h22M22 261h14M26 267h6" style="fill:none"/></g><g style="font-size:16px;font-style:normal;font-weight:400;fill:none;stroke:navy;stroke-width:2;stroke-linecap:square;stroke-linejoin:bevel;stroke-opacity:1;font-family:Helvetica"><path d="M159 265v10" style="fill:none"/></g><g style="font-size:16px;font-style:normal;font-weight:400;fill:none;stroke:navy;stroke-width:3;stroke-linecap:square;stroke-linejoin:bevel;stroke-opacity:1;font-family:Helvetica"><path d="M148 275h22M152 281h14M156 287h6" style="fill:none"/></g><g style="font-size:16px;font-style:normal;font-weight:400;fill:none;stroke:navy;stroke-width:2;stroke-linecap:square;stroke-linejoin:bevel;stroke-opacity:1;font-family:Helvetica"><path d="M319 235v10" style="fill:none"/></g><g style="font-size:16px;font-style:normal;font-weight:400;fill:none;stroke:navy;stroke-width:3;stroke-linecap:square;stroke-linejoin:bevel;stroke-opacity:1;font-family:Helvetica"><path d="M308 245h22M312 251h14M316 257h6" style="fill:none"/></g><g style="font-size:16px;font-style:normal;font-weight:400;fill:none;stroke:navy;stroke-width:2;stroke-linecap:square;stroke-linejoin:bevel;stroke-opacity:1;font-family:Helvetica"><path d="M91 126h36M127 126v18M127 144H91M91 144v-18M79 135h12M127 135h12" style="fill:none"/></g><g style="font-size:16px;font-style:normal;font-weight:400;fill:none;stroke:#000;stroke-width:1;stroke-linecap:square;stroke-linejoin:bevel;stroke-opacity:1;font-family:Helvetica"><text xml:space="preserve" x="83" y="164" font-size="16" style="font-style:normal;font-weight:400;font-size:16px;line-height:0%;font-family:Helvetica;fill:#000;fill-opacity:1;stroke:none">R1</text></g><g style="font-size:16px;font-style:normal;font-weight:400;fill:none;stroke:navy;stroke-width:4;stroke-linecap:square;stroke-linejoin:bevel;stroke-opacity:1;font-family:Helvetica"><path d="M148 69h22M148 61h22" style="fill:none"/></g><g style="font-size:16px;font-style:normal;font-weight:400;fill:none;stroke:navy;stroke-width:2;stroke-linecap:square;stroke-linejoin:bevel;stroke-opacity:1;font-family:Helvetica"><path d="M159 95V69M159 61V35" style="fill:none"/></g><g style="font-size:16px;font-style:normal;font-weight:400;fill:none;stroke:#000;stroke-width:1;stroke-linecap:square;stroke-linejoin:bevel;stroke-opacity:1;font-family:Helvetica"><text xml:space="preserve" x="174" y="53" font-size="16" style="font-style:normal;font-weight:400;font-size:16px;line-height:0%;font-family:Helvetica;fill:#000;fill-opacity:1;stroke:none">C1</text></g><g style="font-size:16px;font-style:normal;font-weight:400;fill:none;stroke:navy;stroke-width:4;stroke-linecap:square;stroke-linejoin:bevel;stroke-opacity:1;font-family:Helvetica"><path d="M205 124v22M213 124v22" style="fill:none"/></g><g style="font-size:16px;font-style:normal;font-weight:400;fill:none;stroke:navy;stroke-width:2;stroke-linecap:square;stroke-linejoin:bevel;stroke-opacity:1;font-family:Helvetica"><path d="M179 135h26M213 135h26" style="fill:none"/></g><g style="font-size:16px;font-style:normal;font-weight:400;fill:none;stroke:#000;stroke-width:1;stroke-linecap:square;stroke-linejoin:bevel;stroke-opacity:1;font-family:Helvetica"><text xml:space="preserve" x="183" y="164" font-size="16" style="font-style:normal;font-weight:400;font-size:16px;line-height:0%;font-family:Helvetica;fill:#000;fill-opacity:1;stroke:none">C2</text></g><g style="font-size:16px;font-style:normal;font-weight:400;fill:none;stroke:navy;stroke-width:2;stroke-linecap:square;stroke-linejoin:bevel;stroke-opacity:1;font-family:Helvetica"><path d="M270 83V47M270 47h18M288 47v36M288 83h-18M279 95V83M279 47V35" style="fill:none"/></g><g style="font-size:16px;font-style:normal;font-weight:400;fill:none;stroke:#000;stroke-width:1;stroke-linecap:square;stroke-linejoin:bevel;stroke-opacity:1;font-family:Helvetica"><text xml:space="preserve" x="296" y="53" font-size="16" style="font-style:normal;font-weight:400;font-size:16px;line-height:0%;font-family:Helvetica;fill:#000;fill-opacity:1;stroke:none">R3</text></g><g style="font-size:16px;font-style:normal;font-weight:400;fill:none;stroke:navy;stroke-width:2;stroke-linecap:square;stroke-linejoin:bevel;stroke-opacity:1;font-family:Helvetica"><path d="M150 253v-36M150 217h18M168 217v36M168 253h-18M159 265v-12M159 217v-12" style="fill:none"/></g><g style="font-size:16px;font-style:normal;font-weight:400;fill:none;stroke:#000;stroke-width:1;stroke-linecap:square;stroke-linejoin:bevel;stroke-opacity:1;font-family:Helvetica"><text xml:space="preserve" x="176" y="223" font-size="16" style="font-style:normal;font-weight:400;font-size:16px;line-height:0%;font-family:Helvetica;fill:#000;fill-opacity:1;stroke:none">R2</text></g><g style="font-size:16px;font-style:normal;font-weight:400;fill:none;stroke:navy;stroke-width:2;stroke-linecap:square;stroke-linejoin:bevel;stroke-opacity:1;font-family:Helvetica"><path d="M319 175h10M319 135h10M379 155h10M329 190v-70M329 190l50-35M329 120l50 35" style="fill:none"/></g><g style="font-size:16px;font-style:normal;font-weight:400;fill:none;stroke:#000;stroke-width:1;stroke-linecap:square;stroke-linejoin:bevel;stroke-opacity:1;font-family:Helvetica"><path d="M333 136h7" style="fill:none"/></g><g style="font-size:16px;font-style:normal;font-weight:400;fill:none;stroke:red;stroke-width:1;stroke-linecap:square;stroke-linejoin:bevel;stroke-opacity:1;font-family:Helvetica"><path d="M333 174h7M336 177v-7" style="fill:none"/></g><g style="font-size:16px;font-style:normal;font-weight:400;fill:none;stroke:#000;stroke-width:1;stroke-linecap:square;stroke-linejoin:bevel;stroke-opacity:1;font-family:Helvetica"><text xml:space="preserve" x="323" y="113" font-size="16" style="font-style:normal;font-weight:400;font-size:16px;line-height:0%;font-family:Helvetica;fill:#000;fill-opacity:1;stroke:none">OP1</text></g><g style="font-size:16px;font-style:normal;font-weight:400;fill:none;stroke:navy;stroke-width:2;stroke-linecap:square;stroke-linejoin:bevel;stroke-opacity:1;font-family:Helvetica"><path d="M29 135h50" style="fill:none"/></g><g style="font-size:16px;font-style:normal;font-weight:400;fill:none;stroke:#000;stroke-width:1;stroke-linecap:square;stroke-linejoin:bevel;stroke-opacity:1;font-family:Helvetica"><text xml:space="preserve" x="79" y="119" font-size="16" style="font-style:normal;font-weight:400;font-size:16px;line-height:0%;font-family:Helvetica;fill:#000;fill-opacity:1;stroke:none">in</text></g><g style="font-size:16px;font-style:normal;font-weight:400;fill:none;stroke:purple;stroke-width:1;stroke-linecap:square;stroke-linejoin:bevel;stroke-opacity:1;font-family:Helvetica"><path d="M48.607 138.947a4.5 4.5 0 1 0 .311-7.133" vector-effect="non-scaling-stroke"/><path d="M76 123h6M76 123v-17M51 131l25-8" style="fill:none" vector-effect="non-scaling-stroke"/></g><g style="font-size:16px;font-style:normal;font-weight:400;fill:none;stroke:navy;stroke-width:2;stroke-linecap:square;stroke-linejoin:bevel;stroke-opacity:1;font-family:Helvetica"><path d="M29 135v50M139 135h20M159 135h20M159 95v40M159 135v70M319 175v60M159 15v20M159 15h120M279 15v20M239 135h40M279 135h40M279 95v40M279 15h150M389 155h40M429 15v140" style="fill:none"/></g><g style="font-size:16px;font-style:normal;font-weight:400;fill:none;stroke:#000;stroke-width:1;stroke-linecap:square;stroke-linejoin:bevel;stroke-opacity:1;font-family:Helvetica"><text xml:space="preserve" x="459" y="29" font-size="16" style="font-style:normal;font-weight:400;font-size:16px;line-height:0%;font-family:Helvetica;fill:#000;fill-opacity:1;stroke:none">out</text></g><g style="font-size:16px;font-style:normal;font-weight:400;fill:none;stroke:purple;stroke-width:1;stroke-linecap:square;stroke-linejoin:bevel;stroke-opacity:1;font-family:Helvetica"><path d="M432.947 43.393a4.5 4.5 0 1 0-7.133-.311" vector-effect="non-scaling-stroke"/><path d="M456 33h10M456 33V16M433 40l23-7" style="fill:none" vector-effect="non-scaling-stroke"/></g><g style="font-size:16px;font-style:normal;font-weight:400;fill:navy;fill-opacity:1;stroke:none;font-family:Helvetica"><path d="M27 183h4v4h-4z" style="fill-rule:evenodd" vector-effect="non-scaling-stroke"/></g><g style="font-size:16px;font-style:normal;font-weight:400;fill:navy;fill-opacity:1;stroke:none;font-family:Helvetica"><path d="M27 243h4v4h-4z" style="fill-rule:evenodd" vector-effect="non-scaling-stroke"/></g><g style="font-size:16px;font-style:normal;font-weight:400;fill:navy;fill-opacity:1;stroke:none;font-family:Helvetica"><path d="M157 263h4v4h-4z" style="fill-rule:evenodd" vector-effect="non-scaling-stroke"/></g><g style="font-size:16px;font-style:normal;font-weight:400;fill:navy;fill-opacity:1;stroke:none;font-family:Helvetica"><path d="M317 233h4v4h-4z" style="fill-rule:evenodd" vector-effect="non-scaling-stroke"/></g><g style="font-size:16px;font-style:normal;font-weight:400;fill:navy;fill-opacity:1;stroke:none;font-family:Helvetica"><path d="M317 133h4v4h-4z" style="fill-rule:evenodd" vector-effect="non-scaling-stroke"/></g><g style="font-size:16px;font-style:normal;font-weight:400;fill:navy;fill-opacity:1;stroke:none;font-family:Helvetica"><path d="M317 173h4v4h-4z" style="fill-rule:evenodd" vector-effect="non-scaling-stroke"/></g><g style="font-size:16px;font-style:normal;font-weight:400;fill:navy;fill-opacity:1;stroke:none;font-family:Helvetica"><path d="M387 153h4v4h-4z" style="fill-rule:evenodd" vector-effect="non-scaling-stroke"/></g><g style="font-size:16px;font-style:normal;font-weight:400;fill:navy;fill-opacity:1;stroke:none;font-family:Helvetica"><path d="M157 93h4v4h-4z" style="fill-rule:evenodd" vector-effect="non-scaling-stroke"/></g><g style="font-size:16px;font-style:normal;font-weight:400;fill:navy;fill-opacity:1;stroke:none;font-family:Helvetica"><path d="M157 33h4v4h-4z" style="fill-rule:evenodd" vector-effect="non-scaling-stroke"/></g><g style="font-size:16px;font-style:normal;font-weight:400;fill:navy;fill-opacity:1;stroke:none;font-family:Helvetica"><path d="M177 133h4v4h-4z" style="fill-rule:evenodd" vector-effect="non-scaling-stroke"/></g><g style="font-size:16px;font-style:normal;font-weight:400;fill:navy;fill-opacity:1;stroke:none;font-family:Helvetica"><path d="M237 133h4v4h-4z" style="fill-rule:evenodd" vector-effect="non-scaling-stroke"/></g><g style="font-size:16px;font-style:normal;font-weight:400;fill:navy;fill-opacity:1;stroke:none;font-family:Helvetica"><path d="M77 133h4v4h-4z" style="fill-rule:evenodd" vector-effect="non-scaling-stroke"/></g><g style="font-size:16px;font-style:normal;font-weight:400;fill:navy;fill-opacity:1;stroke:none;font-family:Helvetica"><path d="M137 133h4v4h-4z" style="fill-rule:evenodd" vector-effect="non-scaling-stroke"/></g><g style="font-size:16px;font-style:normal;font-weight:400;fill:navy;fill-opacity:1;stroke:none;font-family:Helvetica"><path d="M157 203h4v4h-4z" style="fill-rule:evenodd" vector-effect="non-scaling-stroke"/></g><g style="font-size:16px;font-style:normal;font-weight:400;fill:navy;fill-opacity:1;stroke:none;font-family:Helvetica"><path d="M277 93h4v4h-4z" style="fill-rule:evenodd" vector-effect="non-scaling-stroke"/></g><g style="font-size:16px;font-style:normal;font-weight:400;fill:navy;fill-opacity:1;stroke:none;font-family:Helvetica"><path d="M277 33h4v4h-4z" style="fill-rule:evenodd" vector-effect="non-scaling-stroke"/></g><g style="font-size:16px;font-style:normal;font-weight:400;fill:navy;fill-opacity:1;stroke:navy;stroke-width:1;stroke-linecap:square;stroke-linejoin:bevel;stroke-opacity:1;font-family:Helvetica"><path d="M162 135a3 3 0 1 1-6 0 3 3 0 0 1 6 0" style="fill-rule:evenodd"/></g><g style="font-size:16px;font-style:normal;font-weight:400;fill:navy;fill-opacity:1;stroke:navy;stroke-width:1;stroke-linecap:square;stroke-linejoin:bevel;stroke-opacity:1;font-family:Helvetica"><path d="M282 15a3 3 0 1 1-6 0 3 3 0 0 1 6 0" style="fill-rule:evenodd"/></g><g style="font-size:16px;font-style:normal;font-weight:400;fill:navy;fill-opacity:1;stroke:navy;stroke-width:1;stroke-linecap:square;stroke-linejoin:bevel;stroke-opacity:1;font-family:Helvetica"><path d="M282 135a3 3 0 1 1-6 0 3 3 0 0 1 6 0" style="fill-rule:evenodd"/></g></g></svg>