<svg xmlns="http://www.w3.org/2000/svg" width="497" height="295" version="1.2"><desc>Generated with Qt</desc><g font-size="16" font-weight="400" style="fill:none;stroke:#000;stroke-width:1;stroke-linecap:square;stroke-linejoin:bevel"><g style="font-size:16px;font-style:normal;font-weight:400;fill:none;stroke:navy;stroke-width:2;stroke-linecap:square;stroke-linejoin:bevel;stroke-opacity:1;font-family:Helvetica"><path d="M319 235v10" style="fill:none"/></g><g style="font-size:16px;font-style:normal;font-weight:400;fill:none;stroke:navy;stroke-width:3;stroke-linecap:square;stroke-linejoin:bevel;stroke-opacity:1;font-family:Helvetica"><path d="M308 245h22M312 251h14M316 257h6" style="fill:none"/></g><g style="font-size:16px;font-style:normal;font-weight:400;fill:none;stroke:navy;stroke-width:2;stroke-linecap:square;stroke-linejoin:bevel;stroke-opacity:1;font-family:Helvetica"><path d="M29 245v10" style="fill:none"/></g><g style="font-size:16px;font-style:normal;font-weight:400;fill:none;stroke:navy;stroke-width:3;stroke-linecap:square;stroke-linejoin:bevel;stroke-opacity:1;font-family:Helvetica"><path d="M18 255h22M22 261h14M26 267h6" style="fill:none"/></g><g style="font-size:16px;font-style:normal;font-weight:400;fill:none;stroke:navy;stroke-width:2;stroke-linecap:square;stroke-linejoin:bevel;stroke-opacity:1;font-family:Helvetica"><path d="M191 126h36M227 126v18M227 144h-36M191 144v-18M179 135h12M227 135h12" style="fill:none"/></g><g style="font-size:16px;font-style:normal;font-weight:400;fill:none;stroke:#000;stroke-width:1;stroke-linecap:square;stroke-linejoin:bevel;stroke-opacity:1;font-family:Helvetica"><text xml:space="preserve" x="183" y="164" font-size="16" style="font-style:normal;font-weight:400;font-size:16px;line-height:0%;font-family:Helvetica;fill:#000;fill-opacity:1;stroke:none">R3</text></g><g style="font-size:16px;font-style:normal;font-weight:400;fill:none;stroke:navy;stroke-width:2;stroke-linecap:square;stroke-linejoin:bevel;stroke-opacity:1;font-family:Helvetica"><path d="M91 126h36M127 126v18M127 144H91M91 144v-18M79 135h12M127 135h12" style="fill:none"/></g><g style="font-size:16px;font-style:normal;font-weight:400;fill:none;stroke:#000;stroke-width:1;stroke-linecap:square;stroke-linejoin:bevel;stroke-opacity:1;font-family:Helvetica"><text xml:space="preserve" x="83" y="164" font-size="16" style="font-style:normal;font-weight:400;font-size:16px;line-height:0%;font-family:Helvetica;fill:#000;fill-opacity:1;stroke:none">R2</text></g><g style="font-size:16px;font-style:normal;font-weight:400;fill:none;stroke:navy;stroke-width:2;stroke-linecap:square;stroke-linejoin:bevel;stroke-opacity:1;font-family:Helvetica"><path d="M150 83V47M150 47h18M168 47v36M168 83h-18M159 95V83M159 47V35" style="fill:none"/></g><g style="font-size:16px;font-style:normal;font-weight:400;fill:none;stroke:#000;stroke-width:1;stroke-linecap:square;stroke-linejoin:bevel;stroke-opacity:1;font-family:Helvetica"><text xml:space="preserve" x="174" y="53" font-size="16" style="font-style:normal;font-weight:400;font-size:16px;line-height:0%;font-family:Helvetica;fill:#000;fill-opacity:1;stroke:none">R1</text></g><g style="font-size:16px;font-style:normal;font-weight:400;fill:none;stroke:navy;stroke-width:4;stroke-linecap:square;stroke-linejoin:bevel;stroke-opacity:1;font-family:Helvetica"><path d="M268 69h22M268 61h22" style="fill:none"/></g><g style="font-size:16px;font-style:normal;font-weight:400;fill:none;stroke:navy;stroke-width:2;stroke-linecap:square;stroke-linejoin:bevel;stroke-opacity:1;font-family:Helvetica"><path d="M279 95V69M279 61V35" style="fill:none"/></g><g style="font-size:16px;font-style:normal;font-weight:400;fill:none;stroke:#000;stroke-width:1;stroke-linecap:square;stroke-linejoin:bevel;stroke-opacity:1;font-family:Helvetica"><text xml:space="preserve" x="296" y="53" font-size="16" style="font-style:normal;font-weight:400;font-size:16px;line-height:0%;font-family:Helvetica;fill:#000;fill-opacity:1;stroke:none">C2</text></g><g style="font-size:16px;font-style:normal;font-weight:400;fill:none;stroke:navy;stroke-width:2;stroke-linecap:square;stroke-linejoin:bevel;stroke-opacity:1;font-family:Helvetica"><path d="M319 175h10M319 135h10M379 155h10M329 190v-70M329 190l50-35M329 120l50 35" style="fill:none"/></g><g style="font-size:16px;font-style:normal;font-weight:400;fill:none;stroke:#000;stroke-width:1;stroke-linecap:square;stroke-linejoin:bevel;stroke-opacity:1;font-family:Helvetica"><path d="M333 136h7" style="fill:none"/></g><g style="font-size:16px;font-style:normal;font-weight:400;fill:none;stroke:red;stroke-width:1;stroke-linecap:square;stroke-linejoin:bevel;stroke-opacity:1;font-family:Helvetica"><path d="M333 174h7M336 177v-7" style="fill:none"/></g><g style="font-size:16px;font-style:normal;font-weight:400;fill:none;stroke:#000;stroke-width:1;stroke-linecap:square;stroke-linejoin:bevel;stroke-opacity:1;font-family:Helvetica"><text xml:space="preserve" x="323" y="113" font-size="16" style="font-style:normal;font-weight:400;font-size:16px;line-height:0%;font-family:Helvetica;fill:#000;fill-opacity:1;stroke:none">OP1</text></g><g style="font-size:16px;font-style:normal;font-weight:400;fill:none;stroke:navy;stroke-width:4;stroke-linecap:square;stroke-linejoin:bevel;stroke-opacity:1;font-family:Helvetica"><path d="M148 199h22M148 191h22" style="fill:none"/></g><g style="font-size:16px;font-style:normal;font-weight:400;fill:none;stroke:navy;stroke-width:2;stroke-linecap:square;stroke-linejoin:bevel;stroke-opacity:1;font-family:Helvetica"><path d="M159 225v-26M159 191v-26" style="fill:none"/></g><g style="font-size:16px;font-style:normal;font-weight:400;fill:none;stroke:#000;stroke-width:1;stroke-linecap:square;stroke-linejoin:bevel;stroke-opacity:1;font-family:Helvetica"><text xml:space="preserve" x="176" y="183" font-size="16" style="font-style:normal;font-weight:400;font-size:16px;line-height:0%;font-family:Helvetica;fill:#000;fill-opacity:1;stroke:none">C1</text></g><g style="font-size:16px;font-style:normal;font-weight:400;fill:none;stroke:navy;stroke-width:2;stroke-linecap:square;stroke-linejoin:bevel;stroke-opacity:1;font-family:Helvetica"><path d="M159 255v10" style="fill:none"/></g><g style="font-size:16px;font-style:normal;font-weight:400;fill:none;stroke:navy;stroke-width:3;stroke-linecap:square;stroke-linejoin:bevel;stroke-opacity:1;font-family:Helvetica"><path d="M148 265h22M152 271h14M156 277h6" style="fill:none"/></g><g style="font-size:16px;font-style:normal;font-weight:400;fill:none;stroke:navy;stroke-width:2;stroke-linecap:square;stroke-linejoin:bevel;stroke-opacity:1;font-family:Helvetica"><path d="M29 245v-18M29 185v18" style="fill:none"/></g><g style="font-size:16px;font-style:normal;font-weight:400;fill:none;stroke:red;stroke-width:1;stroke-linecap:square;stroke-linejoin:bevel;stroke-opacity:1;font-family:Helvetica"><path d="M34 197h6M37 194v6" style="fill:none"/></g><g style="font-size:16px;font-style:normal;font-weight:400;fill:none;stroke:#000;stroke-width:1;stroke-linecap:square;stroke-linejoin:bevel;stroke-opacity:1;font-family:Helvetica"><path d="M34 233h6" style="fill:none"/></g><g style="font-size:16px;font-style:normal;font-weight:400;fill:none;stroke:navy;stroke-width:2;stroke-linecap:square;stroke-linejoin:bevel;stroke-opacity:1;font-family:Helvetica"><path d="M29.5 203c-6.904 0-12.5 5.596-12.5 12.5S22.596 228 29.5 228 42 222.404 42 215.5 36.404 203 29.5 203"/><path d="M30 215a4 4 0 0 0-8 0M29 215a4 4 0 0 0 8 0"/></g><g style="font-size:16px;font-style:normal;font-weight:400;fill:none;stroke:#000;stroke-width:1;stroke-linecap:square;stroke-linejoin:bevel;stroke-opacity:1;font-family:Helvetica"><text xml:space="preserve" x="47" y="203" font-size="16" style="font-style:normal;font-weight:400;font-size:16px;line-height:0%;font-family:Helvetica;fill:#000;fill-opacity:1;stroke:none">V1</text></g><g style="font-size:16px;font-style:normal;font-weight:400;fill:none;stroke:navy;stroke-width:2;stroke-linecap:square;stroke-linejoin:bevel;stroke-opacity:1;font-family:Helvetica"><path d="M139 135h20M159 135h20M159 95v40M319 175v60M159 15v20M159 15h120M279 15v20M239 135h40M279 135h40M279 95v40M279 15h150M389 155h40M429 15v140" style="fill:none"/></g><g style="font-size:16px;font-style:normal;font-weight:400;fill:none;stroke:#000;stroke-width:1;stroke-linecap:square;stroke-linejoin:bevel;stroke-opacity:1;font-family:Helvetica"><text xml:space="preserve" x="449" y="69" font-size="16" style="font-style:normal;font-weight:400;font-size:16px;line-height:0%;font-family:Helvetica;fill:#000;fill-opacity:1;stroke:none">output</text></g><g style="font-size:16px;font-style:normal;font-weight:400;fill:none;stroke:purple;stroke-width:1;stroke-linecap:square;stroke-linejoin:bevel;stroke-opacity:1;font-family:Helvetica"><path d="M432.947 88.393a4.5 4.5 0 1 0-7.133-.311" vector-effect="non-scaling-stroke"/><path d="M446 73h21M446 73V56M433 85l13-12" style="fill:none" vector-effect="non-scaling-stroke"/></g><g style="font-size:16px;font-style:normal;font-weight:400;fill:none;stroke:navy;stroke-width:2;stroke-linecap:square;stroke-linejoin:bevel;stroke-opacity:1;font-family:Helvetica"><path d="M159 135v30M159 225v30M29 135h50" style="fill:none"/></g><g style="font-size:16px;font-style:normal;font-weight:400;fill:none;stroke:#000;stroke-width:1;stroke-linecap:square;stroke-linejoin:bevel;stroke-opacity:1;font-family:Helvetica"><text xml:space="preserve" x="69" y="99" font-size="16" style="font-style:normal;font-weight:400;font-size:16px;line-height:0%;font-family:Helvetica;fill:#000;fill-opacity:1;stroke:none">input</text></g><g style="font-size:16px;font-style:normal;font-weight:400;fill:none;stroke:purple;stroke-width:1;stroke-linecap:square;stroke-linejoin:bevel;stroke-opacity:1;font-family:Helvetica"><path d="M48.607 138.947a4.5 4.5 0 1 0 .311-7.133" vector-effect="non-scaling-stroke"/><path d="M66 103h16M66 103V86M51 131l15-28" style="fill:none" vector-effect="non-scaling-stroke"/></g><g style="font-size:16px;font-style:normal;font-weight:400;fill:none;stroke:navy;stroke-width:2;stroke-linecap:square;stroke-linejoin:bevel;stroke-opacity:1;font-family:Helvetica"><path d="M29 135v50" style="fill:none"/></g><g style="font-size:16px;font-style:normal;font-weight:400;fill:navy;fill-opacity:1;stroke:none;font-family:Helvetica"><path d="M317 133h4v4h-4z" style="fill-rule:evenodd" vector-effect="non-scaling-stroke"/></g><g style="font-size:16px;font-style:normal;font-weight:400;fill:navy;fill-opacity:1;stroke:none;font-family:Helvetica"><path d="M317 173h4v4h-4z" style="fill-rule:evenodd" vector-effect="non-scaling-stroke"/></g><g style="font-size:16px;font-style:normal;font-weight:400;fill:navy;fill-opacity:1;stroke:none;font-family:Helvetica"><path d="M387 153h4v4h-4z" style="fill-rule:evenodd" vector-effect="non-scaling-stroke"/></g><g style="font-size:16px;font-style:normal;font-weight:400;fill:navy;fill-opacity:1;stroke:none;font-family:Helvetica"><path d="M317 233h4v4h-4z" style="fill-rule:evenodd" vector-effect="non-scaling-stroke"/></g><g style="font-size:16px;font-style:normal;font-weight:400;fill:navy;fill-opacity:1;stroke:none;font-family:Helvetica"><path d="M27 243h4v4h-4z" style="fill-rule:evenodd" vector-effect="non-scaling-stroke"/></g><g style="font-size:16px;font-style:normal;font-weight:400;fill:navy;fill-opacity:1;stroke:none;font-family:Helvetica"><path d="M177 133h4v4h-4z" style="fill-rule:evenodd" vector-effect="non-scaling-stroke"/></g><g style="font-size:16px;font-style:normal;font-weight:400;fill:navy;fill-opacity:1;stroke:none;font-family:Helvetica"><path d="M237 133h4v4h-4z" style="fill-rule:evenodd" vector-effect="non-scaling-stroke"/></g><g style="font-size:16px;font-style:normal;font-weight:400;fill:navy;fill-opacity:1;stroke:none;font-family:Helvetica"><path d="M77 133h4v4h-4z" style="fill-rule:evenodd" vector-effect="non-scaling-stroke"/></g><g style="font-size:16px;font-style:normal;font-weight:400;fill:navy;fill-opacity:1;stroke:none;font-family:Helvetica"><path d="M137 133h4v4h-4z" style="fill-rule:evenodd" vector-effect="non-scaling-stroke"/></g><g style="font-size:16px;font-style:normal;font-weight:400;fill:navy;fill-opacity:1;stroke:none;font-family:Helvetica"><path d="M157 93h4v4h-4z" style="fill-rule:evenodd" vector-effect="non-scaling-stroke"/></g><g style="font-size:16px;font-style:normal;font-weight:400;fill:navy;fill-opacity:1;stroke:none;font-family:Helvetica"><path d="M157 33h4v4h-4z" style="fill-rule:evenodd" vector-effect="non-scaling-stroke"/></g><g style="font-size:16px;font-style:normal;font-weight:400;fill:navy;fill-opacity:1;stroke:none;font-family:Helvetica"><path d="M277 93h4v4h-4z" style="fill-rule:evenodd" vector-effect="non-scaling-stroke"/></g><g style="font-size:16px;font-style:normal;font-weight:400;fill:navy;fill-opacity:1;stroke:none;font-family:Helvetica"><path d="M277 33h4v4h-4z" style="fill-rule:evenodd" vector-effect="non-scaling-stroke"/></g><g style="font-size:16px;font-style:normal;font-weight:400;fill:navy;fill-opacity:1;stroke:navy;stroke-width:1;stroke-linecap:square;stroke-linejoin:bevel;stroke-opacity:1;font-family:Helvetica"><path d="M162 135a3 3 0 1 1-6 0 3 3 0 0 1 6 0" style="fill-rule:evenodd"/></g><g style="font-size:16px;font-style:normal;font-weight:400;fill:navy;fill-opacity:1;stroke:navy;stroke-width:1;stroke-linecap:square;stroke-linejoin:bevel;stroke-opacity:1;font-family:Helvetica"><path d="M282 15a3 3 0 1 1-6 0 3 3 0 0 1 6 0" style="fill-rule:evenodd"/></g><g style="font-size:16px;font-style:normal;font-weight:400;fill:navy;fill-opacity:1;stroke:navy;stroke-width:1;stroke-linecap:square;stroke-linejoin:bevel;stroke-opacity:1;font-family:Helvetica"><path d="M282 135a3 3 0 1 1-6 0 3 3 0 0 1 6 0" style="fill-rule:evenodd"/></g><g style="font-size:16px;font-style:normal;font-weight:400;fill:navy;fill-opacity:1;stroke:none;font-family:Helvetica"><path d="M157 223h4v4h-4z" style="fill-rule:evenodd" vector-effect="non-scaling-stroke"/></g><g style="font-size:16px;font-style:normal;font-weight:400;fill:navy;fill-opacity:1;stroke:none;font-family:Helvetica"><path d="M157 163h4v4h-4z" style="fill-rule:evenodd" vector-effect="non-scaling-stroke"/></g><g style="font-size:16px;font-style:normal;font-weight:400;fill:navy;fill-opacity:1;stroke:none;font-family:Helvetica"><path d="M157 253h4v4h-4z" style="fill-rule:evenodd" vector-effect="non-scaling-stroke"/></g><g style="font-size:16px;font-style:normal;font-weight:400;fill:navy;fill-opacity:1;stroke:none;font-family:Helvetica"><path d="M27 183h4v4h-4z" style="fill-rule:evenodd" vector-effect="non-scaling-stroke"/></g></g></svg>