<svg xmlns="http://www.w3.org/2000/svg" width="542" height="366" version="1.2"><desc>Generated with Qt</desc><g font-size="16" style="fill:none;stroke:#000;stroke-width:1;stroke-linecap:square;stroke-linejoin:bevel"><g style="font-size:16px;font-style:normal;font-weight:400;fill:none;stroke:navy;stroke-width:2;stroke-linecap:square;stroke-linejoin:bevel;stroke-opacity:1;font-family:Helvetica"><path d="M279 226v10" font-weight="400" style="fill:none"/></g><g font-weight="400" style="font-size:16px;font-style:normal;font-weight:400;fill:none;stroke:navy;stroke-width:3;stroke-linecap:square;stroke-linejoin:bevel;stroke-opacity:1;font-family:Helvetica"><path d="M268 236h22M272 242h14M276 248h6" style="fill:none"/></g><g style="font-size:16px;font-style:normal;font-weight:400;fill:none;stroke:navy;stroke-width:2;stroke-linecap:square;stroke-linejoin:bevel;stroke-opacity:1;font-family:Helvetica"><path d="M29 246v10" font-weight="400" style="fill:none"/></g><g font-weight="400" style="font-size:16px;font-style:normal;font-weight:400;fill:none;stroke:navy;stroke-width:3;stroke-linecap:square;stroke-linejoin:bevel;stroke-opacity:1;font-family:Helvetica"><path d="M18 256h22M22 262h14M26 268h6" style="fill:none"/></g><g style="font-size:16px;font-style:normal;font-weight:400;fill:none;stroke:navy;stroke-width:2;stroke-linecap:square;stroke-linejoin:bevel;stroke-opacity:1;font-family:Helvetica"><path d="M329 326v10" font-weight="400" style="fill:none"/></g><g font-weight="400" style="font-size:16px;font-style:normal;font-weight:400;fill:none;stroke:navy;stroke-width:3;stroke-linecap:square;stroke-linejoin:bevel;stroke-opacity:1;font-family:Helvetica"><path d="M318 336h22M322 342h14M326 348h6" style="fill:none"/></g><g style="font-size:16px;font-style:normal;font-weight:400;fill:none;stroke:navy;stroke-width:2;stroke-linecap:square;stroke-linejoin:bevel;stroke-opacity:1;font-family:Helvetica"><path d="M159 266v10" font-weight="400" style="fill:none"/></g><g font-weight="400" style="font-size:16px;font-style:normal;font-weight:400;fill:none;stroke:navy;stroke-width:3;stroke-linecap:square;stroke-linejoin:bevel;stroke-opacity:1;font-family:Helvetica"><path d="M148 276h22M152 282h14M156 288h6" style="fill:none"/></g><g font-weight="400" style="font-size:16px;font-style:normal;font-weight:400;fill:none;stroke:navy;stroke-width:4;stroke-linecap:square;stroke-linejoin:bevel;stroke-opacity:1;font-family:Helvetica"><path d="M205 157v-22M213 157v-22" style="fill:none"/></g><g font-weight="400" style="font-size:16px;font-style:normal;font-weight:400;fill:none;stroke:navy;stroke-width:2;stroke-linecap:square;stroke-linejoin:bevel;stroke-opacity:1;font-family:Helvetica"><path d="M179 146h26M213 146h26" style="fill:none"/></g><g style="font-size:16px;font-style:normal;font-weight:400;fill:none;stroke:#000;stroke-width:1;stroke-linecap:square;stroke-linejoin:bevel;stroke-opacity:1;font-family:Helvetica"><text xml:space="preserve" x="183" y="129" font-size="16" font-weight="400" style="font-style:normal;font-weight:400;font-size:16px;line-height:0%;font-family:Helvetica;fill:#000;fill-opacity:1;stroke:none">C2</text></g><g font-weight="400" style="font-size:16px;font-style:normal;font-weight:400;fill:none;stroke:navy;stroke-width:2;stroke-linecap:square;stroke-linejoin:bevel;stroke-opacity:1;font-family:Helvetica"><path d="M91 137h36M127 137v18M127 155H91M91 155v-18M79 146h12M127 146h12" style="fill:none"/></g><g style="font-size:16px;font-style:normal;font-weight:400;fill:none;stroke:#000;stroke-width:1;stroke-linecap:square;stroke-linejoin:bevel;stroke-opacity:1;font-family:Helvetica"><text xml:space="preserve" x="83" y="175" font-size="16" font-weight="400" style="font-style:normal;font-weight:400;font-size:16px;line-height:0%;font-family:Helvetica;fill:#000;fill-opacity:1;stroke:none">R1</text></g><g font-weight="400" style="font-size:16px;font-style:normal;font-weight:400;fill:none;stroke:navy;stroke-width:4;stroke-linecap:square;stroke-linejoin:bevel;stroke-opacity:1;font-family:Helvetica"><path d="M148 240h22M148 232h22" style="fill:none"/></g><g font-weight="400" style="font-size:16px;font-style:normal;font-weight:400;fill:none;stroke:navy;stroke-width:2;stroke-linecap:square;stroke-linejoin:bevel;stroke-opacity:1;font-family:Helvetica"><path d="M159 266v-26M159 232v-26" style="fill:none"/></g><g style="font-size:16px;font-style:normal;font-weight:400;fill:none;stroke:#000;stroke-width:1;stroke-linecap:square;stroke-linejoin:bevel;stroke-opacity:1;font-family:Helvetica"><text xml:space="preserve" x="176" y="224" font-size="16" font-weight="400" style="font-style:normal;font-weight:400;font-size:16px;line-height:0%;font-family:Helvetica;fill:#000;fill-opacity:1;stroke:none">C1</text></g><g font-weight="400" style="font-size:16px;font-style:normal;font-weight:400;fill:none;stroke:navy;stroke-width:2;stroke-linecap:square;stroke-linejoin:bevel;stroke-opacity:1;font-family:Helvetica"><path d="M320 314v-36M320 278h18M338 278v36M338 314h-18M329 326v-12M329 278v-12" style="fill:none"/></g><g style="font-size:16px;font-style:normal;font-weight:400;fill:none;stroke:#000;stroke-width:1;stroke-linecap:square;stroke-linejoin:bevel;stroke-opacity:1;font-family:Helvetica"><text xml:space="preserve" x="344" y="284" font-size="16" font-weight="400" style="font-style:normal;font-weight:400;font-size:16px;line-height:0%;font-family:Helvetica;fill:#000;fill-opacity:1;stroke:none">R4</text></g><g font-weight="400" style="font-size:16px;font-style:normal;font-weight:400;fill:none;stroke:navy;stroke-width:2;stroke-linecap:square;stroke-linejoin:bevel;stroke-opacity:1;font-family:Helvetica"><path d="M321 17h36M357 17v18M357 35h-36M321 35V17M309 26h12M357 26h12" style="fill:none"/></g><g style="font-size:16px;font-style:normal;font-weight:400;fill:none;stroke:#000;stroke-width:1;stroke-linecap:square;stroke-linejoin:bevel;stroke-opacity:1;font-family:Helvetica"><text xml:space="preserve" x="313" y="55" font-size="16" font-weight="400" style="font-style:normal;font-weight:400;font-size:16px;line-height:0%;font-family:Helvetica;fill:#000;fill-opacity:1;stroke:none">R2</text></g><g font-weight="400" style="font-size:16px;font-style:normal;font-weight:400;fill:none;stroke:navy;stroke-width:2;stroke-linecap:square;stroke-linejoin:bevel;stroke-opacity:1;font-family:Helvetica"><path d="M437 207h-36M401 207v18M401 225h36M437 225v-18M449 216h-12M401 216h-12" style="fill:none"/></g><g style="font-size:16px;font-style:normal;font-weight:400;fill:none;stroke:#000;stroke-width:1;stroke-linecap:square;stroke-linejoin:bevel;stroke-opacity:1;font-family:Helvetica"><text xml:space="preserve" x="393" y="245" font-size="16" font-weight="400" style="font-style:normal;font-weight:400;font-size:16px;line-height:0%;font-family:Helvetica;fill:#000;fill-opacity:1;stroke:none">R5</text></g><g font-weight="400" style="font-size:16px;font-style:normal;font-weight:400;fill:none;stroke:navy;stroke-width:2;stroke-linecap:square;stroke-linejoin:bevel;stroke-opacity:1;font-family:Helvetica"><path d="M288 214v-36M288 178h-18M270 178v36M270 214h18M279 226v-12M279 178v-12" style="fill:none"/></g><g style="font-size:16px;font-style:normal;font-weight:400;fill:none;stroke:#000;stroke-width:1;stroke-linecap:square;stroke-linejoin:bevel;stroke-opacity:1;font-family:Helvetica"><text xml:space="preserve" x="204" y="184" font-size="16" font-weight="400" style="font-style:normal;font-weight:400;font-size:16px;line-height:0%;font-family:Helvetica;fill:#000;fill-opacity:1;stroke:none">R3</text></g><g font-weight="400" style="font-size:16px;font-style:normal;font-weight:400;fill:none;stroke:navy;stroke-width:2;stroke-linecap:square;stroke-linejoin:bevel;stroke-opacity:1;font-family:Helvetica"><path d="M29 246v-18M29 186v18" style="fill:none"/></g><g font-weight="400" style="font-size:16px;font-style:normal;font-weight:400;fill:none;stroke:red;stroke-width:1;stroke-linecap:square;stroke-linejoin:bevel;stroke-opacity:1;font-family:Helvetica"><path d="M34 198h6M37 195v6" style="fill:none"/></g><g style="font-size:16px;font-style:normal;font-weight:400;fill:none;stroke:#000;stroke-width:1;stroke-linecap:square;stroke-linejoin:bevel;stroke-opacity:1;font-family:Helvetica"><path d="M34 234h6" font-weight="400" style="fill:none"/></g><g font-weight="400" style="font-size:16px;font-style:normal;font-weight:400;fill:none;stroke:navy;stroke-width:2;stroke-linecap:square;stroke-linejoin:bevel;stroke-opacity:1;font-family:Helvetica"><path d="M29.5 204c-6.904 0-12.5 5.596-12.5 12.5S22.596 229 29.5 229 42 223.404 42 216.5 36.404 204 29.5 204"/><path d="M30 216a4 4 0 0 0-8 0M29 216a4 4 0 0 0 8 0"/></g><g style="font-size:16px;font-style:normal;font-weight:400;fill:none;stroke:#000;stroke-width:1;stroke-linecap:square;stroke-linejoin:bevel;stroke-opacity:1;font-family:Helvetica"><text xml:space="preserve" x="47" y="204" font-size="16" font-weight="400" style="font-style:normal;font-weight:400;font-size:16px;line-height:0%;font-family:Helvetica;fill:#000;fill-opacity:1;stroke:none">V1</text></g><g font-weight="400" style="font-size:16px;font-style:normal;font-weight:400;fill:none;stroke:navy;stroke-width:2;stroke-linecap:square;stroke-linejoin:bevel;stroke-opacity:1;font-family:Helvetica"><path d="M349 96h10M349 136h10M409 116h10M359 81v70M359 81l50 35M359 151l50-35" style="fill:none"/></g><g style="font-size:16px;font-style:normal;font-weight:400;fill:none;stroke:#000;stroke-width:1;stroke-linecap:square;stroke-linejoin:bevel;stroke-opacity:1;font-family:Helvetica"><path d="M363 135h7" font-weight="400" style="fill:none"/></g><g font-weight="400" style="font-size:16px;font-style:normal;font-weight:400;fill:none;stroke:red;stroke-width:1;stroke-linecap:square;stroke-linejoin:bevel;stroke-opacity:1;font-family:Helvetica"><path d="M363 97h7M366 94v7" style="fill:none"/></g><g style="font-size:16px;font-style:normal;font-weight:400;fill:none;stroke:#000;stroke-width:1;stroke-linecap:square;stroke-linejoin:bevel;stroke-opacity:1;font-family:Helvetica"><text xml:space="preserve" x="353" y="172" font-size="16" font-weight="400" style="font-style:normal;font-weight:400;font-size:16px;line-height:0%;font-family:Helvetica;fill:#000;fill-opacity:1;stroke:none">OP1</text></g><g font-weight="400" style="font-size:16px;font-style:normal;font-weight:400;fill:none;stroke:navy;stroke-width:2;stroke-linecap:square;stroke-linejoin:bevel;stroke-opacity:1;font-family:Helvetica"><path d="M369 26h100M469 26v90" style="fill:none"/></g><g style="font-size:16px;font-style:normal;font-weight:400;fill:none;stroke:#000;stroke-width:1;stroke-linecap:square;stroke-linejoin:bevel;stroke-opacity:1;font-family:Helvetica"><text xml:space="preserve" x="499" y="60" font-size="16" font-weight="400" style="font-style:normal;font-weight:400;font-size:16px;line-height:0%;font-family:Helvetica;fill:#000;fill-opacity:1;stroke:none">out</text></g><g font-weight="400" style="font-size:16px;font-style:normal;font-weight:400;fill:none;stroke:purple;stroke-width:1;stroke-linecap:square;stroke-linejoin:bevel;stroke-opacity:1;font-family:Helvetica"><path d="M472.947 80.393a4.5 4.5 0 1 0-7.133-.311" vector-effect="non-scaling-stroke"/><path d="M496 64h10M496 64V47M473 77l23-13" style="fill:none" vector-effect="non-scaling-stroke"/></g><g font-weight="400" style="font-size:16px;font-style:normal;font-weight:400;fill:none;stroke:navy;stroke-width:2;stroke-linecap:square;stroke-linejoin:bevel;stroke-opacity:1;font-family:Helvetica"><path d="M419 116h50M449 216h20M469 116v100M279 146v20M139 146h20M159 26v120M159 26h150M279 96v50M279 96h70M329 136v80M329 136h20M329 216h60M29 146v40M29 146h50" style="fill:none"/></g><g style="font-size:16px;font-style:normal;fill:none;stroke:navy;stroke-width:3;stroke-linecap:square;stroke-linejoin:bevel;stroke-opacity:1;font-family:Helvetica"><text xml:space="preserve" x="79" y="130" font-size="16" font-weight="630" style="font-style:normal;font-size:16px;line-height:0%;font-family:Helvetica;fill:navy;fill-opacity:1;stroke:none">in</text></g><g font-weight="630" style="font-size:16px;font-style:normal;fill:none;stroke:purple;stroke-width:1;stroke-linecap:square;stroke-linejoin:bevel;stroke-opacity:1;font-family:Helvetica"><path d="M44.607 149.947a4.5 4.5 0 1 0 .311-7.133" vector-effect="non-scaling-stroke"/><path d="M76 134h7M76 134v-17M47 142l29-8" style="fill:none" vector-effect="non-scaling-stroke"/></g><g font-weight="630" style="font-size:16px;font-style:normal;fill:none;stroke:navy;stroke-width:2;stroke-linecap:square;stroke-linejoin:bevel;stroke-opacity:1;font-family:Helvetica"><path d="M329 216v50M159 146v60M239 146h40M159 146h20" style="fill:none"/></g><g style="font-size:16px;font-style:normal;fill:navy;fill-opacity:1;stroke:none;font-family:Helvetica"><path d="M347 134h4v4h-4z" font-weight="630" style="fill-rule:evenodd" vector-effect="non-scaling-stroke"/></g><g style="font-size:16px;font-style:normal;fill:navy;fill-opacity:1;stroke:none;font-family:Helvetica"><path d="M347 94h4v4h-4z" font-weight="630" style="fill-rule:evenodd" vector-effect="non-scaling-stroke"/></g><g style="font-size:16px;font-style:normal;fill:navy;fill-opacity:1;stroke:none;font-family:Helvetica"><path d="M417 114h4v4h-4z" font-weight="630" style="fill-rule:evenodd" vector-effect="non-scaling-stroke"/></g><g style="font-size:16px;font-style:normal;fill:navy;fill-opacity:1;stroke:none;font-family:Helvetica"><path d="M277 224h4v4h-4z" font-weight="630" style="fill-rule:evenodd" vector-effect="non-scaling-stroke"/></g><g style="font-size:16px;font-style:normal;fill:navy;fill-opacity:1;stroke:none;font-family:Helvetica"><path d="M27 184h4v4h-4z" font-weight="630" style="fill-rule:evenodd" vector-effect="non-scaling-stroke"/></g><g style="font-size:16px;font-style:normal;fill:navy;fill-opacity:1;stroke:none;font-family:Helvetica"><path d="M27 244h4v4h-4z" font-weight="630" style="fill-rule:evenodd" vector-effect="non-scaling-stroke"/></g><g style="font-size:16px;font-style:normal;fill:navy;fill-opacity:1;stroke:none;font-family:Helvetica"><path d="M327 324h4v4h-4z" font-weight="630" style="fill-rule:evenodd" vector-effect="non-scaling-stroke"/></g><g style="font-size:16px;font-style:normal;fill:navy;fill-opacity:1;stroke:none;font-family:Helvetica"><path d="M327 264h4v4h-4z" font-weight="630" style="fill-rule:evenodd" vector-effect="non-scaling-stroke"/></g><g style="font-size:16px;font-style:normal;fill:navy;fill-opacity:1;stroke:none;font-family:Helvetica"><path d="M277 164h4v4h-4z" font-weight="630" style="fill-rule:evenodd" vector-effect="non-scaling-stroke"/></g><g style="font-size:16px;font-style:normal;fill:navy;fill-opacity:1;stroke:none;font-family:Helvetica"><path d="M307 24h4v4h-4z" font-weight="630" style="fill-rule:evenodd" vector-effect="non-scaling-stroke"/></g><g style="font-size:16px;font-style:normal;fill:navy;fill-opacity:1;stroke:none;font-family:Helvetica"><path d="M367 24h4v4h-4z" font-weight="630" style="fill-rule:evenodd" vector-effect="non-scaling-stroke"/></g><g style="font-size:16px;font-style:normal;fill:navy;fill-opacity:1;stroke:none;font-family:Helvetica"><path d="M447 214h4v4h-4z" font-weight="630" style="fill-rule:evenodd" vector-effect="non-scaling-stroke"/></g><g style="font-size:16px;font-style:normal;fill:navy;fill-opacity:1;stroke:none;font-family:Helvetica"><path d="M387 214h4v4h-4z" font-weight="630" style="fill-rule:evenodd" vector-effect="non-scaling-stroke"/></g><g style="font-size:16px;font-style:normal;fill:navy;fill-opacity:1;stroke:none;font-family:Helvetica"><path d="M77 144h4v4h-4z" font-weight="630" style="fill-rule:evenodd" vector-effect="non-scaling-stroke"/></g><g style="font-size:16px;font-style:normal;fill:navy;fill-opacity:1;stroke:none;font-family:Helvetica"><path d="M137 144h4v4h-4z" font-weight="630" style="fill-rule:evenodd" vector-effect="non-scaling-stroke"/></g><g style="font-size:16px;font-style:normal;fill:navy;fill-opacity:1;stroke:none;font-family:Helvetica"><path d="M157 264h4v4h-4z" font-weight="630" style="fill-rule:evenodd" vector-effect="non-scaling-stroke"/></g><g style="font-size:16px;font-style:normal;fill:navy;fill-opacity:1;stroke:none;font-family:Helvetica"><path d="M157 204h4v4h-4z" font-weight="630" style="fill-rule:evenodd" vector-effect="non-scaling-stroke"/></g><g style="font-size:16px;font-style:normal;fill:navy;fill-opacity:1;stroke:navy;stroke-width:1;stroke-linecap:square;stroke-linejoin:bevel;stroke-opacity:1;font-family:Helvetica"><path d="M472 116a3 3 0 1 1-6 0 3 3 0 0 1 6 0" font-weight="630" style="fill-rule:evenodd"/></g><g style="font-size:16px;font-style:normal;fill:navy;fill-opacity:1;stroke:navy;stroke-width:1;stroke-linecap:square;stroke-linejoin:bevel;stroke-opacity:1;font-family:Helvetica"><path d="M282 146a3 3 0 1 1-6 0 3 3 0 0 1 6 0" font-weight="630" style="fill-rule:evenodd"/></g><g style="font-size:16px;font-style:normal;fill:navy;fill-opacity:1;stroke:navy;stroke-width:1;stroke-linecap:square;stroke-linejoin:bevel;stroke-opacity:1;font-family:Helvetica"><path d="M162 146a3 3 0 1 1-6 0 3 3 0 0 1 6 0" font-weight="630" style="fill-rule:evenodd"/></g><g style="font-size:16px;font-style:normal;fill:navy;fill-opacity:1;stroke:navy;stroke-width:1;stroke-linecap:square;stroke-linejoin:bevel;stroke-opacity:1;font-family:Helvetica"><path d="M332 216a3 3 0 1 1-6 0 3 3 0 0 1 6 0" font-weight="630" style="fill-rule:evenodd"/></g><g style="font-size:16px;font-style:normal;fill:navy;fill-opacity:1;stroke:none;font-family:Helvetica"><path d="M177 144h4v4h-4z" font-weight="630" style="fill-rule:evenodd" vector-effect="non-scaling-stroke"/></g><g style="font-size:16px;font-style:normal;fill:navy;fill-opacity:1;stroke:none;font-family:Helvetica"><path d="M237 144h4v4h-4z" font-weight="630" style="fill-rule:evenodd" vector-effect="non-scaling-stroke"/></g></g></svg>