<svg xmlns="http://www.w3.org/2000/svg" width="550" height="330" version="1.2"><desc>Generated with Qt</desc><g font-size="16" font-weight="400" style="fill:none;stroke:#000;stroke-width:1;stroke-linecap:square;stroke-linejoin:bevel"><g style="font-style:normal;font-weight:400;font-size:16px;font-family:Helvetica;fill:none;stroke:navy;stroke-width:2;stroke-linecap:square;stroke-linejoin:bevel;stroke-opacity:1"><path d="M279 226v10" style="fill:none" transform="translate(-4.122 -2.355)"/></g><g style="font-style:normal;font-weight:400;font-size:16px;font-family:Helvetica;fill:none;stroke:navy;stroke-width:3;stroke-linecap:square;stroke-linejoin:bevel;stroke-opacity:1"><path d="M268 236h22m-18 6h14m-10 6h6" style="fill:none" transform="translate(-4.122 -2.355)"/></g><g style="font-style:normal;font-weight:400;font-size:16px;font-family:Helvetica;fill:none;stroke:navy;stroke-width:2;stroke-linecap:square;stroke-linejoin:bevel;stroke-opacity:1"><path d="M29 246v10" style="fill:none" transform="translate(-4.122 -2.355)"/></g><g style="font-style:normal;font-weight:400;font-size:16px;font-family:Helvetica;fill:none;stroke:navy;stroke-width:3;stroke-linecap:square;stroke-linejoin:bevel;stroke-opacity:1"><path d="M18 256h22m-18 6h14m-10 6h6" style="fill:none" transform="translate(-4.122 -2.355)"/></g><g style="font-style:normal;font-weight:400;font-size:16px;font-family:Helvetica;fill:none;stroke:navy;stroke-width:4;stroke-linecap:square;stroke-linejoin:bevel;stroke-opacity:1"><path d="M105 135v22m8-22v22" style="fill:none" transform="translate(-4.122 -2.355)"/></g><g style="font-style:normal;font-weight:400;font-size:16px;font-family:Helvetica;fill:none;stroke:navy;stroke-width:2;stroke-linecap:square;stroke-linejoin:bevel;stroke-opacity:1"><path d="M79 146h26m8 0h26" style="fill:none" transform="translate(-4.122 -2.355)"/></g><g style="font-style:normal;font-weight:400;font-size:16px;font-family:Helvetica;fill:none;stroke:#000;stroke-width:1;stroke-linecap:square;stroke-linejoin:bevel;stroke-opacity:1"><text xml:space="preserve" x="83" y="177" font-size="16" style="font-style:normal;font-weight:400;font-size:16px;line-height:0%;font-family:Helvetica;fill:#000;fill-opacity:1;stroke:none" transform="translate(-4.122 -2.355)">C1</text></g><g style="font-style:normal;font-weight:400;font-size:16px;font-family:Helvetica;fill:none;stroke:navy;stroke-width:4;stroke-linecap:square;stroke-linejoin:bevel;stroke-opacity:1"><path d="M205 157v-22m8 22v-22" style="fill:none" transform="translate(-4.122 -2.355)"/></g><g style="font-style:normal;font-weight:400;font-size:16px;font-family:Helvetica;fill:none;stroke:navy;stroke-width:2;stroke-linecap:square;stroke-linejoin:bevel;stroke-opacity:1"><path d="M179 146h26m8 0h26" style="fill:none" transform="translate(-4.122 -2.355)"/></g><g style="font-style:normal;font-weight:400;font-size:16px;font-family:Helvetica;fill:none;stroke:#000;stroke-width:1;stroke-linecap:square;stroke-linejoin:bevel;stroke-opacity:1"><text xml:space="preserve" x="183" y="129" font-size="16" style="font-style:normal;font-weight:400;font-size:16px;line-height:0%;font-family:Helvetica;fill:#000;fill-opacity:1;stroke:none" transform="translate(-4.122 -2.355)">C2</text></g><g style="font-style:normal;font-weight:400;font-size:16px;font-family:Helvetica;fill:none;stroke:navy;stroke-width:2;stroke-linecap:square;stroke-linejoin:bevel;stroke-opacity:1"><path d="M321 17h36m0 0v18m0 0h-36m0 0V17m-12 9h12m36 0h12" style="fill:none" transform="translate(-4.122 -2.355)"/></g><g style="font-style:normal;font-weight:400;font-size:16px;font-family:Helvetica;fill:none;stroke:#000;stroke-width:1;stroke-linecap:square;stroke-linejoin:bevel;stroke-opacity:1"><text xml:space="preserve" x="313" y="55" font-size="16" style="font-style:normal;font-weight:400;font-size:16px;line-height:0%;font-family:Helvetica;fill:#000;fill-opacity:1;stroke:none" transform="translate(-4.122 -2.355)">R1</text></g><g style="font-style:normal;font-weight:400;font-size:16px;font-family:Helvetica;fill:none;stroke:navy;stroke-width:2;stroke-linecap:square;stroke-linejoin:bevel;stroke-opacity:1"><path d="M288 214v-36m0 0h-18m0 0v36m0 0h18m-9 12v-12m0-36v-12" style="fill:none" transform="translate(-4.122 -2.355)"/></g><g style="font-style:normal;font-weight:400;font-size:16px;font-family:Helvetica;fill:none;stroke:#000;stroke-width:1;stroke-linecap:square;stroke-linejoin:bevel;stroke-opacity:1"><text xml:space="preserve" x="248" y="184" font-size="16" style="font-style:normal;font-weight:400;font-size:16px;line-height:0%;font-family:Helvetica;fill:#000;fill-opacity:1;stroke:none" transform="translate(-4.122 -2.355)">R2</text></g><g style="font-style:normal;font-weight:400;font-size:16px;font-family:Helvetica;fill:none;stroke:navy;stroke-width:2;stroke-linecap:square;stroke-linejoin:bevel;stroke-opacity:1"><path d="M437 207h-36m0 0v18m0 0h36m0 0v-18m12 9h-12m-36 0h-12" style="fill:none" transform="translate(-4.122 -2.355)"/></g><g style="font-style:normal;font-weight:400;font-size:16px;font-family:Helvetica;fill:none;stroke:#000;stroke-width:1;stroke-linecap:square;stroke-linejoin:bevel;stroke-opacity:1"><text xml:space="preserve" x="393" y="245" font-size="16" style="font-style:normal;font-weight:400;font-size:16px;line-height:0%;font-family:Helvetica;fill:#000;fill-opacity:1;stroke:none" transform="translate(-4.122 -2.355)">R4</text></g><g style="font-style:normal;font-weight:400;font-size:16px;font-family:Helvetica;fill:none;stroke:navy;stroke-width:2;stroke-linecap:square;stroke-linejoin:bevel;stroke-opacity:1"><path d="M320 284v-36m0 0h18m0 0v36m0 0h-18m9 12v-12m0-36v-12" style="fill:none" transform="translate(-4.122 -2.355)"/></g><g style="font-style:normal;font-weight:400;font-size:16px;font-family:Helvetica;fill:none;stroke:#000;stroke-width:1;stroke-linecap:square;stroke-linejoin:bevel;stroke-opacity:1"><text xml:space="preserve" x="344" y="254" font-size="16" style="font-style:normal;font-weight:400;font-size:16px;line-height:0%;font-family:Helvetica;fill:#000;fill-opacity:1;stroke:none" transform="translate(-4.122 -2.355)">R3</text></g><g style="font-style:normal;font-weight:400;font-size:16px;font-family:Helvetica;fill:none;stroke:navy;stroke-width:2;stroke-linecap:square;stroke-linejoin:bevel;stroke-opacity:1"><path d="M329 296v10" style="fill:none" transform="translate(-4.122 -2.355)"/></g><g style="font-style:normal;font-weight:400;font-size:16px;font-family:Helvetica;fill:none;stroke:navy;stroke-width:3;stroke-linecap:square;stroke-linejoin:bevel;stroke-opacity:1"><path d="M318 306h22m-18 6h14m-10 6h6" style="fill:none" transform="translate(-4.122 -2.355)"/></g><g style="font-style:normal;font-weight:400;font-size:16px;font-family:Helvetica;fill:none;stroke:navy;stroke-width:2;stroke-linecap:square;stroke-linejoin:bevel;stroke-opacity:1"><path d="M29 246v-18m0-42v18" style="fill:none" transform="translate(-4.122 -2.355)"/></g><g style="font-style:normal;font-weight:400;font-size:16px;font-family:Helvetica;fill:none;stroke:red;stroke-width:1;stroke-linecap:square;stroke-linejoin:bevel;stroke-opacity:1"><path d="M34 198h6m-3-3v6" style="fill:none" transform="translate(-4.122 -2.355)"/></g><g style="font-style:normal;font-weight:400;font-size:16px;font-family:Helvetica;fill:none;stroke:#000;stroke-width:1;stroke-linecap:square;stroke-linejoin:bevel;stroke-opacity:1"><path d="M34 234h6" style="fill:none" transform="translate(-4.122 -2.355)"/></g><g style="font-style:normal;font-weight:400;font-size:16px;font-family:Helvetica;fill:none;stroke:navy;stroke-width:2;stroke-linecap:square;stroke-linejoin:bevel;stroke-opacity:1"><path d="M25.378 201.645c-6.904 0-12.5 5.596-12.5 12.5s5.596 12.5 12.5 12.5 12.5-5.596 12.5-12.5-5.596-12.5-12.5-12.5"/><path d="M25.878 213.645a4 4 0 0 0-8 0m7 0a4 4 0 0 0 8 0"/></g><g style="font-style:normal;font-weight:400;font-size:16px;font-family:Helvetica;fill:none;stroke:#000;stroke-width:1;stroke-linecap:square;stroke-linejoin:bevel;stroke-opacity:1"><text xml:space="preserve" x="47" y="204" font-size="16" style="font-style:normal;font-weight:400;font-size:16px;line-height:0%;font-family:Helvetica;fill:#000;fill-opacity:1;stroke:none" transform="translate(-4.122 -2.355)">V1</text></g><g style="font-style:normal;font-weight:400;font-size:16px;font-family:Helvetica;fill:none;stroke:navy;stroke-width:2;stroke-linecap:square;stroke-linejoin:bevel;stroke-opacity:1"><path d="M349 96h10m-10 40h10m50-20h10m-60-35v70m0-70 50 35m-50 35 50-35" style="fill:none" transform="translate(-4.122 -2.355)"/></g><g style="font-style:normal;font-weight:400;font-size:16px;font-family:Helvetica;fill:none;stroke:#000;stroke-width:1;stroke-linecap:square;stroke-linejoin:bevel;stroke-opacity:1"><path d="M363 135h7" style="fill:none" transform="translate(-4.122 -2.355)"/></g><g style="font-style:normal;font-weight:400;font-size:16px;font-family:Helvetica;fill:none;stroke:red;stroke-width:1;stroke-linecap:square;stroke-linejoin:bevel;stroke-opacity:1"><path d="M363 97h7m-4-3v7" style="fill:none" transform="translate(-4.122 -2.355)"/></g><g style="font-style:normal;font-weight:400;font-size:16px;font-family:Helvetica;fill:none;stroke:#000;stroke-width:1;stroke-linecap:square;stroke-linejoin:bevel;stroke-opacity:1"><text xml:space="preserve" x="353" y="172" font-size="16" style="font-style:normal;font-weight:400;font-size:16px;line-height:0%;font-family:Helvetica;fill:#000;fill-opacity:1;stroke:none" transform="translate(-4.122 -2.355)">OP1</text></g><g style="font-style:normal;font-weight:400;font-size:16px;font-family:Helvetica;fill:none;stroke:navy;stroke-width:2;stroke-linecap:square;stroke-linejoin:bevel;stroke-opacity:1"><path d="M369 26h100m0 0v90" style="fill:none" transform="translate(-4.122 -2.355)"/></g><g style="font-style:normal;font-weight:400;font-size:16px;font-family:Helvetica;fill:none;stroke:#000;stroke-width:1;stroke-linecap:square;stroke-linejoin:bevel;stroke-opacity:1"><text xml:space="preserve" x="499" y="60" font-size="16" style="font-style:normal;font-weight:400;font-size:16px;line-height:0%;font-family:Helvetica;fill:#000;fill-opacity:1;stroke:none" transform="translate(-4.122 -2.355)">output</text></g><g style="font-style:normal;font-weight:400;font-size:16px;font-family:Helvetica;fill:none;stroke:purple;stroke-width:1;stroke-linecap:square;stroke-linejoin:bevel;stroke-opacity:1"><path d="M468.825 78.038a4.5 4.5 0 1 0-7.133-.311" vector-effect="non-scaling-stroke"/><path d="M496 64h21m-21 0V47m-23 30 23-13" style="fill:none" transform="translate(-4.122 -2.355)" vector-effect="non-scaling-stroke"/></g><g style="font-style:normal;font-weight:400;font-size:16px;font-family:Helvetica;fill:none;stroke:navy;stroke-width:2;stroke-linecap:square;stroke-linejoin:bevel;stroke-opacity:1"><path d="M419 116h50m-20 100h20m0-100v100m-190-70v20m-40-20h40m-140 0h20m0 0h20M159 26v120m0-120h150m-30 70v50m0-50h70m-20 40v80m0-80h20m-20 80h60M29 146v40m0-40h50" style="fill:none" transform="translate(-4.122 -2.355)"/></g><g style="font-style:normal;font-weight:400;font-size:16px;font-family:Helvetica;fill:none;stroke:#000;stroke-width:1;stroke-linecap:square;stroke-linejoin:bevel;stroke-opacity:1"><text xml:space="preserve" x="79" y="90" font-size="16" style="font-style:normal;font-weight:400;font-size:16px;line-height:0%;font-family:Helvetica;fill:#000;fill-opacity:1;stroke:none" transform="translate(-4.122 -2.355)">input</text></g><g style="font-style:normal;font-weight:400;font-size:16px;font-family:Helvetica;fill:none;stroke:purple;stroke-width:1;stroke-linecap:square;stroke-linejoin:bevel;stroke-opacity:1"><path d="M40.485 147.592a4.5 4.5 0 1 0 .311-7.133" vector-effect="non-scaling-stroke"/><path d="M76 94h16m-16 0V77m-29 65 29-48" style="fill:none" transform="translate(-4.122 -2.355)" vector-effect="non-scaling-stroke"/></g><g style="font-style:normal;font-weight:400;font-size:16px;font-family:Helvetica;fill:none;stroke:navy;stroke-width:2;stroke-linecap:square;stroke-linejoin:bevel;stroke-opacity:1"><path d="M329 216v20" style="fill:none" transform="translate(-4.122 -2.355)"/></g><g style="font-style:normal;font-weight:400;font-size:16px;font-family:Helvetica;fill:navy;fill-opacity:1;stroke:none"><path d="M347 134h4v4h-4z" style="fill-rule:evenodd" transform="translate(-4.122 -2.355)" vector-effect="non-scaling-stroke"/></g><g style="font-style:normal;font-weight:400;font-size:16px;font-family:Helvetica;fill:navy;fill-opacity:1;stroke:none"><path d="M347 94h4v4h-4z" style="fill-rule:evenodd" transform="translate(-4.122 -2.355)" vector-effect="non-scaling-stroke"/></g><g style="font-style:normal;font-weight:400;font-size:16px;font-family:Helvetica;fill:navy;fill-opacity:1;stroke:none"><path d="M417 114h4v4h-4z" style="fill-rule:evenodd" transform="translate(-4.122 -2.355)" vector-effect="non-scaling-stroke"/></g><g style="font-style:normal;font-weight:400;font-size:16px;font-family:Helvetica;fill:navy;fill-opacity:1;stroke:none"><path d="M277 224h4v4h-4z" style="fill-rule:evenodd" transform="translate(-4.122 -2.355)" vector-effect="non-scaling-stroke"/></g><g style="font-style:normal;font-weight:400;font-size:16px;font-family:Helvetica;fill:navy;fill-opacity:1;stroke:none"><path d="M27 184h4v4h-4z" style="fill-rule:evenodd" transform="translate(-4.122 -2.355)" vector-effect="non-scaling-stroke"/></g><g style="font-style:normal;font-weight:400;font-size:16px;font-family:Helvetica;fill:navy;fill-opacity:1;stroke:none"><path d="M27 244h4v4h-4z" style="fill-rule:evenodd" transform="translate(-4.122 -2.355)" vector-effect="non-scaling-stroke"/></g><g style="font-style:normal;font-weight:400;font-size:16px;font-family:Helvetica;fill:navy;fill-opacity:1;stroke:none"><path d="M177 144h4v4h-4z" style="fill-rule:evenodd" transform="translate(-4.122 -2.355)" vector-effect="non-scaling-stroke"/></g><g style="font-style:normal;font-weight:400;font-size:16px;font-family:Helvetica;fill:navy;fill-opacity:1;stroke:none"><path d="M237 144h4v4h-4z" style="fill-rule:evenodd" transform="translate(-4.122 -2.355)" vector-effect="non-scaling-stroke"/></g><g style="font-style:normal;font-weight:400;font-size:16px;font-family:Helvetica;fill:navy;fill-opacity:1;stroke:none"><path d="M77 144h4v4h-4z" style="fill-rule:evenodd" transform="translate(-4.122 -2.355)" vector-effect="non-scaling-stroke"/></g><g style="font-style:normal;font-weight:400;font-size:16px;font-family:Helvetica;fill:navy;fill-opacity:1;stroke:none"><path d="M137 144h4v4h-4z" style="fill-rule:evenodd" transform="translate(-4.122 -2.355)" vector-effect="non-scaling-stroke"/></g><g style="font-style:normal;font-weight:400;font-size:16px;font-family:Helvetica;fill:navy;fill-opacity:1;stroke:none"><path d="M277 164h4v4h-4z" style="fill-rule:evenodd" transform="translate(-4.122 -2.355)" vector-effect="non-scaling-stroke"/></g><g style="font-style:normal;font-weight:400;font-size:16px;font-family:Helvetica;fill:navy;fill-opacity:1;stroke:none"><path d="M307 24h4v4h-4z" style="fill-rule:evenodd" transform="translate(-4.122 -2.355)" vector-effect="non-scaling-stroke"/></g><g style="font-style:normal;font-weight:400;font-size:16px;font-family:Helvetica;fill:navy;fill-opacity:1;stroke:none"><path d="M367 24h4v4h-4z" style="fill-rule:evenodd" transform="translate(-4.122 -2.355)" vector-effect="non-scaling-stroke"/></g><g style="font-style:normal;font-weight:400;font-size:16px;font-family:Helvetica;fill:navy;fill-opacity:1;stroke:none"><path d="M447 214h4v4h-4z" style="fill-rule:evenodd" transform="translate(-4.122 -2.355)" vector-effect="non-scaling-stroke"/></g><g style="font-style:normal;font-weight:400;font-size:16px;font-family:Helvetica;fill:navy;fill-opacity:1;stroke:none"><path d="M387 214h4v4h-4z" style="fill-rule:evenodd" transform="translate(-4.122 -2.355)" vector-effect="non-scaling-stroke"/></g><g style="font-style:normal;font-weight:400;font-size:16px;font-family:Helvetica;fill:navy;fill-opacity:1;stroke:navy;stroke-width:1;stroke-linecap:square;stroke-linejoin:bevel;stroke-opacity:1"><path d="M472 116a3 3 0 1 1-6 0 3 3 0 0 1 6 0" style="fill-rule:evenodd" transform="translate(-4.122 -2.355)"/></g><g style="font-style:normal;font-weight:400;font-size:16px;font-family:Helvetica;fill:navy;fill-opacity:1;stroke:navy;stroke-width:1;stroke-linecap:square;stroke-linejoin:bevel;stroke-opacity:1"><path d="M282 146a3 3 0 1 1-6 0 3 3 0 0 1 6 0" style="fill-rule:evenodd" transform="translate(-4.122 -2.355)"/></g><g style="font-style:normal;font-weight:400;font-size:16px;font-family:Helvetica;fill:navy;fill-opacity:1;stroke:navy;stroke-width:1;stroke-linecap:square;stroke-linejoin:bevel;stroke-opacity:1"><path d="M162 146a3 3 0 1 1-6 0 3 3 0 0 1 6 0" style="fill-rule:evenodd" transform="translate(-4.122 -2.355)"/></g><g style="font-style:normal;font-weight:400;font-size:16px;font-family:Helvetica;fill:navy;fill-opacity:1;stroke:navy;stroke-width:1;stroke-linecap:square;stroke-linejoin:bevel;stroke-opacity:1"><path d="M332 216a3 3 0 1 1-6 0 3 3 0 0 1 6 0" style="fill-rule:evenodd" transform="translate(-4.122 -2.355)"/></g><g style="font-style:normal;font-weight:400;font-size:16px;font-family:Helvetica;fill:navy;fill-opacity:1;stroke:none"><path d="M327 294h4v4h-4z" style="fill-rule:evenodd" transform="translate(-4.122 -2.355)" vector-effect="non-scaling-stroke"/></g><g style="font-style:normal;font-weight:400;font-size:16px;font-family:Helvetica;fill:navy;fill-opacity:1;stroke:none"><path d="M327 234h4v4h-4z" style="fill-rule:evenodd" transform="translate(-4.122 -2.355)" vector-effect="non-scaling-stroke"/></g></g></svg>