<svg xmlns="http://www.w3.org/2000/svg" width="543.391" height="356" version="1.2"><desc>Generated with Qt</desc><g font-size="16" font-weight="400" style="fill:none;stroke:#000;stroke-width:1;stroke-linecap:square;stroke-linejoin:bevel"><g style="font-size:16px;font-style:normal;font-weight:400;fill:none;stroke:navy;stroke-width:2;stroke-linecap:square;stroke-linejoin:bevel;stroke-opacity:1;font-family:Helvetica"><path d="M279 246v10" style="fill:none"/></g><g style="font-size:16px;font-style:normal;font-weight:400;fill:none;stroke:navy;stroke-width:3;stroke-linecap:square;stroke-linejoin:bevel;stroke-opacity:1;font-family:Helvetica"><path d="M268 256h22M272 262h14M276 268h6" style="fill:none"/></g><g style="font-size:16px;font-style:normal;font-weight:400;fill:none;stroke:navy;stroke-width:2;stroke-linecap:square;stroke-linejoin:bevel;stroke-opacity:1;font-family:Helvetica"><path d="M29 266v10" style="fill:none"/></g><g style="font-size:16px;font-style:normal;font-weight:400;fill:none;stroke:navy;stroke-width:3;stroke-linecap:square;stroke-linejoin:bevel;stroke-opacity:1;font-family:Helvetica"><path d="M18 276h22M22 282h14M26 288h6" style="fill:none"/></g><g style="font-size:16px;font-style:normal;font-weight:400;fill:none;stroke:navy;stroke-width:2;stroke-linecap:square;stroke-linejoin:bevel;stroke-opacity:1;font-family:Helvetica"><path d="M437 227h-36M401 227v18M401 245h36M437 245v-18M449 236h-12M401 236h-12" style="fill:none"/></g><g style="font-size:16px;font-style:normal;font-weight:400;fill:none;stroke:#000;stroke-width:1;stroke-linecap:square;stroke-linejoin:bevel;stroke-opacity:1;font-family:Helvetica"><text xml:space="preserve" x="393" y="265" font-size="16" style="font-style:normal;font-weight:400;font-size:16px;line-height:0%;font-family:Helvetica;fill:#000;fill-opacity:1;stroke:none">R4</text></g><g style="font-size:16px;font-style:normal;font-weight:400;fill:none;stroke:navy;stroke-width:2;stroke-linecap:square;stroke-linejoin:bevel;stroke-opacity:1;font-family:Helvetica"><path d="M320 304v-36M320 268h18M338 268v36M338 304h-18M329 316v-12M329 268v-12" style="fill:none"/></g><g style="font-size:16px;font-style:normal;font-weight:400;fill:none;stroke:#000;stroke-width:1;stroke-linecap:square;stroke-linejoin:bevel;stroke-opacity:1;font-family:Helvetica"><text xml:space="preserve" x="344" y="274" font-size="16" style="font-style:normal;font-weight:400;font-size:16px;line-height:0%;font-family:Helvetica;fill:#000;fill-opacity:1;stroke:none">R3</text></g><g style="font-size:16px;font-style:normal;font-weight:400;fill:none;stroke:navy;stroke-width:2;stroke-linecap:square;stroke-linejoin:bevel;stroke-opacity:1;font-family:Helvetica"><path d="M329 316v10" style="fill:none"/></g><g style="font-size:16px;font-style:normal;font-weight:400;fill:none;stroke:navy;stroke-width:3;stroke-linecap:square;stroke-linejoin:bevel;stroke-opacity:1;font-family:Helvetica"><path d="M318 326h22M322 332h14M326 338h6" style="fill:none"/></g><g style="font-size:16px;font-style:normal;font-weight:400;fill:none;stroke:navy;stroke-width:2;stroke-linecap:square;stroke-linejoin:bevel;stroke-opacity:1;font-family:Helvetica"><path d="M29 266v-18M29 206v18" style="fill:none"/></g><g style="font-size:16px;font-style:normal;font-weight:400;fill:none;stroke:red;stroke-width:1;stroke-linecap:square;stroke-linejoin:bevel;stroke-opacity:1;font-family:Helvetica"><path d="M34 218h6M37 215v6" style="fill:none"/></g><g style="font-size:16px;font-style:normal;font-weight:400;fill:none;stroke:#000;stroke-width:1;stroke-linecap:square;stroke-linejoin:bevel;stroke-opacity:1;font-family:Helvetica"><path d="M34 254h6" style="fill:none"/></g><g style="font-size:16px;font-style:normal;font-weight:400;fill:none;stroke:navy;stroke-width:2;stroke-linecap:square;stroke-linejoin:bevel;stroke-opacity:1;font-family:Helvetica"><path d="M29.5 224c-6.904 0-12.5 5.596-12.5 12.5S22.596 249 29.5 249 42 243.404 42 236.5 36.404 224 29.5 224"/><path d="M30 236a4 4 0 0 0-8 0M29 236a4 4 0 0 0 8 0"/></g><g style="font-size:16px;font-style:normal;font-weight:400;fill:none;stroke:#000;stroke-width:1;stroke-linecap:square;stroke-linejoin:bevel;stroke-opacity:1;font-family:Helvetica"><text xml:space="preserve" x="47" y="224" font-size="16" style="font-style:normal;font-weight:400;font-size:16px;line-height:0%;font-family:Helvetica;fill:#000;fill-opacity:1;stroke:none">V1</text></g><g style="font-size:16px;font-style:normal;font-weight:400;fill:none;stroke:navy;stroke-width:2;stroke-linecap:square;stroke-linejoin:bevel;stroke-opacity:1;font-family:Helvetica"><path d="M349 116h10M349 156h10M409 136h10M359 101v70M359 101l50 35M359 171l50-35" style="fill:none"/></g><g style="font-size:16px;font-style:normal;font-weight:400;fill:none;stroke:#000;stroke-width:1;stroke-linecap:square;stroke-linejoin:bevel;stroke-opacity:1;font-family:Helvetica"><path d="M363 155h7" style="fill:none"/></g><g style="font-size:16px;font-style:normal;font-weight:400;fill:none;stroke:red;stroke-width:1;stroke-linecap:square;stroke-linejoin:bevel;stroke-opacity:1;font-family:Helvetica"><path d="M363 117h7M366 114v7" style="fill:none"/></g><g style="font-size:16px;font-style:normal;font-weight:400;fill:none;stroke:#000;stroke-width:1;stroke-linecap:square;stroke-linejoin:bevel;stroke-opacity:1;font-family:Helvetica"><text xml:space="preserve" x="353" y="192" font-size="16" style="font-style:normal;font-weight:400;font-size:16px;line-height:0%;font-family:Helvetica;fill:#000;fill-opacity:1;stroke:none">OP1</text></g><g style="font-size:16px;font-style:normal;font-weight:400;fill:none;stroke:navy;stroke-width:2;stroke-linecap:square;stroke-linejoin:bevel;stroke-opacity:1;font-family:Helvetica"><path d="M91 157h36M127 157v18M127 175H91M91 175v-18M79 166h12M127 166h12" style="fill:none"/></g><g style="font-size:16px;font-style:normal;font-weight:400;fill:none;stroke:#000;stroke-width:1;stroke-linecap:square;stroke-linejoin:bevel;stroke-opacity:1;font-family:Helvetica"><text xml:space="preserve" x="83" y="195" font-size="16" style="font-style:normal;font-weight:400;font-size:16px;line-height:0%;font-family:Helvetica;fill:#000;fill-opacity:1;stroke:none">R1</text></g><g style="font-size:16px;font-style:normal;font-weight:400;fill:none;stroke:navy;stroke-width:2;stroke-linecap:square;stroke-linejoin:bevel;stroke-opacity:1;font-family:Helvetica"><path d="M191 157h36M227 157v18M227 175h-36M191 175v-18M179 166h12M227 166h12" style="fill:none"/></g><g style="font-size:16px;font-style:normal;font-weight:400;fill:none;stroke:#000;stroke-width:1;stroke-linecap:square;stroke-linejoin:bevel;stroke-opacity:1;font-family:Helvetica"><text xml:space="preserve" x="183" y="195" font-size="16" style="font-style:normal;font-weight:400;font-size:16px;line-height:0%;font-family:Helvetica;fill:#000;fill-opacity:1;stroke:none">R2</text></g><g style="font-size:16px;font-style:normal;font-weight:400;fill:none;stroke:navy;stroke-width:4;stroke-linecap:square;stroke-linejoin:bevel;stroke-opacity:1;font-family:Helvetica"><path d="M343 57V35M335 57V35" style="fill:none"/></g><g style="font-size:16px;font-style:normal;font-weight:400;fill:none;stroke:navy;stroke-width:2;stroke-linecap:square;stroke-linejoin:bevel;stroke-opacity:1;font-family:Helvetica"><path d="M369 46h-26M335 46h-26" style="fill:none"/></g><g style="font-size:16px;font-style:normal;font-weight:400;fill:none;stroke:#000;stroke-width:1;stroke-linecap:square;stroke-linejoin:bevel;stroke-opacity:1;font-family:Helvetica"><text xml:space="preserve" x="313" y="29" font-size="16" style="font-style:normal;font-weight:400;font-size:16px;line-height:0%;font-family:Helvetica;fill:#000;fill-opacity:1;stroke:none">C2</text></g><g style="font-size:16px;font-style:normal;font-weight:400;fill:none;stroke:navy;stroke-width:4;stroke-linecap:square;stroke-linejoin:bevel;stroke-opacity:1;font-family:Helvetica"><path d="M268 220h22M268 212h22" style="fill:none"/></g><g style="font-size:16px;font-style:normal;font-weight:400;fill:none;stroke:navy;stroke-width:2;stroke-linecap:square;stroke-linejoin:bevel;stroke-opacity:1;font-family:Helvetica"><path d="M279 246v-26M279 212v-26" style="fill:none"/></g><g style="font-size:16px;font-style:normal;font-weight:400;fill:none;stroke:#000;stroke-width:1;stroke-linecap:square;stroke-linejoin:bevel;stroke-opacity:1;font-family:Helvetica"><text xml:space="preserve" x="296" y="204" font-size="16" style="font-style:normal;font-weight:400;font-size:16px;line-height:0%;font-family:Helvetica;fill:#000;fill-opacity:1;stroke:none">C1</text></g><g style="font-size:16px;font-style:normal;font-weight:400;fill:none;stroke:navy;stroke-width:2;stroke-linecap:square;stroke-linejoin:bevel;stroke-opacity:1;font-family:Helvetica"><path d="M419 136h50M449 236h20M469 136v100M279 166v20M139 166h20M279 116v50M279 116h70M329 156v80M329 156h20M329 236h60M29 166v40M29 166h50" style="fill:none"/></g><g style="font-size:16px;font-style:normal;font-weight:400;fill:none;stroke:#000;stroke-width:1;stroke-linecap:square;stroke-linejoin:bevel;stroke-opacity:1;font-family:Helvetica"><text xml:space="preserve" x="79" y="110" font-size="16" style="font-style:normal;font-weight:400;font-size:16px;line-height:0%;font-family:Helvetica;fill:#000;fill-opacity:1;stroke:none">input</text></g><g style="font-size:16px;font-style:normal;font-weight:400;fill:none;stroke:purple;stroke-width:1;stroke-linecap:square;stroke-linejoin:bevel;stroke-opacity:1;font-family:Helvetica"><path d="M44.607 169.947a4.5 4.5 0 1 0 .311-7.133" vector-effect="non-scaling-stroke"/><path d="M76 114h16M76 114V97M47 162l29-48" style="fill:none" vector-effect="non-scaling-stroke"/></g><g style="font-size:16px;font-style:normal;font-weight:400;fill:none;stroke:navy;stroke-width:2;stroke-linecap:square;stroke-linejoin:bevel;stroke-opacity:1;font-family:Helvetica"><path d="M329 236v20M239 166h40M159 166h20M159 46v120M159 46h150M469 46v90" style="fill:none"/></g><g style="font-size:16px;font-style:normal;font-weight:400;fill:none;stroke:#000;stroke-width:1;stroke-linecap:square;stroke-linejoin:bevel;stroke-opacity:1;font-family:Helvetica"><text xml:space="preserve" x="499" y="80" font-size="16" style="font-style:normal;font-weight:400;font-size:16px;line-height:0%;font-family:Helvetica;fill:#000;fill-opacity:1;stroke:none">output</text></g><g style="font-size:16px;font-style:normal;font-weight:400;fill:none;stroke:purple;stroke-width:1;stroke-linecap:square;stroke-linejoin:bevel;stroke-opacity:1;font-family:Helvetica"><path d="M472.947 100.393a4.5 4.5 0 1 0-7.133-.312" vector-effect="non-scaling-stroke"/><path d="M496 84h21M496 84V67M473 97l23-13" style="fill:none" vector-effect="non-scaling-stroke"/></g><g style="font-size:16px;font-style:normal;font-weight:400;fill:none;stroke:navy;stroke-width:2;stroke-linecap:square;stroke-linejoin:bevel;stroke-opacity:1;font-family:Helvetica"><path d="M369 46h100" style="fill:none"/></g><g style="font-size:16px;font-style:normal;font-weight:400;fill:navy;fill-opacity:1;stroke:none;font-family:Helvetica"><path d="M277 244h4v4h-4z" style="fill-rule:evenodd" vector-effect="non-scaling-stroke"/></g><g style="font-size:16px;font-style:normal;font-weight:400;fill:navy;fill-opacity:1;stroke:none;font-family:Helvetica"><path d="M27 264h4v4h-4z" style="fill-rule:evenodd" vector-effect="non-scaling-stroke"/></g><g style="font-size:16px;font-style:normal;font-weight:400;fill:navy;fill-opacity:1;stroke:none;font-family:Helvetica"><path d="M447 234h4v4h-4z" style="fill-rule:evenodd" vector-effect="non-scaling-stroke"/></g><g style="font-size:16px;font-style:normal;font-weight:400;fill:navy;fill-opacity:1;stroke:none;font-family:Helvetica"><path d="M387 234h4v4h-4z" style="fill-rule:evenodd" vector-effect="non-scaling-stroke"/></g><g style="font-size:16px;font-style:normal;font-weight:400;fill:navy;fill-opacity:1;stroke:none;font-family:Helvetica"><path d="M327 314h4v4h-4z" style="fill-rule:evenodd" vector-effect="non-scaling-stroke"/></g><g style="font-size:16px;font-style:normal;font-weight:400;fill:navy;fill-opacity:1;stroke:none;font-family:Helvetica"><path d="M327 254h4v4h-4z" style="fill-rule:evenodd" vector-effect="non-scaling-stroke"/></g><g style="font-size:16px;font-style:normal;font-weight:400;fill:navy;fill-opacity:1;stroke:none;font-family:Helvetica"><path d="M27 204h4v4h-4z" style="fill-rule:evenodd" vector-effect="non-scaling-stroke"/></g><g style="font-size:16px;font-style:normal;font-weight:400;fill:navy;fill-opacity:1;stroke:none;font-family:Helvetica"><path d="M347 154h4v4h-4z" style="fill-rule:evenodd" vector-effect="non-scaling-stroke"/></g><g style="font-size:16px;font-style:normal;font-weight:400;fill:navy;fill-opacity:1;stroke:none;font-family:Helvetica"><path d="M347 114h4v4h-4z" style="fill-rule:evenodd" vector-effect="non-scaling-stroke"/></g><g style="font-size:16px;font-style:normal;font-weight:400;fill:navy;fill-opacity:1;stroke:none;font-family:Helvetica"><path d="M417 134h4v4h-4z" style="fill-rule:evenodd" vector-effect="non-scaling-stroke"/></g><g style="font-size:16px;font-style:normal;font-weight:400;fill:navy;fill-opacity:1;stroke:navy;stroke-width:1;stroke-linecap:square;stroke-linejoin:bevel;stroke-opacity:1;font-family:Helvetica"><path d="M472 136a3 3 0 1 1-6 0 3 3 0 0 1 6 0" style="fill-rule:evenodd"/></g><g style="font-size:16px;font-style:normal;font-weight:400;fill:navy;fill-opacity:1;stroke:navy;stroke-width:1;stroke-linecap:square;stroke-linejoin:bevel;stroke-opacity:1;font-family:Helvetica"><path d="M282 166a3 3 0 1 1-6 0 3 3 0 0 1 6 0" style="fill-rule:evenodd"/></g><g style="font-size:16px;font-style:normal;font-weight:400;fill:navy;fill-opacity:1;stroke:none;font-family:Helvetica"><path d="M277 184h4v4h-4z" style="fill-rule:evenodd" vector-effect="non-scaling-stroke"/></g><g style="font-size:16px;font-style:normal;font-weight:400;fill:navy;fill-opacity:1;stroke:none;font-family:Helvetica"><path d="M137 164h4v4h-4z" style="fill-rule:evenodd" vector-effect="non-scaling-stroke"/></g><g style="font-size:16px;font-style:normal;font-weight:400;fill:navy;fill-opacity:1;stroke:navy;stroke-width:1;stroke-linecap:square;stroke-linejoin:bevel;stroke-opacity:1;font-family:Helvetica"><path d="M162 166a3 3 0 1 1-6 0 3 3 0 0 1 6 0" style="fill-rule:evenodd"/></g><g style="font-size:16px;font-style:normal;font-weight:400;fill:navy;fill-opacity:1;stroke:navy;stroke-width:1;stroke-linecap:square;stroke-linejoin:bevel;stroke-opacity:1;font-family:Helvetica"><path d="M332 236a3 3 0 1 1-6 0 3 3 0 0 1 6 0" style="fill-rule:evenodd"/></g><g style="font-size:16px;font-style:normal;font-weight:400;fill:navy;fill-opacity:1;stroke:none;font-family:Helvetica"><path d="M77 164h4v4h-4z" style="fill-rule:evenodd" vector-effect="non-scaling-stroke"/></g><g style="font-size:16px;font-style:normal;font-weight:400;fill:navy;fill-opacity:1;stroke:none;font-family:Helvetica"><path d="M177 164h4v4h-4z" style="fill-rule:evenodd" vector-effect="non-scaling-stroke"/></g><g style="font-size:16px;font-style:normal;font-weight:400;fill:navy;fill-opacity:1;stroke:none;font-family:Helvetica"><path d="M237 164h4v4h-4z" style="fill-rule:evenodd" vector-effect="non-scaling-stroke"/></g><g style="font-size:16px;font-style:normal;font-weight:400;fill:navy;fill-opacity:1;stroke:none;font-family:Helvetica"><path d="M367 44h4v4h-4z" style="fill-rule:evenodd" vector-effect="non-scaling-stroke"/></g><g style="font-size:16px;font-style:normal;font-weight:400;fill:navy;fill-opacity:1;stroke:none;font-family:Helvetica"><path d="M307 44h4v4h-4z" style="fill-rule:evenodd" vector-effect="non-scaling-stroke"/></g></g></svg>