<svg xmlns="http://www.w3.org/2000/svg" width="128" height="128"><path d="M12.153 8.685 117.09 119.45M117.09 8.685 12.152 119.45" style="fill:none;stroke:red;stroke-width:5;stroke-linecap:butt;stroke-linejoin:miter;stroke-miterlimit:4;stroke-dasharray:none;stroke-opacity:1"/><path d="M41.302 8.685H12.153V119.45h29.15M87.94 119.45h29.15V8.685H87.94" style="fill:none;stroke:red;stroke-width:6;stroke-linecap:butt;stroke-linejoin:miter;stroke-miterlimit:4;stroke-dasharray:none;stroke-opacity:1"/><path d="M64.621 96.131v17.49M64.621 14.515v17.489" style="fill:none;stroke:#5698f5;stroke-width:6;stroke-linecap:butt;stroke-linejoin:miter;stroke-miterlimit:4;stroke-dasharray:none;stroke-opacity:1"/><path d="M52.962 32.004h23.319v64.127H52.962z" style="fill:none;fill-opacity:1;stroke:#5698f5;stroke-width:6;stroke-linecap:square;stroke-linejoin:round;stroke-miterlimit:4;stroke-dasharray:none;stroke-dashoffset:0;stroke-opacity:1;paint-order:markers stroke fill"/><path d="M64.832 2.859a5.83 5.83 0 0 1 5.618 5.919 5.83 5.83 0 0 1-5.803 5.736 5.83 5.83 0 0 1-5.854-5.686 5.83 5.83 0 0 1 5.567-5.967M64.832 113.624a5.83 5.83 0 0 1 5.618 5.92 5.83 5.83 0 0 1-5.803 5.736 5.83 5.83 0 0 1-5.854-5.686 5.83 5.83 0 0 1 5.567-5.968" style="fill:none;fill-opacity:1;stroke:red;stroke-width:6;stroke-linecap:square;stroke-linejoin:round;stroke-miterlimit:4;stroke-dasharray:none;stroke-dashoffset:0;stroke-opacity:1;paint-order:markers stroke fill"/></svg>