<svg height="30mm" viewBox="0 0 30 30" width="30mm" xmlns="http://www.w3.org/2000/svg"><g stroke-width=".264583"><path d="m16.933331 25.135418h-11.9062481v-19.8437511l11.9062481.0000001v2.6458334" fill="none" stroke="#000"/><path d="m16.933331 7.9375004h-9.2604155" fill="none" stroke="#000"/><path d="m16.933331 25.135418v-2.645834l-9.2604155.000001" fill="none" stroke="#000"/><path d="m7.6729155 22.489584v-5.291666h9.2604155" fill="none" stroke="#000"/><path d="m16.933331 17.197918v-3.968751h-9.2604155v-5.2916666" fill="none" stroke="#000"/><path d="m5.0270824 5.2916669v-3.3301656" fill="none" stroke="#f00"/><path d="m5.0270824 2.6458336h11.9062466" fill="none" stroke="#f00"/><path d="m16.933329 5.2916669v-3.3972404" fill="none" stroke="#f00"/><path d="m5.0270824 2.6458336 2.6458321-.9235398" fill="none" stroke="#f00"/><path d="m5.0270824 2.6458336 2.6458321.79375" fill="none" stroke="#f00"/><path d="m2.6458329 5.291667.9235398 2.645833" fill="none" stroke="#f00"/><path d="m2.6458329 5.291667-.79375 2.645833" fill="none" stroke="#f00"/><path d="m16.933329 2.6458335-2.645833-.9235398" fill="none" stroke="#f00"/><path d="m16.933329 2.6458335-2.645833.79375" fill="none" stroke="#f00"/><text font-family="sans-serif" font-size="2.11667" letter-spacing="-.291042" text-anchor="middle" word-spacing="0" x="11.332633" y="2.040471"><tspan stroke-width=".264583" x="11.187112" y="2.040471">B</tspan></text></g><path d="m5.0270824 5.2916669h-3.4395826" fill="none" stroke="#f00" stroke-width=".232439"/><path d="m5.0270824 25.135418h-3.4395826" fill="none" stroke="#f00" stroke-width=".232439"/><path d="m2.6458328 25.135418v-19.8437511" fill="none" stroke="#f00" stroke-width=".264583"/><path d="m2.6532231 25.091821-.92354-2.645833" fill="none" stroke="#f00" stroke-width=".264583"/><path d="m2.6532231 25.091821.79375-2.645833" fill="none" stroke="#f00" stroke-width=".264583"/><text style="font-size:2.11667;font-family:sans-serif;letter-spacing:-.291042;word-spacing:0;text-anchor:middle;stroke-width:.264583" x="1.468437" y="15.875001"><tspan stroke-width=".264583" x="1.322916" y="15.875001">A</tspan></text><path d="m16.933329 22.489584v-3.308515" fill="none" stroke="#f00" stroke-width=".264583"/><path d="m7.6729145 19.843751h9.2604145" fill="none" stroke="#f00" stroke-width=".264583"/><text style="font-size:2.11667;font-family:sans-serif;letter-spacing:-.291042;word-spacing:0;text-anchor:middle;stroke-width:.264583" x="12.585698" y="19.502972"><tspan stroke-width=".264583" x="12.440177" y="19.502972">D</tspan></text><path d="m7.6729145 19.875027 2.6458315-.92354" fill="none" stroke="#f00" stroke-width=".264583"/><path d="m7.6729145 19.875027 2.6458315.79375" fill="none" stroke="#f00" stroke-width=".264583"/><path d="m16.933329 19.843751-2.645833-.92354" fill="none" stroke="#f00" stroke-width=".264583"/><path d="m16.933329 19.843751-2.645833.79375" fill="none" stroke="#f00" stroke-width=".264583"/><path d="m22.224998 5.291667h3.96875v19.843752h-3.96875z" fill="none" stroke="#000" stroke-linecap="square" stroke-linejoin="round" stroke-width=".242"/><g stroke-width=".264583"><path d="m22.224999 13.229167h3.96875" fill="none" stroke="#000"/><path d="m22.224999 17.197918h3.96875" fill="none" stroke="#000"/><path d="m22.224999 7.9375004h3.96875" fill="none" stroke="#000"/><path d="m22.224999 22.489584h3.96875" fill="none" stroke="#000"/><path d="m26.193749 13.229167h3.174999" fill="none" stroke="#f00"/><path d="m26.193749 17.197918h3.174999" fill="none" stroke="#f00"/><text font-family="sans-serif" font-size="2.11667" letter-spacing="-.291042" text-anchor="middle" word-spacing="0" x="28.338989" y="16.063389"><tspan stroke-width=".264583" x="28.193468" y="16.063389">F</tspan></text><g fill="none"><path d="m28.839581 17.197918v3.968749" stroke="#f00"/><path d="m28.839581 13.229167v-3.9687499" stroke="#f00"/><path d="m28.839581 13.229167.79375-2.116667" stroke="#f00"/><path d="m28.839581 13.229167-.79375-2.116667" stroke="#f00"/><path d="m19.587585 22.443133.79375-2.116667" stroke="#f00"/><path d="m19.587585 22.443133-.79375-2.116667" stroke="#f00"/><path d="m28.839582 17.197918.79375 2.116667" stroke="#f00"/><path d="m28.839582 17.197918-.79375 2.116667" stroke="#f00"/><path d="m19.587585 7.9839508.79375 2.1166662" stroke="#f00"/><path d="m19.587585 7.9839508-.79375 2.1166662" stroke="#f00"/><path d="m22.224995 7.9375002h-3.439583" stroke="#f00"/><path d="m22.489578 22.489584h-3.704166" stroke="#f00"/><path d="m19.579162 22.489584v-14.5520838" stroke="#f00"/></g><text font-family="sans-serif" font-size="2.11667" letter-spacing="-.291042" text-anchor="middle" word-spacing="0" x="18.401766" y="15.875001"><tspan stroke-width=".264583" x="18.256245" y="15.875001">E</tspan></text></g><path d="m22.213707 5.170667v-3.3301656" fill="none" stroke="#f00" stroke-width=".264583"/><path d="m26.182457 5.170667v-3.3972404" fill="none" stroke="#f00" stroke-width=".264583"/><path d="m26.096616 2.691045h3.892093" fill="none" stroke="#f00" stroke-width=".262015"/><path d="m26.096616 2.691045 2.116667.79375" fill="none" stroke="#f00" stroke-width=".264583"/><path d="m26.096616 2.691045 2.116667-.79375" fill="none" stroke="#f00" stroke-width=".264583"/><path d="m22.213707 2.6402396h-3.892093" fill="none" stroke="#f00" stroke-width=".262015"/><path d="m22.213707 2.6402396-2.116667-.79375" fill="none" stroke="#f00" stroke-width=".264583"/><path d="m22.213707 2.6402396-2.116667.79375" fill="none" stroke="#f00" stroke-width=".264583"/><text style="font-size:2.11667;font-family:sans-serif;letter-spacing:-.291042;word-spacing:0;text-anchor:middle;stroke-width:.264583" x="24.044918" y="2.968036"><tspan stroke-width=".264583" x="23.899397" y="2.968036">C</tspan></text></svg>