<svg xmlns="http://www.w3.org/2000/svg" xmlns:xlink="http://www.w3.org/1999/xlink" width="128" height="128"><linearGradient id="b" gradientUnits="userSpaceOnUse"><stop offset="0" style="stop-color:#fff"/><stop offset="1" style="stop-color:#fff;stop-opacity:0"/></linearGradient><linearGradient id="a" gradientUnits="userSpaceOnUse"><stop offset="0" style="stop-color:#00181d"/><stop offset="1" style="stop-color:#00181d;stop-opacity:0"/></linearGradient><filter id="j"><feGaussianBlur stdDeviation=".784"/></filter><linearGradient id="k" x1="97.642" x2="91.003" y1="107.118" y2="99.659" gradientTransform="matrix(.99138 0 0 .9927 -9.793 -3.827)" gradientUnits="userSpaceOnUse"><stop offset="0" style="stop-color:#8c8c8c"/><stop offset=".25" style="stop-color:#a8a8a8"/><stop offset=".5" style="stop-color:#c5c5c5"/><stop offset=".75" style="stop-color:#e2e2e2"/><stop offset="1" style="stop-color:#fff"/></linearGradient><linearGradient id="n" x1="80.524" x2="80.524" y1="15.676" y2="32.142" gradientTransform="matrix(.95836 0 0 1.00002 -7.778 -4.003)" gradientUnits="userSpaceOnUse"><stop offset="0" style="stop-color:#fff"/><stop offset=".533" style="stop-color:#8b8b8b"/><stop offset=".632" style="stop-color:#a5a5a5"/><stop offset=".699" style="stop-color:#f4f4f4"/><stop offset=".75" style="stop-color:#bbb"/><stop offset="1" style="stop-color:#b1b1b1"/></linearGradient><filter id="m" width="1.076" height="1.227" x="-.038" y="-.114"><feGaussianBlur stdDeviation=".758"/></filter><radialGradient id="e" cx="61.332" cy="49.168" r="50.665" gradientTransform="matrix(1.20126 0 0 2.89543 -22.675 -132.372)" gradientUnits="userSpaceOnUse"><stop offset="0"/><stop offset=".52" style="stop-color:#171717"/><stop offset=".66" style="stop-color:#424242"/><stop offset=".757" style="stop-color:#131313"/><stop offset="1"/></radialGradient><radialGradient id="i" cx="61.332" cy="66.668" r="50.665" gradientTransform="matrix(1.74687 0 0 4.13703 -56.14 -215.5)" gradientUnits="userSpaceOnUse"><stop offset="0" style="stop-color:#878787"/><stop offset=".355" style="stop-color:#646464"/><stop offset=".619" style="stop-color:#2d2d2d"/><stop offset=".757" style="stop-color:#232323"/><stop offset="1" style="stop-color:#1f1f1f"/></radialGradient><linearGradient id="f" x1="72.204" x2="72.204" y1="114.943" y2="60.62" gradientUnits="userSpaceOnUse"><stop offset="0"/><stop offset="1" style="stop-color:#343839;stop-opacity:0"/></linearGradient><radialGradient id="g" cx="106.664" cy="117.334" r="5.333" fy="121.105" gradientTransform="matrix(.3594 -.60896 1.20637 .712 -73.219 98.747)" gradientUnits="userSpaceOnUse"><stop offset="0" style="stop-color:#eefcff"/><stop offset="1" style="stop-color:#eefcff;stop-opacity:0"/></radialGradient><linearGradient id="o" x1="74.644" x2="74.644" y1="18.682" y2="3.734" gradientTransform="matrix(.97802 0 0 1.24873 -9.003 -25.327)" gradientUnits="userSpaceOnUse"><stop offset="0" style="stop-color:#fff"/><stop offset="1" style="stop-color:#555"/></linearGradient><radialGradient id="l" cx="91.455" cy="103.261" r="37.362" gradientTransform="matrix(2.3935 0 0 2.5014 -138.307 -157.694)" gradientUnits="userSpaceOnUse"><stop offset="0" style="stop-color:#ededed"/><stop offset=".25" style="stop-color:#fff"/><stop offset=".5" style="stop-color:#f6f6f6"/><stop offset="1" style="stop-color:#eee"/></radialGradient><linearGradient xlink:href="#a" id="p" x1="64.45" x2="64.45" y1="7.978" y2="5.334" gradientTransform="matrix(.8776 0 0 1 -2.846 -2.003)"/><linearGradient xlink:href="#b" id="q" x1="69.332" x2="69.332" y1="7.586" y2="10.675" gradientTransform="matrix(.8776 0 0 1.49996 -2.846 -6.004)"/><linearGradient xlink:href="#a" id="r" x1="64.45" x2="64.45" y1="7.978" y2="5.334" gradientTransform="matrix(.8776 0 0 1.50004 -2.846 -.005)"/><linearGradient xlink:href="#b" id="s" x1="69.332" x2="69.332" y1="7.586" y2="10.675" gradientTransform="matrix(.8776 0 0 1.23746 -2.846 2.097)"/><linearGradient id="w" x1="85.22" x2="61.336" y1="93.22" y2="69.336" gradientUnits="userSpaceOnUse"><stop offset="0"/><stop offset="1" style="stop-color:#393b38"/></linearGradient><linearGradient id="x" x1="95.151" x2="86.76" y1="104.853" y2="96.461" gradientUnits="userSpaceOnUse"><stop offset="0" style="stop-color:#888a85"/><stop offset=".007" style="stop-color:#8c8e89"/><stop offset=".067" style="stop-color:#abaca9"/><stop offset=".135" style="stop-color:#c5c6c4"/><stop offset=".211" style="stop-color:#dbdbda"/><stop offset=".301" style="stop-color:#ebebeb"/><stop offset=".412" style="stop-color:#f7f7f6"/><stop offset=".568" style="stop-color:#fdfdfd"/><stop offset="1" style="stop-color:#fff"/></linearGradient><radialGradient id="v" cx="102" cy="112.305" r="139.559" gradientTransform="matrix(.6217 0 0 .62113 53.043 44.338)" gradientUnits="userSpaceOnUse"><stop offset="0" style="stop-color:#535557"/><stop offset=".114" style="stop-color:#898a8c"/><stop offset=".203" style="stop-color:#ececec"/><stop offset=".236" style="stop-color:#fafafa"/><stop offset=".272" style="stop-color:#fff"/><stop offset=".531" style="stop-color:#fafafa"/><stop offset=".845" style="stop-color:#ebecec"/><stop offset="1" style="stop-color:#e1e2e3"/></radialGradient><radialGradient id="u" cx="116.999" cy="114.972" r="139.559" gradientUnits="userSpaceOnUse"><stop offset="0"/><stop offset=".015" style="stop-color:#515151"/><stop offset=".056" style="stop-color:#7f7f7f"/><stop offset=".096" style="stop-color:#a6a6a6"/><stop offset=".136" style="stop-color:#c5c5c5"/><stop offset=".174" style="stop-color:#dfdfdf"/><stop offset=".21" style="stop-color:#f1f1f1"/><stop offset=".243" style="stop-color:#fafcfd"/><stop offset=".272" style="stop-color:#fff"/></radialGradient><filter id="c" style="color-interpolation-filters:sRGB"><feGaussianBlur stdDeviation="1.039"/></filter><filter id="t"><feGaussianBlur stdDeviation="1.184"/></filter><filter id="d" width="1.126" height="1.252" x="-.063" y="-.126"><feGaussianBlur stdDeviation=".7"/></filter><radialGradient id="h" cx="61.332" cy="66.668" r="50.665" gradientTransform="matrix(1.74687 0 0 4.13703 -56.14 -215.5)" gradientUnits="userSpaceOnUse"><stop offset="0" style="stop-color:#9b9b9b"/><stop offset=".355" style="stop-color:#7c7c7c"/><stop offset=".619" style="stop-color:#3f3f3f"/><stop offset=".757" style="stop-color:#4d4d4d"/><stop offset="1" style="stop-color:#696969"/></radialGradient><radialGradient xlink:href="#b" id="y" cx="92" cy="-3.907" r="43" gradientTransform="matrix(.13953 0 0 .18605 79.163 14.727)"/><radialGradient xlink:href="#b" id="z" cx="-495.667" cy="-3.907" r="43" gradientTransform="matrix(.13953 0 0 .18605 79.163 14.727)"/><path d="m46.04 36.68 1.921 83.354h36.172a2 2 0 0 0 1.414-.586l28.067-27.034A2 2 0 0 0 114.2 91V36.68z" style="opacity:.306849;filter:url(#c)" transform="matrix(1.04167 0 0 1.03571 5.04 -.655)"/><path d="M37.978 1.997h26.666V15.33H37.978z" style="fill-rule:evenodd;opacity:.922652;filter:url(#d)" transform="matrix(.97585 0 0 1 .917 0)"/><text x="328.375" y="213.477"/><text x="33.935" y="144.544"/><path d="M13.941 10C9.541 10 6 13.567 6 18V112.656C6 115.61 8.37 118 11.304 118h79.392c2.933 0 5.304-2.39 5.304-5.344V18c0-4.432-3.542-8-7.941-8z" style="fill:url(#e)"/><path d="M14 43.007c-4.432 0-8 3.568-8 8v61.649A5.34 5.34 0 0 0 11.343 118H91.32a5.34 5.34 0 0 0 5.344-5.344V51.007c0-4.432-3.568-8-8-8z" style="fill:url(#f)"/><path d="M111.997 117.334a5.333 5.333 0 0 1-5.333 5.333v-5.333z" style="opacity:.632851;fill:url(#g);filter:url(#j)" transform="matrix(-1 0 0 1 118.23 -3.536)"/><path d="M13.354 12A5.35 5.35 0 0 0 8 17.378v95.917C8 114.782 9.188 116 10.677 116H91.289a2.716 2.716 0 0 0 2.708-2.705V17.378A5.377 5.377 0 0 0 88.612 12z" style="fill:url(#h);filter:url(#z)"/><path d="M13.354 12A5.35 5.35 0 0 0 8 17.378v95.917C8 114.782 9.188 116 10.677 116H91.289a2.716 2.716 0 0 0 2.708-2.705V17.378A5.377 5.377 0 0 0 88.612 12z" style="fill:url(#i)"/><path d="M15.088 19h71.988a1.75 1.75 0 0 1 1.754 1.753v67.415c-.449 6.24-1.18 13.612-2.2 18.707a1.75 1.75 0 0 1-1.754 1.754c-4.271 1.104-10.012.614-15.403.8H14.087c-.972 0-.753-.783-.753-1.754V20.753A1.75 1.75 0 0 1 15.088 19z" style="fill:#191919;filter:url(#j)" transform="matrix(.99898 0 0 1.01093 .013 .793)"/><path d="M13.979 20H88v69.857c0 5.388-2.814 14.527-3.568 16.642-1.276.927-10.74 3.501-16.03 3.501H13.979z" style="fill:url(#k)"/><path d="M16.017 21.002c-.556.057-1.024.586-1.017 1.15v85.518c-.004.603.542 1.154 1.14 1.15h53.532c5.789-.136 11.753-1.927 13.906-2.92.259-.115.472-.33.585-.591.224-.555.43-1.382.71-2.58a98.17 98.17 0 0 0 .894-4.318c.6-3.24 1.165-6.948 1.233-9.725V22.15c0-.603-.542-1.154-1.14-1.15H16.14a1.103 1.103 0 0 0-.123 0z" style="fill:url(#l)"/><path d="M13.355 12A5.334 5.334 0 0 0 8 17.344v1.437C8.272 16.084 10.563 13 13.355 13h75.258C91.592 13 94 16.39 94 19.344v-2C94 14.389 91.592 12 88.613 12z" style="fill:#fff;opacity:.475138"/><path d="M27.332 12.666h49c1.256 4.58 1.144 11.7-.3 17.9l-49 .1c-1.77-5.776-2.227-13.298.3-18z" style="fill-opacity:.635838;filter:url(#m)" transform="matrix(.94522 0 0 .963 2.315 .469)"/><path d="M28 12h46v16H28z" style="fill:url(#n)"/><path d="M37.92-15.33H64v13.333H37.92z" style="fill:url(#o)" transform="scale(1 -1)"/><path d="M43.959 3.333H58V6H43.959z" style="opacity:.400966;fill:url(#p)"/><path d="M43.959 6H58v4H43.959z" style="opacity:.400966;fill:url(#q)"/><path d="M43.959 8H58v4H43.959z" style="opacity:.400966;fill:url(#r)"/><path d="M43.959 12H58v3.3H43.959z" style="opacity:.400966;fill:url(#s)"/><path d="M48.921 37.322v80.782h38.9a2 2 0 0 0 1.414-.587l24.38-23.076a2 2 0 0 0 .586-1.414V37.322z" style="opacity:.701657;filter:url(#t)" transform="matrix(1.04167 0 0 1.03571 5.04 -.655)"/><path d="M55.999 38v84h41.173a2 2 0 0 0 1.414-.586l24.828-22.828a2 2 0 0 0 .586-1.414V38z" style="fill:url(#u)"/><path d="M57.983 39.002a.984.984 0 0 0-.983.982l.297 80.401c0 .542.441.982.983.982h38.777a.986.986 0 0 0 .695-.288l24.96-22.231a.986.986 0 0 0 .288-.694V39.982a.983.983 0 0 0-.983-.982z" style="fill:url(#v)"/><g><path d="M111.414 86.586c-4.86 3.2-19.139 2.45-28.402 2.236-.553-.013-.93.452-1 1-1.133 8.863-.38 27.89-3.426 29.592z" style="opacity:.254144;fill:url(#w);filter:url(#y)" transform="matrix(.70702 0 0 .65144 42.309 42.638)"/><path d="M78.768 121.826s10.614-11.204 16.383-16.973c5.77-5.77 20.391-19.869 20.391-19.869s-11.17 3.07-31.116 3.07c0 22.362-5.658 33.772-5.658 33.772z" style="fill:url(#x)" transform="matrix(.70702 0 0 .65144 42.309 42.638)"/></g><path d="M37.92 1.997H64v1.065H37.92z" style="fill:#fff;fill-rule:evenodd"/><path d="M13.355 12A5.334 5.334 0 0 0 8 17.344v1.437C8.272 16.084 10.563 13 13.355 13h75.258C91.592 13 94 16.39 94 19.344v-2C94 14.389 91.592 12 88.613 12z" style="opacity:.475138;fill:url(#y)"/><path d="M13.355 12A5.334 5.334 0 0 0 8 17.344v1.437C8.272 16.084 10.563 13 13.355 13h75.258C91.592 13 94 16.39 94 19.344v-2C94 14.389 91.592 12 88.613 12z" style="opacity:.475138;fill:url(#z)"/></svg>