<svg xmlns="http://www.w3.org/2000/svg" xmlns:xlink="http://www.w3.org/1999/xlink" width="128" height="128"><defs><linearGradient id="a"><stop offset="0" stop-color="#765c44"/><stop offset="1" stop-color="#765c44" stop-opacity="0"/></linearGradient><linearGradient id="c"><stop offset="0" stop-color="#fff"/><stop offset="1" stop-color="#790000" stop-opacity="0"/></linearGradient><linearGradient id="d"><stop offset="0" stop-color="#810000"/><stop offset="1" stop-color="#c50000"/></linearGradient><linearGradient id="b"><stop offset="0" stop-color="#ff8787"/><stop offset="1" stop-color="#ff8787" stop-opacity="0"/></linearGradient><linearGradient id="h" x1="26.091" x2="31.501" y1="14.857" y2="14.857" gradientTransform="scale(1.0976 .91108)" gradientUnits="userSpaceOnUse"><stop offset="0" stop-color="#fff"/><stop offset="1" stop-color="#fff" stop-opacity="0"/></linearGradient><linearGradient xlink:href="#a" id="j" x1="26.091" x2="31.501" y1="14.857" y2="14.857" gradientTransform="scale(1.0976 .91108)" gradientUnits="userSpaceOnUse"/><linearGradient xlink:href="#a" id="k" x1="304.887" x2="345.62" y1="385.861" y2="384.624" gradientUnits="userSpaceOnUse"/><linearGradient xlink:href="#b" id="m" x1="88.606" x2="91.575" y1="13.51" y2="13.51" gradientUnits="userSpaceOnUse" spreadMethod="reflect"/><linearGradient id="q" x1="60" x2="57.434" y1="92.973" y2="55.079" gradientUnits="userSpaceOnUse"><stop offset="0" stop-color="#fff5e4"/><stop offset=".25" stop-color="#ffecd0"/><stop offset=".5" stop-color="#ffd390"/><stop offset="1" stop-color="#ffc46a"/></linearGradient><linearGradient xlink:href="#c" id="o" x1="31.606" x2="34.575" y1="13.51" y2="13.51" gradientUnits="userSpaceOnUse" spreadMethod="reflect"/><linearGradient xlink:href="#c" id="p" x1="88.606" x2="91.575" y1="13.51" y2="13.51" gradientUnits="userSpaceOnUse" spreadMethod="reflect"/><linearGradient id="u" x1="61.727" x2="60.866" y1="76.739" y2="26.598" gradientUnits="userSpaceOnUse"><stop offset="0" stop-color="#fff" stop-opacity="0"/><stop offset="1" stop-color="#fff"/></linearGradient><linearGradient xlink:href="#b" id="t" x1="51.591" x2="51.591" y1="26.721" y2="74.091" gradientUnits="userSpaceOnUse"/><linearGradient id="s" x1="68.313" x2="51.545" y1="109.976" y2="32.751" gradientTransform="matrix(1.38127 0 0 .68727 5.54 5.54)" gradientUnits="userSpaceOnUse"><stop offset="0" stop-color="#f4f5f8"/><stop offset="1" stop-color="#fdfdfe"/></linearGradient><linearGradient id="l" x1="59.135" x2="59.135" y1="91.73" y2="41.255" gradientUnits="userSpaceOnUse"><stop offset="0" stop-color="red"/><stop offset="1" stop-color="#7f0000"/></linearGradient><linearGradient xlink:href="#d" id="e" x1="62.776" x2="62.776" y1="81.939" y2="-9.745" gradientUnits="userSpaceOnUse"/><filter id="g" width="1.233" height="1.296" x="-.116" y="-.148"><feGaussianBlur stdDeviation="2.57"/></filter><filter id="i" width="1.28" height="1.277" x="-.14" y="-.139"><feGaussianBlur stdDeviation=".288"/></filter><filter id="r"><feGaussianBlur stdDeviation=".458"/></filter><radialGradient id="n" cx="-36.593" cy="90.073" r="25.986" gradientTransform="matrix(.4576 0 0 .78231 -19.848 18.82)" gradientUnits="userSpaceOnUse"><stop offset="0"/><stop offset="1" stop-opacity="0"/></radialGradient><clipPath id="f"><path d="M-64.51 10.75a4 4 0 0 0-2.782 1.156L-84.26 28.875a4 4 0 0 0 0 5.656L-58.823 60-84.26 85.469a4 4 0 0 0 0 5.656l16.968 16.969a4 4 0 0 0 5.657 0l25.468-25.438 25.47 25.438a4 4 0 0 0 5.655 0l16.97-16.969a4 4 0 0 0 0-5.656L-13.51 60l25.437-25.469a4 4 0 0 0 0-5.656L-5.042 11.906a4 4 0 0 0-5.656 0l-25.469 25.438-25.468-25.438a4 4 0 0 0-2.875-1.156zm31.187 63.406a4 4 0 0 0-5.687 0z"/></clipPath></defs><path fill="#fff" fill-opacity=".757" d="M-259.402 132.756v-2.794zM215.36-31.058v-2.794zm34.375 53.394V20.81z"/><path fill="url(#e)" d="M36.384 16.014a3.898 3.898 0 0 0-2.71 1.127L17.141 33.674a3.898 3.898 0 0 0 0 5.511L41.925 64 17.141 88.815a3.898 3.898 0 0 0 0 5.51l16.533 16.534a3.898 3.898 0 0 0 5.511 0L64 86.075l24.815 24.784a3.898 3.898 0 0 0 5.51 0l16.534-16.533a3.898 3.898 0 0 0 0-5.511L86.075 64l24.784-24.815a3.898 3.898 0 0 0 0-5.51L94.326 17.14a3.898 3.898 0 0 0-5.511 0L64 41.925 39.185 17.141a3.898 3.898 0 0 0-2.801-1.127zm30.387 61.779a3.898 3.898 0 0 0-5.542 0z"/><g fill-rule="evenodd"><path stroke="#000" stroke-width=".494" d="m-62.579 106.787 26.163-26.87 25.81 26.516-25.81-40.305z" clip-path="url(#f)" filter="url(#g)" transform="translate(99.29 5.54) scale(.97433)"/><path fill="url(#h)" d="m31.7 16 2.875-3.375c-1.051-1.696-3.935-2.288-5.938-.313l2.813 3.376z" filter="url(#i)" opacity=".498" transform="rotate(90 48.186 82.366) scale(1.81638)"/><path fill="url(#j)" d="m31.7 16 2.875-3.375c-1.051-1.696-3.935-2.288-5.938-.313l2.813 3.376z" filter="url(#i)" opacity=".79" transform="matrix(1.79382 0 0 -1.79382 -20.277 130.944)"/><path fill="url(#k)" d="m31.7 16 2.875-3.375c-1.051-1.696-3.935-2.288-5.938-.313l2.813 3.376z" filter="url(#i)" opacity=".498" transform="matrix(0 1.64482 1.64482 0 -.724 39.585)"/></g><path fill="url(#l)" d="M91.558 23.437 64 50.995 36.442 23.437 23.437 36.442 50.995 64 23.437 91.558l13.005 13.005L64 77.005l27.558 27.558 13.005-13.005L77.005 64l27.558-27.558z" opacity=".921"/><path fill="url(#m)" fill-rule="evenodd" d="m88.7 16 2.875-3.375c-1.051-1.696-3.935-2.288-5.938-.313l2.813 3.376z" filter="url(#i)" opacity=".79" transform="matrix(1.64482 0 0 -1.64482 -53.8 129.537)"/><path fill="url(#n)" fill-rule="evenodd" d="m-62.579 106.787 26.163-26.87 25.81 26.516-25.81-40.305z" clip-path="url(#f)" filter="url(#g)" transform="matrix(.97433 0 0 -.97433 99.29 122)"/><path fill="url(#o)" fill-rule="evenodd" d="m31.7 16 2.875-3.375c-1.051-1.696-3.935-2.288-5.938-.313l2.813 3.376z" filter="url(#i)" opacity=".79" transform="translate(-10.889 .614) scale(1.49582)"/><path fill="url(#p)" fill-rule="evenodd" d="m88.7 16 2.875-3.375c-1.051-1.696-3.935-2.288-5.938-.313l2.813 3.376z" filter="url(#i)" opacity=".79" transform="translate(-44.143 .238) scale(1.5357)"/><path fill="none" stroke="url(#q)" stroke-dashoffset="1.088" stroke-linecap="round" stroke-linejoin="round" stroke-width="1.54" d="M88.284 18.368 60 46.653 31.716 18.368 18.368 31.716 46.653 60 18.368 88.284l13.348 13.348L60 73.347l28.284 28.285 13.348-13.348L73.347 60l28.285-28.284z" filter="url(#r)" opacity=".921" transform="translate(5.54 5.54) scale(.97433)"/><path fill="url(#s)" d="m36.427 23.375-.73.73-12.273 12.272 12.76-11.784L64 50.998l27.293-26.405 10.932 10.932c-.095.494-.224.974-.365 1.461L90.016 50.78c-10.683 5.326-25.579 10.58-41.593 10.596l.274.274c.46.005.908.03 1.37.03 16.063 0 27.108-3.307 37.818-8.647l15.742-15.742c.065-.225.125-.446.183-.67.067-.261.13-.525.182-.792L91.537 23.375l-.73.73L64 50.998z"/><path fill="url(#t)" d="M36.445 23.442 23.442 36.445l25.272 25.272c.46.006.909.03 1.37.03 16.063 0 27.108-3.307 37.818-8.646l15.743-15.743c.14-.487.27-.967.365-1.461L91.555 23.442 64 50.997z"/><path fill="url(#u)" d="m36.427 23.375-.73.73-12.273 12.272 12.76-11.784 27.824 28.243L64 50.998l.01 1.824 27.283-28.23 10.932 10.933c-.095.494-.224.974-.365 1.461L90.016 50.78c-10.683 5.326-25.579 10.58-41.593 10.596l.274.274c.46.005.908.03 1.37.03 16.063 0 27.108-3.307 37.818-8.647l15.742-15.742c.065-.225.125-.446.183-.67.067-.261.13-.525.182-.792L91.537 23.375l-.73.73L64 50.998z"/></svg>