<?xml version="1.0" encoding="UTF-8" standalone="no"?>
<svg xmlns="http://www.w3.org/2000/svg" xmlns:xlink="http://www.w3.org/1999/xlink" width="128" height="128">
  <defs>
    <linearGradient id="a">
      <stop offset="0" stop-color="#765c44"/>
      <stop offset="1" stop-color="#765c44" stop-opacity="0"/>
    </linearGradient>
    <linearGradient id="c">
      <stop offset="0" stop-color="#fff"/>
      <stop offset="1" stop-color="#790000" stop-opacity="0"/>
    </linearGradient>
    <linearGradient id="d">
      <stop offset="0" stop-color="#810000"/>
      <stop offset="1" stop-color="#c50000"/>
    </linearGradient>
    <linearGradient id="b">
      <stop offset="0" stop-color="#ff8787"/>
      <stop offset="1" stop-color="#ff8787" stop-opacity="0"/>
    </linearGradient>
    <linearGradient id="h" x1="26.091134" x2="31.500688" y1="14.856744" y2="14.856744" gradientTransform="scale(1.0976 .91108)" gradientUnits="userSpaceOnUse">
      <stop offset="0" stop-color="#fff"/>
      <stop offset="1" stop-color="#fff" stop-opacity="0"/>
    </linearGradient>
    <linearGradient xlink:href="#a" id="j" x1="26.091134" x2="31.500688" y1="14.856744" y2="14.856744" gradientTransform="scale(1.0976 .91108)" gradientUnits="userSpaceOnUse"/>
    <linearGradient xlink:href="#a" id="k" x1="304.88664" x2="345.62039" y1="385.86126" y2="384.62384" gradientUnits="userSpaceOnUse"/>
    <linearGradient xlink:href="#b" id="m" x1="88.60625" x2="91.575107" y1="13.510336" y2="13.510336" gradientUnits="userSpaceOnUse" spreadMethod="reflect"/>
    <linearGradient id="q" x1="59.999996" x2="57.434441" y1="92.973083" y2="55.07938" gradientUnits="userSpaceOnUse">
      <stop offset="0" stop-color="#fff5e4"/>
      <stop offset=".25" stop-color="#ffecd0"/>
      <stop offset=".5" stop-color="#ffd390"/>
      <stop offset="1" stop-color="#ffc46a"/>
    </linearGradient>
    <linearGradient xlink:href="#c" id="o" x1="31.60625" x2="34.575107" y1="13.510336" y2="13.510336" gradientUnits="userSpaceOnUse" spreadMethod="reflect"/>
    <linearGradient xlink:href="#c" id="p" x1="88.60625" x2="91.575107" y1="13.510336" y2="13.510336" gradientUnits="userSpaceOnUse" spreadMethod="reflect"/>
    <linearGradient id="u" x1="61.72658399" x2="60.86608017" y1="76.73918945" y2="26.5981495" gradientUnits="userSpaceOnUse">
      <stop offset="0" stop-color="#fff" stop-opacity="0"/>
      <stop offset="1" stop-color="#fff"/>
    </linearGradient>
    <linearGradient xlink:href="#b" id="t" x1="51.59113581" x2="51.59113581" y1="26.72081799" y2="74.0913663" gradientUnits="userSpaceOnUse"/>
    <linearGradient id="s" x1="68.313011" x2="51.544849" y1="109.97649" y2="32.750854" gradientTransform="matrix(1.38127 0 0 .68727 5.540478 5.540485)" gradientUnits="userSpaceOnUse">
      <stop offset="0" stop-color="#f4f5f8"/>
      <stop offset="1" stop-color="#fdfdfe"/>
    </linearGradient>
    <linearGradient id="l" x1="59.1352417" x2="59.1352417" y1="91.73026967" y2="41.25513546" gradientUnits="userSpaceOnUse">
      <stop offset="0" stop-color="red"/>
      <stop offset="1" stop-color="#7f0000"/>
    </linearGradient>
    <linearGradient xlink:href="#d" id="e" x1="62.77597944" x2="62.77597944" y1="81.9386589" y2="-9.7453385" gradientUnits="userSpaceOnUse"/>
    <filter id="g" width="1.232837" height="1.296071" x="-.116419" y="-.148036">
      <feGaussianBlur stdDeviation="2.5695681"/>
    </filter>
    <filter id="i" width="1.279832" height="1.277481" x="-.139916" y="-.138741">
      <feGaussianBlur stdDeviation=".28784801"/>
    </filter>
    <filter id="r">
      <feGaussianBlur stdDeviation=".45754832"/>
    </filter>
    <radialGradient id="n" cx="-36.592777" cy="90.072952" r="25.986174" gradientTransform="matrix(.4576 0 0 .78231 -19.847694 18.82067)" gradientUnits="userSpaceOnUse">
      <stop offset="0"/>
      <stop offset="1" stop-opacity="0"/>
    </radialGradient>
    <clipPath id="f">
      <path d="M-64.510272 10.75c-1.042316.008355-2.040208.423209-2.78125 1.15625L-84.260272 28.875c-1.561474 1.562119-1.561474 4.094131 0 5.65625L-58.822772 60l-25.4375 25.46875c-1.561474 1.562119-1.561474 4.094131 0 5.65625l16.96875 16.96875c1.562119 1.56147 4.094131 1.56147 5.65625 0l25.46875-25.4375 25.46875 25.4375c1.5621191 1.56147 4.0941311 1.56147 5.6562501 0L11.927228 91.125c1.56147-1.562119 1.56147-4.094131 0-5.65625L-13.510272 60l25.4375-25.46875c1.56147-1.562119 1.56147-4.094131 0-5.65625L-5.0415219 11.90625c-1.562119-1.561474-4.094131-1.561474-5.6562501 0l-25.46875 25.4375-25.46875-25.4375c-.764077-.756011-1.800247-1.172731-2.875-1.15625zm31.1875 63.40625c-.751409-.759464-1.775386-1.18681-2.84375-1.18681s-2.092341.427346-2.84375 1.18681z"/>
    </clipPath>
  </defs>
  <path fill="#fff" fill-opacity=".756881" d="M-259.40214 132.75622v-2.79471zM215.3609-31.057518v-2.794709zm34.37555 53.39368v-1.526736z"/>
  <path fill="url(#e)" d="M36.38397 16.014487c-1.015554.00814-1.987832.412338-2.709842 1.126563L17.141042 33.674136c-1.521389 1.522007-1.521384 3.989015-.000004 5.511024l24.784409 24.814857-24.784404 24.814852c-1.521385 1.522003-1.521385 3.989016 0 5.511019l16.533086 16.533082c1.522004 1.52139 3.989016 1.52139 5.511029.00001l24.814851-24.784401 24.814848 24.784401c1.522012 1.52138 3.989019 1.52138 5.511025-.00001l16.533088-16.533081c1.52138-1.522005 1.52138-3.989012 0-5.511024L86.074572 64.000017l24.784408-24.814852c1.52137-1.522014 1.52137-3.989022-.00001-5.511033L94.325885 17.141047c-1.522009-1.521381-3.989017-1.521385-5.511024.000004L64.000009 41.925455 39.185152 17.141046c-.744461-.736601-1.754021-1.142617-2.801182-1.126559zm30.386773 61.778321c-.732115-.739963-1.7298-1.156336-2.770734-1.156336-1.040934.000001-2.038624.416372-2.770738 1.15634z"/>
  <g fill-rule="evenodd">
    <path stroke="#000" stroke-width=".493731" d="m-62.57895 106.7868 26.162951-26.870061 25.809397 26.516501-25.809397-40.305083z" clip-path="url(#f)" filter="url(#g)" transform="translate(99.290143 5.540481) scale(.97433)"/>
    <path fill="url(#h)" d="m31.7 16 2.875-3.375c-1.051205-1.695758-3.935136-2.288018-5.9375-.3125l2.8125 3.375z" filter="url(#i)" opacity=".498127" transform="rotate(90 48.1859975 82.3659525) scale(1.81638)"/>
    <path fill="url(#j)" d="m31.7 16 2.875-3.375c-1.051205-1.695758-3.935136-2.288018-5.9375-.3125l2.8125 3.375z" filter="url(#i)" opacity=".790262" transform="matrix(1.79382 0 0 -1.79382 -20.276758 130.94405)"/>
    <path fill="url(#k)" d="m31.7 16 2.875-3.375c-1.051205-1.695758-3.935136-2.288018-5.9375-.3125l2.8125 3.375z" filter="url(#i)" opacity=".498127" transform="matrix(0 1.64482 1.64482 0 -.724353 39.584706)"/>
  </g>
  <path fill="url(#l)" d="M91.558091 23.43728 64.000006 50.995365 36.441924 23.437284 23.437276 36.441932l27.558082 27.558081-27.558089 27.558089 13.004655 13.004638 27.55808-27.55808 27.558084 27.55808 13.004642-13.004644-27.558078-27.558084 27.558078-27.558083z" opacity=".921348"/>
  <path fill="url(#m)" fill-rule="evenodd" d="m88.7 16 2.875-3.375c-1.051205-1.695758-3.935136-2.288018-5.9375-.3125l2.8125 3.375z" filter="url(#i)" opacity=".790262" transform="matrix(1.64482 0 0 -1.64482 -53.800876 129.5366)"/>
  <path fill="url(#n)" fill-rule="evenodd" d="m-62.57895 106.7868 26.162951-26.870061 25.809397 26.516501-25.809397-40.305083z" clip-path="url(#f)" filter="url(#g)" transform="matrix(.97433 0 0 -.97433 99.290147 122.00005)"/>
  <path fill="url(#o)" fill-rule="evenodd" d="m31.7 16 2.875-3.375c-1.051205-1.695758-3.935136-2.288018-5.9375-.3125l2.8125 3.375z" filter="url(#i)" opacity=".790262" transform="translate(-10.888668 .614396) scale(1.49582)"/>
  <path fill="url(#p)" fill-rule="evenodd" d="m88.7 16 2.875-3.375c-1.051205-1.695758-3.935136-2.288018-5.9375-.3125l2.8125 3.375z" filter="url(#i)" opacity=".790262" transform="translate(-44.142789 .237756) scale(1.5357)"/>
  <path fill="none" stroke="url(#q)" stroke-dashoffset="1.0878" stroke-linecap="round" stroke-linejoin="round" stroke-width="1.539527" d="M88.284271 18.368396 60 46.652666l-28.284271-28.28427-13.347333 13.347333L46.652666 60l-28.28427 28.284271 13.347333 13.347339L60 73.347334l28.284271 28.284276 13.347339-13.347339L73.347334 60l28.284276-28.284271z" filter="url(#r)" opacity=".921348" transform="translate(5.540478 5.540485) scale(.97433)"/>
  <path fill="url(#s)" d="m36.427153 23.374602-.730744.730744-12.272136 12.272136 12.759296-11.784977 27.817754 26.405744 27.29253-26.405743L102.2263 35.524947c-.09562.494517-.22471.974139-.36538 1.461486l-11.845002 13.79366c-10.682815 5.325801-25.578562 10.57913-41.593244 10.59579l.274024.274023c.459478.005415.908174.030454 1.370152.030456 16.062749-.000001 27.107879-3.307858 37.817731-8.64714L103.62689 37.29091c.06482-.224563.12493-.446354.18269-.669851.06759-.261529.13113-.52498.18269-.791634L91.537438 23.374602l-.730744.730745-26.805371 26.892902z"/>
  <path fill="url(#t)" d="m36.444861 23.441989-13.002879 13.00288 25.272433 25.272433c.459468.005407.908166.030445 1.370144.030447 16.062751-.000003 27.107878-3.307858 37.817731-8.64714l15.74232-15.742304c.14067-.487351.26975-.966977.36537-1.461494L91.555147 23.441989 64.000005 50.997131z"/>
  <path fill="url(#u)" d="m36.427153 23.374602-.730744.730744-12.272136 12.272136 12.759296-11.784977 27.824156 28.24391-.006402-1.838166.009683 1.824011 27.282847-28.229754L102.2263 35.524947c-.09562.494517-.22471.974139-.36538 1.461486l-11.845002 13.79366c-10.682815 5.325801-25.578562 10.57913-41.593244 10.59579l.274024.274023c.459478.005415.908174.030454 1.370152.030456 16.062749-.000001 27.107879-3.307858 37.817731-8.64714L103.62689 37.29091c.06482-.224563.12493-.446354.18269-.669851.06759-.261529.13113-.52498.18269-.791634L91.537438 23.374602l-.730744.730745-26.805371 26.892902z"/>
</svg>