<svg height="128" style="" width="128" xmlns="http://www.w3.org/2000/svg" xmlns:xlink="http://www.w3.org/1999/xlink"><linearGradient id="a" gradientUnits="userSpaceOnUse" style=""><stop offset="0" style="stop-color:#fff"/><stop offset="1" style="stop-color:#fff;stop-opacity:0"/></linearGradient><linearGradient id="b" gradientUnits="userSpaceOnUse" style=""><stop offset="0" style="stop-color:#00181d"/><stop offset="1" style="stop-color:#00181d;stop-opacity:0"/></linearGradient><radialGradient cx="71.30835" cy="48.151859" gradientTransform="matrix(1 0 0 .7462986 0 12.216192)" r="23.752516" style=""><stop offset="0" style="stop-color:#c8e1ff"/><stop offset="1" style="stop-color:#fff"/></radialGradient><filter id="c" style=""><feGaussianBlur stdDeviation=".78355064" style=""/></filter><linearGradient id="d" gradientTransform="matrix(.99138148 0 0 .99270254 -9.793338 -3.827442)" gradientUnits="userSpaceOnUse" style="" x1="97.642059" x2="91.003235" y1="107.11784" y2="99.659035"><stop offset="0" style="stop-color:#8c8c8c"/><stop offset=".25" style="stop-color:#a8a8a8"/><stop offset=".5" style="stop-color:#c5c5c5"/><stop offset=".75" style="stop-color:#e2e2e2"/><stop offset="1" style="stop-color:#fff"/></linearGradient><linearGradient id="e" gradientTransform="matrix(.95835733 0 0 1.000025 -7.77778 -4.0032)" gradientUnits="userSpaceOnUse" style="" x1="80.523918" x2="80.523918" y1="15.676145" y2="32.142143"><stop offset="0" style="stop-color:#fff"/><stop offset=".53338814" style="stop-color:#8b8b8b"/><stop offset=".63210142" style="stop-color:#a5a5a5"/><stop offset=".69938505" style="stop-color:#f4f4f4"/><stop offset=".75" style="stop-color:#bbb"/><stop offset="1" style="stop-color:#b1b1b1"/></linearGradient><filter id="f" height="1.227488" style="" width="1.075829" x="-.037915" y="-.113744"><feGaussianBlur stdDeviation=".75827487" style=""/></filter><radialGradient id="g" cx="61.331802" cy="49.168488" gradientTransform="matrix(1.2012551 0 0 2.8954253 -22.675344 -132.37182)" gradientUnits="userSpaceOnUse" r="50.665401" style=""><stop offset="0" style=""/><stop offset=".51985091" style="stop-color:#171717"/><stop offset=".66038471" style="stop-color:#424242"/><stop offset=".75739998" style="stop-color:#131313"/><stop offset="1" style=""/></radialGradient><radialGradient id="h" cx="61.331802" cy="66.66819" gradientTransform="matrix(1.7468693 0 0 4.1370271 -56.139944 -215.50024)" gradientUnits="userSpaceOnUse" r="50.665401" style=""><stop offset="0" style="stop-color:#878787"/><stop offset=".35530001" style="stop-color:#646464"/><stop offset=".61940002" style="stop-color:#2d2d2d"/><stop offset=".75739998" style="stop-color:#232323"/><stop offset="1" style="stop-color:#1f1f1f"/></radialGradient><linearGradient id="i" gradientUnits="userSpaceOnUse" style="" x1="72.204186" x2="72.204186" y1="114.94334" y2="60.620383"><stop offset="0" style=""/><stop offset="1" style="stop-color:#343839;stop-opacity:0"/></linearGradient><filter id="j" style=""><feGaussianBlur stdDeviation=".20220663" style=""/></filter><radialGradient id="k" cx="106.664" cy="117.3336" fy="121.10474" gradientTransform="matrix(.35940398 -.60895758 1.206368 .71199291 -73.218973 98.746762)" gradientUnits="userSpaceOnUse" r="5.3332" style=""><stop offset="0" style="stop-color:#eefcff"/><stop offset="1" style="stop-color:#eefcff;stop-opacity:0"/></radialGradient><linearGradient id="l" gradientTransform="matrix(.97801745 0 0 1.2487309 -9.003229 -25.326594)" gradientUnits="userSpaceOnUse" style="" x1="74.644096" x2="74.644096" y1="18.682484" y2="3.734347"><stop offset="0" style="stop-color:#fff"/><stop offset="1" style="stop-color:#555"/></linearGradient><radialGradient id="m" cx="91.455429" cy="103.26143" gradientTransform="matrix(2.3934915 0 0 2.5013966 -138.30664 -157.69354)" gradientUnits="userSpaceOnUse" r="37.361931" style=""><stop offset="0" style="stop-color:#ededed"/><stop offset=".25000003" style="stop-color:#fff"/><stop offset=".5" style="stop-color:#f6f6f6"/><stop offset="1" style="stop-color:#eee"/></radialGradient><linearGradient id="n" gradientTransform="matrix(.87760945 0 0 1 -2.846064 -2.003)" style="" x1="64.45015" x2="64.45015" xlink:href="#b" y1="7.977683" y2="5.333741"/><linearGradient id="o" gradientTransform="matrix(.87760945 0 0 1.4999621 -2.846065 -6.004196)" style="" x1="69.331604" x2="69.331604" xlink:href="#a" y1="7.5863" y2="10.674664"/><linearGradient id="p" gradientTransform="matrix(.87760945 0 0 1.5000375 -2.846065 -.004802)" style="" x1="64.45015" x2="64.45015" xlink:href="#b" y1="7.977683" y2="5.333741"/><linearGradient id="q" gradientTransform="matrix(.87760945 0 0 1.2374565 -2.846065 2.096633)" style="" x1="69.331604" x2="69.331604" xlink:href="#a" y1="7.5863" y2="10.674664"/><linearGradient id="r" gradientUnits="userSpaceOnUse" style="" x1="85.219681" x2="61.336319" y1="93.219681" y2="69.336319"><stop offset="0" style=""/><stop offset="1" style="stop-color:#393b38"/></linearGradient><linearGradient id="s" gradientUnits="userSpaceOnUse" style="" x1="95.1513" x2="86.759652" y1="104.852973" y2="96.461325"><stop offset="0" style="stop-color:#888a85"/><stop offset=".0072" style="stop-color:#8c8e89"/><stop offset=".0673" style="stop-color:#abaca9"/><stop offset=".1347" style="stop-color:#c5c6c4"/><stop offset=".2115" style="stop-color:#dbdbda"/><stop offset=".3012" style="stop-color:#ebebeb"/><stop offset=".4122" style="stop-color:#f7f7f6"/><stop offset=".5679" style="stop-color:#fdfdfd"/><stop offset="1" style="stop-color:#fff"/></linearGradient><radialGradient id="t" cx="102" cy="112.3047" gradientTransform="matrix(.62169285 0 0 .62112799 53.04303 44.337645)" gradientUnits="userSpaceOnUse" r="139.55859" style=""><stop offset="0" style="stop-color:#535557"/><stop offset=".11366145" style="stop-color:#898a8c"/><stop offset=".20296688" style="stop-color:#ececec"/><stop offset=".2363" style="stop-color:#fafafa"/><stop offset=".2722" style="stop-color:#fff"/><stop offset=".5313" style="stop-color:#fafafa"/><stop offset=".8449" style="stop-color:#ebecec"/><stop offset="1" style="stop-color:#e1e2e3"/></radialGradient><radialGradient id="u" cx="116.9986" cy="114.971502" gradientUnits="userSpaceOnUse" r="139.5585" style=""><stop offset="0" style=""/><stop offset=".0151" style="stop-color:#515151"/><stop offset=".0558" style="stop-color:#7f7f7f"/><stop offset=".0964" style="stop-color:#a6a6a6"/><stop offset=".1357" style="stop-color:#c5c5c5"/><stop offset=".1737" style="stop-color:#dfdfdf"/><stop offset=".20990001" style="stop-color:#f1f1f1"/><stop offset=".2435" style="stop-color:#fafcfd"/><stop offset=".2722" style="stop-color:#fff"/></radialGradient><filter id="v" style="color-interpolation-filters:sRGB"><feGaussianBlur stdDeviation="1.0394514" style=""/></filter><filter id="w" style=""><feGaussianBlur stdDeviation="1.1839292" style=""/></filter><filter id="x" height="1.251961" style="" width="1.125981" x="-.06299" y="-.12598"><feGaussianBlur stdDeviation=".69987406" style=""/></filter><filter id="y" height="1.311612" style="" width="1.311612" x="-.155806" y="-.155806"><feGaussianBlur stdDeviation="2.1311688" style=""/></filter><filter id="z" style=""><feGaussianBlur stdDeviation=".77025973" style=""/></filter><radialGradient id="A" cx="61.331802" cy="66.66819" gradientTransform="matrix(1.7468693 0 0 4.1370271 -56.139944 -215.50024)" gradientUnits="userSpaceOnUse" r="50.665401" style=""><stop offset="0" style="stop-color:#9b9b9b"/><stop offset=".35530001" style="stop-color:#7c7c7c"/><stop offset=".61940002" style="stop-color:#3f3f3f"/><stop offset=".75739998" style="stop-color:#4d4d4d"/><stop offset="1" style="stop-color:#696969"/></radialGradient><radialGradient id="B" cx="92" cy="-3.906845" gradientTransform="matrix(.13953488 0 0 .18604651 79.162791 14.726855)" r="43" style="" xlink:href="#a"/><radialGradient id="C" cx="-495.66669" cy="-3.906846" gradientTransform="matrix(.13953488 0 0 .18604651 79.162791 14.726855)" r="43" style="" xlink:href="#a"/><path d="m46.039999 36.680319 1.92134 83.354161h36.171185c.53 0 1.039-.211 1.414-.586l28.067476-27.034894c.375-.375.586-.884.586-1.414v-54.319267z" style="opacity:.306849;filter:url(#v)" transform="matrix(1.0416667 0 0 1.0357143 5.04027 -.654731)"/><path d="m37.978096 1.9972h26.666v13.333h-26.666z" style="fill-rule:evenodd;opacity:.922652;filter:url(#x)" transform="matrix(.97584578 0 0 1 .917331 0)"/><text style="" x="328.37546" y="213.47678"><tspan style="fill:#555" x="328.37546" y="230.27676"/></text><text style="" x="33.935028" y="144.54372"><tspan style="fill:#555" x="33.935028" y="161.3437"/></text><path d="m13.941009 9.9994197c-4.3994302 0-7.9414094 3.5683703-7.9414094 8.0005803v45.315787l.0001985 46.683633v2.65644c0 2.95481 2.3716595 5.34414 5.3046139 5.34414h2.636796 74.11758 2.636797c2.932951 0 5.304614-2.38933 5.304614-5.34414v-2.65644l-.000199-46.683633v-45.315787c0-4.43221-3.541978-8.0005803-7.94141-8.0005803z" style="fill:url(#g)"/><path d="m13.999599 43.00735c-4.4318884 0-7.9999994 3.568111-7.9999994 8v12.3125 46.68015 2.65625c0 2.95459 2.389157 5.34375 5.3437504 5.34375h2.656249 74.664401 2.65625c2.95459 0 5.34375-2.38916 5.34375-5.34375v-2.65625-46.68015-12.3125c0-4.431889-3.56811-8-8-8z" style="fill:url(#i)"/><path d="m111.9972 117.3336a5.3332 5.3332 0 0 1 -5.3332 5.3332v-5.3332z" style="opacity:.632851;fill:url(#k);filter:url(#j)" transform="matrix(-1 0 0 1 118.2302 -3.536403)"/><path d="m13.353976 12c-2.97766 0-5.353976 2.4044-5.353976 5.377844v40.255204 52.989112 2.67319c0 1.48673 1.1881573 2.70465 2.676988 2.70465h2.676988 75.257954 2.676988c1.488834 0 2.708482-1.21792 2.708482-2.70465v-2.67319-52.989112-40.255204c0-2.973444-2.407813-5.377844-5.38547-5.377844z" style="fill:url(#A);filter:url(#z)"/><path d="m13.353976 12c-2.97766 0-5.353976 2.4044-5.353976 5.377844v40.255204 52.989112 2.67319c0 1.48673 1.1881573 2.70465 2.676988 2.70465h2.676988 75.257954 2.676988c1.488834 0 2.708482-1.21792 2.708482-2.70465v-2.67319-52.989112-40.255204c0-2.973444-2.407813-5.377844-5.38547-5.377844z" style="fill:url(#h)"/><path d="m15.087581 18.9996h71.988441c.971581 0 1.753761.782178 1.753761 1.753762v67.415128c-.44837 6.238696-1.17962 13.61164-2.2 18.70633 0 .97159-.78218 1.75376-1.753761 1.75376-4.271016 1.10433-10.012013.6143-15.403191.8h-55.386268c-.971584 0-.752744-.78217-.752744-1.75376v-86.921458c0-.971584.782178-1.753762 1.753762-1.753762z" style="fill:#191919;filter:url(#c)" transform="matrix(.99898289 0 0 1.0109344 .012544 .792651)"/><path d="m13.9787 20h74.0213v69.857385c0 5.387502-2.813519 14.526495-3.567932 16.641145-1.276367.92746-10.740677 3.50149-16.030057 3.50147h-54.423311z" style="fill:url(#d)"/><path d="m16.017455 21.001715c-.556449.05711-1.024538.586008-1.017455 1.149628v85.518877c-.0045.60318.542248 1.15418 1.140783 1.14963h53.500704c.01028.00014.02055.00014.03083 0 5.788644-.13545 11.752845-1.92649 13.905225-2.92067.259187-.1138.472891-.32916.585808-.59035.224045-.55509.428969-1.3814.709136-2.5789.280166-1.1975.593522-2.69845.894127-4.318868.601212-3.240831 1.165521-6.948507 1.23328-9.725227.00014-.01036.00014-.02071 0-.03107v-66.503421c0-.603193-.542248-1.15418-1.140784-1.149628h-69.718328c-.04106-.0023-.08226-.0023-.123326-.000001z" style="fill:url(#m)"/><path d="m13.355311 12c-2.9784 0-5.355311 2.389157-5.355311 5.34375v1.4375c.2720448-2.69699 2.56306-5.78125 5.355311-5.78125h75.257876c2.9784 0 5.386813 3.389157 5.386813 6.34375v-2c0-2.954593-2.408413-5.34375-5.386813-5.34375z" style="fill:#fff;opacity:.475138"/><path d="m27.332401 12.6664h48.998799c1.256908 4.579055 1.14506 11.699364-.3 17.8996l-48.9988.1c-1.771197-5.775999-2.227736-13.298334.300001-17.9996z" style="fill-opacity:.635838;filter:url(#f)" transform="matrix(.9452241 0 0 .96299918 2.315349 .468667)"/><path d="m28 12h46v16h-46z" style="fill:url(#e)"/><path d="m37.920185-15.3302h26.079815v13.333h-26.079815z" style="fill:url(#l)" transform="scale(1 -1)"/><path d="m43.958599 3.3334h14.0414v2.6666h-14.0414z" style="opacity:.400966;fill:url(#n)"/><path d="m43.958599 6h14.0414v3.999799h-14.0414z" style="opacity:.400966;fill:url(#o)"/><path d="m43.958599 8h14.0414v4h-14.0414z" style="opacity:.400966;fill:url(#p)"/><path d="m43.958599 12h14.0414v3.299802h-14.0414z" style="opacity:.400966;fill:url(#q)"/><path d="m48.921339 37.321809v80.781751l38.899998-.0001c.53 0 1.039-.211 1.414-.586l24.380003-23.076288c.375-.375.586-.884.586-1.414v-55.705363z" style="opacity:.701657;filter:url(#w)" transform="matrix(1.0416667 0 0 1.0357143 5.04027 -.654731)"/><path d="m55.9986 38v84h41.17341c.53 0 1.039-.211 1.414-.586l24.82799-22.828002c.375-.375.586-.884.586-1.414v-59.171998z" style="fill:url(#u)"/><path d="m57.98271 39.0022c-.54147 0-.98271.440836-.98271.981818l.29715 80.400962c0 .54197.44124.98182.98271.98182h38.77709c.25845 0 .512-.10407.69478-.28767l24.96033-22.231132c.18377-.1836.28794-.43592.28794-.69414v-58.17204c0-.540982-.44026-.981818-.98271-.981818z" style="fill:url(#t)"/><g style="" transform="matrix(.70702368 0 0 .65143561 42.308871 42.638128)"><path d="m111.414 86.586c-4.85965 3.200399-19.139028 2.450234-28.402453 2.23609-.552875-.01278-.930006.452241-1 1-1.132479 8.86261-.378939 27.88935-3.425547 29.59191z" style="opacity:.254144;fill:url(#r);filter:url(#y)"/><path d="m78.768407 121.82612s10.613492-11.20375 16.382893-16.97315c5.7694-5.769398 20.39098-19.868558 20.39098-19.868558s-11.17082 3.070142-31.116354 3.070142c0 22.361046-5.657519 33.771566-5.657519 33.771566z" style="fill:url(#s)"/></g><path d="m37.920185 1.9972h26.079813v1.0653h-26.079813z" style="fill:#fff;fill-rule:evenodd"/><path d="m13.355311 12c-2.9784 0-5.355311 2.389157-5.355311 5.34375v1.4375c.2720448-2.69699 2.56306-5.78125 5.355311-5.78125h75.257876c2.9784 0 5.386813 3.389157 5.386813 6.34375v-2c0-2.954593-2.408413-5.34375-5.386813-5.34375z" style="opacity:.475138;fill:url(#B)"/><path d="m13.355311 12c-2.9784 0-5.355311 2.389157-5.355311 5.34375v1.4375c.2720448-2.69699 2.56306-5.78125 5.355311-5.78125h75.257876c2.9784 0 5.386813 3.389157 5.386813 6.34375v-2c0-2.954593-2.408413-5.34375-5.386813-5.34375z" style="opacity:.475138;fill:url(#C)"/></svg>