<svg xmlns="http://www.w3.org/2000/svg" xmlns:xlink="http://www.w3.org/1999/xlink" width="48" height="48"><defs><linearGradient id="d"><stop offset="0" stop-color="#fff"/><stop offset="1" stop-color="#fff" stop-opacity="0"/></linearGradient><linearGradient id="b"><stop offset="0" stop-color="#edd400"/><stop offset="1" stop-color="#edd400" stop-opacity="0"/></linearGradient><linearGradient id="c"><stop offset="0"/><stop offset="1" stop-opacity="0"/></linearGradient><linearGradient id="a"><stop offset="0" stop-color="#fff"/><stop offset="1" stop-color="#fff" stop-opacity="0"/></linearGradient><linearGradient xlink:href="#a" id="g" x1="17.061" x2="12.624" y1="11.395" y2="12.584" gradientTransform="matrix(0 -1.17193 -1.17193 0 46.174 54.101)" gradientUnits="userSpaceOnUse"/><linearGradient xlink:href="#b" id="f" x1="26.5" x2="26.25" y1="34.25" y2="43.572" gradientUnits="userSpaceOnUse"/><radialGradient xlink:href="#c" id="e" cx="24.837" cy="36.421" r="15.645" fx="24.837" fy="36.421" gradientTransform="matrix(1 0 0 .53672 0 16.873)" gradientUnits="userSpaceOnUse"/><radialGradient xlink:href="#d" id="h" cx="15.094" cy="13.283" r="10.165" fx="15.094" fy="13.283" gradientTransform="matrix(2.49603 0 0 2.30069 -25.124 -17.826)" gradientUnits="userSpaceOnUse"/></defs><path fill="url(#e)" fill-rule="evenodd" d="M40.482 36.421a15.645 8.397 0 1 1-31.29 0 15.645 8.397 0 1 1 31.29 0z" color="#000" opacity=".141" overflow="visible" style="marker:none" transform="matrix(-1.48974 0 0 -1.00125 60.604 75.313)"/><path fill="url(#f)" stroke="url(#linearGradient2322)" d="M9.582 45.034c40.026 1.322 33.7-32.74 12.88-32.536V3.122L5.814 17.71l16.648 15.297v-9.668c14.064-.586 18.178 21.433-12.88 21.696z" color="#000" display="block" overflow="visible" style="marker:none"/><path fill="none" stroke="url(#g)" stroke-miterlimit="10" d="M31.032 39.316c11.723-6.08 8.188-26.229-9.583-25.766v-8.1L7.4 17.716l14.048 12.944V22.38c14.84-.348 14.16 12.758 9.583 16.935z" color="#000" display="block" opacity=".699" overflow="visible" style="marker:none"/><path fill="url(#h)" fill-rule="evenodd" d="m6.63 17.683 5.656 5.391c6.276-.176 3.447-6.363 14.672-9.457l-4.95-.619-.088-8.662L6.63 17.683z" color="#000" opacity=".511" overflow="visible" style="marker:none"/></svg>