<svg xmlns="http://www.w3.org/2000/svg" xmlns:xlink="http://www.w3.org/1999/xlink" width="48" height="48"><linearGradient id="a" gradientUnits="userSpaceOnUse"><stop offset="0" style="stop-color:#fff"/><stop offset="1" style="stop-color:#fff;stop-opacity:0"/></linearGradient><linearGradient xlink:href="#a" id="d" x1="17.061" x2="12.624" y1="11.395" y2="12.584" gradientTransform="matrix(0 -1.17193 -1.17193 0 46.174 54.101)"/><linearGradient id="c" x1="26.5" x2="26.25" y1="34.25" y2="43.572" gradientUnits="userSpaceOnUse"><stop offset="0" style="stop-color:#edd400"/><stop offset="1" style="stop-color:#edd400;stop-opacity:0"/></linearGradient><radialGradient id="b" cx="24.837" cy="36.421" r="15.645" gradientTransform="matrix(1 0 0 .53672 0 16.873)" gradientUnits="userSpaceOnUse"><stop offset="0"/><stop offset="1" style="stop-opacity:0"/></radialGradient><radialGradient xlink:href="#a" id="e" cx="15.094" cy="13.283" r="10.165" gradientTransform="matrix(2.49603 0 0 2.30069 -25.124 -17.826)"/><path d="M40.482 36.421a15.645 8.397 0 1 1-31.29 0 15.645 8.397 0 1 1 31.29 0z" style="fill-rule:evenodd;opacity:.141176;fill:url(#b)" transform="matrix(-1.48974 0 0 -1.00125 60.604 75.313)"/><path d="M9.582 45.034c40.026 1.322 33.7-32.74 12.88-32.536V3.122L5.814 17.71l16.648 15.297v-9.668c14.064-.586 18.178 21.433-12.88 21.696z" style="display:block;fill:url(#c)"/><path d="M31.032 39.316c11.723-6.08 8.188-26.229-9.583-25.766v-8.1L7.4 17.716l14.048 12.944V22.38c14.84-.348 14.16 12.758 9.583 16.935z" style="fill:none;stroke-miterlimit:10;display:block;opacity:.698864;stroke:url(#d)"/><path d="m6.63 17.683 5.656 5.391c6.276-.176 3.447-6.363 14.672-9.457l-4.95-.619-.088-8.662z" style="fill-rule:evenodd;opacity:.511364;fill:url(#e)"/></svg>