<svg xmlns="http://www.w3.org/2000/svg" xmlns:xlink="http://www.w3.org/1999/xlink" width="128" height="128" version="1.0"><defs><path id="p" fill="none" stroke="#000" stroke-linecap="round" stroke-linejoin="round" stroke-width="3" d="M75.188 70.063a2 2 0 0 0-1.813 1.468l-2.156 8.063a2 2 0 0 0 .219 1.5l18.187 31.469c2.348 4.063 5.543 7.161 9 8.906 3.457 1.744 7.349 2.149 10.531.312 3.183-1.836 4.779-5.414 5-9.281.221-3.867-.87-8.185-3.219-12.25-2.348-4.065-5.541-7.17-9-8.906-3.458-1.737-7.35-2.116-10.53-.281-.753.433-.829.418-1.407.124s-1.57-1.206-2.75-2.843c-2.36-3.275-5.526-9.158-10.219-17.281a2 2 0 0 0-1.844-1zm22.75 28.968c1.91-.131 5.356 1.852 7.5 5.563 1.32 2.284 1.892 4.674 1.812 6.531-.08 1.857-.748 3.007-1.656 3.531-.908.524-2.195.517-3.844-.344s-3.461-2.558-4.781-4.843c-1.32-2.285-1.893-4.705-1.813-6.563.08-1.857.717-3.007 1.625-3.531a2.57 2.57 0 0 1 1.156-.344z" clip-path="url(#a)" filter="url(#b)" opacity=".703"/><path id="x" fill-rule="evenodd" d="M57.531 79.25 39.72 110.063c-2.348 4.063-5.543 7.161-9 8.906-3.457 1.744-7.349 2.149-10.532.312-3.182-1.836-4.778-5.414-5-9.281-.068-1.193.008-2.43.188-3.688-.563 2.114-.8 4.216-.688 6.188.222 3.867 1.818 7.445 5 9.281 3.183 1.837 7.075 1.432 10.532-.312 3.457-1.745 6.652-4.843 9-8.906l18.187-31.47a2 2 0 0 0 .219-1.5l-.094-.343zM31.406 96.531c-1.91-.131-5.356 1.852-7.5 5.563-1.065 1.844-1.64 3.76-1.781 5.406.298-.952.725-1.944 1.281-2.906 2.144-3.711 5.59-5.694 7.5-5.563a2.57 2.57 0 0 1 1.157.344c.907.524 1.544 1.674 1.624 3.531.016.362.004.757-.03 1.156.408-1.316.577-2.581.53-3.656-.08-1.857-.717-3.007-1.624-3.531a2.57 2.57 0 0 0-1.157-.344z" filter="url(#c)" opacity=".708"/></defs><defs><linearGradient id="j"><stop offset="0"/><stop offset="1" stop-opacity="0"/></linearGradient><linearGradient id="k"><stop offset="0" stop-color="#dfdfdf"/><stop offset="1" stop-color="#606060"/></linearGradient><linearGradient id="i"><stop offset="0" stop-color="#fff"/><stop offset="1" stop-color="#fff" stop-opacity="0"/></linearGradient><linearGradient id="h"><stop offset="0" stop-color="#fff"/><stop offset="1" stop-color="#fff" stop-opacity="0"/></linearGradient><linearGradient id="g"><stop offset="0" stop-color="#606060"/><stop offset="1" stop-color="#343434"/></linearGradient><linearGradient id="f"><stop offset="0"/><stop offset="1" stop-opacity="0"/></linearGradient><linearGradient id="d"><stop offset="0" stop-color="#fff"/><stop offset="1" stop-color="#e7e7e7"/></linearGradient><linearGradient id="e"><stop offset="0"/><stop offset="1" stop-opacity="0"/></linearGradient><linearGradient xlink:href="#d" id="v" x1="62.646" x2="52.067" y1="53.751" y2="53.751" gradientTransform="matrix(.8513 -.49117 .4915 .85074 -22.138 32.364)" gradientUnits="userSpaceOnUse"/><linearGradient xlink:href="#e" id="t" x1="61.912" x2="59.719" y1="72.457" y2="73.71" gradientTransform="matrix(1.85414 0 0 1.8529 -52.139 -62.026)" gradientUnits="userSpaceOnUse"/><linearGradient xlink:href="#d" id="s" x1="62.646" x2="52.067" y1="53.751" y2="53.751" gradientTransform="matrix(-.8513 -.49117 -.4915 .85074 150.742 32.364)" gradientUnits="userSpaceOnUse"/><linearGradient xlink:href="#f" id="u" x1="65.415" x2="71.567" y1="63.219" y2="58.625" gradientUnits="userSpaceOnUse"/><linearGradient xlink:href="#g" id="q" x1="66.411" x2="56.771" y1="111.097" y2="111.404" gradientTransform="matrix(.8513 -.49117 .4915 .85074 -21.797 30.673)" gradientUnits="userSpaceOnUse"/><linearGradient xlink:href="#h" id="r" x1="100.238" x2="115.333" y1="84.953" y2="111.099" gradientTransform="translate(-12.156 -11.996) scale(1.13043)" gradientUnits="userSpaceOnUse"/><linearGradient xlink:href="#g" id="n" x1="66.411" x2="56.771" y1="111.097" y2="111.404" gradientTransform="matrix(-.8513 -.49117 -.4915 .85074 150.64 30.673)" gradientUnits="userSpaceOnUse"/><linearGradient xlink:href="#h" id="o" x1="100.238" x2="115.333" y1="84.953" y2="111.099" gradientTransform="matrix(-1.13043 0 0 1.13043 141 -11.996)" gradientUnits="userSpaceOnUse"/><linearGradient xlink:href="#i" id="z" x1="24.636" x2="24.636" y1="118.537" y2="110.801" gradientUnits="userSpaceOnUse"/><linearGradient xlink:href="#i" id="B" x1="24.636" x2="24.636" y1="118.537" y2="110.801" gradientUnits="userSpaceOnUse"/><linearGradient xlink:href="#j" id="l" x1="64.469" x2="65.411" y1="67.045" y2="80.971" gradientUnits="userSpaceOnUse"/><filter id="b"><feGaussianBlur stdDeviation=".475"/></filter><filter id="A"><feGaussianBlur stdDeviation=".419"/></filter><filter id="y"><feGaussianBlur stdDeviation=".716"/></filter><filter id="c"><feGaussianBlur stdDeviation=".716"/></filter><filter id="m"><feGaussianBlur stdDeviation=".987"/></filter><radialGradient xlink:href="#k" id="w" cx="66" cy="54" r="2" fx="66.496" fy="53.141" gradientTransform="matrix(1.03155 -.59596 .59557 1.03086 -34.243 37.667)" gradientUnits="userSpaceOnUse"/><clipPath id="a" clipPathUnits="userSpaceOnUse"><path fill="#343434" fill-rule="evenodd" stroke-linecap="round" stroke-linejoin="round" stroke-width="6" d="M75.188 70.063a2 2 0 0 0-1.813 1.468l-2.156 8.063a2 2 0 0 0 .219 1.5l18.187 31.469c2.348 4.063 5.543 7.161 9 8.906 3.457 1.744 7.349 2.149 10.531.312 3.183-1.836 4.779-5.414 5-9.281.221-3.867-.87-8.185-3.219-12.25-2.348-4.065-5.541-7.17-9-8.906-3.458-1.737-7.35-2.116-10.53-.281-.753.433-.829.418-1.407.124s-1.57-1.206-2.75-2.843c-2.36-3.275-5.526-9.158-10.219-17.281a2 2 0 0 0-1.844-1zm22.75 28.968c1.91-.131 5.356 1.852 7.5 5.563 1.32 2.284 1.892 4.674 1.812 6.531-.08 1.857-.748 3.007-1.656 3.531-.908.524-2.195.517-3.844-.344s-3.461-2.558-4.781-4.843c-1.32-2.285-1.893-4.705-1.813-6.563.08-1.857.717-3.007 1.625-3.531a2.57 2.57 0 0 1 1.156-.344z"/></clipPath></defs><path fill-rule="evenodd" stroke="url(#l)" stroke-linecap="round" stroke-linejoin="round" stroke-width="3.548" d="M35.281 14.469c-.955.551-.83 1.716-.593 2.312 7.137 18.61 13.535 35.567 23.468 53.969l-1.531 2.469a2.013 2.013 0 0 0-1.938-1 2 2 0 0 0-1.562 1c-4.163 7.21-6.958 12.432-9.031 15.312-1.037 1.44-1.89 2.239-2.344 2.469-.454.23-.443.264-1.063-.094-2.9-1.674-6.417-1.314-9.53.25-3.114 1.565-5.992 4.328-8.095 7.969-2.102 3.641-3.074 7.517-2.875 11 .2 3.483 1.66 6.73 4.563 8.406 2.903 1.676 6.45 1.29 9.563-.281 3.112-1.572 5.96-4.329 8.062-7.969L58.5 82.344c.175-.296.273-.631.281-.969 1.713-1.201 3.655-2.332 5.532-3.125 1.989.84 4.082 2.06 5.874 3.344.03.265.117.513.25.75l16.126 27.937c2.101 3.64 4.981 6.397 8.093 7.969s6.629 1.957 9.531.281c2.903-1.676 4.364-4.923 4.563-8.406.2-3.483-.773-7.359-2.875-11-2.102-3.64-4.98-6.404-8.094-7.969-3.113-1.564-6.63-1.924-9.531-.25-.62.358-.609.324-1.063.094-.453-.23-1.306-1.029-2.343-2.469-2.074-2.88-4.869-8.102-9.031-15.312a2 2 0 0 0-1.844-1c-.79.05-1.474.554-1.75 1.281L70.5 70.75c9.933-18.402 16.331-35.358 23.469-53.969.236-.596.36-1.76-.594-2.312L64.312 60.875l-29.03-46.406zm-.5 83.906c.335.023.603.106.907.281.72.417 1.274 1.373 1.343 2.969.07 1.596-.412 3.663-1.562 5.656-1.151 1.994-2.71 3.48-4.125 4.219-1.416.739-2.498.729-3.219.313-.721-.417-1.275-1.342-1.344-2.938-.069-1.596.412-3.695 1.563-5.688 1.869-3.237 4.88-4.92 6.437-4.812zm59.375 0c1.557-.107 4.569 1.575 6.438 4.813 1.15 1.992 1.631 4.09 1.562 5.687-.069 1.596-.591 2.521-1.312 2.938-.721.416-1.803.426-3.219-.313s-2.974-2.225-4.125-4.219c-1.15-1.993-1.663-4.06-1.594-5.656.07-1.596.623-2.552 1.344-2.969a1.97 1.97 0 0 1 .906-.281z" filter="url(#m)" opacity=".5" transform="matrix(1.12792 0 0 1.12717 -8.247 -11.606)"/><path fill="url(#n)" fill-rule="evenodd" d="M53.656 70.063a2 2 0 0 1 1.813 1.468l2.156 8.063a2 2 0 0 1-.219 1.5L39.22 112.563c-2.348 4.063-5.543 7.161-9 8.906-3.457 1.744-7.349 2.149-10.531.312-3.183-1.836-4.78-5.414-5-9.281-.222-3.867.87-8.185 3.218-12.25 2.349-4.065 5.542-7.17 9-8.906 3.459-1.737 7.352-2.116 10.532-.281.752.433.828.418 1.406.124s1.57-1.206 2.75-2.843c2.36-3.275 5.526-9.158 10.219-17.281a2 2 0 0 1 1.843-1zM30.906 99.03c-1.91-.131-5.356 1.852-7.5 5.563-1.32 2.284-1.892 4.674-1.812 6.531.08 1.857.748 3.007 1.656 3.531.908.524 2.194.517 3.844-.344s3.461-2.558 4.781-4.843c1.32-2.285 1.893-4.705 1.813-6.563-.08-1.857-.718-3.007-1.625-3.531a2.57 2.57 0 0 0-1.157-.344z"/><path fill="url(#o)" fill-rule="evenodd" d="M55.652 70.313a2.15 2.15 0 0 1 1.943 1.59l.071.282c-.372-.425-.859-.707-1.448-.742-.813-.044-1.608.355-2.014 1.06-5.054 8.749-8.445 15.09-10.986 18.617-1.271 1.764-2.345 2.757-2.968 3.073-.622.316-.709.326-1.519-.141-3.425-1.976-7.615-1.552-11.34.318-3.724 1.87-7.15 5.195-9.679 9.573l-.565-1.13c2.53-4.378 5.955-7.703 9.68-9.574 3.724-1.87 7.914-2.294 11.34-.318.81.468.896.457 1.518.142.623-.316 1.697-1.31 2.968-3.074 2.541-3.527 5.931-9.867 10.986-18.616.405-.705 1.201-1.105 2.013-1.06z" opacity=".772"/><use xlink:href="#p" stroke-linecap="round" stroke-linejoin="round" stroke-width="3" clip-path="url(#a)" filter="url(#b)" opacity=".703" transform="matrix(-1 0 0 1 128.844 0)"/><path fill="url(#q)" fill-rule="evenodd" d="M75.188 70.063a2 2 0 0 0-1.813 1.468l-2.156 8.063a2 2 0 0 0 .219 1.5l18.187 31.469c2.348 4.063 5.543 7.161 9 8.906 3.457 1.744 7.349 2.149 10.531.312 3.183-1.836 4.779-5.414 5-9.281.221-3.867-.87-8.185-3.219-12.25-2.348-4.065-5.541-7.17-9-8.906-3.458-1.737-7.35-2.116-10.53-.281-.753.433-.829.418-1.407.124s-1.57-1.206-2.75-2.843c-2.36-3.275-5.526-9.158-10.219-17.281a2 2 0 0 0-1.844-1zm22.75 28.968c1.91-.131 5.356 1.852 7.5 5.563 1.32 2.284 1.892 4.674 1.812 6.531-.08 1.857-.748 3.007-1.656 3.531-.908.524-2.195.517-3.844-.344s-3.461-2.558-4.781-4.843c-1.32-2.285-1.893-4.705-1.813-6.563.08-1.857.717-3.007 1.625-3.531a2.57 2.57 0 0 1 1.156-.344z"/><path fill="url(#r)" fill-rule="evenodd" d="M73.191 70.313a2.15 2.15 0 0 0-1.943 1.59l-.07.282c.372-.425.859-.707 1.448-.742.812-.044 1.608.355 2.014 1.06 5.054 8.749 8.445 15.09 10.986 18.617 1.27 1.764 2.345 2.757 2.967 3.073.623.316.71.326 1.52-.141 3.424-1.976 7.614-1.552 11.34.318 3.724 1.87 7.15 5.195 9.678 9.573l.566-1.13c-2.53-4.378-5.955-7.703-9.68-9.574-3.724-1.87-7.914-2.294-11.34-.318-.81.468-.896.457-1.518.142-.623-.316-1.697-1.31-2.968-3.074-2.541-3.527-5.931-9.867-10.986-18.616-.406-.705-1.201-1.105-2.014-1.06z" opacity=".772"/><use xlink:href="#p" stroke-linecap="round" stroke-linejoin="round" stroke-width="3" clip-path="url(#a)" filter="url(#b)" opacity=".703"/><path fill="url(#s)" fill-rule="evenodd" d="m97.96 1.911-44.33 70.84-1.15 11.813c1.965-3.403 9.303-8.244 14.674-9.682C81.239 50.502 89.412 28.74 98.68 4.595c.275-.691.388-2.045-.72-2.684z"/><path fill="none" stroke="#fff" d="M97.692 2.385 61.74 59.428"/><path fill="url(#t)" fill-rule="evenodd" d="m59.75 65.656-2.031.563L56.28 68.5l4.313 9.219c1.826-1.044 3.742-1.948 5.5-2.531l-6.344-9.532z"/><path fill="url(#u)" fill-rule="evenodd" d="M67.188 51.063 59 64.156l7.188 11c.326-.106.654-.197.968-.281 2.56-4.43 4.914-8.775 7.125-13.063l-7.094-10.75z"/><path fill="url(#v)" fill-rule="evenodd" d="m30.643 1.911 44.331 70.84 1.15 11.813c-1.966-3.403-9.303-8.244-14.674-9.682C47.365 50.502 39.192 28.74 29.923 4.595c-.274-.691-.388-2.045.72-2.684z"/><path fill="none" stroke="#fff" d="m30.739 2.385 33.453 53.543"/><path fill="url(#w)" fill-rule="evenodd" d="M68 54a2 2 0 1 1-4 0 2 2 0 1 1 4 0z" opacity=".96" transform="matrix(1.44037 -.83106 .8316 1.43943 -76 45.513)"/><use xlink:href="#x" fill-rule="evenodd" filter="url(#c)" opacity=".708"/><use xlink:href="#x" fill-rule="evenodd" filter="url(#y)" opacity=".708" transform="matrix(-1 0 0 1 128.844 0)"/><path fill="url(#z)" fill-rule="evenodd" d="M33.188 106.438c-.3.997-.733 2.026-1.313 3.03-1.32 2.286-3.132 3.984-4.781 4.844-1.65.86-2.936.868-3.844.344-.908-.524-1.576-1.674-1.656-3.531-.382 1.263-.545 2.46-.5 3.5.08 1.857.748 3.007 1.656 3.531.908.524 2.194.517 3.844-.344s3.461-2.558 4.781-4.843c1.313-2.272 1.885-4.678 1.813-6.531z" filter="url(#A)" opacity=".485" transform="matrix(1.63954 0 0 1.51881 -16 -58.98)"/><path fill="url(#B)" fill-rule="evenodd" d="M33.188 106.438c-.3.997-.733 2.026-1.313 3.03-1.32 2.286-3.132 3.984-4.781 4.844-1.65.86-2.936.868-3.844.344-.908-.524-1.576-1.674-1.656-3.531-.382 1.263-.545 2.46-.5 3.5.08 1.857.748 3.007 1.656 3.531.908.524 2.194.517 3.844-.344s3.461-2.558 4.781-4.843c1.313-2.272 1.885-4.678 1.813-6.531z" filter="url(#A)" opacity=".485" transform="matrix(-1.63954 0 0 1.51881 144.995 -58.98)"/><path fill="none" stroke="#fff" d="m65.77 66.283-3.587 4.274" opacity=".777"/></svg>