<?xml version="1.0" encoding="UTF-8" standalone="no"?>
<svg xmlns="http://www.w3.org/2000/svg" xmlns:xlink="http://www.w3.org/1999/xlink" width="128" height="128" version="1.0">
  <defs>
    <path id="p" fill="none" stroke="#000" stroke-linecap="round" stroke-linejoin="round" stroke-width="3" d="M75.1875 70.0625c-.856681.050086-1.585955.641049-1.8125 1.46875l-2.15625 8.0625c-.12671.509335-.048145 1.048066.21875 1.5L89.625 112.5625c2.347816 4.06383 5.542933 7.16167 9 8.90625 3.45707 1.74458 7.34864 2.14876 10.53125.3125 3.18256-1.83623 4.77875-5.41426 5-9.28125.22125-3.86699-.87023-8.18495-3.21875-12.25-2.3484-4.064847-5.54173-7.169784-9-8.90625-3.458275-1.736466-7.351338-2.11595-10.53125-.28125-.752211.433999-.828237.418141-1.40625.125s-1.570148-1.206147-2.75-2.84375c-2.359704-3.275207-5.525701-9.158071-10.21875-17.28125-.376511-.65468-1.089664-1.041475-1.84375-1zm22.75 28.96875c1.910083-.131349 5.35613 1.85167 7.5 5.5625 1.31974 2.28435 1.89273 4.67398 1.8125 6.53125-.08023 1.85727-.74835 3.00743-1.65625 3.53125-.90784.52379-2.19441.51626-3.84375-.34375s-3.461233-2.55894-4.78125-4.84375c-1.319749-2.28436-1.892729-4.70523-1.8125-6.5625.080229-1.85727.717103-3.007424 1.625-3.53125.373276-.215369.739601-.3151 1.15625-.34375z" clip-path="url(#a)" filter="url(#b)" opacity=".70297032"/>
    <path id="x" fill-rule="evenodd" d="m57.53125 79.25-17.8125 30.8125c-2.347814 4.06383-5.542933 7.16167-9 8.90625-3.45707 1.74458-7.34864 2.14876-10.53125.3125-3.18256-1.83623-4.77875-5.41426-5-9.28125-.068271-1.19324.007421-2.42906.1875-3.6875-.562763 2.11357-.800347 4.21517-.6875 6.1875.22125 3.86699 1.81744 7.44502 5 9.28125 3.18261 1.83626 7.07418 1.43208 10.53125-.3125 3.457067-1.74458 6.652186-4.84242 9-8.90625l18.1875-31.46875c.2669-.451934.34546-.990665.21875-1.5l-.09375-.34375zm-26.125 17.28125c-1.910083-.131349-5.35613 1.85167-7.5 5.5625-1.065463 1.84422-1.640002 3.76032-1.78125 5.40625.297918-.95218.725187-1.94376 1.28125-2.90625 2.14387-3.71083 5.589917-5.693849 7.5-5.5625.416649.02865.782976.128381 1.15625.34375.907897.523826 1.544773 1.67398 1.625 3.53125.015641.36208.003455.75652-.03125 1.15625.409149-1.31651.577675-2.58153.53125-3.65625-.080227-1.85727-.717103-3.007424-1.625-3.53125-.373274-.215369-.739601-.3151-1.15625-.34375z" filter="url(#c)" opacity=".70792079"/>
  </defs>
  <defs>
    <linearGradient id="j">
      <stop offset="0"/>
      <stop offset="1" stop-opacity="0"/>
    </linearGradient>
    <linearGradient id="k">
      <stop offset="0" stop-color="#dfdfdf"/>
      <stop offset="1" stop-color="#606060"/>
    </linearGradient>
    <linearGradient id="i">
      <stop offset="0" stop-color="#fff"/>
      <stop offset="1" stop-color="#fff" stop-opacity="0"/>
    </linearGradient>
    <linearGradient id="h">
      <stop offset="0" stop-color="#fff"/>
      <stop offset="1" stop-color="#fff" stop-opacity="0"/>
    </linearGradient>
    <linearGradient id="g">
      <stop offset="0" stop-color="#606060"/>
      <stop offset="1" stop-color="#343434"/>
    </linearGradient>
    <linearGradient id="f">
      <stop offset="0"/>
      <stop offset="1" stop-opacity="0"/>
    </linearGradient>
    <linearGradient id="d">
      <stop offset="0" stop-color="#fff"/>
      <stop offset="1" stop-color="#e7e7e7"/>
    </linearGradient>
    <linearGradient id="e">
      <stop offset="0"/>
      <stop offset="1" stop-opacity="0"/>
    </linearGradient>
    <linearGradient xlink:href="#d" id="v" x1="62.646275" x2="52.066586" y1="53.750923" y2="53.750923" gradientTransform="matrix(.8513 -.49117 .4915 .85074 -22.138279 32.363934)" gradientUnits="userSpaceOnUse"/>
    <linearGradient xlink:href="#e" id="t" x1="61.911907" x2="59.719414" y1="72.456772" y2="73.709625" gradientTransform="matrix(1.85414 0 0 1.8529 -52.138638 -62.025773)" gradientUnits="userSpaceOnUse"/>
    <linearGradient xlink:href="#d" id="s" x1="62.646275" x2="52.066586" y1="53.750923" y2="53.750923" gradientTransform="matrix(-.8513 -.49117 -.4915 .85074 150.74175 32.363934)" gradientUnits="userSpaceOnUse"/>
    <linearGradient xlink:href="#f" id="u" x1="65.414917" x2="71.566734" y1="63.2187" y2="58.624897" gradientUnits="userSpaceOnUse"/>
    <linearGradient xlink:href="#g" id="q" x1="66.410789" x2="56.771309" y1="111.09748" y2="111.40427" gradientTransform="matrix(.8513 -.49117 .4915 .85074 -21.796979 30.673174)" gradientUnits="userSpaceOnUse"/>
    <linearGradient xlink:href="#h" id="r" x1="100.23751" x2="115.33315" y1="84.952927" y2="111.09933" gradientTransform="translate(-12.155804 -11.996273) scale(1.13043)" gradientUnits="userSpaceOnUse"/>
    <linearGradient xlink:href="#g" id="n" x1="66.410789" x2="56.771309" y1="111.09748" y2="111.40427" gradientTransform="matrix(-.8513 -.49117 -.4915 .85074 150.64081 30.673174)" gradientUnits="userSpaceOnUse"/>
    <linearGradient xlink:href="#h" id="o" x1="100.23751" x2="115.33315" y1="84.952927" y2="111.09933" gradientTransform="matrix(-1.13043 0 0 1.13043 140.99964 -11.996273)" gradientUnits="userSpaceOnUse"/>
    <linearGradient xlink:href="#i" id="z" x1="24.636236" x2="24.636236" y1="118.53715" y2="110.80067" gradientUnits="userSpaceOnUse"/>
    <linearGradient xlink:href="#i" id="B" x1="24.636236" x2="24.636236" y1="118.53715" y2="110.80067" gradientUnits="userSpaceOnUse"/>
    <linearGradient xlink:href="#j" id="l" x1="64.46875" x2="65.410522" y1="67.044975" y2="80.970673" gradientUnits="userSpaceOnUse"/>
    <filter id="b">
      <feGaussianBlur stdDeviation=".47498194"/>
    </filter>
    <filter id="A">
      <feGaussianBlur stdDeviation=".41898454"/>
    </filter>
    <filter id="y">
      <feGaussianBlur stdDeviation=".71627592"/>
    </filter>
    <filter id="c">
      <feGaussianBlur stdDeviation=".71627592"/>
    </filter>
    <filter id="m">
      <feGaussianBlur stdDeviation=".98653907"/>
    </filter>
    <radialGradient xlink:href="#k" id="w" cx="66" cy="54" r="2" fx="66.495979" fy="53.140942" gradientTransform="matrix(1.03155 -.59596 .59557 1.03086 -34.242853 37.667027)" gradientUnits="userSpaceOnUse"/>
    <clipPath id="a" clipPathUnits="userSpaceOnUse">
      <path fill="#343434" fill-rule="evenodd" stroke-linecap="round" stroke-linejoin="round" stroke-width="6" d="M75.1875 70.0625c-.856681.050086-1.585955.641049-1.8125 1.46875l-2.15625 8.0625c-.12671.509335-.048145 1.048066.21875 1.5L89.625 112.5625c2.347816 4.06383 5.542933 7.16167 9 8.90625 3.45707 1.74458 7.34864 2.14876 10.53125.3125 3.18256-1.83623 4.77875-5.41426 5-9.28125.22125-3.86699-.87023-8.18495-3.21875-12.25-2.3484-4.064847-5.54173-7.169784-9-8.90625-3.458275-1.736466-7.351338-2.11595-10.53125-.28125-.752211.433999-.828237.418141-1.40625.125s-1.570148-1.206147-2.75-2.84375c-2.359704-3.275207-5.525701-9.158071-10.21875-17.28125-.376511-.65468-1.089664-1.041475-1.84375-1zm22.75 28.96875c1.910083-.131349 5.35613 1.85167 7.5 5.5625 1.31974 2.28435 1.89273 4.67398 1.8125 6.53125-.08023 1.85727-.74835 3.00743-1.65625 3.53125-.90784.52379-2.19441.51626-3.84375-.34375s-3.461233-2.55894-4.78125-4.84375c-1.319749-2.28436-1.892729-4.70523-1.8125-6.5625.080229-1.85727.717103-3.007424 1.625-3.53125.373276-.215369.739601-.3151 1.15625-.34375z"/>
    </clipPath>
  </defs>
  <path fill-rule="evenodd" stroke="url(#l)" stroke-linecap="round" stroke-linejoin="round" stroke-width="3.54751818" d="M35.28125 14.46875c-.954832.551423-.830149 1.715793-.59375 2.3125C41.824923 35.39161 48.223262 52.347787 58.15625 70.75L56.625 73.21875c-.380064-.670955-1.137889-1.074734-1.9375-1-.653266.057053-1.237077.430692-1.5625 1-4.162732 7.210063-6.957633 12.432454-9.03125 15.3125C43.056941 89.971273 42.203917 90.769641 41.75 91c-.453917.230359-.443117.263851-1.0625-.09375-2.900225-1.674446-6.417811-1.314362-9.53125.25-3.113439 1.564362-5.991657 4.327822-8.09375 7.96875-2.102209 3.64113-3.074146 7.51712-2.875 11 .199146 3.48288 1.659632 6.73028 4.5625 8.40625 2.902918 1.676 6.450269 1.29036 9.5625-.28125 3.112231-1.57161 5.960997-4.32884 8.0625-7.96875L58.5 82.34375c.174659-.295751.272646-.63122.28125-.96875 1.712756-1.201476 3.655005-2.331908 5.53125-3.125 1.989075.840643 4.082293 2.059785 5.875 3.34375.029155.265081.116917.513115.25.75l16.125 27.9375c2.101502 3.63991 4.981519 6.39714 8.09375 7.96875 3.112231 1.57161 6.62833 1.95725 9.53125.28125 2.90287-1.67597 4.36335-4.92337 4.5625-8.40625.19915-3.48288-.77279-7.35887-2.875-11-2.10209-3.640928-4.98031-6.404388-8.09375-7.96875-3.113439-1.564362-6.631025-1.924446-9.53125-.25-.619383.357601-.608583.324109-1.0625.09375-.453917-.230359-1.306941-1.028727-2.34375-2.46875-2.073617-2.880046-4.868518-8.102437-9.03125-15.3125-.376511-.65468-1.089664-1.041475-1.84375-1-.790011.049529-1.474032.553922-1.75 1.28125L70.5 70.75c9.93299-18.402209 16.33133-35.358392 23.46875-53.96875.236396-.596707.361085-1.761076-.59375-2.3125L64.3125 60.875 35.28125 14.46875zm-.5 83.90625c.33505.023055.602965.106147.90625.28125.721235.416406 1.274848 1.37263 1.34375 2.96875.068902 1.59612-.411848 3.66326-1.5625 5.65625-1.150921 1.99346-2.709089 3.47996-4.125 4.21875-1.415911.73879-2.497565.72887-3.21875.3125-.72123-.4164-1.274847-1.34138-1.34375-2.9375-.068903-1.59612.411852-3.69452 1.5625-5.6875 1.8691-3.237377 4.880946-4.919607 6.4375-4.8125zm59.375 0c1.556552-.107107 4.568404 1.575125 6.4375 4.8125 1.15065 1.99298 1.6314 4.09138 1.5625 5.6875-.0689 1.59612-.59127 2.5211-1.3125 2.9375-.72118.41637-1.80284.42629-3.21875-.3125-1.41591-.73879-2.974078-2.22529-4.125-4.21875-1.150651-1.99299-1.662652-4.06013-1.59375-5.65625.068902-1.59612.622515-2.552344 1.34375-2.96875.303281-.1751.5712-.258195.90625-.28125z" filter="url(#m)" opacity=".5" transform="matrix(1.12792 0 0 1.12717 -8.2471649 -11.605871)"/>
  <path fill="url(#n)" fill-rule="evenodd" d="M53.65633 70.0625c.85668.050086 1.58596.641049 1.8125 1.46875l2.15625 8.0625c.12671.509335.04815 1.048066-.21875 1.5L39.218832 112.5625c-2.347816 4.06383-5.542933 7.16167-9 8.90625-3.45707 1.74458-7.34864 2.14876-10.53125.3125-3.18256-1.83623-4.77875-5.41426-5-9.28125-.22125-3.86699.87023-8.18495 3.21875-12.25 2.3484-4.064847 5.54173-7.169784 9-8.90625 3.458275-1.736466 7.351338-2.11595 10.53125-.28125.752211.433999.828237.418141 1.40625.125s1.570148-1.206147 2.75-2.84375c2.359708-3.275207 5.525698-9.158071 10.218748-17.28125.37651-.65468 1.08967-1.041475 1.84375-1zM30.906332 99.03125c-1.910083-.131349-5.35613 1.85167-7.5 5.5625-1.31974 2.28435-1.89273 4.67398-1.8125 6.53125.08023 1.85727.74835 3.00743 1.65625 3.53125.90784.52379 2.19441.51626 3.84375-.34375s3.461233-2.55894 4.78125-4.84375c1.319749-2.28436 1.892729-4.70523 1.8125-6.5625-.080229-1.85727-.717103-3.007424-1.625-3.53125-.373276-.215369-.739601-.3151-1.15625-.34375z"/>
  <path fill="url(#o)" fill-rule="evenodd" d="M55.65241 70.312928c.92267.053945 1.69893.698207 1.94292 1.589663l.07066.282606c-.37206-.424776-.85874-.707369-1.44836-.741842-.81218-.044669-1.60806.354672-2.01358 1.059775-5.05453 8.748875-8.44487 15.089227-10.986332 18.616716-1.270732 1.763741-2.344834 2.757627-2.96737 3.073348-.622535.315718-.708859.326124-1.519011-.141303-3.424845-1.97602-7.614937-1.552283-11.339595.317932-3.72466 1.870219-7.15001 5.195377-9.67928 9.573307l-.56521-1.13043c2.52927-4.377931 5.95461-7.703085 9.67928-9.573303 3.724654-1.870216 7.914746-2.293953 11.339591-.317933.810152.467427.896476.457021 1.519011.141303.622537-.315721 1.696639-1.309607 2.967371-3.073348 2.541455-3.527488 5.931805-9.867841 10.986335-18.616716.40552-.705102 1.2014-1.104444 2.01357-1.059775z" opacity=".77227723"/>
  <use xlink:href="#p" stroke-linecap="round" stroke-linejoin="round" stroke-width="3" clip-path="url(#a)" filter="url(#b)" opacity=".70297032" transform="matrix(-1 0 0 1 128.84383 0)"/>
  <path fill="url(#q)" fill-rule="evenodd" d="M75.1875 70.0625c-.856681.050086-1.585955.641049-1.8125 1.46875l-2.15625 8.0625c-.12671.509335-.048145 1.048066.21875 1.5L89.625 112.5625c2.347816 4.06383 5.542933 7.16167 9 8.90625 3.45707 1.74458 7.34864 2.14876 10.53125.3125 3.18256-1.83623 4.77875-5.41426 5-9.28125.22125-3.86699-.87023-8.18495-3.21875-12.25-2.3484-4.064847-5.54173-7.169784-9-8.90625-3.458275-1.736466-7.351338-2.11595-10.53125-.28125-.752211.433999-.828237.418141-1.40625.125s-1.570148-1.206147-2.75-2.84375c-2.359704-3.275207-5.525701-9.158071-10.21875-17.28125-.376511-.65468-1.089664-1.041475-1.84375-1zm22.75 28.96875c1.910083-.131349 5.35613 1.85167 7.5 5.5625 1.31974 2.28435 1.89273 4.67398 1.8125 6.53125-.08023 1.85727-.74835 3.00743-1.65625 3.53125-.90784.52379-2.19441.51626-3.84375-.34375s-3.461233-2.55894-4.78125-4.84375c-1.319749-2.28436-1.892729-4.70523-1.8125-6.5625.080229-1.85727.717103-3.007424 1.625-3.53125.373276-.215369.739601-.3151 1.15625-.34375z"/>
  <path fill="url(#r)" fill-rule="evenodd" d="M73.191419 70.312928c-.92267.053945-1.69893.698207-1.942921 1.589663l-.070652.282606c.372057-.424776.858736-.707369 1.44836-.741842.812173-.044669 1.608058.354672 2.013572 1.059775 5.054533 8.748875 8.444876 15.089227 10.986336 18.616716 1.270732 1.763741 2.344834 2.757627 2.96737 3.073348.622535.315718.708859.326124 1.519011-.141303 3.424845-1.97602 7.614937-1.552283 11.339595.317932 3.72466 1.870219 7.15001 5.195377 9.67928 9.573307l.56521-1.13043c-2.52927-4.377931-5.95461-7.703085-9.67928-9.573303-3.724654-1.870216-7.914746-2.293953-11.339591-.317933-.810152.467427-.896476.457021-1.519011.141303-.622537-.315721-1.696639-1.309607-2.967371-3.073348-2.541459-3.527488-5.931803-9.867841-10.986335-18.616716-.405515-.705102-1.2014-1.104444-2.013573-1.059775z" opacity=".77227723"/>
  <use xlink:href="#p" stroke-linecap="round" stroke-linejoin="round" stroke-width="3" clip-path="url(#a)" filter="url(#b)" opacity=".7029703"/>
  <path fill="url(#s)" fill-rule="evenodd" d="M97.96087 1.9111929 53.629372 72.750318l-1.149988 11.813973c1.966004-3.402947 9.303231-8.24415 14.674454-9.682406C81.238527 50.502756 89.411871 28.739567 98.680477 4.5950145c.274195-.6914621.387891-2.0448328-.719607-2.6838216z"/>
  <path fill="none" stroke="#fff" d="M97.692496 2.3849918 61.738989 59.428222"/>
  <path fill="url(#t)" fill-rule="evenodd" d="m59.75 65.65625-2.03125.5625L56.28125 68.5l4.3125 9.21875c1.825852-1.043848 3.74178-1.948185 5.5-2.53125L59.75 65.65625z"/>
  <path fill="url(#u)" fill-rule="evenodd" d="M67.1875 51.0625 59 64.15625l7.1875 11c.326317-.106504.654506-.197105.96875-.28125 2.559716-4.430602 4.913712-8.774703 7.125-13.0625l-7.09375-10.75z"/>
  <path fill="url(#v)" fill-rule="evenodd" d="M30.642611 1.9111929 74.974109 72.750318l1.149987 11.813973c-1.966003-3.402947-9.30323-8.24415-14.674452-9.682406-14.084689-24.379129-22.258035-46.142318-31.52664-70.2868705-.274196-.6914621-.387892-2.0448328.719607-2.6838216z"/>
  <path fill="none" stroke="#fff" d="M30.738989 2.3849918 64.192496 55.928222"/>
  <path fill="url(#w)" fill-rule="evenodd" d="M68 54a2 2 0 1 1-4 0 2 2 0 1 1 4 0z" opacity=".96000001" transform="matrix(1.44037 -.83106 .8316 1.43943 -75.999063 45.513227)"/>
  <use xlink:href="#x" fill-rule="evenodd" filter="url(#c)" opacity=".70792079"/>
  <use xlink:href="#x" fill-rule="evenodd" filter="url(#y)" opacity=".70792081" transform="matrix(-1 0 0 1 128.84431 0)"/>
  <path fill="url(#z)" fill-rule="evenodd" d="M33.1875 106.4375c-.299488.99755-.732301 2.02698-1.3125 3.03125-1.320017 2.28481-3.13191 3.98374-4.78125 4.84375-1.64934.86001-2.93591.86754-3.84375.34375-.9079-.52382-1.57602-1.67398-1.65625-3.53125-.381744 1.2629-.544959 2.45924-.5 3.5.08023 1.85727.74835 3.00743 1.65625 3.53125.90784.52379 2.19441.51626 3.84375-.34375s3.461233-2.55894 4.78125-4.84375c1.312576-2.27195 1.885229-4.678 1.8125-6.53125z" filter="url(#A)" opacity=".48514851" transform="matrix(1.63954 0 0 1.51881 -15.9999 -58.979717)"/>
  <path fill="url(#B)" fill-rule="evenodd" d="M33.1875 106.4375c-.299488.99755-.732301 2.02698-1.3125 3.03125-1.320017 2.28481-3.13191 3.98374-4.78125 4.84375-1.64934.86001-2.93591.86754-3.84375.34375-.9079-.52382-1.57602-1.67398-1.65625-3.53125-.381744 1.2629-.544959 2.45924-.5 3.5.08023 1.85727.74835 3.00743 1.65625 3.53125.90784.52379 2.19441.51626 3.84375-.34375s3.461233-2.55894 4.78125-4.84375c1.312576-2.27195 1.885229-4.678 1.8125-6.53125z" filter="url(#A)" opacity=".48514851" transform="matrix(-1.63954 0 0 1.51881 144.99452 -58.979717)"/>
  <path fill="none" stroke="#fff" d="m65.770092 66.282577-3.586636 4.274452" opacity=".77722772"/>
</svg>