<svg xmlns="http://www.w3.org/2000/svg" xmlns:xlink="http://www.w3.org/1999/xlink" width="48" height="48"><defs><linearGradient id="c"><stop offset="0" stop-color="#99b00b"/><stop offset="1" stop-color="#99b00b" stop-opacity="0"/></linearGradient><linearGradient id="b"><stop offset="0" stop-color="#788600"/><stop offset="1" stop-color="#788600" stop-opacity="0"/></linearGradient><linearGradient id="e"><stop offset="0" stop-color="#fff"/><stop offset="1" stop-color="#fff" stop-opacity="0"/></linearGradient><linearGradient id="d"><stop offset="0"/><stop offset="1" stop-opacity="0"/></linearGradient><linearGradient id="a"><stop offset="0" stop-color="#fff"/><stop offset="1" stop-color="#fff" stop-opacity="0"/></linearGradient><linearGradient xlink:href="#a" id="i" x1="17.061" x2="12.624" y1="11.395" y2="12.584" gradientTransform="rotate(-90 27.942 26.16) scale(1.17193)" gradientUnits="userSpaceOnUse"/><linearGradient xlink:href="#b" id="h" x1="33" x2="31.5" y1="35.75" y2="42.5" gradientUnits="userSpaceOnUse"/><linearGradient xlink:href="#c" id="g" x1="33" x2="31.5" y1="35.75" y2="42.5" gradientUnits="userSpaceOnUse"/><radialGradient xlink:href="#d" id="f" cx="24.837" cy="36.421" r="15.645" fx="24.837" fy="36.421" gradientTransform="matrix(1 0 0 .53672 0 16.873)" gradientUnits="userSpaceOnUse"/><radialGradient xlink:href="#e" id="j" cx="16.564" cy="11.132" r="19.063" fx="16.564" fy="11.132" gradientTransform="matrix(-.0129 1.6852 1.71308 .01311 -1.041 -10.116)" gradientUnits="userSpaceOnUse"/></defs><g color="#000"><path fill="url(#f)" fill-rule="evenodd" d="M40.482 36.421a15.645 8.397 0 1 1-31.29 0 15.645 8.397 0 1 1 31.29 0z" opacity=".141" overflow="visible" style="marker:none" transform="matrix(1.48974 0 0 -1.00125 -12.647 75.313)"/><path fill="url(#g)" stroke="url(#h)" d="M38.375 45.034c-40.026 1.322-33.7-32.74-12.88-32.536V3.122L42.143 17.71 25.495 33.006v-9.668c-14.063-.586-18.178 21.433 12.88 21.696z" display="block" overflow="visible" style="marker:none"/><path fill="none" stroke="url(#i)" stroke-miterlimit="10" d="M16.925 39.316c-11.723-6.08-8.188-26.229 9.583-25.766v-8.1l14.048 12.265L26.51 30.659V22.38c-14.84-.348-14.16 12.758-9.584 16.935z" display="block" opacity=".699" overflow="visible" style="marker:none"/><path fill="url(#j)" d="m26.037 4.569 10.687 10.23c-6.938 0-4.687 8.936-10.812 11.811l.062-3.666c-15.187-.063-14.312 15.5-3.25 19.75C3.636 37.812 6.287 13.38 25.912 12.88l.125-8.312z" opacity=".494" overflow="visible" style="marker:none"/></g></svg>