<svg height="48" style="" width="48" xmlns="http://www.w3.org/2000/svg" xmlns:xlink="http://www.w3.org/1999/xlink"><linearGradient id="a" gradientUnits="userSpaceOnUse" style=""><stop offset="0" style="stop-color:#fff"/><stop offset="1" style="stop-color:#fff;stop-opacity:0"/></linearGradient><linearGradient id="b" gradientTransform="matrix(0 -1.17193 -1.17193 0 46.1744 54.10111)" style="" x1="17.060806" x2="12.624337" xlink:href="#a" y1="11.39502" y2="12.583769"/><linearGradient id="c" gradientUnits="userSpaceOnUse" style="" x1="26.5" x2="26.25" y1="34.25" y2="43.571831"><stop offset="0" style="stop-color:#edd400"/><stop offset="1" style="stop-color:#edd400;stop-opacity:0"/></linearGradient><radialGradient id="d" cx="24.837126" cy="36.421127" gradientTransform="matrix(1 0 0 .53672 0 16.87306)" gradientUnits="userSpaceOnUse" r="15.644737" style=""><stop offset="0" style=""/><stop offset="1" style="stop-opacity:0"/></radialGradient><radialGradient id="e" cx="15.09403" cy="13.282721" gradientTransform="matrix(2.49603 0 0 2.30069 -25.12402 -17.82636)" r="10.16466" style="" xlink:href="#a"/><path d="m40.481863 36.421127a15.644737 8.396893 0 1 1 -31.289474 0 15.644737 8.396893 0 1 1 31.289474 0z" style="fill-rule:evenodd;opacity:.141176;fill:url(#d)" transform="matrix(-1.48974 0 0 -1.00125 60.60436 75.3126)"/><path d="m9.582441 45.034369c40.025808 1.32114 33.699964-32.740819 12.87997-32.536719v-9.37541l-16.648481 14.586579 16.648481 15.29753v-9.66838c14.06311-.58597 18.177528 21.43258-12.87997 21.6964z" style="display:block;fill:url(#c)"/><path d="m31.032281 39.315519c11.723099-6.079627 8.187792-26.22803-9.58358-25.76556v-8.099091l-14.047738 12.263721 14.047737 12.944028v-8.277638c14.83985-.34827 14.15991 12.7576 9.58358 16.93454z" style="fill:none;stroke-miterlimit:10;display:block;opacity:.698864;stroke:url(#b)"/><path d="m6.629126 17.682797 5.656854 5.391689c6.275573-.176777 3.447146-6.363961 14.672466-9.457553l-4.949747-.618719-.088389-8.662058z" style="fill-rule:evenodd;opacity:.511364;fill:url(#e)"/></svg>