<svg xmlns="http://www.w3.org/2000/svg" xmlns:xlink="http://www.w3.org/1999/xlink" width="128" height="128"><defs><radialGradient id="b" cx="102" cy="112.305" r="139.559" gradientTransform="matrix(.875 0 0 .85714 10 17.143)" gradientUnits="userSpaceOnUse"><stop offset="0" stop-color="#00537d"/><stop offset=".015" stop-color="#186389"/><stop offset=".056" stop-color="#558ca8"/><stop offset=".096" stop-color="#89afc3"/><stop offset=".136" stop-color="#b3ccd8"/><stop offset=".174" stop-color="#d4e2e9"/><stop offset=".21" stop-color="#ecf2f5"/><stop offset=".243" stop-color="#fafcfd"/><stop offset=".272" stop-color="#fff"/></radialGradient><radialGradient id="c" cx="99.081" cy="109.334" r="139.559" gradientTransform="matrix(.85638 0 0 .84156 11.191 18.14)" gradientUnits="userSpaceOnUse"><stop offset="0" stop-color="#7a7d80"/><stop offset=".126" stop-color="#c2c2c2"/><stop offset=".233" stop-color="#fafafa"/><stop offset=".272" stop-color="#fff"/><stop offset=".531" stop-color="#fafafa"/><stop offset=".845" stop-color="#ebecec"/><stop offset="1" stop-color="#e1e2e3"/></radialGradient><filter id="d"><feGaussianBlur stdDeviation="1.207"/></filter><filter id="a"><feGaussianBlur stdDeviation=".9"/></filter><linearGradient id="e" x1="96" x2="86.572" y1="104" y2="94.104" gradientTransform="matrix(.875 0 0 .85714 10 17.143)" gradientUnits="userSpaceOnUse"><stop offset="0" stop-color="#888a85"/><stop offset=".007" stop-color="#8c8e89"/><stop offset=".067" stop-color="#abaca9"/><stop offset=".135" stop-color="#c5c6c4"/><stop offset=".211" stop-color="#dbdbda"/><stop offset=".301" stop-color="#ebebeb"/><stop offset=".412" stop-color="#f7f7f6"/><stop offset=".568" stop-color="#fdfdfd"/><stop offset="1" stop-color="#fff"/></linearGradient></defs><g id="f"><path d="M23 25v96h53.525C76.99 121 107 91.602 107 91.147V25z" filter="url(#a)" opacity=".6" transform="matrix(1.04762 0 0 1.04167 9.905 -4.042)"/><path fill="url(#b)" d="M24 24v96h53.525C77.99 120 108 90.602 108 90.147V24z" transform="translate(12)"/><path fill="url(#c)" d="M26.606 25.714a.85.85 0 0 0-.856.842v90.888a.85.85 0 0 0 .856.842H77.28c.226 0 .446-.09.606-.247l28.113-27.627a.839.839 0 0 0 .251-.595V26.556a.85.85 0 0 0-.856-.842z" transform="translate(12)"/><path d="M76.525 120S88.188 111 93 106.286c4.812-4.715 14-16.139 14-16.139S99 96 83 96c0 16-6.474 24-6.474 24z" filter="url(#d)" opacity=".5" transform="translate(12)"/><path fill="url(#e)" d="M77.525 120S89.188 111 94 106.286c4.812-4.715 14-16.139 14-16.139S100 96 84 96c0 16-6.474 24-6.474 24z" transform="translate(12)"/></g><use xlink:href="#f" width="128" height="128" transform="translate(-28 -16)"/></svg>