<?xml version="1.0" encoding="UTF-8" standalone="no"?>
<svg xmlns="http://www.w3.org/2000/svg" xmlns:xlink="http://www.w3.org/1999/xlink" width="128" height="128" version="1.0">
  <defs>
    <linearGradient id="l">
      <stop offset="0" stop-color="red"/>
      <stop offset="1" stop-color="red" stop-opacity="0"/>
    </linearGradient>
    <linearGradient id="j">
      <stop offset="0" stop-color="#fff"/>
      <stop offset="1" stop-color="#fff" stop-opacity="0"/>
    </linearGradient>
    <linearGradient id="i">
      <stop offset="0" stop-color="#e16e00"/>
      <stop offset="1" stop-color="#803f00" stop-opacity="0"/>
    </linearGradient>
    <linearGradient id="h">
      <stop offset="0" stop-color="#fff"/>
      <stop offset="1" stop-color="#fff" stop-opacity="0"/>
    </linearGradient>
    <linearGradient id="e">
      <stop offset="0" stop-color="#ff7e00"/>
      <stop offset="1" stop-color="#ff7e00" stop-opacity="0"/>
    </linearGradient>
    <linearGradient id="d">
      <stop offset="0" stop-color="#fff"/>
      <stop offset="1" stop-color="#fff" stop-opacity="0"/>
    </linearGradient>
    <linearGradient id="c">
      <stop offset="0" stop-color="#fff"/>
      <stop offset="1" stop-color="#ffbebe" stop-opacity="0"/>
    </linearGradient>
    <linearGradient id="b">
      <stop offset="0" stop-color="#ffb5b5"/>
      <stop offset="1" stop-color="#ffbfbf" stop-opacity="0"/>
    </linearGradient>
    <linearGradient id="k">
      <stop offset="0" stop-color="#fff"/>
      <stop offset="1" stop-color="#fff" stop-opacity="0"/>
    </linearGradient>
    <linearGradient id="g">
      <stop offset="0" stop-color="#ff1212"/>
      <stop offset="1" stop-color="#750000"/>
    </linearGradient>
    <linearGradient id="a">
      <stop offset="0" stop-color="#8c0000"/>
      <stop offset="1" stop-color="#470000"/>
    </linearGradient>
    <linearGradient xlink:href="#a" id="p" x1="61.211941" x2="61.211941" y1="15.015407" y2="105.08932" gradientTransform="translate(-12.506884 -12.506884) scale(1.19542)" gradientUnits="userSpaceOnUse" spreadMethod="pad"/>
    <linearGradient xlink:href="#b" id="z" x1="77.450546" x2="77.450546" y1="17.868132" y2="89.444931" gradientTransform="translate(-12.506884 -12.506884) scale(1.19542)" gradientUnits="userSpaceOnUse"/>
    <linearGradient xlink:href="#c" id="A" x1="113.41915" x2="101.99058" y1="76.386581" y2="38.609497" gradientTransform="translate(-12.506884 -12.506884) scale(1.19542)" gradientUnits="userSpaceOnUse"/>
    <linearGradient xlink:href="#d" id="B" x1="77.450546" x2="77.450546" y1="17.868132" y2="67.763039" gradientTransform="translate(-12.506884 -12.506884) scale(1.19542)" gradientUnits="userSpaceOnUse"/>
    <linearGradient xlink:href="#e" id="C" x1="82.550011" x2="82.550011" y1="108.25001" y2="35.43399" gradientUnits="userSpaceOnUse"/>
    <linearGradient id="m">
      <stop offset="0" stop-color="#590000"/>
      <stop offset="1" stop-color="#590000" stop-opacity="0"/>
    </linearGradient>
    <linearGradient id="f">
      <stop offset="0" stop-color="#fff"/>
      <stop offset="1" stop-color="#dfdfdf"/>
    </linearGradient>
    <linearGradient xlink:href="#f" id="G" x1="68.9375" x2="68.9375" y1="38.90625" y2="103.40701" gradientTransform="translate(.5625 .25)" gradientUnits="userSpaceOnUse"/>
    <radialGradient xlink:href="#g" id="w" cx="64.000008" cy="73.475296" r="39.999996" fx="64" fy="77.237541" gradientTransform="matrix(2.07833 0 0 1.45965 -69.013166 -26.914)" gradientUnits="userSpaceOnUse"/>
    <radialGradient xlink:href="#h" id="v" cx="26.03125" cy="26.03125" r="5.96875" fx="26.03125" fy="26.03125" gradientTransform="matrix(4.01884 4.01884 -.7071 .7071 -60.17733768 -96.99109686)" gradientUnits="userSpaceOnUse"/>
    <radialGradient xlink:href="#i" id="u" cx="26.03125" cy="26.03125" r="5.96875" fx="26.03125" fy="26.03125" gradientTransform="matrix(4.01884 4.01884 -.7071 .7071 -60.17733768 -96.99109686)" gradientUnits="userSpaceOnUse"/>
    <radialGradient xlink:href="#i" id="t" cx="26.03125" cy="26.03125" r="5.96875" fx="26.03125" fy="26.03125" gradientTransform="matrix(4.01884 4.01884 -.7071 .7071 -60.17733768 -96.99109686)" gradientUnits="userSpaceOnUse"/>
    <radialGradient xlink:href="#h" id="r" cx="26.03125" cy="26.03125" r="5.96875" fx="26.03125" fy="26.03125" gradientTransform="matrix(4.01884 4.01884 -.7071 .7071 -60.17733768 -96.99109686)" gradientUnits="userSpaceOnUse"/>
    <radialGradient xlink:href="#j" id="o" cx="64.000008" cy="26.931658" r="43.999996" fx="64.000008" fy="26.931658" gradientTransform="matrix(1.19542 0 0 .27848 -12.506884 12.187875)" gradientUnits="userSpaceOnUse"/>
    <radialGradient xlink:href="#k" id="q" cx="64.000008" cy="21.660604" r="43.999996" fx="64.000008" fy="21.660604" gradientTransform="matrix(3.30756 0 0 .4271 -147.68366 4.135353)" gradientUnits="userSpaceOnUse"/>
    <radialGradient xlink:href="#l" id="x" cx="64.000008" cy="82.000008" r="37.816799" fx="64.000008" fy="82.000008" gradientUnits="userSpaceOnUse"/>
    <radialGradient xlink:href="#m" id="E" cx="62.78125" cy="66.175667" r="29.84375" fx="62.78125" fy="77.980095" gradientTransform="translate(-21.49693 -22.68578) scale(1.35137)" gradientUnits="userSpaceOnUse"/>
    <filter id="s" width="1.24" height="1.24" x="-.12" y="-.12">
      <feGaussianBlur stdDeviation=".596875"/>
    </filter>
    <filter id="y" width="1.2692683" height="1.2692683" x="-.13463415" y="-.13463415">
      <feGaussianBlur stdDeviation="4.2428604"/>
    </filter>
    <filter id="D">
      <feGaussianBlur stdDeviation=".40209128"/>
    </filter>
    <filter id="n">
      <feGaussianBlur stdDeviation=".52066799"/>
    </filter>
    <filter id="H">
      <feGaussianBlur stdDeviation=".576875"/>
    </filter>
    <filter id="F">
      <feGaussianBlur stdDeviation="1.23375"/>
    </filter>
  </defs>
  <rect width="95.633598" height="95.633598" x="16.183208" y="16.183208" fill="#9c0f0f" stroke="#9c0f0f" stroke-width="8.5" filter="url(#n)" opacity=".75" rx="6.0052505" ry="6.0052505"/>
  <rect width="95.633598" height="95.633598" x="16.183208" y="16.183208" fill="none" stroke="url(#o)" stroke-width="8" rx="6.0052505" ry="6.0052505"/>
  <rect width="95.633598" height="95.633598" x="16.183208" y="16.183208" fill="none" stroke="url(#p)" stroke-width="8" rx="6.0052505" ry="6.0052505"/>
  <rect width="95.633598" height="95.633598" x="16.183208" y="16.183208" fill="none" stroke="url(#q)" stroke-width="8" opacity=".72682927" rx="6.0052505" ry="6.0052505"/>
  <path fill="url(#r)" d="M28.03125 20.0625c-4.139326.473587-7.495163 3.829424-7.96875 7.96875L32 32l-3.96875-11.9375z" filter="url(#s)" opacity=".6" transform="rotate(90 76.508623 63.999137) scale(1.19542)"/>
  <path fill="url(#t)" d="M28.03125 20.0625c-4.139326.473587-7.495163 3.829424-7.96875 7.96875L32 32l-3.96875-11.9375z" filter="url(#s)" opacity=".51707315" transform="rotate(180 70.255185 70.252575) scale(1.19542)"/>
  <path fill="url(#u)" d="M28.03125 20.0625c-4.139326.473587-7.495163 3.829424-7.96875 7.96875L32 32l-3.96875-11.9375z" filter="url(#s)" opacity=".51707315" transform="rotate(-90 64.001749 76.506021) scale(1.19542)"/>
  <path fill="url(#v)" d="M28.03125 20.0625c-4.139326.473587-7.495163 3.829424-7.96875 7.96875L32 32l-3.96875-11.9375z" filter="url(#s)" opacity=".75" transform="translate(-12.506884 -12.506884) scale(1.19542)"/>
  <rect width="95.633598" height="95.633598" x="16.183207" y="16.183207" fill="url(#w)" rx="6.2454605" ry="6.2454605"/>
  <rect width="75.633598" height="75.633598" x="26.183207" y="26.183207" fill="url(#x)" filter="url(#y)" rx="25.501919" ry="25.501919" transform="matrix(1.13222 0 0 1.07933 -8.4618486 -3.0771092)"/>
  <path fill="url(#z)" d="M22.421796 16.183197c-3.459986 0-6.238599 2.778612-6.238599 6.238599v42.1012c12.542408 2.732009 26.264524 4.258683 40.644282 4.258683 20.094497 0 38.89047-2.951395 54.989321-8.069085V22.421796c0-3.459986-2.77862-6.238599-6.2386-6.238599H22.421796z"/>
  <path fill="url(#A)" d="M110.88288 19.171747c.18415.595458.2615 1.247121.2615 1.905201V59.9281c-16.33045 5.191311-35.390248 8.181154-55.773819 8.181156-13.823048 0-27.013182-1.418387-39.187364-3.922472v.336212c12.542408 2.732009 26.264524 4.258683 40.644282 4.258683 20.094497 0 38.89047-2.951395 54.989321-8.069085V22.421796c0-1.196876-.35576-2.30305-.93392-3.250049z"/>
  <path fill="url(#B)" d="M22.421796 16.183197c-3.459986 0-6.238599 2.778612-6.238599 6.238599v42.1012c.481489.104879.971982.197546 1.456918.298855v-40.79371c0-3.428383 2.696118-6.163884 6.051814-6.163884h80.616141c3.35569 0 6.05181 2.735501 6.05181 6.163884v37.132736c.48366-.148391.978-.296037 1.45692-.448283V22.421796c0-3.459986-2.77862-6.238599-6.2386-6.238599H22.421796z"/>
  <rect width="79.999992" height="79.999992" x="24.000008" y="24.000008" fill="none" stroke="url(#C)" stroke-width=".41826302" filter="url(#D)" rx="5.2244902" ry="5.2244902" transform="translate(-12.506884 -12.506884) scale(1.19542)"/>
  <path fill="none" stroke="url(#E)" stroke-linecap="round" stroke-linejoin="round" stroke-width="5" d="M46.3125 35.8125 34.5 47.59375l17.0625 17.0625L34.5 81.6875 46.3125 93.5l17.03125-17.0625L80.40625 93.5 92.1875 81.6875 75.15625 64.65625l17.03125-17.0625L80.40625 35.8125l-17.0625 17.03125L46.3125 35.8125z" filter="url(#F)"/>
  <path fill="url(#G)" d="M46.3125 35.8125 34.5 47.59375l17.0625 17.0625L34.5 81.6875 46.3125 93.5l17.03125-17.0625L80.40625 93.5 92.1875 81.6875 75.15625 64.65625l17.03125-17.0625L80.40625 35.8125l-17.0625 17.03125L46.3125 35.8125z"/>
  <path fill="none" d="M46.3125 35.8125 34.5 47.59375l17.0625 17.0625L34.5 81.6875 46.3125 93.5l17.03125-17.0625L80.40625 93.5 92.1875 81.6875 75.15625 64.65625l17.03125-17.0625L80.40625 35.8125l-17.0625 17.03125L46.3125 35.8125z"/>
  <path fill="#fff" d="M46.3125 35.8125 34.5 47.59375l17.0625 17.0625-2.96875 2.96875c5.04146.77689 10.40123 1.1875 15.96875 1.1875 4.79161 0 9.42877-.32448 13.84375-.90625l-3.25-3.25 17.03125-17.0625L80.40625 35.8125l-17.0625 17.03125L46.3125 35.8125z" filter="url(#H)"/>
</svg>