<svg xmlns="http://www.w3.org/2000/svg" xmlns:xlink="http://www.w3.org/1999/xlink" width="128" height="128" version="1.0"><defs><linearGradient id="l"><stop offset="0" stop-color="red"/><stop offset="1" stop-color="red" stop-opacity="0"/></linearGradient><linearGradient id="j"><stop offset="0" stop-color="#fff"/><stop offset="1" stop-color="#fff" stop-opacity="0"/></linearGradient><linearGradient id="i"><stop offset="0" stop-color="#e16e00"/><stop offset="1" stop-color="#803f00" stop-opacity="0"/></linearGradient><linearGradient id="h"><stop offset="0" stop-color="#fff"/><stop offset="1" stop-color="#fff" stop-opacity="0"/></linearGradient><linearGradient id="e"><stop offset="0" stop-color="#ff7e00"/><stop offset="1" stop-color="#ff7e00" stop-opacity="0"/></linearGradient><linearGradient id="d"><stop offset="0" stop-color="#fff"/><stop offset="1" stop-color="#fff" stop-opacity="0"/></linearGradient><linearGradient id="c"><stop offset="0" stop-color="#fff"/><stop offset="1" stop-color="#ffbebe" stop-opacity="0"/></linearGradient><linearGradient id="b"><stop offset="0" stop-color="#ffb5b5"/><stop offset="1" stop-color="#ffbfbf" stop-opacity="0"/></linearGradient><linearGradient id="k"><stop offset="0" stop-color="#fff"/><stop offset="1" stop-color="#fff" stop-opacity="0"/></linearGradient><linearGradient id="g"><stop offset="0" stop-color="#ff1212"/><stop offset="1" stop-color="#750000"/></linearGradient><linearGradient id="a"><stop offset="0" stop-color="#8c0000"/><stop offset="1" stop-color="#470000"/></linearGradient><linearGradient xlink:href="#a" id="p" x1="61.212" x2="61.212" y1="15.015" y2="105.089" gradientTransform="translate(-12.507 -12.507) scale(1.19542)" gradientUnits="userSpaceOnUse" spreadMethod="pad"/><linearGradient xlink:href="#b" id="z" x1="77.451" x2="77.451" y1="17.868" y2="89.445" gradientTransform="translate(-12.507 -12.507) scale(1.19542)" gradientUnits="userSpaceOnUse"/><linearGradient xlink:href="#c" id="A" x1="113.419" x2="101.991" y1="76.387" y2="38.609" gradientTransform="translate(-12.507 -12.507) scale(1.19542)" gradientUnits="userSpaceOnUse"/><linearGradient xlink:href="#d" id="B" x1="77.451" x2="77.451" y1="17.868" y2="67.763" gradientTransform="translate(-12.507 -12.507) scale(1.19542)" gradientUnits="userSpaceOnUse"/><linearGradient xlink:href="#e" id="C" x1="82.55" x2="82.55" y1="108.25" y2="35.434" gradientUnits="userSpaceOnUse"/><linearGradient id="m"><stop offset="0" stop-color="#590000"/><stop offset="1" stop-color="#590000" stop-opacity="0"/></linearGradient><linearGradient id="f"><stop offset="0" stop-color="#fff"/><stop offset="1" stop-color="#dfdfdf"/></linearGradient><linearGradient xlink:href="#f" id="G" x1="68.938" x2="68.938" y1="38.906" y2="103.407" gradientTransform="translate(.563 .25)" gradientUnits="userSpaceOnUse"/><radialGradient xlink:href="#g" id="w" cx="64" cy="73.475" r="40" fx="64" fy="77.238" gradientTransform="matrix(2.07833 0 0 1.45965 -69.013 -26.914)" gradientUnits="userSpaceOnUse"/><radialGradient xlink:href="#h" id="v" cx="26.031" cy="26.031" r="5.969" fx="26.031" fy="26.031" gradientTransform="rotate(45 86.99 -121.136) scale(5.6835 .99999)" gradientUnits="userSpaceOnUse"/><radialGradient xlink:href="#i" id="u" cx="26.031" cy="26.031" r="5.969" fx="26.031" fy="26.031" gradientTransform="rotate(45 86.99 -121.136) scale(5.6835 .99999)" gradientUnits="userSpaceOnUse"/><radialGradient xlink:href="#i" id="t" cx="26.031" cy="26.031" r="5.969" fx="26.031" fy="26.031" gradientTransform="rotate(45 86.99 -121.136) scale(5.6835 .99999)" gradientUnits="userSpaceOnUse"/><radialGradient xlink:href="#h" id="r" cx="26.031" cy="26.031" r="5.969" fx="26.031" fy="26.031" gradientTransform="rotate(45 86.99 -121.136) scale(5.6835 .99999)" gradientUnits="userSpaceOnUse"/><radialGradient xlink:href="#j" id="o" cx="64" cy="26.932" r="44" fx="64" fy="26.932" gradientTransform="matrix(1.19542 0 0 .27848 -12.507 12.188)" gradientUnits="userSpaceOnUse"/><radialGradient xlink:href="#k" id="q" cx="64" cy="21.661" r="44" fx="64" fy="21.661" gradientTransform="matrix(3.30756 0 0 .4271 -147.684 4.135)" gradientUnits="userSpaceOnUse"/><radialGradient xlink:href="#l" id="x" cx="64" cy="82" r="37.817" fx="64" fy="82" gradientUnits="userSpaceOnUse"/><radialGradient xlink:href="#m" id="E" cx="62.781" cy="66.176" r="29.844" fx="62.781" fy="77.98" gradientTransform="translate(-21.497 -22.686) scale(1.35137)" gradientUnits="userSpaceOnUse"/><filter id="s" width="1.24" height="1.24" x="-.12" y="-.12"><feGaussianBlur stdDeviation=".597"/></filter><filter id="y" width="1.269" height="1.269" x="-.135" y="-.135"><feGaussianBlur stdDeviation="4.243"/></filter><filter id="D"><feGaussianBlur stdDeviation=".402"/></filter><filter id="n"><feGaussianBlur stdDeviation=".521"/></filter><filter id="H"><feGaussianBlur stdDeviation=".577"/></filter><filter id="F"><feGaussianBlur stdDeviation="1.234"/></filter></defs><rect width="95.634" height="95.634" x="16.183" y="16.183" fill="#9c0f0f" stroke="#9c0f0f" stroke-width="8.5" filter="url(#n)" opacity=".75" rx="6.005" ry="6.005"/><rect width="95.634" height="95.634" x="16.183" y="16.183" fill="none" stroke="url(#o)" stroke-width="8" rx="6.005" ry="6.005"/><rect width="95.634" height="95.634" x="16.183" y="16.183" fill="none" stroke="url(#p)" stroke-width="8" rx="6.005" ry="6.005"/><rect width="95.634" height="95.634" x="16.183" y="16.183" fill="none" stroke="url(#q)" stroke-width="8" opacity=".727" rx="6.005" ry="6.005"/><path fill="url(#r)" d="M28.031 20.063c-4.14.473-7.495 3.829-7.968 7.968L32 32l-3.969-11.938z" filter="url(#s)" opacity=".6" transform="rotate(90 76.509 64) scale(1.19542)"/><path fill="url(#t)" d="M28.031 20.063c-4.14.473-7.495 3.829-7.968 7.968L32 32l-3.969-11.938z" filter="url(#s)" opacity=".517" transform="rotate(180 70.255 70.253) scale(1.19542)"/><path fill="url(#u)" d="M28.031 20.063c-4.14.473-7.495 3.829-7.968 7.968L32 32l-3.969-11.938z" filter="url(#s)" opacity=".517" transform="rotate(-90 64.002 76.506) scale(1.19542)"/><path fill="url(#v)" d="M28.031 20.063c-4.14.473-7.495 3.829-7.968 7.968L32 32l-3.969-11.938z" filter="url(#s)" opacity=".75" transform="translate(-12.507 -12.507) scale(1.19542)"/><rect width="95.634" height="95.634" x="16.183" y="16.183" fill="url(#w)" rx="6.245" ry="6.245"/><rect width="75.634" height="75.634" x="26.183" y="26.183" fill="url(#x)" filter="url(#y)" rx="25.502" ry="25.502" transform="matrix(1.13222 0 0 1.07933 -8.462 -3.077)"/><path fill="url(#z)" d="M22.422 16.183a6.22 6.22 0 0 0-6.239 6.239v42.101c12.543 2.732 26.265 4.259 40.644 4.259 20.095 0 38.89-2.952 54.99-8.07v-38.29a6.22 6.22 0 0 0-6.239-6.239H22.422z"/><path fill="url(#A)" d="M110.883 19.172c.184.595.261 1.247.261 1.905v38.851c-16.33 5.191-35.39 8.181-55.773 8.181-13.823 0-27.014-1.418-39.188-3.922v.336c12.543 2.732 26.265 4.259 40.644 4.259 20.095 0 38.89-2.952 54.99-8.07v-38.29a6.217 6.217 0 0 0-.934-3.25z"/><path fill="url(#B)" d="M22.422 16.183a6.22 6.22 0 0 0-6.239 6.239v42.101c.482.105.972.198 1.457.299V24.028c0-3.428 2.696-6.164 6.052-6.164h80.616c3.356 0 6.052 2.736 6.052 6.164v37.133c.484-.149.978-.296 1.457-.448V22.422a6.22 6.22 0 0 0-6.239-6.239H22.422z"/><rect width="80" height="80" x="24" y="24" fill="none" stroke="url(#C)" stroke-width=".418" filter="url(#D)" rx="5.224" ry="5.224" transform="translate(-12.507 -12.507) scale(1.19542)"/><path fill="none" stroke="url(#E)" stroke-linecap="round" stroke-linejoin="round" stroke-width="5" d="M46.313 35.813 34.5 47.593l17.063 17.063L34.5 81.687 46.313 93.5l17.03-17.063L80.407 93.5l11.781-11.813-17.03-17.03 17.03-17.063-11.78-11.782-17.063 17.032-17.032-17.032z" filter="url(#F)"/><path fill="url(#G)" d="M46.313 35.813 34.5 47.593l17.063 17.063L34.5 81.687 46.313 93.5l17.03-17.063L80.407 93.5l11.781-11.813-17.03-17.03 17.03-17.063-11.78-11.782-17.063 17.032-17.032-17.032z"/><path fill="none" d="M46.313 35.813 34.5 47.593l17.063 17.063L34.5 81.687 46.313 93.5l17.03-17.063L80.407 93.5l11.781-11.813-17.03-17.03 17.03-17.063-11.78-11.782-17.063 17.032-17.032-17.032z"/><path fill="#fff" d="M46.313 35.813 34.5 47.593l17.063 17.063-2.97 2.969c5.042.777 10.402 1.188 15.97 1.188a106.1 106.1 0 0 0 13.843-.907l-3.25-3.25 17.031-17.062-11.78-11.782-17.063 17.032-17.032-17.032z" filter="url(#H)"/></svg>