<svg xmlns="http://www.w3.org/2000/svg" xmlns:xlink="http://www.w3.org/1999/xlink" width="128" height="128"><filter id="i"><feGaussianBlur stdDeviation="2.16"/></filter><linearGradient id="a" gradientUnits="userSpaceOnUse"><stop offset="0" style="stop-color:#fff"/><stop offset="1" style="stop-color:#555753"/></linearGradient><linearGradient xlink:href="#a" id="e" x1="94.344" x2="86.536" y1="102.345" y2="94.537"/><linearGradient xlink:href="#a" id="f" x1="95" x2="86.587" y1="103" y2="94.587"/><linearGradient id="g" x1="95" x2="87.293" y1="103" y2="95.293" gradientUnits="userSpaceOnUse"><stop offset="0" style="stop-color:#fff"/><stop offset="1" style="stop-color:#393b38"/></linearGradient><linearGradient id="h" x1="96" x2="88" y1="104" y2="96" gradientUnits="userSpaceOnUse"><stop offset="0" style="stop-color:#888a85"/><stop offset=".007" style="stop-color:#8c8e89"/><stop offset=".067" style="stop-color:#abaca9"/><stop offset=".135" style="stop-color:#c5c6c4"/><stop offset=".211" style="stop-color:#dbdbda"/><stop offset=".301" style="stop-color:#ebebeb"/><stop offset=".412" style="stop-color:#f7f7f6"/><stop offset=".568" style="stop-color:#fdfdfd"/><stop offset="1" style="stop-color:#fff"/></linearGradient><radialGradient id="d" cx="102" cy="112.305" r="139.559" gradientTransform="matrix(.97872 0 0 .98182 1.362 1.164)" gradientUnits="userSpaceOnUse"><stop offset="0" style="stop-color:#535557"/><stop offset=".114" style="stop-color:#898a8c"/><stop offset=".203" style="stop-color:#ececec"/><stop offset=".236" style="stop-color:#fafafa"/><stop offset=".272" style="stop-color:#fff"/><stop offset=".531" style="stop-color:#fafafa"/><stop offset=".845" style="stop-color:#ebecec"/><stop offset="1" style="stop-color:#e1e2e3"/></radialGradient><radialGradient id="c" cx="102" cy="112.305" r="139.559" gradientUnits="userSpaceOnUse"><stop offset="0" style="stop-color:#00537d"/><stop offset=".015" style="stop-color:#186389"/><stop offset=".056" style="stop-color:#558ca8"/><stop offset=".096" style="stop-color:#89afc3"/><stop offset=".136" style="stop-color:#b3ccd8"/><stop offset=".174" style="stop-color:#d4e2e9"/><stop offset=".21" style="stop-color:#ecf2f5"/><stop offset=".243" style="stop-color:#fafcfd"/><stop offset=".272" style="stop-color:#fff"/></radialGradient><filter id="b"><feGaussianBlur stdDeviation="1.039"/></filter><clipPath id="l"><circle cx="343.999" cy="92" r="36"/></clipPath><linearGradient id="j" x1="-86.12" x2="-56.358" y1="-381.099" y2="-373.124" gradientTransform="rotate(90 -90 50.002)" gradientUnits="userSpaceOnUse"><stop offset="0" style="stop-color:#8c0000"/><stop offset="1" style="stop-color:#bf0000"/></linearGradient><radialGradient id="k" cx="345.808" cy="85.25" r="36" gradientTransform="matrix(.66629 -.65601 .98938 1.00487 31.056 226.438)" gradientUnits="userSpaceOnUse"><stop offset="0" style="stop-color:#ffbe00"/><stop offset="1" style="stop-color:#f5d600;stop-opacity:0"/></radialGradient><linearGradient id="n" x1="137.816" x2="110.538" y1="47.013" y2="20.634" gradientUnits="userSpaceOnUse"><stop offset="0" style="stop-color:#4d0000;stop-opacity:0"/><stop offset=".5" style="stop-color:#4d0000"/><stop offset="1" style="stop-color:#4d0000;stop-opacity:0"/></linearGradient><linearGradient id="m" x1="-80.003" x2="-45.097" y1="-131.931" y2="-131.931" gradientTransform="matrix(0 .73958 -.73958 0 -1.656 63.32)" gradientUnits="userSpaceOnUse"><stop offset="0" style="stop-color:#fff"/><stop offset="1" style="stop-color:#fff;stop-opacity:0"/></linearGradient><path d="m23 9 .04 112h61.132a2 2 0 0 0 1.414-.586l32.828-32.828a2 2 0 0 0 .586-1.414V9z" style="opacity:.5;filter:url(#b)" transform="matrix(1.04167 0 0 1.03571 -9.958 -3.322)"/><path d="M16 8v112h61.172a2 2 0 0 0 1.414-.586l32.828-32.828a2 2 0 0 0 .586-1.414V8z" style="fill:url(#c)"/><path d="M18.979 10c-.54 0-.979.44-.979.982v106.036c0 .542.44.982.979.982h57.913a.98.98 0 0 0 .692-.288l32.13-32.23a.988.988 0 0 0 .286-.695V10.982a.981.981 0 0 0-.979-.982z" style="fill:url(#d)"/><g><path d="M111.414 86.586C111.664 86.336 93.035 93 88 93c-1.654 0-3 1.346-3 3 0 5.035-6.664 23.664-6.414 23.414z" style="opacity:.1;fill:url(#e)"/><path d="M111.414 86.586C111.789 86.211 97.444 94 88 94c-1.103 0-2 .897-2 2 0 9.444-7.789 23.789-7.414 23.414z" style="opacity:.1;fill:url(#f)"/><path d="M111.414 86.586C111.653 86.347 97.807 95 88 95a1 1 0 0 0-1 1c0 9.807-8.653 23.653-8.414 23.414z" style="opacity:.1;fill:url(#g)"/><path d="M78.586 119.414S90.5 109.5 96 104s15.414-17.414 15.414-17.414S98.25 96 88 96c0 10.25-9.414 23.414-9.414 23.414z" style="fill:url(#h)"/></g><g transform="translate(-6)"><circle cx="343.999" cy="92" r="36" style="opacity:.5;filter:url(#i)" transform="scale(-.8887) rotate(-15 -385.262 1742.466)"/><circle cx="343.999" cy="92" r="36" style="fill:url(#j)" transform="rotate(165 204.277 43.111) scale(.88962)"/><circle cx="343.999" cy="92" r="36" style="fill:url(#k);filter:url(#j)" transform="scale(-.66722) rotate(-15 -431.657 1874.718)"/><circle cx="343.999" cy="92" r="36" style="opacity:.8;fill:none;stroke-width:6.751382;clip-path:url(#l);stroke:url(#p);filter:url(#l)" transform="scale(-.88962 .88962) rotate(-15 -94.59 1780.162)"/><path d="M95.967 4.152c-11.357 0-20.847 8.02-23.135 18.698 4.56 4.25 13.21 7.118 23.135 7.118s18.576-2.868 23.135-7.118c-2.287-10.678-11.777-18.698-23.135-18.698z" style="opacity:.8;fill:url(#m)"/><g><path d="M118 16v16h-16v8h16v16h8V40h16v-8h-16V16z" style="fill:none;stroke-width:4;stroke-linecap:round;stroke-linejoin:round;stroke:url(#n);filter:url(#m)" transform="rotate(45 113.88 2.459) scale(1.00103)"/><path d="M118 16v16h-16v8h16v16h8V40h16v-8h-16V16z" style="fill:#fff;fill-rule:evenodd" transform="rotate(45 113.88 2.459) scale(1.00103)"/></g></g></svg>