<svg height="128" style="" width="128" xmlns="http://www.w3.org/2000/svg" xmlns:xlink="http://www.w3.org/1999/xlink"><filter id="a" style=""><feGaussianBlur stdDeviation=".10453397" style=""/></filter><filter id="b" height="1.2031" style="" width="1.2933" x="-.14667" y="-.10154"><feGaussianBlur stdDeviation=".55" style=""/></filter><filter id="c" style=""><feGaussianBlur stdDeviation=".04177847" style=""/></filter><filter id="d" style=""><feGaussianBlur stdDeviation=".0231875" style=""/></filter><filter id="e" style=""><feGaussianBlur stdDeviation=".02596154" style=""/></filter><filter id="f" height="1.1858" style="" width="1.2477" x="-.12385" y="-.092885"><feGaussianBlur stdDeviation="1.2384615" style=""/></filter><filter id="g" height="1.2405" style="" width="1.138" x="-.069006" y="-.12026"><feGaussianBlur stdDeviation="1.9228365" style=""/></filter><filter id="h" style=""><feGaussianBlur stdDeviation=".11145486" style=""/></filter><filter id="i" height="1.4538" style="" width="1.0143" x="-.007141" y="-.22689"><feGaussianBlur stdDeviation=".33324519" style=""/></filter><filter id="j" height="2.2482" style="" width="1.0121" x="-.006058" y="-.6241"><feGaussianBlur stdDeviation=".18955201" style=""/></filter><filter id="k" style=""><feGaussianBlur stdDeviation=".66759571" style=""/></filter><filter id="l" height="2.593" style="" width="1.142" x="-.070976" y="-.7965"><feGaussianBlur stdDeviation="2.9868914" style=""/></filter><filter id="m" height="1.3748" style="" width="1.0467" x="-.023358" y="-.18741"><feGaussianBlur stdDeviation="1.0149838" style=""/></filter><linearGradient id="n" gradientUnits="userSpaceOnUse" style=""><stop offset="0" style="stop-color:#fff"/><stop offset="1" style="stop-color:#fff;stop-opacity:0"/></linearGradient><linearGradient id="o" gradientUnits="userSpaceOnUse" style=""><stop offset="0" style=""/><stop offset="1" style="stop-opacity:0"/></linearGradient><linearGradient id="p" style="" x1="16" x2="16" xlink:href="#o" y1="1.5953" y2="18.755"/><linearGradient id="q" gradientUnits="userSpaceOnUse" style="" x1="13.7319734" x2="13.7319734" y1="17.1283343" y2="19.8686394"><stop offset="0" style="stop-color:#fff"/><stop offset="1" style=""/></linearGradient><linearGradient id="r" gradientTransform="matrix(1 0 0 1.0104 0 -1.31)" gradientUnits="userSpaceOnUse" style="" x1="64" x2="56" y1="120.07" y2="96.316"><stop offset="0" style="stop-color:#8a8a8a"/><stop offset="1" style="stop-color:#c6c6c6"/></linearGradient><linearGradient id="s" style="" x1="89.605" x2="114.175" xlink:href="#n" y1="42.336" y2="106.8"/><linearGradient id="t" style="" x1="68" x2="36" xlink:href="#o" y1="120" y2="84"/><linearGradient id="u" style="" x1="47.609" x2="47.609" xlink:href="#o" y1="104.35" y2="176.35"/><linearGradient id="v" style="" x1="116.46" x2="116.46" xlink:href="#n" y1="-25.663" y2="135.15"/><linearGradient id="w" style="" x1="69.913" x2="70.02" xlink:href="#n" y1="34.91" y2="63.567"/><linearGradient id="x" gradientTransform="matrix(2.56 0 0 2.5827 317.2 -4887.4)" gradientUnits="userSpaceOnUse" style="" x1="-97.743" x2="-97.743" y1="1938" y2="1895.4"><stop offset="0" style="stop-color:#2e2a2b"/><stop offset=".33498" style="stop-color:#4c494a"/><stop offset=".66749" style="stop-color:#5b595a"/><stop offset="1" style="stop-color:#6b696a"/></linearGradient><radialGradient id="y" cx="118.17" cy="9.1196" gradientTransform="matrix(1.2088 .95832 -1.4021 1.7686 -11.996 -120.41)" r="1.2844" style="" xlink:href="#n"/><radialGradient id="z" cx="118.17" cy="9.1196" gradientTransform="matrix(1.2088 .95832 -1.4021 1.7686 -11.096 -120.71)" r="1.2844" style="" xlink:href="#n"/><radialGradient id="A" cx="16" cy="18" gradientTransform="matrix(1 0 0 1.5 0 -9)" gradientUnits="userSpaceOnUse" r="4" style=""><stop offset="0" style="stop-color:#7a7a7a"/><stop offset="1" style="stop-opacity:.49091"/></radialGradient><radialGradient id="B" cx="16.03529" cy="19.49471" fy="18.5388668" gradientUnits="userSpaceOnUse" r="2.378545" style=""><stop offset="0" style="stop-color:#868385"/><stop offset="1" style="stop-color:#4a4949"/></radialGradient><radialGradient id="C" cx="104.09" cy="9" gradientTransform="matrix(1 0 0 .8 -80.464 1.9105)" r=".46875" style="" xlink:href="#n"/><radialGradient id="D" cx="104.09" cy="9" gradientTransform="matrix(1 0 0 .8 -.5 1.91)" r=".46875" style="" xlink:href="#n"/><radialGradient id="E" cx="84" cy="91.983" gradientTransform="matrix(1 0 0 .62103 0 37.877)" r="32" style="" xlink:href="#n"/><radialGradient id="F" cx="64.802" cy="63.781" gradientTransform="matrix(1.1398 0 0 .0107 -9.08 63.1)" gradientUnits="userSpaceOnUse" r="34.041" style=""><stop offset="0" style="stop-color:#fff"/><stop offset=".5" style="stop-color:#fff;stop-opacity:.69818"/><stop offset="1" style="stop-color:#fff;stop-opacity:0"/></radialGradient><radialGradient id="G" cx="100.31" cy="42.449" gradientTransform="matrix(4.5705 0 0 1.8569 -416.62 -84.72)" gradientUnits="userSpaceOnUse" r="38" style=""><stop offset="0" style="stop-color:#d0ced9"/><stop offset=".25" style="stop-color:#ecf1f9"/><stop offset=".5" style="stop-color:#fff"/><stop offset="1" style="stop-color:#c6d5e3"/></radialGradient><radialGradient id="H" cx="28.481" cy="164.13" gradientTransform="matrix(5.4916 -.11504 .00261 .1246 -128.37 104.83)" r="52.145" style="" xlink:href="#o"/><clipPath id="I" style=""><rect height="12" rx="1.0793" style="" width="8" x="12" y="12"/></clipPath><clipPath id="J" style=""><rect height="12" rx="1.0793" style="" width="8" x="12" y="12"/></clipPath><clipPath id="K" style=""><path d="m18.19 132.42c-1.4192 0-2.5625 1.1433-2.5625 2.5625v37.183h72v-37.183c0-1.4192-1.1433-2.5625-2.5625-2.5625z" style=""/></clipPath><clipPath id="L" style=""><path d="m11.375-167.68c-2.9534 0-3.375.36407-3.375 3.3438v.78125c0-2.9797.42155-3.3125 3.375-3.3125h105.25c2.9534 0 3.375.33282 3.375 3.3125v-.78125c0-2.9797-.42155-3.3438-3.375-3.3438z" style=""/></clipPath><clipPath id="M" style=""><rect height="55.396" rx="1.1339" style="" width="78.124" x="24.681" y="-68.245"/></clipPath><path d="m16 121h14v-1h58.2v1h27.8v-4l-103.29-6.9977z" style="fill-rule:evenodd;fill:url(#H);filter:url(#m)"/><path d="m16 121h14v-1h60v1h29v-4l-106.29-.99772z" style="fill-rule:evenodd;stroke:#000;filter:url(#l)"/><path d="m11.3 8c-1.8088 0-3.3611 1.6254-3.3601 3.3268v98.932l10.64 10.654h97.999c2.9535 0 3.3598-.34717 3.3598-3.3266v-106.26c0-1.813-1.558-3.3268-3.3598-3.3268z" style="fill:url(#x)"/><path d="m11.4 8.6c-2.0564.10719-3.375.70528-3.375 3.3125v.59375c0-2.9797 1.4216-3.3125 4.375-3.3125h103.25c2.9535 0 4.375.33282 4.375 3.3125v-.59375c0-2.9797-1.4215-3.3125-4.375-3.3125h-103.25c-.3691 0-.7062-.0153-1 0z" style="fill:#fff;fill-opacity:.46903;filter:url(#h)"/><path d="m104.3 8.63c-.1011 0-.1884.0369-.2812.0625-.1043.0288-.1916.0687-.2813.125-.085.0537-.1503.1133-.2187.1875-.029.031-.069.0597-.094.0937-.034.0406-.065.0806-.094.125-.093.16901-.1563.35712-.1563.5625v51.375h.4063v-51.375c0-.21142.089-.39008.1875-.5625h11.906c2.9535 0 4.375.33282 4.375 3.3125v-.59375c0-2.6072-1.3157-3.1768-3.375-3.2812h-12.125c.054-.008.1004-.0312.1563-.0312zm-93.219.0312c-1.6252.15371-2.962.77436-3 2.875.121-2.0599 1.7595-2.3125 4.3437-2.3125h12c.1066.1773.1563.37327.1563.59375v51.375h.4062v-51.375c0-.22048-.05-.41645-.1562-.59375-.045-.0753-.096-.15599-.1563-.21875-.094-.10558-.2187-.19086-.3437-.25-.1164-.055-.2345-.0937-.375-.0937h-.5zm-3 2.875c0 .13474-.031.25892-.031.40625v.59375c0-.37246.014-.70573.031-1z" style="opacity:.26953;fill:url(#w);filter:url(#h)"/><path d="m115.4 8.6c2.9534 0 3.775.33282 3.775 3.3125v103.28c0 2.9794-2.8216 5.3125-5.775 5.3125h.7187c2.9535 0 5.3438-2.3331 5.3438-5.3125v-103.28c0-2.9797-.3903-3.3125-3.3438-3.3125z" style="fill:url(#v)"/><path d="m16.781 130.44c-1.483 0-2.6562 1.2046-2.6562 2.6875v42.031c0 1.483 1.1733 2.6562 2.6562 2.6562h.15625c-.40777-.44637-.6875-1.0318-.6875-1.6875v-39.969c0-1.3913 1.112-2.5312 2.5-2.5312h65.594c1.388 0 2.5 1.1399 2.5 2.5312v39.969c.000002.65574-.24848 1.2411-.65625 1.6875h.125c1.483 0 2.6875-1.1733 2.6875-2.6562v-42.031c0-1.483-1.2045-2.6875-2.6875-2.6875z" style="fill:url(#u);clip-path:url(#K);filter:url(#g)" transform="translate(16.4 -52.35)"/><path d="m34.5 80.009c-1.4192 0-2.5625 1.1433-2.5625 2.5625l.025 37.146h72l-.025-37.146c0-1.4192-1.1433-2.5625-2.5625-2.5625z" style="fill-opacity:.12832"/><path d="m34.6 80.072c-1.4193 0-2.5625 1.1433-2.5625 2.5625v37.183l71.981-.11658v-37.183c0-1.4192-1.1433-2.5625-2.5625-2.5625z" style="opacity:.074219;fill:url(#E)"/><path d="m52.938 84c-.51955 0-.9375.41795-.9375.9375v23.062h-11.062c-.51955 0-.9375.41795-.9375.9375v6.125c0 .51955.41795.9375.9375.9375h22.125c.51955 0 .9375-.41795.9375-.9375v-30.125c0-.51955-.41795-.9375-.9375-.9375z" style="fill:url(#t);filter:url(#f)" transform="matrix(1 0 0 1.0104 0 -1.31)"/><path d="m112.08 97.375v6.7188h-2.25l4.3438 7.5312 4.3438-7.5312h-2.25v-6.7188h-2.0938z" style="fill-rule:evenodd;stroke:#fff;stroke-width:.1;opacity:.45312;fill:url(#s);filter:url(#d)" transform="matrix(.98758 0 0 1 .7 .2)"/><path d="m34.5 80.323c-1.1772 0-2.125.95756-2.125 2.147l.1768 38.067h55.406v-38.21c0-1.1894-.8227-2.0038-2-2.0038zm6.3955 8.0323h14.125c.5196 0 .9375.42228.9375.94721v21.598c0 .52493-.4179.94721-.9375.94721h-14.125c-.5195 0-.9375-.42228-.9375-.94721v-21.598c0-.52493.418-.94721.9375-.94721z" style="fill:url(#r)"/><path d="m34.7 80.383c-1.1772 0-2.125.95756-2.125 2.147v.18944c0-1.1894.9478-2.147 2.125-2.147h51.156c1.0301 0 1.8962.75643 2.0937 1.7365-.1089-1.0847-.9904-1.926-2.0937-1.926zm5.2813 30.721v.18946c0 .52492.4179.94719.9375.94719h14.125c.5195 0 .9375-.42227.9375-.94719v-.18946c0 .52493-.418.9472-.9375.9472h-14.125c-.5196 0-.9375-.42227-.9375-.9472z" style="fill:#fff"/><path d="m34.7 80.281c-1.1772 0-2.125 1.3635-2.125 2.5529v.18944c0-1.1894.9478-1.547 2.125-1.547h51.156c1.0301 0 1.6962.15643 1.8937 1.1365-.1089-1.0847-.7904-2.2304-1.8937-2.2304zm5.2813 31.127v.18944c0 .52493.4179.94721.9375.94721h14.125c.5195 0 .9375-.42228.9375-.94721v-.18944c0 .52493-.418.9472-.9375.9472h-14.125c-.5196 0-.9375-.42227-.9375-.9472z" style="fill:#fff"/><path d="m24.694-69.481v56.656h78.1v-56.656z" style="fill:none;stroke:#000;stroke-dashoffset:1.0878;stroke-linecap:round;stroke-linejoin:round;stroke-width:.7;clip-path:url(#M);filter:url(#k)" transform="translate(.3 76.485)"/><rect height="54" rx="1.2345" style="fill:url(#G)" width="76" x="26" y="8"/><rect height="53.922" rx=".92457" style="fill:#cfdce7;opacity:.61328" width="3.8491" x="26.1" y="8"/><rect height="53.467" rx=".89724" ry=".92457" style="fill:#cfdce7;opacity:.54688" width="3.7945" x="98" y="8.5"/><path d="m26 63.418h75.092v.72893h-75.092z" style="fill:url(#F);filter:url(#j)"/><path d="m12.375-168.28c-2.9534 0-4.375.36407-4.375 3.3438v.78125c0-2.9797 1.4216-3.3125 4.375-3.3125h103.25c2.9534 0 4.375.33282 4.375 3.3125v-.78125c0-2.9797-1.4216-3.3438-4.375-3.3438z" style="fill-opacity:.35841;clip-path:url(#L);filter:url(#i)" transform="translate(0 176.85)"/><path d="m32 16.124v3.9536h64v-3.9536zm0 16.106v3.8904h64v-3.8904zm0 15.974v4h64v-4z" style="fill:#b2c6d9;fill-rule:evenodd;opacity:.56522"/><path d="m101.4 8v53.806c.183-.10161.2943-.251.4062-.4v-53.406zm-75.3 0 .014 53.301c.103.19989.2524.33804.4062.47033l-.014-53.771z" style="fill:#fff"/><path d="m103.9 8.74-.75.6875.9375.0625z" style="fill-rule:evenodd;fill:url(#D);filter:url(#e)"/><path d="m23.911 8.7355-.75.6875.9375.0625z" style="fill-rule:evenodd;fill:url(#C);filter:url(#e)" transform="matrix(-1 0 0 1 48 0)"/><g style="stroke-dashoffset:4.15;stroke-linecap:round;stroke-linejoin:round"><rect height="12" rx="1.0793" style="fill:none;stroke:#000;opacity:.78516;clip-path:url(#I);filter:url(#b)" transform="matrix(.75565 0 0 .76613 3.1456 2.6444)" width="8" x="12" y="12"/><rect height="12" rx="1.0793" style="opacity:.78516;fill:url(#A);stroke:url(#p);clip-path:url(#J);filter:url(#b)" transform="matrix(.75565 0 0 .76613 3.1456 2.6444)" width="8" x="12" y="12"/><rect height="3.6759" rx=".45227" style="stroke-width:.33189;opacity:.78516;fill:url(#B);stroke:url(#q);filter:url(#c)" transform="matrix(1.0885 0 0 1.1036 -2.18 -3.43)" width="4.3502" x="13.897" y="18.031"/></g><path d="m11.4 8c-2.0564.10719-3.375 1.7053-3.375 4.3125v.59375c0-2.9797 1.4216-4.3125 4.375-4.3125 36.521-.57384 76.291-.27228 104.25 0 1.896 0 3.375 1.1283 3.375 3.3125v-.59375c0-1.5434-1.5485-3.3125-3.375-3.3125h-104.25c-.3691 0-.7062-.0153-1 0z" style="fill:#343434;fill-opacity:.8284"/><g style="fill-rule:evenodd"><path d="m118.02 8.3885.11049 1.1049 1.4584.0000001c-.0988-.4722-.19843-1.1811-1.5689-1.1049z" style="fill:url(#z);filter:url(#a)" transform="matrix(-1.3891 0 0 1.3891 175.7 -2.24)"/><path d="m117.12 8.6885.11049 1.1049h1.4584c-.0988-.4722-.19843-1.1811-1.5689-1.1049z" style="opacity:.86141;fill:url(#y);filter:url(#a)" transform="matrix(1.2828 0 0 1.2828 -33.45 -2.36)"/></g></svg>