<svg xmlns="http://www.w3.org/2000/svg" xmlns:xlink="http://www.w3.org/1999/xlink" width="128" height="128"><defs><radialGradient xlink:href="#b" id="aa" cx="118.17" cy="9.12" r="1.284" gradientTransform="matrix(1.2088 .95832 -1.4021 1.7686 -11.996 -120.41)" gradientUnits="userSpaceOnUse"/><radialGradient xlink:href="#b" id="Z" cx="118.17" cy="9.12" r="1.284" gradientTransform="matrix(1.2088 .95832 -1.4021 1.7686 -11.096 -120.71)" gradientUnits="userSpaceOnUse"/><radialGradient id="W" cx="16" cy="18" r="4" gradientTransform="matrix(1 0 0 1.5 0 -9)" gradientUnits="userSpaceOnUse"><stop offset="0" stop-color="#7a7a7a"/><stop offset="1" stop-opacity=".491"/></radialGradient><radialGradient id="Y" cx="14" cy="19.7" r="2.15" fy="18.836" gradientTransform="translate(.547 -2.3) scale(1.1063)" gradientUnits="userSpaceOnUse"><stop offset="0" stop-color="#868385"/><stop offset="1" stop-color="#4a4949"/></radialGradient><radialGradient xlink:href="#b" id="T" cx="104.09" cy="9" r=".469" gradientTransform="matrix(1 0 0 .8 -80.464 1.91)" gradientUnits="userSpaceOnUse"/><radialGradient xlink:href="#b" id="S" cx="104.09" cy="9" r=".469" gradientTransform="matrix(1 0 0 .8 -6.5 5.91)" gradientUnits="userSpaceOnUse"/><radialGradient xlink:href="#b" id="I" cx="84" cy="91.983" r="32" gradientTransform="matrix(1 0 0 .62103 -6 41.877)" gradientUnits="userSpaceOnUse"/><radialGradient id="P" cx="64.802" cy="63.781" r="34.041" gradientTransform="matrix(1.1398 0 0 .0107 -15.08 67.1)" gradientUnits="userSpaceOnUse"><stop offset="0" stop-color="#fff"/><stop offset=".5" stop-color="#fff" stop-opacity=".698"/><stop offset="1" stop-color="#fff" stop-opacity="0"/></radialGradient><radialGradient id="O" cx="100.31" cy="42.449" r="38" gradientTransform="matrix(4.5705 0 0 1.8569 -422.62 -80.72)" gradientUnits="userSpaceOnUse"><stop offset="0" stop-color="#d0ced9"/><stop offset=".25" stop-color="#ecf1f9"/><stop offset=".5" stop-color="#fff"/><stop offset="1" stop-color="#c6d5e3"/></radialGradient><radialGradient xlink:href="#a" id="D" cx="28.481" cy="164.13" r="52.145" gradientTransform="matrix(5.4916 -.11504 .00261 .1246 -134.37 108.83)" gradientUnits="userSpaceOnUse"/><radialGradient xlink:href="#a" id="e" cx="28.481" cy="164.13" r="52.145" gradientTransform="matrix(5.4916 -.11504 .00261 .1246 -128.37 104.83)" gradientUnits="userSpaceOnUse"/><radialGradient xlink:href="#b" id="j" cx="84" cy="91.983" r="32" gradientTransform="matrix(1 0 0 .62103 0 37.877)" gradientUnits="userSpaceOnUse"/><radialGradient id="p" cx="100.31" cy="42.449" r="38" gradientTransform="matrix(4.5705 0 0 1.8569 -416.62 -84.72)" gradientUnits="userSpaceOnUse"><stop offset="0" stop-color="#d0ced9"/><stop offset=".25" stop-color="#ecf1f9"/><stop offset=".5" stop-color="#fff"/><stop offset="1" stop-color="#c6d5e3"/></radialGradient><radialGradient id="q" cx="64.802" cy="63.781" r="34.041" gradientTransform="matrix(1.1398 0 0 .0107 -9.08 63.1)" gradientUnits="userSpaceOnUse"><stop offset="0" stop-color="#fff"/><stop offset=".5" stop-color="#fff" stop-opacity=".698"/><stop offset="1" stop-color="#fff" stop-opacity="0"/></radialGradient><radialGradient xlink:href="#b" id="t" cx="104.09" cy="9" r=".469" gradientTransform="matrix(1 0 0 .8 -.5 1.91)" gradientUnits="userSpaceOnUse"/><radialGradient xlink:href="#b" id="u" cx="104.09" cy="9" r=".469" gradientTransform="matrix(1 0 0 .8 -80.464 1.91)" gradientUnits="userSpaceOnUse"/><radialGradient id="y" cx="16" cy="18" r="4" gradientTransform="matrix(1 0 0 1.5 0 -9)" gradientUnits="userSpaceOnUse"><stop offset="0" stop-color="#7a7a7a"/><stop offset="1" stop-opacity=".491"/></radialGradient><radialGradient id="z" cx="14" cy="19.7" r="2.15" fy="18.836" gradientTransform="translate(.547 -2.3) scale(1.1063)" gradientUnits="userSpaceOnUse"><stop offset="0" stop-color="#868385"/><stop offset="1" stop-color="#4a4949"/></radialGradient><radialGradient xlink:href="#b" id="A" cx="118.17" cy="9.12" r="1.284" gradientTransform="matrix(1.2088 .95832 -1.4021 1.7686 -11.096 -120.71)" gradientUnits="userSpaceOnUse"/><radialGradient xlink:href="#b" id="B" cx="118.17" cy="9.12" r="1.284" gradientTransform="matrix(1.2088 .95832 -1.4021 1.7686 -11.996 -120.41)" gradientUnits="userSpaceOnUse"/><linearGradient id="b"><stop offset="0" stop-color="#fff"/><stop offset="1" stop-color="#fff" stop-opacity="0"/></linearGradient><linearGradient id="a"><stop offset="0"/><stop offset="1" stop-opacity="0"/></linearGradient><linearGradient id="d" x1="64" x2="56" y1="120.07" y2="96.316" gradientTransform="matrix(1 0 0 1.0104 0 -1.31)" gradientUnits="userSpaceOnUse"><stop offset="0" stop-color="#8a8a8a"/><stop offset="1" stop-color="#c6c6c6"/></linearGradient><linearGradient xlink:href="#b" id="K" x1="-37.195" x2="-12.625" y1="42.336" y2="106.8" gradientTransform="translate(126.8)" gradientUnits="userSpaceOnUse"/><linearGradient xlink:href="#a" id="J" x1="68" x2="36" y1="120" y2="84" gradientUnits="userSpaceOnUse"/><linearGradient xlink:href="#a" id="G" x1="47.609" x2="47.609" y1="104.35" y2="176.35" gradientUnits="userSpaceOnUse"/><linearGradient xlink:href="#b" id="F" x1="107.06" x2="107.06" y1="-26.263" y2="134.55" gradientTransform="translate(3.4 4.6)" gradientUnits="userSpaceOnUse"/><linearGradient id="c" x1="-97.743" x2="-97.743" y1="1938" y2="1895.4" gradientTransform="matrix(2.56 0 0 2.5827 317.2 -4887.4)" gradientUnits="userSpaceOnUse"><stop offset="0" stop-color="#2e2a2b"/><stop offset=".335" stop-color="#4c494a"/><stop offset=".667" stop-color="#5b595a"/><stop offset="1" stop-color="#6b696a"/></linearGradient><linearGradient xlink:href="#a" id="i" x1="47.609" x2="47.609" y1="104.35" y2="176.35" gradientUnits="userSpaceOnUse"/><linearGradient xlink:href="#a" id="k" x1="68" x2="36" y1="120" y2="84" gradientUnits="userSpaceOnUse"/><linearGradient xlink:href="#b" id="l" x1="-37.195" x2="-12.625" y1="42.336" y2="106.8" gradientTransform="translate(126.8)" gradientUnits="userSpaceOnUse"/><linearGradient xlink:href="#c" id="f" x1="-97.743" x2="-97.743" y1="1938" y2="1895.4" gradientTransform="matrix(2.56 0 0 2.5827 317.2 -4887.4)" gradientUnits="userSpaceOnUse"/><linearGradient xlink:href="#b" id="g" x1="107.06" x2="107.06" y1="-26.263" y2="134.55" gradientTransform="translate(9.4 .6)" gradientUnits="userSpaceOnUse"/><linearGradient xlink:href="#d" id="m" x1="64" x2="56" y1="120.07" y2="96.316" gradientTransform="matrix(1 0 0 1.0104 0 -1.31)" gradientUnits="userSpaceOnUse"/><linearGradient xlink:href="#c" id="E" x1="-97.743" x2="-97.743" y1="1938" y2="1895.4" gradientTransform="matrix(2.56 0 0 2.5827 311.2 -4883.4)" gradientUnits="userSpaceOnUse"/><linearGradient xlink:href="#d" id="L" x1="64" x2="56" y1="120.07" y2="96.316" gradientTransform="matrix(1 0 0 1.0104 -6 2.69)" gradientUnits="userSpaceOnUse"/><clipPath id="V"><rect width="8" height="12" x="12" y="12" opacity=".184" rx="1.079" ry="1.079"/></clipPath><clipPath id="X"><rect width="8" height="12" x="12" y="12" opacity=".184" rx="1.079" ry="1.079"/></clipPath><clipPath id="H"><path fill-opacity=".128" d="M18.19 132.42a2.557 2.557 0 0 0-2.563 2.563v37.182h72v-37.183a2.557 2.557 0 0 0-2.562-2.562z"/></clipPath><clipPath id="R"><path fill="url(#linearGradient3219)" d="M11.375-167.68c-2.953 0-3.375.364-3.375 3.344v.781c0-2.98.422-3.312 3.375-3.312h105.25c2.953 0 3.375.332 3.375 3.312v-.781c0-2.98-.422-3.344-3.375-3.344z"/></clipPath><clipPath id="N"><rect width="78.124" height="55.396" x="24.681" y="-68.245" fill="none" stroke="#000" stroke-dashoffset="4.15" stroke-linecap="round" stroke-linejoin="round" stroke-width=".4" opacity=".266" rx="1.134" ry="1.134"/></clipPath><clipPath id="h"><path d="M18.19 132.42a2.557 2.557 0 0 0-2.563 2.563v37.182h72v-37.183a2.557 2.557 0 0 0-2.562-2.562z" style="fill-opacity:.12832001"/></clipPath><clipPath id="n"><rect width="78.124" height="55.396" x="24.681" y="-68.245" rx="1.134" ry="1.134" style="opacity:.26562003;fill:none;stroke:#000;stroke-width:.40000001;stroke-linecap:round;stroke-linejoin:round;stroke-dashoffset:4.1500001"/></clipPath><clipPath id="r"><path d="M11.375-167.68c-2.953 0-3.375.364-3.375 3.344v.781c0-2.98.422-3.312 3.375-3.312h105.25c2.953 0 3.375.332 3.375 3.312v-.781c0-2.98-.422-3.344-3.375-3.344z" style="fill:url(#linearGradient3219)"/></clipPath><clipPath id="v"><rect width="8" height="12" x="12" y="12" rx="1.079" ry="1.079" style="opacity:.18358998"/></clipPath><clipPath id="x"><rect width="8" height="12" x="12" y="12" rx="1.079" ry="1.079" style="opacity:.18358998"/></clipPath><filter id="U" width="1.293" height="1.203" x="-.147" y="-.102"><feGaussianBlur stdDeviation=".55"/></filter><filter id="Q" width="1.014" height="1.454" x="-.007" y="-.227"><feGaussianBlur stdDeviation=".333"/></filter><filter id="M"><feGaussianBlur stdDeviation=".668"/></filter><filter id="C" width="1.142" height="2.593" x="-.071" y="-.796"><feGaussianBlur stdDeviation="2.987"/></filter><filter id="o"><feGaussianBlur stdDeviation=".668"/></filter><filter id="s" width="1.014" height="1.454" x="-.007" y="-.227"><feGaussianBlur stdDeviation=".333"/></filter><filter id="w" width="1.293" height="1.203" x="-.147" y="-.102"><feGaussianBlur stdDeviation=".55"/></filter></defs><g transform="translate(4.604 -6.618)"><path d="M16 121h14v-1h58.2v1H116v-4l-103.29-6.998Z" style="fill:url(#e);fill-rule:evenodd;filter:url(#d-5)"/><path d="M11.3 8c-1.809 0-3.361 1.625-3.36 3.327v98.932l10.64 10.654h97.999c2.953 0 3.36-.347 3.36-3.327V11.326c0-1.813-1.558-3.327-3.36-3.327z" style="fill:url(#f)"/><path d="M115.4 8.6c2.953 0 3.775.333 3.775 3.313v103.28c0 2.979-2.822 5.312-5.775 5.312h.719c2.953 0 5.344-2.333 5.344-5.313V11.912c0-2.98-.39-3.312-3.344-3.312z" style="fill:url(#g)"/><path d="M16.781 130.44c-1.483 0-2.656 1.205-2.656 2.688v42.03a2.636 2.636 0 0 0 2.656 2.657h.156c-.408-.447-.687-1.032-.687-1.688v-39.969c0-1.391 1.112-2.531 2.5-2.531h65.594c1.388 0 2.5 1.14 2.5 2.531v39.97c0 .655-.249 1.24-.656 1.687h.124c1.484 0 2.688-1.174 2.688-2.656v-42.031a2.69 2.69 0 0 0-2.688-2.688z" clip-path="url(#h)" style="fill:url(#i);filter:url(#l-3)" transform="translate(16.4 -52.35)"/><path d="M34.5 80.009a2.557 2.557 0 0 0-2.563 2.563l.025 37.145h72l-.024-37.145a2.557 2.557 0 0 0-2.563-2.563z" style="fill-opacity:.12832001"/><path d="M34.6 80.072a2.557 2.557 0 0 0-2.563 2.563v37.182l71.981-.116V82.518a2.557 2.557 0 0 0-2.562-2.563z" style="opacity:.07421899;fill:url(#j)"/><path d="M52.938 84a.935.935 0 0 0-.938.938v23.061H40.94a.935.935 0 0 0-.938.938v6.125c0 .52.418.938.938.938h22.125c.52 0 .937-.418.937-.938V84.937a.935.935 0 0 0-.938-.938z" style="fill:url(#k);filter:url(#o-2)" transform="matrix(1 0 0 1.0104 0 -1.31)"/><path d="M112.08 97.375v6.719h-2.25l4.344 7.531 4.344-7.531h-2.25v-6.719h-2.094z" style="opacity:.45312003;fill:url(#l);fill-rule:evenodd;stroke:#fff;stroke-width:.1;filter:url(#q-8)" transform="matrix(.98758 0 0 1 .7 .2)"/><path d="M34.5 80.323a2.131 2.131 0 0 0-2.125 2.147l.177 38.067h55.406v-38.21c0-1.19-.823-2.004-2-2.004zm6.396 8.032H55.02a.94.94 0 0 1 .938.948V110.9a.94.94 0 0 1-.938.947H40.895a.94.94 0 0 1-.937-.947V89.303a.94.94 0 0 1 .938-.948z" style="fill:url(#m)"/><path d="M34.7 80.383a2.131 2.131 0 0 0-2.125 2.147v.19c0-1.19.948-2.148 2.125-2.148h51.156c1.03 0 1.896.757 2.094 1.737-.11-1.085-.99-1.926-2.094-1.926zm5.281 30.721v.19a.94.94 0 0 0 .938.947h14.125a.94.94 0 0 0 .937-.948v-.189a.94.94 0 0 1-.937.947H40.919a.94.94 0 0 1-.938-.947z" style="fill:#fff"/><path d="M34.7 80.281c-1.177 0-2.125 1.363-2.125 2.553v.19c0-1.19.948-1.548 2.125-1.548h51.156c1.03 0 1.696.157 1.894 1.137-.11-1.085-.79-2.23-1.894-2.23zm5.281 31.127v.19a.94.94 0 0 0 .938.947h14.125a.94.94 0 0 0 .937-.948v-.189a.94.94 0 0 1-.937.947H40.919a.94.94 0 0 1-.938-.947z" style="fill:#fff"/><path d="M24.694-69.481v56.656h78.1v-56.656z" clip-path="url(#n)" style="fill:none;stroke:#000;stroke-width:.69999999;stroke-linecap:round;stroke-linejoin:round;stroke-dashoffset:1.08780003;filter:url(#o)" transform="translate(.3 76.485)"/><rect width="76" height="54" x="26" y="8" rx="1.235" ry="1.235" style="fill:url(#p)"/><rect width="3.849" height="53.922" x="26.1" y="8" rx=".925" ry=".925" style="opacity:.61327999;fill:#cfdce7"/><rect width="3.795" height="53.467" x="98" y="8.5" rx=".897" ry=".925" style="opacity:.54688003;fill:#cfdce7"/><path d="M26 63.418h75.092v.729H26Z" style="fill:url(#q);filter:url(#w-1)"/><path d="M12.375-168.28c-2.953 0-4.375.364-4.375 3.344v.781c0-2.98 1.422-3.312 4.375-3.312h103.25c2.953 0 4.375.332 4.375 3.312v-.781c0-2.98-1.422-3.344-4.375-3.344z" clip-path="url(#r)" style="fill-opacity:.35840999;filter:url(#s)" transform="translate(0 176.85)"/><path d="M32 16.124v3.954h64v-3.954Zm0 16.106v3.89h64v-3.89Zm0 15.974v4h64v-4z" style="opacity:.56522001;fill:#b2c6d9;fill-rule:evenodd"/><path d="M101.4 8v53.806c.183-.102.294-.251.406-.4V8ZM26.1 8l.014 53.301c.103.2.252.338.406.47l-.014-53.77z" style="fill:#fff"/><path d="m103.9 8.74-.75.688.938.062z" style="fill:url(#t);fill-rule:evenodd;filter:url(#A-7)"/><path d="m23.911 8.736-.75.687.938.063z" style="fill:url(#u);fill-rule:evenodd;filter:url(#A-7)" transform="matrix(-1 0 0 1 48 0)"/><g style="stroke-linecap:round;stroke-linejoin:round;stroke-dashoffset:4.1500001"><rect width="8" height="12" x="12" y="12" clip-path="url(#v)" rx="1.079" ry="1.079" style="opacity:.78516002;fill:none;stroke:#000;filter:url(#w)" transform="matrix(.75565 0 0 .76613 3.146 2.644)"/><rect width="8" height="12" x="12" y="12" clip-path="url(#x)" rx="1.079" ry="1.079" style="opacity:.78516002;fill:url(#y);stroke:url(#F-3);filter:url(#D-3)" transform="matrix(.75565 0 0 .76613 3.146 2.644)"/><rect width="4.35" height="3.676" x="13.897" y="18.031" rx=".452" ry=".452" style="opacity:.78516002;fill:url(#z);stroke:url(#I-5);stroke-width:.33188999;filter:url(#J-6)" transform="matrix(1.0885 0 0 1.1036 -2.18 -3.43)"/></g><path d="M11.4 8c-2.056.107-3.375 1.705-3.375 4.313v.593c0-2.98 1.422-4.312 4.375-4.312 36.521-.574 76.291-.273 104.25 0 1.896 0 3.375 1.128 3.375 3.312v-.594c0-1.543-1.549-3.312-3.375-3.312H12.4c-.37 0-.706-.015-1 0z" style="fill:#343434;fill-opacity:.82840002"/><path d="m118.02 8.389.11 1.104h1.459c-.099-.472-.199-1.18-1.569-1.104z" style="fill:url(#A);fill-rule:evenodd;filter:url(#L-9)" transform="matrix(-1.3891 0 0 1.3891 175.7 -2.24)"/><path d="m117.12 8.688.11 1.105h1.459c-.099-.472-.199-1.18-1.569-1.104z" style="opacity:.86141004;fill:url(#B);fill-rule:evenodd;filter:url(#L-9)" transform="translate(-33.45 -2.36) scale(1.2828)"/></g><path fill-rule="evenodd" stroke="#000" d="M16 121h14v-1h60v1h29v-4l-106.29-.998z" filter="url(#C)"/><path d="M10 125h14v-1h58.2v1H110v-4L6.71 114.002Z" style="fill:url(#D);fill-rule:evenodd;filter:url(#d)"/><path d="M5.3 12c-1.809 0-3.361 1.625-3.36 3.327v98.932l10.64 10.654h97.999c2.953 0 3.36-.347 3.36-3.327V15.326c0-1.813-1.558-3.327-3.36-3.327z" style="fill:url(#E)"/><path d="M109.4 12.6c2.953 0 3.775.333 3.775 3.313v103.28c0 2.979-2.822 5.312-5.775 5.312h.719c2.953 0 5.344-2.333 5.344-5.313V15.912c0-2.98-.39-3.312-3.344-3.312z" style="fill:url(#F)"/><path d="M16.781 130.44c-1.483 0-2.656 1.205-2.656 2.688v42.03a2.636 2.636 0 0 0 2.656 2.657h.156c-.408-.447-.687-1.032-.687-1.688v-39.969c0-1.391 1.112-2.531 2.5-2.531h65.594c1.388 0 2.5 1.14 2.5 2.531v39.97c0 .655-.249 1.24-.656 1.687h.124c1.484 0 2.688-1.174 2.688-2.656v-42.031a2.69 2.69 0 0 0-2.688-2.688z" clip-path="url(#H)" style="fill:url(#G);filter:url(#l)" transform="translate(10.4 -48.35)"/><path d="M28.5 84.009a2.557 2.557 0 0 0-2.563 2.563l.025 37.145h72l-.024-37.145a2.557 2.557 0 0 0-2.563-2.563z" style="fill-opacity:.12832001"/><path d="M28.6 84.072a2.557 2.557 0 0 0-2.563 2.563v37.182l71.981-.116V86.518a2.557 2.557 0 0 0-2.562-2.563z" style="opacity:.07421899;fill:url(#I)"/><path d="M52.938 84a.935.935 0 0 0-.938.938v23.061H40.94a.935.935 0 0 0-.938.938v6.125c0 .52.418.938.938.938h22.125c.52 0 .937-.418.937-.938V84.937a.935.935 0 0 0-.938-.938z" style="fill:url(#J);filter:url(#o)" transform="matrix(1 0 0 1.0104 -6 2.69)"/><path d="M112.08 97.375v6.719h-2.25l4.344 7.531 4.344-7.531h-2.25v-6.719h-2.094z" style="opacity:.45312003;fill:url(#K);fill-rule:evenodd;stroke:#fff;stroke-width:.1;filter:url(#q)" transform="matrix(.98758 0 0 1 -5.3 4.2)"/><path d="M28.5 84.323a2.131 2.131 0 0 0-2.125 2.147l.177 38.067h55.406v-38.21c0-1.19-.823-2.004-2-2.004zm6.396 8.032H49.02a.94.94 0 0 1 .938.948V114.9a.94.94 0 0 1-.938.947H34.895a.94.94 0 0 1-.937-.947V93.303a.94.94 0 0 1 .938-.948z" style="fill:url(#L)"/><path d="M28.7 84.383a2.131 2.131 0 0 0-2.125 2.147v.19c0-1.19.948-2.148 2.125-2.148h51.156c1.03 0 1.896.757 2.094 1.737-.11-1.085-.99-1.926-2.094-1.926zm5.281 30.721v.19a.94.94 0 0 0 .938.947h14.125a.94.94 0 0 0 .937-.948v-.189a.94.94 0 0 1-.937.947H34.919a.94.94 0 0 1-.938-.947z" style="fill:#fff"/><path d="M28.7 84.281c-1.177 0-2.125 1.363-2.125 2.553v.19c0-1.19.948-1.548 2.125-1.548h51.156c1.03 0 1.696.157 1.894 1.137-.11-1.085-.79-2.23-1.894-2.23zm5.281 31.127v.19a.94.94 0 0 0 .938.947h14.125a.94.94 0 0 0 .937-.948v-.189a.94.94 0 0 1-.937.947H34.919a.94.94 0 0 1-.938-.947z" style="fill:#fff"/><path d="M24.694-69.481v56.656h78.1v-56.656z" clip-path="url(#N)" style="fill:none;stroke:#000;stroke-width:.69999999;stroke-linecap:round;stroke-linejoin:round;stroke-dashoffset:1.08780003;filter:url(#M)" transform="translate(-5.7 80.485)"/><rect width="76" height="54" x="20" y="12" rx="1.235" ry="1.235" style="fill:url(#O)"/><rect width="3.849" height="53.922" x="20.1" y="12" rx=".925" ry=".925" style="opacity:.61327999;fill:#cfdce7"/><rect width="3.795" height="53.467" x="92" y="12.5" rx=".897" ry=".925" style="opacity:.54688003;fill:#cfdce7"/><path d="M20 67.418h75.092v.729H20Z" style="fill:url(#P);filter:url(#w)"/><path d="M12.375-168.28c-2.953 0-4.375.364-4.375 3.344v.781c0-2.98 1.422-3.312 4.375-3.312h103.25c2.953 0 4.375.332 4.375 3.312v-.781c0-2.98-1.422-3.344-4.375-3.344z" clip-path="url(#R)" style="fill-opacity:.35840999;filter:url(#Q)" transform="translate(-6 180.85)"/><path d="M26 20.124v3.954h64v-3.954Zm0 16.106v3.89h64v-3.89Zm0 15.974v4h64v-4z" style="opacity:.56522001;fill:#b2c6d9;fill-rule:evenodd"/><path d="M95.4 12v53.806c.183-.102.294-.251.406-.4V12Zm-75.3 0 .014 53.301c.103.2.252.338.406.47l-.014-53.77z" style="fill:#fff"/><path d="m97.9 12.74-.75.688.938.062z" style="fill:url(#S);fill-rule:evenodd;filter:url(#A)"/><path d="m23.911 8.736-.75.687.938.063z" style="fill:url(#T);fill-rule:evenodd;filter:url(#A)" transform="matrix(-1 0 0 1 42 4)"/><g style="stroke-linecap:round;stroke-linejoin:round;stroke-dashoffset:4.1500001" transform="translate(-6 4)"><rect width="8" height="12" x="12" y="12" clip-path="url(#V)" rx="1.079" ry="1.079" style="opacity:.78516002;fill:none;stroke:#000;filter:url(#U)" transform="matrix(.75565 0 0 .76613 3.146 2.644)"/><rect width="8" height="12" x="12" y="12" clip-path="url(#X)" rx="1.079" ry="1.079" style="opacity:.78516002;fill:url(#W);stroke:url(#F);filter:url(#D)" transform="matrix(.75565 0 0 .76613 3.146 2.644)"/><rect width="4.35" height="3.676" x="13.897" y="18.031" rx=".452" ry=".452" style="opacity:.78516002;fill:url(#Y);stroke:url(#I);stroke-width:.33188999;filter:url(#J)" transform="matrix(1.0885 0 0 1.1036 -2.18 -3.43)"/></g><path d="M5.4 12c-2.056.107-3.375 1.705-3.375 4.313v.593c0-2.98 1.422-4.312 4.375-4.312 36.521-.574 76.291-.273 104.25 0 1.896 0 3.375 1.128 3.375 3.312v-.594c0-1.543-1.549-3.312-3.375-3.312H6.4c-.37 0-.706-.015-1 0z" style="fill:#343434;fill-opacity:.82840002"/><path d="m118.02 8.389.11 1.104h1.459c-.099-.472-.199-1.18-1.569-1.104z" style="fill:url(#Z);fill-rule:evenodd;filter:url(#L)" transform="matrix(-1.3891 0 0 1.3891 169.7 1.76)"/><path d="m117.12 8.688.11 1.105h1.459c-.099-.472-.199-1.18-1.569-1.104z" style="opacity:.86141004;fill:url(#aa);fill-rule:evenodd;filter:url(#L)" transform="translate(-39.45 1.64) scale(1.2828)"/></svg>