<svg xmlns="http://www.w3.org/2000/svg" xmlns:xlink="http://www.w3.org/1999/xlink" width="128" height="128"><filter id="aa" width="1.32" height="1.452" x="-.16" y="-.226"><feGaussianBlur stdDeviation=".105"/></filter><filter id="S" width="1.455" height="1.303" x="-.228" y="-.152"><feGaussianBlur stdDeviation=".55"/></filter><filter id="Y" width="1.122" height="1.145" x="-.061" y="-.072"><feGaussianBlur stdDeviation=".042"/></filter><filter id="A" width="1.033" height="1.018" x="-.016" y="-.007"><feGaussianBlur stdDeviation=".023"/></filter><filter id="P" width="1.133" height="1.166" x="-.066" y="-.083"><feGaussianBlur stdDeviation=".026"/></filter><filter id="y" width="1.248" height="1.186" x="-.124" y="-.093"><feGaussianBlur stdDeviation="1.238"/></filter><filter id="q" width="1.123" height="1.195" x="-.062" y="-.097"><feGaussianBlur stdDeviation="1.923"/></filter><filter id="g" width="1.005" height="1.137" x="-.002" y="-.068"><feGaussianBlur stdDeviation=".111"/></filter><filter id="N" width="1.014" height="1.388" x="-.007" y="-.194"><feGaussianBlur stdDeviation=".333"/></filter><filter id="J" width="1.012" height="2.248" x="-.006" y="-.624"><feGaussianBlur stdDeviation=".19"/></filter><filter id="D" width="1.05" height="1.069" x="-.025" y="-.034"><feGaussianBlur stdDeviation=".668"/></filter><filter id="e" width="1.148" height="4.071" x="-.076" y="-1.536"><feGaussianBlur stdDeviation="2.987"/></filter><filter id="d" width="1.047" height="1.443" x="-.024" y="-.221"><feGaussianBlur stdDeviation="1.015"/></filter><linearGradient id="b" gradientUnits="userSpaceOnUse"><stop offset="0" style="stop-color:#fff"/><stop offset="1" style="stop-color:#fff;stop-opacity:0"/></linearGradient><linearGradient id="a" gradientUnits="userSpaceOnUse"><stop offset="0"/><stop offset="1" style="stop-opacity:0"/></linearGradient><linearGradient xlink:href="#a" id="U" x1="16" x2="16" y1="1.595" y2="18.755"/><linearGradient id="X" x1="13.732" x2="13.732" y1="17.128" y2="19.869" gradientUnits="userSpaceOnUse"><stop offset="0" style="stop-color:#fff"/><stop offset="1"/></linearGradient><linearGradient id="B" x1="64" x2="56" y1="120.07" y2="96.316" gradientTransform="matrix(1 0 0 1.0104 0 -1.31)" gradientUnits="userSpaceOnUse"><stop offset="0" style="stop-color:#8a8a8a"/><stop offset="1" style="stop-color:#c6c6c6"/></linearGradient><linearGradient xlink:href="#b" id="z" x1="89.605" x2="114.175" y1="42.336" y2="106.8"/><linearGradient xlink:href="#a" id="s" x1="68" x2="36" y1="120" y2="84"/><linearGradient xlink:href="#a" id="k" x1="47.609" x2="47.609" y1="104.35" y2="176.35"/><linearGradient xlink:href="#b" id="j" x1="116.46" x2="116.46" y1="-25.663" y2="135.15"/><linearGradient xlink:href="#b" id="i" x1="69.913" x2="70.02" y1="34.91" y2="63.567"/><linearGradient id="f" x1="-97.743" x2="-97.743" y1="1938" y2="1895.4" gradientTransform="matrix(2.56 0 0 2.5827 317.2 -4887.4)" gradientUnits="userSpaceOnUse"><stop offset="0" style="stop-color:#2e2a2b"/><stop offset=".335" style="stop-color:#4c494a"/><stop offset=".667" style="stop-color:#5b595a"/><stop offset="1" style="stop-color:#6b696a"/></linearGradient><radialGradient xlink:href="#b" id="ab" cx="118.17" cy="9.12" r="1.284" gradientTransform="matrix(1.2088 .95832 -1.4021 1.7686 -11.996 -120.41)"/><radialGradient xlink:href="#b" id="Z" cx="118.17" cy="9.12" r="1.284" gradientTransform="matrix(1.2088 .95832 -1.4021 1.7686 -11.096 -120.71)"/><radialGradient id="T" cx="16" cy="18" r="4" gradientTransform="matrix(1 0 0 1.5 0 -9)" gradientUnits="userSpaceOnUse"><stop offset="0" style="stop-color:#7a7a7a"/><stop offset="1" style="stop-opacity:.49091"/></radialGradient><radialGradient id="W" cx="16.035" cy="19.495" r="2.379" fy="18.539" gradientUnits="userSpaceOnUse"><stop offset="0" style="stop-color:#868385"/><stop offset="1" style="stop-color:#4a4949"/></radialGradient><radialGradient xlink:href="#b" id="Q" cx="104.09" cy="9" r=".469" gradientTransform="matrix(1 0 0 .8 -80.464 1.91)"/><radialGradient xlink:href="#b" id="O" cx="104.09" cy="9" r=".469" gradientTransform="matrix(1 0 0 .8 -.5 1.91)"/><radialGradient xlink:href="#b" id="r" cx="84" cy="91.983" r="32" gradientTransform="matrix(1 0 0 .62103 0 37.877)"/><radialGradient id="I" cx="64.802" cy="63.781" r="34.041" gradientTransform="matrix(1.1398 0 0 .0107 -9.08 63.1)" gradientUnits="userSpaceOnUse"><stop offset="0" style="stop-color:#fff"/><stop offset=".5" style="stop-color:#fff;stop-opacity:.69818"/><stop offset="1" style="stop-color:#fff;stop-opacity:0"/></radialGradient><radialGradient id="F" cx="100.31" cy="42.449" r="38" gradientTransform="matrix(4.5705 0 0 1.8569 -416.62 -84.72)" gradientUnits="userSpaceOnUse"><stop offset="0" style="stop-color:#d0ced9"/><stop offset=".25" style="stop-color:#ecf1f9"/><stop offset=".5" style="stop-color:#fff"/><stop offset="1" style="stop-color:#c6d5e3"/></radialGradient><radialGradient xlink:href="#a" id="c" cx="28.481" cy="164.13" r="52.145" gradientTransform="matrix(5.4916 -.11504 .00261 .1246 -128.37 104.83)"/><clipPath id="R"><rect width="8" height="12" x="12" y="12" rx="1.079"/></clipPath><clipPath id="V"><rect width="8" height="12" x="12" y="12" rx="1.079"/></clipPath><clipPath id="p"><path d="M18.19 132.42a2.557 2.557 0 0 0-2.562 2.563v37.182h72v-37.183a2.557 2.557 0 0 0-2.563-2.562z"/></clipPath><clipPath id="L"><path d="M11.375-167.68c-2.953 0-3.375.364-3.375 3.344v.781c0-2.98.422-3.312 3.375-3.312h105.25c2.953 0 3.375.332 3.375 3.312v-.781c0-2.98-.422-3.344-3.375-3.344z"/></clipPath><clipPath id="C"><rect width="78.124" height="55.396" x="24.681" y="-68.245" rx="1.134"/></clipPath><path d="M16 121h14v-1h58.2v1H116v-4l-103.29-6.998z" style="fill-rule:evenodd;fill:url(#c);filter:url(#d)"/><path d="M16 121h14v-1h60v1h29v-4l-106.29-.998z" style="fill-rule:evenodd;stroke:#000;filter:url(#e)"/><path d="M11.3 8c-1.809 0-3.361 1.625-3.36 3.327v98.932l10.64 10.654h97.999c2.953 0 3.36-.347 3.36-3.327V11.326c0-1.813-1.558-3.327-3.36-3.327z" style="fill:url(#f)"/><path d="M11.4 8.6c-2.056.107-3.375.705-3.375 3.313v.593c0-2.98 1.422-3.312 4.375-3.312h103.25c2.954 0 4.375.333 4.375 3.312v-.594c0-2.98-1.421-3.312-4.375-3.312H12.4c-.37 0-.706-.015-1 0" style="fill:#fff;fill-opacity:.46903;filter:url(#g)"/><path d="M104.3 8.63c-.101 0-.188.037-.281.063a1.02 1.02 0 0 0-.5.312c-.03.031-.07.06-.094.094a1 1 0 0 0-.094.125 1.16 1.16 0 0 0-.156.562v51.375h.406V9.786c0-.211.089-.39.187-.562h11.906c2.954 0 4.375.333 4.375 3.312v-.594c0-2.607-1.315-3.176-3.375-3.28H104.55c.054-.009.1-.032.157-.032zm-93.219.031c-1.625.154-2.962.775-3 2.875.121-2.06 1.76-2.312 4.344-2.312h12q.157.264.156.593v51.375h.406V9.817q.002-.329-.156-.593a1.09 1.09 0 0 0-.5-.469.85.85 0 0 0-.375-.094h-.5zm-3 2.875c0 .135-.031.26-.031.406v.594c0-.372.014-.706.031-1" style="opacity:.26953;fill:url(#i);filter:url(#g)"/><path d="M115.4 8.6c2.953 0 3.775.333 3.775 3.313v103.28c0 2.979-2.822 5.312-5.775 5.312h.719c2.953 0 5.344-2.333 5.344-5.312V11.912c0-2.98-.39-3.313-3.344-3.313z" style="fill:url(#j)"/><path d="M16.781 130.44c-1.483 0-2.656 1.205-2.656 2.688v42.03a2.636 2.636 0 0 0 2.656 2.657h.156c-.408-.447-.687-1.032-.687-1.688v-39.969c0-1.391 1.112-2.531 2.5-2.531h65.594c1.388 0 2.5 1.14 2.5 2.531v39.97c0 .655-.249 1.24-.656 1.687h.124c1.484 0 2.688-1.174 2.688-2.656v-42.031a2.69 2.69 0 0 0-2.687-2.688z" clip-path="url(#p)" style="fill:url(#k);clip-path:url(#p);filter:url(#q)" transform="translate(16.4 -52.35)"/><path d="M34.5 80.009a2.557 2.557 0 0 0-2.562 2.563l.025 37.146h72l-.025-37.146a2.557 2.557 0 0 0-2.563-2.563z" style="fill-opacity:.12832"/><path d="M34.6 80.072a2.557 2.557 0 0 0-2.562 2.563v37.183l71.98-.117V82.518a2.557 2.557 0 0 0-2.562-2.563z" style="opacity:.074219;fill:url(#r)"/><path d="M52.938 84a.935.935 0 0 0-.937.938V108H40.939a.935.935 0 0 0-.938.937v6.125c0 .52.418.938.938.938h22.125c.52 0 .937-.418.937-.938V84.937a.935.935 0 0 0-.937-.937z" style="fill:url(#s);filter:url(#y)" transform="matrix(1 0 0 1.0104 0 -1.31)"/><path d="M112.08 97.375v6.719h-2.25l4.344 7.531 4.344-7.531h-2.25v-6.719h-2.094z" style="fill-rule:evenodd;stroke:#fff;stroke-width:.1;opacity:.45312;fill:url(#z);filter:url(#A)" transform="matrix(.98758 0 0 1 .7 .2)"/><path d="M34.5 80.323a2.13 2.13 0 0 0-2.125 2.147l.177 38.067h55.406v-38.21c0-1.19-.823-2.004-2-2.004zm6.396 8.032H55.02a.94.94 0 0 1 .938.948V110.9a.94.94 0 0 1-.937.947H40.895a.94.94 0 0 1-.937-.947V89.303a.94.94 0 0 1 .938-.948" style="fill:url(#B)"/><path d="M34.7 80.383a2.13 2.13 0 0 0-2.125 2.147v.19c0-1.19.948-2.148 2.125-2.148h51.156c1.03 0 1.896.757 2.094 1.737-.11-1.085-.99-1.926-2.094-1.926zm5.281 30.721v.19a.94.94 0 0 0 .938.947h14.125a.94.94 0 0 0 .937-.948v-.189a.94.94 0 0 1-.937.947H40.919a.94.94 0 0 1-.938-.947" style="fill:#fff"/><path d="M34.7 80.281c-1.177 0-2.125 1.364-2.125 2.553v.19c0-1.19.948-1.548 2.125-1.548h51.156c1.03 0 1.696.157 1.894 1.137-.11-1.085-.79-2.23-1.894-2.23zm5.281 31.127v.19a.94.94 0 0 0 .938.947h14.125a.94.94 0 0 0 .937-.948v-.189a.94.94 0 0 1-.937.947H40.919a.94.94 0 0 1-.938-.947" style="fill:#fff"/><path d="M24.694-69.481v56.656h78.1v-56.656z" clip-path="url(#C)" style="fill:none;stroke:#000;stroke-dashoffset:1.0878;stroke-linecap:round;stroke-linejoin:round;stroke-width:.7;clip-path:url(#C);filter:url(#D)" transform="translate(.3 76.485)"/><rect width="76" height="54" x="26" y="8" rx="1.234" style="fill:url(#F)"/><rect width="3.849" height="53.922" x="26.1" y="8" rx=".925" style="fill:#cfdce7;opacity:.61328"/><rect width="3.795" height="53.467" x="98" y="8.5" rx=".897" ry=".925" style="fill:#cfdce7;opacity:.54688"/><path d="M26 63.418h75.092v.729H26z" style="fill:url(#I);filter:url(#J)"/><path d="M12.375-168.28c-2.953 0-4.375.364-4.375 3.344v.781c0-2.98 1.422-3.312 4.375-3.312h103.25c2.953 0 4.375.332 4.375 3.312v-.781c0-2.98-1.422-3.344-4.375-3.344z" clip-path="url(#L)" style="fill-opacity:.35841;clip-path:url(#L);filter:url(#N)" transform="translate(0 176.85)"/><path d="M32 16.124v3.954h64v-3.954zm0 16.106v3.89h64v-3.89zm0 15.974v4h64v-4z" style="fill:#b2c6d9;fill-rule:evenodd;opacity:.56522"/><path d="M101.4 8v53.806c.183-.102.294-.251.406-.4V8zM26.1 8l.014 53.301c.103.2.252.338.406.47l-.014-53.77z" style="fill:#fff"/><path d="m103.9 8.74-.75.688.938.062z" style="fill-rule:evenodd;fill:url(#O);filter:url(#P)"/><path d="m23.911 8.736-.75.687.938.063z" style="fill-rule:evenodd;fill:url(#Q);filter:url(#P)" transform="matrix(-1 0 0 1 48 0)"/><g style="stroke-dashoffset:4.15;stroke-linecap:round;stroke-linejoin:round"><rect width="8" height="12" x="12" y="12" clip-path="url(#R)" rx="1.079" style="fill:none;stroke:#000;opacity:.78516;clip-path:url(#R);filter:url(#S)" transform="matrix(.75565 0 0 .76613 3.146 2.644)"/><rect width="8" height="12" x="12" y="12" clip-path="url(#V)" rx="1.079" style="opacity:.78516;fill:url(#T);stroke:url(#U);clip-path:url(#V);filter:url(#S)" transform="matrix(.75565 0 0 .76613 3.146 2.644)"/><rect width="4.35" height="3.676" x="13.897" y="18.031" rx=".452" style="stroke-width:.33189;opacity:.78516;fill:url(#W);stroke:url(#X);filter:url(#Y)" transform="matrix(1.0885 0 0 1.1036 -2.18 -3.43)"/></g><path d="M11.4 8c-2.056.107-3.375 1.705-3.375 4.313v.593c0-2.98 1.422-4.312 4.375-4.312 36.521-.574 76.291-.273 104.25 0 1.896 0 3.375 1.128 3.375 3.312v-.594c0-1.543-1.548-3.312-3.375-3.312H12.4c-.37 0-.706-.015-1 0" style="fill:#343434;fill-opacity:.8284"/><g style="fill-rule:evenodd"><path d="m118.02 8.389.11 1.104h1.459c-.099-.472-.199-1.18-1.569-1.104" style="fill:url(#Z);filter:url(#aa)" transform="matrix(-1.3891 0 0 1.3891 175.7 -2.24)"/><path d="m117.12 8.689.11 1.104h1.459c-.099-.472-.199-1.18-1.569-1.104" style="opacity:.86141;fill:url(#ab);filter:url(#aa)" transform="translate(-33.45 -2.36)scale(1.2828)"/></g></svg>