<svg xmlns="http://www.w3.org/2000/svg" xmlns:xlink="http://www.w3.org/1999/xlink" width="128" height="128"><defs><linearGradient id="g" x1="59.967" x2="59.967" y1="71.982" y2="57.983" gradientUnits="userSpaceOnUse"><stop offset="0" stop-color="#323232"/><stop offset=".444" stop-color="#555"/><stop offset=".592" stop-color="#555"/><stop offset=".781" stop-color="#555"/><stop offset=".817" stop-color="#585858"/><stop offset=".843" stop-color="#616161"/><stop offset=".866" stop-color="#717171"/><stop offset=".887" stop-color="#878787"/><stop offset=".888" stop-color="#888"/><stop offset=".959" stop-color="#eee"/></linearGradient><linearGradient id="m" x1="60.001" x2="60.001" y1="99.867" y2="55.868" gradientUnits="userSpaceOnUse"><stop offset="0" stop-color="#888"/><stop offset=".071" stop-color="#bbb"/><stop offset=".284" stop-color="#ddd"/><stop offset=".592" stop-color="#fff"/><stop offset=".947" stop-color="#eee"/><stop offset="1" stop-color="#fff"/></linearGradient><linearGradient id="o" x1="59.966" x2="59.966" y1="78.837" y2="59.265" gradientTransform="rotate(180 59.966 56.536)" gradientUnits="userSpaceOnUse"><stop offset="0" stop-color="#323232"/><stop offset=".444" stop-color="#555"/><stop offset=".592" stop-color="#555"/><stop offset=".781" stop-color="#555"/><stop offset=".817" stop-color="#585858"/><stop offset=".843" stop-color="#616161"/><stop offset=".866" stop-color="#717171"/><stop offset=".887" stop-color="#878787"/><stop offset=".888" stop-color="#888"/><stop offset="1" stop-color="#bbb"/></linearGradient><linearGradient id="a"><stop offset=".006" stop-color="#555"/><stop offset=".118" stop-color="#888"/><stop offset=".222" stop-color="#8c8c8c"/><stop offset=".334" stop-color="#999"/><stop offset=".449" stop-color="#afafaf"/><stop offset=".5" stop-color="#bbb"/><stop offset=".561" stop-color="#a7a7a7"/><stop offset=".688" stop-color="#848484"/><stop offset=".807" stop-color="#6a6a6a"/><stop offset=".915" stop-color="#5a5a5a"/><stop offset="1" stop-color="#555"/></linearGradient><linearGradient xlink:href="#a" id="p" x1="23.584" x2="23.584" y1="71.982" y2="40.12" gradientUnits="userSpaceOnUse"/><linearGradient xlink:href="#a" id="q" x1="96.416" x2="96.416" y1="71.982" y2="40.12" gradientUnits="userSpaceOnUse"/><linearGradient id="u" x1="64" x2="64" y1="79.508" y2="84.76" gradientUnits="userSpaceOnUse"><stop offset="0" stop-color="#888"/><stop offset=".022" stop-color="#919191"/><stop offset=".102" stop-color="#adadad"/><stop offset=".189" stop-color="#c2c2c2"/><stop offset=".285" stop-color="#d1d1d1"/><stop offset=".397" stop-color="#dadada"/><stop offset=".562" stop-color="#ddd"/></linearGradient><linearGradient id="b"><stop offset="0" stop-color="#555"/><stop offset="1" stop-color="#bbb"/></linearGradient><linearGradient xlink:href="#b" id="v" x1="23.331" x2="23.331" y1="97.541" y2="83.012" gradientUnits="userSpaceOnUse"/><linearGradient xlink:href="#b" id="w" x1="104.67" x2="104.67" y1="97.541" y2="83.012" gradientUnits="userSpaceOnUse"/><linearGradient id="x" x1="64.001" x2="64.001" y1="97.541" y2="81.609" gradientUnits="userSpaceOnUse"><stop offset="0" stop-color="#323232"/><stop offset=".245" stop-color="#292929"/><stop offset=".532" stop-color="#0f0f0f"/><stop offset="1"/></linearGradient><linearGradient id="y" x1="23.033" x2="104.968" y1="83.185" y2="83.185" gradientUnits="userSpaceOnUse"><stop offset="0" stop-color="#fff"/><stop offset=".192" stop-color="#f6f6f6"/><stop offset=".5" stop-color="#ddd"/><stop offset="1" stop-color="#fff"/></linearGradient><linearGradient id="B" x1="59.999" x2="59.999" y1="24.489" y2="72.637" gradientUnits="userSpaceOnUse"><stop offset=".035" stop-color="#888"/><stop offset=".5" stop-color="#323232"/></linearGradient><linearGradient id="c"><stop offset="0" stop-color="#888"/><stop offset=".105" stop-color="#828282"/><stop offset="1" stop-color="#555"/></linearGradient><linearGradient id="d"><stop offset="0" stop-color="#fff"/><stop offset=".104" stop-color="#fdfdfd"/><stop offset=".163" stop-color="#f6f6f4"/><stop offset=".195" stop-color="#eeeeec"/><stop offset=".329" stop-color="#ececea"/><stop offset=".405" stop-color="#e3e3e3"/><stop offset=".438" stop-color="#ddd"/><stop offset=".864" stop-color="#888"/></linearGradient><linearGradient id="e"><stop offset="0" stop-color="#eeeeec"/><stop offset=".241" stop-color="#ececea"/><stop offset=".379" stop-color="#e3e3e3"/><stop offset=".438" stop-color="#ddd"/><stop offset="1" stop-color="#888"/></linearGradient><linearGradient xlink:href="#e" id="G" x1="114.946" x2="114.946" y1="86.936" y2="81.394" gradientUnits="userSpaceOnUse"/><linearGradient xlink:href="#e" id="D" x1="114.772" x2="114.772" y1="93.939" y2="88.397" gradientUnits="userSpaceOnUse"/><linearGradient id="z" x1="64.001" x2="64.001" y1="51.732" y2="9.014" gradientUnits="userSpaceOnUse"><stop offset="0" stop-color="#fff"/><stop offset=".109" stop-color="#f9f9f9"/><stop offset=".252" stop-color="#e9e9e9"/><stop offset=".412" stop-color="#cecece"/><stop offset=".587" stop-color="#a8a8a8"/><stop offset=".772" stop-color="#787878"/><stop offset=".963" stop-color="#3e3e3e"/><stop offset="1" stop-color="#323232"/></linearGradient><linearGradient id="t" x1="59.999" x2="59.999" y1="71.982" y2="73.982" gradientTransform="matrix(.9674 0 0 1 5.956 4)" gradientUnits="userSpaceOnUse"><stop offset="0" stop-color="#323232"/><stop offset="1" stop-color="#555"/></linearGradient><linearGradient id="s" x1="64.001" x2="64.001" y1="77.387" y2="70.939" gradientUnits="userSpaceOnUse"><stop offset="0" stop-color="#bbb"/><stop offset="1" stop-color="#323232"/></linearGradient><linearGradient id="r" x1="64" x2="64" y1="69.982" y2="75.982" gradientUnits="userSpaceOnUse"><stop offset="0" stop-color="#ddd"/><stop offset="1"/></linearGradient><linearGradient xlink:href="#g" id="n" x1="63.967" x2="63.967" y1="75.982" y2="61.983" gradientUnits="userSpaceOnUse"/><linearGradient id="l" x1="64" x2="64" y1="59.867" y2="103.868" gradientUnits="userSpaceOnUse"><stop offset="0" stop-color="#bfc2bc"/><stop offset=".164" stop-color="#cfd1cc"/><stop offset=".56" stop-color="#dbdbde"/><stop offset=".734" stop-color="#b0b0b6"/><stop offset=".876" stop-color="#888892"/></linearGradient><linearGradient id="k" x1="64.001" x2="64.001" y1="83.27" y2="77.303" gradientUnits="userSpaceOnUse"><stop offset=".367"/><stop offset="1" stop-color="#fff"/></linearGradient><linearGradient id="j" x1="64" x2="64" y1="28.623" y2="71.341" gradientUnits="userSpaceOnUse"><stop offset="0" stop-color="#888"/><stop offset="1" stop-color="#bbb"/></linearGradient><linearGradient xlink:href="#g" id="A" x1="63.967" x2="63.967" y1="59.982" y2="45.983" gradientUnits="userSpaceOnUse"/><linearGradient id="J" x1="68.416" x2="68.416" y1="110.541" y2="96.106" gradientTransform="matrix(.9923 0 0 1.2473 -11.507 -17.872)" gradientUnits="userSpaceOnUse"><stop offset=".277" stop-color="#646464"/><stop offset=".5" stop-color="#222"/></linearGradient><linearGradient id="K" x1="68.416" x2="68.416" y1="110.541" y2="89.29" gradientTransform="matrix(.89307 0 0 1.14286 -5.156 -6.328)" gradientUnits="userSpaceOnUse"><stop offset=".035" stop-color="#fff"/><stop offset=".277" stop-color="#898989"/><stop offset=".5" stop-color="#222"/></linearGradient><linearGradient id="L" x1="60.001" x2="60.001" y1="116.537" y2="91.588" gradientTransform="matrix(1 0 0 .80163 -8 26.58)" gradientUnits="userSpaceOnUse"><stop offset="0" stop-color="#7a7a7a"/><stop offset=".287" stop-color="#909090"/><stop offset=".31" stop-color="#acacac"/><stop offset=".331" stop-color="#ccc"/><stop offset=".349" stop-color="#f0f0f0"/><stop offset=".355" stop-color="#fff"/><stop offset=".372" stop-color="#f1f1f1"/><stop offset=".398" stop-color="#e6e6e6"/><stop offset=".433" stop-color="#dfdfdf"/><stop offset=".532" stop-color="#ddd"/><stop offset="1" stop-color="#fff"/></linearGradient><radialGradient id="f" cx="59.999" cy="-14.943" r="89.637" gradientTransform="matrix(.9373 0 0 1.03 3.76 -1.433)" gradientUnits="userSpaceOnUse"><stop offset="0" stop-color="#fff"/><stop offset=".456" stop-color="#fff"/><stop offset=".519" stop-color="#f5f5f6"/><stop offset=".627" stop-color="#dbdbde"/><stop offset=".764" stop-color="#b0b0b6"/><stop offset=".876" stop-color="#888892"/></radialGradient><radialGradient id="i" cx="63.912" cy="115.709" r="63.912" fy="115.709" gradientTransform="matrix(1 0 0 .1978 0 92.822)" gradientUnits="userSpaceOnUse"><stop offset="0"/><stop offset="1" stop-opacity="0"/></radialGradient><radialGradient id="h" cx="60" cy="81.736" r="69.569" gradientUnits="userSpaceOnUse"><stop offset="0" stop-color="#eee"/><stop offset=".213" stop-color="#e5e5e5"/><stop offset=".567" stop-color="#cbcbcb"/><stop offset=".751" stop-color="#bbb"/><stop offset=".97" stop-color="#888"/></radialGradient><radialGradient xlink:href="#c" id="E" cx="111.077" cy="90.648" r="5.781" gradientUnits="userSpaceOnUse"/><radialGradient xlink:href="#d" id="F" cx="109.942" cy="85.926" r="4.042" fx="110.42" fy="86.467" gradientUnits="userSpaceOnUse"/><radialGradient xlink:href="#c" id="H" cx="111.339" cy="84.934" r="8.468" gradientUnits="userSpaceOnUse"/><radialGradient xlink:href="#d" id="I" cx="114.117" cy="82.921" r="4.043" fx="114.596" fy="83.463" gradientUnits="userSpaceOnUse"/><radialGradient xlink:href="#f" id="C" cx="59.999" cy="-14.943" r="89.637" gradientTransform="matrix(.9373 0 0 1.03 7.76 2.567)" gradientUnits="userSpaceOnUse"/><radialGradient xlink:href="#f" id="M" cx="59.999" cy="-14.943" r="89.637" gradientTransform="matrix(.9373 0 0 -.64918 7.76 127.256)" gradientUnits="userSpaceOnUse"/></defs><path fill="url(#h)" d="M4 39.982h112l2.932 15.885H1.068L4 39.982z" transform="translate(4 4)"/><path fill="url(#i)" d="M127.824 115.71A63.912 12.642 0 1 1 0 115.71a63.912 12.642 0 1 1 127.824 0z" opacity=".381" transform="matrix(1.00137 0 0 .41038 0 75.327)"/><path fill="url(#j)" d="M29.16 28.097c-.869 0-1.576.707-1.576 1.576v21.009c0 .869.707 1.576 1.576 1.576h69.68c.87 0 1.576-.707 1.576-1.576V29.673c0-.869-.707-1.576-1.576-1.576z"/><path fill="url(#k)" d="M4.667 81.139c12.396 5.22 34.328 8.695 59.333 8.695s46.935-3.475 59.333-8.695v-3.736H4.667z"/><path fill="url(#l)" d="M5.068 59.867h117.863c1.425 18.158 1.425 25.843 0 44H5.068c-1.424-18.157-1.424-25.842 0-44z"/><path fill="url(#m)" d="M3.033 55.867h113.934c1.378 18.158 1.378 25.843 0 44H3.033c-1.377-18.157-1.377-25.842 0-44z" transform="translate(4 4)"/><path fill="url(#n)" d="M27.966 61.982h72v14h-72z"/><path fill="url(#o)" d="M24.5 34.236h70.933l1 19.572H23.5l1-19.572z" transform="translate(4 4)"/><path fill="url(#p)" d="M23.067 40.119h1.035v31.863h-1.035z" transform="translate(4 4)"/><path fill="url(#q)" d="M95.898 40.119h1.034v31.863h-1.034z" transform="translate(4 4)"/><path fill="url(#r)" d="M77 74.697c0-2.605-1.73-4.715-3.865-4.715h-18.27c-2.135 0-3.865 2.109-3.865 4.715v1.285h26v-1.285z"/><path fill="url(#s)" d="M77 74.9c0-2.193-1.73-3.972-3.865-3.972h-18.27C52.73 70.929 51 72.707 51 74.9v1.082h26V74.9z"/><path fill="url(#t)" d="M6 77.982h116l-.012-2H6.013c-.005.669-.01 1.335-.013 2z"/><path fill="url(#u)" d="M100.671 79.508h-73.34c-2.374 0-4.298 1.881-4.298 4.201v1.051c0-2.32 1.924-4.201 4.297-4.201h73.341c2.373 0 4.297 1.881 4.297 4.201v-1.051c0-2.32-1.924-4.201-4.297-4.201z" transform="translate(0 6.459)"/><path fill="url(#v)" d="M23.891 83.012a5.262 5.262 0 0 0-1.12 3.271v11.258h1.05V83.828c0-.279.032-.549.07-.816z" transform="translate(0 6.459)"/><path fill="url(#w)" d="M104.11 83.012c.037.268.07.537.07.816v13.713h1.05V86.283a5.26 5.26 0 0 0-1.12-3.271z" transform="translate(0 6.459)"/><path fill="url(#x)" d="M99.978 81.609H28.022a4.202 4.202 0 0 0-4.202 4.201v11.73h80.36V85.81a4.2 4.2 0 0 0-4.202-4.201z" transform="translate(0 6.459)"/><path fill="url(#y)" d="M100.671 80.559h-73.34c-2.374 0-4.298 1.881-4.298 4.201v1.051c0-2.32 1.924-4.201 4.297-4.201h73.341c2.373 0 4.297 1.881 4.297 4.201V84.76c0-2.321-1.924-4.201-4.297-4.201z" transform="translate(0 6.459)"/><path fill="url(#z)" d="M29.16 28.623c-.58 0-1.05.471-1.05 1.05v21.009c0 .581.47 1.05 1.05 1.05h69.68a1.05 1.05 0 0 0 1.051-1.05V29.673c0-.58-.47-1.05-1.05-1.05z"/><path fill="url(#A)" d="M27.966 45.982h72v14h-72z"/><path fill="url(#B)" d="M25.16 25.673v22.673L60 49.352l34.84-1.006V25.673H25.16z" transform="translate(4 4)"/><path fill="none" stroke="#000" stroke-linejoin="round" stroke-width="8" d="M32 8h64v44H32z" opacity=".1"/><path fill="none" stroke="#000" stroke-linejoin="round" stroke-width="6" d="M32 7.732h64v44H32z" opacity=".15"/><path fill="none" stroke="#000" stroke-linejoin="round" stroke-width="4" d="M32 7.732h64v44H32z" opacity=".2"/><path fill="none" stroke="#000" stroke-linejoin="round" stroke-width="2" d="M32 7.732h64v44H32z" opacity=".25"/><path fill="url(#C)" d="M32 7.732h64v44H32z"/><path fill="url(#D)" d="M112.001 91.168a2.773 2.773 0 0 0 2.771 2.771 2.773 2.773 0 0 0 2.771-2.771 2.775 2.775 0 0 0-2.77-2.771A2.774 2.774 0 0 0 112 91.168zm.64 0c0-1.174.956-2.131 2.131-2.131 1.176 0 2.132.957 2.132 2.131a2.133 2.133 0 0 1-2.132 2.131 2.133 2.133 0 0 1-2.13-2.131z"/><circle cx="110.772" cy="87.168" r="2.32" fill="url(#E)" transform="translate(4 4)"/><circle cx="110.772" cy="87.168" r="2.11" fill="url(#F)" transform="translate(4 4)"/><path fill="url(#G)" d="M112.175 84.164a2.773 2.773 0 0 0 2.771 2.771 2.774 2.774 0 0 0 2.772-2.771 2.774 2.774 0 0 0-2.772-2.77 2.774 2.774 0 0 0-2.77 2.77zm.64 0c0-1.174.956-2.131 2.13-2.131 1.176 0 2.132.957 2.132 2.131a2.135 2.135 0 0 1-2.132 2.133 2.134 2.134 0 0 1-2.13-2.133z"/><circle cx="110.946" cy="80.164" r="2.32" fill="url(#H)" transform="translate(4 4)"/><path fill="url(#I)" d="M112.837 84.164c0 1.164.945 2.111 2.108 2.111 1.164 0 2.11-.947 2.11-2.111a2.112 2.112 0 0 0-2.11-2.109 2.111 2.111 0 0 0-2.108 2.109z"/><path fill="url(#J)" d="M12 102v18h80v-18H12z" transform="translate(12 -4)"/><path fill="url(#K)" d="M19.85 104c0 .735-3.85 15.265-3.85 16h72c0-.735-3.85-15.265-3.85-16h-64.3z" transform="translate(12 -4)"/><path fill="url(#L)" d="M88 96v24H16V96h-4v28h80V96h-4z" transform="translate(12 -4)"/><g fill="none" stroke="#000" stroke-linejoin="round"><path stroke-width="8" d="M32 124h64l-4-27.732H36z" opacity=".1"/><path stroke-width="6" d="M32 124h64l-4-27.732H36z" opacity=".15"/><path stroke-width="4" d="M32 124h64l-4-27.732H36z" opacity=".2"/><path stroke-width="2" d="M32 124h64l-4-27.732H36z" opacity=".25"/></g><path fill="url(#M)" d="M32 124h64l-4-27.732H36z"/></svg>