<?xml version="1.0" encoding="UTF-8"?>
<svg xmlns="http://www.w3.org/2000/svg" xmlns:xlink="http://www.w3.org/1999/xlink" width="128" height="128">
  <defs>
    <filter id="L">
      <feGaussianBlur stdDeviation=".10453397"/>
    </filter>
    <filter id="D" width="1.2933" height="1.2031" x="-.14667" y="-.10154">
      <feGaussianBlur stdDeviation=".55"/>
    </filter>
    <filter id="J">
      <feGaussianBlur stdDeviation=".04177847"/>
    </filter>
    <filter id="q">
      <feGaussianBlur stdDeviation=".0231875"/>
    </filter>
    <filter id="A">
      <feGaussianBlur stdDeviation=".02596154"/>
    </filter>
    <filter id="o" width="1.2477" height="1.1858" x="-.12385" y="-.092885">
      <feGaussianBlur stdDeviation="1.2384615"/>
    </filter>
    <filter id="l" width="1.138" height="1.2405" x="-.069006" y="-.12026">
      <feGaussianBlur stdDeviation="1.9228365"/>
    </filter>
    <filter id="g">
      <feGaussianBlur stdDeviation=".11145486"/>
    </filter>
    <filter id="y" width="1.0143" height="1.4538" x="-.007141" y="-.22689">
      <feGaussianBlur stdDeviation=".33324519"/>
    </filter>
    <filter id="w" width="1.0121" height="2.2482" x="-.0060582" y="-.6241">
      <feGaussianBlur stdDeviation=".18955201"/>
    </filter>
    <filter id="t">
      <feGaussianBlur stdDeviation=".66759571"/>
    </filter>
    <filter id="e" width="1.142" height="2.593" x="-.070976" y="-.7965">
      <feGaussianBlur stdDeviation="2.9868914"/>
    </filter>
    <filter id="d" width="1.0467" height="1.3748" x="-.023358" y="-.18741">
      <feGaussianBlur stdDeviation="1.0149838"/>
    </filter>
    <linearGradient id="b">
      <stop offset="0" stop-color="#fff"/>
      <stop offset="1" stop-color="#fff" stop-opacity="0"/>
    </linearGradient>
    <linearGradient id="a">
      <stop offset="0"/>
      <stop offset="1" stop-opacity="0"/>
    </linearGradient>
    <linearGradient xlink:href="#a" id="F" x1="16" x2="16" y1="1.5953" y2="18.755" gradientUnits="userSpaceOnUse"/>
    <linearGradient id="I" x1="11.918" x2="11.918" y1="17.561" y2="20.038" gradientTransform="translate(.54709 -2.2994) scale(1.1063)" gradientUnits="userSpaceOnUse">
      <stop offset="0" stop-color="#fff"/>
      <stop offset="1"/>
    </linearGradient>
    <linearGradient id="r" x1="64" x2="56" y1="120.07" y2="96.316" gradientTransform="matrix(1 0 0 1.0104 0 -1.31)" gradientUnits="userSpaceOnUse">
      <stop offset="0" stop-color="#8a8a8a"/>
      <stop offset="1" stop-color="#c6c6c6"/>
    </linearGradient>
    <linearGradient xlink:href="#b" id="p" x1="-37.195" x2="-12.625" y1="42.336" y2="106.8" gradientTransform="translate(126.8)" gradientUnits="userSpaceOnUse"/>
    <linearGradient xlink:href="#a" id="n" x1="68" x2="36" y1="120" y2="84" gradientUnits="userSpaceOnUse"/>
    <linearGradient xlink:href="#a" id="j" x1="47.609" x2="47.609" y1="104.35" y2="176.35" gradientUnits="userSpaceOnUse"/>
    <linearGradient xlink:href="#b" id="i" x1="107.06" x2="107.06" y1="-26.263" y2="134.55" gradientTransform="translate(9.4 .6)" gradientUnits="userSpaceOnUse"/>
    <linearGradient xlink:href="#b" id="h" x1="69.913" x2="70.02" y1="-96.5" y2="-67.843" gradientTransform="translate(0 131.41)" gradientUnits="userSpaceOnUse"/>
    <linearGradient id="f" x1="-97.743" x2="-97.743" y1="1938" y2="1895.4" gradientTransform="matrix(2.56 0 0 2.5827 317.2 -4887.4)" gradientUnits="userSpaceOnUse">
      <stop offset="0" stop-color="#2e2a2b"/>
      <stop offset=".33498" stop-color="#4c494a"/>
      <stop offset=".66749" stop-color="#5b595a"/>
      <stop offset="1" stop-color="#6b696a"/>
    </linearGradient>
    <radialGradient xlink:href="#b" id="M" cx="118.17" cy="9.1196" r="1.2844" gradientTransform="matrix(1.2088 .95832 -1.4021 1.7686 -11.996 -120.41)" gradientUnits="userSpaceOnUse"/>
    <radialGradient xlink:href="#b" id="K" cx="118.17" cy="9.1196" r="1.2844" gradientTransform="matrix(1.2088 .95832 -1.4021 1.7686 -11.096 -120.71)" gradientUnits="userSpaceOnUse"/>
    <radialGradient id="E" cx="16" cy="18" r="4" gradientTransform="matrix(1 0 0 1.5 0 -9)" gradientUnits="userSpaceOnUse">
      <stop offset="0" stop-color="#7a7a7a"/>
      <stop offset="1" stop-opacity=".49091"/>
    </radialGradient>
    <radialGradient id="H" cx="14" cy="19.7" r="2.15" fy="18.836" gradientTransform="translate(.54709 -2.2994) scale(1.1063)" gradientUnits="userSpaceOnUse">
      <stop offset="0" stop-color="#868385"/>
      <stop offset="1" stop-color="#4a4949"/>
    </radialGradient>
    <radialGradient xlink:href="#b" id="B" cx="104.09" cy="9" r=".46875" gradientTransform="matrix(1 0 0 .8 -80.464 1.9105)" gradientUnits="userSpaceOnUse"/>
    <radialGradient xlink:href="#b" id="z" cx="104.09" cy="9" r=".46875" gradientTransform="matrix(1 0 0 .8 -.5 1.91)" gradientUnits="userSpaceOnUse"/>
    <radialGradient xlink:href="#b" id="m" cx="84" cy="91.983" r="32" gradientTransform="matrix(1 0 0 .62103 0 37.877)" gradientUnits="userSpaceOnUse"/>
    <radialGradient id="v" cx="64.802" cy="63.781" r="34.041" gradientTransform="matrix(1.1398 0 0 .0107 -9.08 63.1)" gradientUnits="userSpaceOnUse">
      <stop offset="0" stop-color="#fff"/>
      <stop offset=".5" stop-color="#fff" stop-opacity=".69818"/>
      <stop offset="1" stop-color="#fff" stop-opacity="0"/>
    </radialGradient>
    <radialGradient id="u" cx="100.31" cy="42.449" r="38" gradientTransform="matrix(4.5705 0 0 1.8569 -416.62 -84.72)" gradientUnits="userSpaceOnUse">
      <stop offset="0" stop-color="#d0ced9"/>
      <stop offset=".25" stop-color="#ecf1f9"/>
      <stop offset=".5" stop-color="#fff"/>
      <stop offset="1" stop-color="#c6d5e3"/>
    </radialGradient>
    <radialGradient xlink:href="#a" id="c" cx="28.481" cy="164.13" r="52.145" gradientTransform="matrix(5.4916 -.11504 .00261 .1246 -128.37 104.83)" gradientUnits="userSpaceOnUse"/>
    <clipPath id="C">
      <rect width="8" height="12" x="12" y="12" opacity=".18359" rx="1.0793" ry="1.0793"/>
    </clipPath>
    <clipPath id="G">
      <rect width="8" height="12" x="12" y="12" opacity=".18359" rx="1.0793" ry="1.0793"/>
    </clipPath>
    <clipPath id="k">
      <path fill-opacity=".12832" d="M18.19 132.42c-1.4192 0-2.5625 1.1433-2.5625 2.5625v37.183h72v-37.183c0-1.4192-1.1433-2.5625-2.5625-2.5625z"/>
    </clipPath>
    <clipPath id="x">
      <path fill="url(#linearGradient3219)" d="M11.375-167.68c-2.9534 0-3.375.36407-3.375 3.3438v.78125c0-2.9797.42155-3.3125 3.375-3.3125h105.25c2.9534 0 3.375.33282 3.375 3.3125v-.78125c0-2.9797-.42155-3.3438-3.375-3.3438z"/>
    </clipPath>
    <clipPath id="s">
      <rect width="78.124" height="55.396" x="24.681" y="-68.245" fill="none" stroke="#000" stroke-dashoffset="4.15" stroke-linecap="round" stroke-linejoin="round" stroke-width=".4" opacity=".26562" rx="1.1339" ry="1.1339"/>
    </clipPath>
  </defs>
  <path fill="url(#c)" fill-rule="evenodd" d="M16 121h14v-1h58.2v1H116v-4l-103.29-6.9977z" filter="url(#d)"/>
  <path fill-rule="evenodd" stroke="#000" d="M16 121h14v-1h60v1h29v-4l-106.29-.99772z" filter="url(#e)"/>
  <path fill="url(#f)" d="M11.3 8c-1.8088 0-3.3611 1.6254-3.3601 3.3268v98.932l10.64 10.654h97.999c2.9535 0 3.3598-.34717 3.3598-3.3266v-106.26c0-1.813-1.558-3.3268-3.3598-3.3268z"/>
  <path fill="#fff" fill-opacity=".46903" d="M11.4 8.6c-2.0564.10719-3.375.70528-3.375 3.3125v.59375c0-2.9797 1.4216-3.3125 4.375-3.3125h103.25c2.9535 0 4.375.33282 4.375 3.3125v-.59375c0-2.9797-1.4215-3.3125-4.375-3.3125H12.4c-.3691 0-.7062-.0153-1 0z" filter="url(#g)"/>
  <path fill="url(#h)" d="M104.3 8.63c-.1011 0-.1884.0369-.2812.0625-.1043.0288-.1916.0687-.2813.125-.085.0537-.1503.1133-.2187.1875-.029.031-.069.0597-.094.0937-.034.0406-.065.0806-.094.125-.093.16901-.1563.35712-.1563.5625v51.375h.4063V9.7862c0-.21142.089-.39008.1875-.5625h11.906c2.9535 0 4.375.33282 4.375 3.3125v-.59375c0-2.6072-1.3157-3.1768-3.375-3.2812h-12.125c.054-.008.1004-.0312.1563-.0312zm-93.219.0312c-1.6252.15371-2.962.77436-3 2.875.121-2.0599 1.7595-2.3125 4.3437-2.3125h12c.1066.1773.1563.37327.1563.59375v51.375h.4062v-51.375c0-.22048-.05-.41645-.1562-.59375-.045-.0753-.096-.15599-.1563-.21875-.094-.10558-.2187-.19086-.3437-.25-.1164-.055-.2345-.0937-.375-.0937h-.5zm-3 2.875c0 .13474-.031.25892-.031.40625v.59375c0-.37246.014-.70573.031-1z" filter="url(#g)" opacity=".26953"/>
  <path fill="url(#i)" d="M115.4 8.6c2.9534 0 3.775.33282 3.775 3.3125v103.28c0 2.9794-2.8216 5.3125-5.775 5.3125h.7187c2.9535 0 5.3438-2.3331 5.3438-5.3125v-103.28c0-2.9797-.3903-3.3125-3.3438-3.3125z"/>
  <path fill="url(#j)" d="M16.781 130.44c-1.483 0-2.6562 1.2046-2.6562 2.6875v42.031c0 1.483 1.1733 2.6562 2.6562 2.6562h.15625c-.40777-.44637-.6875-1.0318-.6875-1.6875v-39.969c0-1.3913 1.112-2.5312 2.5-2.5312h65.594c1.388 0 2.5 1.1399 2.5 2.5312v39.969c.000002.65574-.24848 1.2411-.65625 1.6875h.125c1.483 0 2.6875-1.1733 2.6875-2.6562v-42.031c0-1.483-1.2045-2.6875-2.6875-2.6875z" clip-path="url(#k)" filter="url(#l)" transform="translate(16.4 -52.35)"/>
  <path fill-opacity=".12832" d="M34.5 80.009c-1.4192 0-2.5625 1.1433-2.5625 2.5625l.025 37.146h72l-.025-37.146c0-1.4192-1.1433-2.5625-2.5625-2.5625z"/>
  <path fill="url(#m)" d="M34.6 80.072c-1.4193 0-2.5625 1.1433-2.5625 2.5625v37.183l71.981-.11658v-37.183c0-1.4192-1.1433-2.5625-2.5625-2.5625z" opacity=".074219"/>
  <path fill="url(#n)" d="M52.938 84c-.51955 0-.9375.41795-.9375.9375v23.062h-11.062c-.51955 0-.9375.41795-.9375.9375v6.125c0 .51955.41795.9375.9375.9375h22.125c.51955 0 .9375-.41795.9375-.9375V84.937c0-.51955-.41795-.9375-.9375-.9375z" filter="url(#o)" transform="matrix(1 0 0 1.0104 0 -1.31)"/>
  <path fill="url(#p)" fill-rule="evenodd" stroke="#fff" stroke-width=".1" d="M112.08 97.375v6.7188h-2.25l4.3438 7.5312 4.3438-7.5312h-2.25V97.375h-2.0938z" filter="url(#q)" opacity=".45312" transform="matrix(.98758 0 0 1 .7 .2)"/>
  <path fill="url(#r)" d="M34.5 80.323c-1.1772 0-2.125.95756-2.125 2.147l.1768 38.067h55.406v-38.21c0-1.1894-.8227-2.0038-2-2.0038zm6.3955 8.0323h14.125c.5196 0 .9375.42228.9375.94721v21.598c0 .52493-.4179.94721-.9375.94721h-14.125c-.5195 0-.9375-.42228-.9375-.94721v-21.598c0-.52493.418-.94721.9375-.94721z"/>
  <path fill="#fff" d="M34.7 80.383c-1.1772 0-2.125.95756-2.125 2.147v.18944c0-1.1894.9478-2.147 2.125-2.147h51.156c1.0301 0 1.8962.75643 2.0937 1.7365-.1089-1.0847-.9904-1.926-2.0937-1.926zm5.2813 30.721v.18946c0 .52492.4179.94719.9375.94719h14.125c.5195 0 .9375-.42227.9375-.94719v-.18946c0 .52493-.418.9472-.9375.9472h-14.125c-.5196 0-.9375-.42227-.9375-.9472z"/>
  <path fill="#fff" d="M34.7 80.281c-1.1772 0-2.125 1.3635-2.125 2.5529v.18944c0-1.1894.9478-1.547 2.125-1.547h51.156c1.0301 0 1.6962.15643 1.8937 1.1365-.1089-1.0847-.7904-2.2304-1.8937-2.2304zm5.2813 31.127v.18944c0 .52493.4179.94721.9375.94721h14.125c.5195 0 .9375-.42228.9375-.94721v-.18944c0 .52493-.418.9472-.9375.9472h-14.125c-.5196 0-.9375-.42227-.9375-.9472z"/>
  <path fill="none" stroke="#000" stroke-dashoffset="1.0878" stroke-linecap="round" stroke-linejoin="round" stroke-width=".7" d="M24.694-69.481v56.656h78.1v-56.656z" clip-path="url(#s)" filter="url(#t)" transform="translate(.3 76.485)"/>
  <rect width="76" height="54" x="26" y="8" fill="url(#u)" rx="1.2345" ry="1.2345"/>
  <rect width="3.8491" height="53.922" x="26.1" y="8" fill="#cfdce7" opacity=".61328" rx=".92457" ry=".92457"/>
  <rect width="3.7945" height="53.467" x="98" y="8.5" fill="#cfdce7" opacity=".54688" rx=".89724" ry=".92457"/>
  <path fill="url(#v)" d="M26 63.418h75.092v.72893H26z" filter="url(#w)"/>
  <path fill-opacity=".35841" d="M12.375-168.28c-2.9534 0-4.375.36407-4.375 3.3438v.78125c0-2.9797 1.4216-3.3125 4.375-3.3125h103.25c2.9534 0 4.375.33282 4.375 3.3125v-.78125c0-2.9797-1.4216-3.3438-4.375-3.3438z" clip-path="url(#x)" filter="url(#y)" transform="translate(0 176.85)"/>
  <path fill="#b2c6d9" fill-rule="evenodd" d="M32 16.124v3.9536h64V16.124zm0 16.106v3.8904h64V32.23zm0 15.974v4h64v-4z" opacity=".56522"/>
  <path fill="#fff" d="M101.4 8v53.806c.183-.10161.2943-.251.4062-.4V8zM26.1 8l.014 53.301c.103.19989.2524.33804.4062.47033l-.014-53.771z"/>
  <path fill="url(#z)" fill-rule="evenodd" d="m103.9 8.74-.75.6875.9375.0625z" filter="url(#A)"/>
  <path fill="url(#B)" fill-rule="evenodd" d="m23.911 8.7355-.75.6875.9375.0625z" filter="url(#A)" transform="matrix(-1 0 0 1 48 0)"/>
  <g stroke-dashoffset="4.15" stroke-linecap="round" stroke-linejoin="round">
    <rect width="8" height="12" x="12" y="12" fill="none" stroke="#000" clip-path="url(#C)" filter="url(#D)" opacity=".78516" rx="1.0793" ry="1.0793" transform="matrix(.75565 0 0 .76613 3.1456 2.6444)"/>
    <rect width="8" height="12" x="12" y="12" fill="url(#E)" stroke="url(#F)" clip-path="url(#G)" filter="url(#D)" opacity=".78516" rx="1.0793" ry="1.0793" transform="matrix(.75565 0 0 .76613 3.1456 2.6444)"/>
    <rect width="4.3502" height="3.6759" x="13.897" y="18.031" fill="url(#H)" stroke="url(#I)" stroke-width=".33189" filter="url(#J)" opacity=".78516" rx=".45227" ry=".45227" transform="matrix(1.0885 0 0 1.1036 -2.18 -3.43)"/>
  </g>
  <path fill="#343434" fill-opacity=".8284" d="M11.4 8c-2.0564.10719-3.375 1.7053-3.375 4.3125v.59375c0-2.9797 1.4216-4.3125 4.375-4.3125 36.521-.57384 76.291-.27228 104.25 0 1.896 0 3.375 1.1283 3.375 3.3125v-.59375C120.025 9.7691 118.4765 8 116.65 8H12.4c-.3691 0-.7062-.0153-1 0z"/>
  <path fill="url(#K)" fill-rule="evenodd" d="m118.02 8.3885.11049 1.1049 1.4584 1e-7c-.0988-.4722-.19843-1.1811-1.5689-1.1049z" filter="url(#L)" transform="matrix(-1.3891 0 0 1.3891 175.7 -2.24)"/>
  <path fill="url(#M)" fill-rule="evenodd" d="m117.12 8.6885.11049 1.1049h1.4584c-.0988-.4722-.19843-1.1811-1.5689-1.1049z" filter="url(#L)" opacity=".86141" transform="translate(-33.45 -2.36) scale(1.2828)"/>
</svg>