<svg xmlns="http://www.w3.org/2000/svg" xmlns:xlink="http://www.w3.org/1999/xlink" width="128" height="128"><defs><filter id="L"><feGaussianBlur stdDeviation=".105"/></filter><filter id="D" width="1.293" height="1.203" x="-.147" y="-.102"><feGaussianBlur stdDeviation=".55"/></filter><filter id="J"><feGaussianBlur stdDeviation=".042"/></filter><filter id="q"><feGaussianBlur stdDeviation=".023"/></filter><filter id="A"><feGaussianBlur stdDeviation=".026"/></filter><filter id="o" width="1.248" height="1.186" x="-.124" y="-.093"><feGaussianBlur stdDeviation="1.238"/></filter><filter id="l" width="1.138" height="1.24" x="-.069" y="-.12"><feGaussianBlur stdDeviation="1.923"/></filter><filter id="g"><feGaussianBlur stdDeviation=".111"/></filter><filter id="y" width="1.014" height="1.454" x="-.007" y="-.227"><feGaussianBlur stdDeviation=".333"/></filter><filter id="w" width="1.012" height="2.248" x="-.006" y="-.624"><feGaussianBlur stdDeviation=".19"/></filter><filter id="t"><feGaussianBlur stdDeviation=".668"/></filter><filter id="e" width="1.142" height="2.593" x="-.071" y="-.796"><feGaussianBlur stdDeviation="2.987"/></filter><filter id="d" width="1.047" height="1.375" x="-.023" y="-.187"><feGaussianBlur stdDeviation="1.015"/></filter><linearGradient id="b"><stop offset="0" stop-color="#fff"/><stop offset="1" stop-color="#fff" stop-opacity="0"/></linearGradient><linearGradient id="a"><stop offset="0"/><stop offset="1" stop-opacity="0"/></linearGradient><linearGradient xlink:href="#a" id="F" x1="16" x2="16" y1="1.595" y2="18.755" gradientUnits="userSpaceOnUse"/><linearGradient id="I" x1="11.918" x2="11.918" y1="17.561" y2="20.038" gradientTransform="translate(.547 -2.3) scale(1.1063)" gradientUnits="userSpaceOnUse"><stop offset="0" stop-color="#fff"/><stop offset="1"/></linearGradient><linearGradient id="r" x1="64" x2="56" y1="120.07" y2="96.316" gradientTransform="matrix(1 0 0 1.0104 0 -1.31)" gradientUnits="userSpaceOnUse"><stop offset="0" stop-color="#8a8a8a"/><stop offset="1" stop-color="#c6c6c6"/></linearGradient><linearGradient xlink:href="#b" id="p" x1="-37.195" x2="-12.625" y1="42.336" y2="106.8" gradientTransform="translate(126.8)" gradientUnits="userSpaceOnUse"/><linearGradient xlink:href="#a" id="n" x1="68" x2="36" y1="120" y2="84" gradientUnits="userSpaceOnUse"/><linearGradient xlink:href="#a" id="j" x1="47.609" x2="47.609" y1="104.35" y2="176.35" gradientUnits="userSpaceOnUse"/><linearGradient xlink:href="#b" id="i" x1="107.06" x2="107.06" y1="-26.263" y2="134.55" gradientTransform="translate(9.4 .6)" gradientUnits="userSpaceOnUse"/><linearGradient xlink:href="#b" id="h" x1="69.913" x2="70.02" y1="-96.5" y2="-67.843" gradientTransform="translate(0 131.41)" gradientUnits="userSpaceOnUse"/><linearGradient id="f" x1="-97.743" x2="-97.743" y1="1938" y2="1895.4" gradientTransform="matrix(2.56 0 0 2.5827 317.2 -4887.4)" gradientUnits="userSpaceOnUse"><stop offset="0" stop-color="#2e2a2b"/><stop offset=".335" stop-color="#4c494a"/><stop offset=".667" stop-color="#5b595a"/><stop offset="1" stop-color="#6b696a"/></linearGradient><radialGradient xlink:href="#b" id="M" cx="118.17" cy="9.12" r="1.284" gradientTransform="matrix(1.2088 .95832 -1.4021 1.7686 -11.996 -120.41)" gradientUnits="userSpaceOnUse"/><radialGradient xlink:href="#b" id="K" cx="118.17" cy="9.12" r="1.284" gradientTransform="matrix(1.2088 .95832 -1.4021 1.7686 -11.096 -120.71)" gradientUnits="userSpaceOnUse"/><radialGradient id="E" cx="16" cy="18" r="4" gradientTransform="matrix(1 0 0 1.5 0 -9)" gradientUnits="userSpaceOnUse"><stop offset="0" stop-color="#7a7a7a"/><stop offset="1" stop-opacity=".491"/></radialGradient><radialGradient id="H" cx="14" cy="19.7" r="2.15" fy="18.836" gradientTransform="translate(.547 -2.3) scale(1.1063)" gradientUnits="userSpaceOnUse"><stop offset="0" stop-color="#868385"/><stop offset="1" stop-color="#4a4949"/></radialGradient><radialGradient xlink:href="#b" id="B" cx="104.09" cy="9" r=".469" gradientTransform="matrix(1 0 0 .8 -80.464 1.91)" gradientUnits="userSpaceOnUse"/><radialGradient xlink:href="#b" id="z" cx="104.09" cy="9" r=".469" gradientTransform="matrix(1 0 0 .8 -.5 1.91)" gradientUnits="userSpaceOnUse"/><radialGradient xlink:href="#b" id="m" cx="84" cy="91.983" r="32" gradientTransform="matrix(1 0 0 .62103 0 37.877)" gradientUnits="userSpaceOnUse"/><radialGradient id="v" cx="64.802" cy="63.781" r="34.041" gradientTransform="matrix(1.1398 0 0 .0107 -9.08 63.1)" gradientUnits="userSpaceOnUse"><stop offset="0" stop-color="#fff"/><stop offset=".5" stop-color="#fff" stop-opacity=".698"/><stop offset="1" stop-color="#fff" stop-opacity="0"/></radialGradient><radialGradient id="u" cx="100.31" cy="42.449" r="38" gradientTransform="matrix(4.5705 0 0 1.8569 -416.62 -84.72)" gradientUnits="userSpaceOnUse"><stop offset="0" stop-color="#d0ced9"/><stop offset=".25" stop-color="#ecf1f9"/><stop offset=".5" stop-color="#fff"/><stop offset="1" stop-color="#c6d5e3"/></radialGradient><radialGradient xlink:href="#a" id="c" cx="28.481" cy="164.13" r="52.145" gradientTransform="matrix(5.4916 -.11504 .00261 .1246 -128.37 104.83)" gradientUnits="userSpaceOnUse"/><clipPath id="C"><rect width="8" height="12" x="12" y="12" opacity=".184" rx="1.079" ry="1.079"/></clipPath><clipPath id="G"><rect width="8" height="12" x="12" y="12" opacity=".184" rx="1.079" ry="1.079"/></clipPath><clipPath id="k"><path fill-opacity=".128" d="M18.19 132.42a2.557 2.557 0 0 0-2.563 2.563v37.182h72v-37.183a2.557 2.557 0 0 0-2.562-2.562z"/></clipPath><clipPath id="x"><path fill="url(#linearGradient3219)" d="M11.375-167.68c-2.953 0-3.375.364-3.375 3.344v.781c0-2.98.422-3.312 3.375-3.312h105.25c2.953 0 3.375.332 3.375 3.312v-.781c0-2.98-.422-3.344-3.375-3.344z"/></clipPath><clipPath id="s"><rect width="78.124" height="55.396" x="24.681" y="-68.245" fill="none" stroke="#000" stroke-dashoffset="4.15" stroke-linecap="round" stroke-linejoin="round" stroke-width=".4" opacity=".266" rx="1.134" ry="1.134"/></clipPath></defs><path fill="url(#c)" fill-rule="evenodd" d="M16 121h14v-1h58.2v1H116v-4l-103.29-6.998z" filter="url(#d)"/><path fill-rule="evenodd" stroke="#000" d="M16 121h14v-1h60v1h29v-4l-106.29-.998z" filter="url(#e)"/><path fill="url(#f)" d="M11.3 8c-1.809 0-3.361 1.625-3.36 3.327v98.932l10.64 10.654h97.999c2.953 0 3.36-.347 3.36-3.327V11.326c0-1.813-1.558-3.327-3.36-3.327z"/><path fill="#fff" fill-opacity=".469" d="M11.4 8.6c-2.056.107-3.375.705-3.375 3.313v.593c0-2.98 1.422-3.312 4.375-3.312h103.25c2.954 0 4.375.333 4.375 3.312v-.594c0-2.98-1.421-3.312-4.375-3.312H12.4c-.37 0-.706-.015-1 0z" filter="url(#g)"/><path fill="url(#h)" d="M104.3 8.63c-.101 0-.188.037-.281.063a1.023 1.023 0 0 0-.5.312c-.03.031-.07.06-.094.094a1.3 1.3 0 0 0-.094.125 1.162 1.162 0 0 0-.156.562v51.375h.406V9.786c0-.211.089-.39.187-.562h11.906c2.954 0 4.375.333 4.375 3.312v-.594c0-2.607-1.315-3.176-3.375-3.28H104.55c.054-.009.1-.032.157-.032zm-93.219.031c-1.625.154-2.962.775-3 2.875.121-2.06 1.76-2.312 4.344-2.312h12c.106.177.156.373.156.593v51.375h.406V9.817c0-.22-.05-.416-.156-.593a1.09 1.09 0 0 0-.5-.469.852.852 0 0 0-.375-.094h-.5zm-3 2.875c0 .135-.031.26-.031.406v.594c0-.372.014-.706.031-1z" filter="url(#g)" opacity=".27"/><path fill="url(#i)" d="M115.4 8.6c2.953 0 3.775.333 3.775 3.313v103.28c0 2.979-2.822 5.312-5.775 5.312h.719c2.953 0 5.344-2.333 5.344-5.313V11.912c0-2.98-.39-3.312-3.344-3.312z"/><path fill="url(#j)" d="M16.781 130.44c-1.483 0-2.656 1.205-2.656 2.688v42.03a2.636 2.636 0 0 0 2.656 2.657h.156c-.408-.447-.687-1.032-.687-1.688v-39.969c0-1.391 1.112-2.531 2.5-2.531h65.594c1.388 0 2.5 1.14 2.5 2.531v39.97c0 .655-.249 1.24-.656 1.687h.124c1.484 0 2.688-1.174 2.688-2.656v-42.031a2.69 2.69 0 0 0-2.688-2.688z" clip-path="url(#k)" filter="url(#l)" transform="translate(16.4 -52.35)"/><path fill-opacity=".128" d="M34.5 80.009a2.557 2.557 0 0 0-2.563 2.563l.025 37.145h72l-.024-37.145a2.557 2.557 0 0 0-2.563-2.563z"/><path fill="url(#m)" d="M34.6 80.072a2.557 2.557 0 0 0-2.563 2.563v37.182l71.981-.116V82.518a2.557 2.557 0 0 0-2.562-2.563z" opacity=".074"/><path fill="url(#n)" d="M52.938 84a.935.935 0 0 0-.938.938v23.061H40.94a.935.935 0 0 0-.938.938v6.125c0 .52.418.938.938.938h22.125c.52 0 .937-.418.937-.938V84.937a.935.935 0 0 0-.938-.938z" filter="url(#o)" transform="matrix(1 0 0 1.0104 0 -1.31)"/><path fill="url(#p)" fill-rule="evenodd" stroke="#fff" stroke-width=".1" d="M112.08 97.375v6.719h-2.25l4.344 7.531 4.344-7.531h-2.25v-6.719h-2.094z" filter="url(#q)" opacity=".453" transform="matrix(.98758 0 0 1 .7 .2)"/><path fill="url(#r)" d="M34.5 80.323a2.131 2.131 0 0 0-2.125 2.147l.177 38.067h55.406v-38.21c0-1.19-.823-2.004-2-2.004zm6.396 8.032H55.02a.94.94 0 0 1 .938.948V110.9a.94.94 0 0 1-.938.947H40.895a.94.94 0 0 1-.937-.947V89.303a.94.94 0 0 1 .938-.948z"/><path fill="#fff" d="M34.7 80.383a2.131 2.131 0 0 0-2.125 2.147v.19c0-1.19.948-2.148 2.125-2.148h51.156c1.03 0 1.896.757 2.094 1.737-.11-1.085-.99-1.926-2.094-1.926zm5.281 30.721v.19a.94.94 0 0 0 .938.947h14.125a.94.94 0 0 0 .937-.948v-.189a.94.94 0 0 1-.937.947H40.919a.94.94 0 0 1-.938-.947z"/><path fill="#fff" d="M34.7 80.281c-1.177 0-2.125 1.363-2.125 2.553v.19c0-1.19.948-1.548 2.125-1.548h51.156c1.03 0 1.696.157 1.894 1.137-.11-1.085-.79-2.23-1.894-2.23zm5.281 31.127v.19a.94.94 0 0 0 .938.947h14.125a.94.94 0 0 0 .937-.948v-.189a.94.94 0 0 1-.937.947H40.919a.94.94 0 0 1-.938-.947z"/><path fill="none" stroke="#000" stroke-dashoffset="1.088" stroke-linecap="round" stroke-linejoin="round" stroke-width=".7" d="M24.694-69.481v56.656h78.1v-56.656z" clip-path="url(#s)" filter="url(#t)" transform="translate(.3 76.485)"/><rect width="76" height="54" x="26" y="8" fill="url(#u)" rx="1.234" ry="1.234"/><rect width="3.849" height="53.922" x="26.1" y="8" fill="#cfdce7" opacity=".613" rx=".925" ry=".925"/><rect width="3.795" height="53.467" x="98" y="8.5" fill="#cfdce7" opacity=".547" rx=".897" ry=".925"/><path fill="url(#v)" d="M26 63.418h75.092v.729H26z" filter="url(#w)"/><path fill-opacity=".358" d="M12.375-168.28c-2.953 0-4.375.364-4.375 3.344v.781c0-2.98 1.422-3.312 4.375-3.312h103.25c2.953 0 4.375.332 4.375 3.312v-.781c0-2.98-1.422-3.344-4.375-3.344z" clip-path="url(#x)" filter="url(#y)" transform="translate(0 176.85)"/><path fill="#b2c6d9" fill-rule="evenodd" d="M32 16.124v3.954h64v-3.954zm0 16.106v3.89h64v-3.89zm0 15.974v4h64v-4z" opacity=".565"/><path fill="#fff" d="M101.4 8v53.806c.183-.102.294-.251.406-.4V8zM26.1 8l.014 53.301c.103.2.252.338.406.47l-.014-53.77z"/><path fill="url(#z)" fill-rule="evenodd" d="m103.9 8.74-.75.688.938.062z" filter="url(#A)"/><path fill="url(#B)" fill-rule="evenodd" d="m23.911 8.736-.75.687.938.063z" filter="url(#A)" transform="matrix(-1 0 0 1 48 0)"/><g stroke-dashoffset="4.15" stroke-linecap="round" stroke-linejoin="round"><rect width="8" height="12" x="12" y="12" fill="none" stroke="#000" clip-path="url(#C)" filter="url(#D)" opacity=".785" rx="1.079" ry="1.079" transform="matrix(.75565 0 0 .76613 3.146 2.644)"/><rect width="8" height="12" x="12" y="12" fill="url(#E)" stroke="url(#F)" clip-path="url(#G)" filter="url(#D)" opacity=".785" rx="1.079" ry="1.079" transform="matrix(.75565 0 0 .76613 3.146 2.644)"/><rect width="4.35" height="3.676" x="13.897" y="18.031" fill="url(#H)" stroke="url(#I)" stroke-width=".332" filter="url(#J)" opacity=".785" rx=".452" ry=".452" transform="matrix(1.0885 0 0 1.1036 -2.18 -3.43)"/></g><path fill="#343434" fill-opacity=".828" d="M11.4 8c-2.056.107-3.375 1.705-3.375 4.313v.593c0-2.98 1.422-4.312 4.375-4.312 36.521-.574 76.291-.273 104.25 0 1.896 0 3.375 1.128 3.375 3.312v-.594c0-1.543-1.549-3.312-3.375-3.312H12.4c-.37 0-.706-.015-1 0z"/><path fill="url(#K)" fill-rule="evenodd" d="m118.02 8.389.11 1.104h1.459c-.099-.472-.199-1.18-1.569-1.104z" filter="url(#L)" transform="matrix(-1.3891 0 0 1.3891 175.7 -2.24)"/><path fill="url(#M)" fill-rule="evenodd" d="m117.12 8.688.11 1.105h1.459c-.099-.472-.199-1.18-1.569-1.104z" filter="url(#L)" opacity=".861" transform="translate(-33.45 -2.36) scale(1.2828)"/></svg>