<svg height="128" style="" viewBox="0 0 128 128" width="128" xmlns="http://www.w3.org/2000/svg" xmlns:xlink="http://www.w3.org/1999/xlink"><filter id="a" style=""><feGaussianBlur stdDeviation="2.1604423" style=""/></filter><linearGradient id="b" gradientUnits="userSpaceOnUse" style=""><stop offset="0" style="stop-color:#fff"/><stop offset="1" style="stop-color:#555753"/></linearGradient><linearGradient id="c" style="" x1="94.343803" x2="86.535599" xlink:href="#b" y1="102.3447" y2="94.536598"/><linearGradient id="d" style="" x1="95" x2="86.586502" xlink:href="#b" y1="103" y2="94.586502"/><linearGradient id="e" gradientUnits="userSpaceOnUse" style="" x1="95" x2="87.292999" y1="103" y2="95.292999"><stop offset="0" style="stop-color:#fff"/><stop offset="1" style="stop-color:#393b38"/></linearGradient><linearGradient id="f" gradientUnits="userSpaceOnUse" style="" x1="96" x2="88.000198" y1="104" y2="96.000198"><stop offset="0" style="stop-color:#888a85"/><stop offset=".0072" style="stop-color:#8c8e89"/><stop offset=".0673" style="stop-color:#abaca9"/><stop offset=".1347" style="stop-color:#c5c6c4"/><stop offset=".2115" style="stop-color:#dbdbda"/><stop offset=".3012" style="stop-color:#ebebeb"/><stop offset=".4122" style="stop-color:#f7f7f6"/><stop offset=".5679" style="stop-color:#fdfdfd"/><stop offset="1" style="stop-color:#fff"/></linearGradient><radialGradient id="g" cx="102" cy="112.3047" gradientTransform="matrix(.9787234 0 0 .9818182 1.361705 1.163636)" gradientUnits="userSpaceOnUse" r="139.55859" style=""><stop offset="0" style="stop-color:#535557"/><stop offset=".11366145" style="stop-color:#898a8c"/><stop offset=".20296688" style="stop-color:#ececec"/><stop offset=".23630001" style="stop-color:#fafafa"/><stop offset=".27219999" style="stop-color:#fff"/><stop offset=".53130001" style="stop-color:#fafafa"/><stop offset=".84490001" style="stop-color:#ebecec"/><stop offset="1" style="stop-color:#e1e2e3"/></radialGradient><radialGradient id="h" cx="102.000002" cy="112.3047" gradientUnits="userSpaceOnUse" r="139.5585" style=""><stop offset="0" style="stop-color:#00537d"/><stop offset=".0151" style="stop-color:#186389"/><stop offset=".0558" style="stop-color:#558ca8"/><stop offset=".0964" style="stop-color:#89afc3"/><stop offset=".1357" style="stop-color:#b3ccd8"/><stop offset=".1737" style="stop-color:#d4e2e9"/><stop offset=".20990001" style="stop-color:#ecf2f5"/><stop offset=".24349999" style="stop-color:#fafcfd"/><stop offset=".27219999" style="stop-color:#fff"/></radialGradient><filter id="i" style=""><feGaussianBlur stdDeviation="1.0394514" style=""/></filter><filter id="j" style=""><feGaussianBlur stdDeviation=".96794009" style=""/></filter><clipPath id="k" style=""><circle cx="343.99899" cy="92" r="36" style=""/></clipPath><filter id="l" style=""><feGaussianBlur stdDeviation="2.8805897" style=""/></filter><filter id="m" style=""><feGaussianBlur stdDeviation="1.04" style=""/></filter><linearGradient id="n" gradientTransform="matrix(0 1 -1 0 -39.9985 140.0029)" gradientUnits="userSpaceOnUse" style="" x1="-86.120354" x2="-56.357521" y1="-381.09921" y2="-373.1243"><stop offset="0" style="stop-color:#8c0000"/><stop offset="1" style="stop-color:#bf0000"/></linearGradient><radialGradient id="o" cx="345.80753" cy="85.250488" gradientTransform="matrix(.6662862 -.6560105 .9893764 1.0048737 31.05592 226.43791)" gradientUnits="userSpaceOnUse" r="36" style=""><stop offset="0" style="stop-color:#ffbe00"/><stop offset="1" style="stop-color:#f5d600;stop-opacity:0"/></radialGradient><linearGradient id="p" gradientUnits="userSpaceOnUse" style="" x1="328.12448" x2="336.98077" y1="120.81158" y2="87.759453"><stop offset="0" style="stop-color:#f00"/><stop offset="1" style="stop-color:#650000"/></linearGradient><linearGradient id="q" gradientUnits="userSpaceOnUse" style="" x1="137.815925" x2="110.537701" y1="47.012537" y2="20.633893"><stop offset="0" style="stop-color:#4d0000;stop-opacity:0"/><stop offset=".5" style="stop-color:#4d0000"/><stop offset="1" style="stop-color:#4d0000;stop-opacity:0"/></linearGradient><linearGradient id="r" gradientTransform="matrix(0 .73957696 -.73957696 0 -1.655915 63.320784)" gradientUnits="userSpaceOnUse" style="" x1="-80.00296" x2="-45.096584" y1="-131.93112" y2="-131.93112"><stop offset="0" style="stop-color:#fff"/><stop offset="1" style="stop-color:#fff;stop-opacity:0"/></linearGradient><path d="m23 9 .04082 112h61.131184c.53 0 1.039-.211 1.414-.586l32.827996-32.828c.375-.375.586-.884.586-1.414v-77.172z" style="opacity:.5;filter:url(#i)" transform="matrix(1.0416667 0 0 1.0357143 -9.958333 -3.321534)"/><path d="m16.000002 8v112h61.172c.53 0 1.039-.211 1.414-.586l32.827998-32.828c.375-.375.586-.884.586-1.414v-77.172z" style="fill:url(#h)"/><path d="m18.978725 10c-.539276 0-.978723.440836-.978723.981818v106.036362c0 .54197.439447.98182.978723.98182h57.913022c.257404 0 .509915-.10407.691957-.28767l32.129526-32.23113c.18303-.1836.28677-.435927.28677-.694145v-73.805237c0-.540982-.43847-.981818-.97872-.981818z" style="fill:url(#g)"/><g style="" transform="translate(.000002)"><path d="m111.414 86.586c.25-.25-18.379 6.414-23.414 6.414-1.654 0-3 1.346-3 3 0 5.035-6.664 23.664-6.414 23.414z" style="opacity:.1;fill:url(#c)"/><path d="m111.414 86.586c.375-.375-13.97 7.414-23.414 7.414-1.103 0-2 .897-2 2 0 9.444-7.789 23.789-7.414 23.414z" style="opacity:.1;fill:url(#d)"/><path d="m111.414 86.586c.239-.239-13.607 8.414-23.414 8.414-.553 0-1 .447-1 1 0 9.807-8.653 23.653-8.414 23.414z" style="opacity:.1;fill:url(#e)"/><path d="m78.586 119.414s11.914-9.914 17.414-15.414 15.414-17.414 15.414-17.414-13.164 9.414-23.414 9.414c0 10.25-9.414 23.414-9.414 23.414z" style="fill:url(#f)"/></g><g style="" transform="translate(-6)"><circle cx="343.99899" cy="92" r="36" style="opacity:.5;filter:url(#a)" transform="matrix(-.858425 .2300143 -.2300143 -.858425 412.45865 35.850447)"/><circle cx="343.99899" cy="92" r="36" style="fill:url(#n)" transform="matrix(-.85930821 .23025097 -.23025097 -.85930821 412.75132 31.883223)"/><circle cx="343.99899" cy="92" r="36" style="fill:url(#o);filter:url(#j)" transform="matrix(-.64448122 .17268815 -.17268815 -.64448122 333.55529 31.920663)"/><circle cx="343.99899" cy="92" r="36" style="opacity:.8;fill:none;stroke-width:6.751382;clip-path:url(#k);stroke:url(#p);filter:url(#l)" transform="matrix(-.85930821 -.23025097 -.23025097 .85930821 412.75132 32.182673)"/><path d="m95.967113 4.1524808c-11.357389 0-20.847522 8.0198492-23.134892 18.6974332 4.559347 4.250263 13.21047 7.118425 23.134892 7.118425 9.924437 0 18.575547-2.868162 23.134887-7.118425-2.28736-10.677584-11.7775-18.6974332-23.134887-18.6974332z" style="opacity:.8;fill:url(#r)"/><g style="" transform="matrix(.70783432 .70783432 -.70783432 .70783432 35.093313 -79.804896)"><path d="m118.00003 15.999997v16h-16v8h16v16h8v-16h16v-8h-16v-16z" style="fill:none;stroke-width:4;stroke-linecap:round;stroke-linejoin:round;stroke:url(#q);filter:url(#m)"/><path d="m118.00003 15.999997v16h-16v8h16v16h8v-16h16v-8h-16v-16z" style="fill:#fff;fill-rule:evenodd"/></g></g></svg>