<svg xmlns="http://www.w3.org/2000/svg" xmlns:xlink="http://www.w3.org/1999/xlink" xml:space="preserve" width="128" height="128" style="overflow:visible" version="1.0"><defs><linearGradient xlink:href="#a" id="o" x1="94.344" x2="86.536" y1="102.345" y2="94.537" gradientUnits="userSpaceOnUse"/><linearGradient xlink:href="#b" id="p" x1="95" x2="86.587" y1="103" y2="94.587" gradientUnits="userSpaceOnUse"/><linearGradient xlink:href="#c" id="q" x1="95" x2="87.293" y1="103" y2="95.293" gradientUnits="userSpaceOnUse"/><linearGradient xlink:href="#d" id="r" x1="96" x2="88" y1="104" y2="96" gradientUnits="userSpaceOnUse"/><linearGradient id="g" x1="-84.002" x2="-12.003" y1="-383.997" y2="-383.997" gradientTransform="rotate(90 -90 50.002)" gradientUnits="userSpaceOnUse"><stop offset="0" style="stop-color:#8c0000;stop-opacity:1"/><stop offset="1" style="stop-color:#bf0000;stop-opacity:1"/></linearGradient><linearGradient id="h" x1="-84.002" x2="-12.003" y1="-383.997" y2="-383.997" gradientTransform="rotate(90 -90 50.002)" gradientUnits="userSpaceOnUse"><stop offset="0" style="stop-color:#ffbe00;stop-opacity:1"/><stop offset="1" style="stop-color:#f5d600;stop-opacity:0"/></linearGradient><linearGradient id="i"><stop offset="0" style="stop-color:red;stop-opacity:1"/><stop offset="1" style="stop-color:#650000;stop-opacity:1"/></linearGradient><linearGradient id="k" x1="-84.002" x2="-23.516" y1="-383.997" y2="-383.998" gradientTransform="rotate(90 -90 50.002)" gradientUnits="userSpaceOnUse"><stop offset="0" style="stop-color:#fff;stop-opacity:1"/><stop offset="1" style="stop-color:#fff;stop-opacity:0"/></linearGradient><linearGradient id="j"><stop offset="0" style="stop-color:#4d0000;stop-opacity:0"/><stop offset=".5" style="stop-color:#4d0000;stop-opacity:1"/><stop offset="1" style="stop-color:#4d0000;stop-opacity:0"/></linearGradient><linearGradient xlink:href="#g" id="t" x1="-86.12" x2="-56.358" y1="-381.099" y2="-373.124" gradientTransform="rotate(90 -90 50.002)" gradientUnits="userSpaceOnUse"/><linearGradient xlink:href="#i" id="w" x1="328.124" x2="336.981" y1="120.812" y2="87.759" gradientUnits="userSpaceOnUse"/><linearGradient xlink:href="#j" id="y" x1="117.816" x2="90.538" y1="103.013" y2="76.634" gradientTransform="translate(20 -56)" gradientUnits="userSpaceOnUse"/><linearGradient xlink:href="#k" id="x" x1="-80.003" x2="-45.097" y1="-131.931" y2="-131.931" gradientTransform="matrix(0 .73958 -.73958 0 -1.656 63.32)" gradientUnits="userSpaceOnUse"/><radialGradient xlink:href="#e" id="n" cx="102" cy="112.305" r="139.559" gradientTransform="matrix(.97872 0 0 .98182 1.362 1.164)" gradientUnits="userSpaceOnUse"/><radialGradient xlink:href="#f" id="m" cx="102" cy="112.305" r="139.559" gradientUnits="userSpaceOnUse"/><radialGradient xlink:href="#h" id="u" cx="345.808" cy="85.25" r="36" fx="345.808" fy="85.25" gradientTransform="matrix(.66629 -.65601 .98938 1.00487 31.056 226.438)" gradientUnits="userSpaceOnUse"/><filter id="s"><feGaussianBlur stdDeviation="2.16"/></filter><filter id="l"><feGaussianBlur stdDeviation="1.039"/></filter><clipPath id="v"><circle cx="343.999" cy="92" r="36" style="fill:url(#linearGradient5167);fill-opacity:1"/></clipPath></defs><radialGradient id="f" cx="102" cy="112.305" r="139.559" gradientUnits="userSpaceOnUse"><stop offset="0" style="stop-color:#00537d;stop-opacity:1"/><stop offset=".015" style="stop-color:#186389;stop-opacity:1"/><stop offset=".056" style="stop-color:#558ca8;stop-opacity:1"/><stop offset=".096" style="stop-color:#89afc3;stop-opacity:1"/><stop offset=".136" style="stop-color:#b3ccd8;stop-opacity:1"/><stop offset=".174" style="stop-color:#d4e2e9;stop-opacity:1"/><stop offset=".21" style="stop-color:#ecf2f5;stop-opacity:1"/><stop offset=".243" style="stop-color:#fafcfd;stop-opacity:1"/><stop offset=".272" style="stop-color:#fff;stop-opacity:1"/></radialGradient><radialGradient id="e" cx="102" cy="112.305" r="139.559" gradientUnits="userSpaceOnUse"><stop offset="0" style="stop-color:#535557;stop-opacity:1"/><stop offset=".114" style="stop-color:#898a8c;stop-opacity:1"/><stop offset=".203" style="stop-color:#ececec;stop-opacity:1"/><stop offset=".236" style="stop-color:#fafafa;stop-opacity:1"/><stop offset=".272" style="stop-color:#fff;stop-opacity:1"/><stop offset=".531" style="stop-color:#fafafa;stop-opacity:1"/><stop offset=".845" style="stop-color:#ebecec;stop-opacity:1"/><stop offset="1" style="stop-color:#e1e2e3;stop-opacity:1"/></radialGradient><linearGradient id="a" x1="94.344" x2="86.536" y1="102.345" y2="94.537" gradientUnits="userSpaceOnUse"><stop offset="0" style="stop-color:#fff;stop-opacity:1"/><stop offset="1" style="stop-color:#555753;stop-opacity:1"/></linearGradient><linearGradient id="b" x1="95" x2="86.587" y1="103" y2="94.587" gradientUnits="userSpaceOnUse"><stop offset="0" style="stop-color:#fff;stop-opacity:1"/><stop offset="1" style="stop-color:#555753;stop-opacity:1"/></linearGradient><linearGradient id="c" x1="95" x2="87.293" y1="103" y2="95.293" gradientUnits="userSpaceOnUse"><stop offset="0" style="stop-color:#fff;stop-opacity:1"/><stop offset="1" style="stop-color:#393b38;stop-opacity:1"/></linearGradient><linearGradient id="d" x1="96" x2="88" y1="104" y2="96" gradientUnits="userSpaceOnUse"><stop offset="0" style="stop-color:#888a85;stop-opacity:1"/><stop offset=".007" style="stop-color:#8c8e89;stop-opacity:1"/><stop offset=".067" style="stop-color:#abaca9;stop-opacity:1"/><stop offset=".135" style="stop-color:#c5c6c4;stop-opacity:1"/><stop offset=".211" style="stop-color:#dbdbda;stop-opacity:1"/><stop offset=".301" style="stop-color:#ebebeb;stop-opacity:1"/><stop offset=".412" style="stop-color:#f7f7f6;stop-opacity:1"/><stop offset=".568" style="stop-color:#fdfdfd;stop-opacity:1"/><stop offset="1" style="stop-color:#fff;stop-opacity:1"/></linearGradient><path d="m23 9 .04 112h61.132a2 2 0 0 0 1.414-.586l32.828-32.828a2 2 0 0 0 .586-1.414V9H23z" style="opacity:.5;fill:#000;fill-opacity:1;filter:url(#l)" transform="matrix(1.04167 0 0 1.03571 -9.958 -3.322)"/><path d="M16 8v112h61.172a2 2 0 0 0 1.414-.586l32.828-32.828a2 2 0 0 0 .586-1.414V8H16z" style="fill:url(#m)"/><path d="M18.979 10c-.54 0-.979.44-.979.982v106.036c0 .542.44.982.979.982h57.913a.98.98 0 0 0 .692-.288l32.13-32.23a.988.988 0 0 0 .286-.695V10.982a.981.981 0 0 0-.979-.982H18.98z" style="fill:url(#n);fill-opacity:1"/><path d="M111.414 86.586C111.664 86.336 93.035 93 88 93c-1.654 0-3 1.346-3 3 0 5.035-6.664 23.664-6.414 23.414l32.828-32.828z" style="opacity:.1;fill:url(#o)"/><path d="M111.414 86.586C111.789 86.211 97.444 94 88 94c-1.103 0-2 .897-2 2 0 9.444-7.789 23.789-7.414 23.414l32.828-32.828z" style="opacity:.1;fill:url(#p)"/><path d="M111.414 86.586C111.653 86.347 97.807 95 88 95a1 1 0 0 0-1 1c0 9.807-8.653 23.653-8.414 23.414l32.828-32.828z" style="opacity:.1;fill:url(#q)"/><path d="M78.586 119.414S90.5 109.5 96 104c5.5-5.5 15.414-17.414 15.414-17.414S98.25 96 88 96c0 10.25-9.414 23.414-9.414 23.414z" style="fill:url(#r)"/><g transform="translate(-6)"><circle cx="343.999" cy="92" r="36" style="opacity:.5;fill:#000;fill-opacity:1;filter:url(#s)" transform="scale(-.8887) rotate(-15 -385.262 1742.466)"/><circle cx="343.999" cy="92" r="36" style="fill:url(#t);fill-opacity:1" transform="rotate(165 204.277 43.111) scale(.88962)"/><circle cx="343.999" cy="92" r="36" style="fill:url(#u);fill-opacity:1;filter:url(#filter3162)" transform="scale(-.66722) rotate(-15 -431.657 1874.718)"/><circle cx="343.999" cy="92" r="36" clip-path="url(#v)" style="opacity:.8;fill:none;stroke:url(#w);stroke-width:6.75138187;stroke-miterlimit:4;stroke-dasharray:none;stroke-opacity:1;filter:url(#filter7317-4)" transform="scale(-.88962 .88962) rotate(-15 -94.59 1780.162)"/><path d="M95.967 4.152c-11.357 0-20.847 8.02-23.135 18.698 4.56 4.25 13.21 7.118 23.135 7.118s18.576-2.868 23.135-7.118c-2.287-10.678-11.778-18.698-23.135-18.698Z" style="opacity:.8;fill:url(#x);fill-opacity:1"/><path d="M118 16v16h-16v8h16v16h8V40h16v-8h-16V16z" style="fill:none;stroke:url(#y);stroke-width:4;stroke-linecap:round;stroke-linejoin:round;stroke-miterlimit:4;stroke-opacity:1;filter:url(#filter5943-3)" transform="rotate(45 113.88 2.459) scale(1.00103)"/><path d="M118 16v16h-16v8h16v16h8V40h16v-8h-16V16z" style="fill:#fff;fill-opacity:1;fill-rule:evenodd;stroke:none" transform="rotate(45 113.88 2.459) scale(1.00103)"/></g></svg>