<svg xmlns="http://www.w3.org/2000/svg" xmlns:xlink="http://www.w3.org/1999/xlink" width="128" height="128" enable-background="new"><defs><linearGradient id="a"><stop offset="0" stop-color="#fff"/><stop offset="1" stop-color="#fff" stop-opacity="0"/></linearGradient><linearGradient id="d"><stop offset="0" stop-color="#fff"/><stop offset=".5" stop-color="#fff" stop-opacity=".504"/><stop offset="1" stop-color="#fff"/></linearGradient><linearGradient id="f"><stop offset="0"/><stop offset="1" stop-opacity="0"/></linearGradient><linearGradient id="c"><stop offset="0" stop-color="#fcfcfc"/><stop offset="1" stop-color="silver"/></linearGradient><linearGradient id="e"><stop offset="0" stop-color="#9fc1f2"/><stop offset=".5" stop-color="#587eb5"/><stop offset="1" stop-color="#0c2a58"/></linearGradient><linearGradient xlink:href="#d" id="t" x1="43.714" x2="18.252" y1="11.362" y2="21.729" gradientUnits="userSpaceOnUse"/><linearGradient xlink:href="#d" id="v" x1="52.722" x2="38.628" y1="17.797" y2="22.658" gradientUnits="userSpaceOnUse"/><linearGradient id="y" x1="114.296" x2="114.296" y1="49.937" y2="61.877" gradientUnits="userSpaceOnUse"><stop offset="0" stop-color="#fff" stop-opacity="0"/><stop offset=".325" stop-color="#fff"/><stop offset="1" stop-color="#fff" stop-opacity="0"/></linearGradient><linearGradient id="F" x1="310.85" x2="310.85" y1="-27.656" y2="270.17" gradientUnits="userSpaceOnUse"><stop offset="0"/><stop offset=".5" stop-color="#fff"/><stop offset="1" stop-color="#fff"/></linearGradient><linearGradient xlink:href="#a" id="K" x1="71.964" x2="79.398" y1="26.785" y2="63.956" gradientUnits="userSpaceOnUse"/><linearGradient xlink:href="#a" id="R" x1="63.557" x2="62.234" y1="67.196" y2="51.361" gradientUnits="userSpaceOnUse"/><linearGradient xlink:href="#a" id="A" x1="63.993" x2="63.993" y1="80.37" y2="66.132" gradientUnits="userSpaceOnUse"/><linearGradient xlink:href="#a" id="q" x1="62.907" x2="62.991" y1="3.391" y2="9.394" gradientUnits="userSpaceOnUse"/><linearGradient xlink:href="#f" id="p" x1="53.469" x2="52.469" y1="-13.033" y2="167.967" gradientUnits="userSpaceOnUse"/><linearGradient id="h" x1="64" x2="64" y1="81.5" y2="12.678" gradientUnits="userSpaceOnUse" spreadMethod="reflect"><stop offset="0" stop-color="#b4b4b4"/><stop offset=".5" stop-color="#d1d1d1"/><stop offset="1" stop-color="#fafafa"/></linearGradient><linearGradient xlink:href="#f" id="g" x1="90" x2="80" y1="128.8" y2="23.8" gradientUnits="userSpaceOnUse"/><filter id="m"><feGaussianBlur stdDeviation="1.283"/></filter><filter id="r"><feGaussianBlur stdDeviation=".023"/></filter><filter id="u"><feGaussianBlur stdDeviation=".093"/></filter><filter id="x" width="1.226" height="1.133" x="-.113" y="-.067"><feGaussianBlur stdDeviation=".133"/></filter><filter id="z"><feGaussianBlur stdDeviation=".204"/></filter><filter id="C"><feGaussianBlur stdDeviation=".487"/></filter><filter id="D"><feGaussianBlur stdDeviation=".124"/></filter><filter id="B"><feGaussianBlur stdDeviation=".119"/></filter><filter id="E"><feGaussianBlur stdDeviation=".07"/></filter><filter id="G"><feGaussianBlur stdDeviation=".114"/></filter><filter id="L" width="1.128" height="1.244" x="-.064" y="-.122"><feGaussianBlur stdDeviation="1.196"/></filter><filter id="O"><feGaussianBlur stdDeviation=".261"/></filter><filter id="Q"><feGaussianBlur stdDeviation=".174"/></filter><radialGradient xlink:href="#a" id="b" cx="-84" cy="64" r="60" gradientUnits="userSpaceOnUse"/><radialGradient xlink:href="#a" id="l" cx="94.819" cy="67.895" r="43.734" gradientTransform="matrix(1 0 0 .57806 0 -101.847)" gradientUnits="userSpaceOnUse"/><radialGradient id="i" cx="-1.249" cy="23.725" r="60" fy="61.404" gradientTransform="matrix(1.35814 1.5026 -1.63333 1.4763 -61.052 -44.648)" gradientUnits="userSpaceOnUse"><stop offset="0" stop-opacity="0"/><stop offset=".611" stop-opacity="0"/><stop offset=".685" stop-opacity=".378"/><stop offset=".75" stop-opacity="0"/><stop offset="1" stop-opacity="0"/></radialGradient><radialGradient xlink:href="#a" id="n" cx="89.561" cy="80.488" r="43.734" gradientTransform="matrix(1 0 0 .57806 0 -101.847)" gradientUnits="userSpaceOnUse"/><radialGradient id="s" cx="54.673" cy="6.85" r="1.289" fx="54.046" fy="6.341" gradientTransform="matrix(1 0 0 1.90196 0 -6.178)" gradientUnits="userSpaceOnUse"><stop offset="0" stop-color="#fff"/><stop offset=".5" stop-color="#fff" stop-opacity=".791"/><stop offset="1" stop-color="#fff" stop-opacity="0"/></radialGradient><radialGradient id="w" cx="54.673" cy="6.85" r="1.289" gradientTransform="matrix(1 0 0 1.90196 0 -6.178)" gradientUnits="userSpaceOnUse"><stop offset="0" stop-color="#474747"/><stop offset="1" stop-color="#474747" stop-opacity="0"/></radialGradient><radialGradient xlink:href="#e" id="H" cx="64.101" cy="61.471" r="22.686" fx="63.292" fy="74.816" gradientTransform="matrix(.78608 0 0 .75043 13.713 14.534)" gradientUnits="userSpaceOnUse"/><radialGradient xlink:href="#e" id="I" cx="64.101" cy="61.471" r="22.686" fx="76.597" fy="74.429" gradientTransform="matrix(.9145 0 0 .87302 5.48 6.999)" gradientUnits="userSpaceOnUse"/><radialGradient id="M" cx="267.425" cy="81.257" r="23.279" gradientTransform="matrix(.96798 -.10755 .27638 2.48745 -15.585 -92.434)" gradientUnits="userSpaceOnUse"><stop offset="0" stop-color="#d7d7d7"/><stop offset="1" stop-color="#fff"/></radialGradient><radialGradient xlink:href="#a" id="o" cx="64" cy="64" r="60" gradientUnits="userSpaceOnUse"/><clipPath id="k"><path d="M76.906-70.062C73.994-66.09 69.3-63.5 64-63.5a15.96 15.96 0 0 1-12.219-5.656c-23.14-4.286-26.617 14.04-31.5 30.75.41.434.807.864 1.282 1.344 2.327 2.302 3.945 3.677 6.562 5.656.789.572 1.783.685 2.469 0l7.093-6.25a2.1 2.1 0 0 1 2.376-.25l.093-.094A47.826 47.826 0 0 0 51.5-33.312v.156c.736.209 1.44.859 1.531 1.844l.594 9.437c0 .97.788 1.597 1.75 1.75 3.25.451 5.351.608 8.625.625 3.274-.017 5.376-.174 8.625-.625.962-.153 1.75-.78 1.75-1.75l.594-9.437a2.111 2.111 0 0 1 1.531-1.844v-.156A47.826 47.826 0 0 0 87.844-38l.094.094a2.1 2.1 0 0 1 2.374.25l7.094 6.25c.686.685 1.68.572 2.469 0 2.617-1.979 4.235-3.354 6.563-5.656.485-.491.895-.932 1.312-1.375 3.924-7.087-25.61-43.435-30.844-31.625z"/></clipPath><clipPath id="J"><path d="M99.41 39.357a40.03 20.015 0 1 1-80.06 0 40.03 20.015 0 1 1 80.06 0z"/></clipPath><clipPath id="P"><path d="M151.429 45.295a10.1 10.1 0 0 0-9.704 10.098V80.64a10.1 10.1 0 0 0 14.595 8.993l25.246-12.622a10.1 10.1 0 0 0 0-17.988L156.32 46.4a10.1 10.1 0 0 0-4.891-1.104z"/></clipPath><clipPath id="N"><path d="M200.162 45.295a10.1 10.1 0 0 0-9.704 10.098V80.64a10.1 10.1 0 0 0 14.595 8.993L230.3 77.01a10.1 10.1 0 0 0 0-17.988L205.053 46.4a10.1 10.1 0 0 0-4.891-1.104z"/></clipPath><mask id="j" maskUnits="userSpaceOnUse"><path fill="url(#b)" d="M-84 4c-3.274.017-5.376.174-8.625.625-.962.153-1.75.78-1.75 1.75l-.594 9.438c-.088.955-.756 1.584-1.468 1.812-.022.007-.041.025-.063.031a47.864 47.864 0 0 0-11.625 4.813 2.08 2.08 0 0 1-2.188-.313l-7.093-6.25c-.686-.685-1.68-.572-2.469 0-2.617 1.979-4.235 3.354-6.563 5.656-2.302 2.328-3.677 3.946-5.656 6.563-.572.789-.685 1.783 0 2.469l6.25 7.093c.474.571.736 1.31.469 1.844l-.063.125a47.614 47.614 0 0 0-5.124 12.313c-.012.02-.02.042-.032.062a2.074 2.074 0 0 1-1.594 1l-9.437.594c-.97 0-1.597.788-1.75 1.75-.451 3.25-.608 5.351-.625 8.625.017 3.274.174 5.376.625 8.625.153.962.78 1.75 1.75 1.75l9.438.594c.867.08 1.443.646 1.718 1.281a47.59 47.59 0 0 0 4.875 11.688 2.1 2.1 0 0 1-.25 2.374l-6.25 7.094c-.685.686-.572 1.68 0 2.469 1.979 2.617 3.354 4.235 5.656 6.563 2.328 2.302 3.946 3.677 6.563 5.656.789.572 1.783.685 2.469 0l7.094-6.25a2.1 2.1 0 0 1 2.374-.25l.094-.094a47.826 47.826 0 0 0 11.344 4.688v.156c.736.209 1.44.859 1.531 1.844l.594 9.437c0 .97.788 1.597 1.75 1.75 3.25.451 5.351.608 8.625.625 3.274-.017 5.376-.174 8.625-.625.962-.153 1.75-.78 1.75-1.75l.594-9.438a2.111 2.111 0 0 1 1.531-1.843v-.156a47.826 47.826 0 0 0 11.344-4.688l.094.094a2.1 2.1 0 0 1 2.375.25l7.093 6.25c.686.685 1.68.572 2.469 0 2.617-1.979 4.235-3.354 6.563-5.656 2.302-2.328 3.677-3.946 5.656-6.563.572-.789.685-1.783 0-2.469l-6.25-7.094a2.1 2.1 0 0 1-.25-2.374 47.59 47.59 0 0 0 4.875-11.688c.275-.635.851-1.2 1.719-1.281l9.437-.594c.97 0 1.597-.788 1.75-1.75.451-3.25.608-5.351.625-8.625-.017-3.274-.174-5.376-.625-8.625-.153-.962-.78-1.75-1.75-1.75l-9.437-.594a2.074 2.074 0 0 1-1.594-1c-.006-.022-.026-.04-.031-.062-1.13-4.376-3.152-8.365-5.125-12.313l-.063-.125c-.267-.535-.005-1.273.469-1.843l6.25-7.094c.685-.686.572-1.68 0-2.469-1.979-2.617-3.354-4.235-5.656-6.563-2.328-2.302-3.946-3.677-6.563-5.656-.789-.572-1.783-.685-2.469 0l-7.093 6.25a2.08 2.08 0 0 1-2.188.313A47.864 47.864 0 0 0-71.5 17.656c-.022-.006-.04-.024-.062-.031-.713-.228-1.38-.857-1.47-1.813l-.593-9.437c0-.97-.788-1.597-1.75-1.75-3.25-.451-5.351-.608-8.625-.625zm0 44c8.832 0 16 7.168 16 16s-7.168 16-16 16-16-7.168-16-16 7.168-16 16-16z"/></mask></defs><path d="M64 4c-3.274.017-5.376.174-8.625.625-.962.153-1.75.78-1.75 1.75l-.594 9.438c-.088.955-.756 1.584-1.468 1.812-.022.007-.041.025-.063.031a47.864 47.864 0 0 0-11.625 4.813 2.08 2.08 0 0 1-2.187-.313l-7.094-6.25c-.686-.685-1.68-.572-2.469 0-2.617 1.979-4.235 3.354-6.562 5.656-2.303 2.328-3.678 3.946-5.657 6.563-.572.789-.685 1.783 0 2.469l6.25 7.093c.474.571.736 1.31.469 1.844l-.062.125a47.614 47.614 0 0 0-5.125 12.313c-.012.02-.02.042-.032.062a2.074 2.074 0 0 1-1.593 1l-9.438.594c-.97 0-1.597.788-1.75 1.75C4.174 58.625 4.017 60.726 4 64c.017 3.274.174 5.376.625 8.625.153.962.78 1.75 1.75 1.75l9.438.594c.867.08 1.443.646 1.718 1.281a47.59 47.59 0 0 0 4.875 11.688 2.1 2.1 0 0 1-.25 2.374l-6.25 7.094c-.685.686-.572 1.68 0 2.469 1.979 2.617 3.354 4.235 5.657 6.563 2.327 2.302 3.945 3.677 6.562 5.656.789.572 1.783.685 2.469 0l7.094-6.25a2.1 2.1 0 0 1 2.375-.25l.093-.094a47.826 47.826 0 0 0 11.344 4.688v.156c.736.209 1.44.859 1.531 1.844l.594 9.437c0 .97.788 1.597 1.75 1.75 3.25.451 5.351.608 8.625.625 3.274-.017 5.376-.174 8.625-.625.962-.153 1.75-.78 1.75-1.75l.594-9.438a2.111 2.111 0 0 1 1.531-1.843v-.156a47.826 47.826 0 0 0 11.344-4.688l.094.094a2.1 2.1 0 0 1 2.375.25l7.093 6.25c.686.685 1.68.572 2.469 0 2.617-1.979 4.235-3.354 6.563-5.656 2.302-2.328 3.677-3.946 5.656-6.563.572-.789.685-1.783 0-2.469l-6.25-7.094a2.1 2.1 0 0 1-.25-2.374 47.59 47.59 0 0 0 4.875-11.688c.275-.635.851-1.2 1.719-1.281l9.437-.594c.97 0 1.597-.788 1.75-1.75.451-3.25.608-5.351.625-8.625-.017-3.274-.174-5.376-.625-8.625-.153-.962-.78-1.75-1.75-1.75l-9.438-.594a2.074 2.074 0 0 1-1.593-1c-.006-.022-.026-.04-.031-.062-1.13-4.376-3.152-8.365-5.126-12.313l-.062-.125c-.267-.535-.005-1.273.469-1.843l6.25-7.094c.685-.686.572-1.68 0-2.469-1.979-2.617-3.354-4.235-5.656-6.563-2.328-2.302-3.946-3.677-6.563-5.656-.789-.572-1.783-.685-2.469 0l-7.093 6.25a2.08 2.08 0 0 1-2.188.313A47.864 47.864 0 0 0 76.5 17.656c-.022-.006-.04-.024-.062-.031-.713-.228-1.38-.857-1.47-1.813l-.593-9.437c0-.97-.788-1.597-1.75-1.75C69.375 4.174 67.274 4.017 64 4zm0 44c8.832 0 16 7.168 16 16s-7.168 16-16 16-16-7.168-16-16 7.168-16 16-16z" style="fill:#363636;stroke:#767676;stroke-width:2;stroke-linecap:round;stroke-linejoin:round;stroke-dashoffset:1.0878"/><path d="M63.97 4.767c-3.275.017-5.376.174-8.626.625-.962.153-1.75.78-1.75 1.75l-.593 9.437c-.089.956-.757 1.585-1.47 1.813-.021.007-.04.025-.062.031a47.864 47.864 0 0 0-11.625 4.813 2.08 2.08 0 0 1-2.187-.313l-7.094-6.25c-.685-.685-1.68-.572-2.469 0-2.616 1.979-4.235 3.354-6.562 5.656-2.303 2.328-3.678 3.946-5.656 6.563-.572.788-.686 1.783 0 2.469l6.25 7.093c.473.57.736 1.31.468 1.844l-.062.125a47.614 47.614 0 0 0-5.125 12.313c-.012.02-.019.042-.031.062a2.074 2.074 0 0 1-1.594 1l-9.438.594c-.97 0-1.596.788-1.75 1.75-.45 3.25-.607 5.351-.625 8.625.018 3.274.174 5.376.625 8.625.154.962.78 1.75 1.75 1.75l9.438.594c.867.08 1.443.646 1.719 1.28a47.59 47.59 0 0 0 4.875 11.688 2.1 2.1 0 0 1-.25 2.375l-6.25 7.094c-.686.686-.572 1.68 0 2.469 1.978 2.616 3.353 4.235 5.656 6.562 2.327 2.303 3.946 3.678 6.562 5.657.789.572 1.784.685 2.47 0l7.093-6.25a2.1 2.1 0 0 1 2.375-.25l.094-.094a47.826 47.826 0 0 0 11.343 4.687v.157c.737.209 1.44.859 1.532 1.843l.593 9.438c0 .97.788 1.597 1.75 1.75 3.25.451 5.351.608 8.625.625 3.274-.017 5.376-.174 8.625-.625.962-.153 1.75-.78 1.75-1.75l.594-9.438a2.111 2.111 0 0 1 1.531-1.843v-.157a47.826 47.826 0 0 0 11.344-4.687l.094.094a2.1 2.1 0 0 1 2.375.25l7.094 6.25c.685.685 1.68.572 2.468 0 2.617-1.979 4.236-3.354 6.563-5.657 2.303-2.327 3.677-3.946 5.656-6.562.572-.789.686-1.783 0-2.469l-6.25-7.094a2.1 2.1 0 0 1-.25-2.375 47.59 47.59 0 0 0 4.875-11.687c.275-.635.851-1.201 1.719-1.281l9.437-.594c.97 0 1.597-.788 1.75-1.75.451-3.25.608-5.351.625-8.625-.017-3.274-.174-5.376-.625-8.625-.153-.962-.78-1.75-1.75-1.75l-9.437-.594a2.074 2.074 0 0 1-1.594-1c-.006-.022-.026-.04-.031-.062-1.13-4.377-3.151-8.365-5.125-12.313l-.063-.125c-.267-.535-.005-1.273.47-1.844l6.25-7.093c.685-.686.571-1.68 0-2.47-1.98-2.616-3.354-4.234-5.657-6.562-2.327-2.302-3.946-3.677-6.563-5.656-.788-.572-1.783-.685-2.468 0l-7.094 6.25a2.08 2.08 0 0 1-2.188.313 47.864 47.864 0 0 0-11.625-4.813c-.022-.006-.04-.024-.062-.031-.712-.228-1.38-.857-1.469-1.813l-.594-9.437c0-.97-.788-1.597-1.75-1.75-3.249-.451-5.35-.608-8.625-.625z" style="fill:none;stroke-linecap:round;stroke-linejoin:round;stroke-dashoffset:1.0878;stroke:url(#g);filter:url(#filter6444)"/><path fill="url(#h)" d="M64 4c-3.274.017-5.376.174-8.625.625-.962.153-1.75.78-1.75 1.75l-.594 9.438c-.088.955-.756 1.584-1.468 1.812-.022.007-.041.025-.063.031a47.864 47.864 0 0 0-11.625 4.813 2.08 2.08 0 0 1-2.187-.313l-7.094-6.25c-.686-.685-1.68-.572-2.469 0-2.617 1.979-4.235 3.354-6.562 5.656-2.303 2.328-3.678 3.946-5.657 6.563-.572.789-.685 1.783 0 2.469l6.25 7.093c.474.571.736 1.31.469 1.844l-.062.125a47.614 47.614 0 0 0-5.125 12.313c-.012.02-.02.042-.032.062a2.074 2.074 0 0 1-1.593 1l-9.438.594c-.97 0-1.597.788-1.75 1.75C4.174 58.625 4.017 60.726 4 64c.017 3.274.174 5.376.625 8.625.153.962.78 1.75 1.75 1.75l9.438.594c.867.08 1.443.646 1.718 1.281a47.59 47.59 0 0 0 4.875 11.688 2.1 2.1 0 0 1-.25 2.375l-6.25 7.093c-.685.686-.572 1.68 0 2.469 1.979 2.617 3.354 4.235 5.657 6.563 2.327 2.302 3.945 3.677 6.562 5.656.789.572 1.783.685 2.469 0l7.094-6.25a2.1 2.1 0 0 1 2.375-.25l.093-.094a47.826 47.826 0 0 0 11.344 4.688v.156c.736.209 1.44.859 1.531 1.844l.594 9.437c0 .97.788 1.597 1.75 1.75 3.25.451 5.351.608 8.625.625 3.274-.017 5.376-.174 8.625-.625.962-.153 1.75-.78 1.75-1.75l.594-9.438a2.111 2.111 0 0 1 1.531-1.843v-.156a47.826 47.826 0 0 0 11.344-4.688l.094.094a2.1 2.1 0 0 1 2.375.25l7.093 6.25c.686.685 1.68.572 2.469 0 2.617-1.979 4.235-3.354 6.562-5.656 2.303-2.328 3.678-3.946 5.657-6.563.572-.789.685-1.783 0-2.469l-6.25-7.093a2.1 2.1 0 0 1-.25-2.375 47.59 47.59 0 0 0 4.875-11.688c.275-.635.851-1.2 1.718-1.281l9.438-.594c.97 0 1.597-.788 1.75-1.75.451-3.25.608-5.351.625-8.625-.017-3.274-.174-5.376-.625-8.625-.153-.962-.78-1.75-1.75-1.75l-9.438-.594a2.074 2.074 0 0 1-1.593-1c-.006-.022-.026-.04-.032-.062-1.13-4.376-3.15-8.365-5.125-12.313l-.062-.125c-.267-.535-.005-1.273.469-1.843l6.25-7.094c.685-.686.572-1.68 0-2.469-1.979-2.617-3.354-4.235-5.657-6.563-2.327-2.302-3.945-3.677-6.562-5.656-.789-.572-1.783-.685-2.469 0l-7.093 6.25a2.08 2.08 0 0 1-2.188.313A47.864 47.864 0 0 0 76.5 17.656c-.022-.006-.04-.024-.062-.031-.713-.228-1.38-.857-1.47-1.813l-.593-9.437c0-.97-.788-1.597-1.75-1.75C69.375 4.174 67.274 4.017 64 4zm0 44c8.832 0 16 7.168 16 16s-7.168 16-16 16-16-7.168-16-16 7.168-16 16-16z"/><path fill="url(#i)" d="M-84 4c-3.274.017-5.376.174-8.625.625-.962.153-1.75.78-1.75 1.75l-.594 9.438c-.088.955-.756 1.584-1.468 1.812-.022.007-.041.025-.063.031a47.864 47.864 0 0 0-11.625 4.813 2.08 2.08 0 0 1-2.188-.313l-7.093-6.25c-.686-.685-1.68-.572-2.469 0-2.617 1.979-4.235 3.354-6.563 5.656-2.302 2.328-3.677 3.946-5.656 6.563-.572.789-.685 1.783 0 2.469l6.25 7.093c.474.571.736 1.31.469 1.844l-.063.125a47.614 47.614 0 0 0-5.124 12.313c-.012.02-.02.042-.032.062a2.074 2.074 0 0 1-1.594 1l-9.437.594c-.97 0-1.597.788-1.75 1.75-.451 3.25-.608 5.351-.625 8.625.017 3.274.174 5.376.625 8.625.153.962.78 1.75 1.75 1.75l9.438.594c.867.08 1.443.646 1.718 1.281a47.59 47.59 0 0 0 4.875 11.688 2.1 2.1 0 0 1-.25 2.374l-6.25 7.094c-.685.686-.572 1.68 0 2.469 1.979 2.617 3.354 4.235 5.656 6.563 2.328 2.302 3.946 3.677 6.563 5.656.789.572 1.783.685 2.469 0l7.094-6.25a2.1 2.1 0 0 1 2.374-.25l.094-.094a47.826 47.826 0 0 0 11.344 4.688v.156c.736.209 1.44.859 1.531 1.844l.594 9.437c0 .97.788 1.597 1.75 1.75 3.25.451 5.351.608 8.625.625 3.274-.017 5.376-.174 8.625-.625.962-.153 1.75-.78 1.75-1.75l.594-9.438a2.111 2.111 0 0 1 1.531-1.843v-.156a47.826 47.826 0 0 0 11.344-4.688l.094.094a2.1 2.1 0 0 1 2.375.25l7.093 6.25c.686.685 1.68.572 2.469 0 2.617-1.979 4.235-3.354 6.563-5.656 2.302-2.328 3.677-3.946 5.656-6.563.572-.789.685-1.783 0-2.469l-6.25-7.094a2.1 2.1 0 0 1-.25-2.374 47.59 47.59 0 0 0 4.875-11.688c.275-.635.851-1.2 1.719-1.281l9.437-.594c.97 0 1.597-.788 1.75-1.75.451-3.25.608-5.351.625-8.625-.017-3.274-.174-5.376-.625-8.625-.153-.962-.78-1.75-1.75-1.75l-9.437-.594a2.074 2.074 0 0 1-1.594-1c-.006-.022-.026-.04-.031-.062-1.13-4.376-3.152-8.365-5.125-12.313l-.063-.125c-.267-.535-.005-1.273.469-1.843l6.25-7.094c.685-.686.572-1.68 0-2.469-1.979-2.617-3.354-4.235-5.656-6.563-2.328-2.302-3.946-3.677-6.563-5.656-.789-.572-1.783-.685-2.469 0l-7.093 6.25a2.08 2.08 0 0 1-2.188.313A47.864 47.864 0 0 0-71.5 17.656c-.022-.006-.04-.024-.062-.031-.713-.228-1.38-.857-1.47-1.813l-.593-9.437c0-.97-.788-1.597-1.75-1.75-3.25-.451-5.351-.608-8.625-.625zm0 44c8.832 0 16 7.168 16 16s-7.168 16-16 16-16-7.168-16-16 7.168-16 16-16z" mask="url(#j)" transform="translate(148)"/><path fill="url(#l)" d="M76.906-70.062C73.994-66.09 69.3-63.5 64-63.5a15.96 15.96 0 0 1-12.219-5.656l-31.5 30.75c.41.434.807.864 1.282 1.344 2.327 2.302 3.945 3.677 6.562 5.656.789.572 1.783.685 2.469 0l7.093-6.25a2.1 2.1 0 0 1 2.376-.25l.093-.094A47.826 47.826 0 0 0 51.5-33.312v.156c.736.209 1.44.859 1.531 1.844l.594 9.437c0 .97.788 1.597 1.75 1.75 3.25.451 5.351.608 8.625.625 3.274-.017 5.376-.174 8.625-.625.962-.153 1.75-.78 1.75-1.75l.594-9.437a2.111 2.111 0 0 1 1.531-1.844v-.156A47.826 47.826 0 0 0 87.844-38l.094.094a2.1 2.1 0 0 1 2.374.25l7.094 6.25c.686.685 1.68.572 2.469 0 2.617-1.979 4.235-3.354 6.563-5.656.485-.491.895-.932 1.312-1.375z" clip-path="url(#k)" filter="url(#m)" opacity=".959" transform="translate(0 143.5)"/><path fill="url(#n)" d="M76.906-70.062C73.994-66.09 69.3-63.5 64-63.5a15.96 15.96 0 0 1-12.219-5.656l-31.5 30.75c.41.434.807.864 1.282 1.344 2.327 2.302 3.945 3.677 6.562 5.656.789.572 1.783.685 2.469 0l7.093-6.25a2.1 2.1 0 0 1 2.376-.25l.093-.094A47.826 47.826 0 0 0 51.5-33.312v.156c.736.209 1.44.859 1.531 1.844l.594 9.437c0 .97.788 1.597 1.75 1.75 3.25.451 5.351.608 8.625.625 3.274-.017 5.376-.174 8.625-.625.962-.153 1.75-.78 1.75-1.75l.594-9.437a2.111 2.111 0 0 1 1.531-1.844v-.156A47.826 47.826 0 0 0 87.844-38l.094.094a2.1 2.1 0 0 1 2.374.25l7.094 6.25c.686.685 1.68.572 2.469 0 2.617-1.979 4.235-3.354 6.563-5.656.485-.491.895-.932 1.312-1.375z" clip-path="url(#k)" filter="url(#m)" opacity=".992" transform="rotate(180 63.994 -7.746)"/><path fill="url(#o)" d="M64 4c-3.274.017-5.376.174-8.625.625-.962.153-1.75.78-1.75 1.75l-.594 9.438c-.088.955-.756 1.584-1.468 1.812-.022.007-.041.025-.063.031a47.864 47.864 0 0 0-11.625 4.813 2.08 2.08 0 0 1-2.187-.313l-7.094-6.25c-.686-.685-1.68-.572-2.469 0-2.617 1.979-4.235 3.354-6.562 5.656-2.303 2.328-3.678 3.946-5.657 6.563-.572.789-.685 1.783 0 2.469l6.25 7.093c.474.571.736 1.31.469 1.844l-.062.125a47.614 47.614 0 0 0-5.125 12.313c-.012.02-.02.042-.032.062a2.074 2.074 0 0 1-1.593 1l-9.438.594c-.97 0-1.597.788-1.75 1.75C4.174 58.625 4.017 60.726 4 64c.017 3.274.174 5.376.625 8.625.153.962.78 1.75 1.75 1.75l9.438.594c.867.08 1.443.646 1.718 1.281a47.59 47.59 0 0 0 4.875 11.688 2.1 2.1 0 0 1-.25 2.374l-6.25 7.094c-.685.686-.572 1.68 0 2.469 1.979 2.617 3.354 4.235 5.657 6.563 2.327 2.302 3.945 3.677 6.562 5.656.789.572 1.783.685 2.469 0l7.094-6.25a2.1 2.1 0 0 1 2.375-.25l.093-.094a47.826 47.826 0 0 0 11.344 4.688v.156c.736.209 1.44.859 1.531 1.844l.594 9.437c0 .97.788 1.597 1.75 1.75 3.25.451 5.351.608 8.625.625 3.274-.017 5.376-.174 8.625-.625.962-.153 1.75-.78 1.75-1.75l.594-9.438a2.111 2.111 0 0 1 1.531-1.843v-.156a47.826 47.826 0 0 0 11.344-4.688l.094.094a2.1 2.1 0 0 1 2.375.25l7.093 6.25c.686.685 1.68.572 2.469 0 2.617-1.979 4.235-3.354 6.562-5.656 2.303-2.328 3.678-3.946 5.657-6.563.572-.789.685-1.783 0-2.469l-6.25-7.094a2.1 2.1 0 0 1-.25-2.374 47.59 47.59 0 0 0 4.875-11.688c.275-.635.851-1.2 1.718-1.281l9.438-.594c.97 0 1.597-.788 1.75-1.75.451-3.25.608-5.351.625-8.625-.017-3.274-.174-5.376-.625-8.625-.153-.962-.78-1.75-1.75-1.75l-9.438-.594a2.074 2.074 0 0 1-1.593-1c-.006-.022-.026-.04-.032-.062-1.13-4.376-3.15-8.365-5.125-12.313l-.062-.125c-.267-.535-.005-1.273.469-1.843l6.25-7.094c.685-.686.572-1.68 0-2.469-1.979-2.617-3.354-4.235-5.657-6.563-2.327-2.302-3.945-3.677-6.562-5.656-.789-.572-1.783-.685-2.469 0l-7.093 6.25a2.08 2.08 0 0 1-2.188.313A47.864 47.864 0 0 0 76.5 17.656c-.022-.006-.04-.024-.062-.031-.713-.228-1.38-.857-1.47-1.813l-.593-9.437c0-.97-.788-1.597-1.75-1.75C69.375 4.174 67.274 4.017 64 4zm0 44c8.832 0 16 7.168 16 16s-7.168 16-16 16-16-7.168-16-16 7.168-16 16-16z" opacity=".732"/><path d="M63.97 3.967c-3.275.017-5.376.174-8.626.625-.962.153-1.75.78-1.75 1.75l-.593 9.437c-.089.956-.757 1.585-1.47 1.813-.021.007-.04.025-.062.031a47.864 47.864 0 0 0-11.625 4.813 2.08 2.08 0 0 1-2.187-.313l-7.094-6.25c-.685-.685-1.68-.572-2.469 0-2.616 1.979-4.235 3.354-6.562 5.656-2.303 2.328-3.678 3.946-5.656 6.563-.572.788-.686 1.783 0 2.469l6.25 7.093c.473.57.736 1.31.468 1.844l-.062.125a47.614 47.614 0 0 0-5.125 12.313c-.012.02-.019.042-.031.062a2.074 2.074 0 0 1-1.594 1l-9.438.594c-.97 0-1.596.788-1.75 1.75-.45 3.25-.607 5.351-.625 8.625.018 3.274.174 5.376.625 8.625.154.962.78 1.75 1.75 1.75l9.438.594c.867.08 1.443.646 1.719 1.28a47.59 47.59 0 0 0 4.875 11.688 2.1 2.1 0 0 1-.25 2.375l-6.25 7.094c-.686.686-.572 1.68 0 2.469 1.978 2.616 3.353 4.235 5.656 6.562 2.327 2.303 3.946 3.678 6.562 5.657.789.572 1.784.685 2.47 0l7.093-6.25a2.1 2.1 0 0 1 2.375-.25l.094-.094a47.826 47.826 0 0 0 11.343 4.687v.157c.737.209 1.44.859 1.532 1.843l.593 9.438c0 .97.788 1.597 1.75 1.75 3.25.451 5.351.608 8.625.625 3.274-.017 5.376-.174 8.625-.625.962-.153 1.75-.78 1.75-1.75l.594-9.438a2.111 2.111 0 0 1 1.531-1.843v-.157a47.826 47.826 0 0 0 11.344-4.687l.094.094a2.1 2.1 0 0 1 2.375.25l7.094 6.25c.685.685 1.68.572 2.468 0 2.617-1.979 4.236-3.354 6.563-5.657 2.303-2.327 3.677-3.946 5.656-6.562.572-.789.686-1.783 0-2.469l-6.25-7.094a2.1 2.1 0 0 1-.25-2.375 47.59 47.59 0 0 0 4.875-11.687c.275-.635.851-1.201 1.719-1.281l9.437-.594c.97 0 1.597-.788 1.75-1.75.451-3.25.608-5.351.625-8.625-.017-3.274-.174-5.376-.625-8.625-.153-.962-.78-1.75-1.75-1.75l-9.437-.594a2.074 2.074 0 0 1-1.594-1c-.006-.022-.026-.04-.031-.062-1.13-4.377-3.151-8.365-5.125-12.313l-.063-.125c-.267-.535-.005-1.273.47-1.844l6.25-7.093c.685-.686.571-1.68 0-2.47-1.98-2.616-3.354-4.234-5.657-6.562-2.327-2.302-3.946-3.677-6.563-5.656-.788-.572-1.783-.685-2.468 0l-7.094 6.25a2.08 2.08 0 0 1-2.188.313 47.864 47.864 0 0 0-11.625-4.813c-.022-.006-.04-.024-.062-.031-.712-.228-1.38-.857-1.469-1.813l-.594-9.437c0-.97-.788-1.597-1.75-1.75-3.249-.451-5.35-.608-8.625-.625zm0 44c8.831 0 16 7.168 16 16s-7.169 16-16 16-16-7.168-16-16 7.167-16 16-16z" style="fill:none;stroke-linecap:round;stroke-linejoin:round;stroke-dashoffset:1.0878;stroke:url(#p);filter:url(#filter5162)"/><path fill="#fff" d="M15.486 28.938c-.16.585-.056 1.194.407 1.656l6.25 7.093c.213.258.37.553.468.844.268-.535.005-1.273-.468-1.843l-6.25-7.094a1.596 1.596 0 0 1-.407-.657zm96.97 0a1.52 1.52 0 0 1-.376.656l-6.25 7.093c-.466.562-.715 1.28-.469 1.813.1-.28.264-.566.47-.813l6.25-7.093c.461-.462.534-1.071.374-1.657zM63.985 47c-8.832 0-16 7.168-16 16 0 .17.026.331.032.5.268-8.597 7.306-15.5 15.968-15.5 8.662 0 15.7 6.903 15.97 15.5.004-.169.03-.33.03-.5 0-8.832-7.168-16-16-16zm60 16.5c-.03 2.98-.198 5.054-.625 8.125-.153.962-.78 1.75-1.75 1.75l-9.437.594c-.868.08-1.444.646-1.719 1.281a47.59 47.59 0 0 1-4.875 11.688c-.237.425-.348.969-.219 1.5.044-.184.13-.342.22-.5a47.59 47.59 0 0 0 4.874-11.688c.275-.635.851-1.2 1.719-1.281l9.437-.594c.97 0 1.597-.788 1.75-1.75.451-3.25.608-5.351.625-8.625 0-.18.002-.327 0-.5zM4.018 65.281c.05 2.57.206 4.551.593 7.344.154.962.78 1.75 1.75 1.75l9.438.594c.867.08 1.443.646 1.719 1.281a47.59 47.59 0 0 0 4.875 11.688c.088.158.143.316.187.5.129-.531.05-1.075-.187-1.5a47.59 47.59 0 0 1-4.875-11.688c-.276-.635-.852-1.2-1.72-1.281l-9.437-.594c-.97 0-1.596-.788-1.75-1.75-.338-2.437-.52-4.22-.593-6.344zm11.468 32.781c-.18.585 0 1.251.407 1.813 1.978 2.617 3.353 4.235 5.656 6.563 2.327 2.302 3.946 3.677 6.562 5.656.789.572 1.784.685 2.47 0l7.093-6.25a2.1 2.1 0 0 1 2.375-.25l.094-.094a47.826 47.826 0 0 0 11.343 4.688v.156c.737.209 1.44.859 1.532 1.844l.593 9.437c0 .97.788 1.597 1.75 1.75 3.25.451 5.351.608 8.625.625 3.274-.017 5.376-.174 8.625-.625.962-.153 1.75-.78 1.75-1.75l.594-9.438a2.111 2.111 0 0 1 1.531-1.843v-.156A47.826 47.826 0 0 0 87.83 105.5l.094.094a2.1 2.1 0 0 1 2.375.25l7.094 6.25c.685.685 1.68.572 2.468 0 2.617-1.979 4.236-3.354 6.563-5.656 2.303-2.328 3.678-3.946 5.656-6.563.407-.562.556-1.228.375-1.813a2.45 2.45 0 0 1-.375.813c-1.978 2.617-3.353 4.235-5.656 6.563-2.327 2.302-3.946 3.677-6.563 5.656-.788.572-1.783.685-2.468 0l-7.094-6.25a2.1 2.1 0 0 0-2.375-.25l-.094-.094a47.826 47.826 0 0 1-11.344 4.688v.156c-.736.209-1.44.859-1.53 1.844l-.595 9.437c0 .97-.788 1.597-1.75 1.75-3.249.451-5.35.608-8.625.625-3.274-.017-5.375-.174-8.625-.625-.962-.153-1.75-.78-1.75-1.75l-.593-9.438a2.111 2.111 0 0 0-1.532-1.843v-.156a47.826 47.826 0 0 1-11.343-4.688l-.094.094a2.1 2.1 0 0 0-2.375.25l-7.094 6.25c-.685.685-1.68.572-2.469 0-2.616-1.979-4.235-3.354-6.562-5.656-2.303-2.328-3.678-3.946-5.656-6.563a2.54 2.54 0 0 1-.407-.813z" opacity=".732"/><path fill="url(#q)" fill-rule="evenodd" d="M55.234 4.11c4.56-.437 12.193-.604 16.944-.036 1.906.227 2.538 2.877 2.145 7.363-.028.311-.572-5.96-2.503-6.04-4.67-.195-11.68-.467-16.228 0-1.046.107-1.962 2.192-1.966 1.858-.018-1.394-.247-2.968 1.608-3.146z" filter="url(#r)"/><path fill="url(#s)" d="M55.962 6.85a1.29 2.452 0 1 1-2.578 0 1.29 2.452 0 1 1 2.578 0z" transform="rotate(25.846 56.206 6.962)"/><path fill="url(#s)" d="M55.962 6.85a1.29 2.452 0 1 1-2.578 0 1.29 2.452 0 1 1 2.578 0z" transform="scale(-1 1) rotate(25.846 -7.667 -271.411)"/><path fill="url(#t)" fill-rule="evenodd" d="M51.362 18.3c-4.048 1.238-7.86 2.71-11.526 4.9-.997.364-1.597.004-2.427-.505l-6.875-6.114c-.433-.358-1.502-.924-2.325-.202-4.572 3.96-8.216 8.205-12.234 12.335l1.49-.789c3.572-3.458 7.011-6.961 10.845-10.333.57-.472 1.422-.29 1.92.203l6.585 5.803c1.006.984 2.29 1.38 3.627.917 3.645-2.35 7.472-3.98 11.498-5.567.845-.349 1.516-1.7 1.403-2.808-.118.715-1 1.847-1.981 2.16z" filter="url(#u)"/><path fill="url(#s)" d="M55.962 6.85a1.29 2.452 0 1 1-2.578 0 1.29 2.452 0 1 1 2.578 0z" transform="matrix(.20343 1.23693 -.97909 .257 24.508 -52.47)"/><path fill="url(#v)" fill-rule="evenodd" d="M51.362 18.3c-4.048 1.238-7.86 2.71-11.526 4.9-.997.364-1.168-.497-1.998-1.006l-6.875-6.113c-.433-.358-1.93-.424-2.754.298-5.214 3.318-8.714 7.707-12.234 12.335l1.49-.789c2.483-2.864 6.004-6.412 10.845-10.333.57-.472 1.851-.79 2.35-.298l6.584 5.804c1.006.984 1.861 1.88 3.198 1.417 3.645-2.35 7.472-3.98 11.498-5.567.845-.349 1.516-1.7 1.403-2.808-.118.715-1 1.847-1.981 2.16z" filter="url(#u)" transform="matrix(-1 0 0 1 128.376 0)"/><path fill="url(#s)" d="M55.962 6.85a1.29 2.452 0 1 1-2.578 0 1.29 2.452 0 1 1 2.578 0z" transform="matrix(-.20343 1.23693 .97909 .257 103.867 -52.47)"/><path fill="url(#w)" d="M55.962 6.85a1.29 2.452 0 1 1-2.578 0 1.29 2.452 0 1 1 2.578 0z" filter="url(#x)" opacity=".32" transform="matrix(-.99469 -.48123 -.35745 .9613 168.326 49.78)"/><path fill="url(#w)" d="M55.962 6.85a1.29 2.452 0 1 1-2.578 0 1.29 2.452 0 1 1 2.578 0z" filter="url(#x)" opacity=".32" transform="matrix(.99469 -.48123 .35745 .9613 -39.944 50.082)"/><path fill="url(#y)" fill-rule="evenodd" d="M109.72 50.197c.19.736-.024 2.115.472 3.244.29.661.695 1.086 1.227 1.106 4.787.178 6.947.134 10.11.353.472.033 1.059.326 1.289 1.241.415 1.648.35 4.988.784 6.57.74 2.835.296-4.806-.05-7.103-.283-1.586-.97-2.28-1.82-2.325-3.372-.178-6.748-.065-10.414-.202-.254.033-.53-.264-.782-.694-.45-.768-.417-1.849-.815-2.19z" filter="url(#z)"/><path fill="url(#y)" fill-rule="evenodd" d="M109.72 49.697c.19.736-.024 2.115.472 3.244.29.661.695 1.086 1.227 1.106 4.787.178 6.947.634 10.11.853.472.033 1.059.326 1.289 1.241.415 1.648.35 4.988.784 6.57.74 2.835.296-4.806-.05-7.103-.283-1.586-.97-2.28-1.82-2.325-3.372-.178-6.748-.565-10.414-.702-.254.033-.53-.264-.782-.694-.45-.768-.417-1.849-.815-2.19z" filter="url(#z)" transform="matrix(-1 0 0 1 128.27 .7)"/><path fill="url(#A)" d="M48.31 64.191c-.005.159-.047.312-.047.472 0 8.676 7.077 15.707 15.754 15.707s15.707-7.03 15.707-15.707c0-.16-.043-.313-.048-.472-.228 8.478-7.127 15.282-15.66 15.282-8.532 0-15.478-6.804-15.706-15.282z" filter="url(#B)" opacity=".874"/><path fill="#565656" d="M79.676 63.99c.005-.158.048-.311.048-.471 0-8.677-7.078-15.707-15.754-15.707s-15.707 7.03-15.707 15.707c0 .16.042.313.047.471.228-8.477 7.127-15.282 15.66-15.282 8.532 0 15.478 6.805 15.706 15.282z" filter="url(#C)" opacity=".874"/><path fill="#fff" d="M80.264 64.297c.005-.165.05-.323.05-.49 0-9.001-7.343-16.295-16.345-16.295s-16.296 7.294-16.296 16.296c0 .166.044.324.049.49.237-8.797 7.394-16.271 16.247-16.271 8.852 0 16.059 7.474 16.295 16.27z" filter="url(#D)" opacity=".874"/><path fill="url(#A)" d="M48.31 64.191c-.005.159-.047.312-.047.472 0 8.676 7.077 16.707 15.754 16.707s15.707-8.03 15.707-16.707c0-.16-.043-.313-.048-.472-.228 8.478-7.127 15.282-15.66 15.282-8.532 0-15.478-6.804-15.706-15.282z" filter="url(#B)" opacity=".346"/><path fill="#fff" fill-rule="evenodd" d="M112.315 97.902c.052.557-.127 1.038-.358 1.5l-3.36 4.362 3.074-4.361c-.134-.516-.19-1.073-.5-1.501-1.786-2.201-4.06-4.32-5.076-6.65z" filter="url(#E)"/><path fill="#fff" fill-rule="evenodd" d="M112.315 97.902c.052.557-.127 1.038-.358 1.5l-3.36 4.362 3.074-4.361c-.134-.516-.19-1.073-.5-1.501-1.786-2.201-4.06-4.32-5.076-6.65z" filter="url(#E)" transform="matrix(-1 0 0 1 128.42 0)"/><path d="M366.042 108.84a55.192 55.192 0 1 1-110.384 0 55.192 55.192 0 1 1 110.384 0z" style="fill:none;stroke-width:1.697178;stroke-linecap:round;stroke-linejoin:round;stroke-dashoffset:1.0878;stroke:url(#F);filter:url(#filter3310)" transform="matrix(.58921 0 0 .58921 -119.157 -.13)"/><path fill="#343434" fill-opacity=".078" d="M64 31.469c-17.951 0-32.531 14.58-32.531 32.531S46.049 96.531 64 96.531 96.531 81.951 96.531 64 81.951 31.469 64 31.469zm0 17.937c8.05 0 14.594 6.543 14.594 14.594S72.05 78.594 64 78.594 49.406 72.05 49.406 64 55.95 49.406 64 49.406z" filter="url(#G)"/><path fill="url(#H)" d="M86.547 58.237a22.445 22.445 0 1 1-44.891 0 22.445 22.445 0 1 1 44.89 0z" transform="matrix(1.41442 0 0 1.41442 -26.682 -18.494)"/><path fill="url(#I)" d="M86.547 58.237a22.445 22.445 0 1 1-44.891 0 22.445 22.445 0 1 1 44.89 0z" transform="matrix(1.41442 0 0 1.41442 -26.682 -18.494)"/><path fill="url(#K)" d="M86.547 58.237a22.445 22.445 0 1 1-44.891 0 22.445 22.445 0 1 1 44.89 0z" clip-path="url(#J)" filter="url(#L)" transform="matrix(1.41442 0 0 1.41442 -26.682 -18.494)"/><g fill-rule="evenodd"><path fill="url(#M)" d="M249.704 45.295A10.1 10.1 0 0 0 240 55.393V80.64a10.1 10.1 0 0 0 14.595 8.993l25.246-12.622a10.1 10.1 0 0 0 0-17.988L254.595 46.4a10.1 10.1 0 0 0-4.891-1.104z" transform="translate(-114.955 16.172) scale(.68796)"/><path fill="#121212" fill-opacity=".778" d="M200.156 43.88c-5.422.213-9.69 4.668-9.687 10.094v3c-.004-5.426 4.265-9.881 9.687-10.094 1.698-.049 3.395.32 4.906 1.094l25.25 12.625a10.095 10.095 0 0 1 5.375 7.5c.075-.493.125-.992.125-1.5 0-3.794-2.12-7.274-5.5-9l-25.25-12.625a10.148 10.148 0 0 0-4.906-1.094z" clip-path="url(#N)" filter="url(#O)" transform="translate(-80.873 16.172) scale(.68796)"/><path fill="#fff" d="M186.938 67.534a10.095 10.095 0 0 1-5.375 7.5l-25.25 12.625a10.074 10.074 0 0 1-9.782-.437 10.134 10.134 0 0 1-4.812-8.563v3a10.134 10.134 0 0 0 4.812 8.563 10.074 10.074 0 0 0 9.781.437l25.25-12.625a10.104 10.104 0 0 0 5.5-9c0-.508-.05-1.006-.125-1.5z" clip-path="url(#P)" filter="url(#Q)" transform="translate(-47.328 16.172) scale(.68796)"/><path fill="url(#R)" d="M32.664 62.559c15.127 4.712 46.801 4.103 62.448-4.488l-.029-.915c-16.224 8.502-47.186 10.089-62.42 5.403z"/></g></svg>