<?xml version="1.0" encoding="UTF-8"?>
<!-- Uploaded to: SVG Repo, www.svgrepo.com, Generator: SVG Repo Mixer Tools -->
<svg width="800px" height="800px" viewBox="0 0 24 24" id="meteor-icon-kit__regular-image" fill="none" xmlns="http://www.w3.org/2000/svg"><path fill-rule="evenodd" clip-rule="evenodd" d="M2 20.4948L9.25259 12.3356C9.63485 11.9056 10.3003 11.886 10.7071 12.2929L12.7071 14.2929C12.7219 14.3077 12.7361 14.3228 12.7498 14.3382L15.2318 11.3598C15.6082 10.9081 16.2913 10.8771 16.7071 11.2929L22 16.5858V3C22 2.44772 21.5523 2 21 2H3C2.44772 2 2 2.44772 2 3V20.4948ZM3.33795 22H21C21.5523 22 22 21.5523 22 21V19.4142L16.0672 13.4814L11.7682 18.6402C11.4147 19.0645 10.7841 19.1218 10.3598 18.7682C9.93554 18.4147 9.87821 17.7841 10.2318 17.3598L11.4842 15.857C11.416 15.8159 11.3517 15.7659 11.2929 15.7071L10.0428 14.457L3.33795 22ZM3 0H21C22.6569 0 24 1.34315 24 3V21C24 22.6569 22.6569 24 21 24H3C1.34315 24 0 22.6569 0 21V3C0 1.34315 1.34315 0 3 0ZM7.5 11C5.567 11 4 9.433 4 7.5C4 5.567 5.567 4 7.5 4C9.433 4 11 5.567 11 7.5C11 9.433 9.433 11 7.5 11ZM7.5 9C8.32843 9 9 8.32843 9 7.5C9 6.67157 8.32843 6 7.5 6C6.67157 6 6 6.67157 6 7.5C6 8.32843 6.67157 9 7.5 9Z" fill="#758CA3"/></svg>