<svg xmlns="http://www.w3.org/2000/svg" xmlns:xlink="http://www.w3.org/1999/xlink" width="128" height="128"><defs><linearGradient id="a"><stop offset="0" stop-color="#fff"/><stop offset="1" stop-color="#fff" stop-opacity="0"/></linearGradient><linearGradient id="b"><stop offset="0" stop-color="#0968ef"/><stop offset="1" stop-color="#aecffc"/></linearGradient><linearGradient id="c" x1="86.868" x2="53.783" y1="53.785" y2="-15.901" gradientUnits="userSpaceOnUse"><stop offset="0" stop-color="#fff"/><stop offset=".426" stop-color="#fff"/><stop offset=".589" stop-color="#f1f1f1"/><stop offset=".802" stop-color="#eaeaea"/><stop offset="1" stop-color="#dfdfdf"/></linearGradient><linearGradient xlink:href="#a" id="d" x1="102.024" x2="63.742" y1="7.38" y2="41.851" gradientTransform="matrix(-1 0 1.0392 2.60204 125.708 -31.633)" gradientUnits="userSpaceOnUse"/><linearGradient xlink:href="#b" id="g" x1="113.157" x2="39.268" y1="25.786" y2="25.786" gradientTransform="scale(1.29899) rotate(79.312 44.06 -7.855)" gradientUnits="userSpaceOnUse"/><linearGradient xlink:href="#a" id="f" x1="87.174" x2="-13.881" y1="113.782" y2="113.782" gradientTransform="matrix(0 -1 -1 0 143.007 124.119)" gradientUnits="userSpaceOnUse"/><linearGradient xlink:href="#b" id="h" x1="66.931" x2="59.046" y1="117.746" y2="89.371" gradientTransform="rotate(90 66.01 61.997)" gradientUnits="userSpaceOnUse"/><radialGradient id="e" cx="17.058" cy="44.428" r="51.479" gradientTransform="matrix(1.06231 -.10814 .13954 1.38918 65.036 -5.128)" gradientUnits="userSpaceOnUse"><stop offset="0" stop-color="#9fbde2"/><stop offset="1" stop-color="#fff"/></radialGradient></defs><path fill="#0069eb" fill-opacity=".894" d="M16.07 59.986v4H7.882v-4zM48.07 59.986v4h-8.188v-4zM32.07 59.986v4h-8.188v-4z"/><path d="m50.05 27.113-95.12 36.202 78.49-80.207z" style="opacity:.891386;stroke-width:3.918796;stroke-linecap:round;stroke-linejoin:round;stroke-dashoffset:1.0878;fill:url(#c);stroke:url(#linearGradient3523)" transform="matrix(-.95403 .36428 .36469 .95282 55.912 6.08)"/><path fill="url(#d)" fill-rule="evenodd" d="M81.098 38.31c9.913 6.605 22.783 12.997 32.79 16.387l-10.955 11.446-29.746-17.617-5.241-4.062z" transform="matrix(-1 0 0 1 134.001 -17.92)"/><path d="m116.038 68.177-103.972-.046 104.155-47.94z" style="opacity:.891386;stroke-width:4;stroke-linecap:round;stroke-linejoin:round;stroke-dashoffset:1.0878;fill:url(#e);stroke:url(#linearGradient3529)" transform="rotate(180 67 71.062)"/><path fill="url(#f)" d="M112.82 75.986 70.673 95.412c-22.854-.3-49.77-12.42-49.834-18.98z" opacity=".891"/><path fill="url(#g)" fill-rule="evenodd" d="M29.762 95.367 47.51 61.914l-6.031-4.116-11.47 10.851c-9.068-19.83-3.622-31.264 1.178-39.981L22.283 24.5c-8.184 12.858-9.886 31.486-2.487 46.076L4.824 65.17.451 71.25z"/><path fill="url(#h)" d="M41.476 59.174c-3.777 3.45-7.358 7.124-11.281 10.406-1.243.062-1.598-1.345-1.957-2.278-2.416-5.708-4.102-11.813-4.125-18.047-.082-5.738 1.297-11.45 3.79-16.606.562-1.2 1.107-2.405 1.792-3.538-2.235-.87-2.86-1.366-5.06-2.319-12.362 18.053-3.834 47.011 7.277 61.865 4.916-9.61 9.007-16.842 14.064-26.39l-4.5-3.093z"/><g fill="#0069eb" fill-opacity=".894"><path d="M128.07 59.986v4h-8.188v-4zM112.07 59.986v4h-8.188v-4zM96.07 59.986v4h-8.188v-4zM80.07 59.986v4h-8.188v-4zM64.07 59.986v4h-8.188v-4z"/></g></svg>