<?xml version="1.0" encoding="UTF-8" standalone="no"?>
<!-- Created with Inkscape (http://www.inkscape.org/) -->
<svg height="128" width="128" xmlns="http://www.w3.org/2000/svg" xmlns:xlink="http://www.w3.org/1999/xlink">
  <defs>
    <linearGradient id="linearGradient3310">
      <stop offset="0" stop-color="#fff"/>
      <stop offset="1" stop-color="#fff" stop-opacity="0"/>
    </linearGradient>
    <linearGradient id="linearGradient2399">
      <stop offset="0" stop-color="#0968ef"/>
      <stop offset="1" stop-color="#aecffc"/>
    </linearGradient>
    <linearGradient id="linearGradient3521" gradientUnits="userSpaceOnUse" x1="86.867714" x2="53.782867" y1="53.784874" y2="-15.900764">
      <stop offset="0" stop-color="#fff"/>
      <stop offset=".42597079" stop-color="#fff"/>
      <stop offset=".5892781" stop-color="#f1f1f1"/>
      <stop offset=".80219781" stop-color="#eaeaea"/>
      <stop offset="1" stop-color="#dfdfdf"/>
    </linearGradient>
    <linearGradient id="linearGradient3523" gradientUnits="userSpaceOnUse" x1="53.011326" x2="2.657676" y1="14.029508" y2="-29.265038">
      <stop offset="0" stop-color="#7c7c80"/>
      <stop offset=".5" stop-color="#69696e"/>
      <stop offset="1" stop-color="#9b9ba3"/>
    </linearGradient>
    <linearGradient id="linearGradient3525" gradientTransform="matrix(-1 0 1.0391918 2.6020388 125.70794 -31.632614)" gradientUnits="userSpaceOnUse" x1="102.02351" x2="63.741646" xlink:href="#linearGradient3310" y1="7.380471" y2="41.850632"/>
    <radialGradient id="radialGradient3527" cx="17.058071" cy="44.42783" gradientTransform="matrix(1.0623106 -.1081395 .1395431 1.3891768 65.036345 -5.127747)" gradientUnits="userSpaceOnUse" r="51.478787">
      <stop offset="0" stop-color="#9fbde2"/>
      <stop offset="1" stop-color="#fff"/>
    </radialGradient>
    <linearGradient id="linearGradient3529" gradientTransform="matrix(.9540327 .3642812 -.3646886 .952822 78.177143 24.111674)" gradientUnits="userSpaceOnUse" x1="19.413456" x2="52.370003" y1="-10.38381" y2="110.81435">
      <stop offset="0" stop-color="#245795"/>
      <stop offset="1" stop-color="#afd4ff"/>
    </linearGradient>
    <linearGradient id="linearGradient3554" gradientTransform="matrix(.2409212 1.2764479 -1.2764479 .2409212 36.592283 -64.552728)" gradientUnits="userSpaceOnUse" x1="113.15723" x2="39.268185" xlink:href="#linearGradient2399" y1="25.786163" y2="25.786163"/>
    <linearGradient id="linearGradient3582" gradientTransform="matrix(0 -1 -1 0 143.00723 124.11884)" gradientUnits="userSpaceOnUse" x1="87.1744" x2="-13.88116" xlink:href="#linearGradient3310" y1="113.78205" y2="113.78205"/>
    <linearGradient id="linearGradient3478" gradientTransform="matrix(0 1 -1 0 128.00723 -4.013725)" gradientUnits="userSpaceOnUse" x1="66.931221" x2="59.045654" xlink:href="#linearGradient2399" y1="117.7457" y2="89.370697"/>
  </defs>
  <g>
    <rect fill="#0069eb" fill-opacity=".894118" height="8.187502" transform="rotate(90)" width="4" x="59.986301" y="-16.069729"/>
    <rect fill="#0069eb" fill-opacity=".894118" height="8.187502" transform="rotate(90)" width="4" x="59.986301" y="-48.069763"/>
    <rect fill="#0069eb" fill-opacity=".894118" height="8.187502" transform="rotate(90)" width="4" x="59.986301" y="-32.069763"/>
    <g transform="matrix(-1 0 0 1 134.0011 -17.919865)">
      <path d="m50.049544 27.112573-95.119981 36.201964 78.490176-80.206492z" style="opacity:.891386;stroke-width:3.918796;stroke-linecap:round;stroke-linejoin:round;stroke-dashoffset:1.0878;fill:url(#linearGradient3521);stroke:url(#linearGradient3523)" transform="matrix(.9540327 .3642812 -.3646886 .952822 78.088755 24.000063)"/>
      <path d="m81.098382 38.309974c9.912697 6.604588 22.782488 12.997512 32.789818 16.387246l-10.95524 11.446126-29.745554-17.61743-5.241747-4.062065z" fill="url(#linearGradient3525)" fill-rule="evenodd"/>
    </g>
    <g transform="matrix(-1 0 0 -1 134.0011 142.12498)">
      <path d="m116.0384 68.177238-103.972115-.045908 104.154685-47.9405z" style="opacity:.891386;stroke-width:4;stroke-linecap:round;stroke-linejoin:round;stroke-dashoffset:1.0878;fill:url(#radialGradient3527);stroke:url(#linearGradient3529)"/>
    </g>
    <path d="m112.81973 75.986275-42.146731 19.426065c-22.854327-.300893-49.769199-12.420815-49.833947-18.980995z" fill="url(#linearGradient3582)" opacity=".891386"/>
    <path d="m29.762284 95.366807 17.746859-33.453171-6.031304-4.116053-11.470605 10.851801c-9.06745-19.831237-3.62085-31.264008 1.178855-39.981636l-8.903425-4.166858c-8.18354 12.858502-9.88571 31.486001-2.48701 46.075863l-14.9714699-5.406056-4.37296 6.079786z" fill="url(#linearGradient3554)" fill-rule="evenodd"/>
    <path d="m41.475984 59.173775c-3.7767 3.449921-7.357503 7.124415-11.28125 10.40625-1.24247.061796-1.598149-1.3448-1.956789-2.277889-2.415841-5.707945-4.101651-11.81286-4.124621-18.046855-.08255-5.738377 1.2964-11.449492 3.7905-16.606718.56164-1.199731 1.106585-2.404141 1.79091-3.537288-2.23429-.870733-2.86028-1.366668-5.0599-2.318782-12.36151 18.052398-3.83399 47.010919 7.27681 61.864435 4.916235-9.610788 9.007706-16.841539 14.06434-26.389403-1.5-1.03125-3-2.0625-4.5-3.09375z" fill="url(#linearGradient3478)"/>
    <g fill="#0069eb" fill-opacity=".894118" transform="rotate(90)">
      <rect height="8.187502" width="4" x="59.986301" y="-128.06964"/>
      <rect height="8.187502" width="4" x="59.986301" y="-112.06974"/>
      <rect height="8.187502" width="4" x="59.986301" y="-96.069763"/>
      <rect height="8.187502" width="4" x="59.986301" y="-80.069763"/>
      <rect height="8.187502" width="4" x="59.986301" y="-64.069763"/>
    </g>
  </g>
</svg>
