<svg xmlns="http://www.w3.org/2000/svg" xmlns:xlink="http://www.w3.org/1999/xlink" width="128" height="128"><defs><linearGradient id="a"><stop offset="0" stop-color="#fff"/><stop offset="1" stop-color="#fff" stop-opacity="0"/></linearGradient><linearGradient id="b"><stop offset="0" stop-color="#0968ef"/><stop offset="1" stop-color="#aecffc"/></linearGradient><linearGradient id="c" x1="73.149" x2="15.938" y1="16.525" y2="40.024" gradientUnits="userSpaceOnUse"><stop offset="0" stop-color="#fff"/><stop offset=".426" stop-color="#fff"/><stop offset=".589" stop-color="#f1f1f1"/><stop offset=".802" stop-color="#eaeaea"/><stop offset="1" stop-color="#dfdfdf"/></linearGradient><linearGradient xlink:href="#a" id="d" x1="102.024" x2="63.742" y1="7.38" y2="41.851" gradientTransform="matrix(-1 0 1.0392 -2.60204 125.708 126.165)" gradientUnits="userSpaceOnUse"/><linearGradient xlink:href="#b" id="g" x1="113.157" x2="39.268" y1="25.786" y2="25.786" gradientTransform="matrix(1.27645 -.24092 .24092 1.27645 -60.539 91.415)" gradientUnits="userSpaceOnUse"/><linearGradient xlink:href="#a" id="f" x1="34.25" x2="34.25" y1="-117.209" y2="161.865" gradientTransform="matrix(-1 0 0 1 128.133 -15)" gradientUnits="userSpaceOnUse"/><linearGradient xlink:href="#a" id="h" x1="8.794" x2="72.434" y1="83.813" y2=".645" gradientTransform="matrix(-1 0 0 1 128.633 -15)" gradientUnits="userSpaceOnUse"/><linearGradient xlink:href="#b" id="i" x1="66.931" x2="59.046" y1="117.746" y2="89.371" gradientUnits="userSpaceOnUse"/><radialGradient id="e" cx="1.609" cy="43.392" r="51.479" gradientTransform="matrix(1.06231 -.10814 .13954 1.38918 65.036 -5.128)" gradientUnits="userSpaceOnUse"><stop offset="0" stop-color="#9fbde2"/><stop offset="1" stop-color="#fff"/></radialGradient></defs><path fill="#0069eb" fill-opacity=".894" d="M64 111.938h4v8.188h-4zM64 79.938h4v8.188h-4zM64 95.938h4v8.188h-4z"/><path d="m50.05 27.113-95.12 36.202 78.49-80.207z" style="opacity:.891386;stroke-width:3.918796;stroke-linecap:round;stroke-linejoin:round;stroke-dashoffset:1.0878;fill:url(#c);stroke:url(#linearGradient3523)" transform="matrix(.36428 .95403 .95282 -.36469 10.094 72.095)"/><path fill="url(#d)" fill-rule="evenodd" d="M69.012 66.143c3.864-5.086 29.667-21.156 44.876-26.308l-10.955-11.446-29.746 17.617C66.9 50.821 55.15 60.452 51.21 65.823z" transform="matrix(0 1 1 0 -13.906 -5.994)"/><path d="m116.038 68.177-103.972-.046 104.155-47.94z" style="opacity:.891386;stroke-width:4;stroke-linecap:round;stroke-linejoin:round;stroke-dashoffset:1.0878;fill:url(#e);stroke:url(#linearGradient3529)" transform="rotate(90 76.066 70.072)"/><path fill="url(#f)" d="m80 15.188 23.426 51.146c-5.8 1.355-16.92 1.894-23.48 1.96z" opacity=".891"/><path fill="url(#g)" fill-rule="evenodd" d="M99.38 98.245 65.928 80.498l-4.116 6.031L72.663 98c-19.831 9.067-31.264 3.62-39.982-1.179l-4.166 8.904c12.858 8.183 31.486 9.885 46.075 2.487l-5.406 14.971 6.08 4.373z"/><path fill="url(#h)" d="M80 15.188 102.594 65.5c-5.543 1.294-15.863 1.803-22.5 1.906v1.031c6.56-.064 17.699-.583 23.5-1.937z" opacity=".891"/><path fill="url(#i)" d="M63.188 86.531c3.45 3.777 7.124 7.358 10.406 11.281.062 1.243-1.345 1.599-2.278 1.957-5.708 2.416-11.813 4.102-18.047 4.125-5.738.082-11.45-1.296-16.607-3.79-1.2-.562-2.404-1.107-3.537-1.791-.87 2.234-1.367 2.86-2.319 5.06 18.053 12.36 47.011 3.833 61.865-7.277-9.611-4.917-16.842-9.008-26.39-14.065l-3.094 4.5z"/><g fill="#0069eb" fill-opacity=".894"><path d="M64-.063h4v8.188h-4zM64 15.938h4v8.188h-4zM64 31.938h4v8.188h-4zM64 47.938h4v8.188h-4zM64 63.938h4v8.188h-4z"/></g></svg>