<svg xmlns="http://www.w3.org/2000/svg" xmlns:xlink="http://www.w3.org/1999/xlink" width="128" height="128" enable-background="new"><defs><linearGradient id="a"><stop offset="0" stop-color="#fff"/><stop offset="1" stop-color="#fff" stop-opacity="0"/></linearGradient><linearGradient id="b"><stop offset="0" stop-color="#f0ff80"/><stop offset="1" stop-color="#f0ff80" stop-opacity="0"/></linearGradient><linearGradient id="d" x1="89.091" x2="89.091" y1="107.897" y2="34.849" gradientUnits="userSpaceOnUse"><stop offset="0" stop-color="#003100"/><stop offset="1" stop-color="#008c00"/></linearGradient><linearGradient id="n" x1="83.325" x2="83.325" y1="28.063" y2="93.995" gradientUnits="userSpaceOnUse"><stop offset="0" stop-color="#bfffbf"/><stop offset="1" stop-color="#bfffbf" stop-opacity="0"/></linearGradient><linearGradient xlink:href="#b" id="p" x1="71.604" x2="71.604" y1="96.884" y2="47.379" gradientUnits="userSpaceOnUse"/><linearGradient xlink:href="#a" id="q" x1="87.533" x2="77.138" y1="74.839" y2="46.277" gradientUnits="userSpaceOnUse"/><linearGradient xlink:href="#a" id="r" x1="83.325" x2="83.325" y1="28.063" y2="73.838" gradientUnits="userSpaceOnUse"/><radialGradient id="m" cx="54.538" cy="77.542" r="48" fy="99.884" gradientTransform="matrix(1.31172 0 0 .9838 -16.906 1.314)" gradientUnits="userSpaceOnUse"><stop offset="0" stop-color="#66f515"/><stop offset="1" stop-color="#002e00"/></radialGradient><radialGradient id="l" cx="52.792" cy="95.459" r="52" fx="53.16" fy="87.081" gradientTransform="matrix(.56466 0 0 .91764 24.424 .144)" gradientUnits="userSpaceOnUse"><stop offset="0" stop-color="#001400"/><stop offset="1" stop-color="#001400" stop-opacity="0"/></radialGradient><radialGradient xlink:href="#a" id="i" cx="99.766" cy="29.375" r="3.016" gradientTransform="matrix(1.96467 0 0 5.97527 -96.241 -146.148)" gradientUnits="userSpaceOnUse"/><radialGradient xlink:href="#a" id="k" cx="99.766" cy="29.375" r="3.016" gradientTransform="matrix(1.96467 0 0 5.97527 -167.241 -126.148)" gradientUnits="userSpaceOnUse"/><radialGradient xlink:href="#b" id="g" cx="99.766" cy="29.375" r="3.016" gradientTransform="matrix(1.96467 0 0 5.97527 -167.241 -126.148)" gradientUnits="userSpaceOnUse"/><radialGradient xlink:href="#a" id="f" cx="53.633" cy="51.92" r="52" gradientTransform="matrix(1.09614 .08791 -.10023 1.24973 1.06 -18.687)" gradientUnits="userSpaceOnUse"/><filter id="o"><feGaussianBlur stdDeviation=".425"/></filter><filter id="c"><feGaussianBlur stdDeviation=".461"/></filter><filter id="e"><feBlend in2="BackgroundImage" mode="lighten"/></filter><filter id="h" width="1.365" height="1.206" x="-.182" y="-.103"><feGaussianBlur stdDeviation=".458"/></filter><filter id="j" width="1.208" height="1.37" x="-.104" y="-.185"><feGaussianBlur stdDeviation=".458"/></filter></defs><g fill="none" stroke-linecap="round" stroke-linejoin="round"><path stroke="#004d00" stroke-width="8.1" d="M54.394 74.154 28.631 47.75 16 60.698l38.394 39.355L112 41 99.367 28.053 54.394 74.154z" filter="url(#c)"/><path stroke="url(#d)" stroke-width="8" d="M54.394 74.154 28.631 47.75 16 60.698l38.394 39.355L112 41 99.367 28.053 54.394 74.154z"/><path stroke="url(#f)" stroke-width="8" d="M54.394 74.154 28.631 47.75 16 60.698l38.394 39.355L112 41 99.367 28.053 54.394 74.154z" filter="url(#e)" opacity=".286"/></g><path fill="url(#g)" d="M28.406 44.031c-.15-.002-.286.017-.437.032a3.98 3.98 0 0 0-2.219.968l1.687 9.688c.111-.114.85-.848.938-.938l.375.375 3.031-8.343-.562-.563a4.046 4.046 0 0 0-2.813-1.219z" filter="url(#h)" opacity=".41" transform="matrix(1 0 0 -1 26 147.75)"/><path fill="url(#i)" d="M99.406 24.031c-.15-.002-.286.017-.437.032a3.98 3.98 0 0 0-2.219.968l1.688 9.688c.11-.114.85-.848.937-.938l.375.375 3.031-8.343-.562-.563a4.046 4.046 0 0 0-2.813-1.219z" filter="url(#j)" opacity=".238" transform="scale(-1 1) rotate(70 18.031 -38.39)"/><path fill="url(#k)" d="M28.406 44.031c-.15-.002-.286.017-.437.032a3.98 3.98 0 0 0-2.219.968l1.687 9.688c.111-.114.85-.848.938-.938l.375.375 3.031-8.343-.562-.563a4.046 4.046 0 0 0-2.813-1.219z" filter="url(#h)" opacity=".776"/><path fill="url(#i)" d="M99.406 24.031c-.15-.002-.286.017-.437.032a3.98 3.98 0 0 0-2.219.968l1.688 9.688c.11-.114.85-.848.937-.938l.375.375 3.031-8.343-.562-.563a4.046 4.046 0 0 0-2.813-1.219z" filter="url(#j)" opacity=".371" transform="rotate(70 96.684 43.543)"/><path fill="url(#i)" d="M99.406 24.031c-.15-.002-.286.017-.437.032a3.98 3.98 0 0 0-2.219.968l1.688 9.688c.11-.114.85-.848.937-.938l.375.375 3.031-8.343-.562-.563a4.046 4.046 0 0 0-2.813-1.219z" filter="url(#h)" opacity=".871"/><path d="M54.394 74.154 28.631 47.75 16 60.698l38.394 39.355L112 41 99.367 28.053 54.394 74.154z" style="fill:none;stroke-width:8;stroke-linecap:round;stroke-linejoin:round;opacity:.285714;stroke:url(#l)"/><path fill="url(#m)" d="M54.394 74.154 28.631 47.75 16 60.698l38.394 39.355L112 41 99.367 28.053 54.394 74.154z"/><path fill="url(#n)" d="M99.375 28.063s-35.257 36.14-44.969 46.093c-8.148-8.35-25.781-26.406-25.781-26.406L16 60.688l16.469 16.874h.562c17.53 0 34.137-2.093 49.031-5.843L112 41z"/><path fill="none" stroke="url(#p)" d="M54.394 74.154 28.631 47.75 16 60.698l38.394 39.355L112 41 99.367 28.053 54.394 74.154z" filter="url(#o)"/><path fill="url(#q)" d="m99.375 28.063-.406.437 12.187 12.281-30 30.219C66.23 74.688 50.1 77.219 32.531 77.219h-.375l.313.344h.562c17.53 0 34.137-2.094 49.032-5.844L112 41z"/><path fill="url(#r)" d="M99.375 28.063s-35.257 36.14-44.969 46.093c-8.148-8.35-25.781-26.406-25.781-26.406L16 60.688l.5.5L28.625 48.75s17.633 18.056 25.781 26.406l44.969-46.094L111.5 41.5l.5-.5z"/></svg>