<svg xmlns="http://www.w3.org/2000/svg" width="128" height="128"><defs><linearGradient id="d"><stop offset="0" stop-color="#fff"/><stop offset="1" stop-color="#fff" stop-opacity="0"/></linearGradient><linearGradient id="b"><stop offset="0"/><stop offset="1" stop-opacity="0"/></linearGradient><linearGradient id="a"><stop offset="0" stop-color="#63e9ff"/><stop offset="1" stop-color="#fff" stop-opacity="0"/></linearGradient><linearGradient id="c"><stop offset="0" stop-color="#9fc1f2"/><stop offset=".5" stop-color="#587eb5"/><stop offset="1" stop-color="#0c2a58"/></linearGradient><filter id="e" width="1.441" height="1.272" x="-.22" y="-.136" style="color-interpolation-filters:sRGB"><feGaussianBlur stdDeviation="1.192"/></filter></defs><g style="display:inline"><path d="M49.813 735.281c-.467.055-.824.498-.813 1.094v16c0 .524.476 1 1 1h3.594l2.687 2.688c.295.295.784.374 1.157.187l1-.5c.327-.16.553-.51.562-.875v-3.594l2.719-2.718c.365-.37.365-1.037 0-1.407l-11-11.5c-.308-.307-.626-.408-.907-.375z" style="color:#000;font-style:normal;font-variant:normal;font-weight:400;font-stretch:normal;font-size:medium;line-height:normal;font-family:Sans;-inkscape-font-specification:Sans;text-indent:0;text-align:start;text-decoration:none;text-decoration-line:none;letter-spacing:normal;word-spacing:normal;text-transform:none;writing-mode:lr-tb;direction:ltr;baseline-shift:baseline;text-anchor:start;display:inline;overflow:visible;visibility:visible;opacity:.6;fill:#000;fill-opacity:1;fill-rule:nonzero;stroke:none;stroke-width:2;marker:none;filter:url(#e);enable-background:accumulate" transform="matrix(4.7092 0 0 4.7092 -196.259 -3447.839)"/><path d="M49 735.375v16c0 .524.476 1 1 1h3.594l2.687 2.688c.295.295.784.374 1.157.187l1-.5c.327-.16.553-.51.562-.875v-3.594l2.719-2.718c.365-.37.365-1.037 0-1.407l-11-11.5c-.82-.82-1.736-.234-1.719.719Z" style="color:#000;font-style:normal;font-variant:normal;font-weight:400;font-stretch:normal;font-size:medium;line-height:normal;font-family:Sans;-inkscape-font-specification:Sans;text-indent:0;text-align:start;text-decoration:none;text-decoration-line:none;letter-spacing:normal;word-spacing:normal;text-transform:none;writing-mode:lr-tb;direction:ltr;baseline-shift:baseline;text-anchor:start;display:inline;overflow:visible;visibility:visible;fill:#fff;fill-opacity:1;fill-rule:nonzero;stroke:none;stroke-width:2;marker:none;enable-background:accumulate" transform="matrix(4.7092 0 0 4.7092 -196.259 -3447.839)"/><path d="M50 751.362v-16l11 11.5-3 3v4l-1 .5-3-3z" style="fill:#4d4d4d;fill-opacity:1;stroke:none" transform="matrix(4.7092 0 0 4.7092 -196.259 -3447.839)"/></g></svg>