<svg xmlns="http://www.w3.org/2000/svg" width="128" height="128"><path d="M.5.5h127v127H.5z" style="fill:#fff;fill-opacity:0;stroke:#fff;stroke-width:1;stroke-linecap:square;stroke-linejoin:round;stroke-miterlimit:4;stroke-dasharray:none;stroke-dashoffset:0;stroke-opacity:1;paint-order:stroke fill markers"/><path d="M62.433 3.055a60 60 0 0 1 62.51 57.346 60 60 0 0 1-57.313 62.541 60 60 0 0 1-62.57-57.28A60 60 0 0 1 62.305 3.06" style="fill:none;fill-opacity:1;stroke:#000;stroke-width:3;stroke-linecap:square;stroke-linejoin:round;stroke-miterlimit:4;stroke-dasharray:none;stroke-dashoffset:0;stroke-opacity:1;paint-order:stroke fill markers"/><path d="M5 63h120M65 3v120" style="fill:none;stroke:#000;stroke-width:3;stroke-linecap:butt;stroke-linejoin:miter;stroke-opacity:1;stroke-miterlimit:4;stroke-dasharray:none"/><path d="M63.717 33.027a30 30 0 0 1 31.255 28.674 30 30 0 0 1-28.657 31.27 30 30 0 0 1-31.285-28.64 30 30 0 0 1 28.623-31.3" style="fill:none;fill-opacity:1;stroke:#000;stroke-width:3;stroke-linecap:square;stroke-linejoin:round;stroke-miterlimit:4;stroke-dasharray:none;stroke-dashoffset:0;stroke-opacity:1;paint-order:stroke fill markers"/></svg>