<svg xmlns="http://www.w3.org/2000/svg" width="128" height="128"><path d="M58 62h40" style="fill:none;stroke:#5698f5;stroke-width:10;stroke-linecap:butt;stroke-linejoin:miter;stroke-miterlimit:4;stroke-dasharray:none;stroke-opacity:1"/><path d="M109.013 49.29a12.5 12.5 0 0 1 12.047 12.69 12.5 12.5 0 0 1-12.444 12.301A12.5 12.5 0 0 1 96.065 62.09 12.5 12.5 0 0 1 108 49.294" style="fill:none;fill-opacity:1;stroke:red;stroke-width:10;stroke-linecap:square;stroke-linejoin:round;stroke-miterlimit:4;stroke-dasharray:none;stroke-dashoffset:0;stroke-opacity:1;paint-order:markers stroke fill"/><path d="M33.904 38.016a25 25 0 0 1 24.093 25.382A25 25 0 0 1 33.109 88 25 25 0 0 1 8.008 63.616a25 25 0 0 1 23.87-25.59" style="fill:none;fill-opacity:1;stroke:#5698f5;stroke-width:10;stroke-linecap:square;stroke-linejoin:round;stroke-miterlimit:4;stroke-dasharray:none;stroke-dashoffset:0;stroke-opacity:1;paint-order:markers stroke fill"/></svg>