<?xml version="1.0" encoding="UTF-8" standalone="no"?>
<!-- Created with Inkscape (http://www.inkscape.org/) -->

<svg
   xmlns:dc="http://purl.org/dc/elements/1.1/"
   xmlns:cc="http://creativecommons.org/ns#"
   xmlns:rdf="http://www.w3.org/1999/02/22-rdf-syntax-ns#"
   xmlns:svg="http://www.w3.org/2000/svg"
   xmlns="http://www.w3.org/2000/svg"
   xmlns:xlink="http://www.w3.org/1999/xlink"
   xmlns:sodipodi="http://sodipodi.sourceforge.net/DTD/sodipodi-0.dtd"
   xmlns:inkscape="http://www.inkscape.org/namespaces/inkscape"
   height="128"
   width="128"
   version="1.1"
   id="svg487"
   sodipodi:docname="rebuild.svg"
   inkscape:version="0.92.3 (2405546, 2018-03-11)">
  <metadata
     id="metadata491">
    <rdf:RDF>
      <cc:Work
         rdf:about="">
        <dc:format>image/svg+xml</dc:format>
        <dc:type
           rdf:resource="http://purl.org/dc/dcmitype/StillImage" />
        <dc:title></dc:title>
      </cc:Work>
    </rdf:RDF>
  </metadata>
  <sodipodi:namedview
     pagecolor="#ffffff"
     bordercolor="#666666"
     borderopacity="1"
     objecttolerance="10"
     gridtolerance="10"
     guidetolerance="10"
     inkscape:pageopacity="0"
     inkscape:pageshadow="2"
     inkscape:window-width="1920"
     inkscape:window-height="1014"
     id="namedview489"
     showgrid="false"
     inkscape:zoom="3.6875"
     inkscape:cx="77.605615"
     inkscape:cy="41.772632"
     inkscape:window-x="0"
     inkscape:window-y="0"
     inkscape:window-maximized="1"
     inkscape:current-layer="svg487" />
  <defs
     id="defs24">
    <linearGradient
       id="linearGradient7843"
       gradientTransform="matrix(.121457 0 0 .1756605 195.18891 503.66043)"
       gradientUnits="userSpaceOnUse"
       x1="-333.0289"
       x2="-333.0289"
       y1="-1473.6504"
       y2="-776.61371">
      <stop
         offset="0"
         stop-color="#fff"
         id="stop2" />
      <stop
         offset=".49140647"
         stop-color="#fff"
         id="stop4" />
      <stop
         offset="1"
         stop-color="#dcdcdc"
         id="stop6" />
    </linearGradient>
    <linearGradient
       id="linearGradient7912"
       gradientTransform="matrix(.121457 0 0 .1756605 75.745932 148.34634)"
       gradientUnits="userSpaceOnUse"
       x1="399.77466"
       x2="399.77466"
       y1="727.07941"
       y2="480.60214">
      <stop
         offset="0"
         stop-color="#cbcbcd"
         id="stop9" />
      <stop
         offset=".5"
         stop-color="#e0e0e2"
         id="stop11" />
      <stop
         offset="1"
         stop-color="#f2f2f2"
         id="stop13" />
    </linearGradient>
    <linearGradient
       id="linearGradient12912"
       gradientUnits="userSpaceOnUse"
       x1="1055.3002"
       x2="1055.3002"
       y1="-468.66934"
       y2="-481.76657">
      <stop
         offset="0"
         stop-color="#6f6f6f"
         id="stop16" />
      <stop
         offset="1"
         stop-color="#fff"
         id="stop18" />
    </linearGradient>
    <filter
       id="filter4400">
      <feGaussianBlur
         stdDeviation="1.177891"
         id="feGaussianBlur21" />
    </filter>
    <linearGradient
       gradientTransform="matrix(5.70022,0,0,5.70022,-331.35013,-493.57004)"
       id="q"
       x1="91.862907"
       x2="91.862907"
       y1="95.969086"
       y2="99.969086"
       gradientUnits="userSpaceOnUse"
       spreadMethod="reflect">
      <stop
         offset="0"
         stop-color="#bfd9ff"
         id="stop2064" />
      <stop
         offset="1"
         stop-color="#bfd9ff"
         stop-opacity="0"
         id="stop2066" />
    </linearGradient>
    <radialGradient
       id="p"
       cx="95.862061"
       cy="100.26814"
       r="7.3681369"
       gradientTransform="matrix(3.6023183,0,0,2.6137022,-263.85241,-199.55177)"
       gradientUnits="userSpaceOnUse">
      <stop
         offset="0"
         stop-color="#0081ec"
         id="stop2081" />
      <stop
         offset="1"
         stop-color="#0057ae"
         id="stop2083" />
    </radialGradient>
    <radialGradient
       id="p-3"
       cx="95.862061"
       cy="100.26814"
       r="7.3681369"
       gradientTransform="matrix(-3.4919024,0,0,-2.7057157,384.09175,362.88127)"
       gradientUnits="userSpaceOnUse">
      <stop
         offset="0"
         stop-color="#0081ec"
         id="stop2081-6" />
      <stop
         offset="1"
         stop-color="#0057ae"
         id="stop2083-7" />
    </radialGradient>
  </defs>
  <g
     transform="translate(-79.62865 -236.8761)"
     id="g485">
    <rect
       filter="url(#filter4400)"
       height="111.6"
       opacity=".4"
       rx="2.143353"
       ry="2.53025"
       transform="matrix(1 0 0 1.0035842 0 2.742375)"
       width="124"
       x="81.628647"
       y="239.27611"
       id="rect26" />
    <path
       d="m124.00035-57.652544v-2.836284z"
       fill="#fff"
       fill-opacity=".756881"
       id="path28" />
    <path
       d="m-10.967378-50.02293v-2.836281z"
       fill="#fff"
       fill-opacity=".756881"
       id="path30" />
    <path
       d="m-170.31138-120.69393v-2.83628z"
       fill="#fff"
       fill-opacity=".756881"
       id="path32" />
    <path
       d="m-291.59132-208.61291v-2.83629z"
       fill="#fff"
       fill-opacity=".756881"
       id="path34" />
    <g
       transform="matrix(1.0148767 0 0 1.0148767 -105.918 -61.880454)"
       id="g36" />
    <g
       transform="matrix(1.0148767 0 0 1.0148767 -105.918 -61.880454)"
       id="g38" />
    <path
       d="m-41.331563-141.87945v-2.83629z"
       fill="#fff"
       fill-opacity=".756881"
       id="path40" />
    <path
       d="m-135.33391-66.886514v-1.549446z"
       fill="#fff"
       fill-opacity=".756881"
       id="path42" />
    <path
       d="m-390.62499-226.57087v-2.83628z"
       fill="#fff"
       fill-opacity=".756881"
       id="path44" />
    <g
       opacity=".401639"
       transform="matrix(-.7946432 0 0 .6605615 -2748.0383 470.15972)"
       id="g46" />
    <g
       opacity=".401639"
       transform="matrix(-.7946432 0 0 .6605615 -2748.0383 470.15972)"
       id="g48" />
    <g
       opacity=".401639"
       transform="matrix(1.0148767 0 0 .6605615 500.54238 477.59645)"
       id="g50" />
    <g
       opacity=".401639"
       transform="matrix(1.0148767 0 0 .6605615 500.54238 477.59645)"
       id="g52" />
    <path
       d="m131.54671 109.09814v-2.83628z"
       fill="#fff"
       fill-opacity=".756881"
       id="path54" />
    <path
       d="m-27.797286 38.427136v-2.836296z"
       fill="#fff"
       fill-opacity=".756881"
       id="path56" />
    <path
       d="m-149.07723-49.491843v-2.836296z"
       fill="#fff"
       fill-opacity=".756881"
       id="path58" />
    <g
       transform="matrix(1.0148767 0 0 1.0148767 36.596 97.240605)"
       id="g60" />
    <g
       transform="matrix(1.0148767 0 0 1.0148767 36.596 97.240605)"
       id="g62" />
    <path
       d="m101.18252 17.241605v-2.836282z"
       fill="#fff"
       fill-opacity=".756881"
       id="path64" />
    <path
       d="m7.1801708 92.234553v-1.549446z"
       fill="#fff"
       fill-opacity=".756881"
       id="path66" />
    <path
       d="m-248.1109-67.4498v-2.836284z"
       fill="#fff"
       fill-opacity=".756881"
       id="path68" />
    <g
       opacity=".401639"
       transform="matrix(-.7946432 0 0 .6605615 -2605.5245 629.28073)"
       id="g70" />
    <g
       opacity=".401639"
       transform="matrix(-.7946432 0 0 .6605615 -2605.5245 629.28073)"
       id="g72" />
    <g
       opacity=".401639"
       transform="matrix(1.0148767 0 0 .6605615 643.05646 636.7176)"
       id="g74" />
    <g
       opacity=".401639"
       transform="matrix(1.0148767 0 0 .6605615 643.05646 636.7176)"
       id="g76" />
    <path
       d="m81.310335 56.324571v-2.836281z"
       fill="#fff"
       fill-opacity=".756881"
       id="path78" />
    <path
       d="m-78.033659-14.346435v-2.836282z"
       fill="#fff"
       fill-opacity=".756881"
       id="path80" />
    <path
       d="m-199.31361-102.26541v-2.83629z"
       fill="#fff"
       fill-opacity=".756881"
       id="path82" />
    <g
       transform="matrix(1.0148767 0 0 1.0148767 -13.640366 44.467018)"
       id="g84" />
    <g
       transform="matrix(1.0148767 0 0 1.0148767 -13.640366 44.467018)"
       id="g86" />
    <path
       d="m50.946152-35.531953v-2.836281z"
       fill="#fff"
       fill-opacity=".756881"
       id="path88" />
    <path
       d="m-43.056203 39.460982v-1.549447z"
       fill="#fff"
       fill-opacity=".756881"
       id="path90" />
    <path
       d="m-298.34728-120.22337v-2.83628z"
       fill="#fff"
       fill-opacity=".756881"
       id="path92" />
    <g
       opacity=".401639"
       transform="matrix(-.7946432 0 0 .6605615 -2655.7605 576.50714)"
       id="g94" />
    <g
       opacity=".401639"
       transform="matrix(-.7946432 0 0 .6605615 -2655.7605 576.50714)"
       id="g96" />
    <g
       opacity=".401639"
       transform="matrix(1.0148767 0 0 .6605615 592.81999 583.94401)"
       id="g98" />
    <g
       opacity=".401639"
       transform="matrix(1.0148767 0 0 .6605615 592.81999 583.94401)"
       id="g100" />
    <path
       d="m-311.70048 181.91552v-2.8363z"
       fill="#fff"
       fill-opacity=".756881"
       id="path102" />
    <path
       d="m-471.0445 111.2445v-2.83628z"
       fill="#fff"
       fill-opacity=".756881"
       id="path104" />
    <path
       d="m-592.32444 23.325521v-2.836282z"
       fill="#fff"
       fill-opacity=".756881"
       id="path106" />
    <g
       transform="matrix(1.0148767 0 0 1.0148767 -406.65121 170.05797)"
       id="g108" />
    <g
       transform="matrix(1.0148767 0 0 1.0148767 -406.65121 170.05797)"
       id="g110" />
    <path
       d="m-342.06469 90.058982v-2.836281z"
       fill="#fff"
       fill-opacity=".756881"
       id="path112" />
    <path
       d="m-436.06704 165.05193v-1.54946z"
       fill="#fff"
       fill-opacity=".756881"
       id="path114" />
    <path
       d="m-691.35811 5.367577v-2.8362961z"
       fill="#fff"
       fill-opacity=".756881"
       id="path116" />
    <g
       opacity=".401639"
       transform="matrix(-.7946432 0 0 .6605615 -3048.7709 702.09809)"
       id="g118" />
    <g
       opacity=".401639"
       transform="matrix(-.7946432 0 0 .6605615 -3048.7709 702.09809)"
       id="g120" />
    <g
       opacity=".401639"
       transform="matrix(1.0148767 0 0 .6605615 199.80926 709.53496)"
       id="g122" />
    <g
       opacity=".401639"
       transform="matrix(1.0148767 0 0 .6605615 199.80926 709.53496)"
       id="g124" />
    <path
       d="m-55.553696 360.93168v-2.83629z"
       fill="#fff"
       fill-opacity=".756881"
       id="path126" />
    <path
       d="m-214.89769 290.26066v-2.83629z"
       fill="#fff"
       fill-opacity=".756881"
       id="path128" />
    <path
       d="m-336.17763 202.34167v-2.83628z"
       fill="#fff"
       fill-opacity=".756881"
       id="path130" />
    <g
       transform="matrix(1.0148767 0 0 1.0148767 -150.50435 349.07409)"
       id="g132" />
    <g
       transform="matrix(1.0148767 0 0 1.0148767 -150.50435 349.07409)"
       id="g134" />
    <path
       d="m-85.917879 269.07514v-2.83629z"
       fill="#fff"
       fill-opacity=".756881"
       id="path136" />
    <path
       d="m-179.92023 344.06809v-1.54946z"
       fill="#fff"
       fill-opacity=".756881"
       id="path138" />
    <path
       d="m-435.2113 184.38373v-2.8363z"
       fill="#fff"
       fill-opacity=".756881"
       id="path140" />
    <g
       opacity=".401639"
       transform="matrix(-.7946432 0 0 .6605615 -2792.6249 881.11422)"
       id="g142" />
    <g
       opacity=".401639"
       transform="matrix(-.7946432 0 0 .6605615 -2792.6249 881.11422)"
       id="g144" />
    <g
       opacity=".401639"
       transform="matrix(1.0148767 0 0 .6605615 455.95601 888.55109)"
       id="g146" />
    <g
       opacity=".401639"
       transform="matrix(1.0148767 0 0 .6605615 455.95601 888.55109)"
       id="g148" />
    <path
       d="m-157.70057 123.8935v-2.8363z"
       fill="#fff"
       fill-opacity=".756881"
       id="path150" />
    <path
       d="m-317.04457 53.222473v-2.836281z"
       fill="#fff"
       fill-opacity=".756881"
       id="path152" />
    <path
       d="m-438.32452-34.696491v-2.836296z"
       fill="#fff"
       fill-opacity=".756881"
       id="path154" />
    <g
       transform="matrix(1.0148767 0 0 1.0148767 -252.6514 112.03596)"
       id="g156" />
    <g
       transform="matrix(1.0148767 0 0 1.0148767 -252.6514 112.03596)"
       id="g158" />
    <path
       d="m-188.06476 32.036956v-2.836281z"
       fill="#fff"
       fill-opacity=".756881"
       id="path160" />
    <path
       d="m-282.06711 107.02991v-1.54947z"
       fill="#fff"
       fill-opacity=".756881"
       id="path162" />
    <path
       d="m-537.35819-52.65445v-2.836281z"
       fill="#fff"
       fill-opacity=".756881"
       id="path164" />
    <g
       opacity=".401639"
       transform="matrix(-.7946432 0 0 .6605615 -2894.7709 644.07608)"
       id="g166" />
    <g
       opacity=".401639"
       transform="matrix(-.7946432 0 0 .6605615 -2894.7709 644.07608)"
       id="g168" />
    <g
       opacity=".401639"
       transform="matrix(1.0148767 0 0 .6605615 353.80908 651.51294)"
       id="g170" />
    <g
       opacity=".401639"
       transform="matrix(1.0148767 0 0 .6605615 353.80908 651.51294)"
       id="g172" />
    <rect
       fill="url(#linearGradient7912)"
       height="107.99998"
       rx="2.074212"
       ry="2.448628"
       width="119.99998"
       x="83.628647"
       y="244.87613"
       id="rect174" />
    <path
       d="m-155.66325 122.95497v-2.8363z"
       fill="#fff"
       fill-opacity=".756881"
       id="path176" />
    <path
       d="m-315.00724 52.283945v-2.836281z"
       fill="#fff"
       fill-opacity=".756881"
       id="path178" />
    <path
       d="m-436.28719-35.635034v-2.836281z"
       fill="#fff"
       fill-opacity=".756881"
       id="path180" />
    <g
       transform="matrix(1.0148767 0 0 1.0148767 -250.61396 111.0974)"
       id="g182" />
    <g
       transform="matrix(1.0148767 0 0 1.0148767 -250.61396 111.0974)"
       id="g184" />
    <path
       d="m-186.02744 31.098428v-2.836282z"
       fill="#fff"
       fill-opacity=".756881"
       id="path186" />
    <path
       d="m-280.02978 106.09138v-1.54946z"
       fill="#fff"
       fill-opacity=".756881"
       id="path188" />
    <path
       d="m-535.32086-53.592984v-2.836284z"
       fill="#fff"
       fill-opacity=".756881"
       id="path190" />
    <g
       opacity=".401639"
       transform="matrix(-.7946432 0 0 .6605615 -2892.7339 643.13752)"
       id="g192" />
    <g
       opacity=".401639"
       transform="matrix(-.7946432 0 0 .6605615 -2892.7339 643.13752)"
       id="g194" />
    <g
       opacity=".401639"
       transform="matrix(1.0148767 0 0 .6605615 355.84651 650.57439)"
       id="g196" />
    <g
       opacity=".401639"
       transform="matrix(1.0148767 0 0 .6605615 355.84651 650.57439)"
       id="g198" />
    <g
       id="g10952"
       transform="matrix(1.4999999 0 0 1.4999997 -39.814316 -120.43796)">
      <path
         d="m1060.3605-478.60516a5.0602889 5.0602889 0 1 1 -10.1206 0 5.0602889 5.0602889 0 1 1 10.1206 0z"
         fill="url(#linearGradient12912)"
         transform="matrix(.7904687 0 0 .7904687 -678.5531 631.1985)"
         id="path200" />
    </g>
    <g
       fill="#fff"
       fill-opacity=".756881"
       id="g211">
      <path
         d="m148.21519 68.932055v-2.836281z"
         id="path203" />
      <path
         d="m13.247467 76.561684v-2.836296z"
         id="path205" />
      <path
         d="m-146.09653 5.8906629v-2.8362814z"
         id="path207" />
      <path
         d="m-267.37648-82.028304v-2.836295z"
         id="path209" />
    </g>
    <g
       transform="matrix(1.0148767 0 0 1.0148767 -81.703147 64.704175)"
       id="g213" />
    <g
       transform="matrix(1.0148767 0 0 1.0148767 -81.703147 64.704175)"
       id="g215" />
    <path
       d="m-17.116717-15.294854v-2.836282z"
       fill="#fff"
       fill-opacity=".756881"
       id="path217" />
    <path
       d="m-111.11908 59.698095v-1.549447z"
       fill="#fff"
       fill-opacity=".756881"
       id="path219" />
    <path
       d="m-366.41015-99.98626v-2.83629z"
       fill="#fff"
       fill-opacity=".756881"
       id="path221" />
    <g
       opacity=".401639"
       transform="matrix(-.7946432 0 0 .6605615 -2723.823 596.7443)"
       id="g223" />
    <g
       opacity=".401639"
       transform="matrix(-.7946432 0 0 .6605615 -2723.823 596.7443)"
       id="g225" />
    <g
       opacity=".401639"
       transform="matrix(1.0148767 0 0 .6605615 524.75712 604.18101)"
       id="g227" />
    <g
       opacity=".401639"
       transform="matrix(1.0148767 0 0 .6605615 524.75712 604.18101)"
       id="g229" />
    <path
       d="m155.76156 235.68274v-2.83628z"
       fill="#fff"
       fill-opacity=".756881"
       id="path231" />
    <path
       d="m-3.5824389 165.01172v-2.83627z"
       fill="#fff"
       fill-opacity=".756881"
       id="path233" />
    <path
       d="m-124.86239 77.092757v-2.836282z"
       fill="#fff"
       fill-opacity=".756881"
       id="path235" />
    <g
       transform="matrix(1.0148767 0 0 1.0148767 60.810854 223.82517)"
       id="g237" />
    <g
       transform="matrix(1.0148767 0 0 1.0148767 60.810854 223.82517)"
       id="g239" />
    <path
       d="m125.39737 143.8262v-2.83627z"
       fill="#fff"
       fill-opacity=".756881"
       id="path241" />
    <path
       d="m31.395018 218.81915v-1.54944z"
       fill="#fff"
       fill-opacity=".756881"
       id="path243" />
    <path
       d="m-223.89606 59.134798v-2.836281z"
       fill="#fff"
       fill-opacity=".756881"
       id="path245" />
    <g
       opacity=".401639"
       transform="matrix(-.7946432 0 0 .6605615 -2581.3092 755.8653)"
       id="g247" />
    <g
       opacity=".401639"
       transform="matrix(-.7946432 0 0 .6605615 -2581.3092 755.8653)"
       id="g249" />
    <g
       opacity=".401639"
       transform="matrix(1.0148767 0 0 .6605615 667.2712 763.30217)"
       id="g251" />
    <g
       opacity=".401639"
       transform="matrix(1.0148767 0 0 .6605615 667.2712 763.30217)"
       id="g253" />
    <path
       d="m85.69115 244.87613c-1.149114 0-2.0625 1.08096-2.0625 2.43749v103.12498c0 1.35655.913386 2.4375 2.0625 2.4375h115.875c1.14913 0 2.0625-1.08095 2.0625-2.4375v-103.12498c0-1.35653-.91337-2.43749-2.0625-2.43749zm1.40625 3.65625h113.0625c1.09166 0 1.96875 1.02406 1.96875 2.29688v98.24997c0 1.2728-.87709 2.29687-1.96875 2.29687h-113.0625c-1.091657 0-1.96875-1.02407-1.96875-2.29687v-98.24997c0-1.27282.877093-2.29688 1.96875-2.29688z"
       fill="url(#linearGradient7843)"
       id="path255" />
    <path
       d="m-221.04685-183.3058v-3.85047z"
       fill="#fff"
       fill-opacity=".756881"
       id="path257" />
    <path
       d="m-404.27583-172.94801v-3.85047z"
       fill="#fff"
       fill-opacity=".756881"
       id="path259" />
    <path
       d="m-620.59744-268.8893v-3.85047z"
       fill="#fff"
       fill-opacity=".756881"
       id="path261" />
    <path
       d="m-785.24423-388.246v-3.85049z"
       fill="#fff"
       fill-opacity=".756881"
       id="path263" />
    <g
       transform="matrix(1.3777714 0 0 1.3777714 -533.1785 -189.04551)"
       id="g265" />
    <g
       transform="matrix(1.3777714 0 0 1.3777714 -533.1785 -189.04551)"
       id="g267" />
    <path
       d="m-445.49752-297.65025v-3.85048z"
       fill="#fff"
       fill-opacity=".756881"
       id="path269" />
    <path
       d="m-573.11289-195.84162v-2.1035z"
       fill="#fff"
       fill-opacity=".756881"
       id="path271" />
    <path
       d="m-919.69-412.62529v-3.85049z"
       fill="#fff"
       fill-opacity=".756881"
       id="path273" />
    <g
       opacity=".401639"
       transform="matrix(-1.078788 0 0 .8967627 -4120.0585 533.23945)"
       id="g275" />
    <g
       opacity=".401639"
       transform="matrix(-1.078788 0 0 .8967627 -4120.0585 533.23945)"
       id="g277" />
    <g
       opacity=".401639"
       transform="matrix(1.3777714 0 0 .8967627 290.13757 543.33536)"
       id="g279" />
    <g
       opacity=".401639"
       transform="matrix(1.3777714 0 0 .8967627 290.13757 543.33536)"
       id="g281" />
    <path
       d="m-210.80207 43.070976v-3.850465z"
       fill="#fff"
       fill-opacity=".756881"
       id="path283" />
    <path
       d="m-427.1237-52.870316v-3.850472z"
       fill="#fff"
       fill-opacity=".756881"
       id="path285" />
    <path
       d="m-591.77047-172.22704v-3.85047z"
       fill="#fff"
       fill-opacity=".756881"
       id="path287" />
    <g
       transform="matrix(1.3777714 0 0 1.3777714 -339.70493 26.973349)"
       id="g289" />
    <g
       transform="matrix(1.3777714 0 0 1.3777714 -339.70493 26.973349)"
       id="g291" />
    <path
       d="m-252.02378-81.631278v-3.850472z"
       fill="#fff"
       fill-opacity=".756881"
       id="path293" />
    <path
       d="m-379.63914 20.177365v-2.103488z"
       fill="#fff"
       fill-opacity=".756881"
       id="path295" />
    <path
       d="m-726.21624-196.60632v-3.85048z"
       fill="#fff"
       fill-opacity=".756881"
       id="path297" />
    <g
       opacity=".401639"
       transform="matrix(-1.078788 0 0 .8967627 -3926.5854 749.25849)"
       id="g299" />
    <g
       opacity=".401639"
       transform="matrix(-1.078788 0 0 .8967627 -3926.5854 749.25849)"
       id="g301" />
    <g
       opacity=".401639"
       transform="matrix(1.3777714 0 0 .8967627 483.61129 759.35456)"
       id="g303" />
    <g
       opacity=".401639"
       transform="matrix(1.3777714 0 0 .8967627 483.61129 759.35456)"
       id="g305" />
    <path
       d="m-279.00178-28.573161v-3.850479z"
       fill="#fff"
       fill-opacity=".756881"
       id="path307" />
    <path
       d="m-495.32341-124.51446v-3.85047z"
       fill="#fff"
       fill-opacity=".756881"
       id="path309" />
    <path
       d="m-659.97018-243.87117v-3.85048z"
       fill="#fff"
       fill-opacity=".756881"
       id="path311" />
    <g
       transform="matrix(1.3777714 0 0 1.3777714 -407.90465 -44.670655)"
       id="g313" />
    <g
       transform="matrix(1.3777714 0 0 1.3777714 -407.90465 -44.670655)"
       id="g315" />
    <path
       d="m-320.22348-153.27542v-3.85047z"
       fill="#fff"
       fill-opacity=".756881"
       id="path317" />
    <path
       d="m-447.83885-51.466781v-2.103493z"
       fill="#fff"
       fill-opacity=".756881"
       id="path319" />
    <path
       d="m-794.41595-268.25047v-3.85047z"
       fill="#fff"
       fill-opacity=".756881"
       id="path321" />
    <g
       opacity=".401639"
       transform="matrix(-1.078788 0 0 .8967627 -3994.7851 677.61424)"
       id="g323" />
    <g
       opacity=".401639"
       transform="matrix(-1.078788 0 0 .8967627 -3994.7851 677.61424)"
       id="g325" />
    <g
       opacity=".401639"
       transform="matrix(1.3777714 0 0 .8967627 415.41173 687.71031)"
       id="g327" />
    <g
       opacity=".401639"
       transform="matrix(1.3777714 0 0 .8967627 415.41173 687.71031)"
       id="g329" />
    <path
       d="m-812.54397 141.92612v-3.85048z"
       fill="#fff"
       fill-opacity=".756881"
       id="path331" />
    <path
       d="m-1028.8656 45.984831v-3.850479z"
       fill="#fff"
       fill-opacity=".756881"
       id="path333" />
    <path
       d="m-1193.5124-73.371901v-3.850472z"
       fill="#fff"
       fill-opacity=".756881"
       id="path335" />
    <g
       transform="matrix(1.3777714 0 0 1.3777714 -941.44678 125.82854)"
       id="g337" />
    <g
       transform="matrix(1.3777714 0 0 1.3777714 -941.44678 125.82854)"
       id="g339" />
    <path
       d="m-853.76566 17.223876v-3.850479z"
       fill="#fff"
       fill-opacity=".756881"
       id="path341" />
    <path
       d="m-981.38102 119.03251v-2.1035z"
       fill="#fff"
       fill-opacity=".756881"
       id="path343" />
    <path
       d="m-1327.9581-97.75119v-3.85048z"
       fill="#fff"
       fill-opacity=".756881"
       id="path345" />
    <g
       opacity=".401639"
       transform="matrix(-1.078788 0 0 .8967627 -4528.3268 848.11353)"
       id="g347" />
    <g
       opacity=".401639"
       transform="matrix(-1.078788 0 0 .8967627 -4528.3268 848.11353)"
       id="g349" />
    <g
       opacity=".401639"
       transform="matrix(1.3777714 0 0 .8967627 -118.13056 858.20959)"
       id="g351" />
    <g
       opacity=".401639"
       transform="matrix(1.3777714 0 0 .8967627 -118.13056 858.20959)"
       id="g353" />
    <path
       d="m-464.80515 384.9542v-3.85047z"
       fill="#fff"
       fill-opacity=".756881"
       id="path355" />
    <path
       d="m-681.12676 289.01289v-3.85045z"
       fill="#fff"
       fill-opacity=".756881"
       id="path357" />
    <path
       d="m-845.77355 169.65618v-3.85046z"
       fill="#fff"
       fill-opacity=".756881"
       id="path359" />
    <g
       transform="matrix(1.3777714 0 0 1.3777714 -593.70797 368.85658)"
       id="g361" />
    <g
       transform="matrix(1.3777714 0 0 1.3777714 -593.70797 368.85658)"
       id="g363" />
    <path
       d="m-506.02685 260.25196v-3.85049z"
       fill="#fff"
       fill-opacity=".756881"
       id="path365" />
    <path
       d="m-633.64221 362.06058v-2.1035z"
       fill="#fff"
       fill-opacity=".756881"
       id="path367" />
    <path
       d="m-980.21932 145.27689v-3.85046z"
       fill="#fff"
       fill-opacity=".756881"
       id="path369" />
    <g
       opacity=".401639"
       transform="matrix(-1.078788 0 0 .8967627 -4180.588 1091.1417)"
       id="g371" />
    <g
       opacity=".401639"
       transform="matrix(-1.078788 0 0 .8967627 -4180.588 1091.1417)"
       id="g373" />
    <g
       opacity=".401639"
       transform="matrix(1.3777714 0 0 .8967627 229.60826 1101.2376)"
       id="g375" />
    <g
       opacity=".401639"
       transform="matrix(1.3777714 0 0 .8967627 229.60826 1101.2376)"
       id="g377" />
    <path
       d="m-603.47732 63.156795v-3.850479z"
       fill="#fff"
       fill-opacity=".756881"
       id="path379" />
    <path
       d="m-819.79895-32.784494v-3.850478z"
       fill="#fff"
       fill-opacity=".756881"
       id="path381" />
    <path
       d="m-984.44573-152.14121v-3.85047z"
       fill="#fff"
       fill-opacity=".756881"
       id="path383" />
    <g
       transform="matrix(1.3777714 0 0 1.3777714 -732.38027 47.059197)"
       id="g385" />
    <g
       transform="matrix(1.3777714 0 0 1.3777714 -732.38027 47.059197)"
       id="g387" />
    <path
       d="m-644.69902-61.545463v-3.850472z"
       fill="#fff"
       fill-opacity=".756881"
       id="path389" />
    <path
       d="m-772.31439 40.263185v-2.103504z"
       fill="#fff"
       fill-opacity=".756881"
       id="path391" />
    <path
       d="m-1118.8915-176.52051v-3.85047z"
       fill="#fff"
       fill-opacity=".756881"
       id="path393" />
    <g
       opacity=".401639"
       transform="matrix(-1.078788 0 0 .8967627 -4319.2592 769.34433)"
       id="g395" />
    <g
       opacity=".401639"
       transform="matrix(-1.078788 0 0 .8967627 -4319.2592 769.34433)"
       id="g397" />
    <g
       opacity=".401639"
       transform="matrix(1.3777714 0 0 .8967627 90.936098 779.4404)"
       id="g399" />
    <g
       opacity=".401639"
       transform="matrix(1.3777714 0 0 .8967627 90.936098 779.4404)"
       id="g401" />
    <path
       d="m-600.7115 61.88267v-3.850478z"
       fill="#fff"
       fill-opacity=".756881"
       id="path403" />
    <path
       d="m-817.03314-34.058632v-3.850472z"
       fill="#fff"
       fill-opacity=".756881"
       id="path405" />
    <path
       d="m-981.67991-153.41535v-3.85047z"
       fill="#fff"
       fill-opacity=".756881"
       id="path407" />
    <g
       transform="matrix(1.3777714 0 0 1.3777714 -729.61435 45.785103)"
       id="g409" />
    <g
       transform="matrix(1.3777714 0 0 1.3777714 -729.61435 45.785103)"
       id="g411" />
    <path
       d="m-641.93321-62.819593v-3.850472z"
       fill="#fff"
       fill-opacity=".756881"
       id="path413" />
    <path
       d="m-769.54857 38.98906v-2.103503z"
       fill="#fff"
       fill-opacity=".756881"
       id="path415" />
    <path
       d="m-1116.1257-177.79464v-3.85048z"
       fill="#fff"
       fill-opacity=".756881"
       id="path417" />
    <g
       opacity=".401639"
       transform="matrix(-1.078788 0 0 .8967627 -4316.4943 768.07009)"
       id="g419" />
    <g
       opacity=".401639"
       transform="matrix(-1.078788 0 0 .8967627 -4316.4943 768.07009)"
       id="g421" />
    <g
       opacity=".401639"
       transform="matrix(1.3777714 0 0 .8967627 93.701877 778.16616)"
       id="g423" />
    <g
       opacity=".401639"
       transform="matrix(1.3777714 0 0 .8967627 93.701877 778.16616)"
       id="g425" />
    <path
       d="m-188.17335-11.457543v-12.569648 8.719169z"
       fill="#fff"
       fill-opacity=".756881"
       id="path427" />
    <path
       d="m-371.40232-1.0997485v-3.8504789z"
       fill="#fff"
       fill-opacity=".756881"
       id="path429" />
    <path
       d="m-587.72396-97.04105v-3.85047z"
       fill="#fff"
       fill-opacity=".756881"
       id="path431" />
    <path
       d="m-752.37073-216.39776v-3.85048z"
       fill="#fff"
       fill-opacity=".756881"
       id="path433" />
    <g
       transform="matrix(1.3777714 0 0 1.3777714 -500.30506 -17.197346)"
       id="g435" />
    <g
       transform="matrix(1.3777714 0 0 1.3777714 -500.30506 -17.197346)"
       id="g437" />
    <path
       d="m-412.62402-125.802v-3.85048z"
       fill="#fff"
       fill-opacity=".756881"
       id="path439" />
    <path
       d="m-540.23937-23.993359v-2.103503z"
       fill="#fff"
       fill-opacity=".756881"
       id="path441" />
    <path
       d="m-886.81649-240.77705v-3.85048z"
       fill="#fff"
       fill-opacity=".756881"
       id="path443" />
    <g
       opacity=".401639"
       transform="matrix(-1.078788 0 0 .8967627 -4087.1854 705.08781)"
       id="g445" />
    <g
       opacity=".401639"
       transform="matrix(-1.078788 0 0 .8967627 -4087.1854 705.08781)"
       id="g447" />
    <g
       opacity=".401639"
       transform="matrix(1.3777714 0 0 .8967627 323.01116 715.18372)"
       id="g449" />
    <g
       opacity=".401639"
       transform="matrix(1.3777714 0 0 .8967627 323.01116 715.18372)"
       id="g451" />
    <path
       d="m-177.92858 214.91924v-3.85048z"
       fill="#fff"
       fill-opacity=".756881"
       id="path453" />
    <path
       d="m-394.2502 118.97794v-3.85047z"
       fill="#fff"
       fill-opacity=".756881"
       id="path455" />
    <path
       d="m-558.89698-.3787802v-3.8504641z"
       fill="#fff"
       fill-opacity=".756881"
       id="path457" />
    <g
       transform="matrix(1.3777714 0 0 1.3777714 -306.83133 198.82157)"
       id="g459" />
    <g
       transform="matrix(1.3777714 0 0 1.3777714 -306.83133 198.82157)"
       id="g461" />
    <path
       d="m-219.15028 90.216979v-3.850464z"
       fill="#fff"
       fill-opacity=".756881"
       id="path463" />
    <path
       d="m-346.76564 192.02563v-2.1035z"
       fill="#fff"
       fill-opacity=".756881"
       id="path465" />
    <path
       d="m-693.34274-24.758066v-3.850479z"
       fill="#fff"
       fill-opacity=".756881"
       id="path467" />
    <g
       opacity=".401639"
       transform="matrix(-1.078788 0 0 .8967627 -3893.7122 921.10671)"
       id="g469" />
    <g
       opacity=".401639"
       transform="matrix(-1.078788 0 0 .8967627 -3893.7122 921.10671)"
       id="g471" />
    <g
       opacity=".401639"
       transform="matrix(1.3777714 0 0 .8967627 516.48488 931.20277)"
       id="g473" />
    <g
       opacity=".401639"
       transform="matrix(1.3777714 0 0 .8967627 516.48488 931.20277)"
       id="g475" />
    <path
       d="m83.62865 276.8761h120v76h-120z"
       fill="#fff"
       id="path477" />
    <use
       height="96"
       transform="translate(-16 -.000002)"
       width="96"
       xlink:href="#g10952"
       id="use479" />
    <use
       height="96"
       transform="translate(-32 -.000002)"
       width="96"
       xlink:href="#g10952"
       id="use481" />
    <use
       height="96"
       transform="translate(-96 -.000002)"
       width="96"
       xlink:href="#g10952"
       id="use483" />
  </g>
  <path
     inkscape:connector-curvature="0"
     style="fill:url(#p);stroke-width:3.34899044"
     d="M 63.464715,74.399805 37.999993,57.892917 63.464715,41.386007 v 11.004619 c 29.708927,1.834084 27.58687,27.511504 27.58687,27.511504 0,0 -2.033796,-16.506911 -27.58687,-16.506911 z"
     id="path2135" />
  <path
     inkscape:connector-curvature="0"
     style="fill:url(#p-3);stroke-width:3.35480237"
     d="M 66.807331,79.285427 91.491527,96.373433 66.807331,113.46145 V 102.06943 C 38.009024,100.17077 40.066039,73.589396 40.066039,73.589396 c 0,0 1.971456,17.088021 26.741292,17.088021 z"
     id="path2135-5" />
</svg>
