<svg height="128" style="" width="128" xmlns="http://www.w3.org/2000/svg" xmlns:xlink="http://www.w3.org/1999/xlink"><linearGradient id="a" gradientTransform="matrix(.121457 0 0 .1756605 195.18891 503.66043)" gradientUnits="userSpaceOnUse" style="" x1="-333.0289" x2="-333.0289" y1="-1473.6504" y2="-776.61371"><stop offset="0" style="stop-color:#fff"/><stop offset=".49140647" style="stop-color:#fff"/><stop offset="1" style="stop-color:#dcdcdc"/></linearGradient><linearGradient id="b" gradientTransform="matrix(.121457 0 0 .1756605 75.745932 148.34634)" gradientUnits="userSpaceOnUse" style="" x1="399.77466" x2="399.77466" y1="727.07941" y2="480.60214"><stop offset="0" style="stop-color:#cbcbcd"/><stop offset=".5" style="stop-color:#e0e0e2"/><stop offset="1" style="stop-color:#f2f2f2"/></linearGradient><linearGradient id="c" gradientUnits="userSpaceOnUse" style="" x1="1055.3002" x2="1055.3002" y1="-468.66934" y2="-481.76657"><stop offset="0" style="stop-color:#6f6f6f"/><stop offset="1" style="stop-color:#fff"/></linearGradient><filter id="d" style=""><feGaussianBlur stdDeviation="1.177891" style=""/></filter><linearGradient id="e" gradientUnits="userSpaceOnUse" style=""><stop offset="0" style="stop-color:#0081ec"/><stop offset="1" style="stop-color:#0057ae"/></linearGradient><radialGradient id="f" cx="95.862061" cy="100.26814" gradientTransform="matrix(3.6023183 0 0 2.6137022 -263.85241 -199.55177)" r="7.368137" style="" xlink:href="#e"/><radialGradient id="g" cx="95.862061" cy="100.26814" gradientTransform="matrix(-3.4919024 0 0 -2.7057157 384.09175 362.88127)" r="7.368137" style="" xlink:href="#e"/><g style="" transform="translate(-79.62865 -236.8761)"><rect height="111.6" rx="2.143353" ry="2.53025" style="opacity:.4;filter:url(#d)" transform="matrix(1 0 0 1.0035842 0 2.742375)" width="124" x="81.628647" y="239.27611"/><path d="m124.00035-57.652544v-2.836284z" style="fill:#fff;fill-opacity:.756881"/><path d="m-10.967378-50.02293v-2.836281z" style="fill:#fff;fill-opacity:.756881"/><path d="m-170.31138-120.69393v-2.83628z" style="fill:#fff;fill-opacity:.756881"/><path d="m-291.59132-208.61291v-2.83629z" style="fill:#fff;fill-opacity:.756881"/><path d="m-41.331563-141.87945v-2.83629z" style="fill:#fff;fill-opacity:.756881"/><path d="m-135.33391-66.886514v-1.549446z" style="fill:#fff;fill-opacity:.756881"/><path d="m-390.62499-226.57087v-2.83628z" style="fill:#fff;fill-opacity:.756881"/><path d="m131.54671 109.09814v-2.83628z" style="fill:#fff;fill-opacity:.756881"/><path d="m-27.797286 38.427136v-2.836296z" style="fill:#fff;fill-opacity:.756881"/><path d="m-149.07723-49.491843v-2.836296z" style="fill:#fff;fill-opacity:.756881"/><path d="m101.18252 17.241605v-2.836282z" style="fill:#fff;fill-opacity:.756881"/><path d="m7.1801708 92.234553v-1.549446z" style="fill:#fff;fill-opacity:.756881"/><path d="m-248.1109-67.4498v-2.836284z" style="fill:#fff;fill-opacity:.756881"/><path d="m81.310335 56.324571v-2.836281z" style="fill:#fff;fill-opacity:.756881"/><path d="m-78.033659-14.346435v-2.836282z" style="fill:#fff;fill-opacity:.756881"/><path d="m-199.31361-102.26541v-2.83629z" style="fill:#fff;fill-opacity:.756881"/><path d="m50.946152-35.531953v-2.836281z" style="fill:#fff;fill-opacity:.756881"/><path d="m-43.056203 39.460982v-1.549447z" style="fill:#fff;fill-opacity:.756881"/><path d="m-298.34728-120.22337v-2.83628z" style="fill:#fff;fill-opacity:.756881"/><path d="m-311.70048 181.91552v-2.8363z" style="fill:#fff;fill-opacity:.756881"/><path d="m-471.0445 111.2445v-2.83628z" style="fill:#fff;fill-opacity:.756881"/><path d="m-592.32444 23.325521v-2.836282z" style="fill:#fff;fill-opacity:.756881"/><path d="m-342.06469 90.058982v-2.836281z" style="fill:#fff;fill-opacity:.756881"/><path d="m-436.06704 165.05193v-1.54946z" style="fill:#fff;fill-opacity:.756881"/><path d="m-691.35811 5.367577v-2.8362961z" style="fill:#fff;fill-opacity:.756881"/><path d="m-55.553696 360.93168v-2.83629z" style="fill:#fff;fill-opacity:.756881"/><path d="m-214.89769 290.26066v-2.83629z" style="fill:#fff;fill-opacity:.756881"/><path d="m-336.17763 202.34167v-2.83628z" style="fill:#fff;fill-opacity:.756881"/><path d="m-85.917879 269.07514v-2.83629z" style="fill:#fff;fill-opacity:.756881"/><path d="m-179.92023 344.06809v-1.54946z" style="fill:#fff;fill-opacity:.756881"/><path d="m-435.2113 184.38373v-2.8363z" style="fill:#fff;fill-opacity:.756881"/><path d="m-157.70057 123.8935v-2.8363z" style="fill:#fff;fill-opacity:.756881"/><path d="m-317.04457 53.222473v-2.836281z" style="fill:#fff;fill-opacity:.756881"/><path d="m-438.32452-34.696491v-2.836296z" style="fill:#fff;fill-opacity:.756881"/><path d="m-188.06476 32.036956v-2.836281z" style="fill:#fff;fill-opacity:.756881"/><path d="m-282.06711 107.02991v-1.54947z" style="fill:#fff;fill-opacity:.756881"/><path d="m-537.35819-52.65445v-2.836281z" style="fill:#fff;fill-opacity:.756881"/><rect height="107.99998" rx="2.074212" ry="2.448628" style="fill:url(#b)" width="119.99998" x="83.628647" y="244.87613"/><path d="m-155.66325 122.95497v-2.8363z" style="fill:#fff;fill-opacity:.756881"/><path d="m-315.00724 52.283945v-2.836281z" style="fill:#fff;fill-opacity:.756881"/><path d="m-436.28719-35.635034v-2.836281z" style="fill:#fff;fill-opacity:.756881"/><path d="m-186.02744 31.098428v-2.836282z" style="fill:#fff;fill-opacity:.756881"/><path d="m-280.02978 106.09138v-1.54946z" style="fill:#fff;fill-opacity:.756881"/><path d="m-535.32086-53.592984v-2.836284z" style="fill:#fff;fill-opacity:.756881"/><g id="h" style="" transform="matrix(1.4999999 0 0 1.4999997 -39.814316 -120.43796)"><path d="m1060.3605-478.60516a5.0602889 5.0602889 0 1 1 -10.1206 0 5.0602889 5.0602889 0 1 1 10.1206 0z" style="fill:url(#c)" transform="matrix(.7904687 0 0 .7904687 -678.5531 631.1985)"/></g><g style="fill:#fff;fill-opacity:.756881"><path d="m148.21519 68.932055v-2.836281z" style=""/><path d="m13.247467 76.561684v-2.836296z" style=""/><path d="m-146.09653 5.8906629v-2.8362814z" style=""/><path d="m-267.37648-82.028304v-2.836295z" style=""/></g><path d="m-17.116717-15.294854v-2.836282z" style="fill:#fff;fill-opacity:.756881"/><path d="m-111.11908 59.698095v-1.549447z" style="fill:#fff;fill-opacity:.756881"/><path d="m-366.41015-99.98626v-2.83629z" style="fill:#fff;fill-opacity:.756881"/><path d="m155.76156 235.68274v-2.83628z" style="fill:#fff;fill-opacity:.756881"/><path d="m-3.5824389 165.01172v-2.83627z" style="fill:#fff;fill-opacity:.756881"/><path d="m-124.86239 77.092757v-2.836282z" style="fill:#fff;fill-opacity:.756881"/><path d="m125.39737 143.8262v-2.83627z" style="fill:#fff;fill-opacity:.756881"/><path d="m31.395018 218.81915v-1.54944z" style="fill:#fff;fill-opacity:.756881"/><path d="m-223.89606 59.134798v-2.836281z" style="fill:#fff;fill-opacity:.756881"/><path d="m85.69115 244.87613c-1.149114 0-2.0625 1.08096-2.0625 2.43749v103.12498c0 1.35655.913386 2.4375 2.0625 2.4375h115.875c1.14913 0 2.0625-1.08095 2.0625-2.4375v-103.12498c0-1.35653-.91337-2.43749-2.0625-2.43749zm1.40625 3.65625h113.0625c1.09166 0 1.96875 1.02406 1.96875 2.29688v98.24997c0 1.2728-.87709 2.29687-1.96875 2.29687h-113.0625c-1.091657 0-1.96875-1.02407-1.96875-2.29687v-98.24997c0-1.27282.877093-2.29688 1.96875-2.29688z" style="fill:url(#a)"/><g style="fill:#fff"><path d="m-221.04685-183.3058v-3.85047z" style="fill-opacity:.756881"/><path d="m-404.27583-172.94801v-3.85047z" style="fill-opacity:.756881"/><path d="m-620.59744-268.8893v-3.85047z" style="fill-opacity:.756881"/><path d="m-785.24423-388.246v-3.85049z" style="fill-opacity:.756881"/><path d="m-445.49752-297.65025v-3.85048z" style="fill-opacity:.756881"/><path d="m-573.11289-195.84162v-2.1035z" style="fill-opacity:.756881"/><path d="m-919.69-412.62529v-3.85049z" style="fill-opacity:.756881"/><path d="m-210.80207 43.070976v-3.850465z" style="fill-opacity:.756881"/><path d="m-427.1237-52.870316v-3.850472z" style="fill-opacity:.756881"/><path d="m-591.77047-172.22704v-3.85047z" style="fill-opacity:.756881"/><path d="m-252.02378-81.631278v-3.850472z" style="fill-opacity:.756881"/><path d="m-379.63914 20.177365v-2.103488z" style="fill-opacity:.756881"/><path d="m-726.21624-196.60632v-3.85048z" style="fill-opacity:.756881"/><path d="m-279.00178-28.573161v-3.850479z" style="fill-opacity:.756881"/><path d="m-495.32341-124.51446v-3.85047z" style="fill-opacity:.756881"/><path d="m-659.97018-243.87117v-3.85048z" style="fill-opacity:.756881"/><path d="m-320.22348-153.27542v-3.85047z" style="fill-opacity:.756881"/><path d="m-447.83885-51.466781v-2.103493z" style="fill-opacity:.756881"/><path d="m-794.41595-268.25047v-3.85047z" style="fill-opacity:.756881"/><path d="m-812.54397 141.92612v-3.85048z" style="fill-opacity:.756881"/><path d="m-1028.8656 45.984831v-3.850479z" style="fill-opacity:.756881"/><path d="m-1193.5124-73.371901v-3.850472z" style="fill-opacity:.756881"/><path d="m-853.76566 17.223876v-3.850479z" style="fill-opacity:.756881"/><path d="m-981.38102 119.03251v-2.1035z" style="fill-opacity:.756881"/><path d="m-1327.9581-97.75119v-3.85048z" style="fill-opacity:.756881"/><path d="m-464.80515 384.9542v-3.85047z" style="fill-opacity:.756881"/><path d="m-681.12676 289.01289v-3.85045z" style="fill-opacity:.756881"/><path d="m-845.77355 169.65618v-3.85046z" style="fill-opacity:.756881"/><path d="m-506.02685 260.25196v-3.85049z" style="fill-opacity:.756881"/><path d="m-633.64221 362.06058v-2.1035z" style="fill-opacity:.756881"/><path d="m-980.21932 145.27689v-3.85046z" style="fill-opacity:.756881"/><path d="m-603.47732 63.156795v-3.850479z" style="fill-opacity:.756881"/><path d="m-819.79895-32.784494v-3.850478z" style="fill-opacity:.756881"/><path d="m-984.44573-152.14121v-3.85047z" style="fill-opacity:.756881"/><path d="m-644.69902-61.545463v-3.850472z" style="fill-opacity:.756881"/><path d="m-772.31439 40.263185v-2.103504z" style="fill-opacity:.756881"/><path d="m-1118.8915-176.52051v-3.85047z" style="fill-opacity:.756881"/><path d="m-600.7115 61.88267v-3.850478z" style="fill-opacity:.756881"/><path d="m-817.03314-34.058632v-3.850472z" style="fill-opacity:.756881"/><path d="m-981.67991-153.41535v-3.85047z" style="fill-opacity:.756881"/><path d="m-641.93321-62.819593v-3.850472z" style="fill-opacity:.756881"/><path d="m-769.54857 38.98906v-2.103503z" style="fill-opacity:.756881"/><path d="m-1116.1257-177.79464v-3.85048z" style="fill-opacity:.756881"/><path d="m-188.17335-11.457543v-12.569648 8.719169z" style="fill-opacity:.756881"/><path d="m-371.40232-1.0997485v-3.8504789z" style="fill-opacity:.756881"/><path d="m-587.72396-97.04105v-3.85047z" style="fill-opacity:.756881"/><path d="m-752.37073-216.39776v-3.85048z" style="fill-opacity:.756881"/><path d="m-412.62402-125.802v-3.85048z" style="fill-opacity:.756881"/><path d="m-540.23937-23.993359v-2.103503z" style="fill-opacity:.756881"/><path d="m-886.81649-240.77705v-3.85048z" style="fill-opacity:.756881"/><path d="m-177.92858 214.91924v-3.85048z" style="fill-opacity:.756881"/><path d="m-394.2502 118.97794v-3.85047z" style="fill-opacity:.756881"/><path d="m-558.89698-.3787802v-3.8504641z" style="fill-opacity:.756881"/><path d="m-219.15028 90.216979v-3.850464z" style="fill-opacity:.756881"/><path d="m-346.76564 192.02563v-2.1035z" style="fill-opacity:.756881"/><path d="m-693.34274-24.758066v-3.850479z" style="fill-opacity:.756881"/><path d="m83.62865 276.8761h120v76h-120z" style=""/></g><use height="96" style="" transform="translate(-16 -.000002)" width="96" xlink:href="#h"/><use height="96" style="" transform="translate(-32 -.000002)" width="96" xlink:href="#h"/><use height="96" style="" transform="translate(-96 -.000002)" width="96" xlink:href="#h"/></g><path d="m63.464715 74.399805-25.464722-16.506888 25.464722-16.50691v11.004619c29.708927 1.834084 27.58687 27.511504 27.58687 27.511504s-2.033796-16.506911-27.58687-16.506911z" style="stroke-width:3.34899;fill:url(#f)"/><path d="m66.807331 79.285427 24.684196 17.088006-24.684196 17.088017v-11.39202c-28.798307-1.89866-26.741292-28.480034-26.741292-28.480034s1.971456 17.088021 26.741292 17.088021z" style="stroke-width:3.354802;fill:url(#g)"/></svg>