<svg height="30mm" viewBox="0 0 30 30.000001" width="30mm" xmlns="http://www.w3.org/2000/svg"><g transform="translate(-9.127918 -5.10328)"><circle cx="19.560497" cy="21.027401" fill="none" r="9.260417" stroke="#000" stroke-linecap="square" stroke-linejoin="round" stroke-width=".264999"/><circle cx="19.560497" cy="21.027401" fill="none" r="5.291667" stroke="#000" stroke-linecap="square" stroke-linejoin="round" stroke-width=".264999"/><path d="m10.300082 21.027401v-13.2291662" fill="none" stroke="#f00" stroke-width=".264583"/><path d="m28.820915 21.027401v-13.2291662" fill="none" stroke="#fe0000" stroke-width=".264583"/><path d="m16.240475 25.049539 6.76698-8.1066" fill="none" stroke="#f00" stroke-width=".265197"/><path d="m10.432373 9.1211515h18.256251" fill="none" stroke="#f00" stroke-width=".262801"/><text style="font-size:2.11667;font-family:sans-serif;letter-spacing:-.291042;word-spacing:0;text-anchor:middle;stroke-width:.264583" x="18.966454" y="19.892872"><tspan stroke-width=".264583" x="18.820932" y="19.892872">d</tspan></text><text style="font-size:2.11667;font-family:sans-serif;letter-spacing:-.291042;word-spacing:0;text-anchor:middle;stroke-width:.264583" x="18.741016" y="8.327402"><tspan stroke-width=".264583" x="18.741016" y="8.327402">D</tspan><tspan stroke-width=".264583" x="18.741016" y="10.97324"/></text><g fill="none"><path d="m10.432373 9.1211514 1.738457-.6544842" stroke="#f00" stroke-width=".264583"/><path d="m10.432373 9.1211514 1.738457.6684324" stroke="#f00" stroke-width=".264583"/><path d="m28.688624 9.1211515-1.738457-.6544842" stroke="#f00" stroke-width=".264583"/><path d="m28.688624 9.1211515-1.738457.6684319" stroke="#f00" stroke-width=".264583"/><path d="m31.834812 33.074757-1.738457-.654484" stroke="#f00" stroke-width=".264583"/><path d="m31.834812 33.074757-1.738457.668432" stroke="#f00" stroke-width=".264583"/><path d="m16.93333 23.283334-.692855 1.766205 1.486605-.972455" stroke="#f00" stroke-width=".264583"/><path d="m22.143152 18.87477.692855-1.766205-1.486605.972455" stroke="#f00" stroke-width=".264583"/><path d="m31.749998 11.90625h3.96875v18.520834h-3.96875z" stroke="#000" stroke-linecap="square" stroke-linejoin="round" stroke-width=".242"/><path d="m31.749998 30.427084v3.439584" stroke="#f00" stroke-width=".264583"/><path d="m35.718749 30.427084v3.439584" stroke="#f00" stroke-width=".264583"/><path d="m27.781248 33.072918h3.96875" stroke="#f00" stroke-width=".264583"/><path d="m35.718749 33.072918h3.174999" stroke="#f00" stroke-width=".264583"/><path d="m35.718748 33.072918 1.738457-.654484" stroke="#f00" stroke-width=".264583"/><path d="m35.718748 33.072918 1.738457.668433" stroke="#f00" stroke-width=".264583"/></g><text style="font-size:2.11667;font-family:sans-serif;letter-spacing:-.291042;word-spacing:0;text-anchor:middle;stroke-width:.264583" x="33.747604" y="34.131252"><tspan stroke-width=".264583" x="33.602085" y="34.131252">H</tspan></text><path d="m31.749998 15.875h3.968751" fill="none" stroke="#000" stroke-dasharray=".265 .265" stroke-width=".265"/><path d="m31.749998 26.458334h3.968751" fill="none" stroke="#000" stroke-dasharray=".264583 .264583" stroke-width=".264583"/></g></svg>