<svg xmlns="http://www.w3.org/2000/svg" xmlns:xlink="http://www.w3.org/1999/xlink" width="128" height="128"><defs><linearGradient id="a"><stop offset="0" stop-color="#0968ef"/><stop offset="1" stop-color="#aecffc"/></linearGradient><linearGradient id="b"><stop offset="0" stop-color="#fff"/><stop offset="1" stop-color="#fff" stop-opacity="0"/></linearGradient><linearGradient id="c"><stop offset="0" stop-color="#c7cdd7"/><stop offset="1" stop-color="#fff"/></linearGradient><linearGradient xlink:href="#a" id="j" x1="113.157" x2="39.268" y1="25.786" y2="25.786" gradientTransform="scale(.6793) rotate(-77.996 104.55 112.982)" gradientUnits="userSpaceOnUse"/><linearGradient xlink:href="#b" id="f" x1="102.311" x2="74.33" y1="-5.83" y2="32" gradientTransform="matrix(.94899 0 0 1.31141 -39.288 3.017)" gradientUnits="userSpaceOnUse"/><linearGradient id="e" x1="42.729" x2="124.092" y1="100" y2="28" gradientTransform="matrix(.70833 0 0 .88889 -99.333 -8.901)" gradientUnits="userSpaceOnUse"><stop offset="0" stop-color="#fff"/><stop offset=".426" stop-color="#fff"/><stop offset=".589" stop-color="#f1f1f1"/><stop offset=".802" stop-color="#eaeaea"/><stop offset="1" stop-color="#dfdfdf"/></linearGradient><linearGradient id="d" x1="399.775" x2="399.775" y1="1164.67" y2="549.061" gradientTransform="matrix(.08949 0 0 .13012 -106.223 -63.516)" gradientUnits="userSpaceOnUse"><stop offset="0" stop-color="#b4b4b6"/><stop offset=".5" stop-color="#9c9ca1"/><stop offset="1" stop-color="#cdcdd1"/></linearGradient><linearGradient xlink:href="#a" id="k" x1="113.157" x2="39.268" y1="25.786" y2="25.786" gradientTransform="matrix(-.13313 .62613 -.62613 -.13313 145.69 15.215)" gradientUnits="userSpaceOnUse"/><linearGradient xlink:href="#a" id="h" x1="-69.148" x2="8.469" y1="92.303" y2="55.123" gradientTransform="matrix(.88505 0 0 .88911 -5.127 9.358)" gradientUnits="userSpaceOnUse"/><linearGradient xlink:href="#c" id="g" x1="28.422" x2="127.804" y1="58.674" y2="35.792" gradientTransform="matrix(.67598 0 0 .79032 -73.602 40.845)" gradientUnits="userSpaceOnUse"/><linearGradient xlink:href="#b" id="l" x1="68.303" x2="68.303" y1="30.529" y2="85.078" gradientTransform="matrix(.95413 -.02845 -.02845 .98697 2.79 1.23)" gradientUnits="userSpaceOnUse"/><linearGradient xlink:href="#c" id="i" x1="80.347" x2="73.463" y1="17.269" y2="107.955" gradientTransform="matrix(.67241 0 0 .78142 -73.545 41.415)" gradientUnits="userSpaceOnUse"/></defs><rect width="72" height="64.176" x="-92" y="12" fill="url(#d)" opacity=".75" rx="2.631" ry="2.769" transform="rotate(-90)"/><g fill-rule="evenodd"><rect width="63.763" height="55.786" x="-88" y="15.987" fill="url(#e)" rx="1.275" ry="1.444" transform="rotate(-90)"/><path fill="url(#f)" d="M47.545 24C37.406 36.364 27.902 49.737 21.98 65.965h25.83C49.258 50.43 53.774 36.394 60 24z"/><rect width="64.894" height="56.903" x="-62.786" y="62.974" fill="url(#g)" stroke="url(#h)" stroke-linecap="round" stroke-linejoin="round" stroke-width="7.097" rx="1.217" ry="1.184" transform="rotate(-60) skewX(-.009)"/><rect width="64.551" height="56.262" x="-62.786" y="63.295" fill="url(#i)" rx="1.21" ry="1.171" transform="rotate(-60) skewX(-.009)"/><path fill="url(#j)" d="M16.738 54.477.058 67.597l2.08 3.203 9.092-3.483c-5.291 24.885 6.918 34.784 20.434 37.995l.999-5.518c-10.448-3.135-20.784-9.4-16.117-31.346L23.3 75.3l3.336-2.051z"/><path fill="url(#k)" d="m112.183 86.622 15.718-12.364-1.96-3.018-8.567 3.282c4.986-23.45-6.52-32.777-19.256-35.803l-.941 5.2c9.845 2.954 19.585 8.857 15.188 29.538L106 67l-3.144 1.933z"/></g><path fill="url(#l)" d="M56.254 30.575a1.197 1.197 0 0 0-1.18.59L35.007 65.939c6.586 1.472 14.026 2.17 21.9 1.935 17.398-.518 32.858-5.53 42.075-12.749L56.696 30.716a1.13 1.13 0 0 0-.443-.14z" opacity=".574"/></svg>