<?xml version="1.0" encoding="UTF-8" standalone="no"?>
<!-- Created with Inkscape (http://www.inkscape.org/) -->
<svg height="128" width="128" xmlns="http://www.w3.org/2000/svg" xmlns:xlink="http://www.w3.org/1999/xlink">
  <defs>
    <linearGradient id="linearGradient2399">
      <stop offset="0" stop-color="#0968ef"/>
      <stop offset="1" stop-color="#aecffc"/>
    </linearGradient>
    <linearGradient id="linearGradient3310">
      <stop offset="0" stop-color="#fff"/>
      <stop offset="1" stop-color="#fff" stop-opacity="0"/>
    </linearGradient>
    <linearGradient id="linearGradient3323">
      <stop offset="0" stop-color="#c7cdd7"/>
      <stop offset="1" stop-color="#fff"/>
    </linearGradient>
    <linearGradient id="linearGradient2201" gradientTransform="matrix(.14127989 -.66444142 .66444142 .14127989 -18.819718 130.2539)" gradientUnits="userSpaceOnUse" x1="113.15723" x2="39.268185" xlink:href="#linearGradient2399" y1="25.786163" y2="25.786163"/>
    <linearGradient id="linearGradient2211" gradientTransform="matrix(.94898505 0 0 1.3114132 -39.287562 3.01739)" gradientUnits="userSpaceOnUse" x1="102.31124" x2="74.330322" xlink:href="#linearGradient3310" y1="-5.830213" y2="32"/>
    <linearGradient id="linearGradient2214" gradientTransform="matrix(.70833339 0 0 .888889 -99.33333 -8.901465)" gradientUnits="userSpaceOnUse" x1="42.728634" x2="124.09152" y1="99.999985" y2="27.999992">
      <stop offset="0" stop-color="#fff"/>
      <stop offset=".42597079" stop-color="#fff"/>
      <stop offset=".5892781" stop-color="#f1f1f1"/>
      <stop offset=".80219781" stop-color="#eaeaea"/>
      <stop offset="1" stop-color="#dfdfdf"/>
    </linearGradient>
    <linearGradient id="linearGradient2217" gradientTransform="matrix(.08948859 0 0 .1301193 -106.22302 -63.516115)" gradientUnits="userSpaceOnUse" x1="399.77466" x2="399.77466" y1="1164.6696" y2="549.06134">
      <stop offset="0" stop-color="#b4b4b6"/>
      <stop offset=".5" stop-color="#9c9ca1"/>
      <stop offset="1" stop-color="#cdcdd1"/>
    </linearGradient>
    <linearGradient id="linearGradient2221" gradientTransform="matrix(-.13313305 .62612671 -.62612671 -.13313305 145.6909 15.214993)" gradientUnits="userSpaceOnUse" x1="113.15723" x2="39.268185" xlink:href="#linearGradient2399" y1="25.786163" y2="25.786163"/>
    <linearGradient id="linearGradient3612" gradientTransform="matrix(.88504808 0 0 .88911486 -5.127286 9.357551)" gradientUnits="userSpaceOnUse" x1="-69.147636" x2="8.469229" xlink:href="#linearGradient2399" y1="92.303108" y2="55.123131"/>
    <linearGradient id="linearGradient3614" gradientTransform="matrix(.67598371 0 0 .79032464 -73.601806 40.844858)" gradientUnits="userSpaceOnUse" x1="28.42202" x2="127.80429" xlink:href="#linearGradient3323" y1="58.674355" y2="35.79192"/>
    <linearGradient id="linearGradient3629" gradientTransform="matrix(.95412528 -.02844536 -.02844536 .98697114 2.790677 1.229357)" gradientUnits="userSpaceOnUse" x1="68.302673" x2="68.302673" xlink:href="#linearGradient3310" y1="30.528692" y2="85.07811"/>
    <linearGradient id="linearGradient3631" gradientTransform="matrix(.67241047 0 0 .78141874 -73.544578 41.414835)" gradientUnits="userSpaceOnUse" x1="80.34671" x2="73.462685" xlink:href="#linearGradient3323" y1="17.268518" y2="107.95493"/>
  </defs>
  <g>
    <g>
      <rect fill="url(#linearGradient2217)" height="64.176102" opacity=".75" rx="2.631402" ry="2.769231" transform="rotate(-90)" width="72" x="-92" y="12"/>
      <g fill-rule="evenodd">
        <rect fill="url(#linearGradient2214)" height="55.786167" rx="1.275" ry="1.444445" transform="rotate(-90)" width="63.763367" x="-88" y="15.987421"/>
        <path d="m47.544572 24c-10.138543 12.364111-19.642492 25.737291-25.563284 41.965221h25.830186c1.446699-15.536285 5.962891-29.571258 12.188526-41.965221z" fill="url(#linearGradient2211)"/>
        <rect fill="url(#linearGradient3614)" height="56.903366" rx="1.21677" ry="1.184045" stroke="url(#linearGradient3612)" stroke-linecap="round" stroke-linejoin="round" stroke-width="7.096633" transform="matrix(.5 -.8660254 .86594345 .50014192 0 0)" width="64.894432" x="-62.786057" y="62.973942"/>
        <rect fill="url(#linearGradient3631)" height="56.262142" rx="1.210339" ry="1.170703" transform="matrix(.5 -.8660254 .86594295 .50014279 0 0)" width="64.551407" x="-62.786015" y="63.294552"/>
        <path d="m16.738227 54.476757-16.679546 13.120998 2.079486 3.202614 9.091818-3.482893c-5.291238 24.884774 6.918111 34.783104 20.434302 37.994544l.998625-5.51823c-10.447811-3.13494-20.784007-9.39893-16.117396-31.346076l6.754484 6.852286 3.33634-2.05105z" fill="url(#linearGradient2201)"/>
        <path d="m112.18339 86.62248 15.71773-12.364379-1.95957-3.017936-8.56755 3.282052c4.98613-23.44981-6.51918-32.777349-19.25597-35.803607l-.941036 5.200024c9.845346 2.954161 19.585506 8.856946 15.187996 29.538518l-6.36499-6.457152-3.14395 1.932779z" fill="url(#linearGradient2221)"/>
      </g>
      <path d="m56.253529 30.575081c-.455725-.05159-.927393.154318-1.178841.589839l-20.068351 34.773604c6.58605 1.472441 14.025488 2.170432 21.900029 1.935667 17.39764-.518676 32.857332-5.530433 42.074548-12.748866l-42.284639-24.409352c-.140406-.0811-.290891-.123687-.442804-.140876z" fill="url(#linearGradient3629)" opacity=".574257"/>
    </g>
  </g>
</svg>
