<svg xmlns="http://www.w3.org/2000/svg" width="128" height="128"><text xml:space="preserve" x="30.73" y="73.439" font-family="sans-serif" font-size="26.667" font-weight="400" letter-spacing="0" style="line-height:1.25" word-spacing="0"><tspan x="30.73" y="73.439">SDTF</tspan></text><g fill="none"><g stroke-width="3"><path stroke="#00f" d="M15 63h10"/><path stroke="red" stroke-linecap="square" stroke-linejoin="round" d="M2.105 62.591a6.933 6.958 0 0 1 7.326-6.537 6.933 6.958 0 0 1 6.516 7.35 6.933 6.958 0 0 1-7.323 6.542 6.933 6.958 0 0 1-6.52-7.347" style="paint-order:stroke fill markers"/><path stroke="#00f" d="M105 63h7"/><path stroke="red" stroke-linecap="square" stroke-linejoin="round" d="M112.1 62.591a6.934 6.958 0 0 1 7.328-6.537 6.934 6.958 0 0 1 6.517 7.35 6.934 6.958 0 0 1-7.324 6.542 6.934 6.958 0 0 1-6.522-7.346" style="paint-order:stroke fill markers"/></g><path stroke="#00f" stroke-linecap="square" stroke-linejoin="round" stroke-width="4.889" d="M24.944 31.944h79.111v63.111H24.944z" style="paint-order:stroke fill markers"/></g></svg>