<svg xmlns="http://www.w3.org/2000/svg" width="128" height="128"><path d="M.5.5h127v127H.5z" style="fill:#fff;fill-opacity:1;stroke:#fff;stroke-width:1;stroke-linecap:square;stroke-linejoin:round;stroke-miterlimit:4;stroke-dasharray:none;stroke-dashoffset:0;stroke-opacity:1;paint-order:stroke fill markers"/><text xml:space="preserve" x="30.73" y="73.439" style="font-style:normal;font-weight:400;font-size:26.66666603px;line-height:1.25;font-family:sans-serif;letter-spacing:0;word-spacing:0;fill:#000;fill-opacity:1;stroke:none"><tspan x="30.73" y="73.439" style="font-size:26.66666603px">SDTF</tspan></text><path d="M15 63h10" style="fill:none;stroke:#00f;stroke-width:3;stroke-linecap:butt;stroke-linejoin:miter;stroke-opacity:1;stroke-miterlimit:4;stroke-dasharray:none"/><path d="M2.105 62.591a6.933 6.958 0 0 1 7.326-6.537 6.933 6.958 0 0 1 6.516 7.35 6.933 6.958 0 0 1-7.323 6.542 6.933 6.958 0 0 1-6.52-7.347" style="fill:none;fill-opacity:1;stroke:red;stroke-width:3;stroke-linecap:square;stroke-linejoin:round;stroke-miterlimit:4;stroke-dasharray:none;stroke-dashoffset:0;stroke-opacity:1;paint-order:stroke fill markers"/><path d="M105 63h7" style="fill:none;stroke:#00f;stroke-width:3;stroke-linecap:butt;stroke-linejoin:miter;stroke-opacity:1;stroke-miterlimit:4;stroke-dasharray:none"/><path d="M112.101 62.591a6.934 6.958 0 0 1 7.328-6.537 6.934 6.958 0 0 1 6.517 7.35 6.934 6.958 0 0 1-7.324 6.542A6.934 6.958 0 0 1 112.1 62.6" style="fill:none;fill-opacity:1;stroke:red;stroke-width:3;stroke-linecap:square;stroke-linejoin:round;stroke-miterlimit:4;stroke-dasharray:none;stroke-dashoffset:0;stroke-opacity:1;paint-order:stroke fill markers"/><path d="M24.944 31.944h79.111v63.111H24.944z" style="fill:none;fill-opacity:1;stroke:#00f;stroke-width:4.88892841;stroke-linecap:square;stroke-linejoin:round;stroke-miterlimit:4;stroke-dasharray:none;stroke-dashoffset:0;stroke-opacity:1;paint-order:stroke fill markers"/></svg>