<svg xmlns="http://www.w3.org/2000/svg" width="128" height="128"><path d="M.5.5h127v127H.5z" style="fill:#fff;fill-opacity:1;stroke:#fff;stroke-width:1;stroke-linecap:square;stroke-linejoin:round;stroke-miterlimit:4;stroke-dasharray:none;stroke-dashoffset:0;stroke-opacity:1;paint-order:stroke fill markers"/><path d="M62.433-122.94a60 60 0 0 1 62.51 57.346A60 60 0 0 1 67.63-3.054a60 60 0 0 1-62.57-57.28 60 60 0 0 1 57.246-62.601" style="fill:none;fill-opacity:1;stroke:#000;stroke-width:3;stroke-linecap:square;stroke-linejoin:round;stroke-miterlimit:4;stroke-dasharray:none;stroke-dashoffset:0;stroke-opacity:1;paint-order:stroke fill markers" transform="scale(1 -1)"/><path d="M5 62.996h120M125 62.996s-25.412-9.54-42.049-28.378C68.271 17.996 65 2.996 65 2.996" style="fill:none;stroke:#000;stroke-width:3;stroke-linecap:butt;stroke-linejoin:miter;stroke-miterlimit:4;stroke-dasharray:none;stroke-opacity:1"/><path d="M125 62.996s-46.892-.7-75.946-20.35L20 22.996" style="fill:none;stroke:#000;stroke-width:3;stroke-linecap:butt;stroke-linejoin:miter;stroke-miterlimit:4;stroke-dasharray:none;stroke-opacity:1"/><path d="M65.067-62.661a30 32.5 0 0 1 31.865-30.267 30 32.5 0 0 1 28.01 34.452 30 32.5 0 0 1-31.74 30.422A30 32.5 0 0 1 65.05-62.37" style="fill:none;fill-opacity:1;stroke:#000;stroke-width:3;stroke-linecap:square;stroke-linejoin:round;stroke-miterlimit:4;stroke-dasharray:none;stroke-dashoffset:0;stroke-opacity:1;paint-order:stroke fill markers" transform="scale(1 -1)"/><path d="M35.089-63.163a45 42.5 0 0 1 47.678-39.752 45 42.5 0 0 1 42.151 44.978 45 42.5 0 0 1-47.57 39.867 45 42.5 0 0 1-42.273-44.877" style="fill:none;fill-opacity:1;stroke:#000;stroke-width:3;stroke-linecap:square;stroke-linejoin:round;stroke-miterlimit:4;stroke-dasharray:none;stroke-dashoffset:0;stroke-opacity:1;paint-order:stroke fill markers" transform="scale(1 -1)"/><path d="M125 63s-46.892.7-75.946 20.35L20 103" style="fill:none;stroke:#000;stroke-width:3;stroke-linecap:butt;stroke-linejoin:miter;stroke-miterlimit:4;stroke-dasharray:none;stroke-opacity:1"/><path d="M125 63s-25.412 9.54-42.049 28.377C68.271 108 65 123 65 123" style="fill:none;stroke:#000;stroke-width:3;stroke-linecap:butt;stroke-linejoin:miter;stroke-miterlimit:4;stroke-dasharray:none;stroke-opacity:1"/></svg>