<svg xmlns="http://www.w3.org/2000/svg" width="128" height="128"><path d="M.5.5h127v127H.5z" style="fill:#fff;fill-opacity:0;stroke:#fff;stroke-width:1;stroke-linecap:square;stroke-linejoin:round;stroke-miterlimit:4;stroke-dasharray:none;stroke-dashoffset:0;stroke-opacity:1;paint-order:stroke fill markers"/><text xml:space="preserve" x="48.039" y="80.241" style="font-style:normal;font-weight:400;font-size:32px;line-height:1.25;font-family:sans-serif;letter-spacing:0;word-spacing:0;fill:#000;fill-opacity:1;stroke:none"><tspan x="48.039" y="80.241" style="font-size:48px">1</tspan></text><path d="M17 63h14" style="fill:none;stroke:#000;stroke-width:2.80624294;stroke-linecap:butt;stroke-linejoin:miter;stroke-miterlimit:4;stroke-dasharray:none;stroke-opacity:1"/><path d="M2.105 62.591a6.933 6.958 0 0 1 7.326-6.537 6.933 6.958 0 0 1 6.516 7.35 6.933 6.958 0 0 1-7.323 6.542 6.933 6.958 0 0 1-6.52-7.347" style="fill:none;fill-opacity:1;stroke:red;stroke-width:3;stroke-linecap:square;stroke-linejoin:round;stroke-miterlimit:4;stroke-dasharray:none;stroke-dashoffset:0;stroke-opacity:1;paint-order:stroke fill markers"/><path d="M31.7 31.7h63.6v63.6H31.7z" style="fill:none;fill-opacity:1;stroke:#000;stroke-width:4.4004426;stroke-linecap:square;stroke-linejoin:round;stroke-miterlimit:4;stroke-dasharray:none;stroke-dashoffset:0;stroke-opacity:1;paint-order:stroke fill markers"/><path d="M65 94v15" style="fill:none;stroke:#000;stroke-width:3;stroke-linecap:butt;stroke-linejoin:miter;stroke-miterlimit:4;stroke-dasharray:none;stroke-opacity:1"/><path d="M57.982 115.885a6.934 6.958 0 0 1 7.327-6.538 6.934 6.958 0 0 1 6.518 7.351 6.934 6.958 0 0 1-7.325 6.542 6.934 6.958 0 0 1-6.52-7.348" style="fill:none;fill-opacity:1;stroke:red;stroke-width:3;stroke-linecap:square;stroke-linejoin:round;stroke-miterlimit:4;stroke-dasharray:none;stroke-dashoffset:0;stroke-opacity:1;paint-order:stroke fill markers"/><text xml:space="preserve" x="75.995" y="23.31" style="font-style:normal;font-weight:400;font-size:29.33333397px;line-height:1.25;font-family:sans-serif;letter-spacing:-1.10000002px;word-spacing:0;fill:#000;fill-opacity:1;stroke:none"><tspan x="75.995" y="23.31">s1p</tspan></text></svg>