<svg xmlns="http://www.w3.org/2000/svg" xmlns:xlink="http://www.w3.org/1999/xlink" width="128" height="128"><defs><linearGradient id="o" x1="122" x2="122" y1="62" y2="9.933" gradientUnits="userSpaceOnUse"><stop offset="0" stop-color="#004d00" stop-opacity="0"/><stop offset=".5" stop-color="#004d00"/><stop offset="1" stop-color="#004d00" stop-opacity="0"/></linearGradient><linearGradient id="n" x1="-80.003" x2="-45.097" y1="-131.931" y2="-131.931" gradientTransform="rotate(90 -32.39 30.867) scale(.73882)" gradientUnits="userSpaceOnUse"><stop offset="0" stop-color="#fff"/><stop offset="1" stop-color="#fff" stop-opacity="0"/></linearGradient><linearGradient id="m" x1="328.124" x2="336.981" y1="120.812" y2="87.759" gradientUnits="userSpaceOnUse"><stop offset="0" stop-color="#0f0"/><stop offset="1" stop-color="#006500"/></linearGradient><linearGradient id="j" x1="-86.12" x2="-56.358" y1="-381.099" y2="-373.124" gradientTransform="rotate(90 -90 50.002)" gradientUnits="userSpaceOnUse"><stop offset="0" stop-color="#008c00"/><stop offset="1" stop-color="#00bf00"/></linearGradient><linearGradient id="a"><stop offset="0" stop-color="#fff"/><stop offset="1" stop-color="#555753"/></linearGradient><linearGradient xlink:href="#a" id="e" x1="94.344" x2="86.536" y1="102.345" y2="94.537" gradientUnits="userSpaceOnUse"/><linearGradient xlink:href="#a" id="f" x1="95" x2="86.587" y1="103" y2="94.587" gradientUnits="userSpaceOnUse"/><linearGradient id="g" x1="95" x2="87.293" y1="103" y2="95.293" gradientUnits="userSpaceOnUse"><stop offset="0" stop-color="#fff"/><stop offset="1" stop-color="#393b38"/></linearGradient><linearGradient id="h" x1="96" x2="88" y1="104" y2="96" gradientUnits="userSpaceOnUse"><stop offset="0" stop-color="#888a85"/><stop offset=".007" stop-color="#8c8e89"/><stop offset=".067" stop-color="#abaca9"/><stop offset=".135" stop-color="#c5c6c4"/><stop offset=".211" stop-color="#dbdbda"/><stop offset=".301" stop-color="#ebebeb"/><stop offset=".412" stop-color="#f7f7f6"/><stop offset=".568" stop-color="#fdfdfd"/><stop offset="1" stop-color="#fff"/></linearGradient><radialGradient id="k" cx="343.999" cy="92" r="36" gradientTransform="rotate(90 -90 50.002)" gradientUnits="userSpaceOnUse"><stop offset="0" stop-color="#e5ff00"/><stop offset="1" stop-color="#bff500" stop-opacity="0"/></radialGradient><radialGradient id="d" cx="102" cy="112.305" r="139.559" gradientTransform="matrix(.97872 0 0 .98182 1.362 1.164)" gradientUnits="userSpaceOnUse"><stop offset="0" stop-color="#535557"/><stop offset=".114" stop-color="#898a8c"/><stop offset=".203" stop-color="#ececec"/><stop offset=".236" stop-color="#fafafa"/><stop offset=".272" stop-color="#fff"/><stop offset=".531" stop-color="#fafafa"/><stop offset=".845" stop-color="#ebecec"/><stop offset="1" stop-color="#e1e2e3"/></radialGradient><radialGradient id="c" cx="102" cy="112.305" r="139.559" gradientUnits="userSpaceOnUse"><stop offset="0" stop-color="#00537d"/><stop offset=".015" stop-color="#186389"/><stop offset=".056" stop-color="#558ca8"/><stop offset=".096" stop-color="#89afc3"/><stop offset=".136" stop-color="#b3ccd8"/><stop offset=".174" stop-color="#d4e2e9"/><stop offset=".21" stop-color="#ecf2f5"/><stop offset=".243" stop-color="#fafcfd"/><stop offset=".272" stop-color="#fff"/></radialGradient><filter id="i"><feGaussianBlur stdDeviation="2.16"/></filter><filter id="b"><feGaussianBlur stdDeviation="1.039"/></filter><clipPath id="l"><circle cx="343.999" cy="92" r="36"/></clipPath></defs><path d="m23 9 .04 112h61.132a2 2 0 0 0 1.414-.586l32.828-32.828a2 2 0 0 0 .586-1.414V9z" filter="url(#b)" opacity=".5" transform="matrix(1.04167 0 0 1.03571 -9.958 -3.322)"/><path fill="url(#c)" d="M16 8v112h61.172a2 2 0 0 0 1.414-.586l32.828-32.828a2 2 0 0 0 .586-1.414V8z"/><path fill="url(#d)" d="M18.979 10c-.54 0-.979.44-.979.982v106.036c0 .542.44.982.979.982h57.913a.98.98 0 0 0 .692-.288l32.13-32.23a.988.988 0 0 0 .286-.695V10.982a.981.981 0 0 0-.979-.982z"/><path fill="url(#e)" d="M111.414 86.586C111.664 86.336 93.035 93 88 93c-1.654 0-3 1.346-3 3 0 5.035-6.664 23.664-6.414 23.414z" opacity=".1"/><path fill="url(#f)" d="M111.414 86.586C111.789 86.211 97.444 94 88 94c-1.103 0-2 .897-2 2 0 9.444-7.789 23.789-7.414 23.414z" opacity=".1"/><path fill="url(#g)" d="M111.414 86.586C111.653 86.347 97.807 95 88 95a1 1 0 0 0-1 1c0 9.807-8.653 23.653-8.414 23.414z" opacity=".1"/><path fill="url(#h)" d="M78.586 119.414S90.5 109.5 96 104s15.414-17.414 15.414-17.414S98.25 96 88 96c0 10.25-9.414 23.414-9.414 23.414z"/><g transform="translate(-6)"><circle cx="343.999" cy="92" r="36" style="opacity:.5;filter:url(#i)" transform="rotate(165 203.87 45.075) scale(.8887)"/><circle cx="343.999" cy="92" r="36" style="fill:url(#j)" transform="rotate(165 204.133 43.075) scale(.8887)"/><circle cx="343.999" cy="92" r="36" style="fill:url(#k)" transform="rotate(165 164.573 37.887) scale(.66653)"/><circle cx="343.999" cy="92" r="36" clip-path="url(#l)" style="opacity:.8;fill:none;stroke:url(#m);stroke-width:6.75138187;filter:url(#n)" transform="scale(-.8887 .8887) rotate(-15 -94.665 1780.724)"/><path d="M96 4.148c-11.346 0-20.826 8.012-23.111 18.678 4.555 4.246 13.197 7.112 23.111 7.112 9.914 0 18.556-2.866 23.111-7.112C116.826 12.16 107.346 4.148 96 4.148Z" style="opacity:.8;fill:url(#n)"/><path d="M118 16v16h-16v8h16v16h8V40h16v-8h-16V16z" style="fill:none;stroke:url(#o);stroke-width:4;stroke-linecap:round;stroke-linejoin:round;filter:url(#q)" transform="translate(-26 -4)"/><path d="M118 16v16h-16v8h16v16h8V40h16v-8h-16V16z" style="fill:#fff;fill-rule:evenodd" transform="translate(-26 -4)"/></g><text x="39.565" y="105.155" style="font-size:38.72987366px;font-family:Sans;letter-spacing:0;word-spacing:0;opacity:.979079;fill:#3b3b3b" transform="scale(1.0179 .98241)">
    <tspan x="39.565" y="105.155" font-size="38.73" style="font-size:38.72987366px;font-family:&quot;Liberation Sans&quot;;fill:#3b3b3b">txt</tspan>
  </text></svg>