<svg xmlns="http://www.w3.org/2000/svg" xmlns:xlink="http://www.w3.org/1999/xlink" width="128" height="128"><defs><linearGradient id="d"><stop offset="0" stop-color="#fff"/><stop offset="1" stop-color="#fff" stop-opacity="0"/></linearGradient><linearGradient id="b"><stop offset="0"/><stop offset="1" stop-opacity="0"/></linearGradient><linearGradient id="a"><stop offset="0" stop-color="#63e9ff"/><stop offset="1" stop-color="#fff" stop-opacity="0"/></linearGradient><linearGradient xlink:href="#a" id="g" x1="77.743" x2="82.939" y1="15.337" y2="16.751" gradientUnits="userSpaceOnUse" spreadMethod="reflect"/><linearGradient xlink:href="#a" id="l" x1="74.75" x2="78.939" y1="14.276" y2="16.751" gradientUnits="userSpaceOnUse" spreadMethod="reflect"/><linearGradient id="e" x1="194.5" x2="104.25" y1="123.907" y2="5.156" gradientTransform="matrix(0 1 -.86105 0 129.4 -107.984)" gradientUnits="userSpaceOnUse"><stop offset="0" stop-color="#081e3e"/><stop offset="1" stop-color="#387de4"/></linearGradient><linearGradient xlink:href="#a" id="i" x1="223.327" x2="226.659" y1="53.784" y2="57.279" gradientTransform="matrix(1 0 0 .86105 -108.161 -1.436)" gradientUnits="userSpaceOnUse" spreadMethod="reflect"/><linearGradient xlink:href="#a" id="q" x1="262.487" x2="180.407" y1="32.271" y2="62.96" gradientUnits="userSpaceOnUse"/><linearGradient xlink:href="#a" id="r" x1="310.634" x2="262.271" y1="59.981" y2="60.61" gradientUnits="userSpaceOnUse"/><linearGradient id="c"><stop offset="0" stop-color="#9fc1f2"/><stop offset=".5" stop-color="#587eb5"/><stop offset="1" stop-color="#0c2a58"/></linearGradient><linearGradient xlink:href="#d" id="m" x1="63.933" x2="66.207" y1="7.567" y2="7.567" gradientUnits="userSpaceOnUse" spreadMethod="reflect"/><linearGradient id="s" x1="84.481" x2="85.488" y1="2.01" y2="88.884" gradientUnits="userSpaceOnUse"><stop offset="0" stop-color="#cdeeff"/><stop offset="1" stop-color="#d2e8ed" stop-opacity="0"/></linearGradient><linearGradient xlink:href="#d" id="t" x1="84.28" x2="85.823" y1="2.11" y2="66.222" gradientUnits="userSpaceOnUse"/><linearGradient xlink:href="#d" id="u" x1="103.564" x2="86.897" y1="85.615" y2="49.084" gradientUnits="userSpaceOnUse"/><radialGradient xlink:href="#b" id="k" cx="79.407" cy="56.848" r="60" gradientTransform="matrix(-.01768 .58163 -.8879 -.02699 122.021 31.938)" gradientUnits="userSpaceOnUse"/><radialGradient xlink:href="#b" id="f" cx="-16.668" cy="86.827" r="60" gradientTransform="matrix(.52125 .25866 -.4106 .82743 77.907 -35.524)" gradientUnits="userSpaceOnUse"/><radialGradient xlink:href="#c" id="o" cx="180.331" cy="95.705" r="56" gradientTransform="matrix(1 0 0 1.1384 0 -10.518)" gradientUnits="userSpaceOnUse"/><radialGradient xlink:href="#c" id="p" cx="212.733" cy="76.11" r="56" gradientTransform="matrix(1 0 0 1.1384 0 -10.518)" gradientUnits="userSpaceOnUse"/><filter id="h" width="1.204" height="1.25" x="-.102" y="-.125"><feGaussianBlur stdDeviation=".447"/></filter><filter id="j" width="1.231" height="1.255" x="-.116" y="-.128"><feGaussianBlur stdDeviation=".325"/></filter><filter id="n" width="1.201" height="1.154" x="-.101" y="-.077"><feGaussianBlur stdDeviation=".199"/></filter></defs><g fill-rule="evenodd"><path fill="url(#e)" d="M115.798 73.234 66.815 5.568c-.705-.984-1.75-1.552-2.852-1.552s-2.147.568-2.852 1.552L12.138 73.922c-2.63 4.143-3.003 10.094 2.825 10.094h25v32c0 2.382 1.949 4 4 4h40c2.051 0 4-1.618 4-4v-32h24c3.891 0 6.553-7.02 3.835-10.782z"/><path fill="url(#f)" d="M115.798 73.234 66.815 5.568c-.705-.984-1.75-1.552-2.852-1.552s-2.147.568-2.852 1.552L12.138 73.922c-2.63 4.143-3.003 10.094 2.825 10.094h25v32c0 2.382 1.949 4 4 4h40c2.051 0 4-1.618 4-4v-32h24c3.891 0 6.553-7.02 3.835-10.782z" opacity=".255"/><path fill="url(#g)" d="M76.5 11.063c-1.077.065-2.114.376-3 .937l2.375 7.625L84 16.469V16c0-2.918-3.939-5.153-7.5-4.938z" filter="url(#h)" transform="rotate(90 63.974 63.99)"/><path fill="url(#i)" d="M115.651 40c-.34 1.155-2.562 6.125-2.562 6.125l6.75-.031V44c0-2.051-1.618-4-4-4z" filter="url(#j)" opacity=".614" transform="matrix(0 1 1 0 -.162 .016)"/><path fill="url(#k)" d="M115.798 73.234 66.815 5.568c-.705-.984-1.75-1.552-2.852-1.552s-2.147.568-2.852 1.552L12.138 73.922c-2.63 4.143-3.003 10.094 2.825 10.094h25v32c0 2.382 1.949 4 4 4h40c2.051 0 4-1.618 4-4v-32h24c3.891 0 6.553-7.02 3.835-10.782z"/><path fill="url(#l)" d="M72.5 11.063c-1.077.065-2.114.376-3 .937l2.375 7.625L80 16.469V16c0-2.918-3.939-5.153-7.5-4.938z" filter="url(#h)" opacity=".704" transform="matrix(0 .83164 1 0 -.821 17.484)"/><path fill="url(#i)" d="M115.651 40c-.34 1.155-2.562 6.125-2.562 6.125l6.75-.031V44c0-2.051-1.618-4-4-4z" filter="url(#j)" opacity=".749" transform="scale(1 -1) rotate(1.626 5731.343 -1156.796)"/><path fill="url(#m)" d="M61.556 5.222c1.69-1.46 3.242-1.068 4.754-.134l-2.243 5.389z" filter="url(#n)"/></g><path fill="url(#p)" fill-rule="evenodd" stroke-linecap="round" stroke-linejoin="round" stroke-width="16" d="m181.55 21.465-64.045 52.342c-1.385 1.61-1.163 3.021-.102 4.254L180 129.08c4 3.582 8 3.773 8 0v-29.85h36V52.771h-36V23.929c0-3.19-3.153-4.675-6.45-2.464z" transform="matrix(0 1 -.86099 0 129.398 -107.984)"/><path stroke="url(#r)" stroke-width="1.078" d="m278.55 21.465-64.445 52.342c-1.385 1.61-1.164 3.021-.102 4.254L277 129.08c4 3.582 8 3.773 8 0v-29.85h36V52.771h-36V23.929c0-3.19-3.153-4.675-6.45-2.464z" style="fill:none;stroke-width:1.07771;stroke-linecap:round;stroke-linejoin:round;stroke:url(#q);filter:url(#filter3187)" transform="matrix(0 1 -.86099 0 129.598 -205.187)"/><path fill="url(#s)" d="M63.906 8.438c-.61.014-1.188.343-1.718.874L18.25 71.97c-.51.661-.902 1.325-1.25 1.969 2.796.045 5.604.062 8.438.062 29.66 0 57.37-2.552 80.937-6.906L65.844 9.438c-.693-.694-1.328-1.015-1.938-1z"/><path fill="url(#t)" d="M63.705 8.537c-.61.015-1.188.344-1.719.875L18.05 72.07c-.51.661-.902 1.325-1.25 1.968.197.004.397-.002.594 0 .199-.317.41-.65.656-.968l43.937-62.657c.531-.53 1.11-.86 1.72-.875.609-.014 1.244.307 1.937 1l39.906 56.782c.207-.038.418-.087.625-.125L65.643 9.537c-.693-.693-1.328-1.014-1.938-1z"/><path fill="url(#u)" d="m65.618 9.484 39.059 56.585c-23.567 4.637-51.277 7.52-80.938 7.875-2.319.028-4.613.033-6.906.031l-.031.063c2.796.045 5.604.062 8.437.062 29.661 0 57.37-2.552 80.938-6.906L65.646 9.537z"/></svg>