<?xml version="1.0" encoding="UTF-8" standalone="no"?>
<!-- Created with Inkscape (http://www.inkscape.org/) -->
<svg
   xmlns:dc="http://purl.org/dc/elements/1.1/"
   xmlns:cc="http://web.resource.org/cc/"
   xmlns:rdf="http://www.w3.org/1999/02/22-rdf-syntax-ns#"
   xmlns:svg="http://www.w3.org/2000/svg"
   xmlns="http://www.w3.org/2000/svg"
   xmlns:xlink="http://www.w3.org/1999/xlink"
   xmlns:sodipodi="http://sodipodi.sourceforge.net/DTD/sodipodi-0.dtd"
   xmlns:inkscape="http://www.inkscape.org/namespaces/inkscape"
   width="128"
   height="128"
   id="svg6198"
   sodipodi:version="0.32"
   inkscape:version="0.43+0.44pre3"
   sodipodi:docbase="/home/pinheiro/artwork/Oxygen/theme/svg/actions"
   sodipodi:docname="media_equalizer.svg"
   version="1.0">
  <defs
     id="defs6200">
    <linearGradient
       inkscape:collect="always"
       id="linearGradient5097">
      <stop
         style="stop-color:white;stop-opacity:1;"
         offset="0"
         id="stop5099" />
      <stop
         style="stop-color:white;stop-opacity:0;"
         offset="1"
         id="stop5101" />
    </linearGradient>
    <linearGradient
       inkscape:collect="always"
       id="linearGradient5078">
      <stop
         style="stop-color:white;stop-opacity:1;"
         offset="0"
         id="stop5080" />
      <stop
         style="stop-color:white;stop-opacity:0;"
         offset="1"
         id="stop5082" />
    </linearGradient>
    <linearGradient
       id="linearGradient4875"
       inkscape:collect="always">
      <stop
         id="stop4877"
         offset="0"
         style="stop-color:#ffffff;stop-opacity:1;" />
      <stop
         id="stop4879"
         offset="1"
         style="stop-color:#ffffff;stop-opacity:0;" />
    </linearGradient>
    <linearGradient
       id="linearGradient3954">
      <stop
         id="stop3956"
         offset="0"
         style="stop-color:#b3b3b3;stop-opacity:1;" />
      <stop
         style="stop-color:#ffffff;stop-opacity:1;"
         offset="0.52879584"
         id="stop3962" />
      <stop
         id="stop3958"
         offset="1"
         style="stop-color:#c5c5c5;stop-opacity:1;" />
    </linearGradient>
    <linearGradient
       id="linearGradient4860"
       inkscape:collect="always">
      <stop
         id="stop4862"
         offset="0"
         style="stop-color:#ffffff;stop-opacity:1;" />
      <stop
         id="stop4864"
         offset="1"
         style="stop-color:#ffffff;stop-opacity:0;" />
    </linearGradient>
    <linearGradient
       inkscape:collect="always"
       id="linearGradient5918">
      <stop
         style="stop-color:#ffffff;stop-opacity:1;"
         offset="0"
         id="stop5920" />
      <stop
         style="stop-color:#ffffff;stop-opacity:0;"
         offset="1"
         id="stop5922" />
    </linearGradient>
    <linearGradient
       inkscape:collect="always"
       id="linearGradient4983">
      <stop
         style="stop-color:#ffffff;stop-opacity:1;"
         offset="0"
         id="stop4985" />
      <stop
         style="stop-color:#ffffff;stop-opacity:0;"
         offset="1"
         id="stop4987" />
    </linearGradient>
    <linearGradient
       inkscape:collect="always"
       id="linearGradient4088">
      <stop
         style="stop-color:#ffffff;stop-opacity:1;"
         offset="0"
         id="stop4090" />
      <stop
         style="stop-color:#ffffff;stop-opacity:0;"
         offset="1"
         id="stop4092" />
    </linearGradient>
    <linearGradient
       inkscape:collect="always"
       id="linearGradient2295">
      <stop
         style="stop-color:#ffffff;stop-opacity:1;"
         offset="0"
         id="stop2297" />
      <stop
         style="stop-color:#ffffff;stop-opacity:0;"
         offset="1"
         id="stop2299" />
    </linearGradient>
    <linearGradient
       inkscape:collect="always"
       id="linearGradient5876">
      <stop
         style="stop-color:#000000;stop-opacity:1;"
         offset="0"
         id="stop5878" />
      <stop
         style="stop-color:#000000;stop-opacity:0;"
         offset="1"
         id="stop5880" />
    </linearGradient>
    <linearGradient
       inkscape:collect="always"
       id="linearGradient3291">
      <stop
         style="stop-color:#000000;stop-opacity:1;"
         offset="0"
         id="stop3293" />
      <stop
         style="stop-color:#000000;stop-opacity:0;"
         offset="1"
         id="stop3295" />
    </linearGradient>
    <radialGradient
       inkscape:collect="always"
       xlink:href="#linearGradient3291"
       id="radialGradient7030"
       gradientUnits="userSpaceOnUse"
       gradientTransform="matrix(1,0,0,0.197801,5.012462e-5,92.8217)"
       cx="63.912209"
       cy="115.70919"
       fx="64.022575"
       fy="120.67947"
       r="63.912209" />
    <linearGradient
       inkscape:collect="always"
       xlink:href="#linearGradient5876"
       id="linearGradient2383"
       gradientUnits="userSpaceOnUse"
       gradientTransform="matrix(0.961272,0,0,1,2.661007,0)"
       x1="64.469719"
       y1="31.090103"
       x2="64.469719"
       y2="27.31226" />
    <linearGradient
       inkscape:collect="always"
       xlink:href="#linearGradient5876"
       id="linearGradient2385"
       gradientUnits="userSpaceOnUse"
       gradientTransform="matrix(0.980636,0,0,0.826087,1.248377,5.078467)"
       x1="64.469719"
       y1="31.090103"
       x2="64.469719"
       y2="27.31226" />
    <linearGradient
       inkscape:collect="always"
       xlink:href="#linearGradient5876"
       id="linearGradient2387"
       gradientUnits="userSpaceOnUse"
       gradientTransform="matrix(0.994468,0,0,0.543479,0.192425,14.27543)"
       x1="64.469719"
       y1="31.090103"
       x2="64.469719"
       y2="27.31226" />
    <linearGradient
       inkscape:collect="always"
       xlink:href="#linearGradient5918"
       id="linearGradient2397"
       gradientUnits="userSpaceOnUse"
       x1="0.44474834"
       y1="65.441139"
       x2="5.0130639"
       y2="65.441139" />
    <radialGradient
       inkscape:collect="always"
       xlink:href="#linearGradient2295"
       id="radialGradient2024"
       gradientUnits="userSpaceOnUse"
       gradientTransform="matrix(2.503834,6.498024e-7,-3.033188e-7,1.079585,-97.11145,-24.1713)"
       cx="64.410706"
       cy="24.828176"
       fx="64.910706"
       fy="18.80681"
       r="59.410713" />
    <radialGradient
       inkscape:collect="always"
       xlink:href="#linearGradient2295"
       id="radialGradient2027"
       gradientUnits="userSpaceOnUse"
       gradientTransform="matrix(2.503834,6.498024e-7,-3.033188e-7,1.079585,-97.11145,-24.1713)"
       cx="64.410706"
       cy="24.828176"
       fx="64.910706"
       fy="18.80681"
       r="59.410713" />
    <radialGradient
       inkscape:collect="always"
       xlink:href="#linearGradient4875"
       id="radialGradient2030"
       gradientUnits="userSpaceOnUse"
       gradientTransform="matrix(4.820242e-2,5.164202e-2,-6.332004e-2,5.885029e-2,110.1312,7.558388)"
       cx="43.620941"
       cy="42.699898"
       fx="43.034355"
       fy="8.0446291"
       r="50.234375" />
    <radialGradient
       inkscape:collect="always"
       xlink:href="#linearGradient3954"
       id="radialGradient2033"
       gradientUnits="userSpaceOnUse"
       gradientTransform="matrix(0.290024,4.611023e-2,-5.477301e-2,5.025632e-2,51.66936,-1.863086e-2)"
       spreadMethod="reflect"
       cx="213.73038"
       cy="94.003212"
       fx="210.86234"
       fy="101.23295"
       r="26.5" />
    <linearGradient
       inkscape:collect="always"
       xlink:href="#linearGradient4860"
       id="linearGradient2036"
       gradientUnits="userSpaceOnUse"
       gradientTransform="matrix(6.014783e-2,-1.344288e-2,1.209269e-2,5.897714e-2,105.7097,10.91078)"
       x1="17.723173"
       y1="148.57518"
       x2="76.596703"
       y2="32.457832" />
    <radialGradient
       inkscape:collect="always"
       xlink:href="#linearGradient4875"
       id="radialGradient2040"
       gradientUnits="userSpaceOnUse"
       gradientTransform="matrix(4.820242e-2,5.164202e-2,-6.332004e-2,5.885029e-2,119.1435,7.558388)"
       cx="43.620941"
       cy="42.699898"
       fx="43.034355"
       fy="8.0446291"
       r="50.234375" />
    <radialGradient
       inkscape:collect="always"
       xlink:href="#linearGradient3954"
       id="radialGradient2043"
       gradientUnits="userSpaceOnUse"
       gradientTransform="matrix(0.273715,0.11253,-5.169302e-2,0.122648,64.02374,-18.9584)"
       spreadMethod="reflect"
       cx="213.73038"
       cy="94.003212"
       fx="210.86234"
       fy="101.23295"
       r="26.5" />
    <linearGradient
       inkscape:collect="always"
       xlink:href="#linearGradient4860"
       id="linearGradient2046"
       gradientUnits="userSpaceOnUse"
       gradientTransform="matrix(6.014783e-2,-1.344288e-2,1.209269e-2,5.897714e-2,114.7221,10.91078)"
       x1="17.723173"
       y1="148.57518"
       x2="76.596703"
       y2="32.457832" />
    <linearGradient
       inkscape:collect="always"
       xlink:href="#linearGradient4983"
       id="linearGradient2055"
       gradientUnits="userSpaceOnUse"
       gradientTransform="matrix(-1.001373,0,0,1.007709,128.6413,-6.544302)"
       x1="53.875332"
       y1="10.94359"
       x2="53.875332"
       y2="18.039442" />
    <radialGradient
       inkscape:collect="always"
       xlink:href="#linearGradient4088"
       id="radialGradient2058"
       gradientUnits="userSpaceOnUse"
       gradientTransform="matrix(1.001373,0,0,3.45871e-2,-0.937022,4.318651)"
       cx="64.25972"
       cy="69.649773"
       fx="64.25972"
       fy="69.649773"
       r="58.197479" />
    <radialGradient
       inkscape:collect="always"
       xlink:href="#linearGradient4088"
       id="radialGradient2061"
       gradientUnits="userSpaceOnUse"
       gradientTransform="matrix(1.001373,0,0,3.45871e-2,-0.175803,108.4848)"
       cx="64.25972"
       cy="69.649773"
       fx="64.25972"
       fy="69.649773"
       r="58.197479" />
    <radialGradient
       inkscape:collect="always"
       xlink:href="#linearGradient2295"
       id="radialGradient2064"
       gradientUnits="userSpaceOnUse"
       gradientTransform="matrix(6.828519,4.596273e-7,-1.51648e-6,3.267576,-375.6669,-286.6814)"
       cx="64.410713"
       cy="119.97783"
       fx="64.910713"
       fy="113.95647"
       r="59.410713" />
    <linearGradient
       inkscape:collect="always"
       xlink:href="#linearGradient2295"
       id="linearGradient2071"
       gradientUnits="userSpaceOnUse"
       gradientTransform="matrix(1.001373,0,0,1.007709,2.447194e-2,0.455681)"
       x1="191.80267"
       y1="8.9639835"
       x2="18.801071"
       y2="48.373058" />
    <linearGradient
       inkscape:collect="always"
       xlink:href="#linearGradient5078"
       id="linearGradient5091"
       gradientUnits="userSpaceOnUse"
       x1="37"
       y1="54.035553"
       x2="30"
       y2="98.160553" />
    <linearGradient
       inkscape:collect="always"
       xlink:href="#linearGradient5078"
       id="linearGradient5093"
       gradientUnits="userSpaceOnUse"
       x1="38.625"
       y1="49.785553"
       x2="30.75"
       y2="98.035553" />
    <radialGradient
       inkscape:collect="always"
       xlink:href="#linearGradient5097"
       id="radialGradient5103"
       cx="26.510632"
       cy="109.35589"
       fx="26.510632"
       fy="109.35589"
       r="13.510632"
       gradientTransform="matrix(1.748109,0,0,0.958828,-19.83283,-2.306639)"
       gradientUnits="userSpaceOnUse" />
    <linearGradient
       inkscape:collect="always"
       xlink:href="#linearGradient5078"
       id="linearGradient5124"
       gradientUnits="userSpaceOnUse"
       x1="38.625"
       y1="49.785553"
       x2="30.75"
       y2="98.035553" />
    <linearGradient
       inkscape:collect="always"
       xlink:href="#linearGradient5078"
       id="linearGradient5126"
       gradientUnits="userSpaceOnUse"
       x1="37"
       y1="54.035553"
       x2="30"
       y2="98.160553" />
    <radialGradient
       inkscape:collect="always"
       xlink:href="#linearGradient5097"
       id="radialGradient5128"
       gradientUnits="userSpaceOnUse"
       gradientTransform="matrix(1.748109,0,0,0.958828,-19.83283,-2.306639)"
       cx="26.510632"
       cy="109.35589"
       fx="26.510632"
       fy="109.35589"
       r="13.510632" />
    <linearGradient
       inkscape:collect="always"
       xlink:href="#linearGradient5078"
       id="linearGradient5142"
       gradientUnits="userSpaceOnUse"
       x1="38.625"
       y1="49.785553"
       x2="30.75"
       y2="98.035553" />
    <linearGradient
       inkscape:collect="always"
       xlink:href="#linearGradient5078"
       id="linearGradient5144"
       gradientUnits="userSpaceOnUse"
       x1="37"
       y1="54.035553"
       x2="30"
       y2="98.160553" />
    <radialGradient
       inkscape:collect="always"
       xlink:href="#linearGradient5097"
       id="radialGradient5146"
       gradientUnits="userSpaceOnUse"
       gradientTransform="matrix(1.748109,0,0,0.958828,-19.83283,-2.306639)"
       cx="26.510632"
       cy="109.35589"
       fx="26.510632"
       fy="109.35589"
       r="13.510632" />
    <radialGradient
       inkscape:collect="always"
       xlink:href="#linearGradient5097"
       id="radialGradient5149"
       gradientUnits="userSpaceOnUse"
       gradientTransform="matrix(1.748109,0,0,0.958828,55.41717,-13.62616)"
       cx="26.510632"
       cy="109.35589"
       fx="26.510632"
       fy="109.35589"
       r="13.510632" />
    <linearGradient
       inkscape:collect="always"
       xlink:href="#linearGradient5078"
       id="linearGradient5152"
       gradientUnits="userSpaceOnUse"
       x1="37"
       y1="54.035553"
       x2="30"
       y2="98.160553"
       gradientTransform="translate(75.25,-11.31953)" />
    <linearGradient
       inkscape:collect="always"
       xlink:href="#linearGradient5078"
       id="linearGradient5155"
       gradientUnits="userSpaceOnUse"
       x1="38.625"
       y1="49.785553"
       x2="30.75"
       y2="98.035553"
       gradientTransform="translate(75.25,-11.31953)" />
    <radialGradient
       inkscape:collect="always"
       xlink:href="#linearGradient5097"
       id="radialGradient5160"
       gradientUnits="userSpaceOnUse"
       gradientTransform="matrix(1.748109,0,0,0.958828,15.41717,-45.80664)"
       cx="26.510632"
       cy="109.35589"
       fx="26.510632"
       fy="109.35589"
       r="13.510632" />
    <linearGradient
       inkscape:collect="always"
       xlink:href="#linearGradient5078"
       id="linearGradient5163"
       gradientUnits="userSpaceOnUse"
       x1="37"
       y1="54.035553"
       x2="30"
       y2="98.160553"
       gradientTransform="translate(35.25,-43.5)" />
    <linearGradient
       inkscape:collect="always"
       xlink:href="#linearGradient5078"
       id="linearGradient5166"
       gradientUnits="userSpaceOnUse"
       x1="38.625"
       y1="49.785553"
       x2="30.75"
       y2="98.035553"
       gradientTransform="translate(35.25,-43.5)" />
    <linearGradient
       inkscape:collect="always"
       xlink:href="#linearGradient5078"
       id="linearGradient5170"
       gradientUnits="userSpaceOnUse"
       x1="38.625"
       y1="49.785553"
       x2="30.75"
       y2="98.035553" />
    <linearGradient
       inkscape:collect="always"
       xlink:href="#linearGradient5078"
       id="linearGradient5172"
       gradientUnits="userSpaceOnUse"
       x1="37"
       y1="54.035553"
       x2="30"
       y2="98.160553" />
    <radialGradient
       inkscape:collect="always"
       xlink:href="#linearGradient5097"
       id="radialGradient5174"
       gradientUnits="userSpaceOnUse"
       gradientTransform="matrix(1.748109,0,0,0.958828,-19.83283,-2.306639)"
       cx="26.510632"
       cy="109.35589"
       fx="26.510632"
       fy="109.35589"
       r="13.510632" />
    <radialGradient
       inkscape:collect="always"
       xlink:href="#linearGradient5097"
       id="radialGradient5177"
       gradientUnits="userSpaceOnUse"
       gradientTransform="matrix(1.748109,0,0,0.958828,-24.83283,-2.306639)"
       cx="26.510632"
       cy="109.35589"
       fx="26.510632"
       fy="109.35589"
       r="13.510632" />
    <linearGradient
       inkscape:collect="always"
       xlink:href="#linearGradient5078"
       id="linearGradient5180"
       gradientUnits="userSpaceOnUse"
       x1="37"
       y1="54.035553"
       x2="30"
       y2="98.160553"
       gradientTransform="translate(-5,0)" />
    <linearGradient
       inkscape:collect="always"
       xlink:href="#linearGradient5078"
       id="linearGradient5183"
       gradientUnits="userSpaceOnUse"
       x1="38.625"
       y1="49.785553"
       x2="30.75"
       y2="98.035553"
       gradientTransform="translate(-5,0)" />
  </defs>
  <sodipodi:namedview
     id="base"
     pagecolor="#ffffff"
     bordercolor="#666666"
     borderopacity="1.0"
     inkscape:pageopacity="0.0"
     inkscape:pageshadow="2"
     inkscape:zoom="4"
     inkscape:cx="44.091182"
     inkscape:cy="42.582038"
     inkscape:current-layer="layer1"
     showgrid="true"
     inkscape:grid-bbox="true"
     inkscape:document-units="px"
     inkscape:window-width="1189"
     inkscape:window-height="1024"
     inkscape:window-x="10"
     inkscape:window-y="43"
     showguides="true"
     inkscape:guide-bbox="true" />
  <metadata
     id="metadata6203">
    <rdf:RDF>
      <cc:Work
         rdf:about="">
        <dc:format>image/svg+xml</dc:format>
        <dc:type
           rdf:resource="http://purl.org/dc/dcmitype/StillImage" />
      </cc:Work>
    </rdf:RDF>
  </metadata>
  <g
     id="layer1"
     inkscape:label="Layer 1"
     inkscape:groupmode="layer">
    <path
       sodipodi:nodetypes="ccccccccc"
       id="path2331"
       d="M 6.3111018,5.5481921 L 122.01378,5.5481921 C 125.33015,5.5481921 128,8.2349368 128,11.572285 L 128,110.52388 C 128,113.86122 125.33015,116.54797 122.01378,116.54797 L 6.3111018,116.54797 C 2.9947372,116.54797 0.32488399,113.86122 0.32488399,110.52388 L 0.32488399,11.572285 C 0.32488399,8.2349368 2.9947372,5.5481921 6.3111018,5.5481921 z "
       style="fill:#292f38;fill-opacity:1;fill-rule:nonzero;stroke:none;stroke-width:0.25;stroke-linecap:round;stroke-linejoin:round;stroke-miterlimit:4;stroke-dashoffset:4;stroke-opacity:0.05963302" />
    <path
       sodipodi:nodetypes="cccccccccccc"
       id="path2333"
       d="M 7.1154481,6.7133556 C 4.0866034,6.943614 1.7330655,9.4961451 1.7330655,12.602157 L 1.7330655,109.56062 C 1.7330655,112.81938 4.3434521,115.44942 7.5848418,115.44942 L 120.67746,115.44942 C 123.91885,115.44942 126.52924,112.81938 126.52924,109.56062 L 126.52924,23.05714 C 124.73652,23.669074 123.91079,25.077204 120.81923,24.619727 L 86.017097,24.788368 C 94.086877,21.05661 99.755191,13.884685 111.19571,6.7133556 L 7.5848418,6.7133556 C 7.4329017,6.7133556 7.2644076,6.7020309 7.1154481,6.7133556 z "
       style="opacity:0.49180328;fill:url(#linearGradient2071);fill-opacity:1;fill-rule:nonzero;stroke:none;stroke-width:0.25;stroke-linecap:round;stroke-linejoin:round;stroke-miterlimit:4;stroke-dasharray:none;stroke-dashoffset:4;stroke-opacity:0.05963302" />
    <g
       transform="matrix(1.001373,0,0,1.007709,-0.175803,-6.544322)"
       id="g2335">
      <rect
         style="opacity:0.38934422;fill:url(#linearGradient2383);fill-opacity:1;fill-rule:nonzero;stroke:none;stroke-width:0.25;stroke-linecap:round;stroke-linejoin:round;stroke-miterlimit:4;stroke-dasharray:none;stroke-dashoffset:4;stroke-opacity:0.05963302"
         id="rect2337"
         width="114.15658"
         height="7.555687"
         x="7.555687"
         y="27.31226"
         rx="0"
         ry="7.555687" />
      <rect
         ry="6.2416549"
         rx="0"
         y="27.640768"
         x="6.2416544"
         height="6.2416549"
         width="116.45614"
         id="rect2339"
         style="opacity:0.38934422;fill:url(#linearGradient2385);fill-opacity:1;fill-rule:nonzero;stroke:none;stroke-width:0.25;stroke-linecap:round;stroke-linejoin:round;stroke-miterlimit:4;stroke-dasharray:none;stroke-dashoffset:4;stroke-opacity:0.05963302" />
      <rect
         style="opacity:0.38934422;fill:url(#linearGradient2387);fill-opacity:1;fill-rule:nonzero;stroke:none;stroke-width:0.25;stroke-linecap:round;stroke-linejoin:round;stroke-miterlimit:4;stroke-dasharray:none;stroke-dashoffset:4;stroke-opacity:0.05963302"
         id="rect2341"
         width="118.09869"
         height="3.9420979"
         x="5.2561302"
         y="29.119055"
         rx="0"
         ry="1.7246678" />
    </g>
    <path
       sodipodi:nodetypes="ccccccccc"
       id="path2343"
       d="M 7.66084,24.716994 L 120.66405,24.716994 C 122.11287,24.716994 123.27924,25.89075 123.27924,27.348734 L 123.27924,107.9051 C 123.27924,109.36308 122.11287,110.53684 120.66405,110.53684 L 7.66084,110.53684 C 6.2120224,110.53684 5.0456457,109.36308 5.0456457,107.9051 L 5.0456457,27.348734 C 5.0456457,25.89075 6.2120224,24.716994 7.66084,24.716994 z "
       style="fill:url(#radialGradient2064);fill-opacity:1;fill-rule:nonzero;stroke:none;stroke-width:0.25;stroke-linecap:round;stroke-linejoin:round;stroke-miterlimit:4;stroke-dashoffset:4;stroke-opacity:0.05963302" />
    <rect
       ry="2.6317406"
       rx="2.6151943"
       y="110.00268"
       x="5.8947616"
       height="4.0257645"
       width="116.55482"
       id="rect2345"
       style="opacity:0.68032789;fill:url(#radialGradient2061);fill-opacity:1;fill-rule:nonzero;stroke:none;stroke-width:0.25;stroke-linecap:round;stroke-linejoin:round;stroke-miterlimit:4;stroke-dasharray:none;stroke-dashoffset:4;stroke-opacity:0.05963302" />
    <rect
       style="opacity:0.68032789;fill:url(#radialGradient2058);fill-opacity:1;fill-rule:nonzero;stroke:none;stroke-width:0.25;stroke-linecap:round;stroke-linejoin:round;stroke-miterlimit:4;stroke-dasharray:none;stroke-dashoffset:4;stroke-opacity:0.05963302"
       id="rect2347"
       width="116.55482"
       height="4.0257645"
       x="5.1335416"
       y="5.8365426"
       rx="2.6151943"
       ry="2.6317406" />
    <path
       sodipodi:nodetypes="cscsscss"
       id="path2349"
       d="M 6.2683743,6.4127062 C 4.0431221,6.4127062 1.4347923,8.9729609 1.005031,11.543837 C 0.60923911,13.911504 1.1146814,16.840488 1.1695066,19.488813 C 1.005031,13.805949 3.0440778,8.8955118 6.2683803,8.8955118 C 43.171418,8.8955118 79.638748,8.7299915 121.07519,8.7299915 C 124.49251,8.7299915 125.51613,12.095572 127.32541,15.185285 C 127.32541,11.65246 126.54483,6.4127062 122.39102,6.4127062 C 84.070326,6.4127062 45.165188,6.4127062 6.2683743,6.4127062 z "
       style="fill:url(#linearGradient2055);fill-opacity:1;fill-rule:evenodd;stroke:none;stroke-width:1px;stroke-linecap:butt;stroke-linejoin:miter;stroke-opacity:1" />
    <g
       transform="matrix(1.001373,0,0,1.007709,2.447194e-2,0.455681)"
       id="g2351">
      <rect
         style="opacity:0.60655739;fill:url(#linearGradient2397);fill-opacity:1;fill-rule:nonzero;stroke:none;stroke-width:0.25;stroke-linecap:round;stroke-linejoin:round;stroke-miterlimit:4;stroke-dasharray:none;stroke-dashoffset:4;stroke-opacity:0.05963302"
         id="rect2353"
         width="1.8668351"
         height="84.516914"
         x="3.1331649"
         y="24.311001"
         rx="0.93341756"
         ry="1.7437267" />
    </g>
    <path
       transform="matrix(5.81355e-2,0,0,5.851759e-2,115.4625,9.764768)"
       inkscape:r_cy="true"
       inkscape:r_cx="true"
       d="M 127.31551 65.540108 A 63.144386 63.144386 0 1 1  1.0267334,65.540108 A 63.144386 63.144386 0 1 1  127.31551 65.540108 z"
       sodipodi:ry="63.144386"
       sodipodi:rx="63.144386"
       sodipodi:cy="65.540108"
       sodipodi:cx="64.17112"
       id="path2361"
       style="fill:black;fill-opacity:1;fill-rule:nonzero;stroke:none;stroke-width:0.69999999;stroke-linecap:round;stroke-linejoin:round;stroke-miterlimit:4;stroke-dasharray:none;stroke-dashoffset:4;stroke-opacity:0.9908257"
       sodipodi:type="arc" />
    <path
       inkscape:r_cy="true"
       inkscape:r_cx="true"
       id="path2363"
       d="M 120.90255,16.468332 C 122.54133,15.574447 123.20029,13.564493 122.3726,11.93972 C 122.17996,11.561574 121.92278,11.237699 121.62127,10.972302 C 121.8983,11.221309 122.13347,11.522661 122.31197,11.873057 C 123.11364,13.446761 122.45166,15.398714 120.83441,16.229851 C 119.21716,17.060987 117.25378,16.458262 116.45209,14.884555 C 115.65041,13.310849 116.31241,11.358896 117.92965,10.52776 C 118.69405,10.134919 119.53552,10.063344 120.29532,10.262272 C 119.48849,10.041037 118.59085,10.110102 117.77627,10.528726 C 116.08004,11.400454 115.38574,13.447719 116.22657,15.098284 C 117.06739,16.748849 119.12665,17.381005 120.82288,16.509277 C 120.84939,16.495655 120.87655,16.482521 120.90255,16.468332 z M 120.35207,10.277024 C 120.33371,10.271651 120.3154,10.266503 120.29694,10.261435 C 120.31533,10.266259 120.33377,10.271884 120.35207,10.277024 z "
       style="fill:url(#linearGradient2046);fill-opacity:1;fill-rule:nonzero;stroke:none;stroke-width:0.69999999;stroke-linecap:round;stroke-linejoin:round;stroke-miterlimit:4;stroke-dasharray:none;stroke-dashoffset:4;stroke-opacity:0.9908257" />
    <rect
       rx="2.3096845"
       ry="2.2811413"
       inkscape:r_cy="true"
       inkscape:r_cx="true"
       y="11.096387"
       x="116.94955"
       height="4.5622826"
       width="4.619369"
       id="rect2365"
       style="opacity:0.31147539;fill:url(#radialGradient2043);fill-opacity:1;fill-rule:nonzero;stroke:black;stroke-width:0.06063235;stroke-linecap:round;stroke-linejoin:round;stroke-miterlimit:4;stroke-dasharray:none;stroke-dashoffset:4;stroke-opacity:1" />
    <path
       inkscape:r_cy="true"
       inkscape:r_cx="true"
       id="path2367"
       d="M 119.05812,10.151817 C 117.22926,10.210325 115.76193,11.7269 115.76193,13.586339 C 115.76193,14.55892 116.16446,15.438149 116.80887,16.063382 C 119.01722,15.331044 119.68997,12.527922 122.00663,11.688824 C 121.39658,10.762036 120.35141,10.151817 119.1669,10.151817 C 119.13019,10.151817 119.09456,10.150652 119.05812,10.151817 z "
       style="opacity:0.57674417;fill:url(#radialGradient2040);fill-opacity:1;fill-rule:nonzero;stroke:none;stroke-width:0.69999999;stroke-linecap:round;stroke-linejoin:round;stroke-miterlimit:4;stroke-dasharray:none;stroke-dashoffset:4;stroke-opacity:0.9908257" />
    <path
       sodipodi:type="arc"
       style="fill:black;fill-opacity:1;fill-rule:nonzero;stroke:none;stroke-width:0.69999999;stroke-linecap:round;stroke-linejoin:round;stroke-miterlimit:4;stroke-dasharray:none;stroke-dashoffset:4;stroke-opacity:0.9908257"
       id="path2369"
       sodipodi:cx="64.17112"
       sodipodi:cy="65.540108"
       sodipodi:rx="63.144386"
       sodipodi:ry="63.144386"
       d="M 127.31551 65.540108 A 63.144386 63.144386 0 1 1  1.0267334,65.540108 A 63.144386 63.144386 0 1 1  127.31551 65.540108 z"
       inkscape:r_cx="true"
       inkscape:r_cy="true"
       transform="matrix(5.81355e-2,0,0,5.851759e-2,106.4501,9.764768)" />
    <path
       style="fill:url(#linearGradient2036);fill-opacity:1;fill-rule:nonzero;stroke:none;stroke-width:0.69999999;stroke-linecap:round;stroke-linejoin:round;stroke-miterlimit:4;stroke-dasharray:none;stroke-dashoffset:4;stroke-opacity:0.9908257"
       d="M 111.89019,16.468332 C 113.52897,15.574447 114.18793,13.564493 113.36024,11.93972 C 113.1676,11.561574 112.91042,11.237699 112.60891,10.972302 C 112.88593,11.221309 113.12111,11.522661 113.2996,11.873057 C 114.10128,13.446761 113.4393,15.398714 111.82205,16.229851 C 110.2048,17.060987 108.24142,16.458262 107.43973,14.884555 C 106.63805,13.310849 107.30004,11.358896 108.91729,10.52776 C 109.68169,10.134919 110.52316,10.063344 111.28295,10.262272 C 110.47613,10.041037 109.57849,10.110102 108.76391,10.528726 C 107.06768,11.400454 106.37337,13.447719 107.2142,15.098284 C 108.05503,16.748849 110.11428,17.381005 111.81052,16.509277 C 111.83702,16.495655 111.86418,16.482521 111.89019,16.468332 z M 111.33971,10.277024 C 111.32135,10.271651 111.30303,10.266503 111.28458,10.261435 C 111.30297,10.266259 111.32141,10.271884 111.33971,10.277024 z "
       id="path2371"
       inkscape:r_cx="true"
       inkscape:r_cy="true" />
    <rect
       style="opacity:0.40983605;fill:url(#radialGradient2033);fill-opacity:1;fill-rule:nonzero;stroke:black;stroke-width:0.03995185;stroke-linecap:round;stroke-linejoin:round;stroke-miterlimit:4;stroke-dasharray:none;stroke-dashoffset:4;stroke-opacity:1"
       id="rect2373"
       width="4.8946052"
       height="1.869442"
       x="107.74873"
       y="12.296628"
       inkscape:r_cx="true"
       inkscape:r_cy="true"
       ry="0.32609081"
       rx="0.50859064" />
    <path
       style="opacity:0.57674417;fill:url(#radialGradient2030);fill-opacity:1;fill-rule:nonzero;stroke:none;stroke-width:0.69999999;stroke-linecap:round;stroke-linejoin:round;stroke-miterlimit:4;stroke-dasharray:none;stroke-dashoffset:4;stroke-opacity:0.9908257"
       d="M 110.04576,10.151817 C 108.2169,10.210325 106.74957,11.7269 106.74957,13.586339 C 106.74957,14.55892 107.1521,15.438149 107.79651,16.063382 C 110.00486,15.331044 110.67761,12.527922 112.99427,11.688824 C 112.38422,10.762036 111.33905,10.151817 110.15454,10.151817 C 110.11783,10.151817 110.0822,10.150652 110.04576,10.151817 z "
       id="path2375"
       inkscape:r_cx="true"
       inkscape:r_cy="true" />
    <path
       sodipodi:nodetypes="cccccsccccc"
       style="fill:url(#radialGradient2027);fill-opacity:1;fill-rule:nonzero;stroke:none;stroke-width:0.25;stroke-linecap:round;stroke-linejoin:round;stroke-miterlimit:4;stroke-dasharray:none;stroke-dashoffset:4;stroke-opacity:0.05963302"
       d="M 7.2719126,24.716994 C 6.0099569,24.915183 5.0501152,26.091475 5.0501152,27.469132 L 5.0501152,52.074551 C 16.585281,50.831818 66.783408,33.295385 83.000784,24.716994 L 7.6474277,24.716994 C 7.5568765,24.716994 7.485213,24.70768 7.3970843,24.716994 C 7.3557739,24.721361 7.3126208,24.7106 7.2719126,24.716994 z M 122.86796,25.994772 C 80.574391,51.56052 110.83772,68.876121 123.27477,69.340936 L 123.27477,27.469132 C 123.27477,26.923993 123.12526,26.422896 122.86796,25.994772 z "
       id="path2377" />
    <path
       sodipodi:nodetypes="ccccccscccccc"
       id="path2379"
       d="M 7.2719126,24.716994 C 6.0099569,24.915183 5.0501152,26.091475 5.0501152,27.469132 L 5.0501152,52.074551 C 16.585281,50.831818 28.268172,51.69321 40.004309,53.581673 C 52.15858,44.40183 66.783408,33.295385 83.000784,24.716994 L 7.6474277,24.716994 C 7.5568765,24.716994 7.485213,24.70768 7.3970843,24.716994 C 7.3557739,24.721361 7.3126208,24.7106 7.2719126,24.716994 z M 122.86796,25.994772 C 102.88305,37.45535 92.644232,50.663446 85.379043,63.574554 C 98.155515,66.478512 110.83772,68.876121 123.27477,69.340936 L 123.27477,27.469132 C 123.27477,26.923993 123.12526,26.422896 122.86796,25.994772 z "
       style="fill:url(#radialGradient2024);fill-opacity:1;fill-rule:nonzero;stroke:none;stroke-width:0.25;stroke-linecap:round;stroke-linejoin:round;stroke-miterlimit:4;stroke-dasharray:none;stroke-dashoffset:4;stroke-opacity:0.05963302" />
    <path
       sodipodi:type="arc"
       style="opacity:0.38139535;fill:url(#radialGradient7030);fill-opacity:1;fill-rule:nonzero;stroke:none;stroke-width:0;stroke-linecap:round;stroke-linejoin:round;stroke-miterlimit:4;stroke-dasharray:none;stroke-dashoffset:4;stroke-opacity:1"
       id="path3289"
       sodipodi:cx="63.912209"
       sodipodi:cy="115.70919"
       sodipodi:rx="63.912209"
       sodipodi:ry="12.641975"
       d="M 127.82442 115.70919 A 63.912209 12.641975 0 1 1  0,115.70919 A 63.912209 12.641975 0 1 1  127.82442 115.70919 z"
       transform="matrix(1.001373,0,0,0.417239,0,74.44685)" />
    <rect
       style="opacity:0.68999999;fill:#555753;fill-opacity:1;fill-rule:nonzero;stroke:none;stroke-width:6;stroke-linecap:round;stroke-linejoin:round;stroke-miterlimit:4;stroke-dasharray:none;stroke-dashoffset:4;stroke-opacity:1"
       id="rect5048"
       width="5"
       height="76.012161"
       x="20"
       y="29.476545"
       rx="2.6151943"
       ry="2.6317406" />
    <path
       id="path5071"
       d="M 20.433575,84.75472 L 7.41097,92.229233 L 7.41097,92.280604 L 20.433575,100.08903 L 33.610294,100.08903 L 33.610294,84.75472 L 20.433575,84.75472 z "
       style="fill:black;fill-opacity:1;fill-rule:evenodd;stroke:black;stroke-width:0.82193959px;stroke-linecap:butt;stroke-linejoin:round;stroke-opacity:1"
       sodipodi:nodetypes="ccccccc" />
    <path
       style="fill:url(#linearGradient5183);fill-opacity:1;fill-rule:evenodd;stroke:none;stroke-width:0.82193959px;stroke-linecap:butt;stroke-linejoin:round;stroke-opacity:1"
       d="M 20.4375,84.75 L 7.59375,92.125 C 16.330351,93.811257 24.763252,94.670739 33.625,94.1875 L 33.625,84.75 L 20.4375,84.75 z "
       id="path5073" />
    <path
       style="fill:url(#linearGradient5180);fill-opacity:1;fill-rule:evenodd;stroke:none;stroke-width:0.82193959px;stroke-linecap:butt;stroke-linejoin:round;stroke-opacity:1"
       d="M 20.4375,84.75 L 7.59375,92.125 C 10.344565,92.655937 13.067785,93.086597 15.78125,93.4375 C 17.663743,90.211881 20.693524,87.40686 24.1875,84.75 L 20.4375,84.75 z M 32,84.75 C 28.476139,87.361495 25.799809,90.347335 25.15625,94.25 C 27.95637,94.357025 30.759985,94.343732 33.625,94.1875 L 33.625,84.75 L 32,84.75 z "
       id="path5088" />
    <path
       sodipodi:nodetypes="ccccccc"
       style="opacity:0.62000008;fill:url(#radialGradient5177);fill-opacity:1;fill-rule:evenodd;stroke:none;stroke-width:0.82193959px;stroke-linecap:butt;stroke-linejoin:round;stroke-opacity:1"
       d="M 20.433575,84.75472 L 7.41097,92.229233 L 7.41097,92.280604 L 20.433575,100.08903 L 33.610294,100.08903 L 33.610294,84.75472 L 20.433575,84.75472 z "
       id="path5095" />
    <rect
       ry="2.6317406"
       rx="2.6151943"
       y="29.476545"
       x="60.25"
       height="76.012161"
       width="5"
       id="rect5114"
       style="opacity:0.68999999;fill:#555753;fill-opacity:1;fill-rule:nonzero;stroke:none;stroke-width:6;stroke-linecap:round;stroke-linejoin:round;stroke-miterlimit:4;stroke-dasharray:none;stroke-dashoffset:4;stroke-opacity:1" />
    <path
       sodipodi:nodetypes="ccccccc"
       style="fill:black;fill-opacity:1;fill-rule:evenodd;stroke:black;stroke-width:0.82193959px;stroke-linecap:butt;stroke-linejoin:round;stroke-opacity:1"
       d="M 60.683575,41.25472 L 47.66097,48.729233 L 47.66097,48.780604 L 60.683575,56.58903 L 73.860294,56.58903 L 73.860294,41.25472 L 60.683575,41.25472 z "
       id="path5116" />
    <path
       id="path5118"
       d="M 60.6875,41.25 L 47.84375,48.625 C 56.580351,50.311257 65.013252,51.170739 73.875,50.6875 L 73.875,41.25 L 60.6875,41.25 z "
       style="fill:url(#linearGradient5166);fill-opacity:1;fill-rule:evenodd;stroke:none;stroke-width:0.82193959px;stroke-linecap:butt;stroke-linejoin:round;stroke-opacity:1" />
    <path
       id="path5120"
       d="M 60.6875,41.25 L 47.84375,48.625 C 50.594565,49.155937 53.317785,49.586597 56.03125,49.9375 C 57.913743,46.711881 60.943524,43.90686 64.4375,41.25 L 60.6875,41.25 z M 72.25,41.25 C 68.726139,43.861495 66.049809,46.847335 65.40625,50.75 C 68.20637,50.857025 71.009985,50.843732 73.875,50.6875 L 73.875,41.25 L 72.25,41.25 z "
       style="fill:url(#linearGradient5163);fill-opacity:1;fill-rule:evenodd;stroke:none;stroke-width:0.82193959px;stroke-linecap:butt;stroke-linejoin:round;stroke-opacity:1" />
    <path
       id="path5122"
       d="M 60.683575,41.25472 L 47.66097,48.729233 L 47.66097,48.780604 L 60.683575,56.58903 L 73.860294,56.58903 L 73.860294,41.25472 L 60.683575,41.25472 z "
       style="opacity:0.62000008;fill:url(#radialGradient5160);fill-opacity:1;fill-rule:evenodd;stroke:none;stroke-width:0.82193959px;stroke-linecap:butt;stroke-linejoin:round;stroke-opacity:1"
       sodipodi:nodetypes="ccccccc" />
    <rect
       style="opacity:0.68999999;fill:#555753;fill-opacity:1;fill-rule:nonzero;stroke:none;stroke-width:6;stroke-linecap:round;stroke-linejoin:round;stroke-miterlimit:4;stroke-dasharray:none;stroke-dashoffset:4;stroke-opacity:1"
       id="rect5132"
       width="5"
       height="76.012161"
       x="100.25"
       y="29.476545"
       rx="2.6151943"
       ry="2.6317406" />
    <path
       id="path5134"
       d="M 100.68358,73.435194 L 87.66097,80.909707 L 87.66097,80.961078 L 100.68358,88.769504 L 113.86029,88.769504 L 113.86029,73.435194 L 100.68358,73.435194 z "
       style="fill:black;fill-opacity:1;fill-rule:evenodd;stroke:black;stroke-width:0.82193959px;stroke-linecap:butt;stroke-linejoin:round;stroke-opacity:1"
       sodipodi:nodetypes="ccccccc" />
    <path
       style="fill:url(#linearGradient5155);fill-opacity:1;fill-rule:evenodd;stroke:none;stroke-width:0.82193959px;stroke-linecap:butt;stroke-linejoin:round;stroke-opacity:1"
       d="M 100.6875,73.430474 L 87.84375,80.805474 C 96.58035,82.491731 105.01325,83.351213 113.875,82.867974 L 113.875,73.430474 L 100.6875,73.430474 z "
       id="path5136" />
    <path
       style="fill:url(#linearGradient5152);fill-opacity:1;fill-rule:evenodd;stroke:none;stroke-width:0.82193959px;stroke-linecap:butt;stroke-linejoin:round;stroke-opacity:1"
       d="M 100.6875,73.430474 L 87.84375,80.805474 C 90.594565,81.336411 93.317785,81.767071 96.03125,82.117974 C 97.91374,78.892355 100.94352,76.087334 104.4375,73.430474 L 100.6875,73.430474 z M 112.25,73.430474 C 108.72614,76.041969 106.04981,79.027809 105.40625,82.930474 C 108.20637,83.037499 111.00999,83.024206 113.875,82.867974 L 113.875,73.430474 L 112.25,73.430474 z "
       id="path5138" />
    <path
       sodipodi:nodetypes="ccccccc"
       style="opacity:0.62000008;fill:url(#radialGradient5149);fill-opacity:1;fill-rule:evenodd;stroke:none;stroke-width:0.82193959px;stroke-linecap:butt;stroke-linejoin:round;stroke-opacity:1"
       d="M 100.68358,73.435194 L 87.66097,80.909707 L 87.66097,80.961078 L 100.68358,88.769504 L 113.86029,88.769504 L 113.86029,73.435194 L 100.68358,73.435194 z "
       id="path5140" />
  </g>
</svg>
