<svg xmlns="http://www.w3.org/2000/svg" xmlns:xlink="http://www.w3.org/1999/xlink" width="128" height="128" version="1.0"><defs><linearGradient id="o"><stop offset="0" style="stop-color:white;stop-opacity:1"/><stop offset="1" style="stop-color:white;stop-opacity:0"/></linearGradient><linearGradient id="i"><stop offset="0" style="stop-color:white;stop-opacity:1"/><stop offset="1" style="stop-color:white;stop-opacity:0"/></linearGradient><linearGradient id="l"><stop offset="0" style="stop-color:#fff;stop-opacity:1"/><stop offset="1" style="stop-color:#fff;stop-opacity:0"/></linearGradient><linearGradient id="m"><stop offset="0" style="stop-color:#b3b3b3;stop-opacity:1"/><stop offset=".529" style="stop-color:#fff;stop-opacity:1"/><stop offset="1" style="stop-color:#c5c5c5;stop-opacity:1"/></linearGradient><linearGradient id="d"><stop offset="0" style="stop-color:#fff;stop-opacity:1"/><stop offset="1" style="stop-color:#fff;stop-opacity:0"/></linearGradient><linearGradient id="c"><stop offset="0" style="stop-color:#fff;stop-opacity:1"/><stop offset="1" style="stop-color:#fff;stop-opacity:0"/></linearGradient><linearGradient id="e"><stop offset="0" style="stop-color:#fff;stop-opacity:1"/><stop offset="1" style="stop-color:#fff;stop-opacity:0"/></linearGradient><linearGradient id="n"><stop offset="0" style="stop-color:#fff;stop-opacity:1"/><stop offset="1" style="stop-color:#fff;stop-opacity:0"/></linearGradient><linearGradient id="f"><stop offset="0" style="stop-color:#fff;stop-opacity:1"/><stop offset="1" style="stop-color:#fff;stop-opacity:0"/></linearGradient><linearGradient id="a"><stop offset="0" style="stop-color:#000;stop-opacity:1"/><stop offset="1" style="stop-color:#000;stop-opacity:0"/></linearGradient><linearGradient id="k"><stop offset="0" style="stop-color:#000;stop-opacity:1"/><stop offset="1" style="stop-color:#000;stop-opacity:0"/></linearGradient><linearGradient xlink:href="#a" id="q" x1="64.47" x2="64.47" y1="31.09" y2="27.312" gradientTransform="matrix(.96127 0 0 1 2.661 0)" gradientUnits="userSpaceOnUse"/><linearGradient xlink:href="#a" id="r" x1="64.47" x2="64.47" y1="31.09" y2="27.312" gradientTransform="matrix(.98064 0 0 .82609 1.248 5.078)" gradientUnits="userSpaceOnUse"/><linearGradient xlink:href="#a" id="s" x1="64.47" x2="64.47" y1="31.09" y2="27.312" gradientTransform="matrix(.99447 0 0 .54348 .192 14.275)" gradientUnits="userSpaceOnUse"/><linearGradient xlink:href="#c" id="x" x1=".445" x2="5.013" y1="65.441" y2="65.441" gradientUnits="userSpaceOnUse"/><linearGradient xlink:href="#d" id="B" x1="17.723" x2="76.597" y1="148.575" y2="32.458" gradientTransform="matrix(.06015 -.01344 .0121 .05898 105.71 10.91)" gradientUnits="userSpaceOnUse"/><linearGradient xlink:href="#d" id="y" x1="17.723" x2="76.597" y1="148.575" y2="32.458" gradientTransform="matrix(.06015 -.01344 .0121 .05898 114.722 10.91)" gradientUnits="userSpaceOnUse"/><linearGradient xlink:href="#e" id="w" x1="53.875" x2="53.875" y1="10.944" y2="18.039" gradientTransform="matrix(-1.00137 0 0 1.0077 128.641 -6.544)" gradientUnits="userSpaceOnUse"/><linearGradient xlink:href="#f" id="p" x1="191.803" x2="18.801" y1="8.964" y2="48.373" gradientTransform="matrix(1.00137 0 0 1.0077 .024 .456)" gradientUnits="userSpaceOnUse"/><linearGradient xlink:href="#i" id="O" x1="37" x2="30" y1="54.036" y2="98.161" gradientTransform="translate(75.25 -11.32)" gradientUnits="userSpaceOnUse"/><linearGradient xlink:href="#i" id="N" x1="38.625" x2="30.75" y1="49.786" y2="98.036" gradientTransform="translate(75.25 -11.32)" gradientUnits="userSpaceOnUse"/><linearGradient xlink:href="#i" id="L" x1="37" x2="30" y1="54.036" y2="98.161" gradientTransform="translate(35.25 -43.5)" gradientUnits="userSpaceOnUse"/><linearGradient xlink:href="#i" id="K" x1="38.625" x2="30.75" y1="49.786" y2="98.036" gradientTransform="translate(35.25 -43.5)" gradientUnits="userSpaceOnUse"/><linearGradient xlink:href="#i" id="I" x1="37" x2="30" y1="54.036" y2="98.161" gradientTransform="translate(-5)" gradientUnits="userSpaceOnUse"/><linearGradient xlink:href="#i" id="H" x1="38.625" x2="30.75" y1="49.786" y2="98.036" gradientTransform="translate(-5)" gradientUnits="userSpaceOnUse"/><radialGradient xlink:href="#k" id="G" cx="63.912" cy="115.709" r="63.912" fx="64.023" fy="120.679" gradientTransform="matrix(1 0 0 .1978 0 92.822)" gradientUnits="userSpaceOnUse"/><radialGradient xlink:href="#f" id="F" cx="64.411" cy="24.828" r="59.411" fx="64.911" fy="18.807" gradientTransform="matrix(2.50383 0 0 1.07959 -97.111 -24.171)" gradientUnits="userSpaceOnUse"/><radialGradient xlink:href="#f" id="E" cx="64.411" cy="24.828" r="59.411" fx="64.911" fy="18.807" gradientTransform="matrix(2.50383 0 0 1.07959 -97.111 -24.171)" gradientUnits="userSpaceOnUse"/><radialGradient xlink:href="#l" id="D" cx="43.621" cy="42.7" r="50.234" fx="43.034" fy="8.045" gradientTransform="matrix(.0482 .05164 -.06332 .05885 110.131 7.558)" gradientUnits="userSpaceOnUse"/><radialGradient xlink:href="#m" id="C" cx="213.73" cy="94.003" r="26.5" fx="210.862" fy="101.233" gradientTransform="matrix(.29002 .04611 -.05477 .05026 51.67 -.019)" gradientUnits="userSpaceOnUse" spreadMethod="reflect"/><radialGradient xlink:href="#l" id="A" cx="43.621" cy="42.7" r="50.234" fx="43.034" fy="8.045" gradientTransform="matrix(.0482 .05164 -.06332 .05885 119.144 7.558)" gradientUnits="userSpaceOnUse"/><radialGradient xlink:href="#m" id="z" cx="213.73" cy="94.003" r="26.5" fx="210.862" fy="101.233" gradientTransform="matrix(.27371 .11253 -.0517 .12265 64.024 -18.958)" gradientUnits="userSpaceOnUse" spreadMethod="reflect"/><radialGradient xlink:href="#n" id="v" cx="64.26" cy="69.65" r="58.197" fx="64.26" fy="69.65" gradientTransform="matrix(1.00137 0 0 .03459 -.937 4.319)" gradientUnits="userSpaceOnUse"/><radialGradient xlink:href="#n" id="u" cx="64.26" cy="69.65" r="58.197" fx="64.26" fy="69.65" gradientTransform="matrix(1.00137 0 0 .03459 -.176 108.485)" gradientUnits="userSpaceOnUse"/><radialGradient xlink:href="#f" id="t" cx="64.411" cy="119.978" r="59.411" fx="64.911" fy="113.956" gradientTransform="matrix(6.82852 0 0 3.26758 -375.667 -286.681)" gradientUnits="userSpaceOnUse"/><radialGradient xlink:href="#o" id="P" cx="26.511" cy="109.356" r="13.511" fx="26.511" fy="109.356" gradientTransform="matrix(1.7481 0 0 .95883 55.417 -13.626)" gradientUnits="userSpaceOnUse"/><radialGradient xlink:href="#o" id="M" cx="26.511" cy="109.356" r="13.511" fx="26.511" fy="109.356" gradientTransform="matrix(1.7481 0 0 .95883 15.417 -45.807)" gradientUnits="userSpaceOnUse"/><radialGradient xlink:href="#o" id="J" cx="26.511" cy="109.356" r="13.511" fx="26.511" fy="109.356" gradientTransform="matrix(1.7481 0 0 .95883 -24.833 -2.307)" gradientUnits="userSpaceOnUse"/></defs><path d="M6.311 5.548h115.703c3.316 0 5.986 2.687 5.986 6.024v98.952c0 3.337-2.67 6.024-5.986 6.024H6.31c-3.316 0-5.986-2.687-5.986-6.024V11.572c0-3.337 2.67-6.024 5.986-6.024z" style="fill:#292f38;fill-opacity:1;fill-rule:nonzero;stroke:none;stroke-width:.25;stroke-linecap:round;stroke-linejoin:round;stroke-miterlimit:4;stroke-dashoffset:4;stroke-opacity:.05963302"/><path d="M7.115 6.713c-3.028.23-5.382 2.783-5.382 5.89v96.958c0 3.258 2.61 5.888 5.852 5.888h113.092c3.242 0 5.852-2.63 5.852-5.888V23.057c-1.792.612-2.618 2.02-5.71 1.563l-34.802.168c8.07-3.731 13.738-10.903 25.179-18.075H7.585c-.152 0-.32-.011-.47 0" style="opacity:.49180328;fill:url(#p);fill-opacity:1;fill-rule:nonzero;stroke:none;stroke-width:.25;stroke-linecap:round;stroke-linejoin:round;stroke-miterlimit:4;stroke-dasharray:none;stroke-dashoffset:4;stroke-opacity:.05963302"/><g transform="matrix(1.00137 0 0 1.0077 -.176 -6.544)"><rect width="114.157" height="7.556" x="7.556" y="27.312" rx="0" ry="7.556" style="opacity:.38934422;fill:url(#q);fill-opacity:1;fill-rule:nonzero;stroke:none;stroke-width:.25;stroke-linecap:round;stroke-linejoin:round;stroke-miterlimit:4;stroke-dasharray:none;stroke-dashoffset:4;stroke-opacity:.05963302"/><rect width="116.456" height="6.242" x="6.242" y="27.641" rx="0" ry="6.242" style="opacity:.38934422;fill:url(#r);fill-opacity:1;fill-rule:nonzero;stroke:none;stroke-width:.25;stroke-linecap:round;stroke-linejoin:round;stroke-miterlimit:4;stroke-dasharray:none;stroke-dashoffset:4;stroke-opacity:.05963302"/><rect width="118.099" height="3.942" x="5.256" y="29.119" rx="0" ry="1.725" style="opacity:.38934422;fill:url(#s);fill-opacity:1;fill-rule:nonzero;stroke:none;stroke-width:.25;stroke-linecap:round;stroke-linejoin:round;stroke-miterlimit:4;stroke-dasharray:none;stroke-dashoffset:4;stroke-opacity:.05963302"/></g><path d="M7.66 24.717h113.004a2.62 2.62 0 0 1 2.615 2.632v80.556a2.62 2.62 0 0 1-2.615 2.632H7.661a2.62 2.62 0 0 1-2.615-2.632V27.35a2.62 2.62 0 0 1 2.615-2.632z" style="fill:url(#t);fill-opacity:1;fill-rule:nonzero;stroke:none;stroke-width:.25;stroke-linecap:round;stroke-linejoin:round;stroke-miterlimit:4;stroke-dashoffset:4;stroke-opacity:.05963302"/><rect width="116.555" height="4.026" x="5.895" y="110.003" rx="2.615" ry="2.632" style="opacity:.68032789;fill:url(#u);fill-opacity:1;fill-rule:nonzero;stroke:none;stroke-width:.25;stroke-linecap:round;stroke-linejoin:round;stroke-miterlimit:4;stroke-dasharray:none;stroke-dashoffset:4;stroke-opacity:.05963302"/><rect width="116.555" height="4.026" x="5.134" y="5.837" rx="2.615" ry="2.632" style="opacity:.68032789;fill:url(#v);fill-opacity:1;fill-rule:nonzero;stroke:none;stroke-width:.25;stroke-linecap:round;stroke-linejoin:round;stroke-miterlimit:4;stroke-dasharray:none;stroke-dashoffset:4;stroke-opacity:.05963302"/><path d="M6.268 6.413c-2.225 0-4.833 2.56-5.263 5.13-.396 2.369.11 5.297.165 7.946-.165-5.683 1.874-10.593 5.098-10.593 36.903 0 73.37-.166 114.807-.166 3.418 0 4.441 3.366 6.25 6.455 0-3.533-.78-8.772-4.934-8.772z" style="fill:url(#w);fill-opacity:1;fill-rule:evenodd;stroke:none;stroke-width:1px;stroke-linecap:butt;stroke-linejoin:miter;stroke-opacity:1"/><rect width="1.867" height="84.517" x="3.133" y="24.311" rx=".933" ry="1.744" style="opacity:.60655739;fill:url(#x);fill-opacity:1;fill-rule:nonzero;stroke:none;stroke-width:.25;stroke-linecap:round;stroke-linejoin:round;stroke-miterlimit:4;stroke-dasharray:none;stroke-dashoffset:4;stroke-opacity:.05963302" transform="matrix(1.00137 0 0 1.0077 .024 .456)"/><path d="M127.316 65.54a63.144 63.144 0 1 1-126.29 0 63.144 63.144 0 1 1 126.29 0" style="fill:#000;fill-opacity:1;fill-rule:nonzero;stroke:none;stroke-width:.69999999;stroke-linecap:round;stroke-linejoin:round;stroke-miterlimit:4;stroke-dasharray:none;stroke-dashoffset:4;stroke-opacity:.9908257" transform="matrix(.05814 0 0 .05852 115.463 9.765)"/><path d="M120.903 16.468c1.638-.894 2.297-2.904 1.47-4.528a3.3 3.3 0 0 0-.752-.968c.277.25.512.55.691.901.802 1.574.14 3.526-1.478 4.357s-3.58.228-4.382-1.345c-.802-1.574-.14-3.526 1.478-4.357a3.32 3.32 0 0 1 2.365-.266 3.48 3.48 0 0 0-2.519.267c-1.696.871-2.39 2.919-1.55 4.57.841 1.65 2.9 2.282 4.597 1.41zm-.55-6.191-.056-.016z" style="fill:url(#y);fill-opacity:1;fill-rule:nonzero;stroke:none;stroke-width:.69999999;stroke-linecap:round;stroke-linejoin:round;stroke-miterlimit:4;stroke-dasharray:none;stroke-dashoffset:4;stroke-opacity:.9908257"/><rect width="4.619" height="4.562" x="116.95" y="11.096" rx="2.31" ry="2.281" style="opacity:.31147539;fill:url(#z);fill-opacity:1;fill-rule:nonzero;stroke:#000;stroke-width:.06063235;stroke-linecap:round;stroke-linejoin:round;stroke-miterlimit:4;stroke-dasharray:none;stroke-dashoffset:4;stroke-opacity:1"/><path d="M119.058 10.152c-1.829.058-3.296 1.575-3.296 3.434a3.44 3.44 0 0 0 1.047 2.477c2.208-.732 2.881-3.535 5.198-4.374a3.4 3.4 0 0 0-2.84-1.537z" style="opacity:.57674417;fill:url(#A);fill-opacity:1;fill-rule:nonzero;stroke:none;stroke-width:.69999999;stroke-linecap:round;stroke-linejoin:round;stroke-miterlimit:4;stroke-dasharray:none;stroke-dashoffset:4;stroke-opacity:.9908257"/><path d="M127.316 65.54a63.144 63.144 0 1 1-126.29 0 63.144 63.144 0 1 1 126.29 0" style="fill:#000;fill-opacity:1;fill-rule:nonzero;stroke:none;stroke-width:.69999999;stroke-linecap:round;stroke-linejoin:round;stroke-miterlimit:4;stroke-dasharray:none;stroke-dashoffset:4;stroke-opacity:.9908257" transform="matrix(.05814 0 0 .05852 106.45 9.765)"/><path d="M111.89 16.468c1.639-.894 2.298-2.904 1.47-4.528a3.3 3.3 0 0 0-.751-.968c.277.25.512.55.69.901.802 1.574.14 3.526-1.477 4.357s-3.58.228-4.382-1.345c-.802-1.574-.14-3.526 1.477-4.357a3.32 3.32 0 0 1 2.366-.266 3.48 3.48 0 0 0-2.52.267c-1.695.871-2.39 2.919-1.549 4.57.841 1.65 2.9 2.282 4.597 1.41zm-.55-6.191-.055-.016z" style="fill:url(#B);fill-opacity:1;fill-rule:nonzero;stroke:none;stroke-width:.69999999;stroke-linecap:round;stroke-linejoin:round;stroke-miterlimit:4;stroke-dasharray:none;stroke-dashoffset:4;stroke-opacity:.9908257"/><rect width="4.895" height="1.869" x="107.749" y="12.297" rx=".509" ry=".326" style="opacity:.40983605;fill:url(#C);fill-opacity:1;fill-rule:nonzero;stroke:#000;stroke-width:.03995185;stroke-linecap:round;stroke-linejoin:round;stroke-miterlimit:4;stroke-dasharray:none;stroke-dashoffset:4;stroke-opacity:1"/><path d="M110.046 10.152c-1.83.058-3.296 1.575-3.296 3.434a3.44 3.44 0 0 0 1.047 2.477c2.208-.732 2.88-3.535 5.197-4.374a3.4 3.4 0 0 0-2.84-1.537z" style="opacity:.57674417;fill:url(#D);fill-opacity:1;fill-rule:nonzero;stroke:none;stroke-width:.69999999;stroke-linecap:round;stroke-linejoin:round;stroke-miterlimit:4;stroke-dasharray:none;stroke-dashoffset:4;stroke-opacity:.9908257"/><path d="M7.272 24.717c-1.262.198-2.222 1.374-2.222 2.752v24.606C16.585 50.832 66.783 33.295 83 24.717H7.648c-.09 0-.162-.01-.25 0-.041.004-.084-.006-.125 0zm115.596 1.278c-42.294 25.566-12.03 42.881.407 43.346V27.469c0-.545-.15-1.046-.407-1.474" style="fill:url(#E);fill-opacity:1;fill-rule:nonzero;stroke:none;stroke-width:.25;stroke-linecap:round;stroke-linejoin:round;stroke-miterlimit:4;stroke-dasharray:none;stroke-dashoffset:4;stroke-opacity:.05963302"/><path d="M7.272 24.717c-1.262.198-2.222 1.374-2.222 2.752v24.606c11.535-1.243 23.218-.382 34.954 1.507 12.155-9.18 26.78-20.287 42.997-28.865H7.647c-.09 0-.162-.01-.25 0-.041.004-.084-.006-.125 0m115.596 1.278c-19.985 11.46-30.224 24.668-37.489 37.58 12.777 2.904 25.459 5.301 37.896 5.766V27.469c0-.545-.15-1.046-.407-1.474" style="fill:url(#F);fill-opacity:1;fill-rule:nonzero;stroke:none;stroke-width:.25;stroke-linecap:round;stroke-linejoin:round;stroke-miterlimit:4;stroke-dasharray:none;stroke-dashoffset:4;stroke-opacity:.05963302"/><path d="M127.824 115.71A63.912 12.642 0 1 1 0 115.71a63.912 12.642 0 1 1 127.824 0" style="opacity:.38139535;fill:url(#G);fill-opacity:1;fill-rule:nonzero;stroke:none;stroke-width:0;stroke-linecap:round;stroke-linejoin:round;stroke-miterlimit:4;stroke-dasharray:none;stroke-dashoffset:4;stroke-opacity:1" transform="matrix(1.00137 0 0 .41724 0 74.447)"/><rect width="5" height="76.012" x="20" y="29.477" rx="2.615" ry="2.632" style="opacity:.68999999;fill:#555753;fill-opacity:1;fill-rule:nonzero;stroke:none;stroke-width:6;stroke-linecap:round;stroke-linejoin:round;stroke-miterlimit:4;stroke-dasharray:none;stroke-dashoffset:4;stroke-opacity:1"/><path d="M20.434 84.755 7.41 92.229v.052l13.023 7.808H33.61V84.755z" style="fill:#000;fill-opacity:1;fill-rule:evenodd;stroke:#000;stroke-width:.82193959px;stroke-linecap:butt;stroke-linejoin:round;stroke-opacity:1"/><path d="M20.438 84.75 7.594 92.125c8.736 1.686 17.17 2.546 26.031 2.063V84.75z" style="fill:url(#H);fill-opacity:1;fill-rule:evenodd;stroke:none;stroke-width:.82193959px;stroke-linecap:butt;stroke-linejoin:round;stroke-opacity:1"/><path d="M20.438 84.75 7.594 92.125c2.75.53 5.474.962 8.187 1.313 1.883-3.226 4.913-6.031 8.406-8.688zm11.562 0c-3.524 2.611-6.2 5.597-6.844 9.5 2.8.107 5.604.094 8.469-.063V84.75z" style="fill:url(#I);fill-opacity:1;fill-rule:evenodd;stroke:none;stroke-width:.82193959px;stroke-linecap:butt;stroke-linejoin:round;stroke-opacity:1"/><path d="M20.434 84.755 7.41 92.229v.052l13.023 7.808H33.61V84.755z" style="opacity:.62000008;fill:url(#J);fill-opacity:1;fill-rule:evenodd;stroke:none;stroke-width:.82193959px;stroke-linecap:butt;stroke-linejoin:round;stroke-opacity:1"/><rect width="5" height="76.012" x="60.25" y="29.477" rx="2.615" ry="2.632" style="opacity:.68999999;fill:#555753;fill-opacity:1;fill-rule:nonzero;stroke:none;stroke-width:6;stroke-linecap:round;stroke-linejoin:round;stroke-miterlimit:4;stroke-dasharray:none;stroke-dashoffset:4;stroke-opacity:1"/><path d="M60.684 41.255 47.66 48.729v.052l13.023 7.808H73.86V41.255z" style="fill:#000;fill-opacity:1;fill-rule:evenodd;stroke:#000;stroke-width:.82193959px;stroke-linecap:butt;stroke-linejoin:round;stroke-opacity:1"/><path d="m60.688 41.25-12.844 7.375c8.736 1.686 17.17 2.546 26.031 2.063V41.25H60.687z" style="fill:url(#K);fill-opacity:1;fill-rule:evenodd;stroke:none;stroke-width:.82193959px;stroke-linecap:butt;stroke-linejoin:round;stroke-opacity:1"/><path d="m60.688 41.25-12.844 7.375c2.75.53 5.474.962 8.187 1.313 1.883-3.226 4.913-6.031 8.407-8.688zm11.562 0c-3.524 2.611-6.2 5.597-6.844 9.5 2.8.107 5.604.094 8.469-.063V41.25z" style="fill:url(#L);fill-opacity:1;fill-rule:evenodd;stroke:none;stroke-width:.82193959px;stroke-linecap:butt;stroke-linejoin:round;stroke-opacity:1"/><path d="M60.684 41.255 47.66 48.729v.052l13.023 7.808H73.86V41.255z" style="opacity:.62000008;fill:url(#M);fill-opacity:1;fill-rule:evenodd;stroke:none;stroke-width:.82193959px;stroke-linecap:butt;stroke-linejoin:round;stroke-opacity:1"/><rect width="5" height="76.012" x="100.25" y="29.477" rx="2.615" ry="2.632" style="opacity:.68999999;fill:#555753;fill-opacity:1;fill-rule:nonzero;stroke:none;stroke-width:6;stroke-linecap:round;stroke-linejoin:round;stroke-miterlimit:4;stroke-dasharray:none;stroke-dashoffset:4;stroke-opacity:1"/><path d="M100.684 73.435 87.66 80.91v.051l13.023 7.809h13.176V73.435h-13.176z" style="fill:#000;fill-opacity:1;fill-rule:evenodd;stroke:#000;stroke-width:.82193959px;stroke-linecap:butt;stroke-linejoin:round;stroke-opacity:1"/><path d="m100.688 73.43-12.844 7.375c8.736 1.687 17.17 2.546 26.031 2.063V73.43h-13.188z" style="fill:url(#N);fill-opacity:1;fill-rule:evenodd;stroke:none;stroke-width:.82193959px;stroke-linecap:butt;stroke-linejoin:round;stroke-opacity:1"/><path d="m100.688 73.43-12.844 7.375c2.75.531 5.474.962 8.187 1.313 1.883-3.226 4.913-6.03 8.406-8.688zm11.562 0c-3.524 2.612-6.2 5.598-6.844 9.5 2.8.107 5.604.094 8.469-.062V73.43z" style="fill:url(#O);fill-opacity:1;fill-rule:evenodd;stroke:none;stroke-width:.82193959px;stroke-linecap:butt;stroke-linejoin:round;stroke-opacity:1"/><path d="M100.684 73.435 87.66 80.91v.051l13.023 7.809h13.176V73.435h-13.176z" style="opacity:.62000008;fill:url(#P);fill-opacity:1;fill-rule:evenodd;stroke:none;stroke-width:.82193959px;stroke-linecap:butt;stroke-linejoin:round;stroke-opacity:1"/></svg>