<svg xmlns="http://www.w3.org/2000/svg" xmlns:xlink="http://www.w3.org/1999/xlink" width="128" height="128" version="1.0"><defs><linearGradient id="g"><stop offset="0" style="stop-color:white;stop-opacity:1"/><stop offset=".74" style="stop-color:white;stop-opacity:.49803922"/><stop offset="1" style="stop-color:white;stop-opacity:0"/></linearGradient><linearGradient id="n"><stop offset="0" style="stop-color:#0075f2;stop-opacity:1"/><stop offset="1" style="stop-color:#0054ae;stop-opacity:1"/></linearGradient><linearGradient id="m"><stop offset="0" style="stop-color:white;stop-opacity:0"/><stop offset="1" style="stop-color:#818181;stop-opacity:1"/></linearGradient><linearGradient id="f"><stop offset="0" style="stop-color:#c9cacc;stop-opacity:1"/><stop offset="1" style="stop-color:#acaeb1;stop-opacity:1"/></linearGradient><linearGradient id="d"><stop offset="0" style="stop-color:#a3a5a8;stop-opacity:1"/><stop offset="1" style="stop-color:white;stop-opacity:1"/></linearGradient><linearGradient id="h"><stop offset="0" style="stop-color:#000;stop-opacity:1"/><stop offset="1" style="stop-color:#000;stop-opacity:0"/></linearGradient><linearGradient id="k"><stop offset="0" style="stop-color:#fff;stop-opacity:1"/><stop offset="1" style="stop-color:#fff;stop-opacity:0"/></linearGradient><linearGradient id="b"><stop offset="0" style="stop-color:#fff;stop-opacity:1"/><stop offset="1" style="stop-color:#fff;stop-opacity:0"/></linearGradient><linearGradient id="l"><stop offset="0" style="stop-color:#fff;stop-opacity:1"/><stop offset="1" style="stop-color:#fff;stop-opacity:0"/></linearGradient><linearGradient id="p"><stop offset="0" style="stop-color:#fff;stop-opacity:1"/><stop offset="1" style="stop-color:#fff;stop-opacity:0"/></linearGradient><linearGradient id="i"><stop offset="0" style="stop-color:#fff;stop-opacity:1"/><stop offset="1" style="stop-color:#aeaeae;stop-opacity:1"/></linearGradient><linearGradient id="a"><stop offset="0" style="stop-color:#fff;stop-opacity:1"/><stop offset="1" style="stop-color:#fff;stop-opacity:0"/></linearGradient><linearGradient id="j"><stop offset="0" style="stop-color:black;stop-opacity:1"/><stop offset="1" style="stop-color:#838383;stop-opacity:1"/></linearGradient><linearGradient id="c"><stop offset="0" style="stop-color:#8bb4e6;stop-opacity:1"/><stop offset=".58" style="stop-color:#89b2e2;stop-opacity:1"/><stop offset="1" style="stop-color:#c5daf3;stop-opacity:.59493673"/></linearGradient><linearGradient id="q"><stop offset="0" style="stop-color:black;stop-opacity:1"/><stop offset=".664" style="stop-color:black;stop-opacity:.23843417"/><stop offset="1" style="stop-color:black;stop-opacity:0"/></linearGradient><linearGradient id="e"><stop offset="0" style="stop-color:#abc7e9;stop-opacity:1"/><stop offset=".271" style="stop-color:#c9dce8;stop-opacity:.42352942"/><stop offset="1" style="stop-color:white;stop-opacity:1"/></linearGradient><linearGradient id="o"><stop offset="0" style="stop-color:black;stop-opacity:1"/><stop offset=".664" style="stop-color:black;stop-opacity:.23843417"/><stop offset="1" style="stop-color:black;stop-opacity:0"/></linearGradient><linearGradient xlink:href="#b" id="r" x1="34.842" x2="35.561" y1="-7.142" y2="11.416" gradientUnits="userSpaceOnUse"/><linearGradient xlink:href="#b" id="s" x1="34.842" x2="35.561" y1="-7.142" y2="11.416" gradientUnits="userSpaceOnUse"/><linearGradient xlink:href="#b" id="t" x1="34.842" x2="35.561" y1="-7.142" y2="11.416" gradientUnits="userSpaceOnUse"/><linearGradient xlink:href="#c" id="F" x1="87.123" x2="63.976" y1="27.107" y2="69.894" gradientTransform="matrix(1.14061 0 0 1.17473 -84.875 -1.775)" gradientUnits="userSpaceOnUse"/><linearGradient xlink:href="#d" id="K" x1="13.645" x2="71.473" y1="38.368" y2="38.368" gradientTransform="matrix(1.10605 0 0 1.13913 -3.62 -7.19)" gradientUnits="userSpaceOnUse"/><linearGradient xlink:href="#e" id="G" x1="34.584" x2="11.56" y1="39.786" y2="69.204" gradientTransform="matrix(1.00852 .0371 -.03719 1.00608 3.433 2.535)" gradientUnits="userSpaceOnUse"/><linearGradient xlink:href="#f" id="I" x1="28.549" x2="28.549" y1="-10.101" y2="-.854" gradientTransform="matrix(5.32777 0 0 7.78675 -190.105 84.65)" gradientUnits="userSpaceOnUse"/><linearGradient xlink:href="#h" id="C" x1="67.515" x2="63.402" y1="86.706" y2="61.357" gradientTransform="matrix(1.0052 .03707 -.0371 1.00602 2.011 3.548)" gradientUnits="userSpaceOnUse"/><linearGradient xlink:href="#i" id="B" x1="28.072" x2="40.199" y1="20.205" y2="20.205" gradientTransform="matrix(-.35819 .40218 .39682 .35957 69.202 48.709)" gradientUnits="userSpaceOnUse" spreadMethod="reflect"/><linearGradient xlink:href="#j" id="v" x1="55.835" x2="74.892" y1="79.658" y2="59.958" gradientTransform="rotate(2.114 -97.885 56.385) scale(1.0009)" gradientUnits="userSpaceOnUse"/><radialGradient xlink:href="#k" id="u" cx="40.479" cy="27.81" r="30.543" fx="40.479" fy="12.719" gradientTransform="matrix(1.61865 -.36947 .21211 .92478 -35.51 19.924)" gradientUnits="userSpaceOnUse"/><radialGradient xlink:href="#l" id="z" cx="53.823" cy="51.796" r="5.284" fx="53.363" fy="53.704" gradientTransform="matrix(1.04631 0 0 .08778 -62.83 95.73)" gradientUnits="userSpaceOnUse"/><radialGradient xlink:href="#l" id="A" cx="53.823" cy="51.796" r="5.284" fx="53.363" fy="53.704" gradientTransform="matrix(1.04631 0 0 .08778 -66.77 163.257)" gradientUnits="userSpaceOnUse"/><radialGradient xlink:href="#k" id="H" cx="40.479" cy="27.81" r="30.543" fx="40.479" fy="12.719" gradientTransform="matrix(1.50571 .04373 -.02419 .82893 -21.678 5.667)" gradientUnits="userSpaceOnUse"/><radialGradient xlink:href="#m" id="J" cx="28.549" cy="-5.477" r="6.692" fx="28.549" fy="-5.477" gradientTransform="matrix(-5.37943 0 0 29.32146 191.58 202.601)" gradientUnits="userSpaceOnUse"/><radialGradient xlink:href="#o" id="E" cx="56.257" cy="56.999" r="9.726" fx="56.257" fy="56.999" gradientTransform="matrix(1 0 0 .92529 4 12.259)" gradientUnits="userSpaceOnUse"/><radialGradient xlink:href="#a" id="D" cx="-22.188" cy="69.922" r="3.313" fx="-24.226" fy="69.914" gradientTransform="matrix(.91838 -1.01581 9.54537 8.62984 -553.856 -528.992)" gradientUnits="userSpaceOnUse"/><radialGradient xlink:href="#p" id="y" cx="32.49" cy="69.225" r="8.333" fx="29.739" fy="69.225" gradientTransform="matrix(.62685 -.70383 7.60572 6.89156 -431.356 -325.871)" gradientUnits="userSpaceOnUse"/><radialGradient xlink:href="#p" id="x" cx="49.157" cy="62.381" r="8.333" fx="45.9" fy="62.298" gradientTransform="matrix(.62685 -.70383 7.60572 6.89156 -431.356 -325.871)" gradientUnits="userSpaceOnUse"/><radialGradient xlink:href="#q" id="w" cx="3.953" cy="74.833" r="6.932" fx=".906" fy="73.296" gradientTransform="matrix(.43597 -.5661 5.67091 5.2337 -330.64 -294.497)" gradientUnits="userSpaceOnUse"/></defs><path d="M52.893 9.281V6.487Zm.175-.909V5.577ZM31.804 82.379v-1.053ZM-87.718-43.296v-2.794 2.794zM-283.822-256.56v-2.796 2.795zm-21.264 74.006v-1.053 1.053zM52.893 8.93V6.135Z" style="fill:#fff;fill-opacity:.75688076;fill-rule:nonzero;stroke:none;stroke-width:.5;stroke-linecap:round;stroke-linejoin:round;stroke-miterlimit:4;stroke-dasharray:none;stroke-dashoffset:4;stroke-opacity:1"/><path d="M9.623 14.273c6.9-8.19 16.725-12.52 27.493-12.52 10.768 0 21.293 5.448 27.298 13.227" style="fill:none;fill-opacity:.75;fill-rule:evenodd;stroke:url(#r);stroke-width:.414;stroke-linecap:butt;stroke-linejoin:miter;stroke-miterlimit:4;stroke-dasharray:none;stroke-opacity:1" transform="matrix(-1.03111 -.03793 .04967 -1.34364 75.793 77.37)"/><path d="M9.623 14.573c6.9-8.19 16.725-12.52 27.493-12.52 10.768 0 21.293 5.448 27.298 13.227" style="fill:none;fill-opacity:.75;fill-rule:evenodd;stroke:url(#s);stroke-width:.91399997;stroke-linecap:butt;stroke-linejoin:miter;stroke-miterlimit:4;stroke-dasharray:none;stroke-opacity:1" transform="matrix(-1.03111 -.03793 .04967 -1.34364 75.793 77.37)"/><path d="M9.623 14.473c6.9-8.19 16.725-12.52 27.493-12.52 10.768 0 21.293 5.448 27.298 13.227" style="fill:none;fill-opacity:.75;fill-rule:evenodd;stroke:url(#t);stroke-width:.61400002;stroke-linecap:butt;stroke-linejoin:miter;stroke-miterlimit:4;stroke-dasharray:none;stroke-opacity:1" transform="matrix(-1.03111 -.03793 .04967 -1.34364 75.793 77.37)"/><path d="M39.151 10.038a31.929 31.929 0 0 0-7.794.815C17.51 14.014 8.157 25.296 7.631 37.15c-.136 3.073.798 5.705 2.581 7.871.116.141.24.286.363.423-.395-1.4-.565-2.926-.494-4.552.568-13.04 9.803-25.48 23.416-29.016 10.342-2.687 20.387.8 26.936 7.256-5.068-5.296-12.777-8.908-21.282-9.094z" style="opacity:.83255813;fill:url(#u);fill-opacity:1;fill-rule:nonzero;stroke:none;stroke-width:.24223065;stroke-linecap:round;stroke-linejoin:round;stroke-miterlimit:4;stroke-dashoffset:4;stroke-opacity:.05963302"/><path d="M123.69 45.54a23.845 23.37 0 1 1-47.69 0 23.845 23.37 0 1 1 47.69 0z" style="opacity:.5;fill:none;fill-opacity:1;fill-rule:evenodd;stroke:none;stroke-width:4;stroke-linecap:round;stroke-linejoin:round;stroke-miterlimit:4;stroke-dasharray:none;stroke-opacity:1" transform="matrix(1.46781 0 0 1.49764 -35.554 -34.293)"/><path d="M64.807 77.346c3.938-3.297 7.16-6.919 9.772-10.972C95.98 84.924 108.434 96.686 126 112.057c-3.3 4.594-7.132 8.364-10.865 11.943-16.84-16.186-23.8-20.932-50.328-46.654Z" style="fill:url(#v);fill-opacity:1;fill-rule:nonzero;stroke:none;stroke-width:5.90653419;stroke-linecap:round;stroke-linejoin:round;stroke-miterlimit:4;stroke-dashoffset:4;stroke-opacity:1"/><path d="m72.264 69.636-3.636 4.117c3.8 6.26 12.265 15.7 24.185 26.913 9.756 9.178 18.663 16.187 25.175 20.39 2.282-2.04 3.627-3.595 5.19-5.394-4.69-6.36-12.768-14.985-22.603-24.236-11.84-11.137-21.968-18.48-28.311-21.79Z" style="fill:url(#w);fill-opacity:1;stroke:none;stroke-width:3.86199999;stroke-linecap:round;stroke-linejoin:round;stroke-miterlimit:4;stroke-dasharray:none;stroke-dashoffset:4;stroke-opacity:1"/><path d="M65.433 77.351c3.228-2.972 6.34-6.51 9.026-10.135 16.816 14.37 34.368 30.867 50.347 44.925-3.428 4.53-4.628 6.715-9.512 11.084-16.61-15.967-33.9-30.544-49.861-45.874Z" style="opacity:.73260073;fill:url(#x);fill-opacity:1;fill-rule:nonzero;stroke:none;stroke-width:5.90653419;stroke-linecap:round;stroke-linejoin:round;stroke-miterlimit:4;stroke-dashoffset:4;stroke-opacity:1"/><path d="m67.332 78.074 7.87-4.014c16.817 14.37 31.512 25.922 48.778 39.362-2.55 5.221-4.26 5.495-8.686 9.803-16.35-15.824-32-29.821-47.962-45.151Z" style="opacity:.74418604;fill:url(#y);fill-opacity:1;fill-rule:nonzero;stroke:none;stroke-width:5.90653419;stroke-linecap:round;stroke-linejoin:round;stroke-miterlimit:4;stroke-dashoffset:4;stroke-opacity:1"/><path d="M74.426 66.247c-3.938 3.297-7.168 6.927-9.78 10.98l.177.16c3.938-3.298 7.168-6.928 9.779-10.98z" style="fill:#5c5c5c;fill-opacity:1;fill-rule:nonzero;stroke:none;stroke-width:5.90653419;stroke-linecap:round;stroke-linejoin:round;stroke-miterlimit:4;stroke-dashoffset:4;stroke-opacity:1"/><ellipse cx="-6.515" cy="100.277" rx="5.529" ry=".464" style="fill:url(#z);fill-opacity:1;fill-rule:nonzero;stroke:none;stroke-width:1.94699645;stroke-linecap:round;stroke-linejoin:round;stroke-miterlimit:4;stroke-dasharray:none;stroke-dashoffset:4;stroke-opacity:1" transform="rotate(-49.2) skewX(-.166)"/><ellipse cx="-10.454" cy="167.803" rx="5.529" ry=".464" style="opacity:.65116278;fill:url(#A);fill-opacity:1;fill-rule:nonzero;stroke:none;stroke-width:1.94699883;stroke-linecap:round;stroke-linejoin:round;stroke-miterlimit:4;stroke-dasharray:none;stroke-dashoffset:4;stroke-opacity:1" transform="rotate(-50.022) skewX(.135)"/><path d="M66.08 62.183c-2.153 2.621-4.136 4.867-6.08 6.863l6.533 6.01c2.419-2.25 4.63-4.398 6.267-6.743z" style="fill:url(#B);fill-opacity:1;fill-rule:nonzero;stroke:none;stroke-width:3.80500007;stroke-linecap:round;stroke-linejoin:round;stroke-miterlimit:4;stroke-dashoffset:4;stroke-opacity:1"/><path d="M66.324 63.334c-2.154 2.622-4.006 4.145-5.95 6.141l6.16 5.581c2.418-2.25 4.628-4.398 6.266-6.743z" style="fill:url(#C);fill-opacity:1;fill-rule:nonzero;stroke:none;stroke-width:3.80500007;stroke-linecap:round;stroke-linejoin:round;stroke-miterlimit:4;stroke-dashoffset:4;stroke-opacity:1"/><path d="M66.442 76.176c5.07 6.233 14.619 15.927 26.047 26.26 8.837 7.988 17.239 15.359 23.674 20.118l4.77-4.602c-5.382-5.925-13.523-14.257-22.36-22.247C87.145 85.373 76.513 76.878 69.8 72.461Z" style="fill:url(#D);fill-opacity:1;stroke:none;stroke-width:3.86199999;stroke-linecap:round;stroke-linejoin:round;stroke-miterlimit:4;stroke-dasharray:none;stroke-dashoffset:4;stroke-opacity:1"/><path d="M66.219 62.281a34.523 34.523 0 0 1-4.469 4.907c-.022.02-.04.042-.063.062A85.94 85.94 0 0 1 60 69.031l2.281 2.125c2.145-1.355 3.997-3.166 5.375-5.406.292-.474.547-.949.781-1.438z" style="opacity:.8;fill:url(#E);fill-opacity:1;fill-rule:evenodd;stroke:none;stroke-width:.62102485;stroke-linecap:round;stroke-linejoin:round;stroke-miterlimit:4;stroke-opacity:1"/><ellipse cx="-36.332" cy="43.297" rx="31.995" ry="32.005" style="fill:url(#F);fill-opacity:1;fill-rule:nonzero;stroke:none;stroke-width:.28938591;stroke-linecap:round;stroke-linejoin:round;stroke-miterlimit:4;stroke-dasharray:none;stroke-dashoffset:4;stroke-opacity:.05963302" transform="matrix(-.9994 .03478 .03904 .99924 0 0)"/><path d="M16.02 39.7c-7.637 16.208 1.562 31.218 20.533 33.503.387.047.781.073 1.17.107.313.049.614.108.935.147 1.475.177 2.974.228 4.479.186-.177-.018-.353-.026-.53-.047-.276-.033-.534-.089-.804-.13.323-.003.642.007.965-.002-.245-.024-.489-.042-.733-.072a31.912 31.912 0 0 1-2.63-.434c-2.68-.732-4.935-1.915-6.658-3.46-7.765-4.06-10.73-12.402-6.558-21.258 3.277-6.954 10.2-12.614 18.13-15.627-8.906 2.854-16.858 9.001-20.473 16.674-2.642 5.606-2.49 11.016-.107 15.309-7.206-6.211-9.337-16.03-4.472-26.356C23.81 28.6 33.4 20.755 44.395 16.577 32.047 20.534 21.032 29.062 16.02 39.7Z" style="fill:url(#G);fill-opacity:1;stroke:none;stroke-width:3.86199999;stroke-linecap:round;stroke-linejoin:round;stroke-miterlimit:4;stroke-dasharray:none;stroke-dashoffset:4;stroke-opacity:1"/><path d="M67.603 31.556c.63 2.656.247 5.202-.951 7.525-3.717 7.202-15.278 12.252-28.805 11.754-13.409-.493-24.456-5.784-27.793-13.126-1.16-2.553-1.388-5.354-.46-8.287 3.584-11.314 15.56-19.801 29.757-19.279 14.38.529 25.68 10.567 28.252 21.413Z" style="opacity:.6;fill:url(#H);fill-opacity:1;fill-rule:nonzero;stroke:none;stroke-width:.24223065;stroke-linecap:round;stroke-linejoin:round;stroke-miterlimit:4;stroke-dashoffset:4;stroke-opacity:.05963302"/><circle cx="-38" cy="42" r="34" style="fill:none;fill-opacity:1;fill-rule:evenodd;stroke:url(#I);stroke-width:3.99999976;stroke-linecap:round;stroke-linejoin:round;stroke-miterlimit:4;stroke-dasharray:none;stroke-opacity:1" transform="scale(-1 1)"/><path d="M4 42c0 18.768 15.232 34 34 34s34-15.232 34-34S56.768 8 38 8 4 23.232 4 42z" style="fill:none;fill-opacity:1;fill-rule:evenodd;stroke:url(#J);stroke-width:3.99999976;stroke-linecap:round;stroke-linejoin:round;stroke-miterlimit:4;stroke-opacity:1"/><ellipse cx="43.452" cy="36.516" rx="31.025" ry="31.035" style="fill:none;fill-opacity:1;fill-rule:nonzero;stroke:url(#K);stroke-width:1.93940246;stroke-linecap:round;stroke-linejoin:round;stroke-miterlimit:4;stroke-dasharray:none;stroke-dashoffset:4;stroke-opacity:1" transform="matrix(.03478 .9994 .99924 -.03904 0 0)"/><path d="M114.244 126.186Z" style="fill:none;stroke:#000;stroke-width:1.4069767px;stroke-linecap:butt;stroke-linejoin:miter;stroke-opacity:1"/><text xml:space="preserve" x=".155" y="117.915" style="font-style:normal;font-weight:400;font-size:48px;line-height:1.25;font-family:sans-serif;letter-spacing:0;word-spacing:0;fill:#00c800;fill-opacity:1;stroke:none;stroke-opacity:1"><tspan x=".155" y="117.915" style="font-size:48px;fill:#00c800;fill-opacity:1;stroke:none;stroke-opacity:1">1:1</tspan></text></svg>