<svg xmlns="http://www.w3.org/2000/svg" width="128" height="128"><path d="m35 93 55-55" style="fill:none;stroke:#5698f5;stroke-width:10;stroke-linecap:butt;stroke-linejoin:miter;stroke-opacity:1;stroke-miterlimit:4;stroke-dasharray:none"/><path d="M26.216 87.995a15 15 0 0 1 14.455 15.228 15 15 0 0 1-14.932 14.762 15 15 0 0 1-15.061-14.63A15 15 0 0 1 25 88M101.216 12.995a15 15 0 0 1 14.456 15.228 15 15 0 0 1-14.933 14.762 15 15 0 0 1-15.061-14.63A15 15 0 0 1 100 13" style="fill:none;fill-opacity:1;stroke:red;stroke-width:10;stroke-linecap:square;stroke-linejoin:round;stroke-miterlimit:4;stroke-dasharray:none;stroke-dashoffset:0;stroke-opacity:1;paint-order:markers stroke fill"/></svg>